G04 #@! TF.GenerationSoftware,KiCad,Pcbnew,(5.1.2)-2*
G04 #@! TF.CreationDate,2020-07-11T15:10:54+01:00*
G04 #@! TF.ProjectId,INV_Board,494e565f-426f-4617-9264-2e6b69636164,rev?*
G04 #@! TF.SameCoordinates,Original*
G04 #@! TF.FileFunction,Copper,L2,Bot*
G04 #@! TF.FilePolarity,Positive*
%FSLAX46Y46*%
G04 Gerber Fmt 4.6, Leading zero omitted, Abs format (unit mm)*
G04 Created by KiCad (PCBNEW (5.1.2)-2) date 2020-07-11 15:10:54*
%MOMM*%
%LPD*%
G04 APERTURE LIST*
%ADD10R,1.000000X1.000000*%
%ADD11O,1.000000X1.000000*%
%ADD12C,2.000000*%
%ADD13R,2.000000X2.000000*%
%ADD14C,5.999480*%
%ADD15R,5.999480X5.999480*%
%ADD16R,2.400000X0.740000*%
%ADD17C,1.000000*%
%ADD18O,1.700000X1.700000*%
%ADD19R,1.700000X1.700000*%
%ADD20O,1.900000X1.200000*%
%ADD21C,1.450000*%
%ADD22C,0.600000*%
%ADD23R,2.950000X4.900000*%
%ADD24C,0.800000*%
%ADD25C,0.250000*%
%ADD26C,0.500000*%
%ADD27C,0.254000*%
G04 APERTURE END LIST*
D10*
X91400000Y-71200000D03*
D11*
X91400000Y-69930000D03*
X91400000Y-68660000D03*
X57340000Y-76100000D03*
X56070000Y-76100000D03*
X54800000Y-76100000D03*
D10*
X53530000Y-76100000D03*
D11*
X70540000Y-76200000D03*
X69270000Y-76200000D03*
X68000000Y-76200000D03*
X66730000Y-76200000D03*
D10*
X65460000Y-76200000D03*
D12*
X43000000Y-63000000D03*
D13*
X48000000Y-63000000D03*
D12*
X43000000Y-52000000D03*
D13*
X48000000Y-52000000D03*
D12*
X43000000Y-41000000D03*
D13*
X48000000Y-41000000D03*
D14*
X44000000Y-32000000D03*
D15*
X51620000Y-32000000D03*
D16*
X53100000Y-74640000D03*
X57000000Y-74640000D03*
X53100000Y-73370000D03*
X57000000Y-73370000D03*
X53100000Y-72100000D03*
X57000000Y-72100000D03*
X53100000Y-70830000D03*
X57000000Y-70830000D03*
X53100000Y-69560000D03*
X57000000Y-69560000D03*
D17*
X88500000Y-73400000D03*
X86000000Y-76300000D03*
D11*
X59660000Y-76100000D03*
X60930000Y-76100000D03*
D10*
X62200000Y-76100000D03*
D11*
X50800000Y-70490000D03*
X50800000Y-71760000D03*
X50800000Y-73030000D03*
D10*
X50800000Y-74300000D03*
D18*
X70040000Y-60000000D03*
D19*
X67500000Y-60000000D03*
D18*
X99040000Y-59500000D03*
D19*
X96500000Y-59500000D03*
D18*
X125040000Y-59500000D03*
D19*
X122500000Y-59500000D03*
D20*
X41662500Y-76400000D03*
X41662500Y-69400000D03*
D21*
X44362500Y-75400000D03*
X44362500Y-70400000D03*
D22*
X134490000Y-72220000D03*
X134490000Y-73520000D03*
X135790000Y-73520000D03*
X135790000Y-72220000D03*
X134490000Y-76120000D03*
X134490000Y-74820000D03*
X135790000Y-74820000D03*
X135790000Y-76120000D03*
D23*
X135140000Y-74170000D03*
D24*
X79750000Y-70500000D03*
X99675000Y-73250000D03*
X71500000Y-75000000D03*
X73500000Y-75000000D03*
X48000000Y-76700000D03*
X68500000Y-75000000D03*
X81000000Y-69400000D03*
X96967367Y-72367367D03*
X102375021Y-73250000D03*
X66000000Y-74750000D03*
X55199988Y-71750344D03*
X96200000Y-70200000D03*
X135500000Y-66500000D03*
X136500000Y-66500000D03*
X137500000Y-66500000D03*
X137500000Y-65000000D03*
X136500000Y-65000000D03*
X135500000Y-65000000D03*
X134000000Y-67500000D03*
X72800000Y-76900000D03*
X132500000Y-43000000D03*
X137500000Y-43000000D03*
X132500000Y-38000000D03*
X135000000Y-40500000D03*
X135000000Y-38000000D03*
X132500000Y-40500000D03*
X135000000Y-43000000D03*
X137500000Y-40500000D03*
X106000000Y-43000000D03*
X111000000Y-43000000D03*
X106000000Y-38000000D03*
X108500000Y-40500000D03*
X108500000Y-38000000D03*
X106000000Y-40500000D03*
X108500000Y-43000000D03*
X111000000Y-40500000D03*
X78500000Y-43500000D03*
X83500000Y-43500000D03*
X78500000Y-38500000D03*
X83500000Y-38500000D03*
X81000000Y-41000000D03*
X81000000Y-38500000D03*
X78500000Y-41000000D03*
X81000000Y-43500000D03*
X83500000Y-41000000D03*
X82697312Y-73548519D03*
X98950000Y-71450000D03*
X78200000Y-66250000D03*
X64592500Y-64407500D03*
X91892500Y-63907500D03*
X119325732Y-63907500D03*
X79500000Y-71900000D03*
X96200000Y-75712494D03*
X89000000Y-75512478D03*
X137500000Y-38000000D03*
X111000000Y-38000000D03*
X107250000Y-39250000D03*
X109750000Y-39250000D03*
X109750000Y-41750000D03*
X107250000Y-41750000D03*
X133750000Y-39250000D03*
X136250000Y-39250000D03*
X136250000Y-41750000D03*
X133750000Y-41750000D03*
X79750000Y-39750000D03*
X82250000Y-39750000D03*
X82250000Y-42250000D03*
X79750000Y-42250000D03*
X107500000Y-75250000D03*
X108200000Y-72600000D03*
X131000000Y-72000000D03*
X129000000Y-67700011D03*
X52662662Y-75862662D03*
X102250000Y-75750000D03*
X59660000Y-74840000D03*
X119800000Y-73200000D03*
X108400000Y-68800000D03*
X106600000Y-71000000D03*
X119200000Y-68800000D03*
X112600000Y-76200000D03*
X114600000Y-73200000D03*
X114000000Y-68800000D03*
X69600000Y-66800000D03*
X73700000Y-65899998D03*
X62800000Y-73200000D03*
X58800000Y-70270065D03*
X93500000Y-35500000D03*
X98500000Y-38000000D03*
X96000000Y-38000000D03*
X101000000Y-30500000D03*
X98500000Y-33000000D03*
X96000000Y-33000000D03*
X93500000Y-38000000D03*
X103500000Y-33000000D03*
X101000000Y-35500000D03*
X93500000Y-33000000D03*
X101000000Y-33000000D03*
X103500000Y-30500000D03*
X93500000Y-30500000D03*
X96000000Y-35500000D03*
X96000000Y-30500000D03*
X98500000Y-35500000D03*
X101000000Y-38000000D03*
X120500000Y-35500000D03*
X125500000Y-38000000D03*
X123000000Y-38000000D03*
X128000000Y-30500000D03*
X125500000Y-33000000D03*
X123000000Y-33000000D03*
X120500000Y-38000000D03*
X130500000Y-33000000D03*
X128000000Y-35500000D03*
X120500000Y-33000000D03*
X128000000Y-33000000D03*
X130500000Y-30500000D03*
X120500000Y-30500000D03*
X123000000Y-35500000D03*
X123000000Y-30500000D03*
X125500000Y-35500000D03*
X128000000Y-38000000D03*
X125500000Y-30500000D03*
X130500000Y-35500000D03*
X98500000Y-30500000D03*
X103500000Y-35500000D03*
X70500000Y-33000000D03*
X68000000Y-33000000D03*
X68000000Y-30500000D03*
X70500000Y-30500000D03*
X73000000Y-30500000D03*
X73000000Y-33000000D03*
X73000000Y-35500000D03*
X70500000Y-35500000D03*
X68000000Y-35500000D03*
X65500000Y-35500000D03*
X65500000Y-33000000D03*
X65500000Y-30500000D03*
X75500000Y-30500000D03*
X75500000Y-33000000D03*
X75500000Y-35500000D03*
X65500000Y-38000000D03*
X68000000Y-38000000D03*
X70500000Y-38000000D03*
X73000000Y-38000000D03*
X75000000Y-38000000D03*
X139250000Y-36250000D03*
X137500000Y-58500000D03*
X135500000Y-58500000D03*
X136500000Y-58500000D03*
X103000000Y-38000000D03*
X129750000Y-38000000D03*
X139000000Y-77000000D03*
X97000000Y-67900014D03*
X96607625Y-65999963D03*
X84922345Y-71412159D03*
X82985632Y-64864851D03*
X125000000Y-52000000D03*
X122500000Y-47000000D03*
X125000000Y-57000000D03*
X122500000Y-57000000D03*
X120000000Y-57000000D03*
X120000000Y-54500000D03*
X122500000Y-52000000D03*
X122500000Y-54500000D03*
X127500000Y-47000000D03*
X127500000Y-54500000D03*
X120000000Y-52000000D03*
X127500000Y-49500000D03*
X120000000Y-47000000D03*
X127500000Y-52000000D03*
X127500000Y-57000000D03*
X122500000Y-49500000D03*
X120000000Y-49500000D03*
X125000000Y-47000000D03*
X125000000Y-54500000D03*
X125000000Y-49500000D03*
X99000000Y-52000000D03*
X96500000Y-47000000D03*
X99000000Y-57000000D03*
X96500000Y-57000000D03*
X94000000Y-57000000D03*
X94000000Y-54500000D03*
X96500000Y-52000000D03*
X96500000Y-54500000D03*
X101500000Y-47000000D03*
X101500000Y-54500000D03*
X94000000Y-52000000D03*
X101500000Y-49500000D03*
X94000000Y-47000000D03*
X101500000Y-52000000D03*
X101500000Y-57000000D03*
X96500000Y-49500000D03*
X94000000Y-49500000D03*
X99000000Y-47000000D03*
X99000000Y-54500000D03*
X99000000Y-49500000D03*
X72500000Y-57000000D03*
X67500000Y-49500000D03*
X65000000Y-52000000D03*
X70000000Y-52000000D03*
X65000000Y-49500000D03*
X70000000Y-54500000D03*
X70000000Y-47000000D03*
X72500000Y-49500000D03*
X70000000Y-57000000D03*
X70000000Y-49500000D03*
X65000000Y-57000000D03*
X67500000Y-47000000D03*
X67500000Y-57000000D03*
X65000000Y-54500000D03*
X72500000Y-54500000D03*
X67500000Y-54500000D03*
X65000000Y-47000000D03*
X72500000Y-52000000D03*
X67500000Y-52000000D03*
X72500000Y-47000000D03*
X84108974Y-68875004D03*
X85787340Y-66987340D03*
X97992467Y-68022609D03*
X97926355Y-65579701D03*
X69700000Y-64300000D03*
X75800000Y-67775000D03*
X84952676Y-72411711D03*
X82000000Y-71000000D03*
X71296614Y-65896614D03*
X73293857Y-66813823D03*
X54803827Y-69775828D03*
X54749977Y-70800000D03*
X78000000Y-75300000D03*
X81500000Y-74000000D03*
X87253016Y-76671243D03*
X103005698Y-76404938D03*
X93250000Y-76924974D03*
X115900000Y-55900000D03*
X117250000Y-47500000D03*
X122800000Y-61800000D03*
X129385002Y-54358579D03*
X90200000Y-55700000D03*
X90300000Y-46500000D03*
X95800000Y-62100000D03*
X102700000Y-54400000D03*
X60700000Y-56500000D03*
X63000000Y-47000000D03*
X68000000Y-62400000D03*
X74585082Y-54800000D03*
X75062653Y-73062653D03*
X74800000Y-70613378D03*
X106900000Y-76275000D03*
X48900000Y-77375000D03*
X111800000Y-71400000D03*
X111700000Y-73500000D03*
X109600000Y-71400000D03*
X110000000Y-68600044D03*
X110000000Y-65800004D03*
D25*
X79750000Y-70500000D02*
X80850000Y-69400000D01*
X80850000Y-69400000D02*
X81000000Y-69400000D01*
D26*
X99675000Y-73250000D02*
X102375021Y-73250000D01*
D25*
X55474999Y-70255001D02*
X55474999Y-71475333D01*
X56170000Y-69560000D02*
X55474999Y-70255001D01*
X55474999Y-71475333D02*
X55199988Y-71750344D01*
X57000000Y-69560000D02*
X56170000Y-69560000D01*
D26*
X96967367Y-72367367D02*
X96967367Y-70967367D01*
X96599999Y-70599999D02*
X96200000Y-70200000D01*
X96967367Y-70967367D02*
X96599999Y-70599999D01*
X139250000Y-36250000D02*
X139250000Y-57750000D01*
D25*
X139250000Y-57750000D02*
X139250000Y-76750000D01*
X139250000Y-76750000D02*
X139000000Y-77000000D01*
D26*
X135500000Y-58500000D02*
X136500000Y-58500000D01*
X136500000Y-58500000D02*
X137500000Y-58500000D01*
X138500000Y-58500000D02*
X139250000Y-57750000D01*
X137500000Y-58500000D02*
X138500000Y-58500000D01*
D25*
X96607625Y-67507639D02*
X97000000Y-67900014D01*
X96607625Y-65999963D02*
X96607625Y-67507639D01*
X82800000Y-70100000D02*
X82800000Y-65050483D01*
X82800000Y-65050483D02*
X82985632Y-64864851D01*
X84922345Y-71412159D02*
X84112159Y-71412159D01*
X84112159Y-71412159D02*
X82800000Y-70100000D01*
X84108974Y-68875004D02*
X85787340Y-67196638D01*
X85787340Y-67196638D02*
X85787340Y-66987340D01*
X97992467Y-68022609D02*
X97992467Y-65645813D01*
X97992467Y-65645813D02*
X97926355Y-65579701D01*
X84952676Y-72411711D02*
X83411711Y-72411711D01*
X83411711Y-72411711D02*
X82000000Y-71000000D01*
X69700000Y-64300000D02*
X71296614Y-65896614D01*
X74255034Y-67775000D02*
X73693856Y-67213822D01*
X75800000Y-67775000D02*
X74255034Y-67775000D01*
X73693856Y-67213822D02*
X73293857Y-66813823D01*
X54587999Y-69560000D02*
X54803827Y-69775828D01*
X53100000Y-69560000D02*
X54587999Y-69560000D01*
X54719977Y-70830000D02*
X54749977Y-70800000D01*
X53100000Y-70830000D02*
X54719977Y-70830000D01*
X80200000Y-75300000D02*
X81500000Y-74000000D01*
X78000000Y-75300000D02*
X80200000Y-75300000D01*
X53060000Y-74600000D02*
X53100000Y-74640000D01*
X51700000Y-74600000D02*
X53060000Y-74600000D01*
X50800000Y-74300000D02*
X51400000Y-74300000D01*
X51400000Y-74300000D02*
X51700000Y-74600000D01*
X93815685Y-76924974D02*
X93250000Y-76924974D01*
X92996269Y-76671243D02*
X93250000Y-76924974D01*
X87253016Y-76671243D02*
X92996269Y-76671243D01*
X102485662Y-76924974D02*
X93815685Y-76924974D01*
X103005698Y-76404938D02*
X102485662Y-76924974D01*
X117250000Y-54550000D02*
X117250000Y-47500000D01*
X115900000Y-55900000D02*
X117250000Y-54550000D01*
X129000000Y-54743581D02*
X129385002Y-54358579D01*
X129000000Y-61500000D02*
X129000000Y-54743581D01*
X123665685Y-61500000D02*
X129000000Y-61500000D01*
X122800000Y-61800000D02*
X123365685Y-61800000D01*
X123365685Y-61800000D02*
X123665685Y-61500000D01*
X90200000Y-55700000D02*
X90200000Y-46600000D01*
X90200000Y-46600000D02*
X90300000Y-46500000D01*
X96365685Y-62100000D02*
X97065685Y-61400000D01*
X95800000Y-62100000D02*
X96365685Y-62100000D01*
X97065685Y-61400000D02*
X102200000Y-61400000D01*
X102200000Y-61400000D02*
X102700000Y-60900000D01*
X102700000Y-60900000D02*
X102700000Y-54400000D01*
X61500000Y-48500000D02*
X63000000Y-47000000D01*
X60700000Y-56500000D02*
X61500000Y-55700000D01*
X61500000Y-55700000D02*
X61500000Y-48500000D01*
X73600000Y-55785082D02*
X74585082Y-54800000D01*
X73600000Y-61300000D02*
X73600000Y-55785082D01*
X73300000Y-61600000D02*
X73600000Y-61300000D01*
X68000000Y-62400000D02*
X68800000Y-61600000D01*
X68800000Y-61600000D02*
X73300000Y-61600000D01*
X75062653Y-70876031D02*
X74800000Y-70613378D01*
X75062653Y-73062653D02*
X75062653Y-70876031D01*
X49174990Y-77649990D02*
X48900000Y-77375000D01*
X65460000Y-77589980D02*
X65399990Y-77649990D01*
X65460000Y-76200000D02*
X65460000Y-77589980D01*
X65399990Y-77649990D02*
X49174990Y-77649990D01*
D26*
X109600000Y-71400000D02*
X109600000Y-71400000D01*
X111700000Y-71500000D02*
X111800000Y-71400000D01*
X111700000Y-73500000D02*
X111700000Y-71500000D01*
X109600000Y-71400000D02*
X111800000Y-71400000D01*
D25*
X105525010Y-77649990D02*
X65399990Y-77649990D01*
X106900000Y-76275000D02*
X105525010Y-77649990D01*
D26*
X110000000Y-68600044D02*
X110000000Y-65800004D01*
D27*
G36*
X139598000Y-35553127D02*
G01*
X139476643Y-35502859D01*
X139326528Y-35473000D01*
X139173472Y-35473000D01*
X139023357Y-35502859D01*
X138881952Y-35561431D01*
X138754691Y-35646464D01*
X138646464Y-35754691D01*
X138561431Y-35881952D01*
X138502859Y-36023357D01*
X138473000Y-36173472D01*
X138473000Y-36326528D01*
X138502859Y-36476643D01*
X138561431Y-36618048D01*
X138623000Y-36710193D01*
X138623001Y-57490287D01*
X138240289Y-57873000D01*
X137960193Y-57873000D01*
X137868048Y-57811431D01*
X137726643Y-57752859D01*
X137576528Y-57723000D01*
X137423472Y-57723000D01*
X137273357Y-57752859D01*
X137131952Y-57811431D01*
X137039807Y-57873000D01*
X136960193Y-57873000D01*
X136868048Y-57811431D01*
X136726643Y-57752859D01*
X136576528Y-57723000D01*
X136423472Y-57723000D01*
X136273357Y-57752859D01*
X136131952Y-57811431D01*
X136039807Y-57873000D01*
X135960193Y-57873000D01*
X135868048Y-57811431D01*
X135726643Y-57752859D01*
X135576528Y-57723000D01*
X135423472Y-57723000D01*
X135273357Y-57752859D01*
X135131952Y-57811431D01*
X135004691Y-57896464D01*
X134896464Y-58004691D01*
X134811431Y-58131952D01*
X134752859Y-58273357D01*
X134723000Y-58423472D01*
X134723000Y-58576528D01*
X134752859Y-58726643D01*
X134811431Y-58868048D01*
X134896464Y-58995309D01*
X135004691Y-59103536D01*
X135131952Y-59188569D01*
X135273357Y-59247141D01*
X135423472Y-59277000D01*
X135576528Y-59277000D01*
X135726643Y-59247141D01*
X135868048Y-59188569D01*
X135960193Y-59127000D01*
X136039807Y-59127000D01*
X136131952Y-59188569D01*
X136273357Y-59247141D01*
X136423472Y-59277000D01*
X136576528Y-59277000D01*
X136726643Y-59247141D01*
X136868048Y-59188569D01*
X136960193Y-59127000D01*
X137039807Y-59127000D01*
X137131952Y-59188569D01*
X137273357Y-59247141D01*
X137423472Y-59277000D01*
X137576528Y-59277000D01*
X137726643Y-59247141D01*
X137868048Y-59188569D01*
X137960193Y-59127000D01*
X138469206Y-59127000D01*
X138500000Y-59130033D01*
X138530794Y-59127000D01*
X138622913Y-59117927D01*
X138741103Y-59082075D01*
X138748000Y-59078388D01*
X138748001Y-76263362D01*
X138631952Y-76311431D01*
X138504691Y-76396464D01*
X138396464Y-76504691D01*
X138311431Y-76631952D01*
X138252859Y-76773357D01*
X138223000Y-76923472D01*
X138223000Y-77076528D01*
X138252859Y-77226643D01*
X138311431Y-77368048D01*
X138396464Y-77495309D01*
X138499155Y-77598000D01*
X106286934Y-77598000D01*
X106832935Y-77052000D01*
X106976528Y-77052000D01*
X107126643Y-77022141D01*
X107268048Y-76963569D01*
X107395309Y-76878536D01*
X107503536Y-76770309D01*
X107588569Y-76643048D01*
X107647141Y-76501643D01*
X107677000Y-76351528D01*
X107677000Y-76198472D01*
X107647141Y-76048357D01*
X107588569Y-75906952D01*
X107503536Y-75779691D01*
X107395309Y-75671464D01*
X107268048Y-75586431D01*
X107126643Y-75527859D01*
X106976528Y-75498000D01*
X106823472Y-75498000D01*
X106673357Y-75527859D01*
X106531952Y-75586431D01*
X106404691Y-75671464D01*
X106296464Y-75779691D01*
X106211431Y-75906952D01*
X106152859Y-76048357D01*
X106123000Y-76198472D01*
X106123000Y-76342065D01*
X105317076Y-77147990D01*
X103242213Y-77147990D01*
X103373746Y-77093507D01*
X103501007Y-77008474D01*
X103609234Y-76900247D01*
X103694267Y-76772986D01*
X103752839Y-76631581D01*
X103782698Y-76481466D01*
X103782698Y-76328410D01*
X103752839Y-76178295D01*
X103694267Y-76036890D01*
X103609234Y-75909629D01*
X103501007Y-75801402D01*
X103373746Y-75716369D01*
X103232341Y-75657797D01*
X103082226Y-75627938D01*
X102929170Y-75627938D01*
X102779055Y-75657797D01*
X102637650Y-75716369D01*
X102510389Y-75801402D01*
X102402162Y-75909629D01*
X102317129Y-76036890D01*
X102258557Y-76178295D01*
X102228698Y-76328410D01*
X102228698Y-76422974D01*
X93846845Y-76422974D01*
X93745309Y-76321438D01*
X93618048Y-76236405D01*
X93476643Y-76177833D01*
X93326528Y-76147974D01*
X93173472Y-76147974D01*
X93051435Y-76172248D01*
X93020922Y-76169243D01*
X93020912Y-76169243D01*
X92996269Y-76166816D01*
X92971626Y-76169243D01*
X87849861Y-76169243D01*
X87748325Y-76067707D01*
X87621064Y-75982674D01*
X87479659Y-75924102D01*
X87329544Y-75894243D01*
X87176488Y-75894243D01*
X87026373Y-75924102D01*
X86884968Y-75982674D01*
X86832373Y-76017817D01*
X86777187Y-75884585D01*
X86681210Y-75740945D01*
X86559055Y-75618790D01*
X86415415Y-75522813D01*
X86255811Y-75456703D01*
X86086377Y-75423000D01*
X85913623Y-75423000D01*
X85744189Y-75456703D01*
X85584585Y-75522813D01*
X85440945Y-75618790D01*
X85318790Y-75740945D01*
X85222813Y-75884585D01*
X85156703Y-76044189D01*
X85123000Y-76213623D01*
X85123000Y-76386377D01*
X85156703Y-76555811D01*
X85222813Y-76715415D01*
X85318790Y-76859055D01*
X85440945Y-76981210D01*
X85584585Y-77077187D01*
X85744189Y-77143297D01*
X85767782Y-77147990D01*
X69877000Y-77147990D01*
X69877000Y-76836373D01*
X69893133Y-76823133D01*
X70002727Y-76689592D01*
X70084162Y-76537237D01*
X70134310Y-76371922D01*
X70151243Y-76200000D01*
X70134310Y-76028078D01*
X70088481Y-75877000D01*
X75000000Y-75877000D01*
X75073549Y-75869756D01*
X75144272Y-75848303D01*
X75209450Y-75813464D01*
X75266579Y-75766579D01*
X75313464Y-75709450D01*
X75348303Y-75644272D01*
X75369756Y-75573549D01*
X75377000Y-75500000D01*
X75377000Y-75223472D01*
X77223000Y-75223472D01*
X77223000Y-75376528D01*
X77252859Y-75526643D01*
X77311431Y-75668048D01*
X77396464Y-75795309D01*
X77504691Y-75903536D01*
X77631952Y-75988569D01*
X77773357Y-76047141D01*
X77923472Y-76077000D01*
X78076528Y-76077000D01*
X78226643Y-76047141D01*
X78368048Y-75988569D01*
X78495309Y-75903536D01*
X78596845Y-75802000D01*
X80175357Y-75802000D01*
X80200000Y-75804427D01*
X80224643Y-75802000D01*
X80224653Y-75802000D01*
X80298409Y-75794736D01*
X80393036Y-75766031D01*
X80480245Y-75719417D01*
X80556684Y-75656684D01*
X80572401Y-75637533D01*
X81432935Y-74777000D01*
X81576528Y-74777000D01*
X81726643Y-74747141D01*
X81868048Y-74688569D01*
X81995309Y-74603536D01*
X82103536Y-74495309D01*
X82188569Y-74368048D01*
X82247141Y-74226643D01*
X82277000Y-74076528D01*
X82277000Y-73923472D01*
X82247141Y-73773357D01*
X82188569Y-73631952D01*
X82103536Y-73504691D01*
X81995309Y-73396464D01*
X81871329Y-73313623D01*
X87623000Y-73313623D01*
X87623000Y-73486377D01*
X87656703Y-73655811D01*
X87722813Y-73815415D01*
X87818790Y-73959055D01*
X87940945Y-74081210D01*
X88084585Y-74177187D01*
X88244189Y-74243297D01*
X88413623Y-74277000D01*
X88586377Y-74277000D01*
X88755811Y-74243297D01*
X88915415Y-74177187D01*
X89059055Y-74081210D01*
X89181210Y-73959055D01*
X89277187Y-73815415D01*
X89343297Y-73655811D01*
X89377000Y-73486377D01*
X89377000Y-73313623D01*
X89349122Y-73173472D01*
X98898000Y-73173472D01*
X98898000Y-73326528D01*
X98927859Y-73476643D01*
X98986431Y-73618048D01*
X99071464Y-73745309D01*
X99179691Y-73853536D01*
X99306952Y-73938569D01*
X99448357Y-73997141D01*
X99598472Y-74027000D01*
X99751528Y-74027000D01*
X99901643Y-73997141D01*
X100043048Y-73938569D01*
X100135193Y-73877000D01*
X101914828Y-73877000D01*
X102006973Y-73938569D01*
X102148378Y-73997141D01*
X102298493Y-74027000D01*
X102451549Y-74027000D01*
X102601664Y-73997141D01*
X102743069Y-73938569D01*
X102870330Y-73853536D01*
X102978557Y-73745309D01*
X103063590Y-73618048D01*
X103122162Y-73476643D01*
X103152021Y-73326528D01*
X103152021Y-73173472D01*
X103122162Y-73023357D01*
X103063590Y-72881952D01*
X102978557Y-72754691D01*
X102870330Y-72646464D01*
X102743069Y-72561431D01*
X102601664Y-72502859D01*
X102451549Y-72473000D01*
X102298493Y-72473000D01*
X102148378Y-72502859D01*
X102006973Y-72561431D01*
X101914828Y-72623000D01*
X100135193Y-72623000D01*
X100043048Y-72561431D01*
X99901643Y-72502859D01*
X99751528Y-72473000D01*
X99598472Y-72473000D01*
X99448357Y-72502859D01*
X99306952Y-72561431D01*
X99179691Y-72646464D01*
X99071464Y-72754691D01*
X98986431Y-72881952D01*
X98927859Y-73023357D01*
X98898000Y-73173472D01*
X89349122Y-73173472D01*
X89343297Y-73144189D01*
X89277187Y-72984585D01*
X89181210Y-72840945D01*
X89059055Y-72718790D01*
X88915415Y-72622813D01*
X88755811Y-72556703D01*
X88586377Y-72523000D01*
X88413623Y-72523000D01*
X88244189Y-72556703D01*
X88084585Y-72622813D01*
X87940945Y-72718790D01*
X87818790Y-72840945D01*
X87722813Y-72984585D01*
X87656703Y-73144189D01*
X87623000Y-73313623D01*
X81871329Y-73313623D01*
X81868048Y-73311431D01*
X81726643Y-73252859D01*
X81576528Y-73223000D01*
X81423472Y-73223000D01*
X81273357Y-73252859D01*
X81131952Y-73311431D01*
X81004691Y-73396464D01*
X80896464Y-73504691D01*
X80811431Y-73631952D01*
X80752859Y-73773357D01*
X80723000Y-73923472D01*
X80723000Y-74067065D01*
X79992066Y-74798000D01*
X78596845Y-74798000D01*
X78495309Y-74696464D01*
X78368048Y-74611431D01*
X78226643Y-74552859D01*
X78076528Y-74523000D01*
X77923472Y-74523000D01*
X77773357Y-74552859D01*
X77631952Y-74611431D01*
X77504691Y-74696464D01*
X77396464Y-74804691D01*
X77311431Y-74931952D01*
X77252859Y-75073357D01*
X77223000Y-75223472D01*
X75377000Y-75223472D01*
X75377000Y-74500000D01*
X75369756Y-74426451D01*
X75348303Y-74355728D01*
X75313464Y-74290550D01*
X75266579Y-74233421D01*
X75209450Y-74186536D01*
X75144272Y-74151697D01*
X75073549Y-74130244D01*
X75000000Y-74123000D01*
X66460193Y-74123000D01*
X66368048Y-74061431D01*
X66226643Y-74002859D01*
X66076528Y-73973000D01*
X65923472Y-73973000D01*
X65773357Y-74002859D01*
X65631952Y-74061431D01*
X65539807Y-74123000D01*
X61000000Y-74123000D01*
X60926451Y-74130244D01*
X60855728Y-74151697D01*
X60790550Y-74186536D01*
X60733421Y-74233421D01*
X60686536Y-74290550D01*
X60651697Y-74355728D01*
X60630244Y-74426451D01*
X60623000Y-74500000D01*
X60623000Y-75276666D01*
X60592763Y-75285838D01*
X60440408Y-75367273D01*
X60306867Y-75476867D01*
X60197273Y-75610408D01*
X60115838Y-75762763D01*
X60065690Y-75928078D01*
X60048757Y-76100000D01*
X60051022Y-76123000D01*
X58218978Y-76123000D01*
X58221243Y-76100000D01*
X58204310Y-75928078D01*
X58154162Y-75762763D01*
X58072727Y-75610408D01*
X57963133Y-75476867D01*
X57829592Y-75367273D01*
X57677237Y-75285838D01*
X57511922Y-75235690D01*
X57383079Y-75223000D01*
X57296921Y-75223000D01*
X57168078Y-75235690D01*
X57002763Y-75285838D01*
X56850408Y-75367273D01*
X56716867Y-75476867D01*
X56705000Y-75491327D01*
X56693133Y-75476867D01*
X56559592Y-75367273D01*
X56407237Y-75285838D01*
X56241922Y-75235690D01*
X56113079Y-75223000D01*
X56026921Y-75223000D01*
X55898078Y-75235690D01*
X55732763Y-75285838D01*
X55580408Y-75367273D01*
X55446867Y-75476867D01*
X55435000Y-75491327D01*
X55423133Y-75476867D01*
X55289592Y-75367273D01*
X55137237Y-75285838D01*
X54971922Y-75235690D01*
X54843079Y-75223000D01*
X54756921Y-75223000D01*
X54628078Y-75235690D01*
X54594001Y-75246027D01*
X54614981Y-75220463D01*
X54649988Y-75154970D01*
X54671545Y-75083905D01*
X54678824Y-75010000D01*
X54678824Y-74270000D01*
X54671545Y-74196095D01*
X54649988Y-74125030D01*
X54614981Y-74059537D01*
X54570224Y-74005000D01*
X54614981Y-73950463D01*
X54649988Y-73884970D01*
X54671545Y-73813905D01*
X54678824Y-73740000D01*
X54678824Y-73000000D01*
X55421176Y-73000000D01*
X55421176Y-73740000D01*
X55428455Y-73813905D01*
X55450012Y-73884970D01*
X55485019Y-73950463D01*
X55532131Y-74007869D01*
X55589537Y-74054981D01*
X55655030Y-74089988D01*
X55726095Y-74111545D01*
X55800000Y-74118824D01*
X58200000Y-74118824D01*
X58273905Y-74111545D01*
X58344970Y-74089988D01*
X58410463Y-74054981D01*
X58467869Y-74007869D01*
X58514981Y-73950463D01*
X58549988Y-73884970D01*
X58571545Y-73813905D01*
X58578824Y-73740000D01*
X58578824Y-73000000D01*
X58571545Y-72926095D01*
X58549988Y-72855030D01*
X58514981Y-72789537D01*
X58467869Y-72732131D01*
X58410463Y-72685019D01*
X58344970Y-72650012D01*
X58273905Y-72628455D01*
X58200000Y-72621176D01*
X55800000Y-72621176D01*
X55726095Y-72628455D01*
X55655030Y-72650012D01*
X55589537Y-72685019D01*
X55532131Y-72732131D01*
X55485019Y-72789537D01*
X55450012Y-72855030D01*
X55428455Y-72926095D01*
X55421176Y-73000000D01*
X54678824Y-73000000D01*
X54671545Y-72926095D01*
X54649988Y-72855030D01*
X54614981Y-72789537D01*
X54570224Y-72735000D01*
X54614981Y-72680463D01*
X54649988Y-72614970D01*
X54671545Y-72543905D01*
X54678824Y-72470000D01*
X54678824Y-72328025D01*
X54704679Y-72353880D01*
X54831940Y-72438913D01*
X54973345Y-72497485D01*
X55123460Y-72527344D01*
X55276516Y-72527344D01*
X55426631Y-72497485D01*
X55568036Y-72438913D01*
X55695297Y-72353880D01*
X55803524Y-72245653D01*
X55888557Y-72118392D01*
X55947129Y-71976987D01*
X55976988Y-71826872D01*
X55976988Y-71673816D01*
X55962093Y-71598933D01*
X55969735Y-71573742D01*
X55976999Y-71499986D01*
X55976999Y-71499977D01*
X55979426Y-71475334D01*
X55976999Y-71450691D01*
X55976999Y-70536850D01*
X74023000Y-70536850D01*
X74023000Y-70689906D01*
X74052859Y-70840021D01*
X74111431Y-70981426D01*
X74196464Y-71108687D01*
X74304691Y-71216914D01*
X74431952Y-71301947D01*
X74560654Y-71355257D01*
X74560653Y-72465808D01*
X74459117Y-72567344D01*
X74374084Y-72694605D01*
X74315512Y-72836010D01*
X74285653Y-72986125D01*
X74285653Y-73139181D01*
X74315512Y-73289296D01*
X74374084Y-73430701D01*
X74459117Y-73557962D01*
X74567344Y-73666189D01*
X74694605Y-73751222D01*
X74836010Y-73809794D01*
X74986125Y-73839653D01*
X75139181Y-73839653D01*
X75289296Y-73809794D01*
X75430701Y-73751222D01*
X75557962Y-73666189D01*
X75666189Y-73557962D01*
X75751222Y-73430701D01*
X75809794Y-73289296D01*
X75839653Y-73139181D01*
X75839653Y-72986125D01*
X75809794Y-72836010D01*
X75751222Y-72694605D01*
X75666189Y-72567344D01*
X75564653Y-72465808D01*
X75564653Y-70900673D01*
X75567080Y-70876030D01*
X75564653Y-70851387D01*
X75564653Y-70851378D01*
X75558106Y-70784897D01*
X75577000Y-70689906D01*
X75577000Y-70536850D01*
X75554449Y-70423472D01*
X78973000Y-70423472D01*
X78973000Y-70576528D01*
X79002859Y-70726643D01*
X79061431Y-70868048D01*
X79146464Y-70995309D01*
X79254691Y-71103536D01*
X79381952Y-71188569D01*
X79523357Y-71247141D01*
X79673472Y-71277000D01*
X79826528Y-71277000D01*
X79976643Y-71247141D01*
X80118048Y-71188569D01*
X80245309Y-71103536D01*
X80353536Y-70995309D01*
X80401535Y-70923472D01*
X81223000Y-70923472D01*
X81223000Y-71076528D01*
X81252859Y-71226643D01*
X81311431Y-71368048D01*
X81396464Y-71495309D01*
X81504691Y-71603536D01*
X81631952Y-71688569D01*
X81773357Y-71747141D01*
X81923472Y-71777000D01*
X82067065Y-71777000D01*
X83039318Y-72749254D01*
X83055027Y-72768395D01*
X83074167Y-72784103D01*
X83074175Y-72784111D01*
X83117892Y-72819988D01*
X83131466Y-72831128D01*
X83218675Y-72877742D01*
X83313302Y-72906447D01*
X83387058Y-72913711D01*
X83387068Y-72913711D01*
X83411711Y-72916138D01*
X83436354Y-72913711D01*
X84355831Y-72913711D01*
X84457367Y-73015247D01*
X84584628Y-73100280D01*
X84726033Y-73158852D01*
X84876148Y-73188711D01*
X85029204Y-73188711D01*
X85179319Y-73158852D01*
X85320724Y-73100280D01*
X85447985Y-73015247D01*
X85556212Y-72907020D01*
X85641245Y-72779759D01*
X85699817Y-72638354D01*
X85729676Y-72488239D01*
X85729676Y-72335183D01*
X85699817Y-72185068D01*
X85641245Y-72043663D01*
X85556212Y-71916402D01*
X85534451Y-71894641D01*
X85610914Y-71780207D01*
X85669486Y-71638802D01*
X85699345Y-71488687D01*
X85699345Y-71335631D01*
X85669486Y-71185516D01*
X85610914Y-71044111D01*
X85525881Y-70916850D01*
X85417654Y-70808623D01*
X85290393Y-70723590D01*
X85148988Y-70665018D01*
X84998873Y-70635159D01*
X84845817Y-70635159D01*
X84695702Y-70665018D01*
X84554297Y-70723590D01*
X84427036Y-70808623D01*
X84325500Y-70910159D01*
X84320094Y-70910159D01*
X83339935Y-69930000D01*
X90518757Y-69930000D01*
X90535690Y-70101922D01*
X90585838Y-70267237D01*
X90661217Y-70408261D01*
X90632131Y-70432131D01*
X90585019Y-70489537D01*
X90550012Y-70555030D01*
X90528455Y-70626095D01*
X90521176Y-70700000D01*
X90521176Y-71700000D01*
X90528455Y-71773905D01*
X90550012Y-71844970D01*
X90585019Y-71910463D01*
X90632131Y-71967869D01*
X90689537Y-72014981D01*
X90755030Y-72049988D01*
X90826095Y-72071545D01*
X90900000Y-72078824D01*
X91900000Y-72078824D01*
X91973905Y-72071545D01*
X92044970Y-72049988D01*
X92110463Y-72014981D01*
X92167869Y-71967869D01*
X92214981Y-71910463D01*
X92249988Y-71844970D01*
X92271545Y-71773905D01*
X92278824Y-71700000D01*
X92278824Y-70700000D01*
X92271545Y-70626095D01*
X92249988Y-70555030D01*
X92214981Y-70489537D01*
X92167869Y-70432131D01*
X92138783Y-70408261D01*
X92214162Y-70267237D01*
X92257772Y-70123472D01*
X95423000Y-70123472D01*
X95423000Y-70276528D01*
X95452859Y-70426643D01*
X95511431Y-70568048D01*
X95596464Y-70695309D01*
X95704691Y-70803536D01*
X95831952Y-70888569D01*
X95973357Y-70947141D01*
X96082050Y-70968761D01*
X96340368Y-71227079D01*
X96340367Y-71907174D01*
X96278798Y-71999319D01*
X96220226Y-72140724D01*
X96190367Y-72290839D01*
X96190367Y-72443895D01*
X96220226Y-72594010D01*
X96278798Y-72735415D01*
X96363831Y-72862676D01*
X96472058Y-72970903D01*
X96599319Y-73055936D01*
X96740724Y-73114508D01*
X96890839Y-73144367D01*
X97043895Y-73144367D01*
X97194010Y-73114508D01*
X97335415Y-73055936D01*
X97462676Y-72970903D01*
X97570903Y-72862676D01*
X97655936Y-72735415D01*
X97714508Y-72594010D01*
X97744367Y-72443895D01*
X97744367Y-72290839D01*
X97714508Y-72140724D01*
X97655936Y-71999319D01*
X97594367Y-71907174D01*
X97594367Y-71323472D01*
X108823000Y-71323472D01*
X108823000Y-71476528D01*
X108852859Y-71626643D01*
X108911431Y-71768048D01*
X108996464Y-71895309D01*
X109104691Y-72003536D01*
X109231952Y-72088569D01*
X109373357Y-72147141D01*
X109523472Y-72177000D01*
X109676528Y-72177000D01*
X109826643Y-72147141D01*
X109968048Y-72088569D01*
X110060193Y-72027000D01*
X111073001Y-72027000D01*
X111073000Y-73039807D01*
X111011431Y-73131952D01*
X110952859Y-73273357D01*
X110923000Y-73423472D01*
X110923000Y-73576528D01*
X110952859Y-73726643D01*
X111011431Y-73868048D01*
X111096464Y-73995309D01*
X111204691Y-74103536D01*
X111331952Y-74188569D01*
X111473357Y-74247141D01*
X111623472Y-74277000D01*
X111776528Y-74277000D01*
X111926643Y-74247141D01*
X112068048Y-74188569D01*
X112195309Y-74103536D01*
X112303536Y-73995309D01*
X112388569Y-73868048D01*
X112447141Y-73726643D01*
X112477000Y-73576528D01*
X112477000Y-73423472D01*
X112447141Y-73273357D01*
X112388569Y-73131952D01*
X112327000Y-73039807D01*
X112327000Y-71971845D01*
X112403536Y-71895309D01*
X112488569Y-71768048D01*
X112547141Y-71626643D01*
X112577000Y-71476528D01*
X112577000Y-71323472D01*
X112547141Y-71173357D01*
X112488569Y-71031952D01*
X112403536Y-70904691D01*
X112295309Y-70796464D01*
X112168048Y-70711431D01*
X112026643Y-70652859D01*
X111876528Y-70623000D01*
X111723472Y-70623000D01*
X111573357Y-70652859D01*
X111431952Y-70711431D01*
X111339807Y-70773000D01*
X110060193Y-70773000D01*
X109968048Y-70711431D01*
X109826643Y-70652859D01*
X109676528Y-70623000D01*
X109523472Y-70623000D01*
X109373357Y-70652859D01*
X109231952Y-70711431D01*
X109104691Y-70796464D01*
X108996464Y-70904691D01*
X108911431Y-71031952D01*
X108852859Y-71173357D01*
X108823000Y-71323472D01*
X97594367Y-71323472D01*
X97594367Y-70998161D01*
X97597400Y-70967367D01*
X97585294Y-70844454D01*
X97577247Y-70817926D01*
X97549442Y-70726264D01*
X97491220Y-70617339D01*
X97412868Y-70521866D01*
X97388940Y-70502229D01*
X96968761Y-70082050D01*
X96947141Y-69973357D01*
X96888569Y-69831952D01*
X96803536Y-69704691D01*
X96695309Y-69596464D01*
X96568048Y-69511431D01*
X96426643Y-69452859D01*
X96276528Y-69423000D01*
X96123472Y-69423000D01*
X95973357Y-69452859D01*
X95831952Y-69511431D01*
X95704691Y-69596464D01*
X95596464Y-69704691D01*
X95511431Y-69831952D01*
X95452859Y-69973357D01*
X95423000Y-70123472D01*
X92257772Y-70123472D01*
X92264310Y-70101922D01*
X92281243Y-69930000D01*
X92264310Y-69758078D01*
X92214162Y-69592763D01*
X92132727Y-69440408D01*
X92023133Y-69306867D01*
X91889592Y-69197273D01*
X91737237Y-69115838D01*
X91571922Y-69065690D01*
X91443079Y-69053000D01*
X91356921Y-69053000D01*
X91228078Y-69065690D01*
X91062763Y-69115838D01*
X90910408Y-69197273D01*
X90776867Y-69306867D01*
X90667273Y-69440408D01*
X90585838Y-69592763D01*
X90535690Y-69758078D01*
X90518757Y-69930000D01*
X83339935Y-69930000D01*
X83302000Y-69892066D01*
X83302000Y-68798476D01*
X83331974Y-68798476D01*
X83331974Y-68951532D01*
X83361833Y-69101647D01*
X83420405Y-69243052D01*
X83505438Y-69370313D01*
X83613665Y-69478540D01*
X83740926Y-69563573D01*
X83882331Y-69622145D01*
X84032446Y-69652004D01*
X84185502Y-69652004D01*
X84335617Y-69622145D01*
X84477022Y-69563573D01*
X84604283Y-69478540D01*
X84712510Y-69370313D01*
X84797543Y-69243052D01*
X84856115Y-69101647D01*
X84885974Y-68951532D01*
X84885974Y-68807938D01*
X85945887Y-67748026D01*
X86013983Y-67734481D01*
X86155388Y-67675909D01*
X86282649Y-67590876D01*
X86390876Y-67482649D01*
X86475909Y-67355388D01*
X86534481Y-67213983D01*
X86564340Y-67063868D01*
X86564340Y-66910812D01*
X86534481Y-66760697D01*
X86475909Y-66619292D01*
X86390876Y-66492031D01*
X86282649Y-66383804D01*
X86155388Y-66298771D01*
X86013983Y-66240199D01*
X85863868Y-66210340D01*
X85710812Y-66210340D01*
X85560697Y-66240199D01*
X85419292Y-66298771D01*
X85292031Y-66383804D01*
X85183804Y-66492031D01*
X85098771Y-66619292D01*
X85040199Y-66760697D01*
X85010340Y-66910812D01*
X85010340Y-67063868D01*
X85040199Y-67213983D01*
X85046016Y-67228027D01*
X84176040Y-68098004D01*
X84032446Y-68098004D01*
X83882331Y-68127863D01*
X83740926Y-68186435D01*
X83613665Y-68271468D01*
X83505438Y-68379695D01*
X83420405Y-68506956D01*
X83361833Y-68648361D01*
X83331974Y-68798476D01*
X83302000Y-68798476D01*
X83302000Y-65923435D01*
X95830625Y-65923435D01*
X95830625Y-66076491D01*
X95860484Y-66226606D01*
X95919056Y-66368011D01*
X96004089Y-66495272D01*
X96105625Y-66596808D01*
X96105626Y-67482986D01*
X96103198Y-67507639D01*
X96112890Y-67606048D01*
X96141595Y-67700675D01*
X96188209Y-67787884D01*
X96223000Y-67830277D01*
X96223000Y-67976542D01*
X96252859Y-68126657D01*
X96311431Y-68268062D01*
X96396464Y-68395323D01*
X96504691Y-68503550D01*
X96631952Y-68588583D01*
X96773357Y-68647155D01*
X96923472Y-68677014D01*
X97076528Y-68677014D01*
X97226643Y-68647155D01*
X97368048Y-68588583D01*
X97422927Y-68551914D01*
X97497158Y-68626145D01*
X97624419Y-68711178D01*
X97765824Y-68769750D01*
X97915939Y-68799609D01*
X98068995Y-68799609D01*
X98219110Y-68769750D01*
X98360515Y-68711178D01*
X98487776Y-68626145D01*
X98596003Y-68517918D01*
X98681036Y-68390657D01*
X98739608Y-68249252D01*
X98769467Y-68099137D01*
X98769467Y-67946081D01*
X98739608Y-67795966D01*
X98681036Y-67654561D01*
X98596003Y-67527300D01*
X98494467Y-67425764D01*
X98494467Y-66110434D01*
X98529891Y-66075010D01*
X98614924Y-65947749D01*
X98673496Y-65806344D01*
X98689979Y-65723476D01*
X109223000Y-65723476D01*
X109223000Y-65876532D01*
X109252859Y-66026647D01*
X109311431Y-66168052D01*
X109373001Y-66260198D01*
X109373000Y-68139851D01*
X109311431Y-68231996D01*
X109252859Y-68373401D01*
X109223000Y-68523516D01*
X109223000Y-68676572D01*
X109252859Y-68826687D01*
X109311431Y-68968092D01*
X109396464Y-69095353D01*
X109504691Y-69203580D01*
X109631952Y-69288613D01*
X109773357Y-69347185D01*
X109923472Y-69377044D01*
X110076528Y-69377044D01*
X110226643Y-69347185D01*
X110368048Y-69288613D01*
X110495309Y-69203580D01*
X110603536Y-69095353D01*
X110688569Y-68968092D01*
X110747141Y-68826687D01*
X110777000Y-68676572D01*
X110777000Y-68523516D01*
X110747141Y-68373401D01*
X110688569Y-68231996D01*
X110627000Y-68139851D01*
X110627000Y-66260197D01*
X110688569Y-66168052D01*
X110747141Y-66026647D01*
X110777000Y-65876532D01*
X110777000Y-65723476D01*
X110747141Y-65573361D01*
X110688569Y-65431956D01*
X110603536Y-65304695D01*
X110495309Y-65196468D01*
X110368048Y-65111435D01*
X110226643Y-65052863D01*
X110076528Y-65023004D01*
X109923472Y-65023004D01*
X109773357Y-65052863D01*
X109631952Y-65111435D01*
X109504691Y-65196468D01*
X109396464Y-65304695D01*
X109311431Y-65431956D01*
X109252859Y-65573361D01*
X109223000Y-65723476D01*
X98689979Y-65723476D01*
X98703355Y-65656229D01*
X98703355Y-65503173D01*
X98673496Y-65353058D01*
X98614924Y-65211653D01*
X98529891Y-65084392D01*
X98421664Y-64976165D01*
X98294403Y-64891132D01*
X98152998Y-64832560D01*
X98002883Y-64802701D01*
X97849827Y-64802701D01*
X97699712Y-64832560D01*
X97558307Y-64891132D01*
X97431046Y-64976165D01*
X97322819Y-65084392D01*
X97237786Y-65211653D01*
X97179214Y-65353058D01*
X97159363Y-65452856D01*
X97102934Y-65396427D01*
X96975673Y-65311394D01*
X96834268Y-65252822D01*
X96684153Y-65222963D01*
X96531097Y-65222963D01*
X96380982Y-65252822D01*
X96239577Y-65311394D01*
X96112316Y-65396427D01*
X96004089Y-65504654D01*
X95919056Y-65631915D01*
X95860484Y-65773320D01*
X95830625Y-65923435D01*
X83302000Y-65923435D01*
X83302000Y-65574827D01*
X83353680Y-65553420D01*
X83480941Y-65468387D01*
X83589168Y-65360160D01*
X83674201Y-65232899D01*
X83732773Y-65091494D01*
X83762632Y-64941379D01*
X83762632Y-64788323D01*
X83732773Y-64638208D01*
X83674201Y-64496803D01*
X83589168Y-64369542D01*
X83480941Y-64261315D01*
X83353680Y-64176282D01*
X83212275Y-64117710D01*
X83062160Y-64087851D01*
X82909104Y-64087851D01*
X82758989Y-64117710D01*
X82617584Y-64176282D01*
X82490323Y-64261315D01*
X82382096Y-64369542D01*
X82297063Y-64496803D01*
X82238491Y-64638208D01*
X82208632Y-64788323D01*
X82208632Y-64941379D01*
X82238491Y-65091494D01*
X82297063Y-65232899D01*
X82298001Y-65234303D01*
X82298000Y-70075357D01*
X82295573Y-70100000D01*
X82298000Y-70124643D01*
X82298000Y-70124652D01*
X82305264Y-70198408D01*
X82333969Y-70293035D01*
X82336907Y-70298532D01*
X82226643Y-70252859D01*
X82076528Y-70223000D01*
X81923472Y-70223000D01*
X81773357Y-70252859D01*
X81631952Y-70311431D01*
X81504691Y-70396464D01*
X81396464Y-70504691D01*
X81311431Y-70631952D01*
X81252859Y-70773357D01*
X81223000Y-70923472D01*
X80401535Y-70923472D01*
X80438569Y-70868048D01*
X80497141Y-70726643D01*
X80527000Y-70576528D01*
X80527000Y-70432934D01*
X80806251Y-70153684D01*
X80923472Y-70177000D01*
X81076528Y-70177000D01*
X81226643Y-70147141D01*
X81368048Y-70088569D01*
X81495309Y-70003536D01*
X81603536Y-69895309D01*
X81688569Y-69768048D01*
X81747141Y-69626643D01*
X81777000Y-69476528D01*
X81777000Y-69323472D01*
X81747141Y-69173357D01*
X81688569Y-69031952D01*
X81603536Y-68904691D01*
X81495309Y-68796464D01*
X81368048Y-68711431D01*
X81226643Y-68652859D01*
X81076528Y-68623000D01*
X80923472Y-68623000D01*
X80773357Y-68652859D01*
X80631952Y-68711431D01*
X80504691Y-68796464D01*
X80396464Y-68904691D01*
X80311431Y-69031952D01*
X80252859Y-69173357D01*
X80224591Y-69315474D01*
X79817066Y-69723000D01*
X79673472Y-69723000D01*
X79523357Y-69752859D01*
X79381952Y-69811431D01*
X79254691Y-69896464D01*
X79146464Y-70004691D01*
X79061431Y-70131952D01*
X79002859Y-70273357D01*
X78973000Y-70423472D01*
X75554449Y-70423472D01*
X75547141Y-70386735D01*
X75488569Y-70245330D01*
X75403536Y-70118069D01*
X75295309Y-70009842D01*
X75168048Y-69924809D01*
X75026643Y-69866237D01*
X74876528Y-69836378D01*
X74723472Y-69836378D01*
X74573357Y-69866237D01*
X74431952Y-69924809D01*
X74304691Y-70009842D01*
X74196464Y-70118069D01*
X74111431Y-70245330D01*
X74052859Y-70386735D01*
X74023000Y-70536850D01*
X55976999Y-70536850D01*
X55976999Y-70462935D01*
X56131111Y-70308824D01*
X58200000Y-70308824D01*
X58273905Y-70301545D01*
X58344970Y-70279988D01*
X58410463Y-70244981D01*
X58467869Y-70197869D01*
X58514981Y-70140463D01*
X58549988Y-70074970D01*
X58571545Y-70003905D01*
X58578824Y-69930000D01*
X58578824Y-69190000D01*
X58571545Y-69116095D01*
X58549988Y-69045030D01*
X58514981Y-68979537D01*
X58467869Y-68922131D01*
X58410463Y-68875019D01*
X58344970Y-68840012D01*
X58273905Y-68818455D01*
X58200000Y-68811176D01*
X55800000Y-68811176D01*
X55726095Y-68818455D01*
X55655030Y-68840012D01*
X55589537Y-68875019D01*
X55532131Y-68922131D01*
X55485019Y-68979537D01*
X55450012Y-69045030D01*
X55428455Y-69116095D01*
X55421176Y-69190000D01*
X55421176Y-69301192D01*
X55407363Y-69280519D01*
X55299136Y-69172292D01*
X55171875Y-69087259D01*
X55030470Y-69028687D01*
X54880355Y-68998828D01*
X54727299Y-68998828D01*
X54635095Y-69017168D01*
X54614981Y-68979537D01*
X54567869Y-68922131D01*
X54510463Y-68875019D01*
X54444970Y-68840012D01*
X54373905Y-68818455D01*
X54300000Y-68811176D01*
X51900000Y-68811176D01*
X51826095Y-68818455D01*
X51755030Y-68840012D01*
X51689537Y-68875019D01*
X51632131Y-68922131D01*
X51585019Y-68979537D01*
X51550012Y-69045030D01*
X51528455Y-69116095D01*
X51521176Y-69190000D01*
X51521176Y-69930000D01*
X51528455Y-70003905D01*
X51550012Y-70074970D01*
X51585019Y-70140463D01*
X51629776Y-70195000D01*
X51585019Y-70249537D01*
X51550012Y-70315030D01*
X51528455Y-70386095D01*
X51521176Y-70460000D01*
X51521176Y-71200000D01*
X51527481Y-71264016D01*
X51423133Y-71136867D01*
X51289592Y-71027273D01*
X51137237Y-70945838D01*
X50971922Y-70895690D01*
X50843079Y-70883000D01*
X50756921Y-70883000D01*
X50628078Y-70895690D01*
X50462763Y-70945838D01*
X50310408Y-71027273D01*
X50176867Y-71136867D01*
X50067273Y-71270408D01*
X49985838Y-71422763D01*
X49935690Y-71588078D01*
X49918757Y-71760000D01*
X49935690Y-71931922D01*
X49985838Y-72097237D01*
X50067273Y-72249592D01*
X50176867Y-72383133D01*
X50191327Y-72395000D01*
X50176867Y-72406867D01*
X50067273Y-72540408D01*
X49985838Y-72692763D01*
X49935690Y-72858078D01*
X49918757Y-73030000D01*
X49935690Y-73201922D01*
X49985838Y-73367237D01*
X50061217Y-73508261D01*
X50032131Y-73532131D01*
X49985019Y-73589537D01*
X49950012Y-73655030D01*
X49928455Y-73726095D01*
X49921176Y-73800000D01*
X49921176Y-74800000D01*
X49928455Y-74873905D01*
X49950012Y-74944970D01*
X49985019Y-75010463D01*
X50032131Y-75067869D01*
X50089537Y-75114981D01*
X50155030Y-75149988D01*
X50226095Y-75171545D01*
X50300000Y-75178824D01*
X51300000Y-75178824D01*
X51373905Y-75171545D01*
X51444970Y-75149988D01*
X51510463Y-75114981D01*
X51532416Y-75096964D01*
X51550012Y-75154970D01*
X51585019Y-75220463D01*
X51632131Y-75277869D01*
X51689537Y-75324981D01*
X51755030Y-75359988D01*
X51826095Y-75381545D01*
X51900000Y-75388824D01*
X54284148Y-75388824D01*
X54176867Y-75476867D01*
X54133643Y-75529536D01*
X54126451Y-75530244D01*
X54055728Y-75551697D01*
X53990550Y-75586536D01*
X53933421Y-75633421D01*
X53886536Y-75690550D01*
X53851697Y-75755728D01*
X53830244Y-75826451D01*
X53823000Y-75900000D01*
X53823000Y-75923000D01*
X47500000Y-75923000D01*
X47426451Y-75930244D01*
X47355728Y-75951697D01*
X47290550Y-75986536D01*
X47233421Y-76033421D01*
X47186536Y-76090550D01*
X47151697Y-76155728D01*
X47130244Y-76226451D01*
X47123000Y-76300000D01*
X47123000Y-77598000D01*
X40402000Y-77598000D01*
X40402000Y-66737295D01*
X72516857Y-66737295D01*
X72516857Y-66890351D01*
X72546716Y-67040466D01*
X72605288Y-67181871D01*
X72690321Y-67309132D01*
X72798548Y-67417359D01*
X72925809Y-67502392D01*
X73067214Y-67560964D01*
X73217329Y-67590823D01*
X73360923Y-67590823D01*
X73882637Y-68112538D01*
X73898350Y-68131684D01*
X73917496Y-68147397D01*
X73917499Y-68147400D01*
X73974788Y-68194417D01*
X74061997Y-68241031D01*
X74156624Y-68269736D01*
X74162443Y-68270309D01*
X74230381Y-68277000D01*
X74230388Y-68277000D01*
X74255034Y-68279427D01*
X74279679Y-68277000D01*
X75203155Y-68277000D01*
X75304691Y-68378536D01*
X75431952Y-68463569D01*
X75573357Y-68522141D01*
X75723472Y-68552000D01*
X75876528Y-68552000D01*
X76026643Y-68522141D01*
X76168048Y-68463569D01*
X76295309Y-68378536D01*
X76403536Y-68270309D01*
X76488569Y-68143048D01*
X76547141Y-68001643D01*
X76577000Y-67851528D01*
X76577000Y-67698472D01*
X76547141Y-67548357D01*
X76488569Y-67406952D01*
X76403536Y-67279691D01*
X76295309Y-67171464D01*
X76168048Y-67086431D01*
X76026643Y-67027859D01*
X75876528Y-66998000D01*
X75723472Y-66998000D01*
X75573357Y-67027859D01*
X75431952Y-67086431D01*
X75304691Y-67171464D01*
X75203155Y-67273000D01*
X74462969Y-67273000D01*
X74070857Y-66880889D01*
X74070857Y-66737295D01*
X74040998Y-66587180D01*
X73982426Y-66445775D01*
X73897393Y-66318514D01*
X73789166Y-66210287D01*
X73661905Y-66125254D01*
X73520500Y-66066682D01*
X73370385Y-66036823D01*
X73217329Y-66036823D01*
X73067214Y-66066682D01*
X72925809Y-66125254D01*
X72798548Y-66210287D01*
X72690321Y-66318514D01*
X72605288Y-66445775D01*
X72546716Y-66587180D01*
X72516857Y-66737295D01*
X40402000Y-66737295D01*
X40402000Y-65127000D01*
X55000000Y-65127000D01*
X55024776Y-65124560D01*
X55048601Y-65117333D01*
X55070557Y-65105597D01*
X55089803Y-65089803D01*
X55105597Y-65070557D01*
X55117333Y-65048601D01*
X55124560Y-65024776D01*
X55127000Y-65000000D01*
X55127000Y-64223472D01*
X68923000Y-64223472D01*
X68923000Y-64376528D01*
X68952859Y-64526643D01*
X69011431Y-64668048D01*
X69096464Y-64795309D01*
X69204691Y-64903536D01*
X69331952Y-64988569D01*
X69473357Y-65047141D01*
X69623472Y-65077000D01*
X69767066Y-65077000D01*
X70519614Y-65829549D01*
X70519614Y-65973142D01*
X70549473Y-66123257D01*
X70608045Y-66264662D01*
X70693078Y-66391923D01*
X70801305Y-66500150D01*
X70928566Y-66585183D01*
X71069971Y-66643755D01*
X71220086Y-66673614D01*
X71373142Y-66673614D01*
X71523257Y-66643755D01*
X71664662Y-66585183D01*
X71791923Y-66500150D01*
X71900150Y-66391923D01*
X71985183Y-66264662D01*
X72043755Y-66123257D01*
X72073614Y-65973142D01*
X72073614Y-65820086D01*
X72043755Y-65669971D01*
X71985183Y-65528566D01*
X71900150Y-65401305D01*
X71791923Y-65293078D01*
X71664662Y-65208045D01*
X71523257Y-65149473D01*
X71373142Y-65119614D01*
X71229549Y-65119614D01*
X70477000Y-64367066D01*
X70477000Y-64223472D01*
X70447141Y-64073357D01*
X70388569Y-63931952D01*
X70303536Y-63804691D01*
X70195309Y-63696464D01*
X70068048Y-63611431D01*
X69926643Y-63552859D01*
X69776528Y-63523000D01*
X69623472Y-63523000D01*
X69473357Y-63552859D01*
X69331952Y-63611431D01*
X69204691Y-63696464D01*
X69096464Y-63804691D01*
X69011431Y-63931952D01*
X68952859Y-64073357D01*
X68923000Y-64223472D01*
X55127000Y-64223472D01*
X55127000Y-56423472D01*
X59923000Y-56423472D01*
X59923000Y-56576528D01*
X59952859Y-56726643D01*
X60011431Y-56868048D01*
X60096464Y-56995309D01*
X60204691Y-57103536D01*
X60331952Y-57188569D01*
X60473357Y-57247141D01*
X60623472Y-57277000D01*
X60776528Y-57277000D01*
X60926643Y-57247141D01*
X61068048Y-57188569D01*
X61195309Y-57103536D01*
X61303536Y-56995309D01*
X61336282Y-56946301D01*
X61336282Y-61000000D01*
X61348483Y-61123882D01*
X61384618Y-61243004D01*
X61443299Y-61352787D01*
X61522269Y-61449013D01*
X61618495Y-61527983D01*
X61728278Y-61586664D01*
X61847400Y-61622799D01*
X61971282Y-61635000D01*
X67863142Y-61635000D01*
X67773357Y-61652859D01*
X67631952Y-61711431D01*
X67504691Y-61796464D01*
X67396464Y-61904691D01*
X67311431Y-62031952D01*
X67252859Y-62173357D01*
X67223000Y-62323472D01*
X67223000Y-62476528D01*
X67252859Y-62626643D01*
X67311431Y-62768048D01*
X67396464Y-62895309D01*
X67504691Y-63003536D01*
X67631952Y-63088569D01*
X67773357Y-63147141D01*
X67923472Y-63177000D01*
X68076528Y-63177000D01*
X68226643Y-63147141D01*
X68368048Y-63088569D01*
X68495309Y-63003536D01*
X68603536Y-62895309D01*
X68688569Y-62768048D01*
X68747141Y-62626643D01*
X68777000Y-62476528D01*
X68777000Y-62332935D01*
X69007936Y-62102000D01*
X73275357Y-62102000D01*
X73300000Y-62104427D01*
X73324643Y-62102000D01*
X73324653Y-62102000D01*
X73398409Y-62094736D01*
X73493036Y-62066031D01*
X73580245Y-62019417D01*
X73656684Y-61956684D01*
X73672402Y-61937532D01*
X73937532Y-61672402D01*
X73956684Y-61656684D01*
X74019417Y-61580245D01*
X74066031Y-61493036D01*
X74094736Y-61398409D01*
X74102000Y-61324653D01*
X74102000Y-61324644D01*
X74104427Y-61300001D01*
X74102000Y-61275358D01*
X74102000Y-55993016D01*
X74471544Y-55623472D01*
X89423000Y-55623472D01*
X89423000Y-55776528D01*
X89452859Y-55926643D01*
X89511431Y-56068048D01*
X89596464Y-56195309D01*
X89704691Y-56303536D01*
X89831952Y-56388569D01*
X89973357Y-56447141D01*
X90123472Y-56477000D01*
X90276528Y-56477000D01*
X90336282Y-56465114D01*
X90336282Y-61000000D01*
X90348483Y-61123882D01*
X90384618Y-61243004D01*
X90443299Y-61352787D01*
X90522269Y-61449013D01*
X90618495Y-61527983D01*
X90728278Y-61586664D01*
X90847400Y-61622799D01*
X90971282Y-61635000D01*
X95176212Y-61635000D01*
X95111431Y-61731952D01*
X95052859Y-61873357D01*
X95023000Y-62023472D01*
X95023000Y-62176528D01*
X95052859Y-62326643D01*
X95111431Y-62468048D01*
X95196464Y-62595309D01*
X95304691Y-62703536D01*
X95431952Y-62788569D01*
X95573357Y-62847141D01*
X95723472Y-62877000D01*
X95876528Y-62877000D01*
X96026643Y-62847141D01*
X96168048Y-62788569D01*
X96295309Y-62703536D01*
X96397556Y-62601289D01*
X96464094Y-62594736D01*
X96558721Y-62566031D01*
X96645930Y-62519417D01*
X96722369Y-62456684D01*
X96738086Y-62437533D01*
X97273620Y-61902000D01*
X102175357Y-61902000D01*
X102200000Y-61904427D01*
X102224643Y-61902000D01*
X102224653Y-61902000D01*
X102298409Y-61894736D01*
X102393036Y-61866031D01*
X102480245Y-61819417D01*
X102556684Y-61756684D01*
X102572401Y-61737533D01*
X103037543Y-61272393D01*
X103056684Y-61256684D01*
X103072392Y-61237544D01*
X103072400Y-61237536D01*
X103119417Y-61180246D01*
X103147556Y-61127601D01*
X103166031Y-61093036D01*
X103194736Y-60998409D01*
X103202000Y-60924653D01*
X103202000Y-60924643D01*
X103204427Y-60900000D01*
X103202000Y-60875357D01*
X103202000Y-55823472D01*
X115123000Y-55823472D01*
X115123000Y-55976528D01*
X115152859Y-56126643D01*
X115211431Y-56268048D01*
X115296464Y-56395309D01*
X115404691Y-56503536D01*
X115531952Y-56588569D01*
X115673357Y-56647141D01*
X115823472Y-56677000D01*
X115976528Y-56677000D01*
X116126643Y-56647141D01*
X116268048Y-56588569D01*
X116395309Y-56503536D01*
X116503536Y-56395309D01*
X116588569Y-56268048D01*
X116647141Y-56126643D01*
X116677000Y-55976528D01*
X116677000Y-55832934D01*
X117365000Y-55144935D01*
X117365000Y-61000000D01*
X117377201Y-61123882D01*
X117413336Y-61243004D01*
X117472017Y-61352787D01*
X117550987Y-61449013D01*
X117647213Y-61527983D01*
X117756996Y-61586664D01*
X117876118Y-61622799D01*
X118000000Y-61635000D01*
X122040598Y-61635000D01*
X122023000Y-61723472D01*
X122023000Y-61876528D01*
X122052859Y-62026643D01*
X122111431Y-62168048D01*
X122196464Y-62295309D01*
X122304691Y-62403536D01*
X122431952Y-62488569D01*
X122573357Y-62547141D01*
X122723472Y-62577000D01*
X122876528Y-62577000D01*
X123026643Y-62547141D01*
X123168048Y-62488569D01*
X123295309Y-62403536D01*
X123397556Y-62301289D01*
X123464094Y-62294736D01*
X123558721Y-62266031D01*
X123645930Y-62219417D01*
X123722369Y-62156684D01*
X123738087Y-62137532D01*
X123873619Y-62002000D01*
X128975347Y-62002000D01*
X129000000Y-62004428D01*
X129024653Y-62002000D01*
X129098409Y-61994736D01*
X129193036Y-61966031D01*
X129280245Y-61919417D01*
X129356684Y-61856684D01*
X129419417Y-61780245D01*
X129466031Y-61693036D01*
X129494736Y-61598409D01*
X129504428Y-61500000D01*
X129502000Y-61475347D01*
X129502000Y-61384448D01*
X129527983Y-61352787D01*
X129586664Y-61243004D01*
X129622799Y-61123882D01*
X129635000Y-61000000D01*
X129635000Y-55096046D01*
X129753050Y-55047148D01*
X129880311Y-54962115D01*
X129988538Y-54853888D01*
X130073571Y-54726627D01*
X130132143Y-54585222D01*
X130162002Y-54435107D01*
X130162002Y-54282051D01*
X130132143Y-54131936D01*
X130073571Y-53990531D01*
X129988538Y-53863270D01*
X129880311Y-53755043D01*
X129753050Y-53670010D01*
X129635000Y-53621112D01*
X129635000Y-47000000D01*
X129622799Y-46876118D01*
X129586664Y-46756996D01*
X129527983Y-46647213D01*
X129449013Y-46550987D01*
X129352787Y-46472017D01*
X129243004Y-46413336D01*
X129123882Y-46377201D01*
X129000000Y-46365000D01*
X127948220Y-46365000D01*
X127868048Y-46311431D01*
X127726643Y-46252859D01*
X127576528Y-46223000D01*
X127423472Y-46223000D01*
X127273357Y-46252859D01*
X127131952Y-46311431D01*
X127051780Y-46365000D01*
X125448220Y-46365000D01*
X125368048Y-46311431D01*
X125226643Y-46252859D01*
X125076528Y-46223000D01*
X124923472Y-46223000D01*
X124773357Y-46252859D01*
X124631952Y-46311431D01*
X124551780Y-46365000D01*
X122948220Y-46365000D01*
X122868048Y-46311431D01*
X122726643Y-46252859D01*
X122576528Y-46223000D01*
X122423472Y-46223000D01*
X122273357Y-46252859D01*
X122131952Y-46311431D01*
X122051780Y-46365000D01*
X120448220Y-46365000D01*
X120368048Y-46311431D01*
X120226643Y-46252859D01*
X120076528Y-46223000D01*
X119923472Y-46223000D01*
X119773357Y-46252859D01*
X119631952Y-46311431D01*
X119551780Y-46365000D01*
X118000000Y-46365000D01*
X117876118Y-46377201D01*
X117756996Y-46413336D01*
X117647213Y-46472017D01*
X117550987Y-46550987D01*
X117472017Y-46647213D01*
X117421419Y-46741874D01*
X117326528Y-46723000D01*
X117173472Y-46723000D01*
X117023357Y-46752859D01*
X116881952Y-46811431D01*
X116754691Y-46896464D01*
X116646464Y-47004691D01*
X116561431Y-47131952D01*
X116502859Y-47273357D01*
X116473000Y-47423472D01*
X116473000Y-47576528D01*
X116502859Y-47726643D01*
X116561431Y-47868048D01*
X116646464Y-47995309D01*
X116748001Y-48096846D01*
X116748000Y-54342065D01*
X115967066Y-55123000D01*
X115823472Y-55123000D01*
X115673357Y-55152859D01*
X115531952Y-55211431D01*
X115404691Y-55296464D01*
X115296464Y-55404691D01*
X115211431Y-55531952D01*
X115152859Y-55673357D01*
X115123000Y-55823472D01*
X103202000Y-55823472D01*
X103202000Y-54996845D01*
X103303536Y-54895309D01*
X103388569Y-54768048D01*
X103447141Y-54626643D01*
X103477000Y-54476528D01*
X103477000Y-54323472D01*
X103447141Y-54173357D01*
X103388569Y-54031952D01*
X103303536Y-53904691D01*
X103195309Y-53796464D01*
X103068048Y-53711431D01*
X102926643Y-53652859D01*
X102776528Y-53623000D01*
X102623472Y-53623000D01*
X102606282Y-53626419D01*
X102606282Y-47000000D01*
X102594081Y-46876118D01*
X102557946Y-46756996D01*
X102499265Y-46647213D01*
X102420295Y-46550987D01*
X102324069Y-46472017D01*
X102214286Y-46413336D01*
X102095164Y-46377201D01*
X101971282Y-46365000D01*
X101948220Y-46365000D01*
X101868048Y-46311431D01*
X101726643Y-46252859D01*
X101576528Y-46223000D01*
X101423472Y-46223000D01*
X101273357Y-46252859D01*
X101131952Y-46311431D01*
X101051780Y-46365000D01*
X99448220Y-46365000D01*
X99368048Y-46311431D01*
X99226643Y-46252859D01*
X99076528Y-46223000D01*
X98923472Y-46223000D01*
X98773357Y-46252859D01*
X98631952Y-46311431D01*
X98551780Y-46365000D01*
X96948220Y-46365000D01*
X96868048Y-46311431D01*
X96726643Y-46252859D01*
X96576528Y-46223000D01*
X96423472Y-46223000D01*
X96273357Y-46252859D01*
X96131952Y-46311431D01*
X96051780Y-46365000D01*
X94448220Y-46365000D01*
X94368048Y-46311431D01*
X94226643Y-46252859D01*
X94076528Y-46223000D01*
X93923472Y-46223000D01*
X93773357Y-46252859D01*
X93631952Y-46311431D01*
X93551780Y-46365000D01*
X91065369Y-46365000D01*
X91047141Y-46273357D01*
X90988569Y-46131952D01*
X90903536Y-46004691D01*
X90795309Y-45896464D01*
X90668048Y-45811431D01*
X90526643Y-45752859D01*
X90376528Y-45723000D01*
X90223472Y-45723000D01*
X90073357Y-45752859D01*
X89931952Y-45811431D01*
X89804691Y-45896464D01*
X89696464Y-46004691D01*
X89611431Y-46131952D01*
X89552859Y-46273357D01*
X89523000Y-46423472D01*
X89523000Y-46576528D01*
X89552859Y-46726643D01*
X89611431Y-46868048D01*
X89696464Y-46995309D01*
X89698001Y-46996846D01*
X89698000Y-55103155D01*
X89596464Y-55204691D01*
X89511431Y-55331952D01*
X89452859Y-55473357D01*
X89423000Y-55623472D01*
X74471544Y-55623472D01*
X74518017Y-55577000D01*
X74661610Y-55577000D01*
X74811725Y-55547141D01*
X74953130Y-55488569D01*
X75080391Y-55403536D01*
X75188618Y-55295309D01*
X75273651Y-55168048D01*
X75332223Y-55026643D01*
X75362082Y-54876528D01*
X75362082Y-54723472D01*
X75332223Y-54573357D01*
X75273651Y-54431952D01*
X75188618Y-54304691D01*
X75080391Y-54196464D01*
X74953130Y-54111431D01*
X74811725Y-54052859D01*
X74661610Y-54023000D01*
X74508554Y-54023000D01*
X74358439Y-54052859D01*
X74217034Y-54111431D01*
X74089773Y-54196464D01*
X73981546Y-54304691D01*
X73896513Y-54431952D01*
X73837941Y-54573357D01*
X73808082Y-54723472D01*
X73808082Y-54867065D01*
X73606282Y-55068866D01*
X73606282Y-47000000D01*
X73594081Y-46876118D01*
X73557946Y-46756996D01*
X73499265Y-46647213D01*
X73420295Y-46550987D01*
X73324069Y-46472017D01*
X73214286Y-46413336D01*
X73095164Y-46377201D01*
X72971282Y-46365000D01*
X72948220Y-46365000D01*
X72868048Y-46311431D01*
X72726643Y-46252859D01*
X72576528Y-46223000D01*
X72423472Y-46223000D01*
X72273357Y-46252859D01*
X72131952Y-46311431D01*
X72051780Y-46365000D01*
X70448220Y-46365000D01*
X70368048Y-46311431D01*
X70226643Y-46252859D01*
X70076528Y-46223000D01*
X69923472Y-46223000D01*
X69773357Y-46252859D01*
X69631952Y-46311431D01*
X69551780Y-46365000D01*
X67948220Y-46365000D01*
X67868048Y-46311431D01*
X67726643Y-46252859D01*
X67576528Y-46223000D01*
X67423472Y-46223000D01*
X67273357Y-46252859D01*
X67131952Y-46311431D01*
X67051780Y-46365000D01*
X65448220Y-46365000D01*
X65368048Y-46311431D01*
X65226643Y-46252859D01*
X65076528Y-46223000D01*
X64923472Y-46223000D01*
X64773357Y-46252859D01*
X64631952Y-46311431D01*
X64551780Y-46365000D01*
X63448220Y-46365000D01*
X63368048Y-46311431D01*
X63226643Y-46252859D01*
X63076528Y-46223000D01*
X62923472Y-46223000D01*
X62773357Y-46252859D01*
X62631952Y-46311431D01*
X62551780Y-46365000D01*
X61971282Y-46365000D01*
X61847400Y-46377201D01*
X61728278Y-46413336D01*
X61618495Y-46472017D01*
X61522269Y-46550987D01*
X61443299Y-46647213D01*
X61384618Y-46756996D01*
X61348483Y-46876118D01*
X61336282Y-47000000D01*
X61336282Y-47953784D01*
X61162463Y-48127603D01*
X61143317Y-48143316D01*
X61127604Y-48162462D01*
X61127601Y-48162465D01*
X61080584Y-48219755D01*
X61033970Y-48306964D01*
X61005265Y-48401591D01*
X60995573Y-48500000D01*
X60998001Y-48524653D01*
X60998000Y-55492064D01*
X60767065Y-55723000D01*
X60623472Y-55723000D01*
X60473357Y-55752859D01*
X60331952Y-55811431D01*
X60204691Y-55896464D01*
X60096464Y-56004691D01*
X60011431Y-56131952D01*
X59952859Y-56273357D01*
X59923000Y-56423472D01*
X55127000Y-56423472D01*
X55127000Y-50750000D01*
X55124560Y-50725224D01*
X55117333Y-50701399D01*
X55105597Y-50679443D01*
X55089803Y-50660197D01*
X55070557Y-50644403D01*
X55048601Y-50632667D01*
X55024776Y-50625440D01*
X55000000Y-50623000D01*
X54000000Y-50623000D01*
X53975224Y-50625440D01*
X53951399Y-50632667D01*
X53929443Y-50644403D01*
X53910197Y-50660197D01*
X53894403Y-50679443D01*
X53882667Y-50701399D01*
X53875440Y-50725224D01*
X53873000Y-50750000D01*
X53873000Y-63873000D01*
X49378824Y-63873000D01*
X49378824Y-62000000D01*
X49371545Y-61926095D01*
X49349988Y-61855030D01*
X49314981Y-61789537D01*
X49267869Y-61732131D01*
X49210463Y-61685019D01*
X49144970Y-61650012D01*
X49073905Y-61628455D01*
X49000000Y-61621176D01*
X47000000Y-61621176D01*
X46926095Y-61628455D01*
X46855030Y-61650012D01*
X46789537Y-61685019D01*
X46732131Y-61732131D01*
X46685019Y-61789537D01*
X46650012Y-61855030D01*
X46628455Y-61926095D01*
X46621176Y-62000000D01*
X46621176Y-63873000D01*
X40402000Y-63873000D01*
X40402000Y-51000000D01*
X46621176Y-51000000D01*
X46621176Y-53000000D01*
X46628455Y-53073905D01*
X46650012Y-53144970D01*
X46685019Y-53210463D01*
X46732131Y-53267869D01*
X46789537Y-53314981D01*
X46855030Y-53349988D01*
X46926095Y-53371545D01*
X47000000Y-53378824D01*
X49000000Y-53378824D01*
X49073905Y-53371545D01*
X49144970Y-53349988D01*
X49210463Y-53314981D01*
X49267869Y-53267869D01*
X49314981Y-53210463D01*
X49349988Y-53144970D01*
X49371545Y-53073905D01*
X49378824Y-53000000D01*
X49378824Y-51000000D01*
X49371545Y-50926095D01*
X49349988Y-50855030D01*
X49314981Y-50789537D01*
X49267869Y-50732131D01*
X49210463Y-50685019D01*
X49144970Y-50650012D01*
X49073905Y-50628455D01*
X49000000Y-50621176D01*
X47000000Y-50621176D01*
X46926095Y-50628455D01*
X46855030Y-50650012D01*
X46789537Y-50685019D01*
X46732131Y-50732131D01*
X46685019Y-50789537D01*
X46650012Y-50855030D01*
X46628455Y-50926095D01*
X46621176Y-51000000D01*
X40402000Y-51000000D01*
X40402000Y-45028232D01*
X56978197Y-45028232D01*
X57022186Y-45420397D01*
X57141508Y-45796551D01*
X57331621Y-46142363D01*
X57585281Y-46444664D01*
X57892827Y-46691937D01*
X58242545Y-46874766D01*
X58621115Y-46986185D01*
X59014116Y-47021951D01*
X59406580Y-46980701D01*
X59783557Y-46864007D01*
X60130688Y-46676314D01*
X60434752Y-46424770D01*
X60684167Y-46118958D01*
X60869432Y-45770524D01*
X60983491Y-45392742D01*
X61019231Y-45028232D01*
X84978197Y-45028232D01*
X85022186Y-45420397D01*
X85141508Y-45796551D01*
X85331621Y-46142363D01*
X85585281Y-46444664D01*
X85892827Y-46691937D01*
X86242545Y-46874766D01*
X86621115Y-46986185D01*
X87014116Y-47021951D01*
X87406580Y-46980701D01*
X87783557Y-46864007D01*
X88130688Y-46676314D01*
X88434752Y-46424770D01*
X88684167Y-46118958D01*
X88869432Y-45770524D01*
X88983491Y-45392742D01*
X89019231Y-45028232D01*
X112978197Y-45028232D01*
X113022186Y-45420397D01*
X113141508Y-45796551D01*
X113331621Y-46142363D01*
X113585281Y-46444664D01*
X113892827Y-46691937D01*
X114242545Y-46874766D01*
X114621115Y-46986185D01*
X115014116Y-47021951D01*
X115406580Y-46980701D01*
X115783557Y-46864007D01*
X116130688Y-46676314D01*
X116434752Y-46424770D01*
X116684167Y-46118958D01*
X116869432Y-45770524D01*
X116983491Y-45392742D01*
X117022000Y-45000000D01*
X117021212Y-44943542D01*
X116971752Y-44552029D01*
X116847189Y-44177579D01*
X116652267Y-43834454D01*
X116394411Y-43535724D01*
X116083442Y-43292769D01*
X115731205Y-43114841D01*
X115351117Y-43008719D01*
X114957654Y-42978443D01*
X114565805Y-43025169D01*
X114190494Y-43147115D01*
X113846017Y-43339636D01*
X113545495Y-43595401D01*
X113300374Y-43904666D01*
X113119992Y-44255652D01*
X113011218Y-44634990D01*
X112978197Y-45028232D01*
X89019231Y-45028232D01*
X89022000Y-45000000D01*
X89021212Y-44943542D01*
X88971752Y-44552029D01*
X88847189Y-44177579D01*
X88652267Y-43834454D01*
X88394411Y-43535724D01*
X88083442Y-43292769D01*
X87731205Y-43114841D01*
X87351117Y-43008719D01*
X86957654Y-42978443D01*
X86565805Y-43025169D01*
X86190494Y-43147115D01*
X85846017Y-43339636D01*
X85545495Y-43595401D01*
X85300374Y-43904666D01*
X85119992Y-44255652D01*
X85011218Y-44634990D01*
X84978197Y-45028232D01*
X61019231Y-45028232D01*
X61022000Y-45000000D01*
X61021212Y-44943542D01*
X60971752Y-44552029D01*
X60847189Y-44177579D01*
X60652267Y-43834454D01*
X60394411Y-43535724D01*
X60083442Y-43292769D01*
X59731205Y-43114841D01*
X59351117Y-43008719D01*
X58957654Y-42978443D01*
X58565805Y-43025169D01*
X58190494Y-43147115D01*
X57846017Y-43339636D01*
X57545495Y-43595401D01*
X57300374Y-43904666D01*
X57119992Y-44255652D01*
X57011218Y-44634990D01*
X56978197Y-45028232D01*
X40402000Y-45028232D01*
X40402000Y-40000000D01*
X46621176Y-40000000D01*
X46621176Y-42000000D01*
X46628455Y-42073905D01*
X46650012Y-42144970D01*
X46685019Y-42210463D01*
X46732131Y-42267869D01*
X46789537Y-42314981D01*
X46855030Y-42349988D01*
X46926095Y-42371545D01*
X47000000Y-42378824D01*
X49000000Y-42378824D01*
X49073905Y-42371545D01*
X49144970Y-42349988D01*
X49210463Y-42314981D01*
X49267869Y-42267869D01*
X49314981Y-42210463D01*
X49349988Y-42144970D01*
X49371545Y-42073905D01*
X49378824Y-42000000D01*
X49378824Y-40000000D01*
X49371545Y-39926095D01*
X49349988Y-39855030D01*
X49314981Y-39789537D01*
X49267869Y-39732131D01*
X49210463Y-39685019D01*
X49144970Y-39650012D01*
X49073905Y-39628455D01*
X49000000Y-39621176D01*
X47000000Y-39621176D01*
X46926095Y-39628455D01*
X46855030Y-39650012D01*
X46789537Y-39685019D01*
X46732131Y-39732131D01*
X46685019Y-39789537D01*
X46650012Y-39855030D01*
X46628455Y-39926095D01*
X46621176Y-40000000D01*
X40402000Y-40000000D01*
X40402000Y-29000260D01*
X48241436Y-29000260D01*
X48241436Y-34999740D01*
X48248715Y-35073645D01*
X48270272Y-35144710D01*
X48305279Y-35210203D01*
X48352391Y-35267609D01*
X48409797Y-35314721D01*
X48475290Y-35349728D01*
X48546355Y-35371285D01*
X48620260Y-35378564D01*
X54619740Y-35378564D01*
X54693645Y-35371285D01*
X54764710Y-35349728D01*
X54830203Y-35314721D01*
X54887609Y-35267609D01*
X54934721Y-35210203D01*
X54969728Y-35144710D01*
X54991285Y-35073645D01*
X54998564Y-34999740D01*
X54998564Y-30000000D01*
X64336282Y-30000000D01*
X64336282Y-39000000D01*
X64348483Y-39123882D01*
X64384618Y-39243004D01*
X64443299Y-39352787D01*
X64522269Y-39449013D01*
X64618495Y-39527983D01*
X64728278Y-39586664D01*
X64847400Y-39622799D01*
X64971282Y-39635000D01*
X75971282Y-39635000D01*
X76095164Y-39622799D01*
X76214286Y-39586664D01*
X76324069Y-39527983D01*
X76420295Y-39449013D01*
X76499265Y-39352787D01*
X76557946Y-39243004D01*
X76594081Y-39123882D01*
X76606282Y-39000000D01*
X76606282Y-30000000D01*
X92336282Y-30000000D01*
X92336282Y-39000000D01*
X92348483Y-39123882D01*
X92384618Y-39243004D01*
X92443299Y-39352787D01*
X92522269Y-39449013D01*
X92618495Y-39527983D01*
X92728278Y-39586664D01*
X92847400Y-39622799D01*
X92971282Y-39635000D01*
X103971282Y-39635000D01*
X104095164Y-39622799D01*
X104214286Y-39586664D01*
X104324069Y-39527983D01*
X104420295Y-39449013D01*
X104499265Y-39352787D01*
X104557946Y-39243004D01*
X104594081Y-39123882D01*
X104606282Y-39000000D01*
X104606282Y-30000000D01*
X119329871Y-30000000D01*
X119329871Y-39000000D01*
X119342072Y-39123882D01*
X119378207Y-39243004D01*
X119436888Y-39352787D01*
X119515858Y-39449013D01*
X119612084Y-39527983D01*
X119721867Y-39586664D01*
X119840989Y-39622799D01*
X119964871Y-39635000D01*
X130964871Y-39635000D01*
X131088753Y-39622799D01*
X131207875Y-39586664D01*
X131317658Y-39527983D01*
X131413884Y-39449013D01*
X131492854Y-39352787D01*
X131551535Y-39243004D01*
X131587670Y-39123882D01*
X131599871Y-39000000D01*
X131599871Y-30000000D01*
X131587670Y-29876118D01*
X131551535Y-29756996D01*
X131492854Y-29647213D01*
X131413884Y-29550987D01*
X131317658Y-29472017D01*
X131207875Y-29413336D01*
X131088753Y-29377201D01*
X130964871Y-29365000D01*
X119964871Y-29365000D01*
X119840989Y-29377201D01*
X119721867Y-29413336D01*
X119612084Y-29472017D01*
X119515858Y-29550987D01*
X119436888Y-29647213D01*
X119378207Y-29756996D01*
X119342072Y-29876118D01*
X119329871Y-30000000D01*
X104606282Y-30000000D01*
X104594081Y-29876118D01*
X104557946Y-29756996D01*
X104499265Y-29647213D01*
X104420295Y-29550987D01*
X104324069Y-29472017D01*
X104214286Y-29413336D01*
X104095164Y-29377201D01*
X103971282Y-29365000D01*
X92971282Y-29365000D01*
X92847400Y-29377201D01*
X92728278Y-29413336D01*
X92618495Y-29472017D01*
X92522269Y-29550987D01*
X92443299Y-29647213D01*
X92384618Y-29756996D01*
X92348483Y-29876118D01*
X92336282Y-30000000D01*
X76606282Y-30000000D01*
X76594081Y-29876118D01*
X76557946Y-29756996D01*
X76499265Y-29647213D01*
X76420295Y-29550987D01*
X76324069Y-29472017D01*
X76214286Y-29413336D01*
X76095164Y-29377201D01*
X75971282Y-29365000D01*
X64971282Y-29365000D01*
X64847400Y-29377201D01*
X64728278Y-29413336D01*
X64618495Y-29472017D01*
X64522269Y-29550987D01*
X64443299Y-29647213D01*
X64384618Y-29756996D01*
X64348483Y-29876118D01*
X64336282Y-30000000D01*
X54998564Y-30000000D01*
X54998564Y-29000260D01*
X54991285Y-28926355D01*
X54969728Y-28855290D01*
X54934721Y-28789797D01*
X54887609Y-28732391D01*
X54830203Y-28685279D01*
X54764710Y-28650272D01*
X54693645Y-28628715D01*
X54619740Y-28621436D01*
X48620260Y-28621436D01*
X48546355Y-28628715D01*
X48475290Y-28650272D01*
X48409797Y-28685279D01*
X48352391Y-28732391D01*
X48305279Y-28789797D01*
X48270272Y-28855290D01*
X48248715Y-28926355D01*
X48241436Y-29000260D01*
X40402000Y-29000260D01*
X40402000Y-28402000D01*
X139598000Y-28402000D01*
X139598000Y-35553127D01*
X139598000Y-35553127D01*
G37*
X139598000Y-35553127D02*
X139476643Y-35502859D01*
X139326528Y-35473000D01*
X139173472Y-35473000D01*
X139023357Y-35502859D01*
X138881952Y-35561431D01*
X138754691Y-35646464D01*
X138646464Y-35754691D01*
X138561431Y-35881952D01*
X138502859Y-36023357D01*
X138473000Y-36173472D01*
X138473000Y-36326528D01*
X138502859Y-36476643D01*
X138561431Y-36618048D01*
X138623000Y-36710193D01*
X138623001Y-57490287D01*
X138240289Y-57873000D01*
X137960193Y-57873000D01*
X137868048Y-57811431D01*
X137726643Y-57752859D01*
X137576528Y-57723000D01*
X137423472Y-57723000D01*
X137273357Y-57752859D01*
X137131952Y-57811431D01*
X137039807Y-57873000D01*
X136960193Y-57873000D01*
X136868048Y-57811431D01*
X136726643Y-57752859D01*
X136576528Y-57723000D01*
X136423472Y-57723000D01*
X136273357Y-57752859D01*
X136131952Y-57811431D01*
X136039807Y-57873000D01*
X135960193Y-57873000D01*
X135868048Y-57811431D01*
X135726643Y-57752859D01*
X135576528Y-57723000D01*
X135423472Y-57723000D01*
X135273357Y-57752859D01*
X135131952Y-57811431D01*
X135004691Y-57896464D01*
X134896464Y-58004691D01*
X134811431Y-58131952D01*
X134752859Y-58273357D01*
X134723000Y-58423472D01*
X134723000Y-58576528D01*
X134752859Y-58726643D01*
X134811431Y-58868048D01*
X134896464Y-58995309D01*
X135004691Y-59103536D01*
X135131952Y-59188569D01*
X135273357Y-59247141D01*
X135423472Y-59277000D01*
X135576528Y-59277000D01*
X135726643Y-59247141D01*
X135868048Y-59188569D01*
X135960193Y-59127000D01*
X136039807Y-59127000D01*
X136131952Y-59188569D01*
X136273357Y-59247141D01*
X136423472Y-59277000D01*
X136576528Y-59277000D01*
X136726643Y-59247141D01*
X136868048Y-59188569D01*
X136960193Y-59127000D01*
X137039807Y-59127000D01*
X137131952Y-59188569D01*
X137273357Y-59247141D01*
X137423472Y-59277000D01*
X137576528Y-59277000D01*
X137726643Y-59247141D01*
X137868048Y-59188569D01*
X137960193Y-59127000D01*
X138469206Y-59127000D01*
X138500000Y-59130033D01*
X138530794Y-59127000D01*
X138622913Y-59117927D01*
X138741103Y-59082075D01*
X138748000Y-59078388D01*
X138748001Y-76263362D01*
X138631952Y-76311431D01*
X138504691Y-76396464D01*
X138396464Y-76504691D01*
X138311431Y-76631952D01*
X138252859Y-76773357D01*
X138223000Y-76923472D01*
X138223000Y-77076528D01*
X138252859Y-77226643D01*
X138311431Y-77368048D01*
X138396464Y-77495309D01*
X138499155Y-77598000D01*
X106286934Y-77598000D01*
X106832935Y-77052000D01*
X106976528Y-77052000D01*
X107126643Y-77022141D01*
X107268048Y-76963569D01*
X107395309Y-76878536D01*
X107503536Y-76770309D01*
X107588569Y-76643048D01*
X107647141Y-76501643D01*
X107677000Y-76351528D01*
X107677000Y-76198472D01*
X107647141Y-76048357D01*
X107588569Y-75906952D01*
X107503536Y-75779691D01*
X107395309Y-75671464D01*
X107268048Y-75586431D01*
X107126643Y-75527859D01*
X106976528Y-75498000D01*
X106823472Y-75498000D01*
X106673357Y-75527859D01*
X106531952Y-75586431D01*
X106404691Y-75671464D01*
X106296464Y-75779691D01*
X106211431Y-75906952D01*
X106152859Y-76048357D01*
X106123000Y-76198472D01*
X106123000Y-76342065D01*
X105317076Y-77147990D01*
X103242213Y-77147990D01*
X103373746Y-77093507D01*
X103501007Y-77008474D01*
X103609234Y-76900247D01*
X103694267Y-76772986D01*
X103752839Y-76631581D01*
X103782698Y-76481466D01*
X103782698Y-76328410D01*
X103752839Y-76178295D01*
X103694267Y-76036890D01*
X103609234Y-75909629D01*
X103501007Y-75801402D01*
X103373746Y-75716369D01*
X103232341Y-75657797D01*
X103082226Y-75627938D01*
X102929170Y-75627938D01*
X102779055Y-75657797D01*
X102637650Y-75716369D01*
X102510389Y-75801402D01*
X102402162Y-75909629D01*
X102317129Y-76036890D01*
X102258557Y-76178295D01*
X102228698Y-76328410D01*
X102228698Y-76422974D01*
X93846845Y-76422974D01*
X93745309Y-76321438D01*
X93618048Y-76236405D01*
X93476643Y-76177833D01*
X93326528Y-76147974D01*
X93173472Y-76147974D01*
X93051435Y-76172248D01*
X93020922Y-76169243D01*
X93020912Y-76169243D01*
X92996269Y-76166816D01*
X92971626Y-76169243D01*
X87849861Y-76169243D01*
X87748325Y-76067707D01*
X87621064Y-75982674D01*
X87479659Y-75924102D01*
X87329544Y-75894243D01*
X87176488Y-75894243D01*
X87026373Y-75924102D01*
X86884968Y-75982674D01*
X86832373Y-76017817D01*
X86777187Y-75884585D01*
X86681210Y-75740945D01*
X86559055Y-75618790D01*
X86415415Y-75522813D01*
X86255811Y-75456703D01*
X86086377Y-75423000D01*
X85913623Y-75423000D01*
X85744189Y-75456703D01*
X85584585Y-75522813D01*
X85440945Y-75618790D01*
X85318790Y-75740945D01*
X85222813Y-75884585D01*
X85156703Y-76044189D01*
X85123000Y-76213623D01*
X85123000Y-76386377D01*
X85156703Y-76555811D01*
X85222813Y-76715415D01*
X85318790Y-76859055D01*
X85440945Y-76981210D01*
X85584585Y-77077187D01*
X85744189Y-77143297D01*
X85767782Y-77147990D01*
X69877000Y-77147990D01*
X69877000Y-76836373D01*
X69893133Y-76823133D01*
X70002727Y-76689592D01*
X70084162Y-76537237D01*
X70134310Y-76371922D01*
X70151243Y-76200000D01*
X70134310Y-76028078D01*
X70088481Y-75877000D01*
X75000000Y-75877000D01*
X75073549Y-75869756D01*
X75144272Y-75848303D01*
X75209450Y-75813464D01*
X75266579Y-75766579D01*
X75313464Y-75709450D01*
X75348303Y-75644272D01*
X75369756Y-75573549D01*
X75377000Y-75500000D01*
X75377000Y-75223472D01*
X77223000Y-75223472D01*
X77223000Y-75376528D01*
X77252859Y-75526643D01*
X77311431Y-75668048D01*
X77396464Y-75795309D01*
X77504691Y-75903536D01*
X77631952Y-75988569D01*
X77773357Y-76047141D01*
X77923472Y-76077000D01*
X78076528Y-76077000D01*
X78226643Y-76047141D01*
X78368048Y-75988569D01*
X78495309Y-75903536D01*
X78596845Y-75802000D01*
X80175357Y-75802000D01*
X80200000Y-75804427D01*
X80224643Y-75802000D01*
X80224653Y-75802000D01*
X80298409Y-75794736D01*
X80393036Y-75766031D01*
X80480245Y-75719417D01*
X80556684Y-75656684D01*
X80572401Y-75637533D01*
X81432935Y-74777000D01*
X81576528Y-74777000D01*
X81726643Y-74747141D01*
X81868048Y-74688569D01*
X81995309Y-74603536D01*
X82103536Y-74495309D01*
X82188569Y-74368048D01*
X82247141Y-74226643D01*
X82277000Y-74076528D01*
X82277000Y-73923472D01*
X82247141Y-73773357D01*
X82188569Y-73631952D01*
X82103536Y-73504691D01*
X81995309Y-73396464D01*
X81871329Y-73313623D01*
X87623000Y-73313623D01*
X87623000Y-73486377D01*
X87656703Y-73655811D01*
X87722813Y-73815415D01*
X87818790Y-73959055D01*
X87940945Y-74081210D01*
X88084585Y-74177187D01*
X88244189Y-74243297D01*
X88413623Y-74277000D01*
X88586377Y-74277000D01*
X88755811Y-74243297D01*
X88915415Y-74177187D01*
X89059055Y-74081210D01*
X89181210Y-73959055D01*
X89277187Y-73815415D01*
X89343297Y-73655811D01*
X89377000Y-73486377D01*
X89377000Y-73313623D01*
X89349122Y-73173472D01*
X98898000Y-73173472D01*
X98898000Y-73326528D01*
X98927859Y-73476643D01*
X98986431Y-73618048D01*
X99071464Y-73745309D01*
X99179691Y-73853536D01*
X99306952Y-73938569D01*
X99448357Y-73997141D01*
X99598472Y-74027000D01*
X99751528Y-74027000D01*
X99901643Y-73997141D01*
X100043048Y-73938569D01*
X100135193Y-73877000D01*
X101914828Y-73877000D01*
X102006973Y-73938569D01*
X102148378Y-73997141D01*
X102298493Y-74027000D01*
X102451549Y-74027000D01*
X102601664Y-73997141D01*
X102743069Y-73938569D01*
X102870330Y-73853536D01*
X102978557Y-73745309D01*
X103063590Y-73618048D01*
X103122162Y-73476643D01*
X103152021Y-73326528D01*
X103152021Y-73173472D01*
X103122162Y-73023357D01*
X103063590Y-72881952D01*
X102978557Y-72754691D01*
X102870330Y-72646464D01*
X102743069Y-72561431D01*
X102601664Y-72502859D01*
X102451549Y-72473000D01*
X102298493Y-72473000D01*
X102148378Y-72502859D01*
X102006973Y-72561431D01*
X101914828Y-72623000D01*
X100135193Y-72623000D01*
X100043048Y-72561431D01*
X99901643Y-72502859D01*
X99751528Y-72473000D01*
X99598472Y-72473000D01*
X99448357Y-72502859D01*
X99306952Y-72561431D01*
X99179691Y-72646464D01*
X99071464Y-72754691D01*
X98986431Y-72881952D01*
X98927859Y-73023357D01*
X98898000Y-73173472D01*
X89349122Y-73173472D01*
X89343297Y-73144189D01*
X89277187Y-72984585D01*
X89181210Y-72840945D01*
X89059055Y-72718790D01*
X88915415Y-72622813D01*
X88755811Y-72556703D01*
X88586377Y-72523000D01*
X88413623Y-72523000D01*
X88244189Y-72556703D01*
X88084585Y-72622813D01*
X87940945Y-72718790D01*
X87818790Y-72840945D01*
X87722813Y-72984585D01*
X87656703Y-73144189D01*
X87623000Y-73313623D01*
X81871329Y-73313623D01*
X81868048Y-73311431D01*
X81726643Y-73252859D01*
X81576528Y-73223000D01*
X81423472Y-73223000D01*
X81273357Y-73252859D01*
X81131952Y-73311431D01*
X81004691Y-73396464D01*
X80896464Y-73504691D01*
X80811431Y-73631952D01*
X80752859Y-73773357D01*
X80723000Y-73923472D01*
X80723000Y-74067065D01*
X79992066Y-74798000D01*
X78596845Y-74798000D01*
X78495309Y-74696464D01*
X78368048Y-74611431D01*
X78226643Y-74552859D01*
X78076528Y-74523000D01*
X77923472Y-74523000D01*
X77773357Y-74552859D01*
X77631952Y-74611431D01*
X77504691Y-74696464D01*
X77396464Y-74804691D01*
X77311431Y-74931952D01*
X77252859Y-75073357D01*
X77223000Y-75223472D01*
X75377000Y-75223472D01*
X75377000Y-74500000D01*
X75369756Y-74426451D01*
X75348303Y-74355728D01*
X75313464Y-74290550D01*
X75266579Y-74233421D01*
X75209450Y-74186536D01*
X75144272Y-74151697D01*
X75073549Y-74130244D01*
X75000000Y-74123000D01*
X66460193Y-74123000D01*
X66368048Y-74061431D01*
X66226643Y-74002859D01*
X66076528Y-73973000D01*
X65923472Y-73973000D01*
X65773357Y-74002859D01*
X65631952Y-74061431D01*
X65539807Y-74123000D01*
X61000000Y-74123000D01*
X60926451Y-74130244D01*
X60855728Y-74151697D01*
X60790550Y-74186536D01*
X60733421Y-74233421D01*
X60686536Y-74290550D01*
X60651697Y-74355728D01*
X60630244Y-74426451D01*
X60623000Y-74500000D01*
X60623000Y-75276666D01*
X60592763Y-75285838D01*
X60440408Y-75367273D01*
X60306867Y-75476867D01*
X60197273Y-75610408D01*
X60115838Y-75762763D01*
X60065690Y-75928078D01*
X60048757Y-76100000D01*
X60051022Y-76123000D01*
X58218978Y-76123000D01*
X58221243Y-76100000D01*
X58204310Y-75928078D01*
X58154162Y-75762763D01*
X58072727Y-75610408D01*
X57963133Y-75476867D01*
X57829592Y-75367273D01*
X57677237Y-75285838D01*
X57511922Y-75235690D01*
X57383079Y-75223000D01*
X57296921Y-75223000D01*
X57168078Y-75235690D01*
X57002763Y-75285838D01*
X56850408Y-75367273D01*
X56716867Y-75476867D01*
X56705000Y-75491327D01*
X56693133Y-75476867D01*
X56559592Y-75367273D01*
X56407237Y-75285838D01*
X56241922Y-75235690D01*
X56113079Y-75223000D01*
X56026921Y-75223000D01*
X55898078Y-75235690D01*
X55732763Y-75285838D01*
X55580408Y-75367273D01*
X55446867Y-75476867D01*
X55435000Y-75491327D01*
X55423133Y-75476867D01*
X55289592Y-75367273D01*
X55137237Y-75285838D01*
X54971922Y-75235690D01*
X54843079Y-75223000D01*
X54756921Y-75223000D01*
X54628078Y-75235690D01*
X54594001Y-75246027D01*
X54614981Y-75220463D01*
X54649988Y-75154970D01*
X54671545Y-75083905D01*
X54678824Y-75010000D01*
X54678824Y-74270000D01*
X54671545Y-74196095D01*
X54649988Y-74125030D01*
X54614981Y-74059537D01*
X54570224Y-74005000D01*
X54614981Y-73950463D01*
X54649988Y-73884970D01*
X54671545Y-73813905D01*
X54678824Y-73740000D01*
X54678824Y-73000000D01*
X55421176Y-73000000D01*
X55421176Y-73740000D01*
X55428455Y-73813905D01*
X55450012Y-73884970D01*
X55485019Y-73950463D01*
X55532131Y-74007869D01*
X55589537Y-74054981D01*
X55655030Y-74089988D01*
X55726095Y-74111545D01*
X55800000Y-74118824D01*
X58200000Y-74118824D01*
X58273905Y-74111545D01*
X58344970Y-74089988D01*
X58410463Y-74054981D01*
X58467869Y-74007869D01*
X58514981Y-73950463D01*
X58549988Y-73884970D01*
X58571545Y-73813905D01*
X58578824Y-73740000D01*
X58578824Y-73000000D01*
X58571545Y-72926095D01*
X58549988Y-72855030D01*
X58514981Y-72789537D01*
X58467869Y-72732131D01*
X58410463Y-72685019D01*
X58344970Y-72650012D01*
X58273905Y-72628455D01*
X58200000Y-72621176D01*
X55800000Y-72621176D01*
X55726095Y-72628455D01*
X55655030Y-72650012D01*
X55589537Y-72685019D01*
X55532131Y-72732131D01*
X55485019Y-72789537D01*
X55450012Y-72855030D01*
X55428455Y-72926095D01*
X55421176Y-73000000D01*
X54678824Y-73000000D01*
X54671545Y-72926095D01*
X54649988Y-72855030D01*
X54614981Y-72789537D01*
X54570224Y-72735000D01*
X54614981Y-72680463D01*
X54649988Y-72614970D01*
X54671545Y-72543905D01*
X54678824Y-72470000D01*
X54678824Y-72328025D01*
X54704679Y-72353880D01*
X54831940Y-72438913D01*
X54973345Y-72497485D01*
X55123460Y-72527344D01*
X55276516Y-72527344D01*
X55426631Y-72497485D01*
X55568036Y-72438913D01*
X55695297Y-72353880D01*
X55803524Y-72245653D01*
X55888557Y-72118392D01*
X55947129Y-71976987D01*
X55976988Y-71826872D01*
X55976988Y-71673816D01*
X55962093Y-71598933D01*
X55969735Y-71573742D01*
X55976999Y-71499986D01*
X55976999Y-71499977D01*
X55979426Y-71475334D01*
X55976999Y-71450691D01*
X55976999Y-70536850D01*
X74023000Y-70536850D01*
X74023000Y-70689906D01*
X74052859Y-70840021D01*
X74111431Y-70981426D01*
X74196464Y-71108687D01*
X74304691Y-71216914D01*
X74431952Y-71301947D01*
X74560654Y-71355257D01*
X74560653Y-72465808D01*
X74459117Y-72567344D01*
X74374084Y-72694605D01*
X74315512Y-72836010D01*
X74285653Y-72986125D01*
X74285653Y-73139181D01*
X74315512Y-73289296D01*
X74374084Y-73430701D01*
X74459117Y-73557962D01*
X74567344Y-73666189D01*
X74694605Y-73751222D01*
X74836010Y-73809794D01*
X74986125Y-73839653D01*
X75139181Y-73839653D01*
X75289296Y-73809794D01*
X75430701Y-73751222D01*
X75557962Y-73666189D01*
X75666189Y-73557962D01*
X75751222Y-73430701D01*
X75809794Y-73289296D01*
X75839653Y-73139181D01*
X75839653Y-72986125D01*
X75809794Y-72836010D01*
X75751222Y-72694605D01*
X75666189Y-72567344D01*
X75564653Y-72465808D01*
X75564653Y-70900673D01*
X75567080Y-70876030D01*
X75564653Y-70851387D01*
X75564653Y-70851378D01*
X75558106Y-70784897D01*
X75577000Y-70689906D01*
X75577000Y-70536850D01*
X75554449Y-70423472D01*
X78973000Y-70423472D01*
X78973000Y-70576528D01*
X79002859Y-70726643D01*
X79061431Y-70868048D01*
X79146464Y-70995309D01*
X79254691Y-71103536D01*
X79381952Y-71188569D01*
X79523357Y-71247141D01*
X79673472Y-71277000D01*
X79826528Y-71277000D01*
X79976643Y-71247141D01*
X80118048Y-71188569D01*
X80245309Y-71103536D01*
X80353536Y-70995309D01*
X80401535Y-70923472D01*
X81223000Y-70923472D01*
X81223000Y-71076528D01*
X81252859Y-71226643D01*
X81311431Y-71368048D01*
X81396464Y-71495309D01*
X81504691Y-71603536D01*
X81631952Y-71688569D01*
X81773357Y-71747141D01*
X81923472Y-71777000D01*
X82067065Y-71777000D01*
X83039318Y-72749254D01*
X83055027Y-72768395D01*
X83074167Y-72784103D01*
X83074175Y-72784111D01*
X83117892Y-72819988D01*
X83131466Y-72831128D01*
X83218675Y-72877742D01*
X83313302Y-72906447D01*
X83387058Y-72913711D01*
X83387068Y-72913711D01*
X83411711Y-72916138D01*
X83436354Y-72913711D01*
X84355831Y-72913711D01*
X84457367Y-73015247D01*
X84584628Y-73100280D01*
X84726033Y-73158852D01*
X84876148Y-73188711D01*
X85029204Y-73188711D01*
X85179319Y-73158852D01*
X85320724Y-73100280D01*
X85447985Y-73015247D01*
X85556212Y-72907020D01*
X85641245Y-72779759D01*
X85699817Y-72638354D01*
X85729676Y-72488239D01*
X85729676Y-72335183D01*
X85699817Y-72185068D01*
X85641245Y-72043663D01*
X85556212Y-71916402D01*
X85534451Y-71894641D01*
X85610914Y-71780207D01*
X85669486Y-71638802D01*
X85699345Y-71488687D01*
X85699345Y-71335631D01*
X85669486Y-71185516D01*
X85610914Y-71044111D01*
X85525881Y-70916850D01*
X85417654Y-70808623D01*
X85290393Y-70723590D01*
X85148988Y-70665018D01*
X84998873Y-70635159D01*
X84845817Y-70635159D01*
X84695702Y-70665018D01*
X84554297Y-70723590D01*
X84427036Y-70808623D01*
X84325500Y-70910159D01*
X84320094Y-70910159D01*
X83339935Y-69930000D01*
X90518757Y-69930000D01*
X90535690Y-70101922D01*
X90585838Y-70267237D01*
X90661217Y-70408261D01*
X90632131Y-70432131D01*
X90585019Y-70489537D01*
X90550012Y-70555030D01*
X90528455Y-70626095D01*
X90521176Y-70700000D01*
X90521176Y-71700000D01*
X90528455Y-71773905D01*
X90550012Y-71844970D01*
X90585019Y-71910463D01*
X90632131Y-71967869D01*
X90689537Y-72014981D01*
X90755030Y-72049988D01*
X90826095Y-72071545D01*
X90900000Y-72078824D01*
X91900000Y-72078824D01*
X91973905Y-72071545D01*
X92044970Y-72049988D01*
X92110463Y-72014981D01*
X92167869Y-71967869D01*
X92214981Y-71910463D01*
X92249988Y-71844970D01*
X92271545Y-71773905D01*
X92278824Y-71700000D01*
X92278824Y-70700000D01*
X92271545Y-70626095D01*
X92249988Y-70555030D01*
X92214981Y-70489537D01*
X92167869Y-70432131D01*
X92138783Y-70408261D01*
X92214162Y-70267237D01*
X92257772Y-70123472D01*
X95423000Y-70123472D01*
X95423000Y-70276528D01*
X95452859Y-70426643D01*
X95511431Y-70568048D01*
X95596464Y-70695309D01*
X95704691Y-70803536D01*
X95831952Y-70888569D01*
X95973357Y-70947141D01*
X96082050Y-70968761D01*
X96340368Y-71227079D01*
X96340367Y-71907174D01*
X96278798Y-71999319D01*
X96220226Y-72140724D01*
X96190367Y-72290839D01*
X96190367Y-72443895D01*
X96220226Y-72594010D01*
X96278798Y-72735415D01*
X96363831Y-72862676D01*
X96472058Y-72970903D01*
X96599319Y-73055936D01*
X96740724Y-73114508D01*
X96890839Y-73144367D01*
X97043895Y-73144367D01*
X97194010Y-73114508D01*
X97335415Y-73055936D01*
X97462676Y-72970903D01*
X97570903Y-72862676D01*
X97655936Y-72735415D01*
X97714508Y-72594010D01*
X97744367Y-72443895D01*
X97744367Y-72290839D01*
X97714508Y-72140724D01*
X97655936Y-71999319D01*
X97594367Y-71907174D01*
X97594367Y-71323472D01*
X108823000Y-71323472D01*
X108823000Y-71476528D01*
X108852859Y-71626643D01*
X108911431Y-71768048D01*
X108996464Y-71895309D01*
X109104691Y-72003536D01*
X109231952Y-72088569D01*
X109373357Y-72147141D01*
X109523472Y-72177000D01*
X109676528Y-72177000D01*
X109826643Y-72147141D01*
X109968048Y-72088569D01*
X110060193Y-72027000D01*
X111073001Y-72027000D01*
X111073000Y-73039807D01*
X111011431Y-73131952D01*
X110952859Y-73273357D01*
X110923000Y-73423472D01*
X110923000Y-73576528D01*
X110952859Y-73726643D01*
X111011431Y-73868048D01*
X111096464Y-73995309D01*
X111204691Y-74103536D01*
X111331952Y-74188569D01*
X111473357Y-74247141D01*
X111623472Y-74277000D01*
X111776528Y-74277000D01*
X111926643Y-74247141D01*
X112068048Y-74188569D01*
X112195309Y-74103536D01*
X112303536Y-73995309D01*
X112388569Y-73868048D01*
X112447141Y-73726643D01*
X112477000Y-73576528D01*
X112477000Y-73423472D01*
X112447141Y-73273357D01*
X112388569Y-73131952D01*
X112327000Y-73039807D01*
X112327000Y-71971845D01*
X112403536Y-71895309D01*
X112488569Y-71768048D01*
X112547141Y-71626643D01*
X112577000Y-71476528D01*
X112577000Y-71323472D01*
X112547141Y-71173357D01*
X112488569Y-71031952D01*
X112403536Y-70904691D01*
X112295309Y-70796464D01*
X112168048Y-70711431D01*
X112026643Y-70652859D01*
X111876528Y-70623000D01*
X111723472Y-70623000D01*
X111573357Y-70652859D01*
X111431952Y-70711431D01*
X111339807Y-70773000D01*
X110060193Y-70773000D01*
X109968048Y-70711431D01*
X109826643Y-70652859D01*
X109676528Y-70623000D01*
X109523472Y-70623000D01*
X109373357Y-70652859D01*
X109231952Y-70711431D01*
X109104691Y-70796464D01*
X108996464Y-70904691D01*
X108911431Y-71031952D01*
X108852859Y-71173357D01*
X108823000Y-71323472D01*
X97594367Y-71323472D01*
X97594367Y-70998161D01*
X97597400Y-70967367D01*
X97585294Y-70844454D01*
X97577247Y-70817926D01*
X97549442Y-70726264D01*
X97491220Y-70617339D01*
X97412868Y-70521866D01*
X97388940Y-70502229D01*
X96968761Y-70082050D01*
X96947141Y-69973357D01*
X96888569Y-69831952D01*
X96803536Y-69704691D01*
X96695309Y-69596464D01*
X96568048Y-69511431D01*
X96426643Y-69452859D01*
X96276528Y-69423000D01*
X96123472Y-69423000D01*
X95973357Y-69452859D01*
X95831952Y-69511431D01*
X95704691Y-69596464D01*
X95596464Y-69704691D01*
X95511431Y-69831952D01*
X95452859Y-69973357D01*
X95423000Y-70123472D01*
X92257772Y-70123472D01*
X92264310Y-70101922D01*
X92281243Y-69930000D01*
X92264310Y-69758078D01*
X92214162Y-69592763D01*
X92132727Y-69440408D01*
X92023133Y-69306867D01*
X91889592Y-69197273D01*
X91737237Y-69115838D01*
X91571922Y-69065690D01*
X91443079Y-69053000D01*
X91356921Y-69053000D01*
X91228078Y-69065690D01*
X91062763Y-69115838D01*
X90910408Y-69197273D01*
X90776867Y-69306867D01*
X90667273Y-69440408D01*
X90585838Y-69592763D01*
X90535690Y-69758078D01*
X90518757Y-69930000D01*
X83339935Y-69930000D01*
X83302000Y-69892066D01*
X83302000Y-68798476D01*
X83331974Y-68798476D01*
X83331974Y-68951532D01*
X83361833Y-69101647D01*
X83420405Y-69243052D01*
X83505438Y-69370313D01*
X83613665Y-69478540D01*
X83740926Y-69563573D01*
X83882331Y-69622145D01*
X84032446Y-69652004D01*
X84185502Y-69652004D01*
X84335617Y-69622145D01*
X84477022Y-69563573D01*
X84604283Y-69478540D01*
X84712510Y-69370313D01*
X84797543Y-69243052D01*
X84856115Y-69101647D01*
X84885974Y-68951532D01*
X84885974Y-68807938D01*
X85945887Y-67748026D01*
X86013983Y-67734481D01*
X86155388Y-67675909D01*
X86282649Y-67590876D01*
X86390876Y-67482649D01*
X86475909Y-67355388D01*
X86534481Y-67213983D01*
X86564340Y-67063868D01*
X86564340Y-66910812D01*
X86534481Y-66760697D01*
X86475909Y-66619292D01*
X86390876Y-66492031D01*
X86282649Y-66383804D01*
X86155388Y-66298771D01*
X86013983Y-66240199D01*
X85863868Y-66210340D01*
X85710812Y-66210340D01*
X85560697Y-66240199D01*
X85419292Y-66298771D01*
X85292031Y-66383804D01*
X85183804Y-66492031D01*
X85098771Y-66619292D01*
X85040199Y-66760697D01*
X85010340Y-66910812D01*
X85010340Y-67063868D01*
X85040199Y-67213983D01*
X85046016Y-67228027D01*
X84176040Y-68098004D01*
X84032446Y-68098004D01*
X83882331Y-68127863D01*
X83740926Y-68186435D01*
X83613665Y-68271468D01*
X83505438Y-68379695D01*
X83420405Y-68506956D01*
X83361833Y-68648361D01*
X83331974Y-68798476D01*
X83302000Y-68798476D01*
X83302000Y-65923435D01*
X95830625Y-65923435D01*
X95830625Y-66076491D01*
X95860484Y-66226606D01*
X95919056Y-66368011D01*
X96004089Y-66495272D01*
X96105625Y-66596808D01*
X96105626Y-67482986D01*
X96103198Y-67507639D01*
X96112890Y-67606048D01*
X96141595Y-67700675D01*
X96188209Y-67787884D01*
X96223000Y-67830277D01*
X96223000Y-67976542D01*
X96252859Y-68126657D01*
X96311431Y-68268062D01*
X96396464Y-68395323D01*
X96504691Y-68503550D01*
X96631952Y-68588583D01*
X96773357Y-68647155D01*
X96923472Y-68677014D01*
X97076528Y-68677014D01*
X97226643Y-68647155D01*
X97368048Y-68588583D01*
X97422927Y-68551914D01*
X97497158Y-68626145D01*
X97624419Y-68711178D01*
X97765824Y-68769750D01*
X97915939Y-68799609D01*
X98068995Y-68799609D01*
X98219110Y-68769750D01*
X98360515Y-68711178D01*
X98487776Y-68626145D01*
X98596003Y-68517918D01*
X98681036Y-68390657D01*
X98739608Y-68249252D01*
X98769467Y-68099137D01*
X98769467Y-67946081D01*
X98739608Y-67795966D01*
X98681036Y-67654561D01*
X98596003Y-67527300D01*
X98494467Y-67425764D01*
X98494467Y-66110434D01*
X98529891Y-66075010D01*
X98614924Y-65947749D01*
X98673496Y-65806344D01*
X98689979Y-65723476D01*
X109223000Y-65723476D01*
X109223000Y-65876532D01*
X109252859Y-66026647D01*
X109311431Y-66168052D01*
X109373001Y-66260198D01*
X109373000Y-68139851D01*
X109311431Y-68231996D01*
X109252859Y-68373401D01*
X109223000Y-68523516D01*
X109223000Y-68676572D01*
X109252859Y-68826687D01*
X109311431Y-68968092D01*
X109396464Y-69095353D01*
X109504691Y-69203580D01*
X109631952Y-69288613D01*
X109773357Y-69347185D01*
X109923472Y-69377044D01*
X110076528Y-69377044D01*
X110226643Y-69347185D01*
X110368048Y-69288613D01*
X110495309Y-69203580D01*
X110603536Y-69095353D01*
X110688569Y-68968092D01*
X110747141Y-68826687D01*
X110777000Y-68676572D01*
X110777000Y-68523516D01*
X110747141Y-68373401D01*
X110688569Y-68231996D01*
X110627000Y-68139851D01*
X110627000Y-66260197D01*
X110688569Y-66168052D01*
X110747141Y-66026647D01*
X110777000Y-65876532D01*
X110777000Y-65723476D01*
X110747141Y-65573361D01*
X110688569Y-65431956D01*
X110603536Y-65304695D01*
X110495309Y-65196468D01*
X110368048Y-65111435D01*
X110226643Y-65052863D01*
X110076528Y-65023004D01*
X109923472Y-65023004D01*
X109773357Y-65052863D01*
X109631952Y-65111435D01*
X109504691Y-65196468D01*
X109396464Y-65304695D01*
X109311431Y-65431956D01*
X109252859Y-65573361D01*
X109223000Y-65723476D01*
X98689979Y-65723476D01*
X98703355Y-65656229D01*
X98703355Y-65503173D01*
X98673496Y-65353058D01*
X98614924Y-65211653D01*
X98529891Y-65084392D01*
X98421664Y-64976165D01*
X98294403Y-64891132D01*
X98152998Y-64832560D01*
X98002883Y-64802701D01*
X97849827Y-64802701D01*
X97699712Y-64832560D01*
X97558307Y-64891132D01*
X97431046Y-64976165D01*
X97322819Y-65084392D01*
X97237786Y-65211653D01*
X97179214Y-65353058D01*
X97159363Y-65452856D01*
X97102934Y-65396427D01*
X96975673Y-65311394D01*
X96834268Y-65252822D01*
X96684153Y-65222963D01*
X96531097Y-65222963D01*
X96380982Y-65252822D01*
X96239577Y-65311394D01*
X96112316Y-65396427D01*
X96004089Y-65504654D01*
X95919056Y-65631915D01*
X95860484Y-65773320D01*
X95830625Y-65923435D01*
X83302000Y-65923435D01*
X83302000Y-65574827D01*
X83353680Y-65553420D01*
X83480941Y-65468387D01*
X83589168Y-65360160D01*
X83674201Y-65232899D01*
X83732773Y-65091494D01*
X83762632Y-64941379D01*
X83762632Y-64788323D01*
X83732773Y-64638208D01*
X83674201Y-64496803D01*
X83589168Y-64369542D01*
X83480941Y-64261315D01*
X83353680Y-64176282D01*
X83212275Y-64117710D01*
X83062160Y-64087851D01*
X82909104Y-64087851D01*
X82758989Y-64117710D01*
X82617584Y-64176282D01*
X82490323Y-64261315D01*
X82382096Y-64369542D01*
X82297063Y-64496803D01*
X82238491Y-64638208D01*
X82208632Y-64788323D01*
X82208632Y-64941379D01*
X82238491Y-65091494D01*
X82297063Y-65232899D01*
X82298001Y-65234303D01*
X82298000Y-70075357D01*
X82295573Y-70100000D01*
X82298000Y-70124643D01*
X82298000Y-70124652D01*
X82305264Y-70198408D01*
X82333969Y-70293035D01*
X82336907Y-70298532D01*
X82226643Y-70252859D01*
X82076528Y-70223000D01*
X81923472Y-70223000D01*
X81773357Y-70252859D01*
X81631952Y-70311431D01*
X81504691Y-70396464D01*
X81396464Y-70504691D01*
X81311431Y-70631952D01*
X81252859Y-70773357D01*
X81223000Y-70923472D01*
X80401535Y-70923472D01*
X80438569Y-70868048D01*
X80497141Y-70726643D01*
X80527000Y-70576528D01*
X80527000Y-70432934D01*
X80806251Y-70153684D01*
X80923472Y-70177000D01*
X81076528Y-70177000D01*
X81226643Y-70147141D01*
X81368048Y-70088569D01*
X81495309Y-70003536D01*
X81603536Y-69895309D01*
X81688569Y-69768048D01*
X81747141Y-69626643D01*
X81777000Y-69476528D01*
X81777000Y-69323472D01*
X81747141Y-69173357D01*
X81688569Y-69031952D01*
X81603536Y-68904691D01*
X81495309Y-68796464D01*
X81368048Y-68711431D01*
X81226643Y-68652859D01*
X81076528Y-68623000D01*
X80923472Y-68623000D01*
X80773357Y-68652859D01*
X80631952Y-68711431D01*
X80504691Y-68796464D01*
X80396464Y-68904691D01*
X80311431Y-69031952D01*
X80252859Y-69173357D01*
X80224591Y-69315474D01*
X79817066Y-69723000D01*
X79673472Y-69723000D01*
X79523357Y-69752859D01*
X79381952Y-69811431D01*
X79254691Y-69896464D01*
X79146464Y-70004691D01*
X79061431Y-70131952D01*
X79002859Y-70273357D01*
X78973000Y-70423472D01*
X75554449Y-70423472D01*
X75547141Y-70386735D01*
X75488569Y-70245330D01*
X75403536Y-70118069D01*
X75295309Y-70009842D01*
X75168048Y-69924809D01*
X75026643Y-69866237D01*
X74876528Y-69836378D01*
X74723472Y-69836378D01*
X74573357Y-69866237D01*
X74431952Y-69924809D01*
X74304691Y-70009842D01*
X74196464Y-70118069D01*
X74111431Y-70245330D01*
X74052859Y-70386735D01*
X74023000Y-70536850D01*
X55976999Y-70536850D01*
X55976999Y-70462935D01*
X56131111Y-70308824D01*
X58200000Y-70308824D01*
X58273905Y-70301545D01*
X58344970Y-70279988D01*
X58410463Y-70244981D01*
X58467869Y-70197869D01*
X58514981Y-70140463D01*
X58549988Y-70074970D01*
X58571545Y-70003905D01*
X58578824Y-69930000D01*
X58578824Y-69190000D01*
X58571545Y-69116095D01*
X58549988Y-69045030D01*
X58514981Y-68979537D01*
X58467869Y-68922131D01*
X58410463Y-68875019D01*
X58344970Y-68840012D01*
X58273905Y-68818455D01*
X58200000Y-68811176D01*
X55800000Y-68811176D01*
X55726095Y-68818455D01*
X55655030Y-68840012D01*
X55589537Y-68875019D01*
X55532131Y-68922131D01*
X55485019Y-68979537D01*
X55450012Y-69045030D01*
X55428455Y-69116095D01*
X55421176Y-69190000D01*
X55421176Y-69301192D01*
X55407363Y-69280519D01*
X55299136Y-69172292D01*
X55171875Y-69087259D01*
X55030470Y-69028687D01*
X54880355Y-68998828D01*
X54727299Y-68998828D01*
X54635095Y-69017168D01*
X54614981Y-68979537D01*
X54567869Y-68922131D01*
X54510463Y-68875019D01*
X54444970Y-68840012D01*
X54373905Y-68818455D01*
X54300000Y-68811176D01*
X51900000Y-68811176D01*
X51826095Y-68818455D01*
X51755030Y-68840012D01*
X51689537Y-68875019D01*
X51632131Y-68922131D01*
X51585019Y-68979537D01*
X51550012Y-69045030D01*
X51528455Y-69116095D01*
X51521176Y-69190000D01*
X51521176Y-69930000D01*
X51528455Y-70003905D01*
X51550012Y-70074970D01*
X51585019Y-70140463D01*
X51629776Y-70195000D01*
X51585019Y-70249537D01*
X51550012Y-70315030D01*
X51528455Y-70386095D01*
X51521176Y-70460000D01*
X51521176Y-71200000D01*
X51527481Y-71264016D01*
X51423133Y-71136867D01*
X51289592Y-71027273D01*
X51137237Y-70945838D01*
X50971922Y-70895690D01*
X50843079Y-70883000D01*
X50756921Y-70883000D01*
X50628078Y-70895690D01*
X50462763Y-70945838D01*
X50310408Y-71027273D01*
X50176867Y-71136867D01*
X50067273Y-71270408D01*
X49985838Y-71422763D01*
X49935690Y-71588078D01*
X49918757Y-71760000D01*
X49935690Y-71931922D01*
X49985838Y-72097237D01*
X50067273Y-72249592D01*
X50176867Y-72383133D01*
X50191327Y-72395000D01*
X50176867Y-72406867D01*
X50067273Y-72540408D01*
X49985838Y-72692763D01*
X49935690Y-72858078D01*
X49918757Y-73030000D01*
X49935690Y-73201922D01*
X49985838Y-73367237D01*
X50061217Y-73508261D01*
X50032131Y-73532131D01*
X49985019Y-73589537D01*
X49950012Y-73655030D01*
X49928455Y-73726095D01*
X49921176Y-73800000D01*
X49921176Y-74800000D01*
X49928455Y-74873905D01*
X49950012Y-74944970D01*
X49985019Y-75010463D01*
X50032131Y-75067869D01*
X50089537Y-75114981D01*
X50155030Y-75149988D01*
X50226095Y-75171545D01*
X50300000Y-75178824D01*
X51300000Y-75178824D01*
X51373905Y-75171545D01*
X51444970Y-75149988D01*
X51510463Y-75114981D01*
X51532416Y-75096964D01*
X51550012Y-75154970D01*
X51585019Y-75220463D01*
X51632131Y-75277869D01*
X51689537Y-75324981D01*
X51755030Y-75359988D01*
X51826095Y-75381545D01*
X51900000Y-75388824D01*
X54284148Y-75388824D01*
X54176867Y-75476867D01*
X54133643Y-75529536D01*
X54126451Y-75530244D01*
X54055728Y-75551697D01*
X53990550Y-75586536D01*
X53933421Y-75633421D01*
X53886536Y-75690550D01*
X53851697Y-75755728D01*
X53830244Y-75826451D01*
X53823000Y-75900000D01*
X53823000Y-75923000D01*
X47500000Y-75923000D01*
X47426451Y-75930244D01*
X47355728Y-75951697D01*
X47290550Y-75986536D01*
X47233421Y-76033421D01*
X47186536Y-76090550D01*
X47151697Y-76155728D01*
X47130244Y-76226451D01*
X47123000Y-76300000D01*
X47123000Y-77598000D01*
X40402000Y-77598000D01*
X40402000Y-66737295D01*
X72516857Y-66737295D01*
X72516857Y-66890351D01*
X72546716Y-67040466D01*
X72605288Y-67181871D01*
X72690321Y-67309132D01*
X72798548Y-67417359D01*
X72925809Y-67502392D01*
X73067214Y-67560964D01*
X73217329Y-67590823D01*
X73360923Y-67590823D01*
X73882637Y-68112538D01*
X73898350Y-68131684D01*
X73917496Y-68147397D01*
X73917499Y-68147400D01*
X73974788Y-68194417D01*
X74061997Y-68241031D01*
X74156624Y-68269736D01*
X74162443Y-68270309D01*
X74230381Y-68277000D01*
X74230388Y-68277000D01*
X74255034Y-68279427D01*
X74279679Y-68277000D01*
X75203155Y-68277000D01*
X75304691Y-68378536D01*
X75431952Y-68463569D01*
X75573357Y-68522141D01*
X75723472Y-68552000D01*
X75876528Y-68552000D01*
X76026643Y-68522141D01*
X76168048Y-68463569D01*
X76295309Y-68378536D01*
X76403536Y-68270309D01*
X76488569Y-68143048D01*
X76547141Y-68001643D01*
X76577000Y-67851528D01*
X76577000Y-67698472D01*
X76547141Y-67548357D01*
X76488569Y-67406952D01*
X76403536Y-67279691D01*
X76295309Y-67171464D01*
X76168048Y-67086431D01*
X76026643Y-67027859D01*
X75876528Y-66998000D01*
X75723472Y-66998000D01*
X75573357Y-67027859D01*
X75431952Y-67086431D01*
X75304691Y-67171464D01*
X75203155Y-67273000D01*
X74462969Y-67273000D01*
X74070857Y-66880889D01*
X74070857Y-66737295D01*
X74040998Y-66587180D01*
X73982426Y-66445775D01*
X73897393Y-66318514D01*
X73789166Y-66210287D01*
X73661905Y-66125254D01*
X73520500Y-66066682D01*
X73370385Y-66036823D01*
X73217329Y-66036823D01*
X73067214Y-66066682D01*
X72925809Y-66125254D01*
X72798548Y-66210287D01*
X72690321Y-66318514D01*
X72605288Y-66445775D01*
X72546716Y-66587180D01*
X72516857Y-66737295D01*
X40402000Y-66737295D01*
X40402000Y-65127000D01*
X55000000Y-65127000D01*
X55024776Y-65124560D01*
X55048601Y-65117333D01*
X55070557Y-65105597D01*
X55089803Y-65089803D01*
X55105597Y-65070557D01*
X55117333Y-65048601D01*
X55124560Y-65024776D01*
X55127000Y-65000000D01*
X55127000Y-64223472D01*
X68923000Y-64223472D01*
X68923000Y-64376528D01*
X68952859Y-64526643D01*
X69011431Y-64668048D01*
X69096464Y-64795309D01*
X69204691Y-64903536D01*
X69331952Y-64988569D01*
X69473357Y-65047141D01*
X69623472Y-65077000D01*
X69767066Y-65077000D01*
X70519614Y-65829549D01*
X70519614Y-65973142D01*
X70549473Y-66123257D01*
X70608045Y-66264662D01*
X70693078Y-66391923D01*
X70801305Y-66500150D01*
X70928566Y-66585183D01*
X71069971Y-66643755D01*
X71220086Y-66673614D01*
X71373142Y-66673614D01*
X71523257Y-66643755D01*
X71664662Y-66585183D01*
X71791923Y-66500150D01*
X71900150Y-66391923D01*
X71985183Y-66264662D01*
X72043755Y-66123257D01*
X72073614Y-65973142D01*
X72073614Y-65820086D01*
X72043755Y-65669971D01*
X71985183Y-65528566D01*
X71900150Y-65401305D01*
X71791923Y-65293078D01*
X71664662Y-65208045D01*
X71523257Y-65149473D01*
X71373142Y-65119614D01*
X71229549Y-65119614D01*
X70477000Y-64367066D01*
X70477000Y-64223472D01*
X70447141Y-64073357D01*
X70388569Y-63931952D01*
X70303536Y-63804691D01*
X70195309Y-63696464D01*
X70068048Y-63611431D01*
X69926643Y-63552859D01*
X69776528Y-63523000D01*
X69623472Y-63523000D01*
X69473357Y-63552859D01*
X69331952Y-63611431D01*
X69204691Y-63696464D01*
X69096464Y-63804691D01*
X69011431Y-63931952D01*
X68952859Y-64073357D01*
X68923000Y-64223472D01*
X55127000Y-64223472D01*
X55127000Y-56423472D01*
X59923000Y-56423472D01*
X59923000Y-56576528D01*
X59952859Y-56726643D01*
X60011431Y-56868048D01*
X60096464Y-56995309D01*
X60204691Y-57103536D01*
X60331952Y-57188569D01*
X60473357Y-57247141D01*
X60623472Y-57277000D01*
X60776528Y-57277000D01*
X60926643Y-57247141D01*
X61068048Y-57188569D01*
X61195309Y-57103536D01*
X61303536Y-56995309D01*
X61336282Y-56946301D01*
X61336282Y-61000000D01*
X61348483Y-61123882D01*
X61384618Y-61243004D01*
X61443299Y-61352787D01*
X61522269Y-61449013D01*
X61618495Y-61527983D01*
X61728278Y-61586664D01*
X61847400Y-61622799D01*
X61971282Y-61635000D01*
X67863142Y-61635000D01*
X67773357Y-61652859D01*
X67631952Y-61711431D01*
X67504691Y-61796464D01*
X67396464Y-61904691D01*
X67311431Y-62031952D01*
X67252859Y-62173357D01*
X67223000Y-62323472D01*
X67223000Y-62476528D01*
X67252859Y-62626643D01*
X67311431Y-62768048D01*
X67396464Y-62895309D01*
X67504691Y-63003536D01*
X67631952Y-63088569D01*
X67773357Y-63147141D01*
X67923472Y-63177000D01*
X68076528Y-63177000D01*
X68226643Y-63147141D01*
X68368048Y-63088569D01*
X68495309Y-63003536D01*
X68603536Y-62895309D01*
X68688569Y-62768048D01*
X68747141Y-62626643D01*
X68777000Y-62476528D01*
X68777000Y-62332935D01*
X69007936Y-62102000D01*
X73275357Y-62102000D01*
X73300000Y-62104427D01*
X73324643Y-62102000D01*
X73324653Y-62102000D01*
X73398409Y-62094736D01*
X73493036Y-62066031D01*
X73580245Y-62019417D01*
X73656684Y-61956684D01*
X73672402Y-61937532D01*
X73937532Y-61672402D01*
X73956684Y-61656684D01*
X74019417Y-61580245D01*
X74066031Y-61493036D01*
X74094736Y-61398409D01*
X74102000Y-61324653D01*
X74102000Y-61324644D01*
X74104427Y-61300001D01*
X74102000Y-61275358D01*
X74102000Y-55993016D01*
X74471544Y-55623472D01*
X89423000Y-55623472D01*
X89423000Y-55776528D01*
X89452859Y-55926643D01*
X89511431Y-56068048D01*
X89596464Y-56195309D01*
X89704691Y-56303536D01*
X89831952Y-56388569D01*
X89973357Y-56447141D01*
X90123472Y-56477000D01*
X90276528Y-56477000D01*
X90336282Y-56465114D01*
X90336282Y-61000000D01*
X90348483Y-61123882D01*
X90384618Y-61243004D01*
X90443299Y-61352787D01*
X90522269Y-61449013D01*
X90618495Y-61527983D01*
X90728278Y-61586664D01*
X90847400Y-61622799D01*
X90971282Y-61635000D01*
X95176212Y-61635000D01*
X95111431Y-61731952D01*
X95052859Y-61873357D01*
X95023000Y-62023472D01*
X95023000Y-62176528D01*
X95052859Y-62326643D01*
X95111431Y-62468048D01*
X95196464Y-62595309D01*
X95304691Y-62703536D01*
X95431952Y-62788569D01*
X95573357Y-62847141D01*
X95723472Y-62877000D01*
X95876528Y-62877000D01*
X96026643Y-62847141D01*
X96168048Y-62788569D01*
X96295309Y-62703536D01*
X96397556Y-62601289D01*
X96464094Y-62594736D01*
X96558721Y-62566031D01*
X96645930Y-62519417D01*
X96722369Y-62456684D01*
X96738086Y-62437533D01*
X97273620Y-61902000D01*
X102175357Y-61902000D01*
X102200000Y-61904427D01*
X102224643Y-61902000D01*
X102224653Y-61902000D01*
X102298409Y-61894736D01*
X102393036Y-61866031D01*
X102480245Y-61819417D01*
X102556684Y-61756684D01*
X102572401Y-61737533D01*
X103037543Y-61272393D01*
X103056684Y-61256684D01*
X103072392Y-61237544D01*
X103072400Y-61237536D01*
X103119417Y-61180246D01*
X103147556Y-61127601D01*
X103166031Y-61093036D01*
X103194736Y-60998409D01*
X103202000Y-60924653D01*
X103202000Y-60924643D01*
X103204427Y-60900000D01*
X103202000Y-60875357D01*
X103202000Y-55823472D01*
X115123000Y-55823472D01*
X115123000Y-55976528D01*
X115152859Y-56126643D01*
X115211431Y-56268048D01*
X115296464Y-56395309D01*
X115404691Y-56503536D01*
X115531952Y-56588569D01*
X115673357Y-56647141D01*
X115823472Y-56677000D01*
X115976528Y-56677000D01*
X116126643Y-56647141D01*
X116268048Y-56588569D01*
X116395309Y-56503536D01*
X116503536Y-56395309D01*
X116588569Y-56268048D01*
X116647141Y-56126643D01*
X116677000Y-55976528D01*
X116677000Y-55832934D01*
X117365000Y-55144935D01*
X117365000Y-61000000D01*
X117377201Y-61123882D01*
X117413336Y-61243004D01*
X117472017Y-61352787D01*
X117550987Y-61449013D01*
X117647213Y-61527983D01*
X117756996Y-61586664D01*
X117876118Y-61622799D01*
X118000000Y-61635000D01*
X122040598Y-61635000D01*
X122023000Y-61723472D01*
X122023000Y-61876528D01*
X122052859Y-62026643D01*
X122111431Y-62168048D01*
X122196464Y-62295309D01*
X122304691Y-62403536D01*
X122431952Y-62488569D01*
X122573357Y-62547141D01*
X122723472Y-62577000D01*
X122876528Y-62577000D01*
X123026643Y-62547141D01*
X123168048Y-62488569D01*
X123295309Y-62403536D01*
X123397556Y-62301289D01*
X123464094Y-62294736D01*
X123558721Y-62266031D01*
X123645930Y-62219417D01*
X123722369Y-62156684D01*
X123738087Y-62137532D01*
X123873619Y-62002000D01*
X128975347Y-62002000D01*
X129000000Y-62004428D01*
X129024653Y-62002000D01*
X129098409Y-61994736D01*
X129193036Y-61966031D01*
X129280245Y-61919417D01*
X129356684Y-61856684D01*
X129419417Y-61780245D01*
X129466031Y-61693036D01*
X129494736Y-61598409D01*
X129504428Y-61500000D01*
X129502000Y-61475347D01*
X129502000Y-61384448D01*
X129527983Y-61352787D01*
X129586664Y-61243004D01*
X129622799Y-61123882D01*
X129635000Y-61000000D01*
X129635000Y-55096046D01*
X129753050Y-55047148D01*
X129880311Y-54962115D01*
X129988538Y-54853888D01*
X130073571Y-54726627D01*
X130132143Y-54585222D01*
X130162002Y-54435107D01*
X130162002Y-54282051D01*
X130132143Y-54131936D01*
X130073571Y-53990531D01*
X129988538Y-53863270D01*
X129880311Y-53755043D01*
X129753050Y-53670010D01*
X129635000Y-53621112D01*
X129635000Y-47000000D01*
X129622799Y-46876118D01*
X129586664Y-46756996D01*
X129527983Y-46647213D01*
X129449013Y-46550987D01*
X129352787Y-46472017D01*
X129243004Y-46413336D01*
X129123882Y-46377201D01*
X129000000Y-46365000D01*
X127948220Y-46365000D01*
X127868048Y-46311431D01*
X127726643Y-46252859D01*
X127576528Y-46223000D01*
X127423472Y-46223000D01*
X127273357Y-46252859D01*
X127131952Y-46311431D01*
X127051780Y-46365000D01*
X125448220Y-46365000D01*
X125368048Y-46311431D01*
X125226643Y-46252859D01*
X125076528Y-46223000D01*
X124923472Y-46223000D01*
X124773357Y-46252859D01*
X124631952Y-46311431D01*
X124551780Y-46365000D01*
X122948220Y-46365000D01*
X122868048Y-46311431D01*
X122726643Y-46252859D01*
X122576528Y-46223000D01*
X122423472Y-46223000D01*
X122273357Y-46252859D01*
X122131952Y-46311431D01*
X122051780Y-46365000D01*
X120448220Y-46365000D01*
X120368048Y-46311431D01*
X120226643Y-46252859D01*
X120076528Y-46223000D01*
X119923472Y-46223000D01*
X119773357Y-46252859D01*
X119631952Y-46311431D01*
X119551780Y-46365000D01*
X118000000Y-46365000D01*
X117876118Y-46377201D01*
X117756996Y-46413336D01*
X117647213Y-46472017D01*
X117550987Y-46550987D01*
X117472017Y-46647213D01*
X117421419Y-46741874D01*
X117326528Y-46723000D01*
X117173472Y-46723000D01*
X117023357Y-46752859D01*
X116881952Y-46811431D01*
X116754691Y-46896464D01*
X116646464Y-47004691D01*
X116561431Y-47131952D01*
X116502859Y-47273357D01*
X116473000Y-47423472D01*
X116473000Y-47576528D01*
X116502859Y-47726643D01*
X116561431Y-47868048D01*
X116646464Y-47995309D01*
X116748001Y-48096846D01*
X116748000Y-54342065D01*
X115967066Y-55123000D01*
X115823472Y-55123000D01*
X115673357Y-55152859D01*
X115531952Y-55211431D01*
X115404691Y-55296464D01*
X115296464Y-55404691D01*
X115211431Y-55531952D01*
X115152859Y-55673357D01*
X115123000Y-55823472D01*
X103202000Y-55823472D01*
X103202000Y-54996845D01*
X103303536Y-54895309D01*
X103388569Y-54768048D01*
X103447141Y-54626643D01*
X103477000Y-54476528D01*
X103477000Y-54323472D01*
X103447141Y-54173357D01*
X103388569Y-54031952D01*
X103303536Y-53904691D01*
X103195309Y-53796464D01*
X103068048Y-53711431D01*
X102926643Y-53652859D01*
X102776528Y-53623000D01*
X102623472Y-53623000D01*
X102606282Y-53626419D01*
X102606282Y-47000000D01*
X102594081Y-46876118D01*
X102557946Y-46756996D01*
X102499265Y-46647213D01*
X102420295Y-46550987D01*
X102324069Y-46472017D01*
X102214286Y-46413336D01*
X102095164Y-46377201D01*
X101971282Y-46365000D01*
X101948220Y-46365000D01*
X101868048Y-46311431D01*
X101726643Y-46252859D01*
X101576528Y-46223000D01*
X101423472Y-46223000D01*
X101273357Y-46252859D01*
X101131952Y-46311431D01*
X101051780Y-46365000D01*
X99448220Y-46365000D01*
X99368048Y-46311431D01*
X99226643Y-46252859D01*
X99076528Y-46223000D01*
X98923472Y-46223000D01*
X98773357Y-46252859D01*
X98631952Y-46311431D01*
X98551780Y-46365000D01*
X96948220Y-46365000D01*
X96868048Y-46311431D01*
X96726643Y-46252859D01*
X96576528Y-46223000D01*
X96423472Y-46223000D01*
X96273357Y-46252859D01*
X96131952Y-46311431D01*
X96051780Y-46365000D01*
X94448220Y-46365000D01*
X94368048Y-46311431D01*
X94226643Y-46252859D01*
X94076528Y-46223000D01*
X93923472Y-46223000D01*
X93773357Y-46252859D01*
X93631952Y-46311431D01*
X93551780Y-46365000D01*
X91065369Y-46365000D01*
X91047141Y-46273357D01*
X90988569Y-46131952D01*
X90903536Y-46004691D01*
X90795309Y-45896464D01*
X90668048Y-45811431D01*
X90526643Y-45752859D01*
X90376528Y-45723000D01*
X90223472Y-45723000D01*
X90073357Y-45752859D01*
X89931952Y-45811431D01*
X89804691Y-45896464D01*
X89696464Y-46004691D01*
X89611431Y-46131952D01*
X89552859Y-46273357D01*
X89523000Y-46423472D01*
X89523000Y-46576528D01*
X89552859Y-46726643D01*
X89611431Y-46868048D01*
X89696464Y-46995309D01*
X89698001Y-46996846D01*
X89698000Y-55103155D01*
X89596464Y-55204691D01*
X89511431Y-55331952D01*
X89452859Y-55473357D01*
X89423000Y-55623472D01*
X74471544Y-55623472D01*
X74518017Y-55577000D01*
X74661610Y-55577000D01*
X74811725Y-55547141D01*
X74953130Y-55488569D01*
X75080391Y-55403536D01*
X75188618Y-55295309D01*
X75273651Y-55168048D01*
X75332223Y-55026643D01*
X75362082Y-54876528D01*
X75362082Y-54723472D01*
X75332223Y-54573357D01*
X75273651Y-54431952D01*
X75188618Y-54304691D01*
X75080391Y-54196464D01*
X74953130Y-54111431D01*
X74811725Y-54052859D01*
X74661610Y-54023000D01*
X74508554Y-54023000D01*
X74358439Y-54052859D01*
X74217034Y-54111431D01*
X74089773Y-54196464D01*
X73981546Y-54304691D01*
X73896513Y-54431952D01*
X73837941Y-54573357D01*
X73808082Y-54723472D01*
X73808082Y-54867065D01*
X73606282Y-55068866D01*
X73606282Y-47000000D01*
X73594081Y-46876118D01*
X73557946Y-46756996D01*
X73499265Y-46647213D01*
X73420295Y-46550987D01*
X73324069Y-46472017D01*
X73214286Y-46413336D01*
X73095164Y-46377201D01*
X72971282Y-46365000D01*
X72948220Y-46365000D01*
X72868048Y-46311431D01*
X72726643Y-46252859D01*
X72576528Y-46223000D01*
X72423472Y-46223000D01*
X72273357Y-46252859D01*
X72131952Y-46311431D01*
X72051780Y-46365000D01*
X70448220Y-46365000D01*
X70368048Y-46311431D01*
X70226643Y-46252859D01*
X70076528Y-46223000D01*
X69923472Y-46223000D01*
X69773357Y-46252859D01*
X69631952Y-46311431D01*
X69551780Y-46365000D01*
X67948220Y-46365000D01*
X67868048Y-46311431D01*
X67726643Y-46252859D01*
X67576528Y-46223000D01*
X67423472Y-46223000D01*
X67273357Y-46252859D01*
X67131952Y-46311431D01*
X67051780Y-46365000D01*
X65448220Y-46365000D01*
X65368048Y-46311431D01*
X65226643Y-46252859D01*
X65076528Y-46223000D01*
X64923472Y-46223000D01*
X64773357Y-46252859D01*
X64631952Y-46311431D01*
X64551780Y-46365000D01*
X63448220Y-46365000D01*
X63368048Y-46311431D01*
X63226643Y-46252859D01*
X63076528Y-46223000D01*
X62923472Y-46223000D01*
X62773357Y-46252859D01*
X62631952Y-46311431D01*
X62551780Y-46365000D01*
X61971282Y-46365000D01*
X61847400Y-46377201D01*
X61728278Y-46413336D01*
X61618495Y-46472017D01*
X61522269Y-46550987D01*
X61443299Y-46647213D01*
X61384618Y-46756996D01*
X61348483Y-46876118D01*
X61336282Y-47000000D01*
X61336282Y-47953784D01*
X61162463Y-48127603D01*
X61143317Y-48143316D01*
X61127604Y-48162462D01*
X61127601Y-48162465D01*
X61080584Y-48219755D01*
X61033970Y-48306964D01*
X61005265Y-48401591D01*
X60995573Y-48500000D01*
X60998001Y-48524653D01*
X60998000Y-55492064D01*
X60767065Y-55723000D01*
X60623472Y-55723000D01*
X60473357Y-55752859D01*
X60331952Y-55811431D01*
X60204691Y-55896464D01*
X60096464Y-56004691D01*
X60011431Y-56131952D01*
X59952859Y-56273357D01*
X59923000Y-56423472D01*
X55127000Y-56423472D01*
X55127000Y-50750000D01*
X55124560Y-50725224D01*
X55117333Y-50701399D01*
X55105597Y-50679443D01*
X55089803Y-50660197D01*
X55070557Y-50644403D01*
X55048601Y-50632667D01*
X55024776Y-50625440D01*
X55000000Y-50623000D01*
X54000000Y-50623000D01*
X53975224Y-50625440D01*
X53951399Y-50632667D01*
X53929443Y-50644403D01*
X53910197Y-50660197D01*
X53894403Y-50679443D01*
X53882667Y-50701399D01*
X53875440Y-50725224D01*
X53873000Y-50750000D01*
X53873000Y-63873000D01*
X49378824Y-63873000D01*
X49378824Y-62000000D01*
X49371545Y-61926095D01*
X49349988Y-61855030D01*
X49314981Y-61789537D01*
X49267869Y-61732131D01*
X49210463Y-61685019D01*
X49144970Y-61650012D01*
X49073905Y-61628455D01*
X49000000Y-61621176D01*
X47000000Y-61621176D01*
X46926095Y-61628455D01*
X46855030Y-61650012D01*
X46789537Y-61685019D01*
X46732131Y-61732131D01*
X46685019Y-61789537D01*
X46650012Y-61855030D01*
X46628455Y-61926095D01*
X46621176Y-62000000D01*
X46621176Y-63873000D01*
X40402000Y-63873000D01*
X40402000Y-51000000D01*
X46621176Y-51000000D01*
X46621176Y-53000000D01*
X46628455Y-53073905D01*
X46650012Y-53144970D01*
X46685019Y-53210463D01*
X46732131Y-53267869D01*
X46789537Y-53314981D01*
X46855030Y-53349988D01*
X46926095Y-53371545D01*
X47000000Y-53378824D01*
X49000000Y-53378824D01*
X49073905Y-53371545D01*
X49144970Y-53349988D01*
X49210463Y-53314981D01*
X49267869Y-53267869D01*
X49314981Y-53210463D01*
X49349988Y-53144970D01*
X49371545Y-53073905D01*
X49378824Y-53000000D01*
X49378824Y-51000000D01*
X49371545Y-50926095D01*
X49349988Y-50855030D01*
X49314981Y-50789537D01*
X49267869Y-50732131D01*
X49210463Y-50685019D01*
X49144970Y-50650012D01*
X49073905Y-50628455D01*
X49000000Y-50621176D01*
X47000000Y-50621176D01*
X46926095Y-50628455D01*
X46855030Y-50650012D01*
X46789537Y-50685019D01*
X46732131Y-50732131D01*
X46685019Y-50789537D01*
X46650012Y-50855030D01*
X46628455Y-50926095D01*
X46621176Y-51000000D01*
X40402000Y-51000000D01*
X40402000Y-45028232D01*
X56978197Y-45028232D01*
X57022186Y-45420397D01*
X57141508Y-45796551D01*
X57331621Y-46142363D01*
X57585281Y-46444664D01*
X57892827Y-46691937D01*
X58242545Y-46874766D01*
X58621115Y-46986185D01*
X59014116Y-47021951D01*
X59406580Y-46980701D01*
X59783557Y-46864007D01*
X60130688Y-46676314D01*
X60434752Y-46424770D01*
X60684167Y-46118958D01*
X60869432Y-45770524D01*
X60983491Y-45392742D01*
X61019231Y-45028232D01*
X84978197Y-45028232D01*
X85022186Y-45420397D01*
X85141508Y-45796551D01*
X85331621Y-46142363D01*
X85585281Y-46444664D01*
X85892827Y-46691937D01*
X86242545Y-46874766D01*
X86621115Y-46986185D01*
X87014116Y-47021951D01*
X87406580Y-46980701D01*
X87783557Y-46864007D01*
X88130688Y-46676314D01*
X88434752Y-46424770D01*
X88684167Y-46118958D01*
X88869432Y-45770524D01*
X88983491Y-45392742D01*
X89019231Y-45028232D01*
X112978197Y-45028232D01*
X113022186Y-45420397D01*
X113141508Y-45796551D01*
X113331621Y-46142363D01*
X113585281Y-46444664D01*
X113892827Y-46691937D01*
X114242545Y-46874766D01*
X114621115Y-46986185D01*
X115014116Y-47021951D01*
X115406580Y-46980701D01*
X115783557Y-46864007D01*
X116130688Y-46676314D01*
X116434752Y-46424770D01*
X116684167Y-46118958D01*
X116869432Y-45770524D01*
X116983491Y-45392742D01*
X117022000Y-45000000D01*
X117021212Y-44943542D01*
X116971752Y-44552029D01*
X116847189Y-44177579D01*
X116652267Y-43834454D01*
X116394411Y-43535724D01*
X116083442Y-43292769D01*
X115731205Y-43114841D01*
X115351117Y-43008719D01*
X114957654Y-42978443D01*
X114565805Y-43025169D01*
X114190494Y-43147115D01*
X113846017Y-43339636D01*
X113545495Y-43595401D01*
X113300374Y-43904666D01*
X113119992Y-44255652D01*
X113011218Y-44634990D01*
X112978197Y-45028232D01*
X89019231Y-45028232D01*
X89022000Y-45000000D01*
X89021212Y-44943542D01*
X88971752Y-44552029D01*
X88847189Y-44177579D01*
X88652267Y-43834454D01*
X88394411Y-43535724D01*
X88083442Y-43292769D01*
X87731205Y-43114841D01*
X87351117Y-43008719D01*
X86957654Y-42978443D01*
X86565805Y-43025169D01*
X86190494Y-43147115D01*
X85846017Y-43339636D01*
X85545495Y-43595401D01*
X85300374Y-43904666D01*
X85119992Y-44255652D01*
X85011218Y-44634990D01*
X84978197Y-45028232D01*
X61019231Y-45028232D01*
X61022000Y-45000000D01*
X61021212Y-44943542D01*
X60971752Y-44552029D01*
X60847189Y-44177579D01*
X60652267Y-43834454D01*
X60394411Y-43535724D01*
X60083442Y-43292769D01*
X59731205Y-43114841D01*
X59351117Y-43008719D01*
X58957654Y-42978443D01*
X58565805Y-43025169D01*
X58190494Y-43147115D01*
X57846017Y-43339636D01*
X57545495Y-43595401D01*
X57300374Y-43904666D01*
X57119992Y-44255652D01*
X57011218Y-44634990D01*
X56978197Y-45028232D01*
X40402000Y-45028232D01*
X40402000Y-40000000D01*
X46621176Y-40000000D01*
X46621176Y-42000000D01*
X46628455Y-42073905D01*
X46650012Y-42144970D01*
X46685019Y-42210463D01*
X46732131Y-42267869D01*
X46789537Y-42314981D01*
X46855030Y-42349988D01*
X46926095Y-42371545D01*
X47000000Y-42378824D01*
X49000000Y-42378824D01*
X49073905Y-42371545D01*
X49144970Y-42349988D01*
X49210463Y-42314981D01*
X49267869Y-42267869D01*
X49314981Y-42210463D01*
X49349988Y-42144970D01*
X49371545Y-42073905D01*
X49378824Y-42000000D01*
X49378824Y-40000000D01*
X49371545Y-39926095D01*
X49349988Y-39855030D01*
X49314981Y-39789537D01*
X49267869Y-39732131D01*
X49210463Y-39685019D01*
X49144970Y-39650012D01*
X49073905Y-39628455D01*
X49000000Y-39621176D01*
X47000000Y-39621176D01*
X46926095Y-39628455D01*
X46855030Y-39650012D01*
X46789537Y-39685019D01*
X46732131Y-39732131D01*
X46685019Y-39789537D01*
X46650012Y-39855030D01*
X46628455Y-39926095D01*
X46621176Y-40000000D01*
X40402000Y-40000000D01*
X40402000Y-29000260D01*
X48241436Y-29000260D01*
X48241436Y-34999740D01*
X48248715Y-35073645D01*
X48270272Y-35144710D01*
X48305279Y-35210203D01*
X48352391Y-35267609D01*
X48409797Y-35314721D01*
X48475290Y-35349728D01*
X48546355Y-35371285D01*
X48620260Y-35378564D01*
X54619740Y-35378564D01*
X54693645Y-35371285D01*
X54764710Y-35349728D01*
X54830203Y-35314721D01*
X54887609Y-35267609D01*
X54934721Y-35210203D01*
X54969728Y-35144710D01*
X54991285Y-35073645D01*
X54998564Y-34999740D01*
X54998564Y-30000000D01*
X64336282Y-30000000D01*
X64336282Y-39000000D01*
X64348483Y-39123882D01*
X64384618Y-39243004D01*
X64443299Y-39352787D01*
X64522269Y-39449013D01*
X64618495Y-39527983D01*
X64728278Y-39586664D01*
X64847400Y-39622799D01*
X64971282Y-39635000D01*
X75971282Y-39635000D01*
X76095164Y-39622799D01*
X76214286Y-39586664D01*
X76324069Y-39527983D01*
X76420295Y-39449013D01*
X76499265Y-39352787D01*
X76557946Y-39243004D01*
X76594081Y-39123882D01*
X76606282Y-39000000D01*
X76606282Y-30000000D01*
X92336282Y-30000000D01*
X92336282Y-39000000D01*
X92348483Y-39123882D01*
X92384618Y-39243004D01*
X92443299Y-39352787D01*
X92522269Y-39449013D01*
X92618495Y-39527983D01*
X92728278Y-39586664D01*
X92847400Y-39622799D01*
X92971282Y-39635000D01*
X103971282Y-39635000D01*
X104095164Y-39622799D01*
X104214286Y-39586664D01*
X104324069Y-39527983D01*
X104420295Y-39449013D01*
X104499265Y-39352787D01*
X104557946Y-39243004D01*
X104594081Y-39123882D01*
X104606282Y-39000000D01*
X104606282Y-30000000D01*
X119329871Y-30000000D01*
X119329871Y-39000000D01*
X119342072Y-39123882D01*
X119378207Y-39243004D01*
X119436888Y-39352787D01*
X119515858Y-39449013D01*
X119612084Y-39527983D01*
X119721867Y-39586664D01*
X119840989Y-39622799D01*
X119964871Y-39635000D01*
X130964871Y-39635000D01*
X131088753Y-39622799D01*
X131207875Y-39586664D01*
X131317658Y-39527983D01*
X131413884Y-39449013D01*
X131492854Y-39352787D01*
X131551535Y-39243004D01*
X131587670Y-39123882D01*
X131599871Y-39000000D01*
X131599871Y-30000000D01*
X131587670Y-29876118D01*
X131551535Y-29756996D01*
X131492854Y-29647213D01*
X131413884Y-29550987D01*
X131317658Y-29472017D01*
X131207875Y-29413336D01*
X131088753Y-29377201D01*
X130964871Y-29365000D01*
X119964871Y-29365000D01*
X119840989Y-29377201D01*
X119721867Y-29413336D01*
X119612084Y-29472017D01*
X119515858Y-29550987D01*
X119436888Y-29647213D01*
X119378207Y-29756996D01*
X119342072Y-29876118D01*
X119329871Y-30000000D01*
X104606282Y-30000000D01*
X104594081Y-29876118D01*
X104557946Y-29756996D01*
X104499265Y-29647213D01*
X104420295Y-29550987D01*
X104324069Y-29472017D01*
X104214286Y-29413336D01*
X104095164Y-29377201D01*
X103971282Y-29365000D01*
X92971282Y-29365000D01*
X92847400Y-29377201D01*
X92728278Y-29413336D01*
X92618495Y-29472017D01*
X92522269Y-29550987D01*
X92443299Y-29647213D01*
X92384618Y-29756996D01*
X92348483Y-29876118D01*
X92336282Y-30000000D01*
X76606282Y-30000000D01*
X76594081Y-29876118D01*
X76557946Y-29756996D01*
X76499265Y-29647213D01*
X76420295Y-29550987D01*
X76324069Y-29472017D01*
X76214286Y-29413336D01*
X76095164Y-29377201D01*
X75971282Y-29365000D01*
X64971282Y-29365000D01*
X64847400Y-29377201D01*
X64728278Y-29413336D01*
X64618495Y-29472017D01*
X64522269Y-29550987D01*
X64443299Y-29647213D01*
X64384618Y-29756996D01*
X64348483Y-29876118D01*
X64336282Y-30000000D01*
X54998564Y-30000000D01*
X54998564Y-29000260D01*
X54991285Y-28926355D01*
X54969728Y-28855290D01*
X54934721Y-28789797D01*
X54887609Y-28732391D01*
X54830203Y-28685279D01*
X54764710Y-28650272D01*
X54693645Y-28628715D01*
X54619740Y-28621436D01*
X48620260Y-28621436D01*
X48546355Y-28628715D01*
X48475290Y-28650272D01*
X48409797Y-28685279D01*
X48352391Y-28732391D01*
X48305279Y-28789797D01*
X48270272Y-28855290D01*
X48248715Y-28926355D01*
X48241436Y-29000260D01*
X40402000Y-29000260D01*
X40402000Y-28402000D01*
X139598000Y-28402000D01*
X139598000Y-35553127D01*
G36*
X75844282Y-38873000D02*
G01*
X65098282Y-38873000D01*
X65098282Y-30127000D01*
X75844282Y-30127000D01*
X75844282Y-38873000D01*
X75844282Y-38873000D01*
G37*
X75844282Y-38873000D02*
X65098282Y-38873000D01*
X65098282Y-30127000D01*
X75844282Y-30127000D01*
X75844282Y-38873000D01*
G36*
X103844282Y-38873000D02*
G01*
X93098282Y-38873000D01*
X93098282Y-30127000D01*
X103844282Y-30127000D01*
X103844282Y-38873000D01*
X103844282Y-38873000D01*
G37*
X103844282Y-38873000D02*
X93098282Y-38873000D01*
X93098282Y-30127000D01*
X103844282Y-30127000D01*
X103844282Y-38873000D01*
G36*
X130837871Y-38873000D02*
G01*
X120091871Y-38873000D01*
X120091871Y-30127000D01*
X130837871Y-30127000D01*
X130837871Y-38873000D01*
X130837871Y-38873000D01*
G37*
X130837871Y-38873000D02*
X120091871Y-38873000D01*
X120091871Y-30127000D01*
X130837871Y-30127000D01*
X130837871Y-38873000D01*
G36*
X72844282Y-55704284D02*
G01*
X72836324Y-55785082D01*
X72840001Y-55822414D01*
X72840000Y-60840000D01*
X68837323Y-60840000D01*
X68800000Y-60836324D01*
X68762677Y-60840000D01*
X68762667Y-60840000D01*
X68651014Y-60850997D01*
X68578479Y-60873000D01*
X62098282Y-60873000D01*
X62098282Y-56168985D01*
X62134974Y-56124276D01*
X62205546Y-55992247D01*
X62249003Y-55848986D01*
X62260000Y-55737333D01*
X62260000Y-55737323D01*
X62263676Y-55700000D01*
X62260000Y-55662677D01*
X62260000Y-48814801D01*
X63039802Y-48035000D01*
X63101939Y-48035000D01*
X63301898Y-47995226D01*
X63490256Y-47917205D01*
X63659774Y-47803937D01*
X63803937Y-47659774D01*
X63917205Y-47490256D01*
X63995226Y-47301898D01*
X64030015Y-47127000D01*
X72844282Y-47127000D01*
X72844282Y-55704284D01*
X72844282Y-55704284D01*
G37*
X72844282Y-55704284D02*
X72836324Y-55785082D01*
X72840001Y-55822414D01*
X72840000Y-60840000D01*
X68837323Y-60840000D01*
X68800000Y-60836324D01*
X68762677Y-60840000D01*
X68762667Y-60840000D01*
X68651014Y-60850997D01*
X68578479Y-60873000D01*
X62098282Y-60873000D01*
X62098282Y-56168985D01*
X62134974Y-56124276D01*
X62205546Y-55992247D01*
X62249003Y-55848986D01*
X62260000Y-55737333D01*
X62260000Y-55737323D01*
X62263676Y-55700000D01*
X62260000Y-55662677D01*
X62260000Y-48814801D01*
X63039802Y-48035000D01*
X63101939Y-48035000D01*
X63301898Y-47995226D01*
X63490256Y-47917205D01*
X63659774Y-47803937D01*
X63803937Y-47659774D01*
X63917205Y-47490256D01*
X63995226Y-47301898D01*
X64030015Y-47127000D01*
X72844282Y-47127000D01*
X72844282Y-55704284D01*
G36*
X128873000Y-53455904D02*
G01*
X128725228Y-53554642D01*
X128581065Y-53698805D01*
X128467797Y-53868323D01*
X128389776Y-54056681D01*
X128350002Y-54256640D01*
X128350002Y-54347413D01*
X128294454Y-54451335D01*
X128250998Y-54594596D01*
X128236324Y-54743581D01*
X128240001Y-54780913D01*
X128240000Y-60740000D01*
X123703007Y-60740000D01*
X123665684Y-60736324D01*
X123628361Y-60740000D01*
X123628352Y-60740000D01*
X123516699Y-60750997D01*
X123373438Y-60794454D01*
X123244006Y-60863638D01*
X123101898Y-60804774D01*
X122901939Y-60765000D01*
X122698061Y-60765000D01*
X122498102Y-60804774D01*
X122333391Y-60873000D01*
X118127000Y-60873000D01*
X118127000Y-48050427D01*
X118167205Y-47990256D01*
X118245226Y-47801898D01*
X118285000Y-47601939D01*
X118285000Y-47398061D01*
X118245226Y-47198102D01*
X118215774Y-47127000D01*
X128873000Y-47127000D01*
X128873000Y-53455904D01*
X128873000Y-53455904D01*
G37*
X128873000Y-53455904D02*
X128725228Y-53554642D01*
X128581065Y-53698805D01*
X128467797Y-53868323D01*
X128389776Y-54056681D01*
X128350002Y-54256640D01*
X128350002Y-54347413D01*
X128294454Y-54451335D01*
X128250998Y-54594596D01*
X128236324Y-54743581D01*
X128240001Y-54780913D01*
X128240000Y-60740000D01*
X123703007Y-60740000D01*
X123665684Y-60736324D01*
X123628361Y-60740000D01*
X123628352Y-60740000D01*
X123516699Y-60750997D01*
X123373438Y-60794454D01*
X123244006Y-60863638D01*
X123101898Y-60804774D01*
X122901939Y-60765000D01*
X122698061Y-60765000D01*
X122498102Y-60804774D01*
X122333391Y-60873000D01*
X118127000Y-60873000D01*
X118127000Y-48050427D01*
X118167205Y-47990256D01*
X118245226Y-47801898D01*
X118285000Y-47601939D01*
X118285000Y-47398061D01*
X118245226Y-47198102D01*
X118215774Y-47127000D01*
X128873000Y-47127000D01*
X128873000Y-53455904D01*
G36*
X74873000Y-75373000D02*
G01*
X70834916Y-75373000D01*
X70711922Y-75335690D01*
X70583079Y-75323000D01*
X70496921Y-75323000D01*
X70368078Y-75335690D01*
X70245084Y-75373000D01*
X69564916Y-75373000D01*
X69441922Y-75335690D01*
X69313079Y-75323000D01*
X69226921Y-75323000D01*
X69098078Y-75335690D01*
X68932763Y-75385838D01*
X68780408Y-75467273D01*
X68646867Y-75576867D01*
X68635000Y-75591327D01*
X68623133Y-75576867D01*
X68489592Y-75467273D01*
X68337237Y-75385838D01*
X68171922Y-75335690D01*
X68043079Y-75323000D01*
X67956921Y-75323000D01*
X67828078Y-75335690D01*
X67662763Y-75385838D01*
X67510408Y-75467273D01*
X67376867Y-75576867D01*
X67365000Y-75591327D01*
X67353133Y-75576867D01*
X67219592Y-75467273D01*
X67067237Y-75385838D01*
X66901922Y-75335690D01*
X66773079Y-75323000D01*
X66686921Y-75323000D01*
X66558078Y-75335690D01*
X66392763Y-75385838D01*
X66251739Y-75461217D01*
X66227869Y-75432131D01*
X66170463Y-75385019D01*
X66104970Y-75350012D01*
X66033905Y-75328455D01*
X65960000Y-75321176D01*
X64960000Y-75321176D01*
X64886095Y-75328455D01*
X64815030Y-75350012D01*
X64749537Y-75385019D01*
X64692131Y-75432131D01*
X64645019Y-75489537D01*
X64610012Y-75555030D01*
X64588455Y-75626095D01*
X64581176Y-75700000D01*
X64581176Y-76700000D01*
X64588455Y-76773905D01*
X64610012Y-76844970D01*
X64645019Y-76910463D01*
X64692131Y-76967869D01*
X64749537Y-77014981D01*
X64815030Y-77049988D01*
X64886095Y-77071545D01*
X64958001Y-77078627D01*
X64958001Y-77147990D01*
X49646989Y-77147990D01*
X49588569Y-77006952D01*
X49503536Y-76879691D01*
X49395309Y-76771464D01*
X49268048Y-76686431D01*
X49126643Y-76627859D01*
X48976528Y-76598000D01*
X48823472Y-76598000D01*
X48673357Y-76627859D01*
X48531952Y-76686431D01*
X48404691Y-76771464D01*
X48296464Y-76879691D01*
X48211431Y-77006952D01*
X48152859Y-77148357D01*
X48123000Y-77298472D01*
X48123000Y-77451528D01*
X48152134Y-77598000D01*
X47627000Y-77598000D01*
X47627000Y-76427000D01*
X52128155Y-76427000D01*
X52167353Y-76466198D01*
X52294614Y-76551231D01*
X52436019Y-76609803D01*
X52586134Y-76639662D01*
X52655082Y-76639662D01*
X52658455Y-76673905D01*
X52680012Y-76744970D01*
X52715019Y-76810463D01*
X52762131Y-76867869D01*
X52819537Y-76914981D01*
X52885030Y-76949988D01*
X52956095Y-76971545D01*
X53030000Y-76978824D01*
X54030000Y-76978824D01*
X54103905Y-76971545D01*
X54174970Y-76949988D01*
X54240463Y-76914981D01*
X54297869Y-76867869D01*
X54344981Y-76810463D01*
X54379988Y-76744970D01*
X54401545Y-76673905D01*
X54408824Y-76600000D01*
X54408824Y-76027000D01*
X55173000Y-76027000D01*
X55173000Y-76500000D01*
X55175440Y-76524776D01*
X55182667Y-76548601D01*
X55194403Y-76570557D01*
X55210197Y-76589803D01*
X55229443Y-76605597D01*
X55251399Y-76617333D01*
X55275224Y-76624560D01*
X55300000Y-76627000D01*
X55367973Y-76627000D01*
X55446867Y-76723133D01*
X55580408Y-76832727D01*
X55732763Y-76914162D01*
X55898078Y-76964310D01*
X56026921Y-76977000D01*
X56113079Y-76977000D01*
X56241922Y-76964310D01*
X56407237Y-76914162D01*
X56559592Y-76832727D01*
X56693133Y-76723133D01*
X56705000Y-76708673D01*
X56716867Y-76723133D01*
X56850408Y-76832727D01*
X57002763Y-76914162D01*
X57168078Y-76964310D01*
X57296921Y-76977000D01*
X57383079Y-76977000D01*
X57511922Y-76964310D01*
X57677237Y-76914162D01*
X57829592Y-76832727D01*
X57963133Y-76723133D01*
X58042027Y-76627000D01*
X58957973Y-76627000D01*
X59036867Y-76723133D01*
X59170408Y-76832727D01*
X59322763Y-76914162D01*
X59488078Y-76964310D01*
X59616921Y-76977000D01*
X59703079Y-76977000D01*
X59831922Y-76964310D01*
X59997237Y-76914162D01*
X60149592Y-76832727D01*
X60283133Y-76723133D01*
X60295000Y-76708673D01*
X60306867Y-76723133D01*
X60440408Y-76832727D01*
X60592763Y-76914162D01*
X60758078Y-76964310D01*
X60886921Y-76977000D01*
X60973079Y-76977000D01*
X61101922Y-76964310D01*
X61267237Y-76914162D01*
X61408261Y-76838783D01*
X61432131Y-76867869D01*
X61489537Y-76914981D01*
X61555030Y-76949988D01*
X61626095Y-76971545D01*
X61700000Y-76978824D01*
X62700000Y-76978824D01*
X62773905Y-76971545D01*
X62844970Y-76949988D01*
X62910463Y-76914981D01*
X62967869Y-76867869D01*
X63014981Y-76810463D01*
X63049988Y-76744970D01*
X63071545Y-76673905D01*
X63078824Y-76600000D01*
X63078824Y-75600000D01*
X63071545Y-75526095D01*
X63049988Y-75455030D01*
X63014981Y-75389537D01*
X62967869Y-75332131D01*
X62910463Y-75285019D01*
X62844970Y-75250012D01*
X62773905Y-75228455D01*
X62700000Y-75221176D01*
X61700000Y-75221176D01*
X61626095Y-75228455D01*
X61555030Y-75250012D01*
X61489537Y-75285019D01*
X61432131Y-75332131D01*
X61408261Y-75361217D01*
X61267237Y-75285838D01*
X61127000Y-75243297D01*
X61127000Y-74627000D01*
X74873000Y-74627000D01*
X74873000Y-75373000D01*
X74873000Y-75373000D01*
G37*
X74873000Y-75373000D02*
X70834916Y-75373000D01*
X70711922Y-75335690D01*
X70583079Y-75323000D01*
X70496921Y-75323000D01*
X70368078Y-75335690D01*
X70245084Y-75373000D01*
X69564916Y-75373000D01*
X69441922Y-75335690D01*
X69313079Y-75323000D01*
X69226921Y-75323000D01*
X69098078Y-75335690D01*
X68932763Y-75385838D01*
X68780408Y-75467273D01*
X68646867Y-75576867D01*
X68635000Y-75591327D01*
X68623133Y-75576867D01*
X68489592Y-75467273D01*
X68337237Y-75385838D01*
X68171922Y-75335690D01*
X68043079Y-75323000D01*
X67956921Y-75323000D01*
X67828078Y-75335690D01*
X67662763Y-75385838D01*
X67510408Y-75467273D01*
X67376867Y-75576867D01*
X67365000Y-75591327D01*
X67353133Y-75576867D01*
X67219592Y-75467273D01*
X67067237Y-75385838D01*
X66901922Y-75335690D01*
X66773079Y-75323000D01*
X66686921Y-75323000D01*
X66558078Y-75335690D01*
X66392763Y-75385838D01*
X66251739Y-75461217D01*
X66227869Y-75432131D01*
X66170463Y-75385019D01*
X66104970Y-75350012D01*
X66033905Y-75328455D01*
X65960000Y-75321176D01*
X64960000Y-75321176D01*
X64886095Y-75328455D01*
X64815030Y-75350012D01*
X64749537Y-75385019D01*
X64692131Y-75432131D01*
X64645019Y-75489537D01*
X64610012Y-75555030D01*
X64588455Y-75626095D01*
X64581176Y-75700000D01*
X64581176Y-76700000D01*
X64588455Y-76773905D01*
X64610012Y-76844970D01*
X64645019Y-76910463D01*
X64692131Y-76967869D01*
X64749537Y-77014981D01*
X64815030Y-77049988D01*
X64886095Y-77071545D01*
X64958001Y-77078627D01*
X64958001Y-77147990D01*
X49646989Y-77147990D01*
X49588569Y-77006952D01*
X49503536Y-76879691D01*
X49395309Y-76771464D01*
X49268048Y-76686431D01*
X49126643Y-76627859D01*
X48976528Y-76598000D01*
X48823472Y-76598000D01*
X48673357Y-76627859D01*
X48531952Y-76686431D01*
X48404691Y-76771464D01*
X48296464Y-76879691D01*
X48211431Y-77006952D01*
X48152859Y-77148357D01*
X48123000Y-77298472D01*
X48123000Y-77451528D01*
X48152134Y-77598000D01*
X47627000Y-77598000D01*
X47627000Y-76427000D01*
X52128155Y-76427000D01*
X52167353Y-76466198D01*
X52294614Y-76551231D01*
X52436019Y-76609803D01*
X52586134Y-76639662D01*
X52655082Y-76639662D01*
X52658455Y-76673905D01*
X52680012Y-76744970D01*
X52715019Y-76810463D01*
X52762131Y-76867869D01*
X52819537Y-76914981D01*
X52885030Y-76949988D01*
X52956095Y-76971545D01*
X53030000Y-76978824D01*
X54030000Y-76978824D01*
X54103905Y-76971545D01*
X54174970Y-76949988D01*
X54240463Y-76914981D01*
X54297869Y-76867869D01*
X54344981Y-76810463D01*
X54379988Y-76744970D01*
X54401545Y-76673905D01*
X54408824Y-76600000D01*
X54408824Y-76027000D01*
X55173000Y-76027000D01*
X55173000Y-76500000D01*
X55175440Y-76524776D01*
X55182667Y-76548601D01*
X55194403Y-76570557D01*
X55210197Y-76589803D01*
X55229443Y-76605597D01*
X55251399Y-76617333D01*
X55275224Y-76624560D01*
X55300000Y-76627000D01*
X55367973Y-76627000D01*
X55446867Y-76723133D01*
X55580408Y-76832727D01*
X55732763Y-76914162D01*
X55898078Y-76964310D01*
X56026921Y-76977000D01*
X56113079Y-76977000D01*
X56241922Y-76964310D01*
X56407237Y-76914162D01*
X56559592Y-76832727D01*
X56693133Y-76723133D01*
X56705000Y-76708673D01*
X56716867Y-76723133D01*
X56850408Y-76832727D01*
X57002763Y-76914162D01*
X57168078Y-76964310D01*
X57296921Y-76977000D01*
X57383079Y-76977000D01*
X57511922Y-76964310D01*
X57677237Y-76914162D01*
X57829592Y-76832727D01*
X57963133Y-76723133D01*
X58042027Y-76627000D01*
X58957973Y-76627000D01*
X59036867Y-76723133D01*
X59170408Y-76832727D01*
X59322763Y-76914162D01*
X59488078Y-76964310D01*
X59616921Y-76977000D01*
X59703079Y-76977000D01*
X59831922Y-76964310D01*
X59997237Y-76914162D01*
X60149592Y-76832727D01*
X60283133Y-76723133D01*
X60295000Y-76708673D01*
X60306867Y-76723133D01*
X60440408Y-76832727D01*
X60592763Y-76914162D01*
X60758078Y-76964310D01*
X60886921Y-76977000D01*
X60973079Y-76977000D01*
X61101922Y-76964310D01*
X61267237Y-76914162D01*
X61408261Y-76838783D01*
X61432131Y-76867869D01*
X61489537Y-76914981D01*
X61555030Y-76949988D01*
X61626095Y-76971545D01*
X61700000Y-76978824D01*
X62700000Y-76978824D01*
X62773905Y-76971545D01*
X62844970Y-76949988D01*
X62910463Y-76914981D01*
X62967869Y-76867869D01*
X63014981Y-76810463D01*
X63049988Y-76744970D01*
X63071545Y-76673905D01*
X63078824Y-76600000D01*
X63078824Y-75600000D01*
X63071545Y-75526095D01*
X63049988Y-75455030D01*
X63014981Y-75389537D01*
X62967869Y-75332131D01*
X62910463Y-75285019D01*
X62844970Y-75250012D01*
X62773905Y-75228455D01*
X62700000Y-75221176D01*
X61700000Y-75221176D01*
X61626095Y-75228455D01*
X61555030Y-75250012D01*
X61489537Y-75285019D01*
X61432131Y-75332131D01*
X61408261Y-75361217D01*
X61267237Y-75285838D01*
X61127000Y-75243297D01*
X61127000Y-74627000D01*
X74873000Y-74627000D01*
X74873000Y-75373000D01*
G36*
X101844282Y-53817722D02*
G01*
X101782795Y-53909744D01*
X101704774Y-54098102D01*
X101665000Y-54298061D01*
X101665000Y-54501939D01*
X101704774Y-54701898D01*
X101782795Y-54890256D01*
X101844282Y-54982278D01*
X101844282Y-60640000D01*
X97103007Y-60640000D01*
X97065684Y-60636324D01*
X97028361Y-60640000D01*
X97028352Y-60640000D01*
X96916699Y-60650997D01*
X96773438Y-60694454D01*
X96641409Y-60765026D01*
X96641407Y-60765027D01*
X96641408Y-60765027D01*
X96554681Y-60836201D01*
X96554677Y-60836205D01*
X96525684Y-60859999D01*
X96515014Y-60873000D01*
X91098282Y-60873000D01*
X91098282Y-56218576D01*
X91117205Y-56190256D01*
X91195226Y-56001898D01*
X91235000Y-55801939D01*
X91235000Y-55598061D01*
X91195226Y-55398102D01*
X91117205Y-55209744D01*
X91098282Y-55181424D01*
X91098282Y-47165429D01*
X91103937Y-47159774D01*
X91125836Y-47127000D01*
X101844282Y-47127000D01*
X101844282Y-53817722D01*
X101844282Y-53817722D01*
G37*
X101844282Y-53817722D02*
X101782795Y-53909744D01*
X101704774Y-54098102D01*
X101665000Y-54298061D01*
X101665000Y-54501939D01*
X101704774Y-54701898D01*
X101782795Y-54890256D01*
X101844282Y-54982278D01*
X101844282Y-60640000D01*
X97103007Y-60640000D01*
X97065684Y-60636324D01*
X97028361Y-60640000D01*
X97028352Y-60640000D01*
X96916699Y-60650997D01*
X96773438Y-60694454D01*
X96641409Y-60765026D01*
X96641407Y-60765027D01*
X96641408Y-60765027D01*
X96554681Y-60836201D01*
X96554677Y-60836205D01*
X96525684Y-60859999D01*
X96515014Y-60873000D01*
X91098282Y-60873000D01*
X91098282Y-56218576D01*
X91117205Y-56190256D01*
X91195226Y-56001898D01*
X91235000Y-55801939D01*
X91235000Y-55598061D01*
X91195226Y-55398102D01*
X91117205Y-55209744D01*
X91098282Y-55181424D01*
X91098282Y-47165429D01*
X91103937Y-47159774D01*
X91125836Y-47127000D01*
X101844282Y-47127000D01*
X101844282Y-53817722D01*
M02*
