G04 #@! TF.GenerationSoftware,KiCad,Pcbnew,(5.1.2)-2*
G04 #@! TF.CreationDate,2020-07-11T15:10:54+01:00*
G04 #@! TF.ProjectId,INV_Board,494e565f-426f-4617-9264-2e6b69636164,rev?*
G04 #@! TF.SameCoordinates,Original*
G04 #@! TF.FileFunction,Legend,Top*
G04 #@! TF.FilePolarity,Positive*
%FSLAX46Y46*%
G04 Gerber Fmt 4.6, Leading zero omitted, Abs format (unit mm)*
G04 Created by KiCad (PCBNEW (5.1.2)-2) date 2020-07-11 15:10:54*
%MOMM*%
%LPD*%
G04 APERTURE LIST*
%ADD10C,0.120000*%
%ADD11C,0.150000*%
G04 APERTURE END LIST*
D10*
X56000000Y-28000000D02*
X138000000Y-28000000D01*
X56000000Y-57000000D02*
X56000000Y-28000000D01*
X138000000Y-57000000D02*
X56000000Y-57000000D01*
D11*
X123357142Y-28277619D02*
X123404761Y-28230000D01*
X123500000Y-28182380D01*
X123738095Y-28182380D01*
X123833333Y-28230000D01*
X123880952Y-28277619D01*
X123928571Y-28372857D01*
X123928571Y-28468095D01*
X123880952Y-28610952D01*
X123309523Y-29182380D01*
X123928571Y-29182380D01*
X124833333Y-28182380D02*
X124357142Y-28182380D01*
X124309523Y-28658571D01*
X124357142Y-28610952D01*
X124452380Y-28563333D01*
X124690476Y-28563333D01*
X124785714Y-28610952D01*
X124833333Y-28658571D01*
X124880952Y-28753809D01*
X124880952Y-28991904D01*
X124833333Y-29087142D01*
X124785714Y-29134761D01*
X124690476Y-29182380D01*
X124452380Y-29182380D01*
X124357142Y-29134761D01*
X124309523Y-29087142D01*
X125309523Y-29087142D02*
X125357142Y-29134761D01*
X125309523Y-29182380D01*
X125261904Y-29134761D01*
X125309523Y-29087142D01*
X125309523Y-29182380D01*
X125976190Y-28182380D02*
X126071428Y-28182380D01*
X126166666Y-28230000D01*
X126214285Y-28277619D01*
X126261904Y-28372857D01*
X126309523Y-28563333D01*
X126309523Y-28801428D01*
X126261904Y-28991904D01*
X126214285Y-29087142D01*
X126166666Y-29134761D01*
X126071428Y-29182380D01*
X125976190Y-29182380D01*
X125880952Y-29134761D01*
X125833333Y-29087142D01*
X125785714Y-28991904D01*
X125738095Y-28801428D01*
X125738095Y-28563333D01*
X125785714Y-28372857D01*
X125833333Y-28277619D01*
X125880952Y-28230000D01*
X125976190Y-28182380D01*
X126928571Y-28182380D02*
X127023809Y-28182380D01*
X127119047Y-28230000D01*
X127166666Y-28277619D01*
X127214285Y-28372857D01*
X127261904Y-28563333D01*
X127261904Y-28801428D01*
X127214285Y-28991904D01*
X127166666Y-29087142D01*
X127119047Y-29134761D01*
X127023809Y-29182380D01*
X126928571Y-29182380D01*
X126833333Y-29134761D01*
X126785714Y-29087142D01*
X126738095Y-28991904D01*
X126690476Y-28801428D01*
X126690476Y-28563333D01*
X126738095Y-28372857D01*
X126785714Y-28277619D01*
X126833333Y-28230000D01*
X126928571Y-28182380D01*
X127880952Y-28182380D02*
X127976190Y-28182380D01*
X128071428Y-28230000D01*
X128119047Y-28277619D01*
X128166666Y-28372857D01*
X128214285Y-28563333D01*
X128214285Y-28801428D01*
X128166666Y-28991904D01*
X128119047Y-29087142D01*
X128071428Y-29134761D01*
X127976190Y-29182380D01*
X127880952Y-29182380D01*
X127785714Y-29134761D01*
X127738095Y-29087142D01*
X127690476Y-28991904D01*
X127642857Y-28801428D01*
X127642857Y-28563333D01*
X127690476Y-28372857D01*
X127738095Y-28277619D01*
X127785714Y-28230000D01*
X127880952Y-28182380D01*
X129404761Y-29182380D02*
X129404761Y-28515714D01*
X129404761Y-28610952D02*
X129452380Y-28563333D01*
X129547619Y-28515714D01*
X129690476Y-28515714D01*
X129785714Y-28563333D01*
X129833333Y-28658571D01*
X129833333Y-29182380D01*
X129833333Y-28658571D02*
X129880952Y-28563333D01*
X129976190Y-28515714D01*
X130119047Y-28515714D01*
X130214285Y-28563333D01*
X130261904Y-28658571D01*
X130261904Y-29182380D01*
X130738095Y-29182380D02*
X130738095Y-28515714D01*
X130738095Y-28610952D02*
X130785714Y-28563333D01*
X130880952Y-28515714D01*
X131023809Y-28515714D01*
X131119047Y-28563333D01*
X131166666Y-28658571D01*
X131166666Y-29182380D01*
X131166666Y-28658571D02*
X131214285Y-28563333D01*
X131309523Y-28515714D01*
X131452380Y-28515714D01*
X131547619Y-28563333D01*
X131595238Y-28658571D01*
X131595238Y-29182380D01*
D10*
X115000000Y-30000000D02*
X140000000Y-30000000D01*
X115000000Y-45000000D02*
X115000000Y-29413579D01*
X140000000Y-45000000D02*
X140000000Y-29413579D01*
X140000000Y-30000000D02*
X138873496Y-30586421D01*
X140000000Y-30000000D02*
X138873496Y-29413579D01*
X115000000Y-30000000D02*
X116126504Y-30586421D01*
X115000000Y-30000000D02*
X116126504Y-29413579D01*
D11*
X118972380Y-40071428D02*
X118972380Y-40642857D01*
X118972380Y-40357142D02*
X117972380Y-40357142D01*
X118115238Y-40452380D01*
X118210476Y-40547619D01*
X118258095Y-40642857D01*
X117972380Y-39738095D02*
X117972380Y-39071428D01*
X118972380Y-39500000D01*
X118877142Y-38690476D02*
X118924761Y-38642857D01*
X118972380Y-38690476D01*
X118924761Y-38738095D01*
X118877142Y-38690476D01*
X118972380Y-38690476D01*
X117972380Y-38023809D02*
X117972380Y-37928571D01*
X118020000Y-37833333D01*
X118067619Y-37785714D01*
X118162857Y-37738095D01*
X118353333Y-37690476D01*
X118591428Y-37690476D01*
X118781904Y-37738095D01*
X118877142Y-37785714D01*
X118924761Y-37833333D01*
X118972380Y-37928571D01*
X118972380Y-38023809D01*
X118924761Y-38119047D01*
X118877142Y-38166666D01*
X118781904Y-38214285D01*
X118591428Y-38261904D01*
X118353333Y-38261904D01*
X118162857Y-38214285D01*
X118067619Y-38166666D01*
X118020000Y-38119047D01*
X117972380Y-38023809D01*
X117972380Y-37071428D02*
X117972380Y-36976190D01*
X118020000Y-36880952D01*
X118067619Y-36833333D01*
X118162857Y-36785714D01*
X118353333Y-36738095D01*
X118591428Y-36738095D01*
X118781904Y-36785714D01*
X118877142Y-36833333D01*
X118924761Y-36880952D01*
X118972380Y-36976190D01*
X118972380Y-37071428D01*
X118924761Y-37166666D01*
X118877142Y-37214285D01*
X118781904Y-37261904D01*
X118591428Y-37309523D01*
X118353333Y-37309523D01*
X118162857Y-37261904D01*
X118067619Y-37214285D01*
X118020000Y-37166666D01*
X117972380Y-37071428D01*
X117972380Y-36119047D02*
X117972380Y-36023809D01*
X118020000Y-35928571D01*
X118067619Y-35880952D01*
X118162857Y-35833333D01*
X118353333Y-35785714D01*
X118591428Y-35785714D01*
X118781904Y-35833333D01*
X118877142Y-35880952D01*
X118924761Y-35928571D01*
X118972380Y-36023809D01*
X118972380Y-36119047D01*
X118924761Y-36214285D01*
X118877142Y-36261904D01*
X118781904Y-36309523D01*
X118591428Y-36357142D01*
X118353333Y-36357142D01*
X118162857Y-36309523D01*
X118067619Y-36261904D01*
X118020000Y-36214285D01*
X117972380Y-36119047D01*
X118972380Y-34595238D02*
X118305714Y-34595238D01*
X118400952Y-34595238D02*
X118353333Y-34547619D01*
X118305714Y-34452380D01*
X118305714Y-34309523D01*
X118353333Y-34214285D01*
X118448571Y-34166666D01*
X118972380Y-34166666D01*
X118448571Y-34166666D02*
X118353333Y-34119047D01*
X118305714Y-34023809D01*
X118305714Y-33880952D01*
X118353333Y-33785714D01*
X118448571Y-33738095D01*
X118972380Y-33738095D01*
X118972380Y-33261904D02*
X118305714Y-33261904D01*
X118400952Y-33261904D02*
X118353333Y-33214285D01*
X118305714Y-33119047D01*
X118305714Y-32976190D01*
X118353333Y-32880952D01*
X118448571Y-32833333D01*
X118972380Y-32833333D01*
X118448571Y-32833333D02*
X118353333Y-32785714D01*
X118305714Y-32690476D01*
X118305714Y-32547619D01*
X118353333Y-32452380D01*
X118448571Y-32404761D01*
X118972380Y-32404761D01*
D10*
X117250000Y-45000000D02*
X117250000Y-28000000D01*
X115000000Y-45000000D02*
X117836421Y-45000000D01*
X115000000Y-28000000D02*
X117836421Y-28000000D01*
X117250000Y-28000000D02*
X117836421Y-29126504D01*
X117250000Y-28000000D02*
X116663579Y-29126504D01*
X117250000Y-45000000D02*
X117836421Y-43873496D01*
X117250000Y-45000000D02*
X116663579Y-43873496D01*
D11*
X145722380Y-36357142D02*
X145770000Y-36404761D01*
X145817619Y-36500000D01*
X145817619Y-36738095D01*
X145770000Y-36833333D01*
X145722380Y-36880952D01*
X145627142Y-36928571D01*
X145531904Y-36928571D01*
X145389047Y-36880952D01*
X144817619Y-36309523D01*
X144817619Y-36928571D01*
X145817619Y-37833333D02*
X145817619Y-37357142D01*
X145341428Y-37309523D01*
X145389047Y-37357142D01*
X145436666Y-37452380D01*
X145436666Y-37690476D01*
X145389047Y-37785714D01*
X145341428Y-37833333D01*
X145246190Y-37880952D01*
X145008095Y-37880952D01*
X144912857Y-37833333D01*
X144865238Y-37785714D01*
X144817619Y-37690476D01*
X144817619Y-37452380D01*
X144865238Y-37357142D01*
X144912857Y-37309523D01*
X144912857Y-38309523D02*
X144865238Y-38357142D01*
X144817619Y-38309523D01*
X144865238Y-38261904D01*
X144912857Y-38309523D01*
X144817619Y-38309523D01*
X145817619Y-38976190D02*
X145817619Y-39071428D01*
X145770000Y-39166666D01*
X145722380Y-39214285D01*
X145627142Y-39261904D01*
X145436666Y-39309523D01*
X145198571Y-39309523D01*
X145008095Y-39261904D01*
X144912857Y-39214285D01*
X144865238Y-39166666D01*
X144817619Y-39071428D01*
X144817619Y-38976190D01*
X144865238Y-38880952D01*
X144912857Y-38833333D01*
X145008095Y-38785714D01*
X145198571Y-38738095D01*
X145436666Y-38738095D01*
X145627142Y-38785714D01*
X145722380Y-38833333D01*
X145770000Y-38880952D01*
X145817619Y-38976190D01*
X145817619Y-39928571D02*
X145817619Y-40023809D01*
X145770000Y-40119047D01*
X145722380Y-40166666D01*
X145627142Y-40214285D01*
X145436666Y-40261904D01*
X145198571Y-40261904D01*
X145008095Y-40214285D01*
X144912857Y-40166666D01*
X144865238Y-40119047D01*
X144817619Y-40023809D01*
X144817619Y-39928571D01*
X144865238Y-39833333D01*
X144912857Y-39785714D01*
X145008095Y-39738095D01*
X145198571Y-39690476D01*
X145436666Y-39690476D01*
X145627142Y-39738095D01*
X145722380Y-39785714D01*
X145770000Y-39833333D01*
X145817619Y-39928571D01*
X145817619Y-40880952D02*
X145817619Y-40976190D01*
X145770000Y-41071428D01*
X145722380Y-41119047D01*
X145627142Y-41166666D01*
X145436666Y-41214285D01*
X145198571Y-41214285D01*
X145008095Y-41166666D01*
X144912857Y-41119047D01*
X144865238Y-41071428D01*
X144817619Y-40976190D01*
X144817619Y-40880952D01*
X144865238Y-40785714D01*
X144912857Y-40738095D01*
X145008095Y-40690476D01*
X145198571Y-40642857D01*
X145436666Y-40642857D01*
X145627142Y-40690476D01*
X145722380Y-40738095D01*
X145770000Y-40785714D01*
X145817619Y-40880952D01*
X144817619Y-42404761D02*
X145484285Y-42404761D01*
X145389047Y-42404761D02*
X145436666Y-42452380D01*
X145484285Y-42547619D01*
X145484285Y-42690476D01*
X145436666Y-42785714D01*
X145341428Y-42833333D01*
X144817619Y-42833333D01*
X145341428Y-42833333D02*
X145436666Y-42880952D01*
X145484285Y-42976190D01*
X145484285Y-43119047D01*
X145436666Y-43214285D01*
X145341428Y-43261904D01*
X144817619Y-43261904D01*
X144817619Y-43738095D02*
X145484285Y-43738095D01*
X145389047Y-43738095D02*
X145436666Y-43785714D01*
X145484285Y-43880952D01*
X145484285Y-44023809D01*
X145436666Y-44119047D01*
X145341428Y-44166666D01*
X144817619Y-44166666D01*
X145341428Y-44166666D02*
X145436666Y-44214285D01*
X145484285Y-44309523D01*
X145484285Y-44452380D01*
X145436666Y-44547619D01*
X145341428Y-44595238D01*
X144817619Y-44595238D01*
D10*
X144000000Y-28000000D02*
X144000000Y-53000000D01*
X140000000Y-28000000D02*
X144586421Y-28000000D01*
X140000000Y-53000000D02*
X144586421Y-53000000D01*
X144000000Y-53000000D02*
X143413579Y-51873496D01*
X144000000Y-53000000D02*
X144586421Y-51873496D01*
X144000000Y-28000000D02*
X143413579Y-29126504D01*
X144000000Y-28000000D02*
X144586421Y-29126504D01*
D11*
X96857142Y-28277619D02*
X96904761Y-28230000D01*
X97000000Y-28182380D01*
X97238095Y-28182380D01*
X97333333Y-28230000D01*
X97380952Y-28277619D01*
X97428571Y-28372857D01*
X97428571Y-28468095D01*
X97380952Y-28610952D01*
X96809523Y-29182380D01*
X97428571Y-29182380D01*
X98000000Y-28610952D02*
X97904761Y-28563333D01*
X97857142Y-28515714D01*
X97809523Y-28420476D01*
X97809523Y-28372857D01*
X97857142Y-28277619D01*
X97904761Y-28230000D01*
X98000000Y-28182380D01*
X98190476Y-28182380D01*
X98285714Y-28230000D01*
X98333333Y-28277619D01*
X98380952Y-28372857D01*
X98380952Y-28420476D01*
X98333333Y-28515714D01*
X98285714Y-28563333D01*
X98190476Y-28610952D01*
X98000000Y-28610952D01*
X97904761Y-28658571D01*
X97857142Y-28706190D01*
X97809523Y-28801428D01*
X97809523Y-28991904D01*
X97857142Y-29087142D01*
X97904761Y-29134761D01*
X98000000Y-29182380D01*
X98190476Y-29182380D01*
X98285714Y-29134761D01*
X98333333Y-29087142D01*
X98380952Y-28991904D01*
X98380952Y-28801428D01*
X98333333Y-28706190D01*
X98285714Y-28658571D01*
X98190476Y-28610952D01*
X98809523Y-29087142D02*
X98857142Y-29134761D01*
X98809523Y-29182380D01*
X98761904Y-29134761D01*
X98809523Y-29087142D01*
X98809523Y-29182380D01*
X99476190Y-28182380D02*
X99571428Y-28182380D01*
X99666666Y-28230000D01*
X99714285Y-28277619D01*
X99761904Y-28372857D01*
X99809523Y-28563333D01*
X99809523Y-28801428D01*
X99761904Y-28991904D01*
X99714285Y-29087142D01*
X99666666Y-29134761D01*
X99571428Y-29182380D01*
X99476190Y-29182380D01*
X99380952Y-29134761D01*
X99333333Y-29087142D01*
X99285714Y-28991904D01*
X99238095Y-28801428D01*
X99238095Y-28563333D01*
X99285714Y-28372857D01*
X99333333Y-28277619D01*
X99380952Y-28230000D01*
X99476190Y-28182380D01*
X100428571Y-28182380D02*
X100523809Y-28182380D01*
X100619047Y-28230000D01*
X100666666Y-28277619D01*
X100714285Y-28372857D01*
X100761904Y-28563333D01*
X100761904Y-28801428D01*
X100714285Y-28991904D01*
X100666666Y-29087142D01*
X100619047Y-29134761D01*
X100523809Y-29182380D01*
X100428571Y-29182380D01*
X100333333Y-29134761D01*
X100285714Y-29087142D01*
X100238095Y-28991904D01*
X100190476Y-28801428D01*
X100190476Y-28563333D01*
X100238095Y-28372857D01*
X100285714Y-28277619D01*
X100333333Y-28230000D01*
X100428571Y-28182380D01*
X101380952Y-28182380D02*
X101476190Y-28182380D01*
X101571428Y-28230000D01*
X101619047Y-28277619D01*
X101666666Y-28372857D01*
X101714285Y-28563333D01*
X101714285Y-28801428D01*
X101666666Y-28991904D01*
X101619047Y-29087142D01*
X101571428Y-29134761D01*
X101476190Y-29182380D01*
X101380952Y-29182380D01*
X101285714Y-29134761D01*
X101238095Y-29087142D01*
X101190476Y-28991904D01*
X101142857Y-28801428D01*
X101142857Y-28563333D01*
X101190476Y-28372857D01*
X101238095Y-28277619D01*
X101285714Y-28230000D01*
X101380952Y-28182380D01*
X102904761Y-29182380D02*
X102904761Y-28515714D01*
X102904761Y-28610952D02*
X102952380Y-28563333D01*
X103047619Y-28515714D01*
X103190476Y-28515714D01*
X103285714Y-28563333D01*
X103333333Y-28658571D01*
X103333333Y-29182380D01*
X103333333Y-28658571D02*
X103380952Y-28563333D01*
X103476190Y-28515714D01*
X103619047Y-28515714D01*
X103714285Y-28563333D01*
X103761904Y-28658571D01*
X103761904Y-29182380D01*
X104238095Y-29182380D02*
X104238095Y-28515714D01*
X104238095Y-28610952D02*
X104285714Y-28563333D01*
X104380952Y-28515714D01*
X104523809Y-28515714D01*
X104619047Y-28563333D01*
X104666666Y-28658571D01*
X104666666Y-29182380D01*
X104666666Y-28658571D02*
X104714285Y-28563333D01*
X104809523Y-28515714D01*
X104952380Y-28515714D01*
X105047619Y-28563333D01*
X105095238Y-28658571D01*
X105095238Y-29182380D01*
D10*
X87000000Y-30000000D02*
X115000000Y-30000000D01*
X87000000Y-45000000D02*
X87000000Y-29413579D01*
X115000000Y-45000000D02*
X115000000Y-29413579D01*
X115000000Y-30000000D02*
X113873496Y-30586421D01*
X115000000Y-30000000D02*
X113873496Y-29413579D01*
X87000000Y-30000000D02*
X88126504Y-30586421D01*
X87000000Y-30000000D02*
X88126504Y-29413579D01*
D11*
X68857142Y-28277619D02*
X68904761Y-28230000D01*
X69000000Y-28182380D01*
X69238095Y-28182380D01*
X69333333Y-28230000D01*
X69380952Y-28277619D01*
X69428571Y-28372857D01*
X69428571Y-28468095D01*
X69380952Y-28610952D01*
X68809523Y-29182380D01*
X69428571Y-29182380D01*
X70000000Y-28610952D02*
X69904761Y-28563333D01*
X69857142Y-28515714D01*
X69809523Y-28420476D01*
X69809523Y-28372857D01*
X69857142Y-28277619D01*
X69904761Y-28230000D01*
X70000000Y-28182380D01*
X70190476Y-28182380D01*
X70285714Y-28230000D01*
X70333333Y-28277619D01*
X70380952Y-28372857D01*
X70380952Y-28420476D01*
X70333333Y-28515714D01*
X70285714Y-28563333D01*
X70190476Y-28610952D01*
X70000000Y-28610952D01*
X69904761Y-28658571D01*
X69857142Y-28706190D01*
X69809523Y-28801428D01*
X69809523Y-28991904D01*
X69857142Y-29087142D01*
X69904761Y-29134761D01*
X70000000Y-29182380D01*
X70190476Y-29182380D01*
X70285714Y-29134761D01*
X70333333Y-29087142D01*
X70380952Y-28991904D01*
X70380952Y-28801428D01*
X70333333Y-28706190D01*
X70285714Y-28658571D01*
X70190476Y-28610952D01*
X70809523Y-29087142D02*
X70857142Y-29134761D01*
X70809523Y-29182380D01*
X70761904Y-29134761D01*
X70809523Y-29087142D01*
X70809523Y-29182380D01*
X71476190Y-28182380D02*
X71571428Y-28182380D01*
X71666666Y-28230000D01*
X71714285Y-28277619D01*
X71761904Y-28372857D01*
X71809523Y-28563333D01*
X71809523Y-28801428D01*
X71761904Y-28991904D01*
X71714285Y-29087142D01*
X71666666Y-29134761D01*
X71571428Y-29182380D01*
X71476190Y-29182380D01*
X71380952Y-29134761D01*
X71333333Y-29087142D01*
X71285714Y-28991904D01*
X71238095Y-28801428D01*
X71238095Y-28563333D01*
X71285714Y-28372857D01*
X71333333Y-28277619D01*
X71380952Y-28230000D01*
X71476190Y-28182380D01*
X72428571Y-28182380D02*
X72523809Y-28182380D01*
X72619047Y-28230000D01*
X72666666Y-28277619D01*
X72714285Y-28372857D01*
X72761904Y-28563333D01*
X72761904Y-28801428D01*
X72714285Y-28991904D01*
X72666666Y-29087142D01*
X72619047Y-29134761D01*
X72523809Y-29182380D01*
X72428571Y-29182380D01*
X72333333Y-29134761D01*
X72285714Y-29087142D01*
X72238095Y-28991904D01*
X72190476Y-28801428D01*
X72190476Y-28563333D01*
X72238095Y-28372857D01*
X72285714Y-28277619D01*
X72333333Y-28230000D01*
X72428571Y-28182380D01*
X73380952Y-28182380D02*
X73476190Y-28182380D01*
X73571428Y-28230000D01*
X73619047Y-28277619D01*
X73666666Y-28372857D01*
X73714285Y-28563333D01*
X73714285Y-28801428D01*
X73666666Y-28991904D01*
X73619047Y-29087142D01*
X73571428Y-29134761D01*
X73476190Y-29182380D01*
X73380952Y-29182380D01*
X73285714Y-29134761D01*
X73238095Y-29087142D01*
X73190476Y-28991904D01*
X73142857Y-28801428D01*
X73142857Y-28563333D01*
X73190476Y-28372857D01*
X73238095Y-28277619D01*
X73285714Y-28230000D01*
X73380952Y-28182380D01*
X74904761Y-29182380D02*
X74904761Y-28515714D01*
X74904761Y-28610952D02*
X74952380Y-28563333D01*
X75047619Y-28515714D01*
X75190476Y-28515714D01*
X75285714Y-28563333D01*
X75333333Y-28658571D01*
X75333333Y-29182380D01*
X75333333Y-28658571D02*
X75380952Y-28563333D01*
X75476190Y-28515714D01*
X75619047Y-28515714D01*
X75714285Y-28563333D01*
X75761904Y-28658571D01*
X75761904Y-29182380D01*
X76238095Y-29182380D02*
X76238095Y-28515714D01*
X76238095Y-28610952D02*
X76285714Y-28563333D01*
X76380952Y-28515714D01*
X76523809Y-28515714D01*
X76619047Y-28563333D01*
X76666666Y-28658571D01*
X76666666Y-29182380D01*
X76666666Y-28658571D02*
X76714285Y-28563333D01*
X76809523Y-28515714D01*
X76952380Y-28515714D01*
X77047619Y-28563333D01*
X77095238Y-28658571D01*
X77095238Y-29182380D01*
D10*
X59000000Y-30000000D02*
X87000000Y-30000000D01*
X59000000Y-45000000D02*
X59000000Y-29413579D01*
X87000000Y-45000000D02*
X87000000Y-29413579D01*
X87000000Y-30000000D02*
X85873496Y-30586421D01*
X87000000Y-30000000D02*
X85873496Y-29413579D01*
X59000000Y-30000000D02*
X60126504Y-30586421D01*
X59000000Y-30000000D02*
X60126504Y-29413579D01*
D11*
X147817619Y-41309523D02*
X147817619Y-41928571D01*
X147436666Y-41595238D01*
X147436666Y-41738095D01*
X147389047Y-41833333D01*
X147341428Y-41880952D01*
X147246190Y-41928571D01*
X147008095Y-41928571D01*
X146912857Y-41880952D01*
X146865238Y-41833333D01*
X146817619Y-41738095D01*
X146817619Y-41452380D01*
X146865238Y-41357142D01*
X146912857Y-41309523D01*
X147817619Y-42833333D02*
X147817619Y-42357142D01*
X147341428Y-42309523D01*
X147389047Y-42357142D01*
X147436666Y-42452380D01*
X147436666Y-42690476D01*
X147389047Y-42785714D01*
X147341428Y-42833333D01*
X147246190Y-42880952D01*
X147008095Y-42880952D01*
X146912857Y-42833333D01*
X146865238Y-42785714D01*
X146817619Y-42690476D01*
X146817619Y-42452380D01*
X146865238Y-42357142D01*
X146912857Y-42309523D01*
X146912857Y-43309523D02*
X146865238Y-43357142D01*
X146817619Y-43309523D01*
X146865238Y-43261904D01*
X146912857Y-43309523D01*
X146817619Y-43309523D01*
X147817619Y-43976190D02*
X147817619Y-44071428D01*
X147770000Y-44166666D01*
X147722380Y-44214285D01*
X147627142Y-44261904D01*
X147436666Y-44309523D01*
X147198571Y-44309523D01*
X147008095Y-44261904D01*
X146912857Y-44214285D01*
X146865238Y-44166666D01*
X146817619Y-44071428D01*
X146817619Y-43976190D01*
X146865238Y-43880952D01*
X146912857Y-43833333D01*
X147008095Y-43785714D01*
X147198571Y-43738095D01*
X147436666Y-43738095D01*
X147627142Y-43785714D01*
X147722380Y-43833333D01*
X147770000Y-43880952D01*
X147817619Y-43976190D01*
X147817619Y-44928571D02*
X147817619Y-45023809D01*
X147770000Y-45119047D01*
X147722380Y-45166666D01*
X147627142Y-45214285D01*
X147436666Y-45261904D01*
X147198571Y-45261904D01*
X147008095Y-45214285D01*
X146912857Y-45166666D01*
X146865238Y-45119047D01*
X146817619Y-45023809D01*
X146817619Y-44928571D01*
X146865238Y-44833333D01*
X146912857Y-44785714D01*
X147008095Y-44738095D01*
X147198571Y-44690476D01*
X147436666Y-44690476D01*
X147627142Y-44738095D01*
X147722380Y-44785714D01*
X147770000Y-44833333D01*
X147817619Y-44928571D01*
X147817619Y-45880952D02*
X147817619Y-45976190D01*
X147770000Y-46071428D01*
X147722380Y-46119047D01*
X147627142Y-46166666D01*
X147436666Y-46214285D01*
X147198571Y-46214285D01*
X147008095Y-46166666D01*
X146912857Y-46119047D01*
X146865238Y-46071428D01*
X146817619Y-45976190D01*
X146817619Y-45880952D01*
X146865238Y-45785714D01*
X146912857Y-45738095D01*
X147008095Y-45690476D01*
X147198571Y-45642857D01*
X147436666Y-45642857D01*
X147627142Y-45690476D01*
X147722380Y-45738095D01*
X147770000Y-45785714D01*
X147817619Y-45880952D01*
X146817619Y-47404761D02*
X147484285Y-47404761D01*
X147389047Y-47404761D02*
X147436666Y-47452380D01*
X147484285Y-47547619D01*
X147484285Y-47690476D01*
X147436666Y-47785714D01*
X147341428Y-47833333D01*
X146817619Y-47833333D01*
X147341428Y-47833333D02*
X147436666Y-47880952D01*
X147484285Y-47976190D01*
X147484285Y-48119047D01*
X147436666Y-48214285D01*
X147341428Y-48261904D01*
X146817619Y-48261904D01*
X146817619Y-48738095D02*
X147484285Y-48738095D01*
X147389047Y-48738095D02*
X147436666Y-48785714D01*
X147484285Y-48880952D01*
X147484285Y-49023809D01*
X147436666Y-49119047D01*
X147341428Y-49166666D01*
X146817619Y-49166666D01*
X147341428Y-49166666D02*
X147436666Y-49214285D01*
X147484285Y-49309523D01*
X147484285Y-49452380D01*
X147436666Y-49547619D01*
X147341428Y-49595238D01*
X146817619Y-49595238D01*
D10*
X146000000Y-28000000D02*
X146000000Y-63000000D01*
X140000000Y-28000000D02*
X146586421Y-28000000D01*
X140000000Y-63000000D02*
X146586421Y-63000000D01*
X146000000Y-63000000D02*
X145413579Y-61873496D01*
X146000000Y-63000000D02*
X146586421Y-61873496D01*
X146000000Y-28000000D02*
X145413579Y-29126504D01*
X146000000Y-28000000D02*
X146586421Y-29126504D01*
D11*
X93547619Y-22610952D02*
X93452380Y-22563333D01*
X93404761Y-22515714D01*
X93357142Y-22420476D01*
X93357142Y-22372857D01*
X93404761Y-22277619D01*
X93452380Y-22230000D01*
X93547619Y-22182380D01*
X93738095Y-22182380D01*
X93833333Y-22230000D01*
X93880952Y-22277619D01*
X93928571Y-22372857D01*
X93928571Y-22420476D01*
X93880952Y-22515714D01*
X93833333Y-22563333D01*
X93738095Y-22610952D01*
X93547619Y-22610952D01*
X93452380Y-22658571D01*
X93404761Y-22706190D01*
X93357142Y-22801428D01*
X93357142Y-22991904D01*
X93404761Y-23087142D01*
X93452380Y-23134761D01*
X93547619Y-23182380D01*
X93738095Y-23182380D01*
X93833333Y-23134761D01*
X93880952Y-23087142D01*
X93928571Y-22991904D01*
X93928571Y-22801428D01*
X93880952Y-22706190D01*
X93833333Y-22658571D01*
X93738095Y-22610952D01*
X94833333Y-22182380D02*
X94357142Y-22182380D01*
X94309523Y-22658571D01*
X94357142Y-22610952D01*
X94452380Y-22563333D01*
X94690476Y-22563333D01*
X94785714Y-22610952D01*
X94833333Y-22658571D01*
X94880952Y-22753809D01*
X94880952Y-22991904D01*
X94833333Y-23087142D01*
X94785714Y-23134761D01*
X94690476Y-23182380D01*
X94452380Y-23182380D01*
X94357142Y-23134761D01*
X94309523Y-23087142D01*
X95309523Y-23087142D02*
X95357142Y-23134761D01*
X95309523Y-23182380D01*
X95261904Y-23134761D01*
X95309523Y-23087142D01*
X95309523Y-23182380D01*
X95976190Y-22182380D02*
X96071428Y-22182380D01*
X96166666Y-22230000D01*
X96214285Y-22277619D01*
X96261904Y-22372857D01*
X96309523Y-22563333D01*
X96309523Y-22801428D01*
X96261904Y-22991904D01*
X96214285Y-23087142D01*
X96166666Y-23134761D01*
X96071428Y-23182380D01*
X95976190Y-23182380D01*
X95880952Y-23134761D01*
X95833333Y-23087142D01*
X95785714Y-22991904D01*
X95738095Y-22801428D01*
X95738095Y-22563333D01*
X95785714Y-22372857D01*
X95833333Y-22277619D01*
X95880952Y-22230000D01*
X95976190Y-22182380D01*
X96928571Y-22182380D02*
X97023809Y-22182380D01*
X97119047Y-22230000D01*
X97166666Y-22277619D01*
X97214285Y-22372857D01*
X97261904Y-22563333D01*
X97261904Y-22801428D01*
X97214285Y-22991904D01*
X97166666Y-23087142D01*
X97119047Y-23134761D01*
X97023809Y-23182380D01*
X96928571Y-23182380D01*
X96833333Y-23134761D01*
X96785714Y-23087142D01*
X96738095Y-22991904D01*
X96690476Y-22801428D01*
X96690476Y-22563333D01*
X96738095Y-22372857D01*
X96785714Y-22277619D01*
X96833333Y-22230000D01*
X96928571Y-22182380D01*
X97880952Y-22182380D02*
X97976190Y-22182380D01*
X98071428Y-22230000D01*
X98119047Y-22277619D01*
X98166666Y-22372857D01*
X98214285Y-22563333D01*
X98214285Y-22801428D01*
X98166666Y-22991904D01*
X98119047Y-23087142D01*
X98071428Y-23134761D01*
X97976190Y-23182380D01*
X97880952Y-23182380D01*
X97785714Y-23134761D01*
X97738095Y-23087142D01*
X97690476Y-22991904D01*
X97642857Y-22801428D01*
X97642857Y-22563333D01*
X97690476Y-22372857D01*
X97738095Y-22277619D01*
X97785714Y-22230000D01*
X97880952Y-22182380D01*
X99404761Y-23182380D02*
X99404761Y-22515714D01*
X99404761Y-22610952D02*
X99452380Y-22563333D01*
X99547619Y-22515714D01*
X99690476Y-22515714D01*
X99785714Y-22563333D01*
X99833333Y-22658571D01*
X99833333Y-23182380D01*
X99833333Y-22658571D02*
X99880952Y-22563333D01*
X99976190Y-22515714D01*
X100119047Y-22515714D01*
X100214285Y-22563333D01*
X100261904Y-22658571D01*
X100261904Y-23182380D01*
X100738095Y-23182380D02*
X100738095Y-22515714D01*
X100738095Y-22610952D02*
X100785714Y-22563333D01*
X100880952Y-22515714D01*
X101023809Y-22515714D01*
X101119047Y-22563333D01*
X101166666Y-22658571D01*
X101166666Y-23182380D01*
X101166666Y-22658571D02*
X101214285Y-22563333D01*
X101309523Y-22515714D01*
X101452380Y-22515714D01*
X101547619Y-22563333D01*
X101595238Y-22658571D01*
X101595238Y-23182380D01*
D10*
X140000000Y-24000000D02*
X55000000Y-24000000D01*
X140000000Y-28000000D02*
X140000000Y-23413579D01*
X55000000Y-28000000D02*
X55000000Y-23413579D01*
X55000000Y-24000000D02*
X56126504Y-23413579D01*
X55000000Y-24000000D02*
X56126504Y-24586421D01*
X140000000Y-24000000D02*
X138873496Y-23413579D01*
X140000000Y-24000000D02*
X138873496Y-24586421D01*
D11*
X85952380Y-17682380D02*
X85380952Y-17682380D01*
X85666666Y-17682380D02*
X85666666Y-16682380D01*
X85571428Y-16825238D01*
X85476190Y-16920476D01*
X85380952Y-16968095D01*
X86571428Y-16682380D02*
X86666666Y-16682380D01*
X86761904Y-16730000D01*
X86809523Y-16777619D01*
X86857142Y-16872857D01*
X86904761Y-17063333D01*
X86904761Y-17301428D01*
X86857142Y-17491904D01*
X86809523Y-17587142D01*
X86761904Y-17634761D01*
X86666666Y-17682380D01*
X86571428Y-17682380D01*
X86476190Y-17634761D01*
X86428571Y-17587142D01*
X86380952Y-17491904D01*
X86333333Y-17301428D01*
X86333333Y-17063333D01*
X86380952Y-16872857D01*
X86428571Y-16777619D01*
X86476190Y-16730000D01*
X86571428Y-16682380D01*
X87523809Y-16682380D02*
X87619047Y-16682380D01*
X87714285Y-16730000D01*
X87761904Y-16777619D01*
X87809523Y-16872857D01*
X87857142Y-17063333D01*
X87857142Y-17301428D01*
X87809523Y-17491904D01*
X87761904Y-17587142D01*
X87714285Y-17634761D01*
X87619047Y-17682380D01*
X87523809Y-17682380D01*
X87428571Y-17634761D01*
X87380952Y-17587142D01*
X87333333Y-17491904D01*
X87285714Y-17301428D01*
X87285714Y-17063333D01*
X87333333Y-16872857D01*
X87380952Y-16777619D01*
X87428571Y-16730000D01*
X87523809Y-16682380D01*
X88285714Y-17587142D02*
X88333333Y-17634761D01*
X88285714Y-17682380D01*
X88238095Y-17634761D01*
X88285714Y-17587142D01*
X88285714Y-17682380D01*
X88952380Y-16682380D02*
X89047619Y-16682380D01*
X89142857Y-16730000D01*
X89190476Y-16777619D01*
X89238095Y-16872857D01*
X89285714Y-17063333D01*
X89285714Y-17301428D01*
X89238095Y-17491904D01*
X89190476Y-17587142D01*
X89142857Y-17634761D01*
X89047619Y-17682380D01*
X88952380Y-17682380D01*
X88857142Y-17634761D01*
X88809523Y-17587142D01*
X88761904Y-17491904D01*
X88714285Y-17301428D01*
X88714285Y-17063333D01*
X88761904Y-16872857D01*
X88809523Y-16777619D01*
X88857142Y-16730000D01*
X88952380Y-16682380D01*
X89904761Y-16682380D02*
X90000000Y-16682380D01*
X90095238Y-16730000D01*
X90142857Y-16777619D01*
X90190476Y-16872857D01*
X90238095Y-17063333D01*
X90238095Y-17301428D01*
X90190476Y-17491904D01*
X90142857Y-17587142D01*
X90095238Y-17634761D01*
X90000000Y-17682380D01*
X89904761Y-17682380D01*
X89809523Y-17634761D01*
X89761904Y-17587142D01*
X89714285Y-17491904D01*
X89666666Y-17301428D01*
X89666666Y-17063333D01*
X89714285Y-16872857D01*
X89761904Y-16777619D01*
X89809523Y-16730000D01*
X89904761Y-16682380D01*
X90857142Y-16682380D02*
X90952380Y-16682380D01*
X91047619Y-16730000D01*
X91095238Y-16777619D01*
X91142857Y-16872857D01*
X91190476Y-17063333D01*
X91190476Y-17301428D01*
X91142857Y-17491904D01*
X91095238Y-17587142D01*
X91047619Y-17634761D01*
X90952380Y-17682380D01*
X90857142Y-17682380D01*
X90761904Y-17634761D01*
X90714285Y-17587142D01*
X90666666Y-17491904D01*
X90619047Y-17301428D01*
X90619047Y-17063333D01*
X90666666Y-16872857D01*
X90714285Y-16777619D01*
X90761904Y-16730000D01*
X90857142Y-16682380D01*
X92380952Y-17682380D02*
X92380952Y-17015714D01*
X92380952Y-17110952D02*
X92428571Y-17063333D01*
X92523809Y-17015714D01*
X92666666Y-17015714D01*
X92761904Y-17063333D01*
X92809523Y-17158571D01*
X92809523Y-17682380D01*
X92809523Y-17158571D02*
X92857142Y-17063333D01*
X92952380Y-17015714D01*
X93095238Y-17015714D01*
X93190476Y-17063333D01*
X93238095Y-17158571D01*
X93238095Y-17682380D01*
X93714285Y-17682380D02*
X93714285Y-17015714D01*
X93714285Y-17110952D02*
X93761904Y-17063333D01*
X93857142Y-17015714D01*
X94000000Y-17015714D01*
X94095238Y-17063333D01*
X94142857Y-17158571D01*
X94142857Y-17682380D01*
X94142857Y-17158571D02*
X94190476Y-17063333D01*
X94285714Y-17015714D01*
X94428571Y-17015714D01*
X94523809Y-17063333D01*
X94571428Y-17158571D01*
X94571428Y-17682380D01*
D10*
X140000000Y-18500000D02*
X40000000Y-18500000D01*
X140000000Y-28000000D02*
X140000000Y-17913579D01*
X40000000Y-28000000D02*
X40000000Y-17913579D01*
X40000000Y-18500000D02*
X41126504Y-17913579D01*
X40000000Y-18500000D02*
X41126504Y-19086421D01*
X140000000Y-18500000D02*
X138873496Y-17913579D01*
X140000000Y-18500000D02*
X138873496Y-19086421D01*
D11*
X149722380Y-56619047D02*
X149722380Y-57095238D01*
X150198571Y-57142857D01*
X150150952Y-57095238D01*
X150103333Y-57000000D01*
X150103333Y-56761904D01*
X150150952Y-56666666D01*
X150198571Y-56619047D01*
X150293809Y-56571428D01*
X150531904Y-56571428D01*
X150627142Y-56619047D01*
X150674761Y-56666666D01*
X150722380Y-56761904D01*
X150722380Y-57000000D01*
X150674761Y-57095238D01*
X150627142Y-57142857D01*
X149722380Y-55952380D02*
X149722380Y-55857142D01*
X149770000Y-55761904D01*
X149817619Y-55714285D01*
X149912857Y-55666666D01*
X150103333Y-55619047D01*
X150341428Y-55619047D01*
X150531904Y-55666666D01*
X150627142Y-55714285D01*
X150674761Y-55761904D01*
X150722380Y-55857142D01*
X150722380Y-55952380D01*
X150674761Y-56047619D01*
X150627142Y-56095238D01*
X150531904Y-56142857D01*
X150341428Y-56190476D01*
X150103333Y-56190476D01*
X149912857Y-56142857D01*
X149817619Y-56095238D01*
X149770000Y-56047619D01*
X149722380Y-55952380D01*
X150627142Y-55190476D02*
X150674761Y-55142857D01*
X150722380Y-55190476D01*
X150674761Y-55238095D01*
X150627142Y-55190476D01*
X150722380Y-55190476D01*
X149722380Y-54523809D02*
X149722380Y-54428571D01*
X149770000Y-54333333D01*
X149817619Y-54285714D01*
X149912857Y-54238095D01*
X150103333Y-54190476D01*
X150341428Y-54190476D01*
X150531904Y-54238095D01*
X150627142Y-54285714D01*
X150674761Y-54333333D01*
X150722380Y-54428571D01*
X150722380Y-54523809D01*
X150674761Y-54619047D01*
X150627142Y-54666666D01*
X150531904Y-54714285D01*
X150341428Y-54761904D01*
X150103333Y-54761904D01*
X149912857Y-54714285D01*
X149817619Y-54666666D01*
X149770000Y-54619047D01*
X149722380Y-54523809D01*
X149722380Y-53571428D02*
X149722380Y-53476190D01*
X149770000Y-53380952D01*
X149817619Y-53333333D01*
X149912857Y-53285714D01*
X150103333Y-53238095D01*
X150341428Y-53238095D01*
X150531904Y-53285714D01*
X150627142Y-53333333D01*
X150674761Y-53380952D01*
X150722380Y-53476190D01*
X150722380Y-53571428D01*
X150674761Y-53666666D01*
X150627142Y-53714285D01*
X150531904Y-53761904D01*
X150341428Y-53809523D01*
X150103333Y-53809523D01*
X149912857Y-53761904D01*
X149817619Y-53714285D01*
X149770000Y-53666666D01*
X149722380Y-53571428D01*
X149722380Y-52619047D02*
X149722380Y-52523809D01*
X149770000Y-52428571D01*
X149817619Y-52380952D01*
X149912857Y-52333333D01*
X150103333Y-52285714D01*
X150341428Y-52285714D01*
X150531904Y-52333333D01*
X150627142Y-52380952D01*
X150674761Y-52428571D01*
X150722380Y-52523809D01*
X150722380Y-52619047D01*
X150674761Y-52714285D01*
X150627142Y-52761904D01*
X150531904Y-52809523D01*
X150341428Y-52857142D01*
X150103333Y-52857142D01*
X149912857Y-52809523D01*
X149817619Y-52761904D01*
X149770000Y-52714285D01*
X149722380Y-52619047D01*
X150722380Y-51095238D02*
X150055714Y-51095238D01*
X150150952Y-51095238D02*
X150103333Y-51047619D01*
X150055714Y-50952380D01*
X150055714Y-50809523D01*
X150103333Y-50714285D01*
X150198571Y-50666666D01*
X150722380Y-50666666D01*
X150198571Y-50666666D02*
X150103333Y-50619047D01*
X150055714Y-50523809D01*
X150055714Y-50380952D01*
X150103333Y-50285714D01*
X150198571Y-50238095D01*
X150722380Y-50238095D01*
X150722380Y-49761904D02*
X150055714Y-49761904D01*
X150150952Y-49761904D02*
X150103333Y-49714285D01*
X150055714Y-49619047D01*
X150055714Y-49476190D01*
X150103333Y-49380952D01*
X150198571Y-49333333D01*
X150722380Y-49333333D01*
X150198571Y-49333333D02*
X150103333Y-49285714D01*
X150055714Y-49190476D01*
X150055714Y-49047619D01*
X150103333Y-48952380D01*
X150198571Y-48904761D01*
X150722380Y-48904761D01*
D10*
X149000000Y-28000000D02*
X149000000Y-78000000D01*
X140000000Y-28000000D02*
X149586421Y-28000000D01*
X140000000Y-78000000D02*
X149586421Y-78000000D01*
X149000000Y-78000000D02*
X148413579Y-76873496D01*
X149000000Y-78000000D02*
X149586421Y-76873496D01*
X149000000Y-28000000D02*
X148413579Y-29126504D01*
X149000000Y-28000000D02*
X149586421Y-29126504D01*
X92510000Y-67965000D02*
X91707530Y-67965000D01*
X91092470Y-67965000D02*
X90290000Y-67965000D01*
X92510000Y-70440000D02*
X92510000Y-67965000D01*
X90290000Y-70440000D02*
X90290000Y-67965000D01*
X92510000Y-70440000D02*
X91963471Y-70440000D01*
X90836529Y-70440000D02*
X90290000Y-70440000D01*
X92510000Y-71200000D02*
X92510000Y-71960000D01*
X92510000Y-71960000D02*
X91400000Y-71960000D01*
X60585000Y-69765000D02*
X58300000Y-69765000D01*
X60585000Y-71235000D02*
X60585000Y-69765000D01*
X58300000Y-71235000D02*
X60585000Y-71235000D01*
X62065000Y-71415000D02*
X62065000Y-73700000D01*
X63535000Y-71415000D02*
X62065000Y-71415000D01*
X63535000Y-73700000D02*
X63535000Y-71415000D01*
X45565000Y-73215000D02*
X45565000Y-75500000D01*
X47035000Y-73215000D02*
X45565000Y-73215000D01*
X47035000Y-75500000D02*
X47035000Y-73215000D01*
X48685000Y-68665000D02*
X46400000Y-68665000D01*
X48685000Y-70135000D02*
X48685000Y-68665000D01*
X46400000Y-70135000D02*
X48685000Y-70135000D01*
X54810000Y-72837221D02*
X54810000Y-73162779D01*
X53790000Y-72837221D02*
X53790000Y-73162779D01*
X66862779Y-71690000D02*
X66537221Y-71690000D01*
X66862779Y-72710000D02*
X66537221Y-72710000D01*
X72962779Y-72490000D02*
X72637221Y-72490000D01*
X72962779Y-73510000D02*
X72637221Y-73510000D01*
X69862779Y-71690000D02*
X69537221Y-71690000D01*
X69862779Y-72710000D02*
X69537221Y-72710000D01*
X108710000Y-75550279D02*
X108710000Y-75224721D01*
X107690000Y-75550279D02*
X107690000Y-75224721D01*
X107690000Y-71037221D02*
X107690000Y-71362779D01*
X108710000Y-71037221D02*
X108710000Y-71362779D01*
X113910000Y-72362779D02*
X113910000Y-72037221D01*
X112890000Y-72362779D02*
X112890000Y-72037221D01*
X109140000Y-71500000D02*
X109140000Y-73950000D01*
X112360000Y-73300000D02*
X112360000Y-71500000D01*
X75258578Y-44540000D02*
X74741422Y-44540000D01*
X75258578Y-45960000D02*
X74741422Y-45960000D01*
X103008578Y-44040000D02*
X102491422Y-44040000D01*
X103008578Y-45460000D02*
X102491422Y-45460000D01*
X129758578Y-44040000D02*
X129241422Y-44040000D01*
X129758578Y-45460000D02*
X129241422Y-45460000D01*
X138375279Y-67990000D02*
X138049721Y-67990000D01*
X138375279Y-69010000D02*
X138049721Y-69010000D01*
X74790000Y-42491422D02*
X74790000Y-43008578D01*
X76210000Y-42491422D02*
X76210000Y-43008578D01*
X102540000Y-41991422D02*
X102540000Y-42508578D01*
X103960000Y-41991422D02*
X103960000Y-42508578D01*
X130710000Y-41991422D02*
X130710000Y-42508578D01*
X129290000Y-41991422D02*
X129290000Y-42508578D01*
X69537221Y-74210000D02*
X69862779Y-74210000D01*
X69537221Y-73190000D02*
X69862779Y-73190000D01*
X66537221Y-74210000D02*
X66862779Y-74210000D01*
X66537221Y-73190000D02*
X66862779Y-73190000D01*
X64910000Y-73062779D02*
X64910000Y-72737221D01*
X63890000Y-73062779D02*
X63890000Y-72737221D01*
X104350000Y-76860000D02*
X106800000Y-76860000D01*
X106150000Y-73640000D02*
X104350000Y-73640000D01*
X55590000Y-72837221D02*
X55590000Y-73162779D01*
X56610000Y-72837221D02*
X56610000Y-73162779D01*
X57090000Y-72824721D02*
X57090000Y-73150279D01*
X58110000Y-72824721D02*
X58110000Y-73150279D01*
X60790000Y-72649721D02*
X60790000Y-72975279D01*
X61810000Y-72649721D02*
X61810000Y-72975279D01*
X48410000Y-74862779D02*
X48410000Y-74537221D01*
X47390000Y-74862779D02*
X47390000Y-74537221D01*
X114450000Y-70650000D02*
X114450000Y-75750000D01*
X119550000Y-70650000D02*
X119550000Y-75750000D01*
X136640000Y-36397936D02*
X136640000Y-37602064D01*
X139360000Y-36397936D02*
X139360000Y-37602064D01*
X110140000Y-36397936D02*
X110140000Y-37602064D01*
X112860000Y-36397936D02*
X112860000Y-37602064D01*
X82640000Y-36897936D02*
X82640000Y-38102064D01*
X85360000Y-36897936D02*
X85360000Y-38102064D01*
X133250000Y-57500000D02*
X139750000Y-57500000D01*
X133250000Y-67500000D02*
X133250000Y-57500000D01*
X139750000Y-67500000D02*
X133250000Y-67500000D01*
X139750000Y-57500000D02*
X139750000Y-67500000D01*
X52770000Y-77210000D02*
X52770000Y-76100000D01*
X53530000Y-77210000D02*
X52770000Y-77210000D01*
X54290000Y-75536529D02*
X54290000Y-74990000D01*
X54290000Y-77210000D02*
X54290000Y-76663471D01*
X54290000Y-74990000D02*
X58035000Y-74990000D01*
X54290000Y-77210000D02*
X58035000Y-77210000D01*
X58035000Y-75792470D02*
X58035000Y-74990000D01*
X58035000Y-77210000D02*
X58035000Y-76407530D01*
X76710000Y-74450279D02*
X76710000Y-74124721D01*
X75690000Y-74450279D02*
X75690000Y-74124721D01*
X64700000Y-77310000D02*
X64700000Y-76200000D01*
X65460000Y-77310000D02*
X64700000Y-77310000D01*
X66220000Y-75636529D02*
X66220000Y-75090000D01*
X66220000Y-77310000D02*
X66220000Y-76763471D01*
X66220000Y-75090000D02*
X71235000Y-75090000D01*
X66220000Y-77310000D02*
X71235000Y-77310000D01*
X71235000Y-75892470D02*
X71235000Y-75090000D01*
X71235000Y-77310000D02*
X71235000Y-76507530D01*
X78650000Y-53750000D02*
X78650000Y-51200000D01*
X80350000Y-53750000D02*
X80350000Y-51200000D01*
X78650000Y-53750000D02*
X80350000Y-53750000D01*
X68750000Y-42900000D02*
X71300000Y-42900000D01*
X68750000Y-44600000D02*
X71300000Y-44600000D01*
X68750000Y-42900000D02*
X68750000Y-44600000D01*
X105650000Y-53300000D02*
X105650000Y-50750000D01*
X107350000Y-53300000D02*
X107350000Y-50750000D01*
X105650000Y-53300000D02*
X107350000Y-53300000D01*
X96500000Y-42650000D02*
X99050000Y-42650000D01*
X96500000Y-44350000D02*
X99050000Y-44350000D01*
X96500000Y-42650000D02*
X96500000Y-44350000D01*
X132400000Y-53000000D02*
X132400000Y-50450000D01*
X134100000Y-53000000D02*
X134100000Y-50450000D01*
X132400000Y-53000000D02*
X134100000Y-53000000D01*
X123250000Y-42650000D02*
X125800000Y-42650000D01*
X123250000Y-44350000D02*
X125800000Y-44350000D01*
X123250000Y-42650000D02*
X123250000Y-44350000D01*
X75610000Y-48720000D02*
X76710000Y-48720000D01*
X75610000Y-46910000D02*
X75610000Y-48720000D01*
X74110000Y-46910000D02*
X75610000Y-46910000D01*
X75610000Y-55500000D02*
X80735000Y-55500000D01*
X75610000Y-57310000D02*
X75610000Y-55500000D01*
X74110000Y-57310000D02*
X75610000Y-57310000D01*
X50479646Y-66375000D02*
X50479646Y-65375000D01*
X50979646Y-65875000D02*
X49979646Y-65875000D01*
X40419000Y-63599000D02*
X40419000Y-62401000D01*
X40459000Y-63862000D02*
X40459000Y-62138000D01*
X40499000Y-64062000D02*
X40499000Y-61938000D01*
X40539000Y-64230000D02*
X40539000Y-61770000D01*
X40579000Y-64378000D02*
X40579000Y-61622000D01*
X40619000Y-64510000D02*
X40619000Y-61490000D01*
X40659000Y-64630000D02*
X40659000Y-61370000D01*
X40699000Y-64742000D02*
X40699000Y-61258000D01*
X40739000Y-64846000D02*
X40739000Y-61154000D01*
X40779000Y-64944000D02*
X40779000Y-61056000D01*
X40819000Y-65037000D02*
X40819000Y-60963000D01*
X40859000Y-65125000D02*
X40859000Y-60875000D01*
X40899000Y-65209000D02*
X40899000Y-60791000D01*
X40939000Y-65289000D02*
X40939000Y-60711000D01*
X40979000Y-65365000D02*
X40979000Y-60635000D01*
X41019000Y-65439000D02*
X41019000Y-60561000D01*
X41059000Y-65510000D02*
X41059000Y-60490000D01*
X41099000Y-65579000D02*
X41099000Y-60421000D01*
X41139000Y-65645000D02*
X41139000Y-60355000D01*
X41179000Y-65709000D02*
X41179000Y-60291000D01*
X41219000Y-65770000D02*
X41219000Y-60230000D01*
X41259000Y-65830000D02*
X41259000Y-60170000D01*
X41299000Y-65889000D02*
X41299000Y-60111000D01*
X41339000Y-65945000D02*
X41339000Y-60055000D01*
X41379000Y-66000000D02*
X41379000Y-60000000D01*
X41419000Y-66054000D02*
X41419000Y-59946000D01*
X41459000Y-66106000D02*
X41459000Y-59894000D01*
X41499000Y-66156000D02*
X41499000Y-59844000D01*
X41539000Y-66206000D02*
X41539000Y-59794000D01*
X41579000Y-66254000D02*
X41579000Y-59746000D01*
X41619000Y-66301000D02*
X41619000Y-59699000D01*
X41659000Y-66347000D02*
X41659000Y-59653000D01*
X41699000Y-66392000D02*
X41699000Y-59608000D01*
X41739000Y-66436000D02*
X41739000Y-59564000D01*
X41779000Y-61759000D02*
X41779000Y-59522000D01*
X41779000Y-66478000D02*
X41779000Y-64241000D01*
X41819000Y-61759000D02*
X41819000Y-59480000D01*
X41819000Y-66520000D02*
X41819000Y-64241000D01*
X41859000Y-61759000D02*
X41859000Y-59439000D01*
X41859000Y-66561000D02*
X41859000Y-64241000D01*
X41899000Y-61759000D02*
X41899000Y-59399000D01*
X41899000Y-66601000D02*
X41899000Y-64241000D01*
X41939000Y-61759000D02*
X41939000Y-59360000D01*
X41939000Y-66640000D02*
X41939000Y-64241000D01*
X41979000Y-61759000D02*
X41979000Y-59321000D01*
X41979000Y-66679000D02*
X41979000Y-64241000D01*
X42019000Y-61759000D02*
X42019000Y-59284000D01*
X42019000Y-66716000D02*
X42019000Y-64241000D01*
X42059000Y-61759000D02*
X42059000Y-59247000D01*
X42059000Y-66753000D02*
X42059000Y-64241000D01*
X42099000Y-61759000D02*
X42099000Y-59211000D01*
X42099000Y-66789000D02*
X42099000Y-64241000D01*
X42139000Y-61759000D02*
X42139000Y-59176000D01*
X42139000Y-66824000D02*
X42139000Y-64241000D01*
X42179000Y-61759000D02*
X42179000Y-59142000D01*
X42179000Y-66858000D02*
X42179000Y-64241000D01*
X42219000Y-61759000D02*
X42219000Y-59108000D01*
X42219000Y-66892000D02*
X42219000Y-64241000D01*
X42259000Y-61759000D02*
X42259000Y-59075000D01*
X42259000Y-66925000D02*
X42259000Y-64241000D01*
X42299000Y-61759000D02*
X42299000Y-59043000D01*
X42299000Y-66957000D02*
X42299000Y-64241000D01*
X42339000Y-61759000D02*
X42339000Y-59011000D01*
X42339000Y-66989000D02*
X42339000Y-64241000D01*
X42379000Y-61759000D02*
X42379000Y-58980000D01*
X42379000Y-67020000D02*
X42379000Y-64241000D01*
X42419000Y-61759000D02*
X42419000Y-58950000D01*
X42419000Y-67050000D02*
X42419000Y-64241000D01*
X42459000Y-61759000D02*
X42459000Y-58920000D01*
X42459000Y-67080000D02*
X42459000Y-64241000D01*
X42499000Y-61759000D02*
X42499000Y-58890000D01*
X42499000Y-67110000D02*
X42499000Y-64241000D01*
X42539000Y-61759000D02*
X42539000Y-58862000D01*
X42539000Y-67138000D02*
X42539000Y-64241000D01*
X42579000Y-61759000D02*
X42579000Y-58834000D01*
X42579000Y-67166000D02*
X42579000Y-64241000D01*
X42619000Y-61759000D02*
X42619000Y-58806000D01*
X42619000Y-67194000D02*
X42619000Y-64241000D01*
X42659000Y-61759000D02*
X42659000Y-58779000D01*
X42659000Y-67221000D02*
X42659000Y-64241000D01*
X42699000Y-61759000D02*
X42699000Y-58753000D01*
X42699000Y-67247000D02*
X42699000Y-64241000D01*
X42739000Y-61759000D02*
X42739000Y-58727000D01*
X42739000Y-67273000D02*
X42739000Y-64241000D01*
X42779000Y-61759000D02*
X42779000Y-58702000D01*
X42779000Y-67298000D02*
X42779000Y-64241000D01*
X42819000Y-61759000D02*
X42819000Y-58677000D01*
X42819000Y-67323000D02*
X42819000Y-64241000D01*
X42859000Y-61759000D02*
X42859000Y-58653000D01*
X42859000Y-67347000D02*
X42859000Y-64241000D01*
X42899000Y-61759000D02*
X42899000Y-58629000D01*
X42899000Y-67371000D02*
X42899000Y-64241000D01*
X42939000Y-61759000D02*
X42939000Y-58605000D01*
X42939000Y-67395000D02*
X42939000Y-64241000D01*
X42979000Y-61759000D02*
X42979000Y-58583000D01*
X42979000Y-67417000D02*
X42979000Y-64241000D01*
X43019000Y-61759000D02*
X43019000Y-58560000D01*
X43019000Y-67440000D02*
X43019000Y-64241000D01*
X43059000Y-61759000D02*
X43059000Y-58538000D01*
X43059000Y-67462000D02*
X43059000Y-64241000D01*
X43099000Y-61759000D02*
X43099000Y-58517000D01*
X43099000Y-67483000D02*
X43099000Y-64241000D01*
X43139000Y-61759000D02*
X43139000Y-58496000D01*
X43139000Y-67504000D02*
X43139000Y-64241000D01*
X43179000Y-61759000D02*
X43179000Y-58475000D01*
X43179000Y-67525000D02*
X43179000Y-64241000D01*
X43219000Y-61759000D02*
X43219000Y-58455000D01*
X43219000Y-67545000D02*
X43219000Y-64241000D01*
X43259000Y-61759000D02*
X43259000Y-58436000D01*
X43259000Y-67564000D02*
X43259000Y-64241000D01*
X43299000Y-61759000D02*
X43299000Y-58416000D01*
X43299000Y-67584000D02*
X43299000Y-64241000D01*
X43339000Y-61759000D02*
X43339000Y-58397000D01*
X43339000Y-67603000D02*
X43339000Y-64241000D01*
X43379000Y-61759000D02*
X43379000Y-58379000D01*
X43379000Y-67621000D02*
X43379000Y-64241000D01*
X43419000Y-61759000D02*
X43419000Y-58361000D01*
X43419000Y-67639000D02*
X43419000Y-64241000D01*
X43459000Y-61759000D02*
X43459000Y-58343000D01*
X43459000Y-67657000D02*
X43459000Y-64241000D01*
X43499000Y-61759000D02*
X43499000Y-58326000D01*
X43499000Y-67674000D02*
X43499000Y-64241000D01*
X43539000Y-61759000D02*
X43539000Y-58310000D01*
X43539000Y-67690000D02*
X43539000Y-64241000D01*
X43579000Y-61759000D02*
X43579000Y-58293000D01*
X43579000Y-67707000D02*
X43579000Y-64241000D01*
X43619000Y-61759000D02*
X43619000Y-58277000D01*
X43619000Y-67723000D02*
X43619000Y-64241000D01*
X43659000Y-61759000D02*
X43659000Y-58262000D01*
X43659000Y-67738000D02*
X43659000Y-64241000D01*
X43699000Y-61759000D02*
X43699000Y-58246000D01*
X43699000Y-67754000D02*
X43699000Y-64241000D01*
X43739000Y-61759000D02*
X43739000Y-58232000D01*
X43739000Y-67768000D02*
X43739000Y-64241000D01*
X43779000Y-61759000D02*
X43779000Y-58217000D01*
X43779000Y-67783000D02*
X43779000Y-64241000D01*
X43819000Y-61759000D02*
X43819000Y-58203000D01*
X43819000Y-67797000D02*
X43819000Y-64241000D01*
X43859000Y-61759000D02*
X43859000Y-58189000D01*
X43859000Y-67811000D02*
X43859000Y-64241000D01*
X43899000Y-61759000D02*
X43899000Y-58176000D01*
X43899000Y-67824000D02*
X43899000Y-64241000D01*
X43939000Y-61759000D02*
X43939000Y-58163000D01*
X43939000Y-67837000D02*
X43939000Y-64241000D01*
X43979000Y-61759000D02*
X43979000Y-58150000D01*
X43979000Y-67850000D02*
X43979000Y-64241000D01*
X44019000Y-61759000D02*
X44019000Y-58138000D01*
X44019000Y-67862000D02*
X44019000Y-64241000D01*
X44059000Y-61759000D02*
X44059000Y-58126000D01*
X44059000Y-67874000D02*
X44059000Y-64241000D01*
X44099000Y-61759000D02*
X44099000Y-58115000D01*
X44099000Y-67885000D02*
X44099000Y-64241000D01*
X44139000Y-61759000D02*
X44139000Y-58103000D01*
X44139000Y-67897000D02*
X44139000Y-64241000D01*
X44179000Y-61759000D02*
X44179000Y-58093000D01*
X44179000Y-67907000D02*
X44179000Y-64241000D01*
X44219000Y-61759000D02*
X44219000Y-58082000D01*
X44219000Y-67918000D02*
X44219000Y-64241000D01*
X44259000Y-67928000D02*
X44259000Y-58072000D01*
X44299000Y-67938000D02*
X44299000Y-58062000D01*
X44339000Y-67947000D02*
X44339000Y-58053000D01*
X44379000Y-67956000D02*
X44379000Y-58044000D01*
X44419000Y-67965000D02*
X44419000Y-58035000D01*
X44459000Y-67974000D02*
X44459000Y-58026000D01*
X44499000Y-67982000D02*
X44499000Y-58018000D01*
X44539000Y-67990000D02*
X44539000Y-58010000D01*
X44579000Y-67997000D02*
X44579000Y-58003000D01*
X44619000Y-68004000D02*
X44619000Y-57996000D01*
X44659000Y-68011000D02*
X44659000Y-57989000D01*
X44699000Y-68018000D02*
X44699000Y-57982000D01*
X44739000Y-68024000D02*
X44739000Y-57976000D01*
X44779000Y-68030000D02*
X44779000Y-57970000D01*
X44820000Y-68035000D02*
X44820000Y-57965000D01*
X44860000Y-68040000D02*
X44860000Y-57960000D01*
X44900000Y-68045000D02*
X44900000Y-57955000D01*
X44940000Y-68050000D02*
X44940000Y-57950000D01*
X44980000Y-68054000D02*
X44980000Y-57946000D01*
X45020000Y-68058000D02*
X45020000Y-57942000D01*
X45060000Y-68062000D02*
X45060000Y-57938000D01*
X45100000Y-68065000D02*
X45100000Y-57935000D01*
X45140000Y-68068000D02*
X45140000Y-57932000D01*
X45180000Y-68070000D02*
X45180000Y-57930000D01*
X45220000Y-68073000D02*
X45220000Y-57927000D01*
X45260000Y-68075000D02*
X45260000Y-57925000D01*
X45300000Y-68077000D02*
X45300000Y-57923000D01*
X45340000Y-68078000D02*
X45340000Y-57922000D01*
X45380000Y-68079000D02*
X45380000Y-57921000D01*
X45420000Y-68080000D02*
X45420000Y-57920000D01*
X45460000Y-68080000D02*
X45460000Y-57920000D01*
X45500000Y-68080000D02*
X45500000Y-57920000D01*
X50620000Y-63000000D02*
G75*
G03X50620000Y-63000000I-5120000J0D01*
G01*
X50479646Y-55375000D02*
X50479646Y-54375000D01*
X50979646Y-54875000D02*
X49979646Y-54875000D01*
X40419000Y-52599000D02*
X40419000Y-51401000D01*
X40459000Y-52862000D02*
X40459000Y-51138000D01*
X40499000Y-53062000D02*
X40499000Y-50938000D01*
X40539000Y-53230000D02*
X40539000Y-50770000D01*
X40579000Y-53378000D02*
X40579000Y-50622000D01*
X40619000Y-53510000D02*
X40619000Y-50490000D01*
X40659000Y-53630000D02*
X40659000Y-50370000D01*
X40699000Y-53742000D02*
X40699000Y-50258000D01*
X40739000Y-53846000D02*
X40739000Y-50154000D01*
X40779000Y-53944000D02*
X40779000Y-50056000D01*
X40819000Y-54037000D02*
X40819000Y-49963000D01*
X40859000Y-54125000D02*
X40859000Y-49875000D01*
X40899000Y-54209000D02*
X40899000Y-49791000D01*
X40939000Y-54289000D02*
X40939000Y-49711000D01*
X40979000Y-54365000D02*
X40979000Y-49635000D01*
X41019000Y-54439000D02*
X41019000Y-49561000D01*
X41059000Y-54510000D02*
X41059000Y-49490000D01*
X41099000Y-54579000D02*
X41099000Y-49421000D01*
X41139000Y-54645000D02*
X41139000Y-49355000D01*
X41179000Y-54709000D02*
X41179000Y-49291000D01*
X41219000Y-54770000D02*
X41219000Y-49230000D01*
X41259000Y-54830000D02*
X41259000Y-49170000D01*
X41299000Y-54889000D02*
X41299000Y-49111000D01*
X41339000Y-54945000D02*
X41339000Y-49055000D01*
X41379000Y-55000000D02*
X41379000Y-49000000D01*
X41419000Y-55054000D02*
X41419000Y-48946000D01*
X41459000Y-55106000D02*
X41459000Y-48894000D01*
X41499000Y-55156000D02*
X41499000Y-48844000D01*
X41539000Y-55206000D02*
X41539000Y-48794000D01*
X41579000Y-55254000D02*
X41579000Y-48746000D01*
X41619000Y-55301000D02*
X41619000Y-48699000D01*
X41659000Y-55347000D02*
X41659000Y-48653000D01*
X41699000Y-55392000D02*
X41699000Y-48608000D01*
X41739000Y-55436000D02*
X41739000Y-48564000D01*
X41779000Y-50759000D02*
X41779000Y-48522000D01*
X41779000Y-55478000D02*
X41779000Y-53241000D01*
X41819000Y-50759000D02*
X41819000Y-48480000D01*
X41819000Y-55520000D02*
X41819000Y-53241000D01*
X41859000Y-50759000D02*
X41859000Y-48439000D01*
X41859000Y-55561000D02*
X41859000Y-53241000D01*
X41899000Y-50759000D02*
X41899000Y-48399000D01*
X41899000Y-55601000D02*
X41899000Y-53241000D01*
X41939000Y-50759000D02*
X41939000Y-48360000D01*
X41939000Y-55640000D02*
X41939000Y-53241000D01*
X41979000Y-50759000D02*
X41979000Y-48321000D01*
X41979000Y-55679000D02*
X41979000Y-53241000D01*
X42019000Y-50759000D02*
X42019000Y-48284000D01*
X42019000Y-55716000D02*
X42019000Y-53241000D01*
X42059000Y-50759000D02*
X42059000Y-48247000D01*
X42059000Y-55753000D02*
X42059000Y-53241000D01*
X42099000Y-50759000D02*
X42099000Y-48211000D01*
X42099000Y-55789000D02*
X42099000Y-53241000D01*
X42139000Y-50759000D02*
X42139000Y-48176000D01*
X42139000Y-55824000D02*
X42139000Y-53241000D01*
X42179000Y-50759000D02*
X42179000Y-48142000D01*
X42179000Y-55858000D02*
X42179000Y-53241000D01*
X42219000Y-50759000D02*
X42219000Y-48108000D01*
X42219000Y-55892000D02*
X42219000Y-53241000D01*
X42259000Y-50759000D02*
X42259000Y-48075000D01*
X42259000Y-55925000D02*
X42259000Y-53241000D01*
X42299000Y-50759000D02*
X42299000Y-48043000D01*
X42299000Y-55957000D02*
X42299000Y-53241000D01*
X42339000Y-50759000D02*
X42339000Y-48011000D01*
X42339000Y-55989000D02*
X42339000Y-53241000D01*
X42379000Y-50759000D02*
X42379000Y-47980000D01*
X42379000Y-56020000D02*
X42379000Y-53241000D01*
X42419000Y-50759000D02*
X42419000Y-47950000D01*
X42419000Y-56050000D02*
X42419000Y-53241000D01*
X42459000Y-50759000D02*
X42459000Y-47920000D01*
X42459000Y-56080000D02*
X42459000Y-53241000D01*
X42499000Y-50759000D02*
X42499000Y-47890000D01*
X42499000Y-56110000D02*
X42499000Y-53241000D01*
X42539000Y-50759000D02*
X42539000Y-47862000D01*
X42539000Y-56138000D02*
X42539000Y-53241000D01*
X42579000Y-50759000D02*
X42579000Y-47834000D01*
X42579000Y-56166000D02*
X42579000Y-53241000D01*
X42619000Y-50759000D02*
X42619000Y-47806000D01*
X42619000Y-56194000D02*
X42619000Y-53241000D01*
X42659000Y-50759000D02*
X42659000Y-47779000D01*
X42659000Y-56221000D02*
X42659000Y-53241000D01*
X42699000Y-50759000D02*
X42699000Y-47753000D01*
X42699000Y-56247000D02*
X42699000Y-53241000D01*
X42739000Y-50759000D02*
X42739000Y-47727000D01*
X42739000Y-56273000D02*
X42739000Y-53241000D01*
X42779000Y-50759000D02*
X42779000Y-47702000D01*
X42779000Y-56298000D02*
X42779000Y-53241000D01*
X42819000Y-50759000D02*
X42819000Y-47677000D01*
X42819000Y-56323000D02*
X42819000Y-53241000D01*
X42859000Y-50759000D02*
X42859000Y-47653000D01*
X42859000Y-56347000D02*
X42859000Y-53241000D01*
X42899000Y-50759000D02*
X42899000Y-47629000D01*
X42899000Y-56371000D02*
X42899000Y-53241000D01*
X42939000Y-50759000D02*
X42939000Y-47605000D01*
X42939000Y-56395000D02*
X42939000Y-53241000D01*
X42979000Y-50759000D02*
X42979000Y-47583000D01*
X42979000Y-56417000D02*
X42979000Y-53241000D01*
X43019000Y-50759000D02*
X43019000Y-47560000D01*
X43019000Y-56440000D02*
X43019000Y-53241000D01*
X43059000Y-50759000D02*
X43059000Y-47538000D01*
X43059000Y-56462000D02*
X43059000Y-53241000D01*
X43099000Y-50759000D02*
X43099000Y-47517000D01*
X43099000Y-56483000D02*
X43099000Y-53241000D01*
X43139000Y-50759000D02*
X43139000Y-47496000D01*
X43139000Y-56504000D02*
X43139000Y-53241000D01*
X43179000Y-50759000D02*
X43179000Y-47475000D01*
X43179000Y-56525000D02*
X43179000Y-53241000D01*
X43219000Y-50759000D02*
X43219000Y-47455000D01*
X43219000Y-56545000D02*
X43219000Y-53241000D01*
X43259000Y-50759000D02*
X43259000Y-47436000D01*
X43259000Y-56564000D02*
X43259000Y-53241000D01*
X43299000Y-50759000D02*
X43299000Y-47416000D01*
X43299000Y-56584000D02*
X43299000Y-53241000D01*
X43339000Y-50759000D02*
X43339000Y-47397000D01*
X43339000Y-56603000D02*
X43339000Y-53241000D01*
X43379000Y-50759000D02*
X43379000Y-47379000D01*
X43379000Y-56621000D02*
X43379000Y-53241000D01*
X43419000Y-50759000D02*
X43419000Y-47361000D01*
X43419000Y-56639000D02*
X43419000Y-53241000D01*
X43459000Y-50759000D02*
X43459000Y-47343000D01*
X43459000Y-56657000D02*
X43459000Y-53241000D01*
X43499000Y-50759000D02*
X43499000Y-47326000D01*
X43499000Y-56674000D02*
X43499000Y-53241000D01*
X43539000Y-50759000D02*
X43539000Y-47310000D01*
X43539000Y-56690000D02*
X43539000Y-53241000D01*
X43579000Y-50759000D02*
X43579000Y-47293000D01*
X43579000Y-56707000D02*
X43579000Y-53241000D01*
X43619000Y-50759000D02*
X43619000Y-47277000D01*
X43619000Y-56723000D02*
X43619000Y-53241000D01*
X43659000Y-50759000D02*
X43659000Y-47262000D01*
X43659000Y-56738000D02*
X43659000Y-53241000D01*
X43699000Y-50759000D02*
X43699000Y-47246000D01*
X43699000Y-56754000D02*
X43699000Y-53241000D01*
X43739000Y-50759000D02*
X43739000Y-47232000D01*
X43739000Y-56768000D02*
X43739000Y-53241000D01*
X43779000Y-50759000D02*
X43779000Y-47217000D01*
X43779000Y-56783000D02*
X43779000Y-53241000D01*
X43819000Y-50759000D02*
X43819000Y-47203000D01*
X43819000Y-56797000D02*
X43819000Y-53241000D01*
X43859000Y-50759000D02*
X43859000Y-47189000D01*
X43859000Y-56811000D02*
X43859000Y-53241000D01*
X43899000Y-50759000D02*
X43899000Y-47176000D01*
X43899000Y-56824000D02*
X43899000Y-53241000D01*
X43939000Y-50759000D02*
X43939000Y-47163000D01*
X43939000Y-56837000D02*
X43939000Y-53241000D01*
X43979000Y-50759000D02*
X43979000Y-47150000D01*
X43979000Y-56850000D02*
X43979000Y-53241000D01*
X44019000Y-50759000D02*
X44019000Y-47138000D01*
X44019000Y-56862000D02*
X44019000Y-53241000D01*
X44059000Y-50759000D02*
X44059000Y-47126000D01*
X44059000Y-56874000D02*
X44059000Y-53241000D01*
X44099000Y-50759000D02*
X44099000Y-47115000D01*
X44099000Y-56885000D02*
X44099000Y-53241000D01*
X44139000Y-50759000D02*
X44139000Y-47103000D01*
X44139000Y-56897000D02*
X44139000Y-53241000D01*
X44179000Y-50759000D02*
X44179000Y-47093000D01*
X44179000Y-56907000D02*
X44179000Y-53241000D01*
X44219000Y-50759000D02*
X44219000Y-47082000D01*
X44219000Y-56918000D02*
X44219000Y-53241000D01*
X44259000Y-56928000D02*
X44259000Y-47072000D01*
X44299000Y-56938000D02*
X44299000Y-47062000D01*
X44339000Y-56947000D02*
X44339000Y-47053000D01*
X44379000Y-56956000D02*
X44379000Y-47044000D01*
X44419000Y-56965000D02*
X44419000Y-47035000D01*
X44459000Y-56974000D02*
X44459000Y-47026000D01*
X44499000Y-56982000D02*
X44499000Y-47018000D01*
X44539000Y-56990000D02*
X44539000Y-47010000D01*
X44579000Y-56997000D02*
X44579000Y-47003000D01*
X44619000Y-57004000D02*
X44619000Y-46996000D01*
X44659000Y-57011000D02*
X44659000Y-46989000D01*
X44699000Y-57018000D02*
X44699000Y-46982000D01*
X44739000Y-57024000D02*
X44739000Y-46976000D01*
X44779000Y-57030000D02*
X44779000Y-46970000D01*
X44820000Y-57035000D02*
X44820000Y-46965000D01*
X44860000Y-57040000D02*
X44860000Y-46960000D01*
X44900000Y-57045000D02*
X44900000Y-46955000D01*
X44940000Y-57050000D02*
X44940000Y-46950000D01*
X44980000Y-57054000D02*
X44980000Y-46946000D01*
X45020000Y-57058000D02*
X45020000Y-46942000D01*
X45060000Y-57062000D02*
X45060000Y-46938000D01*
X45100000Y-57065000D02*
X45100000Y-46935000D01*
X45140000Y-57068000D02*
X45140000Y-46932000D01*
X45180000Y-57070000D02*
X45180000Y-46930000D01*
X45220000Y-57073000D02*
X45220000Y-46927000D01*
X45260000Y-57075000D02*
X45260000Y-46925000D01*
X45300000Y-57077000D02*
X45300000Y-46923000D01*
X45340000Y-57078000D02*
X45340000Y-46922000D01*
X45380000Y-57079000D02*
X45380000Y-46921000D01*
X45420000Y-57080000D02*
X45420000Y-46920000D01*
X45460000Y-57080000D02*
X45460000Y-46920000D01*
X45500000Y-57080000D02*
X45500000Y-46920000D01*
X50620000Y-52000000D02*
G75*
G03X50620000Y-52000000I-5120000J0D01*
G01*
X50479646Y-44375000D02*
X50479646Y-43375000D01*
X50979646Y-43875000D02*
X49979646Y-43875000D01*
X40419000Y-41599000D02*
X40419000Y-40401000D01*
X40459000Y-41862000D02*
X40459000Y-40138000D01*
X40499000Y-42062000D02*
X40499000Y-39938000D01*
X40539000Y-42230000D02*
X40539000Y-39770000D01*
X40579000Y-42378000D02*
X40579000Y-39622000D01*
X40619000Y-42510000D02*
X40619000Y-39490000D01*
X40659000Y-42630000D02*
X40659000Y-39370000D01*
X40699000Y-42742000D02*
X40699000Y-39258000D01*
X40739000Y-42846000D02*
X40739000Y-39154000D01*
X40779000Y-42944000D02*
X40779000Y-39056000D01*
X40819000Y-43037000D02*
X40819000Y-38963000D01*
X40859000Y-43125000D02*
X40859000Y-38875000D01*
X40899000Y-43209000D02*
X40899000Y-38791000D01*
X40939000Y-43289000D02*
X40939000Y-38711000D01*
X40979000Y-43365000D02*
X40979000Y-38635000D01*
X41019000Y-43439000D02*
X41019000Y-38561000D01*
X41059000Y-43510000D02*
X41059000Y-38490000D01*
X41099000Y-43579000D02*
X41099000Y-38421000D01*
X41139000Y-43645000D02*
X41139000Y-38355000D01*
X41179000Y-43709000D02*
X41179000Y-38291000D01*
X41219000Y-43770000D02*
X41219000Y-38230000D01*
X41259000Y-43830000D02*
X41259000Y-38170000D01*
X41299000Y-43889000D02*
X41299000Y-38111000D01*
X41339000Y-43945000D02*
X41339000Y-38055000D01*
X41379000Y-44000000D02*
X41379000Y-38000000D01*
X41419000Y-44054000D02*
X41419000Y-37946000D01*
X41459000Y-44106000D02*
X41459000Y-37894000D01*
X41499000Y-44156000D02*
X41499000Y-37844000D01*
X41539000Y-44206000D02*
X41539000Y-37794000D01*
X41579000Y-44254000D02*
X41579000Y-37746000D01*
X41619000Y-44301000D02*
X41619000Y-37699000D01*
X41659000Y-44347000D02*
X41659000Y-37653000D01*
X41699000Y-44392000D02*
X41699000Y-37608000D01*
X41739000Y-44436000D02*
X41739000Y-37564000D01*
X41779000Y-39759000D02*
X41779000Y-37522000D01*
X41779000Y-44478000D02*
X41779000Y-42241000D01*
X41819000Y-39759000D02*
X41819000Y-37480000D01*
X41819000Y-44520000D02*
X41819000Y-42241000D01*
X41859000Y-39759000D02*
X41859000Y-37439000D01*
X41859000Y-44561000D02*
X41859000Y-42241000D01*
X41899000Y-39759000D02*
X41899000Y-37399000D01*
X41899000Y-44601000D02*
X41899000Y-42241000D01*
X41939000Y-39759000D02*
X41939000Y-37360000D01*
X41939000Y-44640000D02*
X41939000Y-42241000D01*
X41979000Y-39759000D02*
X41979000Y-37321000D01*
X41979000Y-44679000D02*
X41979000Y-42241000D01*
X42019000Y-39759000D02*
X42019000Y-37284000D01*
X42019000Y-44716000D02*
X42019000Y-42241000D01*
X42059000Y-39759000D02*
X42059000Y-37247000D01*
X42059000Y-44753000D02*
X42059000Y-42241000D01*
X42099000Y-39759000D02*
X42099000Y-37211000D01*
X42099000Y-44789000D02*
X42099000Y-42241000D01*
X42139000Y-39759000D02*
X42139000Y-37176000D01*
X42139000Y-44824000D02*
X42139000Y-42241000D01*
X42179000Y-39759000D02*
X42179000Y-37142000D01*
X42179000Y-44858000D02*
X42179000Y-42241000D01*
X42219000Y-39759000D02*
X42219000Y-37108000D01*
X42219000Y-44892000D02*
X42219000Y-42241000D01*
X42259000Y-39759000D02*
X42259000Y-37075000D01*
X42259000Y-44925000D02*
X42259000Y-42241000D01*
X42299000Y-39759000D02*
X42299000Y-37043000D01*
X42299000Y-44957000D02*
X42299000Y-42241000D01*
X42339000Y-39759000D02*
X42339000Y-37011000D01*
X42339000Y-44989000D02*
X42339000Y-42241000D01*
X42379000Y-39759000D02*
X42379000Y-36980000D01*
X42379000Y-45020000D02*
X42379000Y-42241000D01*
X42419000Y-39759000D02*
X42419000Y-36950000D01*
X42419000Y-45050000D02*
X42419000Y-42241000D01*
X42459000Y-39759000D02*
X42459000Y-36920000D01*
X42459000Y-45080000D02*
X42459000Y-42241000D01*
X42499000Y-39759000D02*
X42499000Y-36890000D01*
X42499000Y-45110000D02*
X42499000Y-42241000D01*
X42539000Y-39759000D02*
X42539000Y-36862000D01*
X42539000Y-45138000D02*
X42539000Y-42241000D01*
X42579000Y-39759000D02*
X42579000Y-36834000D01*
X42579000Y-45166000D02*
X42579000Y-42241000D01*
X42619000Y-39759000D02*
X42619000Y-36806000D01*
X42619000Y-45194000D02*
X42619000Y-42241000D01*
X42659000Y-39759000D02*
X42659000Y-36779000D01*
X42659000Y-45221000D02*
X42659000Y-42241000D01*
X42699000Y-39759000D02*
X42699000Y-36753000D01*
X42699000Y-45247000D02*
X42699000Y-42241000D01*
X42739000Y-39759000D02*
X42739000Y-36727000D01*
X42739000Y-45273000D02*
X42739000Y-42241000D01*
X42779000Y-39759000D02*
X42779000Y-36702000D01*
X42779000Y-45298000D02*
X42779000Y-42241000D01*
X42819000Y-39759000D02*
X42819000Y-36677000D01*
X42819000Y-45323000D02*
X42819000Y-42241000D01*
X42859000Y-39759000D02*
X42859000Y-36653000D01*
X42859000Y-45347000D02*
X42859000Y-42241000D01*
X42899000Y-39759000D02*
X42899000Y-36629000D01*
X42899000Y-45371000D02*
X42899000Y-42241000D01*
X42939000Y-39759000D02*
X42939000Y-36605000D01*
X42939000Y-45395000D02*
X42939000Y-42241000D01*
X42979000Y-39759000D02*
X42979000Y-36583000D01*
X42979000Y-45417000D02*
X42979000Y-42241000D01*
X43019000Y-39759000D02*
X43019000Y-36560000D01*
X43019000Y-45440000D02*
X43019000Y-42241000D01*
X43059000Y-39759000D02*
X43059000Y-36538000D01*
X43059000Y-45462000D02*
X43059000Y-42241000D01*
X43099000Y-39759000D02*
X43099000Y-36517000D01*
X43099000Y-45483000D02*
X43099000Y-42241000D01*
X43139000Y-39759000D02*
X43139000Y-36496000D01*
X43139000Y-45504000D02*
X43139000Y-42241000D01*
X43179000Y-39759000D02*
X43179000Y-36475000D01*
X43179000Y-45525000D02*
X43179000Y-42241000D01*
X43219000Y-39759000D02*
X43219000Y-36455000D01*
X43219000Y-45545000D02*
X43219000Y-42241000D01*
X43259000Y-39759000D02*
X43259000Y-36436000D01*
X43259000Y-45564000D02*
X43259000Y-42241000D01*
X43299000Y-39759000D02*
X43299000Y-36416000D01*
X43299000Y-45584000D02*
X43299000Y-42241000D01*
X43339000Y-39759000D02*
X43339000Y-36397000D01*
X43339000Y-45603000D02*
X43339000Y-42241000D01*
X43379000Y-39759000D02*
X43379000Y-36379000D01*
X43379000Y-45621000D02*
X43379000Y-42241000D01*
X43419000Y-39759000D02*
X43419000Y-36361000D01*
X43419000Y-45639000D02*
X43419000Y-42241000D01*
X43459000Y-39759000D02*
X43459000Y-36343000D01*
X43459000Y-45657000D02*
X43459000Y-42241000D01*
X43499000Y-39759000D02*
X43499000Y-36326000D01*
X43499000Y-45674000D02*
X43499000Y-42241000D01*
X43539000Y-39759000D02*
X43539000Y-36310000D01*
X43539000Y-45690000D02*
X43539000Y-42241000D01*
X43579000Y-39759000D02*
X43579000Y-36293000D01*
X43579000Y-45707000D02*
X43579000Y-42241000D01*
X43619000Y-39759000D02*
X43619000Y-36277000D01*
X43619000Y-45723000D02*
X43619000Y-42241000D01*
X43659000Y-39759000D02*
X43659000Y-36262000D01*
X43659000Y-45738000D02*
X43659000Y-42241000D01*
X43699000Y-39759000D02*
X43699000Y-36246000D01*
X43699000Y-45754000D02*
X43699000Y-42241000D01*
X43739000Y-39759000D02*
X43739000Y-36232000D01*
X43739000Y-45768000D02*
X43739000Y-42241000D01*
X43779000Y-39759000D02*
X43779000Y-36217000D01*
X43779000Y-45783000D02*
X43779000Y-42241000D01*
X43819000Y-39759000D02*
X43819000Y-36203000D01*
X43819000Y-45797000D02*
X43819000Y-42241000D01*
X43859000Y-39759000D02*
X43859000Y-36189000D01*
X43859000Y-45811000D02*
X43859000Y-42241000D01*
X43899000Y-39759000D02*
X43899000Y-36176000D01*
X43899000Y-45824000D02*
X43899000Y-42241000D01*
X43939000Y-39759000D02*
X43939000Y-36163000D01*
X43939000Y-45837000D02*
X43939000Y-42241000D01*
X43979000Y-39759000D02*
X43979000Y-36150000D01*
X43979000Y-45850000D02*
X43979000Y-42241000D01*
X44019000Y-39759000D02*
X44019000Y-36138000D01*
X44019000Y-45862000D02*
X44019000Y-42241000D01*
X44059000Y-39759000D02*
X44059000Y-36126000D01*
X44059000Y-45874000D02*
X44059000Y-42241000D01*
X44099000Y-39759000D02*
X44099000Y-36115000D01*
X44099000Y-45885000D02*
X44099000Y-42241000D01*
X44139000Y-39759000D02*
X44139000Y-36103000D01*
X44139000Y-45897000D02*
X44139000Y-42241000D01*
X44179000Y-39759000D02*
X44179000Y-36093000D01*
X44179000Y-45907000D02*
X44179000Y-42241000D01*
X44219000Y-39759000D02*
X44219000Y-36082000D01*
X44219000Y-45918000D02*
X44219000Y-42241000D01*
X44259000Y-45928000D02*
X44259000Y-36072000D01*
X44299000Y-45938000D02*
X44299000Y-36062000D01*
X44339000Y-45947000D02*
X44339000Y-36053000D01*
X44379000Y-45956000D02*
X44379000Y-36044000D01*
X44419000Y-45965000D02*
X44419000Y-36035000D01*
X44459000Y-45974000D02*
X44459000Y-36026000D01*
X44499000Y-45982000D02*
X44499000Y-36018000D01*
X44539000Y-45990000D02*
X44539000Y-36010000D01*
X44579000Y-45997000D02*
X44579000Y-36003000D01*
X44619000Y-46004000D02*
X44619000Y-35996000D01*
X44659000Y-46011000D02*
X44659000Y-35989000D01*
X44699000Y-46018000D02*
X44699000Y-35982000D01*
X44739000Y-46024000D02*
X44739000Y-35976000D01*
X44779000Y-46030000D02*
X44779000Y-35970000D01*
X44820000Y-46035000D02*
X44820000Y-35965000D01*
X44860000Y-46040000D02*
X44860000Y-35960000D01*
X44900000Y-46045000D02*
X44900000Y-35955000D01*
X44940000Y-46050000D02*
X44940000Y-35950000D01*
X44980000Y-46054000D02*
X44980000Y-35946000D01*
X45020000Y-46058000D02*
X45020000Y-35942000D01*
X45060000Y-46062000D02*
X45060000Y-35938000D01*
X45100000Y-46065000D02*
X45100000Y-35935000D01*
X45140000Y-46068000D02*
X45140000Y-35932000D01*
X45180000Y-46070000D02*
X45180000Y-35930000D01*
X45220000Y-46073000D02*
X45220000Y-35927000D01*
X45260000Y-46075000D02*
X45260000Y-35925000D01*
X45300000Y-46077000D02*
X45300000Y-35923000D01*
X45340000Y-46078000D02*
X45340000Y-35922000D01*
X45380000Y-46079000D02*
X45380000Y-35921000D01*
X45420000Y-46080000D02*
X45420000Y-35920000D01*
X45460000Y-46080000D02*
X45460000Y-35920000D01*
X45500000Y-46080000D02*
X45500000Y-35920000D01*
X50620000Y-41000000D02*
G75*
G03X50620000Y-41000000I-5120000J0D01*
G01*
X77490000Y-76337221D02*
X77490000Y-76662779D01*
X78510000Y-76337221D02*
X78510000Y-76662779D01*
X77224721Y-66910000D02*
X77550279Y-66910000D01*
X77224721Y-65890000D02*
X77550279Y-65890000D01*
X95910000Y-76662779D02*
X95910000Y-76337221D01*
X94890000Y-76662779D02*
X94890000Y-76337221D01*
X72025000Y-73900000D02*
X72025000Y-77700000D01*
X75175000Y-73900000D02*
X72025000Y-73900000D01*
X117412779Y-76490000D02*
X117087221Y-76490000D01*
X117412779Y-77510000D02*
X117087221Y-77510000D01*
X89200000Y-73400000D02*
G75*
G03X89200000Y-73400000I-700000J0D01*
G01*
X86700000Y-76300000D02*
G75*
G03X86700000Y-76300000I-700000J0D01*
G01*
X69490000Y-63337221D02*
X69490000Y-63662779D01*
X70510000Y-63337221D02*
X70510000Y-63662779D01*
X73237221Y-65510000D02*
X73562779Y-65510000D01*
X73237221Y-64490000D02*
X73562779Y-64490000D01*
X97490000Y-62837221D02*
X97490000Y-63162779D01*
X98510000Y-62837221D02*
X98510000Y-63162779D01*
X99490000Y-70237221D02*
X99490000Y-70562779D01*
X100510000Y-70237221D02*
X100510000Y-70562779D01*
X123990000Y-62837221D02*
X123990000Y-63162779D01*
X125010000Y-62837221D02*
X125010000Y-63162779D01*
X99890000Y-76337221D02*
X99890000Y-76662779D01*
X100910000Y-76337221D02*
X100910000Y-76662779D01*
X62960000Y-74990000D02*
X62960000Y-76100000D01*
X62200000Y-74990000D02*
X62960000Y-74990000D01*
X61440000Y-76663471D02*
X61440000Y-77210000D01*
X61440000Y-74990000D02*
X61440000Y-75536529D01*
X61440000Y-77210000D02*
X58965000Y-77210000D01*
X61440000Y-74990000D02*
X58965000Y-74990000D01*
X58965000Y-76407530D02*
X58965000Y-77210000D01*
X58965000Y-74990000D02*
X58965000Y-75792470D01*
X51910000Y-75060000D02*
X50800000Y-75060000D01*
X51910000Y-74300000D02*
X51910000Y-75060000D01*
X50236529Y-73540000D02*
X49690000Y-73540000D01*
X51910000Y-73540000D02*
X51363471Y-73540000D01*
X49690000Y-73540000D02*
X49690000Y-69795000D01*
X51910000Y-73540000D02*
X51910000Y-69795000D01*
X50492470Y-69795000D02*
X49690000Y-69795000D01*
X51910000Y-69795000D02*
X51107530Y-69795000D01*
X72900000Y-67650000D02*
X70350000Y-67650000D01*
X72900000Y-65950000D02*
X70350000Y-65950000D01*
X72900000Y-67650000D02*
X72900000Y-65950000D01*
X98850000Y-68900000D02*
X98850000Y-71450000D01*
X97150000Y-68900000D02*
X97150000Y-71450000D01*
X98850000Y-68900000D02*
X97150000Y-68900000D01*
X99550000Y-74900000D02*
X99550000Y-77450000D01*
X97850000Y-74900000D02*
X97850000Y-77450000D01*
X99550000Y-74900000D02*
X97850000Y-74900000D01*
X60350000Y-71400000D02*
X60350000Y-73950000D01*
X58650000Y-71400000D02*
X58650000Y-73950000D01*
X60350000Y-71400000D02*
X58650000Y-71400000D01*
X94210000Y-70412779D02*
X94210000Y-70087221D01*
X93190000Y-70412779D02*
X93190000Y-70087221D01*
X93190000Y-73087221D02*
X93190000Y-73412779D01*
X94210000Y-73087221D02*
X94210000Y-73412779D01*
X89510000Y-76462779D02*
X89510000Y-76137221D01*
X88490000Y-76462779D02*
X88490000Y-76137221D01*
X82625279Y-76690000D02*
X82299721Y-76690000D01*
X82625279Y-77710000D02*
X82299721Y-77710000D01*
X66170000Y-61330000D02*
X66170000Y-60000000D01*
X67500000Y-61330000D02*
X66170000Y-61330000D01*
X68770000Y-61330000D02*
X68770000Y-58670000D01*
X68770000Y-58670000D02*
X71370000Y-58670000D01*
X68770000Y-61330000D02*
X71370000Y-61330000D01*
X71370000Y-61330000D02*
X71370000Y-58670000D01*
X95170000Y-60830000D02*
X95170000Y-59500000D01*
X96500000Y-60830000D02*
X95170000Y-60830000D01*
X97770000Y-60830000D02*
X97770000Y-58170000D01*
X97770000Y-58170000D02*
X100370000Y-58170000D01*
X97770000Y-60830000D02*
X100370000Y-60830000D01*
X100370000Y-60830000D02*
X100370000Y-58170000D01*
X121170000Y-60830000D02*
X121170000Y-59500000D01*
X122500000Y-60830000D02*
X121170000Y-60830000D01*
X123770000Y-60830000D02*
X123770000Y-58170000D01*
X123770000Y-58170000D02*
X126370000Y-58170000D01*
X123770000Y-60830000D02*
X126370000Y-60830000D01*
X126370000Y-60830000D02*
X126370000Y-58170000D01*
X45212500Y-71200000D02*
X44762500Y-71200000D01*
X45212500Y-71200000D02*
X45212500Y-71650000D01*
X44662500Y-76800000D02*
X44662500Y-76350000D01*
X42812500Y-76800000D02*
X44662500Y-76800000D01*
X40262500Y-69000000D02*
X40512500Y-69000000D01*
X40262500Y-76800000D02*
X40512500Y-76800000D01*
X42812500Y-69000000D02*
X44662500Y-69000000D01*
X44662500Y-69000000D02*
X44662500Y-69450000D01*
X82860000Y-44622064D02*
X82860000Y-41817936D01*
X80140000Y-44622064D02*
X80140000Y-41817936D01*
X110860000Y-44122064D02*
X110860000Y-41317936D01*
X108140000Y-44122064D02*
X108140000Y-41317936D01*
X137360000Y-44122064D02*
X137360000Y-41317936D01*
X134640000Y-44122064D02*
X134640000Y-41317936D01*
X59500000Y-56750000D02*
X59500000Y-60650000D01*
X57500000Y-56750000D02*
X57500000Y-60650000D01*
X59500000Y-56750000D02*
X57500000Y-56750000D01*
X87000000Y-56400000D02*
X87000000Y-60300000D01*
X85000000Y-56400000D02*
X85000000Y-60300000D01*
X87000000Y-56400000D02*
X85000000Y-56400000D01*
X114000000Y-56400000D02*
X114000000Y-60300000D01*
X112000000Y-56400000D02*
X112000000Y-60300000D01*
X114000000Y-56400000D02*
X112000000Y-56400000D01*
X97510000Y-76662779D02*
X97510000Y-76337221D01*
X96490000Y-76662779D02*
X96490000Y-76337221D01*
X47350279Y-71890000D02*
X47024721Y-71890000D01*
X47350279Y-72910000D02*
X47024721Y-72910000D01*
X47350279Y-70390000D02*
X47024721Y-70390000D01*
X47350279Y-71410000D02*
X47024721Y-71410000D01*
X133587221Y-71010000D02*
X133912779Y-71010000D01*
X133587221Y-69990000D02*
X133912779Y-69990000D01*
X133587221Y-69510000D02*
X133912779Y-69510000D01*
X133587221Y-68490000D02*
X133912779Y-68490000D01*
X128640000Y-74250000D02*
X128640000Y-71750000D01*
X120240000Y-71750000D02*
X120240000Y-74250000D01*
X87590000Y-68124721D02*
X87590000Y-68450279D01*
X88610000Y-68124721D02*
X88610000Y-68450279D01*
X130570000Y-72830279D02*
X130570000Y-72504721D01*
X129550000Y-72830279D02*
X129550000Y-72504721D01*
X130740000Y-69337221D02*
X130740000Y-69662779D01*
X131760000Y-69337221D02*
X131760000Y-69662779D01*
X129240000Y-69337221D02*
X129240000Y-69662779D01*
X130260000Y-69337221D02*
X130260000Y-69662779D01*
X130570000Y-75852779D02*
X130570000Y-75527221D01*
X129550000Y-75852779D02*
X129550000Y-75527221D01*
X138508578Y-69540000D02*
X137991422Y-69540000D01*
X138508578Y-70960000D02*
X137991422Y-70960000D01*
X60020000Y-63620000D02*
X60020000Y-67070000D01*
X60020000Y-63620000D02*
X60020000Y-61670000D01*
X65140000Y-63620000D02*
X65140000Y-65570000D01*
X65140000Y-63620000D02*
X65140000Y-61670000D01*
X87960000Y-62950000D02*
X87960000Y-66400000D01*
X87960000Y-62950000D02*
X87960000Y-61000000D01*
X93080000Y-62950000D02*
X93080000Y-64900000D01*
X93080000Y-62950000D02*
X93080000Y-61000000D01*
X83510000Y-63662779D02*
X83510000Y-63337221D01*
X82490000Y-63662779D02*
X82490000Y-63337221D01*
X94690000Y-70087221D02*
X94690000Y-70412779D01*
X95710000Y-70087221D02*
X95710000Y-70412779D01*
X106010000Y-63162779D02*
X106010000Y-62837221D01*
X104990000Y-63162779D02*
X104990000Y-62837221D01*
X95710000Y-73412779D02*
X95710000Y-73087221D01*
X94690000Y-73412779D02*
X94690000Y-73087221D01*
X79610000Y-44622064D02*
X79610000Y-41817936D01*
X76890000Y-44622064D02*
X76890000Y-41817936D01*
X107360000Y-44122064D02*
X107360000Y-41317936D01*
X104640000Y-44122064D02*
X104640000Y-41317936D01*
X68440000Y-63782779D02*
X68440000Y-63457221D01*
X67420000Y-63782779D02*
X67420000Y-63457221D01*
X61662779Y-56990000D02*
X61337221Y-56990000D01*
X61662779Y-58010000D02*
X61337221Y-58010000D01*
X96380000Y-63282779D02*
X96380000Y-62957221D01*
X95360000Y-63282779D02*
X95360000Y-62957221D01*
X89162779Y-56490000D02*
X88837221Y-56490000D01*
X89162779Y-57510000D02*
X88837221Y-57510000D01*
X58162779Y-61990000D02*
X57837221Y-61990000D01*
X58162779Y-63010000D02*
X57837221Y-63010000D01*
X86162779Y-61490000D02*
X85837221Y-61490000D01*
X86162779Y-62510000D02*
X85837221Y-62510000D01*
X116162779Y-56490000D02*
X115837221Y-56490000D01*
X116162779Y-57510000D02*
X115837221Y-57510000D01*
X73745000Y-40730000D02*
X73745000Y-41830000D01*
X75555000Y-40730000D02*
X73745000Y-40730000D01*
X75555000Y-39230000D02*
X75555000Y-40730000D01*
X66965000Y-40730000D02*
X66965000Y-45855000D01*
X65155000Y-40730000D02*
X66965000Y-40730000D01*
X65155000Y-39230000D02*
X65155000Y-40730000D01*
X103550000Y-48220000D02*
X104650000Y-48220000D01*
X103550000Y-46410000D02*
X103550000Y-48220000D01*
X102050000Y-46410000D02*
X103550000Y-46410000D01*
X103550000Y-55000000D02*
X108675000Y-55000000D01*
X103550000Y-56810000D02*
X103550000Y-55000000D01*
X102050000Y-56810000D02*
X103550000Y-56810000D01*
X101450000Y-40500000D02*
X101450000Y-41600000D01*
X103260000Y-40500000D02*
X101450000Y-40500000D01*
X103260000Y-39000000D02*
X103260000Y-40500000D01*
X94670000Y-40500000D02*
X94670000Y-45625000D01*
X92860000Y-40500000D02*
X94670000Y-40500000D01*
X92860000Y-39000000D02*
X92860000Y-40500000D01*
X130410000Y-48220000D02*
X131510000Y-48220000D01*
X130410000Y-46410000D02*
X130410000Y-48220000D01*
X128910000Y-46410000D02*
X130410000Y-46410000D01*
X130410000Y-55000000D02*
X135535000Y-55000000D01*
X130410000Y-56810000D02*
X130410000Y-55000000D01*
X128910000Y-56810000D02*
X130410000Y-56810000D01*
X76540000Y-36991422D02*
X76540000Y-37508578D01*
X77960000Y-36991422D02*
X77960000Y-37508578D01*
X104290000Y-36991422D02*
X104290000Y-37508578D01*
X105710000Y-36991422D02*
X105710000Y-37508578D01*
X79140000Y-36897936D02*
X79140000Y-38102064D01*
X81860000Y-36897936D02*
X81860000Y-38102064D01*
X106640000Y-36397936D02*
X106640000Y-37602064D01*
X109360000Y-36397936D02*
X109360000Y-37602064D01*
X61337221Y-59510000D02*
X61662779Y-59510000D01*
X61337221Y-58490000D02*
X61662779Y-58490000D01*
X89087221Y-59010000D02*
X89412779Y-59010000D01*
X89087221Y-57990000D02*
X89412779Y-57990000D01*
X93820000Y-62957221D02*
X93820000Y-63282779D01*
X94840000Y-62957221D02*
X94840000Y-63282779D01*
X65880000Y-63457221D02*
X65880000Y-63782779D01*
X66900000Y-63457221D02*
X66900000Y-63782779D01*
X120680000Y-62957221D02*
X120680000Y-63282779D01*
X121700000Y-62957221D02*
X121700000Y-63282779D01*
X114820000Y-63120000D02*
X114820000Y-66570000D01*
X114820000Y-63120000D02*
X114820000Y-61170000D01*
X119940000Y-63120000D02*
X119940000Y-65070000D01*
X119940000Y-63120000D02*
X119940000Y-61170000D01*
X78990000Y-74860000D02*
X78990000Y-76150000D01*
X78540000Y-74860000D02*
X78990000Y-74860000D01*
X78540000Y-74410000D02*
X78540000Y-74860000D01*
X78540000Y-67640000D02*
X78990000Y-67640000D01*
X78540000Y-68090000D02*
X78540000Y-67640000D01*
X85760000Y-74860000D02*
X85310000Y-74860000D01*
X85760000Y-74410000D02*
X85760000Y-74860000D01*
X85760000Y-67640000D02*
X85310000Y-67640000D01*
X85760000Y-68090000D02*
X85760000Y-67640000D01*
D11*
X137215000Y-76695000D02*
X138615000Y-76695000D01*
X137215000Y-71595000D02*
X133065000Y-71595000D01*
X137215000Y-76745000D02*
X133065000Y-76745000D01*
X137215000Y-71595000D02*
X137215000Y-71740000D01*
X133065000Y-71595000D02*
X133065000Y-71740000D01*
X133065000Y-76745000D02*
X133065000Y-76600000D01*
X137215000Y-76745000D02*
X137215000Y-76695000D01*
D10*
X129510000Y-63162779D02*
X129510000Y-62837221D01*
X128490000Y-63162779D02*
X128490000Y-62837221D01*
X89990000Y-76137221D02*
X89990000Y-76462779D01*
X91010000Y-76137221D02*
X91010000Y-76462779D01*
X123240000Y-63282779D02*
X123240000Y-62957221D01*
X122220000Y-63282779D02*
X122220000Y-62957221D01*
X113162779Y-61490000D02*
X112837221Y-61490000D01*
X113162779Y-62510000D02*
X112837221Y-62510000D01*
X134110000Y-44122064D02*
X134110000Y-41317936D01*
X131390000Y-44122064D02*
X131390000Y-41317936D01*
X128310000Y-40500000D02*
X128310000Y-41600000D01*
X130120000Y-40500000D02*
X128310000Y-40500000D01*
X130120000Y-39000000D02*
X130120000Y-40500000D01*
X121530000Y-40500000D02*
X121530000Y-45625000D01*
X119720000Y-40500000D02*
X121530000Y-40500000D01*
X119720000Y-39000000D02*
X119720000Y-40500000D01*
X131040000Y-36991422D02*
X131040000Y-37508578D01*
X132460000Y-36991422D02*
X132460000Y-37508578D01*
X115947221Y-59010000D02*
X116272779Y-59010000D01*
X115947221Y-57990000D02*
X116272779Y-57990000D01*
X133140000Y-36397936D02*
X133140000Y-37602064D01*
X135860000Y-36397936D02*
X135860000Y-37602064D01*
D11*
X90972380Y-70527857D02*
X90496190Y-70861190D01*
X90972380Y-71099285D02*
X89972380Y-71099285D01*
X89972380Y-70718333D01*
X90020000Y-70623095D01*
X90067619Y-70575476D01*
X90162857Y-70527857D01*
X90305714Y-70527857D01*
X90400952Y-70575476D01*
X90448571Y-70623095D01*
X90496190Y-70718333D01*
X90496190Y-71099285D01*
X90305714Y-69670714D02*
X90972380Y-69670714D01*
X89924761Y-69908809D02*
X90639047Y-70146904D01*
X90639047Y-69527857D01*
X90400952Y-69004047D02*
X90353333Y-69099285D01*
X90305714Y-69146904D01*
X90210476Y-69194523D01*
X90162857Y-69194523D01*
X90067619Y-69146904D01*
X90020000Y-69099285D01*
X89972380Y-69004047D01*
X89972380Y-68813571D01*
X90020000Y-68718333D01*
X90067619Y-68670714D01*
X90162857Y-68623095D01*
X90210476Y-68623095D01*
X90305714Y-68670714D01*
X90353333Y-68718333D01*
X90400952Y-68813571D01*
X90400952Y-69004047D01*
X90448571Y-69099285D01*
X90496190Y-69146904D01*
X90591428Y-69194523D01*
X90781904Y-69194523D01*
X90877142Y-69146904D01*
X90924761Y-69099285D01*
X90972380Y-69004047D01*
X90972380Y-68813571D01*
X90924761Y-68718333D01*
X90877142Y-68670714D01*
X90781904Y-68623095D01*
X90591428Y-68623095D01*
X90496190Y-68670714D01*
X90448571Y-68718333D01*
X90400952Y-68813571D01*
X88207142Y-70632380D02*
X87873809Y-70156190D01*
X87635714Y-70632380D02*
X87635714Y-69632380D01*
X88016666Y-69632380D01*
X88111904Y-69680000D01*
X88159523Y-69727619D01*
X88207142Y-69822857D01*
X88207142Y-69965714D01*
X88159523Y-70060952D01*
X88111904Y-70108571D01*
X88016666Y-70156190D01*
X87635714Y-70156190D01*
X89064285Y-69965714D02*
X89064285Y-70632380D01*
X88826190Y-69584761D02*
X88588095Y-70299047D01*
X89207142Y-70299047D01*
X89492857Y-69632380D02*
X90159523Y-69632380D01*
X89730952Y-70632380D01*
X93066666Y-70552380D02*
X93066666Y-71266666D01*
X93019047Y-71409523D01*
X92923809Y-71504761D01*
X92780952Y-71552380D01*
X92685714Y-71552380D01*
X93971428Y-70552380D02*
X93780952Y-70552380D01*
X93685714Y-70600000D01*
X93638095Y-70647619D01*
X93542857Y-70790476D01*
X93495238Y-70980952D01*
X93495238Y-71361904D01*
X93542857Y-71457142D01*
X93590476Y-71504761D01*
X93685714Y-71552380D01*
X93876190Y-71552380D01*
X93971428Y-71504761D01*
X94019047Y-71457142D01*
X94066666Y-71361904D01*
X94066666Y-71123809D01*
X94019047Y-71028571D01*
X93971428Y-70980952D01*
X93876190Y-70933333D01*
X93685714Y-70933333D01*
X93590476Y-70980952D01*
X93542857Y-71028571D01*
X93495238Y-71123809D01*
X57485714Y-67952380D02*
X57485714Y-66952380D01*
X57723809Y-66952380D01*
X57866666Y-67000000D01*
X57961904Y-67095238D01*
X58009523Y-67190476D01*
X58057142Y-67380952D01*
X58057142Y-67523809D01*
X58009523Y-67714285D01*
X57961904Y-67809523D01*
X57866666Y-67904761D01*
X57723809Y-67952380D01*
X57485714Y-67952380D01*
X59009523Y-67952380D02*
X58438095Y-67952380D01*
X58723809Y-67952380D02*
X58723809Y-66952380D01*
X58628571Y-67095238D01*
X58533333Y-67190476D01*
X58438095Y-67238095D01*
X59580952Y-67380952D02*
X59485714Y-67333333D01*
X59438095Y-67285714D01*
X59390476Y-67190476D01*
X59390476Y-67142857D01*
X59438095Y-67047619D01*
X59485714Y-67000000D01*
X59580952Y-66952380D01*
X59771428Y-66952380D01*
X59866666Y-67000000D01*
X59914285Y-67047619D01*
X59961904Y-67142857D01*
X59961904Y-67190476D01*
X59914285Y-67285714D01*
X59866666Y-67333333D01*
X59771428Y-67380952D01*
X59580952Y-67380952D01*
X59485714Y-67428571D01*
X59438095Y-67476190D01*
X59390476Y-67571428D01*
X59390476Y-67761904D01*
X59438095Y-67857142D01*
X59485714Y-67904761D01*
X59580952Y-67952380D01*
X59771428Y-67952380D01*
X59866666Y-67904761D01*
X59914285Y-67857142D01*
X59961904Y-67761904D01*
X59961904Y-67571428D01*
X59914285Y-67476190D01*
X59866666Y-67428571D01*
X59771428Y-67380952D01*
X63352380Y-71214285D02*
X62352380Y-71214285D01*
X62352380Y-70976190D01*
X62400000Y-70833333D01*
X62495238Y-70738095D01*
X62590476Y-70690476D01*
X62780952Y-70642857D01*
X62923809Y-70642857D01*
X63114285Y-70690476D01*
X63209523Y-70738095D01*
X63304761Y-70833333D01*
X63352380Y-70976190D01*
X63352380Y-71214285D01*
X63352380Y-69690476D02*
X63352380Y-70261904D01*
X63352380Y-69976190D02*
X62352380Y-69976190D01*
X62495238Y-70071428D01*
X62590476Y-70166666D01*
X62638095Y-70261904D01*
X62352380Y-69357142D02*
X62352380Y-68690476D01*
X63352380Y-69119047D01*
X45285714Y-77452380D02*
X45285714Y-76452380D01*
X45523809Y-76452380D01*
X45666666Y-76500000D01*
X45761904Y-76595238D01*
X45809523Y-76690476D01*
X45857142Y-76880952D01*
X45857142Y-77023809D01*
X45809523Y-77214285D01*
X45761904Y-77309523D01*
X45666666Y-77404761D01*
X45523809Y-77452380D01*
X45285714Y-77452380D01*
X46809523Y-77452380D02*
X46238095Y-77452380D01*
X46523809Y-77452380D02*
X46523809Y-76452380D01*
X46428571Y-76595238D01*
X46333333Y-76690476D01*
X46238095Y-76738095D01*
X47666666Y-76452380D02*
X47476190Y-76452380D01*
X47380952Y-76500000D01*
X47333333Y-76547619D01*
X47238095Y-76690476D01*
X47190476Y-76880952D01*
X47190476Y-77261904D01*
X47238095Y-77357142D01*
X47285714Y-77404761D01*
X47380952Y-77452380D01*
X47571428Y-77452380D01*
X47666666Y-77404761D01*
X47714285Y-77357142D01*
X47761904Y-77261904D01*
X47761904Y-77023809D01*
X47714285Y-76928571D01*
X47666666Y-76880952D01*
X47571428Y-76833333D01*
X47380952Y-76833333D01*
X47285714Y-76880952D01*
X47238095Y-76928571D01*
X47190476Y-77023809D01*
X49061904Y-67252380D02*
X49061904Y-66252380D01*
X49300000Y-66252380D01*
X49442857Y-66300000D01*
X49538095Y-66395238D01*
X49585714Y-66490476D01*
X49633333Y-66680952D01*
X49633333Y-66823809D01*
X49585714Y-67014285D01*
X49538095Y-67109523D01*
X49442857Y-67204761D01*
X49300000Y-67252380D01*
X49061904Y-67252380D01*
X50490476Y-66585714D02*
X50490476Y-67252380D01*
X50252380Y-66204761D02*
X50014285Y-66919047D01*
X50633333Y-66919047D01*
X53257142Y-73642857D02*
X53304761Y-73690476D01*
X53352380Y-73833333D01*
X53352380Y-73928571D01*
X53304761Y-74071428D01*
X53209523Y-74166666D01*
X53114285Y-74214285D01*
X52923809Y-74261904D01*
X52780952Y-74261904D01*
X52590476Y-74214285D01*
X52495238Y-74166666D01*
X52400000Y-74071428D01*
X52352380Y-73928571D01*
X52352380Y-73833333D01*
X52400000Y-73690476D01*
X52447619Y-73642857D01*
X52352380Y-73309523D02*
X52352380Y-72690476D01*
X52733333Y-73023809D01*
X52733333Y-72880952D01*
X52780952Y-72785714D01*
X52828571Y-72738095D01*
X52923809Y-72690476D01*
X53161904Y-72690476D01*
X53257142Y-72738095D01*
X53304761Y-72785714D01*
X53352380Y-72880952D01*
X53352380Y-73166666D01*
X53304761Y-73261904D01*
X53257142Y-73309523D01*
X53352380Y-72214285D02*
X53352380Y-72023809D01*
X53304761Y-71928571D01*
X53257142Y-71880952D01*
X53114285Y-71785714D01*
X52923809Y-71738095D01*
X52542857Y-71738095D01*
X52447619Y-71785714D01*
X52400000Y-71833333D01*
X52352380Y-71928571D01*
X52352380Y-72119047D01*
X52400000Y-72214285D01*
X52447619Y-72261904D01*
X52542857Y-72309523D01*
X52780952Y-72309523D01*
X52876190Y-72261904D01*
X52923809Y-72214285D01*
X52971428Y-72119047D01*
X52971428Y-71928571D01*
X52923809Y-71833333D01*
X52876190Y-71785714D01*
X52780952Y-71738095D01*
X66057142Y-69652380D02*
X65723809Y-69176190D01*
X65485714Y-69652380D02*
X65485714Y-68652380D01*
X65866666Y-68652380D01*
X65961904Y-68700000D01*
X66009523Y-68747619D01*
X66057142Y-68842857D01*
X66057142Y-68985714D01*
X66009523Y-69080952D01*
X65961904Y-69128571D01*
X65866666Y-69176190D01*
X65485714Y-69176190D01*
X66390476Y-68652380D02*
X67009523Y-68652380D01*
X66676190Y-69033333D01*
X66819047Y-69033333D01*
X66914285Y-69080952D01*
X66961904Y-69128571D01*
X67009523Y-69223809D01*
X67009523Y-69461904D01*
X66961904Y-69557142D01*
X66914285Y-69604761D01*
X66819047Y-69652380D01*
X66533333Y-69652380D01*
X66438095Y-69604761D01*
X66390476Y-69557142D01*
X67866666Y-68985714D02*
X67866666Y-69652380D01*
X67628571Y-68604761D02*
X67390476Y-69319047D01*
X68009523Y-69319047D01*
X72157142Y-72052380D02*
X71823809Y-71576190D01*
X71585714Y-72052380D02*
X71585714Y-71052380D01*
X71966666Y-71052380D01*
X72061904Y-71100000D01*
X72109523Y-71147619D01*
X72157142Y-71242857D01*
X72157142Y-71385714D01*
X72109523Y-71480952D01*
X72061904Y-71528571D01*
X71966666Y-71576190D01*
X71585714Y-71576190D01*
X73014285Y-71385714D02*
X73014285Y-72052380D01*
X72776190Y-71004761D02*
X72538095Y-71719047D01*
X73157142Y-71719047D01*
X73966666Y-71052380D02*
X73776190Y-71052380D01*
X73680952Y-71100000D01*
X73633333Y-71147619D01*
X73538095Y-71290476D01*
X73490476Y-71480952D01*
X73490476Y-71861904D01*
X73538095Y-71957142D01*
X73585714Y-72004761D01*
X73680952Y-72052380D01*
X73871428Y-72052380D01*
X73966666Y-72004761D01*
X74014285Y-71957142D01*
X74061904Y-71861904D01*
X74061904Y-71623809D01*
X74014285Y-71528571D01*
X73966666Y-71480952D01*
X73871428Y-71433333D01*
X73680952Y-71433333D01*
X73585714Y-71480952D01*
X73538095Y-71528571D01*
X73490476Y-71623809D01*
X69057142Y-69852380D02*
X68723809Y-69376190D01*
X68485714Y-69852380D02*
X68485714Y-68852380D01*
X68866666Y-68852380D01*
X68961904Y-68900000D01*
X69009523Y-68947619D01*
X69057142Y-69042857D01*
X69057142Y-69185714D01*
X69009523Y-69280952D01*
X68961904Y-69328571D01*
X68866666Y-69376190D01*
X68485714Y-69376190D01*
X69390476Y-68852380D02*
X70009523Y-68852380D01*
X69676190Y-69233333D01*
X69819047Y-69233333D01*
X69914285Y-69280952D01*
X69961904Y-69328571D01*
X70009523Y-69423809D01*
X70009523Y-69661904D01*
X69961904Y-69757142D01*
X69914285Y-69804761D01*
X69819047Y-69852380D01*
X69533333Y-69852380D01*
X69438095Y-69804761D01*
X69390476Y-69757142D01*
X70914285Y-68852380D02*
X70438095Y-68852380D01*
X70390476Y-69328571D01*
X70438095Y-69280952D01*
X70533333Y-69233333D01*
X70771428Y-69233333D01*
X70866666Y-69280952D01*
X70914285Y-69328571D01*
X70961904Y-69423809D01*
X70961904Y-69661904D01*
X70914285Y-69757142D01*
X70866666Y-69804761D01*
X70771428Y-69852380D01*
X70533333Y-69852380D01*
X70438095Y-69804761D01*
X70390476Y-69757142D01*
X109757142Y-76442857D02*
X109804761Y-76490476D01*
X109852380Y-76633333D01*
X109852380Y-76728571D01*
X109804761Y-76871428D01*
X109709523Y-76966666D01*
X109614285Y-77014285D01*
X109423809Y-77061904D01*
X109280952Y-77061904D01*
X109090476Y-77014285D01*
X108995238Y-76966666D01*
X108900000Y-76871428D01*
X108852380Y-76728571D01*
X108852380Y-76633333D01*
X108900000Y-76490476D01*
X108947619Y-76442857D01*
X108852380Y-76109523D02*
X108852380Y-75490476D01*
X109233333Y-75823809D01*
X109233333Y-75680952D01*
X109280952Y-75585714D01*
X109328571Y-75538095D01*
X109423809Y-75490476D01*
X109661904Y-75490476D01*
X109757142Y-75538095D01*
X109804761Y-75585714D01*
X109852380Y-75680952D01*
X109852380Y-75966666D01*
X109804761Y-76061904D01*
X109757142Y-76109523D01*
X109185714Y-74633333D02*
X109852380Y-74633333D01*
X108804761Y-74871428D02*
X109519047Y-75109523D01*
X109519047Y-74490476D01*
X107157142Y-71842857D02*
X107204761Y-71890476D01*
X107252380Y-72033333D01*
X107252380Y-72128571D01*
X107204761Y-72271428D01*
X107109523Y-72366666D01*
X107014285Y-72414285D01*
X106823809Y-72461904D01*
X106680952Y-72461904D01*
X106490476Y-72414285D01*
X106395238Y-72366666D01*
X106300000Y-72271428D01*
X106252380Y-72128571D01*
X106252380Y-72033333D01*
X106300000Y-71890476D01*
X106347619Y-71842857D01*
X106252380Y-71509523D02*
X106252380Y-70890476D01*
X106633333Y-71223809D01*
X106633333Y-71080952D01*
X106680952Y-70985714D01*
X106728571Y-70938095D01*
X106823809Y-70890476D01*
X107061904Y-70890476D01*
X107157142Y-70938095D01*
X107204761Y-70985714D01*
X107252380Y-71080952D01*
X107252380Y-71366666D01*
X107204761Y-71461904D01*
X107157142Y-71509523D01*
X106252380Y-70271428D02*
X106252380Y-70176190D01*
X106300000Y-70080952D01*
X106347619Y-70033333D01*
X106442857Y-69985714D01*
X106633333Y-69938095D01*
X106871428Y-69938095D01*
X107061904Y-69985714D01*
X107157142Y-70033333D01*
X107204761Y-70080952D01*
X107252380Y-70176190D01*
X107252380Y-70271428D01*
X107204761Y-70366666D01*
X107157142Y-70414285D01*
X107061904Y-70461904D01*
X106871428Y-70509523D01*
X106633333Y-70509523D01*
X106442857Y-70461904D01*
X106347619Y-70414285D01*
X106300000Y-70366666D01*
X106252380Y-70271428D01*
X113757142Y-69842857D02*
X113804761Y-69890476D01*
X113852380Y-70033333D01*
X113852380Y-70128571D01*
X113804761Y-70271428D01*
X113709523Y-70366666D01*
X113614285Y-70414285D01*
X113423809Y-70461904D01*
X113280952Y-70461904D01*
X113090476Y-70414285D01*
X112995238Y-70366666D01*
X112900000Y-70271428D01*
X112852380Y-70128571D01*
X112852380Y-70033333D01*
X112900000Y-69890476D01*
X112947619Y-69842857D01*
X112852380Y-69509523D02*
X112852380Y-68890476D01*
X113233333Y-69223809D01*
X113233333Y-69080952D01*
X113280952Y-68985714D01*
X113328571Y-68938095D01*
X113423809Y-68890476D01*
X113661904Y-68890476D01*
X113757142Y-68938095D01*
X113804761Y-68985714D01*
X113852380Y-69080952D01*
X113852380Y-69366666D01*
X113804761Y-69461904D01*
X113757142Y-69509523D01*
X112852380Y-67985714D02*
X112852380Y-68461904D01*
X113328571Y-68509523D01*
X113280952Y-68461904D01*
X113233333Y-68366666D01*
X113233333Y-68128571D01*
X113280952Y-68033333D01*
X113328571Y-67985714D01*
X113423809Y-67938095D01*
X113661904Y-67938095D01*
X113757142Y-67985714D01*
X113804761Y-68033333D01*
X113852380Y-68128571D01*
X113852380Y-68366666D01*
X113804761Y-68461904D01*
X113757142Y-68509523D01*
X110252380Y-76161904D02*
X111061904Y-76161904D01*
X111157142Y-76114285D01*
X111204761Y-76066666D01*
X111252380Y-75971428D01*
X111252380Y-75780952D01*
X111204761Y-75685714D01*
X111157142Y-75638095D01*
X111061904Y-75590476D01*
X110252380Y-75590476D01*
X110252380Y-75209523D02*
X110252380Y-74542857D01*
X111252380Y-74971428D01*
X74357142Y-46852380D02*
X74023809Y-46376190D01*
X73785714Y-46852380D02*
X73785714Y-45852380D01*
X74166666Y-45852380D01*
X74261904Y-45900000D01*
X74309523Y-45947619D01*
X74357142Y-46042857D01*
X74357142Y-46185714D01*
X74309523Y-46280952D01*
X74261904Y-46328571D01*
X74166666Y-46376190D01*
X73785714Y-46376190D01*
X75214285Y-46185714D02*
X75214285Y-46852380D01*
X74976190Y-45804761D02*
X74738095Y-46519047D01*
X75357142Y-46519047D01*
X76214285Y-45852380D02*
X75738095Y-45852380D01*
X75690476Y-46328571D01*
X75738095Y-46280952D01*
X75833333Y-46233333D01*
X76071428Y-46233333D01*
X76166666Y-46280952D01*
X76214285Y-46328571D01*
X76261904Y-46423809D01*
X76261904Y-46661904D01*
X76214285Y-46757142D01*
X76166666Y-46804761D01*
X76071428Y-46852380D01*
X75833333Y-46852380D01*
X75738095Y-46804761D01*
X75690476Y-46757142D01*
X102107142Y-46452380D02*
X101773809Y-45976190D01*
X101535714Y-46452380D02*
X101535714Y-45452380D01*
X101916666Y-45452380D01*
X102011904Y-45500000D01*
X102059523Y-45547619D01*
X102107142Y-45642857D01*
X102107142Y-45785714D01*
X102059523Y-45880952D01*
X102011904Y-45928571D01*
X101916666Y-45976190D01*
X101535714Y-45976190D01*
X102964285Y-45785714D02*
X102964285Y-46452380D01*
X102726190Y-45404761D02*
X102488095Y-46119047D01*
X103107142Y-46119047D01*
X103916666Y-45785714D02*
X103916666Y-46452380D01*
X103678571Y-45404761D02*
X103440476Y-46119047D01*
X104059523Y-46119047D01*
X128857142Y-46452380D02*
X128523809Y-45976190D01*
X128285714Y-46452380D02*
X128285714Y-45452380D01*
X128666666Y-45452380D01*
X128761904Y-45500000D01*
X128809523Y-45547619D01*
X128857142Y-45642857D01*
X128857142Y-45785714D01*
X128809523Y-45880952D01*
X128761904Y-45928571D01*
X128666666Y-45976190D01*
X128285714Y-45976190D01*
X129714285Y-45785714D02*
X129714285Y-46452380D01*
X129476190Y-45404761D02*
X129238095Y-46119047D01*
X129857142Y-46119047D01*
X130142857Y-45452380D02*
X130761904Y-45452380D01*
X130428571Y-45833333D01*
X130571428Y-45833333D01*
X130666666Y-45880952D01*
X130714285Y-45928571D01*
X130761904Y-46023809D01*
X130761904Y-46261904D01*
X130714285Y-46357142D01*
X130666666Y-46404761D01*
X130571428Y-46452380D01*
X130285714Y-46452380D01*
X130190476Y-46404761D01*
X130142857Y-46357142D01*
X137966666Y-67328571D02*
X137633333Y-67328571D01*
X137633333Y-67852380D02*
X137633333Y-66852380D01*
X138109523Y-66852380D01*
X138823809Y-67328571D02*
X138966666Y-67376190D01*
X139014285Y-67423809D01*
X139061904Y-67519047D01*
X139061904Y-67661904D01*
X139014285Y-67757142D01*
X138966666Y-67804761D01*
X138871428Y-67852380D01*
X138490476Y-67852380D01*
X138490476Y-66852380D01*
X138823809Y-66852380D01*
X138919047Y-66900000D01*
X138966666Y-66947619D01*
X139014285Y-67042857D01*
X139014285Y-67138095D01*
X138966666Y-67233333D01*
X138919047Y-67280952D01*
X138823809Y-67328571D01*
X138490476Y-67328571D01*
X140014285Y-67852380D02*
X139442857Y-67852380D01*
X139728571Y-67852380D02*
X139728571Y-66852380D01*
X139633333Y-66995238D01*
X139538095Y-67090476D01*
X139442857Y-67138095D01*
X74757142Y-43242857D02*
X74804761Y-43290476D01*
X74852380Y-43433333D01*
X74852380Y-43528571D01*
X74804761Y-43671428D01*
X74709523Y-43766666D01*
X74614285Y-43814285D01*
X74423809Y-43861904D01*
X74280952Y-43861904D01*
X74090476Y-43814285D01*
X73995238Y-43766666D01*
X73900000Y-43671428D01*
X73852380Y-43528571D01*
X73852380Y-43433333D01*
X73900000Y-43290476D01*
X73947619Y-43242857D01*
X73852380Y-42909523D02*
X73852380Y-42290476D01*
X74233333Y-42623809D01*
X74233333Y-42480952D01*
X74280952Y-42385714D01*
X74328571Y-42338095D01*
X74423809Y-42290476D01*
X74661904Y-42290476D01*
X74757142Y-42338095D01*
X74804761Y-42385714D01*
X74852380Y-42480952D01*
X74852380Y-42766666D01*
X74804761Y-42861904D01*
X74757142Y-42909523D01*
X74280952Y-41719047D02*
X74233333Y-41814285D01*
X74185714Y-41861904D01*
X74090476Y-41909523D01*
X74042857Y-41909523D01*
X73947619Y-41861904D01*
X73900000Y-41814285D01*
X73852380Y-41719047D01*
X73852380Y-41528571D01*
X73900000Y-41433333D01*
X73947619Y-41385714D01*
X74042857Y-41338095D01*
X74090476Y-41338095D01*
X74185714Y-41385714D01*
X74233333Y-41433333D01*
X74280952Y-41528571D01*
X74280952Y-41719047D01*
X74328571Y-41814285D01*
X74376190Y-41861904D01*
X74471428Y-41909523D01*
X74661904Y-41909523D01*
X74757142Y-41861904D01*
X74804761Y-41814285D01*
X74852380Y-41719047D01*
X74852380Y-41528571D01*
X74804761Y-41433333D01*
X74757142Y-41385714D01*
X74661904Y-41338095D01*
X74471428Y-41338095D01*
X74376190Y-41385714D01*
X74328571Y-41433333D01*
X74280952Y-41528571D01*
X102357142Y-43042857D02*
X102404761Y-43090476D01*
X102452380Y-43233333D01*
X102452380Y-43328571D01*
X102404761Y-43471428D01*
X102309523Y-43566666D01*
X102214285Y-43614285D01*
X102023809Y-43661904D01*
X101880952Y-43661904D01*
X101690476Y-43614285D01*
X101595238Y-43566666D01*
X101500000Y-43471428D01*
X101452380Y-43328571D01*
X101452380Y-43233333D01*
X101500000Y-43090476D01*
X101547619Y-43042857D01*
X101452380Y-42709523D02*
X101452380Y-42090476D01*
X101833333Y-42423809D01*
X101833333Y-42280952D01*
X101880952Y-42185714D01*
X101928571Y-42138095D01*
X102023809Y-42090476D01*
X102261904Y-42090476D01*
X102357142Y-42138095D01*
X102404761Y-42185714D01*
X102452380Y-42280952D01*
X102452380Y-42566666D01*
X102404761Y-42661904D01*
X102357142Y-42709523D01*
X101452380Y-41757142D02*
X101452380Y-41090476D01*
X102452380Y-41519047D01*
X129157142Y-42842857D02*
X129204761Y-42890476D01*
X129252380Y-43033333D01*
X129252380Y-43128571D01*
X129204761Y-43271428D01*
X129109523Y-43366666D01*
X129014285Y-43414285D01*
X128823809Y-43461904D01*
X128680952Y-43461904D01*
X128490476Y-43414285D01*
X128395238Y-43366666D01*
X128300000Y-43271428D01*
X128252380Y-43128571D01*
X128252380Y-43033333D01*
X128300000Y-42890476D01*
X128347619Y-42842857D01*
X128252380Y-42509523D02*
X128252380Y-41890476D01*
X128633333Y-42223809D01*
X128633333Y-42080952D01*
X128680952Y-41985714D01*
X128728571Y-41938095D01*
X128823809Y-41890476D01*
X129061904Y-41890476D01*
X129157142Y-41938095D01*
X129204761Y-41985714D01*
X129252380Y-42080952D01*
X129252380Y-42366666D01*
X129204761Y-42461904D01*
X129157142Y-42509523D01*
X128252380Y-41033333D02*
X128252380Y-41223809D01*
X128300000Y-41319047D01*
X128347619Y-41366666D01*
X128490476Y-41461904D01*
X128680952Y-41509523D01*
X129061904Y-41509523D01*
X129157142Y-41461904D01*
X129204761Y-41414285D01*
X129252380Y-41319047D01*
X129252380Y-41128571D01*
X129204761Y-41033333D01*
X129157142Y-40985714D01*
X129061904Y-40938095D01*
X128823809Y-40938095D01*
X128728571Y-40985714D01*
X128680952Y-41033333D01*
X128633333Y-41128571D01*
X128633333Y-41319047D01*
X128680952Y-41414285D01*
X128728571Y-41461904D01*
X128823809Y-41509523D01*
X69057142Y-71252380D02*
X68723809Y-70776190D01*
X68485714Y-71252380D02*
X68485714Y-70252380D01*
X68866666Y-70252380D01*
X68961904Y-70300000D01*
X69009523Y-70347619D01*
X69057142Y-70442857D01*
X69057142Y-70585714D01*
X69009523Y-70680952D01*
X68961904Y-70728571D01*
X68866666Y-70776190D01*
X68485714Y-70776190D01*
X69914285Y-70585714D02*
X69914285Y-71252380D01*
X69676190Y-70204761D02*
X69438095Y-70919047D01*
X70057142Y-70919047D01*
X70390476Y-70347619D02*
X70438095Y-70300000D01*
X70533333Y-70252380D01*
X70771428Y-70252380D01*
X70866666Y-70300000D01*
X70914285Y-70347619D01*
X70961904Y-70442857D01*
X70961904Y-70538095D01*
X70914285Y-70680952D01*
X70342857Y-71252380D01*
X70961904Y-71252380D01*
X66057142Y-71052380D02*
X65723809Y-70576190D01*
X65485714Y-71052380D02*
X65485714Y-70052380D01*
X65866666Y-70052380D01*
X65961904Y-70100000D01*
X66009523Y-70147619D01*
X66057142Y-70242857D01*
X66057142Y-70385714D01*
X66009523Y-70480952D01*
X65961904Y-70528571D01*
X65866666Y-70576190D01*
X65485714Y-70576190D01*
X66914285Y-70385714D02*
X66914285Y-71052380D01*
X66676190Y-70004761D02*
X66438095Y-70719047D01*
X67057142Y-70719047D01*
X67961904Y-71052380D02*
X67390476Y-71052380D01*
X67676190Y-71052380D02*
X67676190Y-70052380D01*
X67580952Y-70195238D01*
X67485714Y-70290476D01*
X67390476Y-70338095D01*
X64852380Y-70642857D02*
X64376190Y-70976190D01*
X64852380Y-71214285D02*
X63852380Y-71214285D01*
X63852380Y-70833333D01*
X63900000Y-70738095D01*
X63947619Y-70690476D01*
X64042857Y-70642857D01*
X64185714Y-70642857D01*
X64280952Y-70690476D01*
X64328571Y-70738095D01*
X64376190Y-70833333D01*
X64376190Y-71214285D01*
X64185714Y-69785714D02*
X64852380Y-69785714D01*
X63804761Y-70023809D02*
X64519047Y-70261904D01*
X64519047Y-69642857D01*
X63852380Y-69071428D02*
X63852380Y-68976190D01*
X63900000Y-68880952D01*
X63947619Y-68833333D01*
X64042857Y-68785714D01*
X64233333Y-68738095D01*
X64471428Y-68738095D01*
X64661904Y-68785714D01*
X64757142Y-68833333D01*
X64804761Y-68880952D01*
X64852380Y-68976190D01*
X64852380Y-69071428D01*
X64804761Y-69166666D01*
X64757142Y-69214285D01*
X64661904Y-69261904D01*
X64471428Y-69309523D01*
X64233333Y-69309523D01*
X64042857Y-69261904D01*
X63947619Y-69214285D01*
X63900000Y-69166666D01*
X63852380Y-69071428D01*
X104488095Y-72452380D02*
X104488095Y-73261904D01*
X104535714Y-73357142D01*
X104583333Y-73404761D01*
X104678571Y-73452380D01*
X104869047Y-73452380D01*
X104964285Y-73404761D01*
X105011904Y-73357142D01*
X105059523Y-73261904D01*
X105059523Y-72452380D01*
X105964285Y-72452380D02*
X105773809Y-72452380D01*
X105678571Y-72500000D01*
X105630952Y-72547619D01*
X105535714Y-72690476D01*
X105488095Y-72880952D01*
X105488095Y-73261904D01*
X105535714Y-73357142D01*
X105583333Y-73404761D01*
X105678571Y-73452380D01*
X105869047Y-73452380D01*
X105964285Y-73404761D01*
X106011904Y-73357142D01*
X106059523Y-73261904D01*
X106059523Y-73023809D01*
X106011904Y-72928571D01*
X105964285Y-72880952D01*
X105869047Y-72833333D01*
X105678571Y-72833333D01*
X105583333Y-72880952D01*
X105535714Y-72928571D01*
X105488095Y-73023809D01*
X56052380Y-70642857D02*
X55576190Y-70976190D01*
X56052380Y-71214285D02*
X55052380Y-71214285D01*
X55052380Y-70833333D01*
X55100000Y-70738095D01*
X55147619Y-70690476D01*
X55242857Y-70642857D01*
X55385714Y-70642857D01*
X55480952Y-70690476D01*
X55528571Y-70738095D01*
X55576190Y-70833333D01*
X55576190Y-71214285D01*
X55052380Y-70309523D02*
X55052380Y-69690476D01*
X55433333Y-70023809D01*
X55433333Y-69880952D01*
X55480952Y-69785714D01*
X55528571Y-69738095D01*
X55623809Y-69690476D01*
X55861904Y-69690476D01*
X55957142Y-69738095D01*
X56004761Y-69785714D01*
X56052380Y-69880952D01*
X56052380Y-70166666D01*
X56004761Y-70261904D01*
X55957142Y-70309523D01*
X56052380Y-69214285D02*
X56052380Y-69023809D01*
X56004761Y-68928571D01*
X55957142Y-68880952D01*
X55814285Y-68785714D01*
X55623809Y-68738095D01*
X55242857Y-68738095D01*
X55147619Y-68785714D01*
X55100000Y-68833333D01*
X55052380Y-68928571D01*
X55052380Y-69119047D01*
X55100000Y-69214285D01*
X55147619Y-69261904D01*
X55242857Y-69309523D01*
X55480952Y-69309523D01*
X55576190Y-69261904D01*
X55623809Y-69214285D01*
X55671428Y-69119047D01*
X55671428Y-68928571D01*
X55623809Y-68833333D01*
X55576190Y-68785714D01*
X55480952Y-68738095D01*
X57652380Y-70642857D02*
X57176190Y-70976190D01*
X57652380Y-71214285D02*
X56652380Y-71214285D01*
X56652380Y-70833333D01*
X56700000Y-70738095D01*
X56747619Y-70690476D01*
X56842857Y-70642857D01*
X56985714Y-70642857D01*
X57080952Y-70690476D01*
X57128571Y-70738095D01*
X57176190Y-70833333D01*
X57176190Y-71214285D01*
X56652380Y-70309523D02*
X56652380Y-69690476D01*
X57033333Y-70023809D01*
X57033333Y-69880952D01*
X57080952Y-69785714D01*
X57128571Y-69738095D01*
X57223809Y-69690476D01*
X57461904Y-69690476D01*
X57557142Y-69738095D01*
X57604761Y-69785714D01*
X57652380Y-69880952D01*
X57652380Y-70166666D01*
X57604761Y-70261904D01*
X57557142Y-70309523D01*
X57080952Y-69119047D02*
X57033333Y-69214285D01*
X56985714Y-69261904D01*
X56890476Y-69309523D01*
X56842857Y-69309523D01*
X56747619Y-69261904D01*
X56700000Y-69214285D01*
X56652380Y-69119047D01*
X56652380Y-68928571D01*
X56700000Y-68833333D01*
X56747619Y-68785714D01*
X56842857Y-68738095D01*
X56890476Y-68738095D01*
X56985714Y-68785714D01*
X57033333Y-68833333D01*
X57080952Y-68928571D01*
X57080952Y-69119047D01*
X57128571Y-69214285D01*
X57176190Y-69261904D01*
X57271428Y-69309523D01*
X57461904Y-69309523D01*
X57557142Y-69261904D01*
X57604761Y-69214285D01*
X57652380Y-69119047D01*
X57652380Y-68928571D01*
X57604761Y-68833333D01*
X57557142Y-68785714D01*
X57461904Y-68738095D01*
X57271428Y-68738095D01*
X57176190Y-68785714D01*
X57128571Y-68833333D01*
X57080952Y-68928571D01*
X61852380Y-70442857D02*
X61376190Y-70776190D01*
X61852380Y-71014285D02*
X60852380Y-71014285D01*
X60852380Y-70633333D01*
X60900000Y-70538095D01*
X60947619Y-70490476D01*
X61042857Y-70442857D01*
X61185714Y-70442857D01*
X61280952Y-70490476D01*
X61328571Y-70538095D01*
X61376190Y-70633333D01*
X61376190Y-71014285D01*
X60852380Y-70109523D02*
X60852380Y-69490476D01*
X61233333Y-69823809D01*
X61233333Y-69680952D01*
X61280952Y-69585714D01*
X61328571Y-69538095D01*
X61423809Y-69490476D01*
X61661904Y-69490476D01*
X61757142Y-69538095D01*
X61804761Y-69585714D01*
X61852380Y-69680952D01*
X61852380Y-69966666D01*
X61804761Y-70061904D01*
X61757142Y-70109523D01*
X60852380Y-69157142D02*
X60852380Y-68490476D01*
X61852380Y-68919047D01*
X49752380Y-76942857D02*
X49276190Y-77276190D01*
X49752380Y-77514285D02*
X48752380Y-77514285D01*
X48752380Y-77133333D01*
X48800000Y-77038095D01*
X48847619Y-76990476D01*
X48942857Y-76942857D01*
X49085714Y-76942857D01*
X49180952Y-76990476D01*
X49228571Y-77038095D01*
X49276190Y-77133333D01*
X49276190Y-77514285D01*
X48752380Y-76609523D02*
X48752380Y-75990476D01*
X49133333Y-76323809D01*
X49133333Y-76180952D01*
X49180952Y-76085714D01*
X49228571Y-76038095D01*
X49323809Y-75990476D01*
X49561904Y-75990476D01*
X49657142Y-76038095D01*
X49704761Y-76085714D01*
X49752380Y-76180952D01*
X49752380Y-76466666D01*
X49704761Y-76561904D01*
X49657142Y-76609523D01*
X48752380Y-75133333D02*
X48752380Y-75323809D01*
X48800000Y-75419047D01*
X48847619Y-75466666D01*
X48990476Y-75561904D01*
X49180952Y-75609523D01*
X49561904Y-75609523D01*
X49657142Y-75561904D01*
X49704761Y-75514285D01*
X49752380Y-75419047D01*
X49752380Y-75228571D01*
X49704761Y-75133333D01*
X49657142Y-75085714D01*
X49561904Y-75038095D01*
X49323809Y-75038095D01*
X49228571Y-75085714D01*
X49180952Y-75133333D01*
X49133333Y-75228571D01*
X49133333Y-75419047D01*
X49180952Y-75514285D01*
X49228571Y-75561904D01*
X49323809Y-75609523D01*
X116833333Y-70252380D02*
X116357142Y-70252380D01*
X116357142Y-69252380D01*
X117119047Y-69347619D02*
X117166666Y-69300000D01*
X117261904Y-69252380D01*
X117500000Y-69252380D01*
X117595238Y-69300000D01*
X117642857Y-69347619D01*
X117690476Y-69442857D01*
X117690476Y-69538095D01*
X117642857Y-69680952D01*
X117071428Y-70252380D01*
X117690476Y-70252380D01*
X138357142Y-34142857D02*
X138404761Y-34190476D01*
X138452380Y-34333333D01*
X138452380Y-34428571D01*
X138404761Y-34571428D01*
X138309523Y-34666666D01*
X138214285Y-34714285D01*
X138023809Y-34761904D01*
X137880952Y-34761904D01*
X137690476Y-34714285D01*
X137595238Y-34666666D01*
X137500000Y-34571428D01*
X137452380Y-34428571D01*
X137452380Y-34333333D01*
X137500000Y-34190476D01*
X137547619Y-34142857D01*
X137452380Y-33809523D02*
X137452380Y-33190476D01*
X137833333Y-33523809D01*
X137833333Y-33380952D01*
X137880952Y-33285714D01*
X137928571Y-33238095D01*
X138023809Y-33190476D01*
X138261904Y-33190476D01*
X138357142Y-33238095D01*
X138404761Y-33285714D01*
X138452380Y-33380952D01*
X138452380Y-33666666D01*
X138404761Y-33761904D01*
X138357142Y-33809523D01*
X137452380Y-32857142D02*
X137452380Y-32238095D01*
X137833333Y-32571428D01*
X137833333Y-32428571D01*
X137880952Y-32333333D01*
X137928571Y-32285714D01*
X138023809Y-32238095D01*
X138261904Y-32238095D01*
X138357142Y-32285714D01*
X138404761Y-32333333D01*
X138452380Y-32428571D01*
X138452380Y-32714285D01*
X138404761Y-32809523D01*
X138357142Y-32857142D01*
X111857142Y-34142857D02*
X111904761Y-34190476D01*
X111952380Y-34333333D01*
X111952380Y-34428571D01*
X111904761Y-34571428D01*
X111809523Y-34666666D01*
X111714285Y-34714285D01*
X111523809Y-34761904D01*
X111380952Y-34761904D01*
X111190476Y-34714285D01*
X111095238Y-34666666D01*
X111000000Y-34571428D01*
X110952380Y-34428571D01*
X110952380Y-34333333D01*
X111000000Y-34190476D01*
X111047619Y-34142857D01*
X110952380Y-33809523D02*
X110952380Y-33190476D01*
X111333333Y-33523809D01*
X111333333Y-33380952D01*
X111380952Y-33285714D01*
X111428571Y-33238095D01*
X111523809Y-33190476D01*
X111761904Y-33190476D01*
X111857142Y-33238095D01*
X111904761Y-33285714D01*
X111952380Y-33380952D01*
X111952380Y-33666666D01*
X111904761Y-33761904D01*
X111857142Y-33809523D01*
X111047619Y-32809523D02*
X111000000Y-32761904D01*
X110952380Y-32666666D01*
X110952380Y-32428571D01*
X111000000Y-32333333D01*
X111047619Y-32285714D01*
X111142857Y-32238095D01*
X111238095Y-32238095D01*
X111380952Y-32285714D01*
X111952380Y-32857142D01*
X111952380Y-32238095D01*
X84357142Y-34142857D02*
X84404761Y-34190476D01*
X84452380Y-34333333D01*
X84452380Y-34428571D01*
X84404761Y-34571428D01*
X84309523Y-34666666D01*
X84214285Y-34714285D01*
X84023809Y-34761904D01*
X83880952Y-34761904D01*
X83690476Y-34714285D01*
X83595238Y-34666666D01*
X83500000Y-34571428D01*
X83452380Y-34428571D01*
X83452380Y-34333333D01*
X83500000Y-34190476D01*
X83547619Y-34142857D01*
X83452380Y-33809523D02*
X83452380Y-33190476D01*
X83833333Y-33523809D01*
X83833333Y-33380952D01*
X83880952Y-33285714D01*
X83928571Y-33238095D01*
X84023809Y-33190476D01*
X84261904Y-33190476D01*
X84357142Y-33238095D01*
X84404761Y-33285714D01*
X84452380Y-33380952D01*
X84452380Y-33666666D01*
X84404761Y-33761904D01*
X84357142Y-33809523D01*
X84452380Y-32238095D02*
X84452380Y-32809523D01*
X84452380Y-32523809D02*
X83452380Y-32523809D01*
X83595238Y-32619047D01*
X83690476Y-32714285D01*
X83738095Y-32809523D01*
X133142380Y-63714285D02*
X132142380Y-63714285D01*
X132142380Y-63476190D01*
X132190000Y-63333333D01*
X132285238Y-63238095D01*
X132380476Y-63190476D01*
X132570952Y-63142857D01*
X132713809Y-63142857D01*
X132904285Y-63190476D01*
X132999523Y-63238095D01*
X133094761Y-63333333D01*
X133142380Y-63476190D01*
X133142380Y-63714285D01*
X133142380Y-62190476D02*
X133142380Y-62761904D01*
X133142380Y-62476190D02*
X132142380Y-62476190D01*
X132285238Y-62571428D01*
X132380476Y-62666666D01*
X132428095Y-62761904D01*
X132142380Y-61285714D02*
X132142380Y-61761904D01*
X132618571Y-61809523D01*
X132570952Y-61761904D01*
X132523333Y-61666666D01*
X132523333Y-61428571D01*
X132570952Y-61333333D01*
X132618571Y-61285714D01*
X132713809Y-61238095D01*
X132951904Y-61238095D01*
X133047142Y-61285714D01*
X133094761Y-61333333D01*
X133142380Y-61428571D01*
X133142380Y-61666666D01*
X133094761Y-61761904D01*
X133047142Y-61809523D01*
X50390476Y-76252380D02*
X50390476Y-76966666D01*
X50342857Y-77109523D01*
X50247619Y-77204761D01*
X50104761Y-77252380D01*
X50009523Y-77252380D01*
X51390476Y-77252380D02*
X50819047Y-77252380D01*
X51104761Y-77252380D02*
X51104761Y-76252380D01*
X51009523Y-76395238D01*
X50914285Y-76490476D01*
X50819047Y-76538095D01*
X52342857Y-77252380D02*
X51771428Y-77252380D01*
X52057142Y-77252380D02*
X52057142Y-76252380D01*
X51961904Y-76395238D01*
X51866666Y-76490476D01*
X51771428Y-76538095D01*
X76557142Y-72066666D02*
X76604761Y-72114285D01*
X76652380Y-72257142D01*
X76652380Y-72352380D01*
X76604761Y-72495238D01*
X76509523Y-72590476D01*
X76414285Y-72638095D01*
X76223809Y-72685714D01*
X76080952Y-72685714D01*
X75890476Y-72638095D01*
X75795238Y-72590476D01*
X75700000Y-72495238D01*
X75652380Y-72352380D01*
X75652380Y-72257142D01*
X75700000Y-72114285D01*
X75747619Y-72066666D01*
X75652380Y-71209523D02*
X75652380Y-71400000D01*
X75700000Y-71495238D01*
X75747619Y-71542857D01*
X75890476Y-71638095D01*
X76080952Y-71685714D01*
X76461904Y-71685714D01*
X76557142Y-71638095D01*
X76604761Y-71590476D01*
X76652380Y-71495238D01*
X76652380Y-71304761D01*
X76604761Y-71209523D01*
X76557142Y-71161904D01*
X76461904Y-71114285D01*
X76223809Y-71114285D01*
X76128571Y-71161904D01*
X76080952Y-71209523D01*
X76033333Y-71304761D01*
X76033333Y-71495238D01*
X76080952Y-71590476D01*
X76128571Y-71638095D01*
X76223809Y-71685714D01*
X63652380Y-75733333D02*
X64366666Y-75733333D01*
X64509523Y-75780952D01*
X64604761Y-75876190D01*
X64652380Y-76019047D01*
X64652380Y-76114285D01*
X64652380Y-75209523D02*
X64652380Y-75019047D01*
X64604761Y-74923809D01*
X64557142Y-74876190D01*
X64414285Y-74780952D01*
X64223809Y-74733333D01*
X63842857Y-74733333D01*
X63747619Y-74780952D01*
X63700000Y-74828571D01*
X63652380Y-74923809D01*
X63652380Y-75114285D01*
X63700000Y-75209523D01*
X63747619Y-75257142D01*
X63842857Y-75304761D01*
X64080952Y-75304761D01*
X64176190Y-75257142D01*
X64223809Y-75209523D01*
X64271428Y-75114285D01*
X64271428Y-74923809D01*
X64223809Y-74828571D01*
X64176190Y-74780952D01*
X64080952Y-74733333D01*
X81452380Y-53414285D02*
X80452380Y-53414285D01*
X80452380Y-53176190D01*
X80500000Y-53033333D01*
X80595238Y-52938095D01*
X80690476Y-52890476D01*
X80880952Y-52842857D01*
X81023809Y-52842857D01*
X81214285Y-52890476D01*
X81309523Y-52938095D01*
X81404761Y-53033333D01*
X81452380Y-53176190D01*
X81452380Y-53414285D01*
X81452380Y-51890476D02*
X81452380Y-52461904D01*
X81452380Y-52176190D02*
X80452380Y-52176190D01*
X80595238Y-52271428D01*
X80690476Y-52366666D01*
X80738095Y-52461904D01*
X80785714Y-51033333D02*
X81452380Y-51033333D01*
X80404761Y-51271428D02*
X81119047Y-51509523D01*
X81119047Y-50890476D01*
X68985714Y-46052380D02*
X68985714Y-45052380D01*
X69223809Y-45052380D01*
X69366666Y-45100000D01*
X69461904Y-45195238D01*
X69509523Y-45290476D01*
X69557142Y-45480952D01*
X69557142Y-45623809D01*
X69509523Y-45814285D01*
X69461904Y-45909523D01*
X69366666Y-46004761D01*
X69223809Y-46052380D01*
X68985714Y-46052380D01*
X70509523Y-46052380D02*
X69938095Y-46052380D01*
X70223809Y-46052380D02*
X70223809Y-45052380D01*
X70128571Y-45195238D01*
X70033333Y-45290476D01*
X69938095Y-45338095D01*
X70842857Y-45052380D02*
X71461904Y-45052380D01*
X71128571Y-45433333D01*
X71271428Y-45433333D01*
X71366666Y-45480952D01*
X71414285Y-45528571D01*
X71461904Y-45623809D01*
X71461904Y-45861904D01*
X71414285Y-45957142D01*
X71366666Y-46004761D01*
X71271428Y-46052380D01*
X70985714Y-46052380D01*
X70890476Y-46004761D01*
X70842857Y-45957142D01*
X108652380Y-53014285D02*
X107652380Y-53014285D01*
X107652380Y-52776190D01*
X107700000Y-52633333D01*
X107795238Y-52538095D01*
X107890476Y-52490476D01*
X108080952Y-52442857D01*
X108223809Y-52442857D01*
X108414285Y-52490476D01*
X108509523Y-52538095D01*
X108604761Y-52633333D01*
X108652380Y-52776190D01*
X108652380Y-53014285D01*
X108652380Y-51490476D02*
X108652380Y-52061904D01*
X108652380Y-51776190D02*
X107652380Y-51776190D01*
X107795238Y-51871428D01*
X107890476Y-51966666D01*
X107938095Y-52061904D01*
X107747619Y-51109523D02*
X107700000Y-51061904D01*
X107652380Y-50966666D01*
X107652380Y-50728571D01*
X107700000Y-50633333D01*
X107747619Y-50585714D01*
X107842857Y-50538095D01*
X107938095Y-50538095D01*
X108080952Y-50585714D01*
X108652380Y-51157142D01*
X108652380Y-50538095D01*
X96785714Y-45652380D02*
X96785714Y-44652380D01*
X97023809Y-44652380D01*
X97166666Y-44700000D01*
X97261904Y-44795238D01*
X97309523Y-44890476D01*
X97357142Y-45080952D01*
X97357142Y-45223809D01*
X97309523Y-45414285D01*
X97261904Y-45509523D01*
X97166666Y-45604761D01*
X97023809Y-45652380D01*
X96785714Y-45652380D01*
X98309523Y-45652380D02*
X97738095Y-45652380D01*
X98023809Y-45652380D02*
X98023809Y-44652380D01*
X97928571Y-44795238D01*
X97833333Y-44890476D01*
X97738095Y-44938095D01*
X99261904Y-45652380D02*
X98690476Y-45652380D01*
X98976190Y-45652380D02*
X98976190Y-44652380D01*
X98880952Y-44795238D01*
X98785714Y-44890476D01*
X98690476Y-44938095D01*
X135452380Y-52814285D02*
X134452380Y-52814285D01*
X134452380Y-52576190D01*
X134500000Y-52433333D01*
X134595238Y-52338095D01*
X134690476Y-52290476D01*
X134880952Y-52242857D01*
X135023809Y-52242857D01*
X135214285Y-52290476D01*
X135309523Y-52338095D01*
X135404761Y-52433333D01*
X135452380Y-52576190D01*
X135452380Y-52814285D01*
X135452380Y-51290476D02*
X135452380Y-51861904D01*
X135452380Y-51576190D02*
X134452380Y-51576190D01*
X134595238Y-51671428D01*
X134690476Y-51766666D01*
X134738095Y-51861904D01*
X134452380Y-50671428D02*
X134452380Y-50576190D01*
X134500000Y-50480952D01*
X134547619Y-50433333D01*
X134642857Y-50385714D01*
X134833333Y-50338095D01*
X135071428Y-50338095D01*
X135261904Y-50385714D01*
X135357142Y-50433333D01*
X135404761Y-50480952D01*
X135452380Y-50576190D01*
X135452380Y-50671428D01*
X135404761Y-50766666D01*
X135357142Y-50814285D01*
X135261904Y-50861904D01*
X135071428Y-50909523D01*
X134833333Y-50909523D01*
X134642857Y-50861904D01*
X134547619Y-50814285D01*
X134500000Y-50766666D01*
X134452380Y-50671428D01*
X124061904Y-45652380D02*
X124061904Y-44652380D01*
X124300000Y-44652380D01*
X124442857Y-44700000D01*
X124538095Y-44795238D01*
X124585714Y-44890476D01*
X124633333Y-45080952D01*
X124633333Y-45223809D01*
X124585714Y-45414285D01*
X124538095Y-45509523D01*
X124442857Y-45604761D01*
X124300000Y-45652380D01*
X124061904Y-45652380D01*
X125109523Y-45652380D02*
X125300000Y-45652380D01*
X125395238Y-45604761D01*
X125442857Y-45557142D01*
X125538095Y-45414285D01*
X125585714Y-45223809D01*
X125585714Y-44842857D01*
X125538095Y-44747619D01*
X125490476Y-44700000D01*
X125395238Y-44652380D01*
X125204761Y-44652380D01*
X125109523Y-44700000D01*
X125061904Y-44747619D01*
X125014285Y-44842857D01*
X125014285Y-45080952D01*
X125061904Y-45176190D01*
X125109523Y-45223809D01*
X125204761Y-45271428D01*
X125395238Y-45271428D01*
X125490476Y-45223809D01*
X125538095Y-45176190D01*
X125585714Y-45080952D01*
X62904761Y-53047619D02*
X62809523Y-53000000D01*
X62714285Y-52904761D01*
X62571428Y-52761904D01*
X62476190Y-52714285D01*
X62380952Y-52714285D01*
X62428571Y-52952380D02*
X62333333Y-52904761D01*
X62238095Y-52809523D01*
X62190476Y-52619047D01*
X62190476Y-52285714D01*
X62238095Y-52095238D01*
X62333333Y-52000000D01*
X62428571Y-51952380D01*
X62619047Y-51952380D01*
X62714285Y-52000000D01*
X62809523Y-52095238D01*
X62857142Y-52285714D01*
X62857142Y-52619047D01*
X62809523Y-52809523D01*
X62714285Y-52904761D01*
X62619047Y-52952380D01*
X62428571Y-52952380D01*
X63714285Y-51952380D02*
X63523809Y-51952380D01*
X63428571Y-52000000D01*
X63380952Y-52047619D01*
X63285714Y-52190476D01*
X63238095Y-52380952D01*
X63238095Y-52761904D01*
X63285714Y-52857142D01*
X63333333Y-52904761D01*
X63428571Y-52952380D01*
X63619047Y-52952380D01*
X63714285Y-52904761D01*
X63761904Y-52857142D01*
X63809523Y-52761904D01*
X63809523Y-52523809D01*
X63761904Y-52428571D01*
X63714285Y-52380952D01*
X63619047Y-52333333D01*
X63428571Y-52333333D01*
X63333333Y-52380952D01*
X63285714Y-52428571D01*
X63238095Y-52523809D01*
X51857142Y-63357142D02*
X51809523Y-63404761D01*
X51666666Y-63452380D01*
X51571428Y-63452380D01*
X51428571Y-63404761D01*
X51333333Y-63309523D01*
X51285714Y-63214285D01*
X51238095Y-63023809D01*
X51238095Y-62880952D01*
X51285714Y-62690476D01*
X51333333Y-62595238D01*
X51428571Y-62500000D01*
X51571428Y-62452380D01*
X51666666Y-62452380D01*
X51809523Y-62500000D01*
X51857142Y-62547619D01*
X52238095Y-62547619D02*
X52285714Y-62500000D01*
X52380952Y-62452380D01*
X52619047Y-62452380D01*
X52714285Y-62500000D01*
X52761904Y-62547619D01*
X52809523Y-62642857D01*
X52809523Y-62738095D01*
X52761904Y-62880952D01*
X52190476Y-63452380D01*
X52809523Y-63452380D01*
X53285714Y-63452380D02*
X53476190Y-63452380D01*
X53571428Y-63404761D01*
X53619047Y-63357142D01*
X53714285Y-63214285D01*
X53761904Y-63023809D01*
X53761904Y-62642857D01*
X53714285Y-62547619D01*
X53666666Y-62500000D01*
X53571428Y-62452380D01*
X53380952Y-62452380D01*
X53285714Y-62500000D01*
X53238095Y-62547619D01*
X53190476Y-62642857D01*
X53190476Y-62880952D01*
X53238095Y-62976190D01*
X53285714Y-63023809D01*
X53380952Y-63071428D01*
X53571428Y-63071428D01*
X53666666Y-63023809D01*
X53714285Y-62976190D01*
X53761904Y-62880952D01*
X51857142Y-52357142D02*
X51809523Y-52404761D01*
X51666666Y-52452380D01*
X51571428Y-52452380D01*
X51428571Y-52404761D01*
X51333333Y-52309523D01*
X51285714Y-52214285D01*
X51238095Y-52023809D01*
X51238095Y-51880952D01*
X51285714Y-51690476D01*
X51333333Y-51595238D01*
X51428571Y-51500000D01*
X51571428Y-51452380D01*
X51666666Y-51452380D01*
X51809523Y-51500000D01*
X51857142Y-51547619D01*
X52238095Y-51547619D02*
X52285714Y-51500000D01*
X52380952Y-51452380D01*
X52619047Y-51452380D01*
X52714285Y-51500000D01*
X52761904Y-51547619D01*
X52809523Y-51642857D01*
X52809523Y-51738095D01*
X52761904Y-51880952D01*
X52190476Y-52452380D01*
X52809523Y-52452380D01*
X53380952Y-51880952D02*
X53285714Y-51833333D01*
X53238095Y-51785714D01*
X53190476Y-51690476D01*
X53190476Y-51642857D01*
X53238095Y-51547619D01*
X53285714Y-51500000D01*
X53380952Y-51452380D01*
X53571428Y-51452380D01*
X53666666Y-51500000D01*
X53714285Y-51547619D01*
X53761904Y-51642857D01*
X53761904Y-51690476D01*
X53714285Y-51785714D01*
X53666666Y-51833333D01*
X53571428Y-51880952D01*
X53380952Y-51880952D01*
X53285714Y-51928571D01*
X53238095Y-51976190D01*
X53190476Y-52071428D01*
X53190476Y-52261904D01*
X53238095Y-52357142D01*
X53285714Y-52404761D01*
X53380952Y-52452380D01*
X53571428Y-52452380D01*
X53666666Y-52404761D01*
X53714285Y-52357142D01*
X53761904Y-52261904D01*
X53761904Y-52071428D01*
X53714285Y-51976190D01*
X53666666Y-51928571D01*
X53571428Y-51880952D01*
X51857142Y-41357142D02*
X51809523Y-41404761D01*
X51666666Y-41452380D01*
X51571428Y-41452380D01*
X51428571Y-41404761D01*
X51333333Y-41309523D01*
X51285714Y-41214285D01*
X51238095Y-41023809D01*
X51238095Y-40880952D01*
X51285714Y-40690476D01*
X51333333Y-40595238D01*
X51428571Y-40500000D01*
X51571428Y-40452380D01*
X51666666Y-40452380D01*
X51809523Y-40500000D01*
X51857142Y-40547619D01*
X52238095Y-40547619D02*
X52285714Y-40500000D01*
X52380952Y-40452380D01*
X52619047Y-40452380D01*
X52714285Y-40500000D01*
X52761904Y-40547619D01*
X52809523Y-40642857D01*
X52809523Y-40738095D01*
X52761904Y-40880952D01*
X52190476Y-41452380D01*
X52809523Y-41452380D01*
X53142857Y-40452380D02*
X53809523Y-40452380D01*
X53380952Y-41452380D01*
X77357142Y-77142857D02*
X77404761Y-77190476D01*
X77452380Y-77333333D01*
X77452380Y-77428571D01*
X77404761Y-77571428D01*
X77309523Y-77666666D01*
X77214285Y-77714285D01*
X77023809Y-77761904D01*
X76880952Y-77761904D01*
X76690476Y-77714285D01*
X76595238Y-77666666D01*
X76500000Y-77571428D01*
X76452380Y-77428571D01*
X76452380Y-77333333D01*
X76500000Y-77190476D01*
X76547619Y-77142857D01*
X76547619Y-76761904D02*
X76500000Y-76714285D01*
X76452380Y-76619047D01*
X76452380Y-76380952D01*
X76500000Y-76285714D01*
X76547619Y-76238095D01*
X76642857Y-76190476D01*
X76738095Y-76190476D01*
X76880952Y-76238095D01*
X77452380Y-76809523D01*
X77452380Y-76190476D01*
X76547619Y-75809523D02*
X76500000Y-75761904D01*
X76452380Y-75666666D01*
X76452380Y-75428571D01*
X76500000Y-75333333D01*
X76547619Y-75285714D01*
X76642857Y-75238095D01*
X76738095Y-75238095D01*
X76880952Y-75285714D01*
X77452380Y-75857142D01*
X77452380Y-75238095D01*
X77220833Y-65327142D02*
X77173214Y-65374761D01*
X77030357Y-65422380D01*
X76935119Y-65422380D01*
X76792261Y-65374761D01*
X76697023Y-65279523D01*
X76649404Y-65184285D01*
X76601785Y-64993809D01*
X76601785Y-64850952D01*
X76649404Y-64660476D01*
X76697023Y-64565238D01*
X76792261Y-64470000D01*
X76935119Y-64422380D01*
X77030357Y-64422380D01*
X77173214Y-64470000D01*
X77220833Y-64517619D01*
X77601785Y-64517619D02*
X77649404Y-64470000D01*
X77744642Y-64422380D01*
X77982738Y-64422380D01*
X78077976Y-64470000D01*
X78125595Y-64517619D01*
X78173214Y-64612857D01*
X78173214Y-64708095D01*
X78125595Y-64850952D01*
X77554166Y-65422380D01*
X78173214Y-65422380D01*
X94327142Y-77142857D02*
X94374761Y-77190476D01*
X94422380Y-77333333D01*
X94422380Y-77428571D01*
X94374761Y-77571428D01*
X94279523Y-77666666D01*
X94184285Y-77714285D01*
X93993809Y-77761904D01*
X93850952Y-77761904D01*
X93660476Y-77714285D01*
X93565238Y-77666666D01*
X93470000Y-77571428D01*
X93422380Y-77428571D01*
X93422380Y-77333333D01*
X93470000Y-77190476D01*
X93517619Y-77142857D01*
X93517619Y-76761904D02*
X93470000Y-76714285D01*
X93422380Y-76619047D01*
X93422380Y-76380952D01*
X93470000Y-76285714D01*
X93517619Y-76238095D01*
X93612857Y-76190476D01*
X93708095Y-76190476D01*
X93850952Y-76238095D01*
X94422380Y-76809523D01*
X94422380Y-76190476D01*
X94422380Y-75238095D02*
X94422380Y-75809523D01*
X94422380Y-75523809D02*
X93422380Y-75523809D01*
X93565238Y-75619047D01*
X93660476Y-75714285D01*
X93708095Y-75809523D01*
X50690476Y-35952380D02*
X50690476Y-36666666D01*
X50642857Y-36809523D01*
X50547619Y-36904761D01*
X50404761Y-36952380D01*
X50309523Y-36952380D01*
X51690476Y-36952380D02*
X51119047Y-36952380D01*
X51404761Y-36952380D02*
X51404761Y-35952380D01*
X51309523Y-36095238D01*
X51214285Y-36190476D01*
X51119047Y-36238095D01*
X52309523Y-35952380D02*
X52404761Y-35952380D01*
X52500000Y-36000000D01*
X52547619Y-36047619D01*
X52595238Y-36142857D01*
X52642857Y-36333333D01*
X52642857Y-36571428D01*
X52595238Y-36761904D01*
X52547619Y-36857142D01*
X52500000Y-36904761D01*
X52404761Y-36952380D01*
X52309523Y-36952380D01*
X52214285Y-36904761D01*
X52166666Y-36857142D01*
X52119047Y-36761904D01*
X52071428Y-36571428D01*
X52071428Y-36333333D01*
X52119047Y-36142857D01*
X52166666Y-36047619D01*
X52214285Y-36000000D01*
X52309523Y-35952380D01*
X75352380Y-77309523D02*
X76352380Y-76642857D01*
X75352380Y-76642857D02*
X76352380Y-77309523D01*
X76352380Y-75738095D02*
X76352380Y-76309523D01*
X76352380Y-76023809D02*
X75352380Y-76023809D01*
X75495238Y-76119047D01*
X75590476Y-76214285D01*
X75638095Y-76309523D01*
X113657142Y-77552380D02*
X113323809Y-77076190D01*
X113085714Y-77552380D02*
X113085714Y-76552380D01*
X113466666Y-76552380D01*
X113561904Y-76600000D01*
X113609523Y-76647619D01*
X113657142Y-76742857D01*
X113657142Y-76885714D01*
X113609523Y-76980952D01*
X113561904Y-77028571D01*
X113466666Y-77076190D01*
X113085714Y-77076190D01*
X114038095Y-76647619D02*
X114085714Y-76600000D01*
X114180952Y-76552380D01*
X114419047Y-76552380D01*
X114514285Y-76600000D01*
X114561904Y-76647619D01*
X114609523Y-76742857D01*
X114609523Y-76838095D01*
X114561904Y-76980952D01*
X113990476Y-77552380D01*
X114609523Y-77552380D01*
X115466666Y-76885714D02*
X115466666Y-77552380D01*
X115228571Y-76504761D02*
X114990476Y-77219047D01*
X115609523Y-77219047D01*
X86902380Y-74111904D02*
X86902380Y-73540476D01*
X87902380Y-73826190D02*
X86902380Y-73826190D01*
X87902380Y-73207142D02*
X86902380Y-73207142D01*
X86902380Y-72826190D01*
X86950000Y-72730952D01*
X86997619Y-72683333D01*
X87092857Y-72635714D01*
X87235714Y-72635714D01*
X87330952Y-72683333D01*
X87378571Y-72730952D01*
X87426190Y-72826190D01*
X87426190Y-73207142D01*
X86902380Y-72302380D02*
X86902380Y-71683333D01*
X87283333Y-72016666D01*
X87283333Y-71873809D01*
X87330952Y-71778571D01*
X87378571Y-71730952D01*
X87473809Y-71683333D01*
X87711904Y-71683333D01*
X87807142Y-71730952D01*
X87854761Y-71778571D01*
X87902380Y-71873809D01*
X87902380Y-72159523D01*
X87854761Y-72254761D01*
X87807142Y-72302380D01*
X83738095Y-76702380D02*
X84309523Y-76702380D01*
X84023809Y-77702380D02*
X84023809Y-76702380D01*
X84642857Y-77702380D02*
X84642857Y-76702380D01*
X85023809Y-76702380D01*
X85119047Y-76750000D01*
X85166666Y-76797619D01*
X85214285Y-76892857D01*
X85214285Y-77035714D01*
X85166666Y-77130952D01*
X85119047Y-77178571D01*
X85023809Y-77226190D01*
X84642857Y-77226190D01*
X85595238Y-76797619D02*
X85642857Y-76750000D01*
X85738095Y-76702380D01*
X85976190Y-76702380D01*
X86071428Y-76750000D01*
X86119047Y-76797619D01*
X86166666Y-76892857D01*
X86166666Y-76988095D01*
X86119047Y-77130952D01*
X85547619Y-77702380D01*
X86166666Y-77702380D01*
X71882380Y-64142857D02*
X71406190Y-64476190D01*
X71882380Y-64714285D02*
X70882380Y-64714285D01*
X70882380Y-64333333D01*
X70930000Y-64238095D01*
X70977619Y-64190476D01*
X71072857Y-64142857D01*
X71215714Y-64142857D01*
X71310952Y-64190476D01*
X71358571Y-64238095D01*
X71406190Y-64333333D01*
X71406190Y-64714285D01*
X70882380Y-63809523D02*
X70882380Y-63190476D01*
X71263333Y-63523809D01*
X71263333Y-63380952D01*
X71310952Y-63285714D01*
X71358571Y-63238095D01*
X71453809Y-63190476D01*
X71691904Y-63190476D01*
X71787142Y-63238095D01*
X71834761Y-63285714D01*
X71882380Y-63380952D01*
X71882380Y-63666666D01*
X71834761Y-63761904D01*
X71787142Y-63809523D01*
X70882380Y-62857142D02*
X70882380Y-62238095D01*
X71263333Y-62571428D01*
X71263333Y-62428571D01*
X71310952Y-62333333D01*
X71358571Y-62285714D01*
X71453809Y-62238095D01*
X71691904Y-62238095D01*
X71787142Y-62285714D01*
X71834761Y-62333333D01*
X71882380Y-62428571D01*
X71882380Y-62714285D01*
X71834761Y-62809523D01*
X71787142Y-62857142D01*
X72757142Y-64022380D02*
X72423809Y-63546190D01*
X72185714Y-64022380D02*
X72185714Y-63022380D01*
X72566666Y-63022380D01*
X72661904Y-63070000D01*
X72709523Y-63117619D01*
X72757142Y-63212857D01*
X72757142Y-63355714D01*
X72709523Y-63450952D01*
X72661904Y-63498571D01*
X72566666Y-63546190D01*
X72185714Y-63546190D01*
X73090476Y-63022380D02*
X73709523Y-63022380D01*
X73376190Y-63403333D01*
X73519047Y-63403333D01*
X73614285Y-63450952D01*
X73661904Y-63498571D01*
X73709523Y-63593809D01*
X73709523Y-63831904D01*
X73661904Y-63927142D01*
X73614285Y-63974761D01*
X73519047Y-64022380D01*
X73233333Y-64022380D01*
X73138095Y-63974761D01*
X73090476Y-63927142D01*
X74090476Y-63117619D02*
X74138095Y-63070000D01*
X74233333Y-63022380D01*
X74471428Y-63022380D01*
X74566666Y-63070000D01*
X74614285Y-63117619D01*
X74661904Y-63212857D01*
X74661904Y-63308095D01*
X74614285Y-63450952D01*
X74042857Y-64022380D01*
X74661904Y-64022380D01*
X99882380Y-63642857D02*
X99406190Y-63976190D01*
X99882380Y-64214285D02*
X98882380Y-64214285D01*
X98882380Y-63833333D01*
X98930000Y-63738095D01*
X98977619Y-63690476D01*
X99072857Y-63642857D01*
X99215714Y-63642857D01*
X99310952Y-63690476D01*
X99358571Y-63738095D01*
X99406190Y-63833333D01*
X99406190Y-64214285D01*
X98882380Y-63309523D02*
X98882380Y-62690476D01*
X99263333Y-63023809D01*
X99263333Y-62880952D01*
X99310952Y-62785714D01*
X99358571Y-62738095D01*
X99453809Y-62690476D01*
X99691904Y-62690476D01*
X99787142Y-62738095D01*
X99834761Y-62785714D01*
X99882380Y-62880952D01*
X99882380Y-63166666D01*
X99834761Y-63261904D01*
X99787142Y-63309523D01*
X99882380Y-61738095D02*
X99882380Y-62309523D01*
X99882380Y-62023809D02*
X98882380Y-62023809D01*
X99025238Y-62119047D01*
X99120476Y-62214285D01*
X99168095Y-62309523D01*
X101882380Y-71042857D02*
X101406190Y-71376190D01*
X101882380Y-71614285D02*
X100882380Y-71614285D01*
X100882380Y-71233333D01*
X100930000Y-71138095D01*
X100977619Y-71090476D01*
X101072857Y-71042857D01*
X101215714Y-71042857D01*
X101310952Y-71090476D01*
X101358571Y-71138095D01*
X101406190Y-71233333D01*
X101406190Y-71614285D01*
X100882380Y-70709523D02*
X100882380Y-70090476D01*
X101263333Y-70423809D01*
X101263333Y-70280952D01*
X101310952Y-70185714D01*
X101358571Y-70138095D01*
X101453809Y-70090476D01*
X101691904Y-70090476D01*
X101787142Y-70138095D01*
X101834761Y-70185714D01*
X101882380Y-70280952D01*
X101882380Y-70566666D01*
X101834761Y-70661904D01*
X101787142Y-70709523D01*
X100882380Y-69471428D02*
X100882380Y-69376190D01*
X100930000Y-69280952D01*
X100977619Y-69233333D01*
X101072857Y-69185714D01*
X101263333Y-69138095D01*
X101501428Y-69138095D01*
X101691904Y-69185714D01*
X101787142Y-69233333D01*
X101834761Y-69280952D01*
X101882380Y-69376190D01*
X101882380Y-69471428D01*
X101834761Y-69566666D01*
X101787142Y-69614285D01*
X101691904Y-69661904D01*
X101501428Y-69709523D01*
X101263333Y-69709523D01*
X101072857Y-69661904D01*
X100977619Y-69614285D01*
X100930000Y-69566666D01*
X100882380Y-69471428D01*
X126382380Y-63642857D02*
X125906190Y-63976190D01*
X126382380Y-64214285D02*
X125382380Y-64214285D01*
X125382380Y-63833333D01*
X125430000Y-63738095D01*
X125477619Y-63690476D01*
X125572857Y-63642857D01*
X125715714Y-63642857D01*
X125810952Y-63690476D01*
X125858571Y-63738095D01*
X125906190Y-63833333D01*
X125906190Y-64214285D01*
X125477619Y-63261904D02*
X125430000Y-63214285D01*
X125382380Y-63119047D01*
X125382380Y-62880952D01*
X125430000Y-62785714D01*
X125477619Y-62738095D01*
X125572857Y-62690476D01*
X125668095Y-62690476D01*
X125810952Y-62738095D01*
X126382380Y-63309523D01*
X126382380Y-62690476D01*
X126382380Y-62214285D02*
X126382380Y-62023809D01*
X126334761Y-61928571D01*
X126287142Y-61880952D01*
X126144285Y-61785714D01*
X125953809Y-61738095D01*
X125572857Y-61738095D01*
X125477619Y-61785714D01*
X125430000Y-61833333D01*
X125382380Y-61928571D01*
X125382380Y-62119047D01*
X125430000Y-62214285D01*
X125477619Y-62261904D01*
X125572857Y-62309523D01*
X125810952Y-62309523D01*
X125906190Y-62261904D01*
X125953809Y-62214285D01*
X126001428Y-62119047D01*
X126001428Y-61928571D01*
X125953809Y-61833333D01*
X125906190Y-61785714D01*
X125810952Y-61738095D01*
X102282380Y-77142857D02*
X101806190Y-77476190D01*
X102282380Y-77714285D02*
X101282380Y-77714285D01*
X101282380Y-77333333D01*
X101330000Y-77238095D01*
X101377619Y-77190476D01*
X101472857Y-77142857D01*
X101615714Y-77142857D01*
X101710952Y-77190476D01*
X101758571Y-77238095D01*
X101806190Y-77333333D01*
X101806190Y-77714285D01*
X101377619Y-76761904D02*
X101330000Y-76714285D01*
X101282380Y-76619047D01*
X101282380Y-76380952D01*
X101330000Y-76285714D01*
X101377619Y-76238095D01*
X101472857Y-76190476D01*
X101568095Y-76190476D01*
X101710952Y-76238095D01*
X102282380Y-76809523D01*
X102282380Y-76190476D01*
X101710952Y-75619047D02*
X101663333Y-75714285D01*
X101615714Y-75761904D01*
X101520476Y-75809523D01*
X101472857Y-75809523D01*
X101377619Y-75761904D01*
X101330000Y-75714285D01*
X101282380Y-75619047D01*
X101282380Y-75428571D01*
X101330000Y-75333333D01*
X101377619Y-75285714D01*
X101472857Y-75238095D01*
X101520476Y-75238095D01*
X101615714Y-75285714D01*
X101663333Y-75333333D01*
X101710952Y-75428571D01*
X101710952Y-75619047D01*
X101758571Y-75714285D01*
X101806190Y-75761904D01*
X101901428Y-75809523D01*
X102091904Y-75809523D01*
X102187142Y-75761904D01*
X102234761Y-75714285D01*
X102282380Y-75619047D01*
X102282380Y-75428571D01*
X102234761Y-75333333D01*
X102187142Y-75285714D01*
X102091904Y-75238095D01*
X101901428Y-75238095D01*
X101806190Y-75285714D01*
X101758571Y-75333333D01*
X101710952Y-75428571D01*
X63052380Y-77333333D02*
X63766666Y-77333333D01*
X63909523Y-77380952D01*
X64004761Y-77476190D01*
X64052380Y-77619047D01*
X64052380Y-77714285D01*
X63052380Y-76952380D02*
X63052380Y-76285714D01*
X64052380Y-76714285D01*
X50466666Y-68052380D02*
X50466666Y-68766666D01*
X50419047Y-68909523D01*
X50323809Y-69004761D01*
X50180952Y-69052380D01*
X50085714Y-69052380D01*
X51419047Y-68052380D02*
X50942857Y-68052380D01*
X50895238Y-68528571D01*
X50942857Y-68480952D01*
X51038095Y-68433333D01*
X51276190Y-68433333D01*
X51371428Y-68480952D01*
X51419047Y-68528571D01*
X51466666Y-68623809D01*
X51466666Y-68861904D01*
X51419047Y-68957142D01*
X51371428Y-69004761D01*
X51276190Y-69052380D01*
X51038095Y-69052380D01*
X50942857Y-69004761D01*
X50895238Y-68957142D01*
X73461904Y-67252380D02*
X73461904Y-66252380D01*
X73700000Y-66252380D01*
X73842857Y-66300000D01*
X73938095Y-66395238D01*
X73985714Y-66490476D01*
X74033333Y-66680952D01*
X74033333Y-66823809D01*
X73985714Y-67014285D01*
X73938095Y-67109523D01*
X73842857Y-67204761D01*
X73700000Y-67252380D01*
X73461904Y-67252380D01*
X74604761Y-66680952D02*
X74509523Y-66633333D01*
X74461904Y-66585714D01*
X74414285Y-66490476D01*
X74414285Y-66442857D01*
X74461904Y-66347619D01*
X74509523Y-66300000D01*
X74604761Y-66252380D01*
X74795238Y-66252380D01*
X74890476Y-66300000D01*
X74938095Y-66347619D01*
X74985714Y-66442857D01*
X74985714Y-66490476D01*
X74938095Y-66585714D01*
X74890476Y-66633333D01*
X74795238Y-66680952D01*
X74604761Y-66680952D01*
X74509523Y-66728571D01*
X74461904Y-66776190D01*
X74414285Y-66871428D01*
X74414285Y-67061904D01*
X74461904Y-67157142D01*
X74509523Y-67204761D01*
X74604761Y-67252380D01*
X74795238Y-67252380D01*
X74890476Y-67204761D01*
X74938095Y-67157142D01*
X74985714Y-67061904D01*
X74985714Y-66871428D01*
X74938095Y-66776190D01*
X74890476Y-66728571D01*
X74795238Y-66680952D01*
X98452380Y-68488095D02*
X97452380Y-68488095D01*
X97452380Y-68250000D01*
X97500000Y-68107142D01*
X97595238Y-68011904D01*
X97690476Y-67964285D01*
X97880952Y-67916666D01*
X98023809Y-67916666D01*
X98214285Y-67964285D01*
X98309523Y-68011904D01*
X98404761Y-68107142D01*
X98452380Y-68250000D01*
X98452380Y-68488095D01*
X97452380Y-67583333D02*
X97452380Y-66916666D01*
X98452380Y-67345238D01*
X99252380Y-74288095D02*
X98252380Y-74288095D01*
X98252380Y-74050000D01*
X98300000Y-73907142D01*
X98395238Y-73811904D01*
X98490476Y-73764285D01*
X98680952Y-73716666D01*
X98823809Y-73716666D01*
X99014285Y-73764285D01*
X99109523Y-73811904D01*
X99204761Y-73907142D01*
X99252380Y-74050000D01*
X99252380Y-74288095D01*
X98252380Y-72859523D02*
X98252380Y-73050000D01*
X98300000Y-73145238D01*
X98347619Y-73192857D01*
X98490476Y-73288095D01*
X98680952Y-73335714D01*
X99061904Y-73335714D01*
X99157142Y-73288095D01*
X99204761Y-73240476D01*
X99252380Y-73145238D01*
X99252380Y-72954761D01*
X99204761Y-72859523D01*
X99157142Y-72811904D01*
X99061904Y-72764285D01*
X98823809Y-72764285D01*
X98728571Y-72811904D01*
X98680952Y-72859523D01*
X98633333Y-72954761D01*
X98633333Y-73145238D01*
X98680952Y-73240476D01*
X98728571Y-73288095D01*
X98823809Y-73335714D01*
X60252380Y-69638095D02*
X59252380Y-69638095D01*
X59252380Y-69400000D01*
X59300000Y-69257142D01*
X59395238Y-69161904D01*
X59490476Y-69114285D01*
X59680952Y-69066666D01*
X59823809Y-69066666D01*
X60014285Y-69114285D01*
X60109523Y-69161904D01*
X60204761Y-69257142D01*
X60252380Y-69400000D01*
X60252380Y-69638095D01*
X59252380Y-68161904D02*
X59252380Y-68638095D01*
X59728571Y-68685714D01*
X59680952Y-68638095D01*
X59633333Y-68542857D01*
X59633333Y-68304761D01*
X59680952Y-68209523D01*
X59728571Y-68161904D01*
X59823809Y-68114285D01*
X60061904Y-68114285D01*
X60157142Y-68161904D01*
X60204761Y-68209523D01*
X60252380Y-68304761D01*
X60252380Y-68542857D01*
X60204761Y-68638095D01*
X60157142Y-68685714D01*
X94057142Y-68607142D02*
X94009523Y-68654761D01*
X93866666Y-68702380D01*
X93771428Y-68702380D01*
X93628571Y-68654761D01*
X93533333Y-68559523D01*
X93485714Y-68464285D01*
X93438095Y-68273809D01*
X93438095Y-68130952D01*
X93485714Y-67940476D01*
X93533333Y-67845238D01*
X93628571Y-67750000D01*
X93771428Y-67702380D01*
X93866666Y-67702380D01*
X94009523Y-67750000D01*
X94057142Y-67797619D01*
X94438095Y-67797619D02*
X94485714Y-67750000D01*
X94580952Y-67702380D01*
X94819047Y-67702380D01*
X94914285Y-67750000D01*
X94961904Y-67797619D01*
X95009523Y-67892857D01*
X95009523Y-67988095D01*
X94961904Y-68130952D01*
X94390476Y-68702380D01*
X95009523Y-68702380D01*
X95866666Y-67702380D02*
X95676190Y-67702380D01*
X95580952Y-67750000D01*
X95533333Y-67797619D01*
X95438095Y-67940476D01*
X95390476Y-68130952D01*
X95390476Y-68511904D01*
X95438095Y-68607142D01*
X95485714Y-68654761D01*
X95580952Y-68702380D01*
X95771428Y-68702380D01*
X95866666Y-68654761D01*
X95914285Y-68607142D01*
X95961904Y-68511904D01*
X95961904Y-68273809D01*
X95914285Y-68178571D01*
X95866666Y-68130952D01*
X95771428Y-68083333D01*
X95580952Y-68083333D01*
X95485714Y-68130952D01*
X95438095Y-68178571D01*
X95390476Y-68273809D01*
X93807142Y-75357142D02*
X93759523Y-75404761D01*
X93616666Y-75452380D01*
X93521428Y-75452380D01*
X93378571Y-75404761D01*
X93283333Y-75309523D01*
X93235714Y-75214285D01*
X93188095Y-75023809D01*
X93188095Y-74880952D01*
X93235714Y-74690476D01*
X93283333Y-74595238D01*
X93378571Y-74500000D01*
X93521428Y-74452380D01*
X93616666Y-74452380D01*
X93759523Y-74500000D01*
X93807142Y-74547619D01*
X94188095Y-74547619D02*
X94235714Y-74500000D01*
X94330952Y-74452380D01*
X94569047Y-74452380D01*
X94664285Y-74500000D01*
X94711904Y-74547619D01*
X94759523Y-74642857D01*
X94759523Y-74738095D01*
X94711904Y-74880952D01*
X94140476Y-75452380D01*
X94759523Y-75452380D01*
X95664285Y-74452380D02*
X95188095Y-74452380D01*
X95140476Y-74928571D01*
X95188095Y-74880952D01*
X95283333Y-74833333D01*
X95521428Y-74833333D01*
X95616666Y-74880952D01*
X95664285Y-74928571D01*
X95711904Y-75023809D01*
X95711904Y-75261904D01*
X95664285Y-75357142D01*
X95616666Y-75404761D01*
X95521428Y-75452380D01*
X95283333Y-75452380D01*
X95188095Y-75404761D01*
X95140476Y-75357142D01*
X88107142Y-76942857D02*
X88154761Y-76990476D01*
X88202380Y-77133333D01*
X88202380Y-77228571D01*
X88154761Y-77371428D01*
X88059523Y-77466666D01*
X87964285Y-77514285D01*
X87773809Y-77561904D01*
X87630952Y-77561904D01*
X87440476Y-77514285D01*
X87345238Y-77466666D01*
X87250000Y-77371428D01*
X87202380Y-77228571D01*
X87202380Y-77133333D01*
X87250000Y-76990476D01*
X87297619Y-76942857D01*
X87297619Y-76561904D02*
X87250000Y-76514285D01*
X87202380Y-76419047D01*
X87202380Y-76180952D01*
X87250000Y-76085714D01*
X87297619Y-76038095D01*
X87392857Y-75990476D01*
X87488095Y-75990476D01*
X87630952Y-76038095D01*
X88202380Y-76609523D01*
X88202380Y-75990476D01*
X87535714Y-75133333D02*
X88202380Y-75133333D01*
X87154761Y-75371428D02*
X87869047Y-75609523D01*
X87869047Y-74990476D01*
X79107142Y-77607142D02*
X79059523Y-77654761D01*
X78916666Y-77702380D01*
X78821428Y-77702380D01*
X78678571Y-77654761D01*
X78583333Y-77559523D01*
X78535714Y-77464285D01*
X78488095Y-77273809D01*
X78488095Y-77130952D01*
X78535714Y-76940476D01*
X78583333Y-76845238D01*
X78678571Y-76750000D01*
X78821428Y-76702380D01*
X78916666Y-76702380D01*
X79059523Y-76750000D01*
X79107142Y-76797619D01*
X79488095Y-76797619D02*
X79535714Y-76750000D01*
X79630952Y-76702380D01*
X79869047Y-76702380D01*
X79964285Y-76750000D01*
X80011904Y-76797619D01*
X80059523Y-76892857D01*
X80059523Y-76988095D01*
X80011904Y-77130952D01*
X79440476Y-77702380D01*
X80059523Y-77702380D01*
X80392857Y-76702380D02*
X81011904Y-76702380D01*
X80678571Y-77083333D01*
X80821428Y-77083333D01*
X80916666Y-77130952D01*
X80964285Y-77178571D01*
X81011904Y-77273809D01*
X81011904Y-77511904D01*
X80964285Y-77607142D01*
X80916666Y-77654761D01*
X80821428Y-77702380D01*
X80535714Y-77702380D01*
X80440476Y-77654761D01*
X80392857Y-77607142D01*
X64622380Y-60333333D02*
X65336666Y-60333333D01*
X65479523Y-60380952D01*
X65574761Y-60476190D01*
X65622380Y-60619047D01*
X65622380Y-60714285D01*
X64955714Y-59428571D02*
X65622380Y-59428571D01*
X64574761Y-59666666D02*
X65289047Y-59904761D01*
X65289047Y-59285714D01*
X93622380Y-59833333D02*
X94336666Y-59833333D01*
X94479523Y-59880952D01*
X94574761Y-59976190D01*
X94622380Y-60119047D01*
X94622380Y-60214285D01*
X93622380Y-59452380D02*
X93622380Y-58833333D01*
X94003333Y-59166666D01*
X94003333Y-59023809D01*
X94050952Y-58928571D01*
X94098571Y-58880952D01*
X94193809Y-58833333D01*
X94431904Y-58833333D01*
X94527142Y-58880952D01*
X94574761Y-58928571D01*
X94622380Y-59023809D01*
X94622380Y-59309523D01*
X94574761Y-59404761D01*
X94527142Y-59452380D01*
X119622380Y-59833333D02*
X120336666Y-59833333D01*
X120479523Y-59880952D01*
X120574761Y-59976190D01*
X120622380Y-60119047D01*
X120622380Y-60214285D01*
X119717619Y-59404761D02*
X119670000Y-59357142D01*
X119622380Y-59261904D01*
X119622380Y-59023809D01*
X119670000Y-58928571D01*
X119717619Y-58880952D01*
X119812857Y-58833333D01*
X119908095Y-58833333D01*
X120050952Y-58880952D01*
X120622380Y-59452380D01*
X120622380Y-58833333D01*
X40666666Y-66952380D02*
X40666666Y-67666666D01*
X40619047Y-67809523D01*
X40523809Y-67904761D01*
X40380952Y-67952380D01*
X40285714Y-67952380D01*
X41666666Y-67952380D02*
X41095238Y-67952380D01*
X41380952Y-67952380D02*
X41380952Y-66952380D01*
X41285714Y-67095238D01*
X41190476Y-67190476D01*
X41095238Y-67238095D01*
X84132380Y-43142857D02*
X83656190Y-43476190D01*
X84132380Y-43714285D02*
X83132380Y-43714285D01*
X83132380Y-43333333D01*
X83180000Y-43238095D01*
X83227619Y-43190476D01*
X83322857Y-43142857D01*
X83465714Y-43142857D01*
X83560952Y-43190476D01*
X83608571Y-43238095D01*
X83656190Y-43333333D01*
X83656190Y-43714285D01*
X83227619Y-42761904D02*
X83180000Y-42714285D01*
X83132380Y-42619047D01*
X83132380Y-42380952D01*
X83180000Y-42285714D01*
X83227619Y-42238095D01*
X83322857Y-42190476D01*
X83418095Y-42190476D01*
X83560952Y-42238095D01*
X84132380Y-42809523D01*
X84132380Y-42190476D01*
X83132380Y-41857142D02*
X83132380Y-41190476D01*
X84132380Y-41619047D01*
X112192380Y-43142857D02*
X111716190Y-43476190D01*
X112192380Y-43714285D02*
X111192380Y-43714285D01*
X111192380Y-43333333D01*
X111240000Y-43238095D01*
X111287619Y-43190476D01*
X111382857Y-43142857D01*
X111525714Y-43142857D01*
X111620952Y-43190476D01*
X111668571Y-43238095D01*
X111716190Y-43333333D01*
X111716190Y-43714285D01*
X111287619Y-42761904D02*
X111240000Y-42714285D01*
X111192380Y-42619047D01*
X111192380Y-42380952D01*
X111240000Y-42285714D01*
X111287619Y-42238095D01*
X111382857Y-42190476D01*
X111478095Y-42190476D01*
X111620952Y-42238095D01*
X112192380Y-42809523D01*
X112192380Y-42190476D01*
X111192380Y-41333333D02*
X111192380Y-41523809D01*
X111240000Y-41619047D01*
X111287619Y-41666666D01*
X111430476Y-41761904D01*
X111620952Y-41809523D01*
X112001904Y-41809523D01*
X112097142Y-41761904D01*
X112144761Y-41714285D01*
X112192380Y-41619047D01*
X112192380Y-41428571D01*
X112144761Y-41333333D01*
X112097142Y-41285714D01*
X112001904Y-41238095D01*
X111763809Y-41238095D01*
X111668571Y-41285714D01*
X111620952Y-41333333D01*
X111573333Y-41428571D01*
X111573333Y-41619047D01*
X111620952Y-41714285D01*
X111668571Y-41761904D01*
X111763809Y-41809523D01*
X138952380Y-44392857D02*
X138476190Y-44726190D01*
X138952380Y-44964285D02*
X137952380Y-44964285D01*
X137952380Y-44583333D01*
X138000000Y-44488095D01*
X138047619Y-44440476D01*
X138142857Y-44392857D01*
X138285714Y-44392857D01*
X138380952Y-44440476D01*
X138428571Y-44488095D01*
X138476190Y-44583333D01*
X138476190Y-44964285D01*
X138047619Y-44011904D02*
X138000000Y-43964285D01*
X137952380Y-43869047D01*
X137952380Y-43630952D01*
X138000000Y-43535714D01*
X138047619Y-43488095D01*
X138142857Y-43440476D01*
X138238095Y-43440476D01*
X138380952Y-43488095D01*
X138952380Y-44059523D01*
X138952380Y-43440476D01*
X137952380Y-42535714D02*
X137952380Y-43011904D01*
X138428571Y-43059523D01*
X138380952Y-43011904D01*
X138333333Y-42916666D01*
X138333333Y-42678571D01*
X138380952Y-42583333D01*
X138428571Y-42535714D01*
X138523809Y-42488095D01*
X138761904Y-42488095D01*
X138857142Y-42535714D01*
X138904761Y-42583333D01*
X138952380Y-42678571D01*
X138952380Y-42916666D01*
X138904761Y-43011904D01*
X138857142Y-43059523D01*
X56952380Y-59738095D02*
X55952380Y-59738095D01*
X55952380Y-59500000D01*
X56000000Y-59357142D01*
X56095238Y-59261904D01*
X56190476Y-59214285D01*
X56380952Y-59166666D01*
X56523809Y-59166666D01*
X56714285Y-59214285D01*
X56809523Y-59261904D01*
X56904761Y-59357142D01*
X56952380Y-59500000D01*
X56952380Y-59738095D01*
X55952380Y-58833333D02*
X55952380Y-58214285D01*
X56333333Y-58547619D01*
X56333333Y-58404761D01*
X56380952Y-58309523D01*
X56428571Y-58261904D01*
X56523809Y-58214285D01*
X56761904Y-58214285D01*
X56857142Y-58261904D01*
X56904761Y-58309523D01*
X56952380Y-58404761D01*
X56952380Y-58690476D01*
X56904761Y-58785714D01*
X56857142Y-58833333D01*
X84452380Y-59238095D02*
X83452380Y-59238095D01*
X83452380Y-59000000D01*
X83500000Y-58857142D01*
X83595238Y-58761904D01*
X83690476Y-58714285D01*
X83880952Y-58666666D01*
X84023809Y-58666666D01*
X84214285Y-58714285D01*
X84309523Y-58761904D01*
X84404761Y-58857142D01*
X84452380Y-59000000D01*
X84452380Y-59238095D01*
X83547619Y-58285714D02*
X83500000Y-58238095D01*
X83452380Y-58142857D01*
X83452380Y-57904761D01*
X83500000Y-57809523D01*
X83547619Y-57761904D01*
X83642857Y-57714285D01*
X83738095Y-57714285D01*
X83880952Y-57761904D01*
X84452380Y-58333333D01*
X84452380Y-57714285D01*
X111452380Y-59238095D02*
X110452380Y-59238095D01*
X110452380Y-59000000D01*
X110500000Y-58857142D01*
X110595238Y-58761904D01*
X110690476Y-58714285D01*
X110880952Y-58666666D01*
X111023809Y-58666666D01*
X111214285Y-58714285D01*
X111309523Y-58761904D01*
X111404761Y-58857142D01*
X111452380Y-59000000D01*
X111452380Y-59238095D01*
X111452380Y-57714285D02*
X111452380Y-58285714D01*
X111452380Y-58000000D02*
X110452380Y-58000000D01*
X110595238Y-58095238D01*
X110690476Y-58190476D01*
X110738095Y-58285714D01*
X97452380Y-74142857D02*
X96976190Y-74476190D01*
X97452380Y-74714285D02*
X96452380Y-74714285D01*
X96452380Y-74333333D01*
X96500000Y-74238095D01*
X96547619Y-74190476D01*
X96642857Y-74142857D01*
X96785714Y-74142857D01*
X96880952Y-74190476D01*
X96928571Y-74238095D01*
X96976190Y-74333333D01*
X96976190Y-74714285D01*
X96547619Y-73761904D02*
X96500000Y-73714285D01*
X96452380Y-73619047D01*
X96452380Y-73380952D01*
X96500000Y-73285714D01*
X96547619Y-73238095D01*
X96642857Y-73190476D01*
X96738095Y-73190476D01*
X96880952Y-73238095D01*
X97452380Y-73809523D01*
X97452380Y-73190476D01*
X96452380Y-72857142D02*
X96452380Y-72238095D01*
X96833333Y-72571428D01*
X96833333Y-72428571D01*
X96880952Y-72333333D01*
X96928571Y-72285714D01*
X97023809Y-72238095D01*
X97261904Y-72238095D01*
X97357142Y-72285714D01*
X97404761Y-72333333D01*
X97452380Y-72428571D01*
X97452380Y-72714285D01*
X97404761Y-72809523D01*
X97357142Y-72857142D01*
X49752380Y-73042857D02*
X49276190Y-73376190D01*
X49752380Y-73614285D02*
X48752380Y-73614285D01*
X48752380Y-73233333D01*
X48800000Y-73138095D01*
X48847619Y-73090476D01*
X48942857Y-73042857D01*
X49085714Y-73042857D01*
X49180952Y-73090476D01*
X49228571Y-73138095D01*
X49276190Y-73233333D01*
X49276190Y-73614285D01*
X48847619Y-72661904D02*
X48800000Y-72614285D01*
X48752380Y-72519047D01*
X48752380Y-72280952D01*
X48800000Y-72185714D01*
X48847619Y-72138095D01*
X48942857Y-72090476D01*
X49038095Y-72090476D01*
X49180952Y-72138095D01*
X49752380Y-72709523D01*
X49752380Y-72090476D01*
X48847619Y-71709523D02*
X48800000Y-71661904D01*
X48752380Y-71566666D01*
X48752380Y-71328571D01*
X48800000Y-71233333D01*
X48847619Y-71185714D01*
X48942857Y-71138095D01*
X49038095Y-71138095D01*
X49180952Y-71185714D01*
X49752380Y-71757142D01*
X49752380Y-71138095D01*
X48257142Y-68352380D02*
X47923809Y-67876190D01*
X47685714Y-68352380D02*
X47685714Y-67352380D01*
X48066666Y-67352380D01*
X48161904Y-67400000D01*
X48209523Y-67447619D01*
X48257142Y-67542857D01*
X48257142Y-67685714D01*
X48209523Y-67780952D01*
X48161904Y-67828571D01*
X48066666Y-67876190D01*
X47685714Y-67876190D01*
X48638095Y-67447619D02*
X48685714Y-67400000D01*
X48780952Y-67352380D01*
X49019047Y-67352380D01*
X49114285Y-67400000D01*
X49161904Y-67447619D01*
X49209523Y-67542857D01*
X49209523Y-67638095D01*
X49161904Y-67780952D01*
X48590476Y-68352380D01*
X49209523Y-68352380D01*
X50161904Y-68352380D02*
X49590476Y-68352380D01*
X49876190Y-68352380D02*
X49876190Y-67352380D01*
X49780952Y-67495238D01*
X49685714Y-67590476D01*
X49590476Y-67638095D01*
X136452380Y-70142857D02*
X135976190Y-70476190D01*
X136452380Y-70714285D02*
X135452380Y-70714285D01*
X135452380Y-70333333D01*
X135500000Y-70238095D01*
X135547619Y-70190476D01*
X135642857Y-70142857D01*
X135785714Y-70142857D01*
X135880952Y-70190476D01*
X135928571Y-70238095D01*
X135976190Y-70333333D01*
X135976190Y-70714285D01*
X135547619Y-69761904D02*
X135500000Y-69714285D01*
X135452380Y-69619047D01*
X135452380Y-69380952D01*
X135500000Y-69285714D01*
X135547619Y-69238095D01*
X135642857Y-69190476D01*
X135738095Y-69190476D01*
X135880952Y-69238095D01*
X136452380Y-69809523D01*
X136452380Y-69190476D01*
X135452380Y-68571428D02*
X135452380Y-68476190D01*
X135500000Y-68380952D01*
X135547619Y-68333333D01*
X135642857Y-68285714D01*
X135833333Y-68238095D01*
X136071428Y-68238095D01*
X136261904Y-68285714D01*
X136357142Y-68333333D01*
X136404761Y-68380952D01*
X136452380Y-68476190D01*
X136452380Y-68571428D01*
X136404761Y-68666666D01*
X136357142Y-68714285D01*
X136261904Y-68761904D01*
X136071428Y-68809523D01*
X135833333Y-68809523D01*
X135642857Y-68761904D01*
X135547619Y-68714285D01*
X135500000Y-68666666D01*
X135452380Y-68571428D01*
X133107142Y-68022380D02*
X132773809Y-67546190D01*
X132535714Y-68022380D02*
X132535714Y-67022380D01*
X132916666Y-67022380D01*
X133011904Y-67070000D01*
X133059523Y-67117619D01*
X133107142Y-67212857D01*
X133107142Y-67355714D01*
X133059523Y-67450952D01*
X133011904Y-67498571D01*
X132916666Y-67546190D01*
X132535714Y-67546190D01*
X134059523Y-68022380D02*
X133488095Y-68022380D01*
X133773809Y-68022380D02*
X133773809Y-67022380D01*
X133678571Y-67165238D01*
X133583333Y-67260476D01*
X133488095Y-67308095D01*
X134535714Y-68022380D02*
X134726190Y-68022380D01*
X134821428Y-67974761D01*
X134869047Y-67927142D01*
X134964285Y-67784285D01*
X135011904Y-67593809D01*
X135011904Y-67212857D01*
X134964285Y-67117619D01*
X134916666Y-67070000D01*
X134821428Y-67022380D01*
X134630952Y-67022380D01*
X134535714Y-67070000D01*
X134488095Y-67117619D01*
X134440476Y-67212857D01*
X134440476Y-67450952D01*
X134488095Y-67546190D01*
X134535714Y-67593809D01*
X134630952Y-67641428D01*
X134821428Y-67641428D01*
X134916666Y-67593809D01*
X134964285Y-67546190D01*
X135011904Y-67450952D01*
X124233333Y-68452380D02*
X123757142Y-68452380D01*
X123757142Y-67452380D01*
X125090476Y-68452380D02*
X124519047Y-68452380D01*
X124804761Y-68452380D02*
X124804761Y-67452380D01*
X124709523Y-67595238D01*
X124614285Y-67690476D01*
X124519047Y-67738095D01*
X87207142Y-66894642D02*
X87159523Y-66942261D01*
X87016666Y-66989880D01*
X86921428Y-66989880D01*
X86778571Y-66942261D01*
X86683333Y-66847023D01*
X86635714Y-66751785D01*
X86588095Y-66561309D01*
X86588095Y-66418452D01*
X86635714Y-66227976D01*
X86683333Y-66132738D01*
X86778571Y-66037500D01*
X86921428Y-65989880D01*
X87016666Y-65989880D01*
X87159523Y-66037500D01*
X87207142Y-66085119D01*
X87588095Y-66085119D02*
X87635714Y-66037500D01*
X87730952Y-65989880D01*
X87969047Y-65989880D01*
X88064285Y-66037500D01*
X88111904Y-66085119D01*
X88159523Y-66180357D01*
X88159523Y-66275595D01*
X88111904Y-66418452D01*
X87540476Y-66989880D01*
X88159523Y-66989880D01*
X88778571Y-65989880D02*
X88873809Y-65989880D01*
X88969047Y-66037500D01*
X89016666Y-66085119D01*
X89064285Y-66180357D01*
X89111904Y-66370833D01*
X89111904Y-66608928D01*
X89064285Y-66799404D01*
X89016666Y-66894642D01*
X88969047Y-66942261D01*
X88873809Y-66989880D01*
X88778571Y-66989880D01*
X88683333Y-66942261D01*
X88635714Y-66894642D01*
X88588095Y-66799404D01*
X88540476Y-66608928D01*
X88540476Y-66370833D01*
X88588095Y-66180357D01*
X88635714Y-66085119D01*
X88683333Y-66037500D01*
X88778571Y-65989880D01*
X131857142Y-73310357D02*
X131904761Y-73357976D01*
X131952380Y-73500833D01*
X131952380Y-73596071D01*
X131904761Y-73738928D01*
X131809523Y-73834166D01*
X131714285Y-73881785D01*
X131523809Y-73929404D01*
X131380952Y-73929404D01*
X131190476Y-73881785D01*
X131095238Y-73834166D01*
X131000000Y-73738928D01*
X130952380Y-73596071D01*
X130952380Y-73500833D01*
X131000000Y-73357976D01*
X131047619Y-73310357D01*
X131952380Y-72357976D02*
X131952380Y-72929404D01*
X131952380Y-72643690D02*
X130952380Y-72643690D01*
X131095238Y-72738928D01*
X131190476Y-72834166D01*
X131238095Y-72929404D01*
X131952380Y-71881785D02*
X131952380Y-71691309D01*
X131904761Y-71596071D01*
X131857142Y-71548452D01*
X131714285Y-71453214D01*
X131523809Y-71405595D01*
X131142857Y-71405595D01*
X131047619Y-71453214D01*
X131000000Y-71500833D01*
X130952380Y-71596071D01*
X130952380Y-71786547D01*
X131000000Y-71881785D01*
X131047619Y-71929404D01*
X131142857Y-71977023D01*
X131380952Y-71977023D01*
X131476190Y-71929404D01*
X131523809Y-71881785D01*
X131571428Y-71786547D01*
X131571428Y-71596071D01*
X131523809Y-71500833D01*
X131476190Y-71453214D01*
X131380952Y-71405595D01*
X131857142Y-67142857D02*
X131904761Y-67190476D01*
X131952380Y-67333333D01*
X131952380Y-67428571D01*
X131904761Y-67571428D01*
X131809523Y-67666666D01*
X131714285Y-67714285D01*
X131523809Y-67761904D01*
X131380952Y-67761904D01*
X131190476Y-67714285D01*
X131095238Y-67666666D01*
X131000000Y-67571428D01*
X130952380Y-67428571D01*
X130952380Y-67333333D01*
X131000000Y-67190476D01*
X131047619Y-67142857D01*
X131952380Y-66190476D02*
X131952380Y-66761904D01*
X131952380Y-66476190D02*
X130952380Y-66476190D01*
X131095238Y-66571428D01*
X131190476Y-66666666D01*
X131238095Y-66761904D01*
X131380952Y-65619047D02*
X131333333Y-65714285D01*
X131285714Y-65761904D01*
X131190476Y-65809523D01*
X131142857Y-65809523D01*
X131047619Y-65761904D01*
X131000000Y-65714285D01*
X130952380Y-65619047D01*
X130952380Y-65428571D01*
X131000000Y-65333333D01*
X131047619Y-65285714D01*
X131142857Y-65238095D01*
X131190476Y-65238095D01*
X131285714Y-65285714D01*
X131333333Y-65333333D01*
X131380952Y-65428571D01*
X131380952Y-65619047D01*
X131428571Y-65714285D01*
X131476190Y-65761904D01*
X131571428Y-65809523D01*
X131761904Y-65809523D01*
X131857142Y-65761904D01*
X131904761Y-65714285D01*
X131952380Y-65619047D01*
X131952380Y-65428571D01*
X131904761Y-65333333D01*
X131857142Y-65285714D01*
X131761904Y-65238095D01*
X131571428Y-65238095D01*
X131476190Y-65285714D01*
X131428571Y-65333333D01*
X131380952Y-65428571D01*
X130357142Y-67142857D02*
X130404761Y-67190476D01*
X130452380Y-67333333D01*
X130452380Y-67428571D01*
X130404761Y-67571428D01*
X130309523Y-67666666D01*
X130214285Y-67714285D01*
X130023809Y-67761904D01*
X129880952Y-67761904D01*
X129690476Y-67714285D01*
X129595238Y-67666666D01*
X129500000Y-67571428D01*
X129452380Y-67428571D01*
X129452380Y-67333333D01*
X129500000Y-67190476D01*
X129547619Y-67142857D01*
X130452380Y-66190476D02*
X130452380Y-66761904D01*
X130452380Y-66476190D02*
X129452380Y-66476190D01*
X129595238Y-66571428D01*
X129690476Y-66666666D01*
X129738095Y-66761904D01*
X129452380Y-65857142D02*
X129452380Y-65190476D01*
X130452380Y-65619047D01*
X131857142Y-76332857D02*
X131904761Y-76380476D01*
X131952380Y-76523333D01*
X131952380Y-76618571D01*
X131904761Y-76761428D01*
X131809523Y-76856666D01*
X131714285Y-76904285D01*
X131523809Y-76951904D01*
X131380952Y-76951904D01*
X131190476Y-76904285D01*
X131095238Y-76856666D01*
X131000000Y-76761428D01*
X130952380Y-76618571D01*
X130952380Y-76523333D01*
X131000000Y-76380476D01*
X131047619Y-76332857D01*
X131952380Y-75380476D02*
X131952380Y-75951904D01*
X131952380Y-75666190D02*
X130952380Y-75666190D01*
X131095238Y-75761428D01*
X131190476Y-75856666D01*
X131238095Y-75951904D01*
X130952380Y-74523333D02*
X130952380Y-74713809D01*
X131000000Y-74809047D01*
X131047619Y-74856666D01*
X131190476Y-74951904D01*
X131380952Y-74999523D01*
X131761904Y-74999523D01*
X131857142Y-74951904D01*
X131904761Y-74904285D01*
X131952380Y-74809047D01*
X131952380Y-74618571D01*
X131904761Y-74523333D01*
X131857142Y-74475714D01*
X131761904Y-74428095D01*
X131523809Y-74428095D01*
X131428571Y-74475714D01*
X131380952Y-74523333D01*
X131333333Y-74618571D01*
X131333333Y-74809047D01*
X131380952Y-74904285D01*
X131428571Y-74951904D01*
X131523809Y-74999523D01*
X137957142Y-71957142D02*
X137909523Y-72004761D01*
X137766666Y-72052380D01*
X137671428Y-72052380D01*
X137528571Y-72004761D01*
X137433333Y-71909523D01*
X137385714Y-71814285D01*
X137338095Y-71623809D01*
X137338095Y-71480952D01*
X137385714Y-71290476D01*
X137433333Y-71195238D01*
X137528571Y-71100000D01*
X137671428Y-71052380D01*
X137766666Y-71052380D01*
X137909523Y-71100000D01*
X137957142Y-71147619D01*
X138909523Y-72052380D02*
X138338095Y-72052380D01*
X138623809Y-72052380D02*
X138623809Y-71052380D01*
X138528571Y-71195238D01*
X138433333Y-71290476D01*
X138338095Y-71338095D01*
X139814285Y-71052380D02*
X139338095Y-71052380D01*
X139290476Y-71528571D01*
X139338095Y-71480952D01*
X139433333Y-71433333D01*
X139671428Y-71433333D01*
X139766666Y-71480952D01*
X139814285Y-71528571D01*
X139861904Y-71623809D01*
X139861904Y-71861904D01*
X139814285Y-71957142D01*
X139766666Y-72004761D01*
X139671428Y-72052380D01*
X139433333Y-72052380D01*
X139338095Y-72004761D01*
X139290476Y-71957142D01*
X58632380Y-66261904D02*
X59441904Y-66261904D01*
X59537142Y-66214285D01*
X59584761Y-66166666D01*
X59632380Y-66071428D01*
X59632380Y-65880952D01*
X59584761Y-65785714D01*
X59537142Y-65738095D01*
X59441904Y-65690476D01*
X58632380Y-65690476D01*
X58632380Y-64738095D02*
X58632380Y-65214285D01*
X59108571Y-65261904D01*
X59060952Y-65214285D01*
X59013333Y-65119047D01*
X59013333Y-64880952D01*
X59060952Y-64785714D01*
X59108571Y-64738095D01*
X59203809Y-64690476D01*
X59441904Y-64690476D01*
X59537142Y-64738095D01*
X59584761Y-64785714D01*
X59632380Y-64880952D01*
X59632380Y-65119047D01*
X59584761Y-65214285D01*
X59537142Y-65261904D01*
X86452380Y-65591904D02*
X87261904Y-65591904D01*
X87357142Y-65544285D01*
X87404761Y-65496666D01*
X87452380Y-65401428D01*
X87452380Y-65210952D01*
X87404761Y-65115714D01*
X87357142Y-65068095D01*
X87261904Y-65020476D01*
X86452380Y-65020476D01*
X86785714Y-64115714D02*
X87452380Y-64115714D01*
X86404761Y-64353809D02*
X87119047Y-64591904D01*
X87119047Y-63972857D01*
X82022380Y-64142857D02*
X81546190Y-64476190D01*
X82022380Y-64714285D02*
X81022380Y-64714285D01*
X81022380Y-64333333D01*
X81070000Y-64238095D01*
X81117619Y-64190476D01*
X81212857Y-64142857D01*
X81355714Y-64142857D01*
X81450952Y-64190476D01*
X81498571Y-64238095D01*
X81546190Y-64333333D01*
X81546190Y-64714285D01*
X82022380Y-63190476D02*
X82022380Y-63761904D01*
X82022380Y-63476190D02*
X81022380Y-63476190D01*
X81165238Y-63571428D01*
X81260476Y-63666666D01*
X81308095Y-63761904D01*
X81450952Y-62619047D02*
X81403333Y-62714285D01*
X81355714Y-62761904D01*
X81260476Y-62809523D01*
X81212857Y-62809523D01*
X81117619Y-62761904D01*
X81070000Y-62714285D01*
X81022380Y-62619047D01*
X81022380Y-62428571D01*
X81070000Y-62333333D01*
X81117619Y-62285714D01*
X81212857Y-62238095D01*
X81260476Y-62238095D01*
X81355714Y-62285714D01*
X81403333Y-62333333D01*
X81450952Y-62428571D01*
X81450952Y-62619047D01*
X81498571Y-62714285D01*
X81546190Y-62761904D01*
X81641428Y-62809523D01*
X81831904Y-62809523D01*
X81927142Y-62761904D01*
X81974761Y-62714285D01*
X82022380Y-62619047D01*
X82022380Y-62428571D01*
X81974761Y-62333333D01*
X81927142Y-62285714D01*
X81831904Y-62238095D01*
X81641428Y-62238095D01*
X81546190Y-62285714D01*
X81498571Y-62333333D01*
X81450952Y-62428571D01*
X96557142Y-70452380D02*
X96223809Y-69976190D01*
X95985714Y-70452380D02*
X95985714Y-69452380D01*
X96366666Y-69452380D01*
X96461904Y-69500000D01*
X96509523Y-69547619D01*
X96557142Y-69642857D01*
X96557142Y-69785714D01*
X96509523Y-69880952D01*
X96461904Y-69928571D01*
X96366666Y-69976190D01*
X95985714Y-69976190D01*
X97509523Y-70452380D02*
X96938095Y-70452380D01*
X97223809Y-70452380D02*
X97223809Y-69452380D01*
X97128571Y-69595238D01*
X97033333Y-69690476D01*
X96938095Y-69738095D01*
X97842857Y-69452380D02*
X98509523Y-69452380D01*
X98080952Y-70452380D01*
X104522380Y-63642857D02*
X104046190Y-63976190D01*
X104522380Y-64214285D02*
X103522380Y-64214285D01*
X103522380Y-63833333D01*
X103570000Y-63738095D01*
X103617619Y-63690476D01*
X103712857Y-63642857D01*
X103855714Y-63642857D01*
X103950952Y-63690476D01*
X103998571Y-63738095D01*
X104046190Y-63833333D01*
X104046190Y-64214285D01*
X104522380Y-62690476D02*
X104522380Y-63261904D01*
X104522380Y-62976190D02*
X103522380Y-62976190D01*
X103665238Y-63071428D01*
X103760476Y-63166666D01*
X103808095Y-63261904D01*
X103522380Y-61833333D02*
X103522380Y-62023809D01*
X103570000Y-62119047D01*
X103617619Y-62166666D01*
X103760476Y-62261904D01*
X103950952Y-62309523D01*
X104331904Y-62309523D01*
X104427142Y-62261904D01*
X104474761Y-62214285D01*
X104522380Y-62119047D01*
X104522380Y-61928571D01*
X104474761Y-61833333D01*
X104427142Y-61785714D01*
X104331904Y-61738095D01*
X104093809Y-61738095D01*
X103998571Y-61785714D01*
X103950952Y-61833333D01*
X103903333Y-61928571D01*
X103903333Y-62119047D01*
X103950952Y-62214285D01*
X103998571Y-62261904D01*
X104093809Y-62309523D01*
X97152380Y-73892857D02*
X96676190Y-74226190D01*
X97152380Y-74464285D02*
X96152380Y-74464285D01*
X96152380Y-74083333D01*
X96200000Y-73988095D01*
X96247619Y-73940476D01*
X96342857Y-73892857D01*
X96485714Y-73892857D01*
X96580952Y-73940476D01*
X96628571Y-73988095D01*
X96676190Y-74083333D01*
X96676190Y-74464285D01*
X97152380Y-72940476D02*
X97152380Y-73511904D01*
X97152380Y-73226190D02*
X96152380Y-73226190D01*
X96295238Y-73321428D01*
X96390476Y-73416666D01*
X96438095Y-73511904D01*
X96152380Y-72035714D02*
X96152380Y-72511904D01*
X96628571Y-72559523D01*
X96580952Y-72511904D01*
X96533333Y-72416666D01*
X96533333Y-72178571D01*
X96580952Y-72083333D01*
X96628571Y-72035714D01*
X96723809Y-71988095D01*
X96961904Y-71988095D01*
X97057142Y-72035714D01*
X97104761Y-72083333D01*
X97152380Y-72178571D01*
X97152380Y-72416666D01*
X97104761Y-72511904D01*
X97057142Y-72559523D01*
X78652380Y-48242857D02*
X78176190Y-48576190D01*
X78652380Y-48814285D02*
X77652380Y-48814285D01*
X77652380Y-48433333D01*
X77700000Y-48338095D01*
X77747619Y-48290476D01*
X77842857Y-48242857D01*
X77985714Y-48242857D01*
X78080952Y-48290476D01*
X78128571Y-48338095D01*
X78176190Y-48433333D01*
X78176190Y-48814285D01*
X78652380Y-47290476D02*
X78652380Y-47861904D01*
X78652380Y-47576190D02*
X77652380Y-47576190D01*
X77795238Y-47671428D01*
X77890476Y-47766666D01*
X77938095Y-47861904D01*
X77985714Y-46433333D02*
X78652380Y-46433333D01*
X77604761Y-46671428D02*
X78319047Y-46909523D01*
X78319047Y-46290476D01*
X106452380Y-47842857D02*
X105976190Y-48176190D01*
X106452380Y-48414285D02*
X105452380Y-48414285D01*
X105452380Y-48033333D01*
X105500000Y-47938095D01*
X105547619Y-47890476D01*
X105642857Y-47842857D01*
X105785714Y-47842857D01*
X105880952Y-47890476D01*
X105928571Y-47938095D01*
X105976190Y-48033333D01*
X105976190Y-48414285D01*
X106452380Y-46890476D02*
X106452380Y-47461904D01*
X106452380Y-47176190D02*
X105452380Y-47176190D01*
X105595238Y-47271428D01*
X105690476Y-47366666D01*
X105738095Y-47461904D01*
X105452380Y-46557142D02*
X105452380Y-45938095D01*
X105833333Y-46271428D01*
X105833333Y-46128571D01*
X105880952Y-46033333D01*
X105928571Y-45985714D01*
X106023809Y-45938095D01*
X106261904Y-45938095D01*
X106357142Y-45985714D01*
X106404761Y-46033333D01*
X106452380Y-46128571D01*
X106452380Y-46414285D01*
X106404761Y-46509523D01*
X106357142Y-46557142D01*
X68452380Y-67142857D02*
X67976190Y-67476190D01*
X68452380Y-67714285D02*
X67452380Y-67714285D01*
X67452380Y-67333333D01*
X67500000Y-67238095D01*
X67547619Y-67190476D01*
X67642857Y-67142857D01*
X67785714Y-67142857D01*
X67880952Y-67190476D01*
X67928571Y-67238095D01*
X67976190Y-67333333D01*
X67976190Y-67714285D01*
X68452380Y-66190476D02*
X68452380Y-66761904D01*
X68452380Y-66476190D02*
X67452380Y-66476190D01*
X67595238Y-66571428D01*
X67690476Y-66666666D01*
X67738095Y-66761904D01*
X67547619Y-65809523D02*
X67500000Y-65761904D01*
X67452380Y-65666666D01*
X67452380Y-65428571D01*
X67500000Y-65333333D01*
X67547619Y-65285714D01*
X67642857Y-65238095D01*
X67738095Y-65238095D01*
X67880952Y-65285714D01*
X68452380Y-65857142D01*
X68452380Y-65238095D01*
X60857142Y-56452380D02*
X60523809Y-55976190D01*
X60285714Y-56452380D02*
X60285714Y-55452380D01*
X60666666Y-55452380D01*
X60761904Y-55500000D01*
X60809523Y-55547619D01*
X60857142Y-55642857D01*
X60857142Y-55785714D01*
X60809523Y-55880952D01*
X60761904Y-55928571D01*
X60666666Y-55976190D01*
X60285714Y-55976190D01*
X61809523Y-56452380D02*
X61238095Y-56452380D01*
X61523809Y-56452380D02*
X61523809Y-55452380D01*
X61428571Y-55595238D01*
X61333333Y-55690476D01*
X61238095Y-55738095D01*
X62761904Y-56452380D02*
X62190476Y-56452380D01*
X62476190Y-56452380D02*
X62476190Y-55452380D01*
X62380952Y-55595238D01*
X62285714Y-55690476D01*
X62190476Y-55738095D01*
X96452380Y-66642857D02*
X95976190Y-66976190D01*
X96452380Y-67214285D02*
X95452380Y-67214285D01*
X95452380Y-66833333D01*
X95500000Y-66738095D01*
X95547619Y-66690476D01*
X95642857Y-66642857D01*
X95785714Y-66642857D01*
X95880952Y-66690476D01*
X95928571Y-66738095D01*
X95976190Y-66833333D01*
X95976190Y-67214285D01*
X96452380Y-65690476D02*
X96452380Y-66261904D01*
X96452380Y-65976190D02*
X95452380Y-65976190D01*
X95595238Y-66071428D01*
X95690476Y-66166666D01*
X95738095Y-66261904D01*
X95452380Y-65071428D02*
X95452380Y-64976190D01*
X95500000Y-64880952D01*
X95547619Y-64833333D01*
X95642857Y-64785714D01*
X95833333Y-64738095D01*
X96071428Y-64738095D01*
X96261904Y-64785714D01*
X96357142Y-64833333D01*
X96404761Y-64880952D01*
X96452380Y-64976190D01*
X96452380Y-65071428D01*
X96404761Y-65166666D01*
X96357142Y-65214285D01*
X96261904Y-65261904D01*
X96071428Y-65309523D01*
X95833333Y-65309523D01*
X95642857Y-65261904D01*
X95547619Y-65214285D01*
X95500000Y-65166666D01*
X95452380Y-65071428D01*
X88833333Y-55952380D02*
X88500000Y-55476190D01*
X88261904Y-55952380D02*
X88261904Y-54952380D01*
X88642857Y-54952380D01*
X88738095Y-55000000D01*
X88785714Y-55047619D01*
X88833333Y-55142857D01*
X88833333Y-55285714D01*
X88785714Y-55380952D01*
X88738095Y-55428571D01*
X88642857Y-55476190D01*
X88261904Y-55476190D01*
X89309523Y-55952380D02*
X89500000Y-55952380D01*
X89595238Y-55904761D01*
X89642857Y-55857142D01*
X89738095Y-55714285D01*
X89785714Y-55523809D01*
X89785714Y-55142857D01*
X89738095Y-55047619D01*
X89690476Y-55000000D01*
X89595238Y-54952380D01*
X89404761Y-54952380D01*
X89309523Y-55000000D01*
X89261904Y-55047619D01*
X89214285Y-55142857D01*
X89214285Y-55380952D01*
X89261904Y-55476190D01*
X89309523Y-55523809D01*
X89404761Y-55571428D01*
X89595238Y-55571428D01*
X89690476Y-55523809D01*
X89738095Y-55476190D01*
X89785714Y-55380952D01*
X57833333Y-64382380D02*
X57500000Y-63906190D01*
X57261904Y-64382380D02*
X57261904Y-63382380D01*
X57642857Y-63382380D01*
X57738095Y-63430000D01*
X57785714Y-63477619D01*
X57833333Y-63572857D01*
X57833333Y-63715714D01*
X57785714Y-63810952D01*
X57738095Y-63858571D01*
X57642857Y-63906190D01*
X57261904Y-63906190D01*
X58404761Y-63810952D02*
X58309523Y-63763333D01*
X58261904Y-63715714D01*
X58214285Y-63620476D01*
X58214285Y-63572857D01*
X58261904Y-63477619D01*
X58309523Y-63430000D01*
X58404761Y-63382380D01*
X58595238Y-63382380D01*
X58690476Y-63430000D01*
X58738095Y-63477619D01*
X58785714Y-63572857D01*
X58785714Y-63620476D01*
X58738095Y-63715714D01*
X58690476Y-63763333D01*
X58595238Y-63810952D01*
X58404761Y-63810952D01*
X58309523Y-63858571D01*
X58261904Y-63906190D01*
X58214285Y-64001428D01*
X58214285Y-64191904D01*
X58261904Y-64287142D01*
X58309523Y-64334761D01*
X58404761Y-64382380D01*
X58595238Y-64382380D01*
X58690476Y-64334761D01*
X58738095Y-64287142D01*
X58785714Y-64191904D01*
X58785714Y-64001428D01*
X58738095Y-63906190D01*
X58690476Y-63858571D01*
X58595238Y-63810952D01*
X85833333Y-63882380D02*
X85500000Y-63406190D01*
X85261904Y-63882380D02*
X85261904Y-62882380D01*
X85642857Y-62882380D01*
X85738095Y-62930000D01*
X85785714Y-62977619D01*
X85833333Y-63072857D01*
X85833333Y-63215714D01*
X85785714Y-63310952D01*
X85738095Y-63358571D01*
X85642857Y-63406190D01*
X85261904Y-63406190D01*
X86166666Y-62882380D02*
X86833333Y-62882380D01*
X86404761Y-63882380D01*
X115833333Y-55952380D02*
X115500000Y-55476190D01*
X115261904Y-55952380D02*
X115261904Y-54952380D01*
X115642857Y-54952380D01*
X115738095Y-55000000D01*
X115785714Y-55047619D01*
X115833333Y-55142857D01*
X115833333Y-55285714D01*
X115785714Y-55380952D01*
X115738095Y-55428571D01*
X115642857Y-55476190D01*
X115261904Y-55476190D01*
X116690476Y-54952380D02*
X116500000Y-54952380D01*
X116404761Y-55000000D01*
X116357142Y-55047619D01*
X116261904Y-55190476D01*
X116214285Y-55380952D01*
X116214285Y-55761904D01*
X116261904Y-55857142D01*
X116309523Y-55904761D01*
X116404761Y-55952380D01*
X116595238Y-55952380D01*
X116690476Y-55904761D01*
X116738095Y-55857142D01*
X116785714Y-55761904D01*
X116785714Y-55523809D01*
X116738095Y-55428571D01*
X116690476Y-55380952D01*
X116595238Y-55333333D01*
X116404761Y-55333333D01*
X116309523Y-55380952D01*
X116261904Y-55428571D01*
X116214285Y-55523809D01*
X66547619Y-42095238D02*
X66500000Y-42190476D01*
X66404761Y-42285714D01*
X66261904Y-42428571D01*
X66214285Y-42523809D01*
X66214285Y-42619047D01*
X66452380Y-42571428D02*
X66404761Y-42666666D01*
X66309523Y-42761904D01*
X66119047Y-42809523D01*
X65785714Y-42809523D01*
X65595238Y-42761904D01*
X65500000Y-42666666D01*
X65452380Y-42571428D01*
X65452380Y-42380952D01*
X65500000Y-42285714D01*
X65595238Y-42190476D01*
X65785714Y-42142857D01*
X66119047Y-42142857D01*
X66309523Y-42190476D01*
X66404761Y-42285714D01*
X66452380Y-42380952D01*
X66452380Y-42571428D01*
X65452380Y-41238095D02*
X65452380Y-41714285D01*
X65928571Y-41761904D01*
X65880952Y-41714285D01*
X65833333Y-41619047D01*
X65833333Y-41380952D01*
X65880952Y-41285714D01*
X65928571Y-41238095D01*
X66023809Y-41190476D01*
X66261904Y-41190476D01*
X66357142Y-41238095D01*
X66404761Y-41285714D01*
X66452380Y-41380952D01*
X66452380Y-41619047D01*
X66404761Y-41714285D01*
X66357142Y-41761904D01*
X102404761Y-58807619D02*
X102309523Y-58760000D01*
X102214285Y-58664761D01*
X102071428Y-58521904D01*
X101976190Y-58474285D01*
X101880952Y-58474285D01*
X101928571Y-58712380D02*
X101833333Y-58664761D01*
X101738095Y-58569523D01*
X101690476Y-58379047D01*
X101690476Y-58045714D01*
X101738095Y-57855238D01*
X101833333Y-57760000D01*
X101928571Y-57712380D01*
X102119047Y-57712380D01*
X102214285Y-57760000D01*
X102309523Y-57855238D01*
X102357142Y-58045714D01*
X102357142Y-58379047D01*
X102309523Y-58569523D01*
X102214285Y-58664761D01*
X102119047Y-58712380D01*
X101928571Y-58712380D01*
X103214285Y-58045714D02*
X103214285Y-58712380D01*
X102976190Y-57664761D02*
X102738095Y-58379047D01*
X103357142Y-58379047D01*
X94047619Y-42095238D02*
X94000000Y-42190476D01*
X93904761Y-42285714D01*
X93761904Y-42428571D01*
X93714285Y-42523809D01*
X93714285Y-42619047D01*
X93952380Y-42571428D02*
X93904761Y-42666666D01*
X93809523Y-42761904D01*
X93619047Y-42809523D01*
X93285714Y-42809523D01*
X93095238Y-42761904D01*
X93000000Y-42666666D01*
X92952380Y-42571428D01*
X92952380Y-42380952D01*
X93000000Y-42285714D01*
X93095238Y-42190476D01*
X93285714Y-42142857D01*
X93619047Y-42142857D01*
X93809523Y-42190476D01*
X93904761Y-42285714D01*
X93952380Y-42380952D01*
X93952380Y-42571428D01*
X92952380Y-41809523D02*
X92952380Y-41190476D01*
X93333333Y-41523809D01*
X93333333Y-41380952D01*
X93380952Y-41285714D01*
X93428571Y-41238095D01*
X93523809Y-41190476D01*
X93761904Y-41190476D01*
X93857142Y-41238095D01*
X93904761Y-41285714D01*
X93952380Y-41380952D01*
X93952380Y-41666666D01*
X93904761Y-41761904D01*
X93857142Y-41809523D01*
X127364761Y-58807619D02*
X127269523Y-58760000D01*
X127174285Y-58664761D01*
X127031428Y-58521904D01*
X126936190Y-58474285D01*
X126840952Y-58474285D01*
X126888571Y-58712380D02*
X126793333Y-58664761D01*
X126698095Y-58569523D01*
X126650476Y-58379047D01*
X126650476Y-58045714D01*
X126698095Y-57855238D01*
X126793333Y-57760000D01*
X126888571Y-57712380D01*
X127079047Y-57712380D01*
X127174285Y-57760000D01*
X127269523Y-57855238D01*
X127317142Y-58045714D01*
X127317142Y-58379047D01*
X127269523Y-58569523D01*
X127174285Y-58664761D01*
X127079047Y-58712380D01*
X126888571Y-58712380D01*
X127698095Y-57807619D02*
X127745714Y-57760000D01*
X127840952Y-57712380D01*
X128079047Y-57712380D01*
X128174285Y-57760000D01*
X128221904Y-57807619D01*
X128269523Y-57902857D01*
X128269523Y-57998095D01*
X128221904Y-58140952D01*
X127650476Y-58712380D01*
X128269523Y-58712380D01*
X77607142Y-34142857D02*
X77654761Y-34190476D01*
X77702380Y-34333333D01*
X77702380Y-34428571D01*
X77654761Y-34571428D01*
X77559523Y-34666666D01*
X77464285Y-34714285D01*
X77273809Y-34761904D01*
X77130952Y-34761904D01*
X76940476Y-34714285D01*
X76845238Y-34666666D01*
X76750000Y-34571428D01*
X76702380Y-34428571D01*
X76702380Y-34333333D01*
X76750000Y-34190476D01*
X76797619Y-34142857D01*
X77702380Y-33190476D02*
X77702380Y-33761904D01*
X77702380Y-33476190D02*
X76702380Y-33476190D01*
X76845238Y-33571428D01*
X76940476Y-33666666D01*
X76988095Y-33761904D01*
X77035714Y-32333333D02*
X77702380Y-32333333D01*
X76654761Y-32571428D02*
X77369047Y-32809523D01*
X77369047Y-32190476D01*
X105357142Y-34642857D02*
X105404761Y-34690476D01*
X105452380Y-34833333D01*
X105452380Y-34928571D01*
X105404761Y-35071428D01*
X105309523Y-35166666D01*
X105214285Y-35214285D01*
X105023809Y-35261904D01*
X104880952Y-35261904D01*
X104690476Y-35214285D01*
X104595238Y-35166666D01*
X104500000Y-35071428D01*
X104452380Y-34928571D01*
X104452380Y-34833333D01*
X104500000Y-34690476D01*
X104547619Y-34642857D01*
X105452380Y-33690476D02*
X105452380Y-34261904D01*
X105452380Y-33976190D02*
X104452380Y-33976190D01*
X104595238Y-34071428D01*
X104690476Y-34166666D01*
X104738095Y-34261904D01*
X104452380Y-33357142D02*
X104452380Y-32738095D01*
X104833333Y-33071428D01*
X104833333Y-32928571D01*
X104880952Y-32833333D01*
X104928571Y-32785714D01*
X105023809Y-32738095D01*
X105261904Y-32738095D01*
X105357142Y-32785714D01*
X105404761Y-32833333D01*
X105452380Y-32928571D01*
X105452380Y-33214285D01*
X105404761Y-33309523D01*
X105357142Y-33357142D01*
X80847142Y-34352857D02*
X80894761Y-34400476D01*
X80942380Y-34543333D01*
X80942380Y-34638571D01*
X80894761Y-34781428D01*
X80799523Y-34876666D01*
X80704285Y-34924285D01*
X80513809Y-34971904D01*
X80370952Y-34971904D01*
X80180476Y-34924285D01*
X80085238Y-34876666D01*
X79990000Y-34781428D01*
X79942380Y-34638571D01*
X79942380Y-34543333D01*
X79990000Y-34400476D01*
X80037619Y-34352857D01*
X80942380Y-33400476D02*
X80942380Y-33971904D01*
X80942380Y-33686190D02*
X79942380Y-33686190D01*
X80085238Y-33781428D01*
X80180476Y-33876666D01*
X80228095Y-33971904D01*
X80037619Y-33019523D02*
X79990000Y-32971904D01*
X79942380Y-32876666D01*
X79942380Y-32638571D01*
X79990000Y-32543333D01*
X80037619Y-32495714D01*
X80132857Y-32448095D01*
X80228095Y-32448095D01*
X80370952Y-32495714D01*
X80942380Y-33067142D01*
X80942380Y-32448095D01*
X108537142Y-34082857D02*
X108584761Y-34130476D01*
X108632380Y-34273333D01*
X108632380Y-34368571D01*
X108584761Y-34511428D01*
X108489523Y-34606666D01*
X108394285Y-34654285D01*
X108203809Y-34701904D01*
X108060952Y-34701904D01*
X107870476Y-34654285D01*
X107775238Y-34606666D01*
X107680000Y-34511428D01*
X107632380Y-34368571D01*
X107632380Y-34273333D01*
X107680000Y-34130476D01*
X107727619Y-34082857D01*
X108632380Y-33130476D02*
X108632380Y-33701904D01*
X108632380Y-33416190D02*
X107632380Y-33416190D01*
X107775238Y-33511428D01*
X107870476Y-33606666D01*
X107918095Y-33701904D01*
X108632380Y-32178095D02*
X108632380Y-32749523D01*
X108632380Y-32463809D02*
X107632380Y-32463809D01*
X107775238Y-32559047D01*
X107870476Y-32654285D01*
X107918095Y-32749523D01*
X63357142Y-59357142D02*
X63309523Y-59404761D01*
X63166666Y-59452380D01*
X63071428Y-59452380D01*
X62928571Y-59404761D01*
X62833333Y-59309523D01*
X62785714Y-59214285D01*
X62738095Y-59023809D01*
X62738095Y-58880952D01*
X62785714Y-58690476D01*
X62833333Y-58595238D01*
X62928571Y-58500000D01*
X63071428Y-58452380D01*
X63166666Y-58452380D01*
X63309523Y-58500000D01*
X63357142Y-58547619D01*
X64309523Y-59452380D02*
X63738095Y-59452380D01*
X64023809Y-59452380D02*
X64023809Y-58452380D01*
X63928571Y-58595238D01*
X63833333Y-58690476D01*
X63738095Y-58738095D01*
X64928571Y-58452380D02*
X65023809Y-58452380D01*
X65119047Y-58500000D01*
X65166666Y-58547619D01*
X65214285Y-58642857D01*
X65261904Y-58833333D01*
X65261904Y-59071428D01*
X65214285Y-59261904D01*
X65166666Y-59357142D01*
X65119047Y-59404761D01*
X65023809Y-59452380D01*
X64928571Y-59452380D01*
X64833333Y-59404761D01*
X64785714Y-59357142D01*
X64738095Y-59261904D01*
X64690476Y-59071428D01*
X64690476Y-58833333D01*
X64738095Y-58642857D01*
X64785714Y-58547619D01*
X64833333Y-58500000D01*
X64928571Y-58452380D01*
X91833333Y-58857142D02*
X91785714Y-58904761D01*
X91642857Y-58952380D01*
X91547619Y-58952380D01*
X91404761Y-58904761D01*
X91309523Y-58809523D01*
X91261904Y-58714285D01*
X91214285Y-58523809D01*
X91214285Y-58380952D01*
X91261904Y-58190476D01*
X91309523Y-58095238D01*
X91404761Y-58000000D01*
X91547619Y-57952380D01*
X91642857Y-57952380D01*
X91785714Y-58000000D01*
X91833333Y-58047619D01*
X92309523Y-58952380D02*
X92500000Y-58952380D01*
X92595238Y-58904761D01*
X92642857Y-58857142D01*
X92738095Y-58714285D01*
X92785714Y-58523809D01*
X92785714Y-58142857D01*
X92738095Y-58047619D01*
X92690476Y-58000000D01*
X92595238Y-57952380D01*
X92404761Y-57952380D01*
X92309523Y-58000000D01*
X92261904Y-58047619D01*
X92214285Y-58142857D01*
X92214285Y-58380952D01*
X92261904Y-58476190D01*
X92309523Y-58523809D01*
X92404761Y-58571428D01*
X92595238Y-58571428D01*
X92690476Y-58523809D01*
X92738095Y-58476190D01*
X92785714Y-58380952D01*
X94857142Y-65666666D02*
X94904761Y-65714285D01*
X94952380Y-65857142D01*
X94952380Y-65952380D01*
X94904761Y-66095238D01*
X94809523Y-66190476D01*
X94714285Y-66238095D01*
X94523809Y-66285714D01*
X94380952Y-66285714D01*
X94190476Y-66238095D01*
X94095238Y-66190476D01*
X94000000Y-66095238D01*
X93952380Y-65952380D01*
X93952380Y-65857142D01*
X94000000Y-65714285D01*
X94047619Y-65666666D01*
X94380952Y-65095238D02*
X94333333Y-65190476D01*
X94285714Y-65238095D01*
X94190476Y-65285714D01*
X94142857Y-65285714D01*
X94047619Y-65238095D01*
X94000000Y-65190476D01*
X93952380Y-65095238D01*
X93952380Y-64904761D01*
X94000000Y-64809523D01*
X94047619Y-64761904D01*
X94142857Y-64714285D01*
X94190476Y-64714285D01*
X94285714Y-64761904D01*
X94333333Y-64809523D01*
X94380952Y-64904761D01*
X94380952Y-65095238D01*
X94428571Y-65190476D01*
X94476190Y-65238095D01*
X94571428Y-65285714D01*
X94761904Y-65285714D01*
X94857142Y-65238095D01*
X94904761Y-65190476D01*
X94952380Y-65095238D01*
X94952380Y-64904761D01*
X94904761Y-64809523D01*
X94857142Y-64761904D01*
X94761904Y-64714285D01*
X94571428Y-64714285D01*
X94476190Y-64761904D01*
X94428571Y-64809523D01*
X94380952Y-64904761D01*
X66857142Y-66166666D02*
X66904761Y-66214285D01*
X66952380Y-66357142D01*
X66952380Y-66452380D01*
X66904761Y-66595238D01*
X66809523Y-66690476D01*
X66714285Y-66738095D01*
X66523809Y-66785714D01*
X66380952Y-66785714D01*
X66190476Y-66738095D01*
X66095238Y-66690476D01*
X66000000Y-66595238D01*
X65952380Y-66452380D01*
X65952380Y-66357142D01*
X66000000Y-66214285D01*
X66047619Y-66166666D01*
X65952380Y-65833333D02*
X65952380Y-65166666D01*
X66952380Y-65595238D01*
X121857142Y-66166666D02*
X121904761Y-66214285D01*
X121952380Y-66357142D01*
X121952380Y-66452380D01*
X121904761Y-66595238D01*
X121809523Y-66690476D01*
X121714285Y-66738095D01*
X121523809Y-66785714D01*
X121380952Y-66785714D01*
X121190476Y-66738095D01*
X121095238Y-66690476D01*
X121000000Y-66595238D01*
X120952380Y-66452380D01*
X120952380Y-66357142D01*
X121000000Y-66214285D01*
X121047619Y-66166666D01*
X120952380Y-65833333D02*
X120952380Y-65214285D01*
X121333333Y-65547619D01*
X121333333Y-65404761D01*
X121380952Y-65309523D01*
X121428571Y-65261904D01*
X121523809Y-65214285D01*
X121761904Y-65214285D01*
X121857142Y-65261904D01*
X121904761Y-65309523D01*
X121952380Y-65404761D01*
X121952380Y-65690476D01*
X121904761Y-65785714D01*
X121857142Y-65833333D01*
X113432380Y-65761904D02*
X114241904Y-65761904D01*
X114337142Y-65714285D01*
X114384761Y-65666666D01*
X114432380Y-65571428D01*
X114432380Y-65380952D01*
X114384761Y-65285714D01*
X114337142Y-65238095D01*
X114241904Y-65190476D01*
X113432380Y-65190476D01*
X113432380Y-64809523D02*
X113432380Y-64190476D01*
X113813333Y-64523809D01*
X113813333Y-64380952D01*
X113860952Y-64285714D01*
X113908571Y-64238095D01*
X114003809Y-64190476D01*
X114241904Y-64190476D01*
X114337142Y-64238095D01*
X114384761Y-64285714D01*
X114432380Y-64380952D01*
X114432380Y-64666666D01*
X114384761Y-64761904D01*
X114337142Y-64809523D01*
X75752380Y-70261904D02*
X76561904Y-70261904D01*
X76657142Y-70214285D01*
X76704761Y-70166666D01*
X76752380Y-70071428D01*
X76752380Y-69880952D01*
X76704761Y-69785714D01*
X76657142Y-69738095D01*
X76561904Y-69690476D01*
X75752380Y-69690476D01*
X75847619Y-69261904D02*
X75800000Y-69214285D01*
X75752380Y-69119047D01*
X75752380Y-68880952D01*
X75800000Y-68785714D01*
X75847619Y-68738095D01*
X75942857Y-68690476D01*
X76038095Y-68690476D01*
X76180952Y-68738095D01*
X76752380Y-69309523D01*
X76752380Y-68690476D01*
X134378095Y-76852380D02*
X134378095Y-77661904D01*
X134425714Y-77757142D01*
X134473333Y-77804761D01*
X134568571Y-77852380D01*
X134759047Y-77852380D01*
X134854285Y-77804761D01*
X134901904Y-77757142D01*
X134949523Y-77661904D01*
X134949523Y-76852380D01*
X135949523Y-77852380D02*
X135378095Y-77852380D01*
X135663809Y-77852380D02*
X135663809Y-76852380D01*
X135568571Y-76995238D01*
X135473333Y-77090476D01*
X135378095Y-77138095D01*
X128022380Y-63166666D02*
X127546190Y-63500000D01*
X128022380Y-63738095D02*
X127022380Y-63738095D01*
X127022380Y-63357142D01*
X127070000Y-63261904D01*
X127117619Y-63214285D01*
X127212857Y-63166666D01*
X127355714Y-63166666D01*
X127450952Y-63214285D01*
X127498571Y-63261904D01*
X127546190Y-63357142D01*
X127546190Y-63738095D01*
X127022380Y-62261904D02*
X127022380Y-62738095D01*
X127498571Y-62785714D01*
X127450952Y-62738095D01*
X127403333Y-62642857D01*
X127403333Y-62404761D01*
X127450952Y-62309523D01*
X127498571Y-62261904D01*
X127593809Y-62214285D01*
X127831904Y-62214285D01*
X127927142Y-62261904D01*
X127974761Y-62309523D01*
X128022380Y-62404761D01*
X128022380Y-62642857D01*
X127974761Y-62738095D01*
X127927142Y-62785714D01*
X92382380Y-76466666D02*
X91906190Y-76800000D01*
X92382380Y-77038095D02*
X91382380Y-77038095D01*
X91382380Y-76657142D01*
X91430000Y-76561904D01*
X91477619Y-76514285D01*
X91572857Y-76466666D01*
X91715714Y-76466666D01*
X91810952Y-76514285D01*
X91858571Y-76561904D01*
X91906190Y-76657142D01*
X91906190Y-77038095D01*
X91715714Y-75609523D02*
X92382380Y-75609523D01*
X91334761Y-75847619D02*
X92049047Y-76085714D01*
X92049047Y-75466666D01*
X123452380Y-66166666D02*
X122976190Y-66500000D01*
X123452380Y-66738095D02*
X122452380Y-66738095D01*
X122452380Y-66357142D01*
X122500000Y-66261904D01*
X122547619Y-66214285D01*
X122642857Y-66166666D01*
X122785714Y-66166666D01*
X122880952Y-66214285D01*
X122928571Y-66261904D01*
X122976190Y-66357142D01*
X122976190Y-66738095D01*
X122452380Y-65833333D02*
X122452380Y-65214285D01*
X122833333Y-65547619D01*
X122833333Y-65404761D01*
X122880952Y-65309523D01*
X122928571Y-65261904D01*
X123023809Y-65214285D01*
X123261904Y-65214285D01*
X123357142Y-65261904D01*
X123404761Y-65309523D01*
X123452380Y-65404761D01*
X123452380Y-65690476D01*
X123404761Y-65785714D01*
X123357142Y-65833333D01*
X112833333Y-63882380D02*
X112500000Y-63406190D01*
X112261904Y-63882380D02*
X112261904Y-62882380D01*
X112642857Y-62882380D01*
X112738095Y-62930000D01*
X112785714Y-62977619D01*
X112833333Y-63072857D01*
X112833333Y-63215714D01*
X112785714Y-63310952D01*
X112738095Y-63358571D01*
X112642857Y-63406190D01*
X112261904Y-63406190D01*
X113214285Y-62977619D02*
X113261904Y-62930000D01*
X113357142Y-62882380D01*
X113595238Y-62882380D01*
X113690476Y-62930000D01*
X113738095Y-62977619D01*
X113785714Y-63072857D01*
X113785714Y-63168095D01*
X113738095Y-63310952D01*
X113166666Y-63882380D01*
X113785714Y-63882380D01*
X133252380Y-47166666D02*
X132776190Y-47500000D01*
X133252380Y-47738095D02*
X132252380Y-47738095D01*
X132252380Y-47357142D01*
X132300000Y-47261904D01*
X132347619Y-47214285D01*
X132442857Y-47166666D01*
X132585714Y-47166666D01*
X132680952Y-47214285D01*
X132728571Y-47261904D01*
X132776190Y-47357142D01*
X132776190Y-47738095D01*
X133252380Y-46214285D02*
X133252380Y-46785714D01*
X133252380Y-46500000D02*
X132252380Y-46500000D01*
X132395238Y-46595238D01*
X132490476Y-46690476D01*
X132538095Y-46785714D01*
X132047619Y-30595238D02*
X132000000Y-30690476D01*
X131904761Y-30785714D01*
X131761904Y-30928571D01*
X131714285Y-31023809D01*
X131714285Y-31119047D01*
X131952380Y-31071428D02*
X131904761Y-31166666D01*
X131809523Y-31261904D01*
X131619047Y-31309523D01*
X131285714Y-31309523D01*
X131095238Y-31261904D01*
X131000000Y-31166666D01*
X130952380Y-31071428D01*
X130952380Y-30880952D01*
X131000000Y-30785714D01*
X131095238Y-30690476D01*
X131285714Y-30642857D01*
X131619047Y-30642857D01*
X131809523Y-30690476D01*
X131904761Y-30785714D01*
X131952380Y-30880952D01*
X131952380Y-31071428D01*
X131952380Y-29690476D02*
X131952380Y-30261904D01*
X131952380Y-29976190D02*
X130952380Y-29976190D01*
X131095238Y-30071428D01*
X131190476Y-30166666D01*
X131238095Y-30261904D01*
X132357142Y-34166666D02*
X132404761Y-34214285D01*
X132452380Y-34357142D01*
X132452380Y-34452380D01*
X132404761Y-34595238D01*
X132309523Y-34690476D01*
X132214285Y-34738095D01*
X132023809Y-34785714D01*
X131880952Y-34785714D01*
X131690476Y-34738095D01*
X131595238Y-34690476D01*
X131500000Y-34595238D01*
X131452380Y-34452380D01*
X131452380Y-34357142D01*
X131500000Y-34214285D01*
X131547619Y-34166666D01*
X131452380Y-33261904D02*
X131452380Y-33738095D01*
X131928571Y-33785714D01*
X131880952Y-33738095D01*
X131833333Y-33642857D01*
X131833333Y-33404761D01*
X131880952Y-33309523D01*
X131928571Y-33261904D01*
X132023809Y-33214285D01*
X132261904Y-33214285D01*
X132357142Y-33261904D01*
X132404761Y-33309523D01*
X132452380Y-33404761D01*
X132452380Y-33642857D01*
X132404761Y-33738095D01*
X132357142Y-33785714D01*
X118333333Y-58857142D02*
X118285714Y-58904761D01*
X118142857Y-58952380D01*
X118047619Y-58952380D01*
X117904761Y-58904761D01*
X117809523Y-58809523D01*
X117761904Y-58714285D01*
X117714285Y-58523809D01*
X117714285Y-58380952D01*
X117761904Y-58190476D01*
X117809523Y-58095238D01*
X117904761Y-58000000D01*
X118047619Y-57952380D01*
X118142857Y-57952380D01*
X118285714Y-58000000D01*
X118333333Y-58047619D01*
X119190476Y-58285714D02*
X119190476Y-58952380D01*
X118952380Y-57904761D02*
X118714285Y-58619047D01*
X119333333Y-58619047D01*
X134777142Y-33606666D02*
X134824761Y-33654285D01*
X134872380Y-33797142D01*
X134872380Y-33892380D01*
X134824761Y-34035238D01*
X134729523Y-34130476D01*
X134634285Y-34178095D01*
X134443809Y-34225714D01*
X134300952Y-34225714D01*
X134110476Y-34178095D01*
X134015238Y-34130476D01*
X133920000Y-34035238D01*
X133872380Y-33892380D01*
X133872380Y-33797142D01*
X133920000Y-33654285D01*
X133967619Y-33606666D01*
X134872380Y-32654285D02*
X134872380Y-33225714D01*
X134872380Y-32940000D02*
X133872380Y-32940000D01*
X134015238Y-33035238D01*
X134110476Y-33130476D01*
X134158095Y-33225714D01*
M02*
