G04 #@! TF.GenerationSoftware,KiCad,Pcbnew,(5.1.2)-2*
G04 #@! TF.CreationDate,2020-07-10T15:31:03+01:00*
G04 #@! TF.ProjectId,INV_Board,494e565f-426f-4617-9264-2e6b69636164,rev?*
G04 #@! TF.SameCoordinates,Original*
G04 #@! TF.FileFunction,Soldermask,Bot*
G04 #@! TF.FilePolarity,Negative*
%FSLAX46Y46*%
G04 Gerber Fmt 4.6, Leading zero omitted, Abs format (unit mm)*
G04 Created by KiCad (PCBNEW (5.1.2)-2) date 2020-07-10 15:31:03*
%MOMM*%
%LPD*%
G04 APERTURE LIST*
%ADD10C,0.100000*%
G04 APERTURE END LIST*
D10*
G36*
X42076355Y-75752140D02*
G01*
X42140118Y-75758420D01*
X42202241Y-75777265D01*
X42262836Y-75795646D01*
X42375925Y-75856094D01*
X42475054Y-75937446D01*
X42556406Y-76036575D01*
X42616854Y-76149664D01*
X42616855Y-76149668D01*
X42654080Y-76272382D01*
X42666649Y-76400000D01*
X42654080Y-76527618D01*
X42634701Y-76591501D01*
X42616854Y-76650336D01*
X42556406Y-76763425D01*
X42475054Y-76862554D01*
X42375925Y-76943906D01*
X42262836Y-77004354D01*
X42230904Y-77014040D01*
X42140118Y-77041580D01*
X42076355Y-77047860D01*
X42044474Y-77051000D01*
X41280526Y-77051000D01*
X41248645Y-77047860D01*
X41184882Y-77041580D01*
X41094096Y-77014040D01*
X41062164Y-77004354D01*
X40949075Y-76943906D01*
X40849946Y-76862554D01*
X40768594Y-76763425D01*
X40708146Y-76650336D01*
X40690299Y-76591501D01*
X40670920Y-76527618D01*
X40658351Y-76400000D01*
X40670920Y-76272382D01*
X40708145Y-76149668D01*
X40708146Y-76149664D01*
X40768594Y-76036575D01*
X40849946Y-75937446D01*
X40949075Y-75856094D01*
X41062164Y-75795646D01*
X41122759Y-75777265D01*
X41184882Y-75758420D01*
X41248645Y-75752140D01*
X41280526Y-75749000D01*
X42044474Y-75749000D01*
X42076355Y-75752140D01*
X42076355Y-75752140D01*
G37*
G36*
X86160721Y-75770174D02*
G01*
X86260995Y-75811709D01*
X86281036Y-75825100D01*
X86351242Y-75872010D01*
X86427990Y-75948758D01*
X86451663Y-75984188D01*
X86488291Y-76039005D01*
X86529826Y-76139279D01*
X86551000Y-76245730D01*
X86551000Y-76354270D01*
X86529826Y-76460721D01*
X86488291Y-76560995D01*
X86488290Y-76560996D01*
X86427990Y-76651242D01*
X86351242Y-76727990D01*
X86328737Y-76743027D01*
X86260995Y-76788291D01*
X86160721Y-76829826D01*
X86054270Y-76851000D01*
X85945730Y-76851000D01*
X85839279Y-76829826D01*
X85739005Y-76788291D01*
X85671263Y-76743027D01*
X85648758Y-76727990D01*
X85572010Y-76651242D01*
X85511710Y-76560996D01*
X85511709Y-76560995D01*
X85470174Y-76460721D01*
X85449000Y-76354270D01*
X85449000Y-76245730D01*
X85470174Y-76139279D01*
X85511709Y-76039005D01*
X85548337Y-75984188D01*
X85572010Y-75948758D01*
X85648758Y-75872010D01*
X85718964Y-75825100D01*
X85739005Y-75811709D01*
X85839279Y-75770174D01*
X85945730Y-75749000D01*
X86054270Y-75749000D01*
X86160721Y-75770174D01*
X86160721Y-75770174D01*
G37*
G36*
X66011000Y-75877265D02*
G01*
X66013402Y-75901651D01*
X66020515Y-75925100D01*
X66032066Y-75946711D01*
X66047611Y-75965653D01*
X66066553Y-75981198D01*
X66088164Y-75992749D01*
X66111613Y-75999862D01*
X66135999Y-76002264D01*
X66160385Y-75999862D01*
X66183834Y-75992749D01*
X66205445Y-75981198D01*
X66224387Y-75965653D01*
X66239932Y-75946711D01*
X66246233Y-75936198D01*
X66269644Y-75892400D01*
X66338499Y-75808499D01*
X66346843Y-75801651D01*
X66422400Y-75739643D01*
X66490945Y-75703005D01*
X66518121Y-75688479D01*
X66621985Y-75656973D01*
X66702933Y-75649000D01*
X66757067Y-75649000D01*
X66838015Y-75656973D01*
X66941879Y-75688479D01*
X66969055Y-75703005D01*
X67037600Y-75739643D01*
X67121501Y-75808499D01*
X67190357Y-75892400D01*
X67220481Y-75948758D01*
X67241521Y-75988121D01*
X67245388Y-76000869D01*
X67254760Y-76023496D01*
X67268374Y-76043870D01*
X67285701Y-76061197D01*
X67306075Y-76074811D01*
X67328714Y-76084188D01*
X67352747Y-76088969D01*
X67377251Y-76088969D01*
X67401285Y-76084189D01*
X67423924Y-76074812D01*
X67444298Y-76061198D01*
X67461625Y-76043871D01*
X67475239Y-76023497D01*
X67484612Y-76000869D01*
X67488479Y-75988121D01*
X67509519Y-75948758D01*
X67539643Y-75892400D01*
X67608499Y-75808499D01*
X67692400Y-75739643D01*
X67760945Y-75703005D01*
X67788121Y-75688479D01*
X67891985Y-75656973D01*
X67972933Y-75649000D01*
X68027067Y-75649000D01*
X68108015Y-75656973D01*
X68211879Y-75688479D01*
X68239055Y-75703005D01*
X68307600Y-75739643D01*
X68391501Y-75808499D01*
X68460357Y-75892400D01*
X68490481Y-75948758D01*
X68511521Y-75988121D01*
X68515388Y-76000869D01*
X68524760Y-76023496D01*
X68538374Y-76043870D01*
X68555701Y-76061197D01*
X68576075Y-76074811D01*
X68598714Y-76084188D01*
X68622747Y-76088969D01*
X68647251Y-76088969D01*
X68671285Y-76084189D01*
X68693924Y-76074812D01*
X68714298Y-76061198D01*
X68731625Y-76043871D01*
X68745239Y-76023497D01*
X68754612Y-76000869D01*
X68758479Y-75988121D01*
X68779519Y-75948758D01*
X68809643Y-75892400D01*
X68878499Y-75808499D01*
X68962400Y-75739643D01*
X69030945Y-75703005D01*
X69058121Y-75688479D01*
X69161985Y-75656973D01*
X69242933Y-75649000D01*
X69297067Y-75649000D01*
X69378015Y-75656973D01*
X69481879Y-75688479D01*
X69509055Y-75703005D01*
X69577600Y-75739643D01*
X69661501Y-75808499D01*
X69730357Y-75892400D01*
X69760481Y-75948758D01*
X69781521Y-75988121D01*
X69785388Y-76000869D01*
X69794760Y-76023496D01*
X69808374Y-76043870D01*
X69825701Y-76061197D01*
X69846075Y-76074811D01*
X69868714Y-76084188D01*
X69892747Y-76088969D01*
X69917251Y-76088969D01*
X69941285Y-76084189D01*
X69963924Y-76074812D01*
X69984298Y-76061198D01*
X70001625Y-76043871D01*
X70015239Y-76023497D01*
X70024612Y-76000869D01*
X70028479Y-75988121D01*
X70049519Y-75948758D01*
X70079643Y-75892400D01*
X70148499Y-75808499D01*
X70232400Y-75739643D01*
X70300945Y-75703005D01*
X70328121Y-75688479D01*
X70431985Y-75656973D01*
X70512933Y-75649000D01*
X70567067Y-75649000D01*
X70648015Y-75656973D01*
X70751879Y-75688479D01*
X70779055Y-75703005D01*
X70847600Y-75739643D01*
X70931501Y-75808499D01*
X71000357Y-75892400D01*
X71030481Y-75948758D01*
X71051521Y-75988121D01*
X71083027Y-76091985D01*
X71093666Y-76200000D01*
X71083027Y-76308015D01*
X71051521Y-76411879D01*
X71051191Y-76412496D01*
X71000357Y-76507600D01*
X70931501Y-76591501D01*
X70847600Y-76660357D01*
X70779055Y-76696995D01*
X70751879Y-76711521D01*
X70648015Y-76743027D01*
X70567067Y-76751000D01*
X70512933Y-76751000D01*
X70431985Y-76743027D01*
X70328121Y-76711521D01*
X70300945Y-76696995D01*
X70232400Y-76660357D01*
X70148499Y-76591501D01*
X70079643Y-76507600D01*
X70028809Y-76412496D01*
X70028479Y-76411879D01*
X70024612Y-76399131D01*
X70015240Y-76376504D01*
X70001626Y-76356130D01*
X69984299Y-76338803D01*
X69963925Y-76325189D01*
X69941286Y-76315812D01*
X69917253Y-76311031D01*
X69892749Y-76311031D01*
X69868715Y-76315811D01*
X69846076Y-76325188D01*
X69825702Y-76338802D01*
X69808375Y-76356129D01*
X69794761Y-76376503D01*
X69785388Y-76399131D01*
X69781521Y-76411879D01*
X69781191Y-76412496D01*
X69730357Y-76507600D01*
X69661501Y-76591501D01*
X69577600Y-76660357D01*
X69509055Y-76696995D01*
X69481879Y-76711521D01*
X69378015Y-76743027D01*
X69297067Y-76751000D01*
X69242933Y-76751000D01*
X69161985Y-76743027D01*
X69058121Y-76711521D01*
X69030945Y-76696995D01*
X68962400Y-76660357D01*
X68878499Y-76591501D01*
X68809643Y-76507600D01*
X68758809Y-76412496D01*
X68758479Y-76411879D01*
X68754612Y-76399131D01*
X68745240Y-76376504D01*
X68731626Y-76356130D01*
X68714299Y-76338803D01*
X68693925Y-76325189D01*
X68671286Y-76315812D01*
X68647253Y-76311031D01*
X68622749Y-76311031D01*
X68598715Y-76315811D01*
X68576076Y-76325188D01*
X68555702Y-76338802D01*
X68538375Y-76356129D01*
X68524761Y-76376503D01*
X68515388Y-76399131D01*
X68511521Y-76411879D01*
X68511191Y-76412496D01*
X68460357Y-76507600D01*
X68391501Y-76591501D01*
X68307600Y-76660357D01*
X68239055Y-76696995D01*
X68211879Y-76711521D01*
X68108015Y-76743027D01*
X68027067Y-76751000D01*
X67972933Y-76751000D01*
X67891985Y-76743027D01*
X67788121Y-76711521D01*
X67760945Y-76696995D01*
X67692400Y-76660357D01*
X67608499Y-76591501D01*
X67539643Y-76507600D01*
X67488809Y-76412496D01*
X67488479Y-76411879D01*
X67484612Y-76399131D01*
X67475240Y-76376504D01*
X67461626Y-76356130D01*
X67444299Y-76338803D01*
X67423925Y-76325189D01*
X67401286Y-76315812D01*
X67377253Y-76311031D01*
X67352749Y-76311031D01*
X67328715Y-76315811D01*
X67306076Y-76325188D01*
X67285702Y-76338802D01*
X67268375Y-76356129D01*
X67254761Y-76376503D01*
X67245388Y-76399131D01*
X67241521Y-76411879D01*
X67241191Y-76412496D01*
X67190357Y-76507600D01*
X67121501Y-76591501D01*
X67037600Y-76660357D01*
X66969055Y-76696995D01*
X66941879Y-76711521D01*
X66838015Y-76743027D01*
X66757067Y-76751000D01*
X66702933Y-76751000D01*
X66621985Y-76743027D01*
X66518121Y-76711521D01*
X66490945Y-76696995D01*
X66422400Y-76660357D01*
X66338499Y-76591501D01*
X66269644Y-76507600D01*
X66246236Y-76463807D01*
X66232625Y-76443437D01*
X66215298Y-76426110D01*
X66194924Y-76412496D01*
X66172285Y-76403119D01*
X66148252Y-76398338D01*
X66123748Y-76398338D01*
X66099714Y-76403118D01*
X66077076Y-76412495D01*
X66056701Y-76426109D01*
X66039374Y-76443436D01*
X66025760Y-76463810D01*
X66016383Y-76486449D01*
X66011602Y-76510482D01*
X66011000Y-76522735D01*
X66011000Y-76751000D01*
X64909000Y-76751000D01*
X64909000Y-75649000D01*
X66011000Y-75649000D01*
X66011000Y-75877265D01*
X66011000Y-75877265D01*
G37*
G36*
X59768015Y-75556973D02*
G01*
X59871879Y-75588479D01*
X59899055Y-75603005D01*
X59967600Y-75639643D01*
X60051501Y-75708499D01*
X60120357Y-75792400D01*
X60154402Y-75856094D01*
X60171521Y-75888121D01*
X60175388Y-75900869D01*
X60184760Y-75923496D01*
X60198374Y-75943870D01*
X60215701Y-75961197D01*
X60236075Y-75974811D01*
X60258714Y-75984188D01*
X60282747Y-75988969D01*
X60307251Y-75988969D01*
X60331285Y-75984189D01*
X60353924Y-75974812D01*
X60374298Y-75961198D01*
X60391625Y-75943871D01*
X60405239Y-75923497D01*
X60414612Y-75900869D01*
X60418479Y-75888121D01*
X60435598Y-75856094D01*
X60469643Y-75792400D01*
X60538499Y-75708499D01*
X60622400Y-75639643D01*
X60690945Y-75603005D01*
X60718121Y-75588479D01*
X60821985Y-75556973D01*
X60902933Y-75549000D01*
X60957067Y-75549000D01*
X61038015Y-75556973D01*
X61141879Y-75588479D01*
X61169055Y-75603005D01*
X61237600Y-75639643D01*
X61297109Y-75688481D01*
X61321501Y-75708499D01*
X61390356Y-75792400D01*
X61413764Y-75836193D01*
X61427375Y-75856563D01*
X61444702Y-75873890D01*
X61465076Y-75887504D01*
X61487715Y-75896881D01*
X61511748Y-75901662D01*
X61536252Y-75901662D01*
X61560286Y-75896882D01*
X61582924Y-75887505D01*
X61603299Y-75873891D01*
X61620626Y-75856564D01*
X61634240Y-75836190D01*
X61643617Y-75813551D01*
X61648398Y-75789518D01*
X61649000Y-75777265D01*
X61649000Y-75549000D01*
X62751000Y-75549000D01*
X62751000Y-76651000D01*
X61649000Y-76651000D01*
X61649000Y-76422735D01*
X61646598Y-76398349D01*
X61639485Y-76374900D01*
X61627934Y-76353289D01*
X61612389Y-76334347D01*
X61593447Y-76318802D01*
X61571836Y-76307251D01*
X61548387Y-76300138D01*
X61524001Y-76297736D01*
X61499615Y-76300138D01*
X61476166Y-76307251D01*
X61454555Y-76318802D01*
X61435613Y-76334347D01*
X61420068Y-76353289D01*
X61413767Y-76363802D01*
X61390356Y-76407600D01*
X61325647Y-76486449D01*
X61321501Y-76491501D01*
X61237600Y-76560357D01*
X61179333Y-76591501D01*
X61141879Y-76611521D01*
X61038015Y-76643027D01*
X60957067Y-76651000D01*
X60902933Y-76651000D01*
X60821985Y-76643027D01*
X60718121Y-76611521D01*
X60680667Y-76591501D01*
X60622400Y-76560357D01*
X60538499Y-76491501D01*
X60469643Y-76407600D01*
X60426085Y-76326109D01*
X60418479Y-76311879D01*
X60414612Y-76299131D01*
X60405240Y-76276504D01*
X60391626Y-76256130D01*
X60374299Y-76238803D01*
X60353925Y-76225189D01*
X60331286Y-76215812D01*
X60307253Y-76211031D01*
X60282749Y-76211031D01*
X60258715Y-76215811D01*
X60236076Y-76225188D01*
X60215702Y-76238802D01*
X60198375Y-76256129D01*
X60184761Y-76276503D01*
X60175388Y-76299131D01*
X60171521Y-76311879D01*
X60163915Y-76326109D01*
X60120357Y-76407600D01*
X60051501Y-76491501D01*
X59967600Y-76560357D01*
X59909333Y-76591501D01*
X59871879Y-76611521D01*
X59768015Y-76643027D01*
X59687067Y-76651000D01*
X59632933Y-76651000D01*
X59551985Y-76643027D01*
X59448121Y-76611521D01*
X59410667Y-76591501D01*
X59352400Y-76560357D01*
X59268499Y-76491501D01*
X59199643Y-76407600D01*
X59156085Y-76326109D01*
X59148479Y-76311879D01*
X59116973Y-76208015D01*
X59106334Y-76100000D01*
X59116973Y-75991985D01*
X59148479Y-75888121D01*
X59165598Y-75856094D01*
X59199643Y-75792400D01*
X59268499Y-75708499D01*
X59352400Y-75639643D01*
X59420945Y-75603005D01*
X59448121Y-75588479D01*
X59551985Y-75556973D01*
X59632933Y-75549000D01*
X59687067Y-75549000D01*
X59768015Y-75556973D01*
X59768015Y-75556973D01*
G37*
G36*
X54081000Y-75777265D02*
G01*
X54083402Y-75801651D01*
X54090515Y-75825100D01*
X54102066Y-75846711D01*
X54117611Y-75865653D01*
X54136553Y-75881198D01*
X54158164Y-75892749D01*
X54181613Y-75899862D01*
X54205999Y-75902264D01*
X54230385Y-75899862D01*
X54253834Y-75892749D01*
X54275445Y-75881198D01*
X54294387Y-75865653D01*
X54309932Y-75846711D01*
X54316233Y-75836198D01*
X54339644Y-75792400D01*
X54408499Y-75708499D01*
X54432891Y-75688481D01*
X54492400Y-75639643D01*
X54560945Y-75603005D01*
X54588121Y-75588479D01*
X54691985Y-75556973D01*
X54772933Y-75549000D01*
X54827067Y-75549000D01*
X54908015Y-75556973D01*
X55011879Y-75588479D01*
X55039055Y-75603005D01*
X55107600Y-75639643D01*
X55191501Y-75708499D01*
X55260357Y-75792400D01*
X55294402Y-75856094D01*
X55311521Y-75888121D01*
X55315388Y-75900869D01*
X55324760Y-75923496D01*
X55338374Y-75943870D01*
X55355701Y-75961197D01*
X55376075Y-75974811D01*
X55398714Y-75984188D01*
X55422747Y-75988969D01*
X55447251Y-75988969D01*
X55471285Y-75984189D01*
X55493924Y-75974812D01*
X55514298Y-75961198D01*
X55531625Y-75943871D01*
X55545239Y-75923497D01*
X55554612Y-75900869D01*
X55558479Y-75888121D01*
X55575598Y-75856094D01*
X55609643Y-75792400D01*
X55678499Y-75708499D01*
X55762400Y-75639643D01*
X55830945Y-75603005D01*
X55858121Y-75588479D01*
X55961985Y-75556973D01*
X56042933Y-75549000D01*
X56097067Y-75549000D01*
X56178015Y-75556973D01*
X56281879Y-75588479D01*
X56309055Y-75603005D01*
X56377600Y-75639643D01*
X56461501Y-75708499D01*
X56530357Y-75792400D01*
X56564402Y-75856094D01*
X56581521Y-75888121D01*
X56585388Y-75900869D01*
X56594760Y-75923496D01*
X56608374Y-75943870D01*
X56625701Y-75961197D01*
X56646075Y-75974811D01*
X56668714Y-75984188D01*
X56692747Y-75988969D01*
X56717251Y-75988969D01*
X56741285Y-75984189D01*
X56763924Y-75974812D01*
X56784298Y-75961198D01*
X56801625Y-75943871D01*
X56815239Y-75923497D01*
X56824612Y-75900869D01*
X56828479Y-75888121D01*
X56845598Y-75856094D01*
X56879643Y-75792400D01*
X56948499Y-75708499D01*
X57032400Y-75639643D01*
X57100945Y-75603005D01*
X57128121Y-75588479D01*
X57231985Y-75556973D01*
X57312933Y-75549000D01*
X57367067Y-75549000D01*
X57448015Y-75556973D01*
X57551879Y-75588479D01*
X57579055Y-75603005D01*
X57647600Y-75639643D01*
X57731501Y-75708499D01*
X57800357Y-75792400D01*
X57834402Y-75856094D01*
X57851521Y-75888121D01*
X57883027Y-75991985D01*
X57893666Y-76100000D01*
X57883027Y-76208015D01*
X57851521Y-76311879D01*
X57843915Y-76326109D01*
X57800357Y-76407600D01*
X57731501Y-76491501D01*
X57647600Y-76560357D01*
X57589333Y-76591501D01*
X57551879Y-76611521D01*
X57448015Y-76643027D01*
X57367067Y-76651000D01*
X57312933Y-76651000D01*
X57231985Y-76643027D01*
X57128121Y-76611521D01*
X57090667Y-76591501D01*
X57032400Y-76560357D01*
X56948499Y-76491501D01*
X56879643Y-76407600D01*
X56836085Y-76326109D01*
X56828479Y-76311879D01*
X56824612Y-76299131D01*
X56815240Y-76276504D01*
X56801626Y-76256130D01*
X56784299Y-76238803D01*
X56763925Y-76225189D01*
X56741286Y-76215812D01*
X56717253Y-76211031D01*
X56692749Y-76211031D01*
X56668715Y-76215811D01*
X56646076Y-76225188D01*
X56625702Y-76238802D01*
X56608375Y-76256129D01*
X56594761Y-76276503D01*
X56585388Y-76299131D01*
X56581521Y-76311879D01*
X56573915Y-76326109D01*
X56530357Y-76407600D01*
X56461501Y-76491501D01*
X56377600Y-76560357D01*
X56319333Y-76591501D01*
X56281879Y-76611521D01*
X56178015Y-76643027D01*
X56097067Y-76651000D01*
X56042933Y-76651000D01*
X55961985Y-76643027D01*
X55858121Y-76611521D01*
X55820667Y-76591501D01*
X55762400Y-76560357D01*
X55678499Y-76491501D01*
X55609643Y-76407600D01*
X55566085Y-76326109D01*
X55558479Y-76311879D01*
X55554612Y-76299131D01*
X55545240Y-76276504D01*
X55531626Y-76256130D01*
X55514299Y-76238803D01*
X55493925Y-76225189D01*
X55471286Y-76215812D01*
X55447253Y-76211031D01*
X55422749Y-76211031D01*
X55398715Y-76215811D01*
X55376076Y-76225188D01*
X55355702Y-76238802D01*
X55338375Y-76256129D01*
X55324761Y-76276503D01*
X55315388Y-76299131D01*
X55311521Y-76311879D01*
X55303915Y-76326109D01*
X55260357Y-76407600D01*
X55191501Y-76491501D01*
X55107600Y-76560357D01*
X55049333Y-76591501D01*
X55011879Y-76611521D01*
X54908015Y-76643027D01*
X54827067Y-76651000D01*
X54772933Y-76651000D01*
X54691985Y-76643027D01*
X54588121Y-76611521D01*
X54550667Y-76591501D01*
X54492400Y-76560357D01*
X54408499Y-76491501D01*
X54404353Y-76486449D01*
X54339644Y-76407600D01*
X54316236Y-76363807D01*
X54302625Y-76343437D01*
X54285298Y-76326110D01*
X54264924Y-76312496D01*
X54242285Y-76303119D01*
X54218252Y-76298338D01*
X54193748Y-76298338D01*
X54169714Y-76303118D01*
X54147076Y-76312495D01*
X54126701Y-76326109D01*
X54109374Y-76343436D01*
X54095760Y-76363810D01*
X54086383Y-76386449D01*
X54081602Y-76410482D01*
X54081000Y-76422735D01*
X54081000Y-76651000D01*
X52979000Y-76651000D01*
X52979000Y-75549000D01*
X54081000Y-75549000D01*
X54081000Y-75777265D01*
X54081000Y-75777265D01*
G37*
G36*
X44588848Y-74653820D02*
G01*
X44588850Y-74653821D01*
X44588851Y-74653821D01*
X44730074Y-74712317D01*
X44730077Y-74712319D01*
X44857169Y-74797239D01*
X44965261Y-74905331D01*
X45050181Y-75032423D01*
X45050183Y-75032426D01*
X45108679Y-75173649D01*
X45108680Y-75173652D01*
X45138500Y-75323569D01*
X45138500Y-75476431D01*
X45116213Y-75588479D01*
X45108679Y-75626351D01*
X45050183Y-75767574D01*
X45050181Y-75767577D01*
X44965261Y-75894669D01*
X44857169Y-76002761D01*
X44749338Y-76074811D01*
X44730074Y-76087683D01*
X44588851Y-76146179D01*
X44588850Y-76146179D01*
X44588848Y-76146180D01*
X44438931Y-76176000D01*
X44286069Y-76176000D01*
X44136152Y-76146180D01*
X44136150Y-76146179D01*
X44136149Y-76146179D01*
X43994926Y-76087683D01*
X43975662Y-76074811D01*
X43867831Y-76002761D01*
X43759739Y-75894669D01*
X43674819Y-75767577D01*
X43674817Y-75767574D01*
X43616321Y-75626351D01*
X43608788Y-75588479D01*
X43586500Y-75476431D01*
X43586500Y-75323569D01*
X43616320Y-75173652D01*
X43616321Y-75173649D01*
X43674817Y-75032426D01*
X43674819Y-75032423D01*
X43759739Y-74905331D01*
X43867831Y-74797239D01*
X43994923Y-74712319D01*
X43994926Y-74712317D01*
X44136149Y-74653821D01*
X44136150Y-74653821D01*
X44136152Y-74653820D01*
X44286069Y-74624000D01*
X44438931Y-74624000D01*
X44588848Y-74653820D01*
X44588848Y-74653820D01*
G37*
G36*
X54351000Y-75061000D02*
G01*
X51849000Y-75061000D01*
X51849000Y-74219000D01*
X54351000Y-74219000D01*
X54351000Y-75061000D01*
X54351000Y-75061000D01*
G37*
G36*
X58251000Y-75061000D02*
G01*
X55749000Y-75061000D01*
X55749000Y-74219000D01*
X58251000Y-74219000D01*
X58251000Y-75061000D01*
X58251000Y-75061000D01*
G37*
G36*
X50908015Y-69946973D02*
G01*
X51011879Y-69978479D01*
X51016595Y-69981000D01*
X51107600Y-70029643D01*
X51191501Y-70098499D01*
X51260357Y-70182400D01*
X51296995Y-70250945D01*
X51311521Y-70278121D01*
X51343027Y-70381985D01*
X51353666Y-70490000D01*
X51343027Y-70598015D01*
X51311521Y-70701879D01*
X51311519Y-70701882D01*
X51260357Y-70797600D01*
X51191501Y-70881501D01*
X51107600Y-70950357D01*
X51039055Y-70986995D01*
X51011879Y-71001521D01*
X50999131Y-71005388D01*
X50976504Y-71014760D01*
X50956130Y-71028374D01*
X50938803Y-71045701D01*
X50925189Y-71066075D01*
X50915812Y-71088714D01*
X50911031Y-71112747D01*
X50911031Y-71137251D01*
X50915811Y-71161285D01*
X50925188Y-71183924D01*
X50938802Y-71204298D01*
X50956129Y-71221625D01*
X50976503Y-71235239D01*
X50999131Y-71244612D01*
X51011879Y-71248479D01*
X51016595Y-71251000D01*
X51107600Y-71299643D01*
X51191501Y-71368499D01*
X51260357Y-71452400D01*
X51296995Y-71520945D01*
X51311521Y-71548121D01*
X51343027Y-71651985D01*
X51353666Y-71760000D01*
X51343027Y-71868015D01*
X51311521Y-71971879D01*
X51311519Y-71971882D01*
X51260357Y-72067600D01*
X51191501Y-72151501D01*
X51107600Y-72220357D01*
X51039055Y-72256995D01*
X51011879Y-72271521D01*
X50999131Y-72275388D01*
X50976504Y-72284760D01*
X50956130Y-72298374D01*
X50938803Y-72315701D01*
X50925189Y-72336075D01*
X50915812Y-72358714D01*
X50911031Y-72382747D01*
X50911031Y-72407251D01*
X50915811Y-72431285D01*
X50925188Y-72453924D01*
X50938802Y-72474298D01*
X50956129Y-72491625D01*
X50976503Y-72505239D01*
X50999131Y-72514612D01*
X51011879Y-72518479D01*
X51016595Y-72521000D01*
X51107600Y-72569643D01*
X51191501Y-72638499D01*
X51260357Y-72722400D01*
X51296995Y-72790945D01*
X51311521Y-72818121D01*
X51343027Y-72921985D01*
X51353666Y-73030000D01*
X51343027Y-73138015D01*
X51311521Y-73241879D01*
X51311519Y-73241882D01*
X51260357Y-73337600D01*
X51191501Y-73421501D01*
X51107600Y-73490356D01*
X51063807Y-73513764D01*
X51043437Y-73527375D01*
X51026110Y-73544702D01*
X51012496Y-73565076D01*
X51003119Y-73587715D01*
X50998338Y-73611748D01*
X50998338Y-73636252D01*
X51003118Y-73660286D01*
X51012495Y-73682924D01*
X51026109Y-73703299D01*
X51043436Y-73720626D01*
X51063810Y-73734240D01*
X51086449Y-73743617D01*
X51110482Y-73748398D01*
X51122735Y-73749000D01*
X51351000Y-73749000D01*
X51351000Y-74851000D01*
X50249000Y-74851000D01*
X50249000Y-73749000D01*
X50477265Y-73749000D01*
X50501651Y-73746598D01*
X50525100Y-73739485D01*
X50546711Y-73727934D01*
X50565653Y-73712389D01*
X50581198Y-73693447D01*
X50592749Y-73671836D01*
X50599862Y-73648387D01*
X50602264Y-73624001D01*
X50599862Y-73599615D01*
X50592749Y-73576166D01*
X50581198Y-73554555D01*
X50565653Y-73535613D01*
X50546711Y-73520068D01*
X50536198Y-73513767D01*
X50492400Y-73490356D01*
X50408499Y-73421501D01*
X50339643Y-73337600D01*
X50288481Y-73241882D01*
X50288479Y-73241879D01*
X50256973Y-73138015D01*
X50246334Y-73030000D01*
X50256973Y-72921985D01*
X50288479Y-72818121D01*
X50303005Y-72790945D01*
X50339643Y-72722400D01*
X50408499Y-72638499D01*
X50492400Y-72569643D01*
X50583405Y-72521000D01*
X50588121Y-72518479D01*
X50600869Y-72514612D01*
X50623496Y-72505240D01*
X50643870Y-72491626D01*
X50661197Y-72474299D01*
X50674811Y-72453925D01*
X50684188Y-72431286D01*
X50688969Y-72407253D01*
X50688969Y-72382749D01*
X50684189Y-72358715D01*
X50674812Y-72336076D01*
X50661198Y-72315702D01*
X50643871Y-72298375D01*
X50623497Y-72284761D01*
X50600869Y-72275388D01*
X50588121Y-72271521D01*
X50560945Y-72256995D01*
X50492400Y-72220357D01*
X50408499Y-72151501D01*
X50339643Y-72067600D01*
X50288481Y-71971882D01*
X50288479Y-71971879D01*
X50256973Y-71868015D01*
X50246334Y-71760000D01*
X50256973Y-71651985D01*
X50288479Y-71548121D01*
X50303005Y-71520945D01*
X50339643Y-71452400D01*
X50408499Y-71368499D01*
X50492400Y-71299643D01*
X50583405Y-71251000D01*
X50588121Y-71248479D01*
X50600869Y-71244612D01*
X50623496Y-71235240D01*
X50643870Y-71221626D01*
X50661197Y-71204299D01*
X50674811Y-71183925D01*
X50684188Y-71161286D01*
X50688969Y-71137253D01*
X50688969Y-71112749D01*
X50684189Y-71088715D01*
X50674812Y-71066076D01*
X50661198Y-71045702D01*
X50643871Y-71028375D01*
X50623497Y-71014761D01*
X50600869Y-71005388D01*
X50588121Y-71001521D01*
X50560945Y-70986995D01*
X50492400Y-70950357D01*
X50408499Y-70881501D01*
X50339643Y-70797600D01*
X50288481Y-70701882D01*
X50288479Y-70701879D01*
X50256973Y-70598015D01*
X50246334Y-70490000D01*
X50256973Y-70381985D01*
X50288479Y-70278121D01*
X50303005Y-70250945D01*
X50339643Y-70182400D01*
X50408499Y-70098499D01*
X50492400Y-70029643D01*
X50583405Y-69981000D01*
X50588121Y-69978479D01*
X50691985Y-69946973D01*
X50772933Y-69939000D01*
X50827067Y-69939000D01*
X50908015Y-69946973D01*
X50908015Y-69946973D01*
G37*
G36*
X88660721Y-72870174D02*
G01*
X88760995Y-72911709D01*
X88760996Y-72911710D01*
X88851242Y-72972010D01*
X88927990Y-73048758D01*
X88927991Y-73048760D01*
X88988291Y-73139005D01*
X89029826Y-73239279D01*
X89051000Y-73345730D01*
X89051000Y-73454270D01*
X89029826Y-73560721D01*
X88988291Y-73660995D01*
X88988290Y-73660996D01*
X88927990Y-73751242D01*
X88851242Y-73827990D01*
X88805812Y-73858345D01*
X88760995Y-73888291D01*
X88660721Y-73929826D01*
X88554270Y-73951000D01*
X88445730Y-73951000D01*
X88339279Y-73929826D01*
X88239005Y-73888291D01*
X88194188Y-73858345D01*
X88148758Y-73827990D01*
X88072010Y-73751242D01*
X88011710Y-73660996D01*
X88011709Y-73660995D01*
X87970174Y-73560721D01*
X87949000Y-73454270D01*
X87949000Y-73345730D01*
X87970174Y-73239279D01*
X88011709Y-73139005D01*
X88072009Y-73048760D01*
X88072010Y-73048758D01*
X88148758Y-72972010D01*
X88239004Y-72911710D01*
X88239005Y-72911709D01*
X88339279Y-72870174D01*
X88445730Y-72849000D01*
X88554270Y-72849000D01*
X88660721Y-72870174D01*
X88660721Y-72870174D01*
G37*
G36*
X58251000Y-73791000D02*
G01*
X55749000Y-73791000D01*
X55749000Y-72949000D01*
X58251000Y-72949000D01*
X58251000Y-73791000D01*
X58251000Y-73791000D01*
G37*
G36*
X54351000Y-73791000D02*
G01*
X51849000Y-73791000D01*
X51849000Y-72949000D01*
X54351000Y-72949000D01*
X54351000Y-73791000D01*
X54351000Y-73791000D01*
G37*
G36*
X54351000Y-72521000D02*
G01*
X51849000Y-72521000D01*
X51849000Y-71679000D01*
X54351000Y-71679000D01*
X54351000Y-72521000D01*
X54351000Y-72521000D01*
G37*
G36*
X58251000Y-72521000D02*
G01*
X55749000Y-72521000D01*
X55749000Y-71679000D01*
X58251000Y-71679000D01*
X58251000Y-72521000D01*
X58251000Y-72521000D01*
G37*
G36*
X88858015Y-68016973D02*
G01*
X88961879Y-68048479D01*
X88989055Y-68063005D01*
X89057600Y-68099643D01*
X89141501Y-68168499D01*
X89210357Y-68252400D01*
X89246995Y-68320945D01*
X89261521Y-68348121D01*
X89293027Y-68451985D01*
X89303666Y-68560000D01*
X89293027Y-68668015D01*
X89261521Y-68771879D01*
X89248817Y-68795646D01*
X89210357Y-68867600D01*
X89141501Y-68951501D01*
X89057600Y-69020357D01*
X88989055Y-69056995D01*
X88961879Y-69071521D01*
X88949131Y-69075388D01*
X88926504Y-69084760D01*
X88906130Y-69098374D01*
X88888803Y-69115701D01*
X88875189Y-69136075D01*
X88865812Y-69158714D01*
X88861031Y-69182747D01*
X88861031Y-69207251D01*
X88865811Y-69231285D01*
X88875188Y-69253924D01*
X88888802Y-69274298D01*
X88906129Y-69291625D01*
X88926503Y-69305239D01*
X88949131Y-69314612D01*
X88961879Y-69318479D01*
X88989055Y-69333005D01*
X89057600Y-69369643D01*
X89141501Y-69438499D01*
X89210357Y-69522400D01*
X89246995Y-69590945D01*
X89261521Y-69618121D01*
X89293027Y-69721985D01*
X89303666Y-69830000D01*
X89293027Y-69938015D01*
X89261521Y-70041879D01*
X89246995Y-70069055D01*
X89210357Y-70137600D01*
X89173590Y-70182400D01*
X89141501Y-70221501D01*
X89057600Y-70290356D01*
X89013807Y-70313764D01*
X88993437Y-70327375D01*
X88976110Y-70344702D01*
X88962496Y-70365076D01*
X88953119Y-70387715D01*
X88948338Y-70411748D01*
X88948338Y-70436252D01*
X88953118Y-70460286D01*
X88962495Y-70482924D01*
X88976109Y-70503299D01*
X88993436Y-70520626D01*
X89013810Y-70534240D01*
X89036449Y-70543617D01*
X89060482Y-70548398D01*
X89072735Y-70549000D01*
X89301000Y-70549000D01*
X89301000Y-71651000D01*
X88199000Y-71651000D01*
X88199000Y-70549000D01*
X88427265Y-70549000D01*
X88451651Y-70546598D01*
X88475100Y-70539485D01*
X88496711Y-70527934D01*
X88515653Y-70512389D01*
X88531198Y-70493447D01*
X88542749Y-70471836D01*
X88549862Y-70448387D01*
X88552264Y-70424001D01*
X88549862Y-70399615D01*
X88542749Y-70376166D01*
X88531198Y-70354555D01*
X88515653Y-70335613D01*
X88496711Y-70320068D01*
X88486198Y-70313767D01*
X88442400Y-70290356D01*
X88358499Y-70221501D01*
X88326410Y-70182400D01*
X88289643Y-70137600D01*
X88253005Y-70069055D01*
X88238479Y-70041879D01*
X88206973Y-69938015D01*
X88196334Y-69830000D01*
X88206973Y-69721985D01*
X88238479Y-69618121D01*
X88253005Y-69590945D01*
X88289643Y-69522400D01*
X88358499Y-69438499D01*
X88442400Y-69369643D01*
X88510945Y-69333005D01*
X88538121Y-69318479D01*
X88550869Y-69314612D01*
X88573496Y-69305240D01*
X88593870Y-69291626D01*
X88611197Y-69274299D01*
X88624811Y-69253925D01*
X88634188Y-69231286D01*
X88638969Y-69207253D01*
X88638969Y-69182749D01*
X88634189Y-69158715D01*
X88624812Y-69136076D01*
X88611198Y-69115702D01*
X88593871Y-69098375D01*
X88573497Y-69084761D01*
X88550869Y-69075388D01*
X88538121Y-69071521D01*
X88510945Y-69056995D01*
X88442400Y-69020357D01*
X88358499Y-68951501D01*
X88289643Y-68867600D01*
X88251183Y-68795646D01*
X88238479Y-68771879D01*
X88206973Y-68668015D01*
X88196334Y-68560000D01*
X88206973Y-68451985D01*
X88238479Y-68348121D01*
X88253005Y-68320945D01*
X88289643Y-68252400D01*
X88358499Y-68168499D01*
X88442400Y-68099643D01*
X88510945Y-68063005D01*
X88538121Y-68048479D01*
X88641985Y-68016973D01*
X88722933Y-68009000D01*
X88777067Y-68009000D01*
X88858015Y-68016973D01*
X88858015Y-68016973D01*
G37*
G36*
X54351000Y-71251000D02*
G01*
X51849000Y-71251000D01*
X51849000Y-70409000D01*
X54351000Y-70409000D01*
X54351000Y-71251000D01*
X54351000Y-71251000D01*
G37*
G36*
X58251000Y-71251000D02*
G01*
X55749000Y-71251000D01*
X55749000Y-70409000D01*
X58251000Y-70409000D01*
X58251000Y-71251000D01*
X58251000Y-71251000D01*
G37*
G36*
X44588848Y-69653820D02*
G01*
X44588850Y-69653821D01*
X44588851Y-69653821D01*
X44730074Y-69712317D01*
X44730077Y-69712319D01*
X44857169Y-69797239D01*
X44965261Y-69905331D01*
X45048323Y-70029643D01*
X45050183Y-70032426D01*
X45077551Y-70098499D01*
X45108680Y-70173652D01*
X45138500Y-70323569D01*
X45138500Y-70476431D01*
X45114316Y-70598015D01*
X45108679Y-70626351D01*
X45050183Y-70767574D01*
X45050181Y-70767577D01*
X44965261Y-70894669D01*
X44857169Y-71002761D01*
X44762411Y-71066076D01*
X44730074Y-71087683D01*
X44588851Y-71146179D01*
X44588850Y-71146179D01*
X44588848Y-71146180D01*
X44438931Y-71176000D01*
X44286069Y-71176000D01*
X44136152Y-71146180D01*
X44136150Y-71146179D01*
X44136149Y-71146179D01*
X43994926Y-71087683D01*
X43962589Y-71066076D01*
X43867831Y-71002761D01*
X43759739Y-70894669D01*
X43674819Y-70767577D01*
X43674817Y-70767574D01*
X43616321Y-70626351D01*
X43610685Y-70598015D01*
X43586500Y-70476431D01*
X43586500Y-70323569D01*
X43616320Y-70173652D01*
X43647449Y-70098499D01*
X43674817Y-70032426D01*
X43676677Y-70029643D01*
X43759739Y-69905331D01*
X43867831Y-69797239D01*
X43994923Y-69712319D01*
X43994926Y-69712317D01*
X44136149Y-69653821D01*
X44136150Y-69653821D01*
X44136152Y-69653820D01*
X44286069Y-69624000D01*
X44438931Y-69624000D01*
X44588848Y-69653820D01*
X44588848Y-69653820D01*
G37*
G36*
X42076355Y-68752140D02*
G01*
X42140118Y-68758420D01*
X42230904Y-68785960D01*
X42262836Y-68795646D01*
X42375925Y-68856094D01*
X42475054Y-68937446D01*
X42556406Y-69036575D01*
X42616854Y-69149664D01*
X42626540Y-69181596D01*
X42654080Y-69272382D01*
X42666649Y-69400000D01*
X42654080Y-69527618D01*
X42626627Y-69618118D01*
X42616854Y-69650336D01*
X42556406Y-69763425D01*
X42475054Y-69862554D01*
X42375925Y-69943906D01*
X42262836Y-70004354D01*
X42230904Y-70014040D01*
X42140118Y-70041580D01*
X42076355Y-70047860D01*
X42044474Y-70051000D01*
X41280526Y-70051000D01*
X41248645Y-70047860D01*
X41184882Y-70041580D01*
X41094096Y-70014040D01*
X41062164Y-70004354D01*
X40949075Y-69943906D01*
X40849946Y-69862554D01*
X40768594Y-69763425D01*
X40708146Y-69650336D01*
X40698373Y-69618118D01*
X40670920Y-69527618D01*
X40658351Y-69400000D01*
X40670920Y-69272382D01*
X40698460Y-69181596D01*
X40708146Y-69149664D01*
X40768594Y-69036575D01*
X40849946Y-68937446D01*
X40949075Y-68856094D01*
X41062164Y-68795646D01*
X41094096Y-68785960D01*
X41184882Y-68758420D01*
X41248645Y-68752140D01*
X41280526Y-68749000D01*
X42044474Y-68749000D01*
X42076355Y-68752140D01*
X42076355Y-68752140D01*
G37*
G36*
X58251000Y-69981000D02*
G01*
X55749000Y-69981000D01*
X55749000Y-69139000D01*
X58251000Y-69139000D01*
X58251000Y-69981000D01*
X58251000Y-69981000D01*
G37*
G36*
X54351000Y-69981000D02*
G01*
X51849000Y-69981000D01*
X51849000Y-69139000D01*
X54351000Y-69139000D01*
X54351000Y-69981000D01*
X54351000Y-69981000D01*
G37*
G36*
X49051000Y-64051000D02*
G01*
X46949000Y-64051000D01*
X46949000Y-61949000D01*
X49051000Y-61949000D01*
X49051000Y-64051000D01*
X49051000Y-64051000D01*
G37*
G36*
X43306564Y-61989389D02*
G01*
X43497833Y-62068615D01*
X43497835Y-62068616D01*
X43669973Y-62183635D01*
X43816365Y-62330027D01*
X43931385Y-62502167D01*
X44010611Y-62693436D01*
X44051000Y-62896484D01*
X44051000Y-63103516D01*
X44010611Y-63306564D01*
X43931385Y-63497833D01*
X43931384Y-63497835D01*
X43816365Y-63669973D01*
X43669973Y-63816365D01*
X43497835Y-63931384D01*
X43497834Y-63931385D01*
X43497833Y-63931385D01*
X43306564Y-64010611D01*
X43103516Y-64051000D01*
X42896484Y-64051000D01*
X42693436Y-64010611D01*
X42502167Y-63931385D01*
X42502166Y-63931385D01*
X42502165Y-63931384D01*
X42330027Y-63816365D01*
X42183635Y-63669973D01*
X42068616Y-63497835D01*
X42068615Y-63497833D01*
X41989389Y-63306564D01*
X41949000Y-63103516D01*
X41949000Y-62896484D01*
X41989389Y-62693436D01*
X42068615Y-62502167D01*
X42183635Y-62330027D01*
X42330027Y-62183635D01*
X42502165Y-62068616D01*
X42502167Y-62068615D01*
X42693436Y-61989389D01*
X42896484Y-61949000D01*
X43103516Y-61949000D01*
X43306564Y-61989389D01*
X43306564Y-61989389D01*
G37*
G36*
X68401000Y-60901000D02*
G01*
X66599000Y-60901000D01*
X66599000Y-59099000D01*
X68401000Y-59099000D01*
X68401000Y-60901000D01*
X68401000Y-60901000D01*
G37*
G36*
X70150443Y-59105519D02*
G01*
X70216627Y-59112037D01*
X70386466Y-59163557D01*
X70542991Y-59247222D01*
X70578729Y-59276552D01*
X70680186Y-59359814D01*
X70763448Y-59461271D01*
X70792778Y-59497009D01*
X70876443Y-59653534D01*
X70927963Y-59823373D01*
X70945359Y-60000000D01*
X70927963Y-60176627D01*
X70876443Y-60346466D01*
X70792778Y-60502991D01*
X70763448Y-60538729D01*
X70680186Y-60640186D01*
X70578729Y-60723448D01*
X70542991Y-60752778D01*
X70386466Y-60836443D01*
X70216627Y-60887963D01*
X70150442Y-60894482D01*
X70084260Y-60901000D01*
X69995740Y-60901000D01*
X69929558Y-60894482D01*
X69863373Y-60887963D01*
X69693534Y-60836443D01*
X69537009Y-60752778D01*
X69501271Y-60723448D01*
X69399814Y-60640186D01*
X69316552Y-60538729D01*
X69287222Y-60502991D01*
X69203557Y-60346466D01*
X69152037Y-60176627D01*
X69134641Y-60000000D01*
X69152037Y-59823373D01*
X69203557Y-59653534D01*
X69287222Y-59497009D01*
X69316552Y-59461271D01*
X69399814Y-59359814D01*
X69501271Y-59276552D01*
X69537009Y-59247222D01*
X69693534Y-59163557D01*
X69863373Y-59112037D01*
X69929557Y-59105519D01*
X69995740Y-59099000D01*
X70084260Y-59099000D01*
X70150443Y-59105519D01*
X70150443Y-59105519D01*
G37*
G36*
X97401000Y-60401000D02*
G01*
X95599000Y-60401000D01*
X95599000Y-58599000D01*
X97401000Y-58599000D01*
X97401000Y-60401000D01*
X97401000Y-60401000D01*
G37*
G36*
X123401000Y-60401000D02*
G01*
X121599000Y-60401000D01*
X121599000Y-58599000D01*
X123401000Y-58599000D01*
X123401000Y-60401000D01*
X123401000Y-60401000D01*
G37*
G36*
X99150442Y-58605518D02*
G01*
X99216627Y-58612037D01*
X99386466Y-58663557D01*
X99542991Y-58747222D01*
X99578729Y-58776552D01*
X99680186Y-58859814D01*
X99763448Y-58961271D01*
X99792778Y-58997009D01*
X99876443Y-59153534D01*
X99927963Y-59323373D01*
X99945359Y-59500000D01*
X99927963Y-59676627D01*
X99876443Y-59846466D01*
X99792778Y-60002991D01*
X99763448Y-60038729D01*
X99680186Y-60140186D01*
X99578729Y-60223448D01*
X99542991Y-60252778D01*
X99386466Y-60336443D01*
X99216627Y-60387963D01*
X99150443Y-60394481D01*
X99084260Y-60401000D01*
X98995740Y-60401000D01*
X98929557Y-60394481D01*
X98863373Y-60387963D01*
X98693534Y-60336443D01*
X98537009Y-60252778D01*
X98501271Y-60223448D01*
X98399814Y-60140186D01*
X98316552Y-60038729D01*
X98287222Y-60002991D01*
X98203557Y-59846466D01*
X98152037Y-59676627D01*
X98134641Y-59500000D01*
X98152037Y-59323373D01*
X98203557Y-59153534D01*
X98287222Y-58997009D01*
X98316552Y-58961271D01*
X98399814Y-58859814D01*
X98501271Y-58776552D01*
X98537009Y-58747222D01*
X98693534Y-58663557D01*
X98863373Y-58612037D01*
X98929558Y-58605518D01*
X98995740Y-58599000D01*
X99084260Y-58599000D01*
X99150442Y-58605518D01*
X99150442Y-58605518D01*
G37*
G36*
X125150442Y-58605518D02*
G01*
X125216627Y-58612037D01*
X125386466Y-58663557D01*
X125542991Y-58747222D01*
X125578729Y-58776552D01*
X125680186Y-58859814D01*
X125763448Y-58961271D01*
X125792778Y-58997009D01*
X125876443Y-59153534D01*
X125927963Y-59323373D01*
X125945359Y-59500000D01*
X125927963Y-59676627D01*
X125876443Y-59846466D01*
X125792778Y-60002991D01*
X125763448Y-60038729D01*
X125680186Y-60140186D01*
X125578729Y-60223448D01*
X125542991Y-60252778D01*
X125386466Y-60336443D01*
X125216627Y-60387963D01*
X125150443Y-60394481D01*
X125084260Y-60401000D01*
X124995740Y-60401000D01*
X124929557Y-60394481D01*
X124863373Y-60387963D01*
X124693534Y-60336443D01*
X124537009Y-60252778D01*
X124501271Y-60223448D01*
X124399814Y-60140186D01*
X124316552Y-60038729D01*
X124287222Y-60002991D01*
X124203557Y-59846466D01*
X124152037Y-59676627D01*
X124134641Y-59500000D01*
X124152037Y-59323373D01*
X124203557Y-59153534D01*
X124287222Y-58997009D01*
X124316552Y-58961271D01*
X124399814Y-58859814D01*
X124501271Y-58776552D01*
X124537009Y-58747222D01*
X124693534Y-58663557D01*
X124863373Y-58612037D01*
X124929558Y-58605518D01*
X124995740Y-58599000D01*
X125084260Y-58599000D01*
X125150442Y-58605518D01*
X125150442Y-58605518D01*
G37*
G36*
X43306564Y-50989389D02*
G01*
X43497833Y-51068615D01*
X43497835Y-51068616D01*
X43669973Y-51183635D01*
X43816365Y-51330027D01*
X43931385Y-51502167D01*
X44010611Y-51693436D01*
X44051000Y-51896484D01*
X44051000Y-52103516D01*
X44010611Y-52306564D01*
X43931385Y-52497833D01*
X43931384Y-52497835D01*
X43816365Y-52669973D01*
X43669973Y-52816365D01*
X43497835Y-52931384D01*
X43497834Y-52931385D01*
X43497833Y-52931385D01*
X43306564Y-53010611D01*
X43103516Y-53051000D01*
X42896484Y-53051000D01*
X42693436Y-53010611D01*
X42502167Y-52931385D01*
X42502166Y-52931385D01*
X42502165Y-52931384D01*
X42330027Y-52816365D01*
X42183635Y-52669973D01*
X42068616Y-52497835D01*
X42068615Y-52497833D01*
X41989389Y-52306564D01*
X41949000Y-52103516D01*
X41949000Y-51896484D01*
X41989389Y-51693436D01*
X42068615Y-51502167D01*
X42183635Y-51330027D01*
X42330027Y-51183635D01*
X42502165Y-51068616D01*
X42502167Y-51068615D01*
X42693436Y-50989389D01*
X42896484Y-50949000D01*
X43103516Y-50949000D01*
X43306564Y-50989389D01*
X43306564Y-50989389D01*
G37*
G36*
X49051000Y-53051000D02*
G01*
X46949000Y-53051000D01*
X46949000Y-50949000D01*
X49051000Y-50949000D01*
X49051000Y-53051000D01*
X49051000Y-53051000D01*
G37*
G36*
X49051000Y-42051000D02*
G01*
X46949000Y-42051000D01*
X46949000Y-39949000D01*
X49051000Y-39949000D01*
X49051000Y-42051000D01*
X49051000Y-42051000D01*
G37*
G36*
X43306564Y-39989389D02*
G01*
X43497833Y-40068615D01*
X43497835Y-40068616D01*
X43669973Y-40183635D01*
X43816365Y-40330027D01*
X43931385Y-40502167D01*
X44010611Y-40693436D01*
X44051000Y-40896484D01*
X44051000Y-41103516D01*
X44010611Y-41306564D01*
X43931385Y-41497833D01*
X43931384Y-41497835D01*
X43816365Y-41669973D01*
X43669973Y-41816365D01*
X43497835Y-41931384D01*
X43497834Y-41931385D01*
X43497833Y-41931385D01*
X43306564Y-42010611D01*
X43103516Y-42051000D01*
X42896484Y-42051000D01*
X42693436Y-42010611D01*
X42502167Y-41931385D01*
X42502166Y-41931385D01*
X42502165Y-41931384D01*
X42330027Y-41816365D01*
X42183635Y-41669973D01*
X42068616Y-41497835D01*
X42068615Y-41497833D01*
X41989389Y-41306564D01*
X41949000Y-41103516D01*
X41949000Y-40896484D01*
X41989389Y-40693436D01*
X42068615Y-40502167D01*
X42183635Y-40330027D01*
X42330027Y-40183635D01*
X42502165Y-40068616D01*
X42502167Y-40068615D01*
X42693436Y-39989389D01*
X42896484Y-39949000D01*
X43103516Y-39949000D01*
X43306564Y-39989389D01*
X43306564Y-39989389D01*
G37*
G36*
X44595170Y-29007879D02*
G01*
X44889868Y-29066498D01*
X45445067Y-29296469D01*
X45730867Y-29487435D01*
X45944733Y-29630335D01*
X46369665Y-30055267D01*
X46512565Y-30269133D01*
X46703531Y-30554933D01*
X46933502Y-31110132D01*
X47050740Y-31699528D01*
X47050740Y-32300472D01*
X46933502Y-32889868D01*
X46703531Y-33445067D01*
X46512565Y-33730867D01*
X46369665Y-33944733D01*
X45944733Y-34369665D01*
X45730867Y-34512565D01*
X45445067Y-34703531D01*
X44889868Y-34933502D01*
X44595170Y-34992121D01*
X44300473Y-35050740D01*
X43699527Y-35050740D01*
X43404830Y-34992121D01*
X43110132Y-34933502D01*
X42554933Y-34703531D01*
X42269133Y-34512565D01*
X42055267Y-34369665D01*
X41630335Y-33944733D01*
X41487435Y-33730867D01*
X41296469Y-33445067D01*
X41066498Y-32889868D01*
X40949260Y-32300472D01*
X40949260Y-31699528D01*
X41066498Y-31110132D01*
X41296469Y-30554933D01*
X41487435Y-30269133D01*
X41630335Y-30055267D01*
X42055267Y-29630335D01*
X42269133Y-29487435D01*
X42554933Y-29296469D01*
X43110132Y-29066498D01*
X43404830Y-29007879D01*
X43699527Y-28949260D01*
X44300473Y-28949260D01*
X44595170Y-29007879D01*
X44595170Y-29007879D01*
G37*
G36*
X54670740Y-35050740D02*
G01*
X48569260Y-35050740D01*
X48569260Y-28949260D01*
X54670740Y-28949260D01*
X54670740Y-35050740D01*
X54670740Y-35050740D01*
G37*
M02*
