M48
; DRILL file {KiCad (5.1.2)-2} date 11/07/2020 15:10:59
; FORMAT={-:-/ absolute / inch / decimal}
; #@! TF.CreationDate,2020-07-11T15:10:59+01:00
; #@! TF.GenerationSoftware,Kicad,Pcbnew,(5.1.2)-2
; #@! TF.FileFunction,Plated,1,2,PTH
FMAT,2
INCH
T1C0.0118
T2C0.0157
T3C0.0197
T4C0.0236
T5C0.0256
T6C0.0335
T7C0.0394
T8C0.1181
%
G90
G05
T1
X5.2949Y-2.8433
X5.2949Y-2.8945
X5.2949Y-2.9457
X5.2949Y-2.9969
X5.3461Y-2.8433
X5.3461Y-2.8945
X5.3461Y-2.9457
X5.3461Y-2.9969
T2
X1.8898Y-3.0197
X1.9252Y-3.0463
X2.0733Y-2.9867
X2.1555Y-2.7874
X2.1576Y-2.7471
X2.1732Y-2.8248
X2.315Y-2.7665
X2.3488Y-2.9465
X2.3898Y-2.2244
X2.4724Y-2.8819
X2.4803Y-1.8504
X2.543Y-2.5357
X2.5591Y-1.8504
X2.5591Y-1.9488
X2.5591Y-2.0472
X2.5591Y-2.1457
X2.5591Y-2.2441
X2.5787Y-1.2008
X2.5787Y-1.2992
X2.5787Y-1.3976
X2.5787Y-1.4961
X2.5984Y-2.9429
X2.6575Y-1.8504
X2.6575Y-1.9488
X2.6575Y-2.0472
X2.6575Y-2.1457
X2.6575Y-2.2441
X2.6772Y-1.2008
X2.6772Y-1.2992
X2.6772Y-1.3976
X2.6772Y-1.4961
X2.6772Y-2.4567
X2.6969Y-2.9528
X2.7402Y-2.6299
X2.7441Y-2.5315
X2.7559Y-1.8504
X2.7559Y-1.9488
X2.7559Y-2.0472
X2.7559Y-2.1457
X2.7559Y-2.2441
X2.7756Y-1.2008
X2.7756Y-1.2992
X2.7756Y-1.3976
X2.7756Y-1.4961
X2.807Y-2.5944
X2.815Y-2.9528
X2.8543Y-1.8504
X2.8543Y-1.9488
X2.8543Y-2.0472
X2.8543Y-2.1457
X2.8543Y-2.2441
X2.8661Y-3.0276
X2.874Y-1.2008
X2.874Y-1.2992
X2.874Y-1.3976
X2.874Y-1.4961
X2.8856Y-2.6305
X2.8937Y-2.9528
X2.9016Y-2.5945
X2.9364Y-2.1575
X2.9449Y-2.7801
X2.9528Y-1.4961
X2.9552Y-2.8765
X2.9724Y-1.2008
X2.9724Y-1.2992
X2.9724Y-1.3976
X2.9843Y-2.6683
X3.0709Y-2.9646
X3.0787Y-2.6083
X3.0906Y-1.5157
X3.0906Y-1.6142
X3.0906Y-1.7126
X3.1299Y-2.8307
X3.1398Y-1.565
X3.1398Y-1.6634
X3.1398Y-2.7756
X3.189Y-1.5157
X3.189Y-1.6142
X3.189Y-1.7126
X3.189Y-2.7323
X3.2087Y-2.9134
X3.2283Y-2.7953
X3.2382Y-1.565
X3.2382Y-1.6634
X3.2558Y-2.8956
X3.2672Y-2.5537
X3.2874Y-1.5157
X3.2874Y-1.6142
X3.2874Y-1.7126
X3.3114Y-2.7116
X3.3434Y-2.8115
X3.3446Y-2.8509
X3.3775Y-2.6373
X3.4352Y-3.0186
X3.5039Y-2.9729
X3.5512Y-2.1929
X3.5551Y-1.8307
X3.6178Y-2.516
X3.6713Y-3.0285
X3.6811Y-1.2008
X3.6811Y-1.2992
X3.6811Y-1.3976
X3.6811Y-1.4961
X3.7008Y-1.8504
X3.7008Y-1.9488
X3.7008Y-2.0472
X3.7008Y-2.1457
X3.7008Y-2.2441
X3.7717Y-2.4449
X3.7795Y-1.2008
X3.7795Y-1.2992
X3.7795Y-1.3976
X3.7795Y-1.4961
X3.7874Y-2.7638
X3.7874Y-2.9808
X3.7992Y-1.8504
X3.7992Y-1.9488
X3.7992Y-2.0472
X3.7992Y-2.1457
X3.7992Y-2.2441
X3.8034Y-2.5984
X3.8176Y-2.8491
X3.8189Y-2.6732
X3.8554Y-2.5819
X3.858Y-2.6781
X3.878Y-1.2008
X3.878Y-1.2992
X3.878Y-1.3976
X3.878Y-1.4961
X3.8957Y-2.813
X3.8976Y-1.8504
X3.8976Y-1.9488
X3.8976Y-2.0472
X3.8976Y-2.1457
X3.8976Y-2.2441
X3.9242Y-2.8839
X3.9764Y-1.2008
X3.9764Y-1.2992
X3.9764Y-1.3976
X3.9764Y-1.4961
X3.9961Y-1.8504
X3.9961Y-1.9488
X3.9961Y-2.0472
X3.9961Y-2.1457
X3.9961Y-2.2441
X4.0256Y-2.9823
X4.0305Y-2.8839
X4.0433Y-2.1417
X4.0551Y-1.4961
X4.0553Y-3.0081
X4.0748Y-1.2008
X4.0748Y-1.2992
X4.0748Y-1.3976
X4.1732Y-1.4961
X4.1732Y-1.5945
X4.1732Y-1.6929
X4.1969Y-2.7953
X4.2087Y-3.003
X4.2224Y-1.5453
X4.2224Y-1.6437
X4.2323Y-2.9626
X4.2598Y-2.8583
X4.2677Y-2.7087
X4.2717Y-1.4961
X4.2717Y-1.5945
X4.2717Y-1.6929
X4.315Y-2.811
X4.3209Y-1.5453
X4.3209Y-1.6437
X4.3307Y-2.5906
X4.3307Y-2.7008
X4.3701Y-1.4961
X4.3701Y-1.5945
X4.3701Y-1.6929
X4.3976Y-2.8937
X4.4016Y-2.811
X4.4331Y-3.0
X4.4882Y-2.7087
X4.5118Y-2.8819
X4.563Y-2.2008
X4.6161Y-1.8701
X4.6929Y-2.7087
X4.6979Y-2.516
X4.7165Y-2.8819
X4.7244Y-1.8504
X4.7244Y-1.9488
X4.7244Y-2.0472
X4.7244Y-2.1457
X4.7244Y-2.2441
X4.7441Y-1.2008
X4.7441Y-1.2992
X4.7441Y-1.3976
X4.7441Y-1.4961
X4.8228Y-1.8504
X4.8228Y-1.9488
X4.8228Y-2.0472
X4.8228Y-2.1457
X4.8228Y-2.2441
X4.8346Y-2.4331
X4.8425Y-1.2008
X4.8425Y-1.2992
X4.8425Y-1.3976
X4.8425Y-1.4961
X4.9213Y-1.8504
X4.9213Y-1.9488
X4.9213Y-2.0472
X4.9213Y-2.1457
X4.9213Y-2.2441
X4.9409Y-1.2008
X4.9409Y-1.2992
X4.9409Y-1.3976
X4.9409Y-1.4961
X5.0197Y-1.8504
X5.0197Y-1.9488
X5.0197Y-2.0472
X5.0197Y-2.1457
X5.0197Y-2.2441
X5.0394Y-1.2008
X5.0394Y-1.2992
X5.0394Y-1.3976
X5.0394Y-1.4961
X5.0787Y-2.6654
X5.0939Y-2.1401
X5.1083Y-1.4961
X5.1378Y-1.2008
X5.1378Y-1.2992
X5.1378Y-1.3976
X5.1575Y-2.8346
X5.2165Y-1.4961
X5.2165Y-1.5945
X5.2165Y-1.6929
X5.2657Y-1.5453
X5.2657Y-1.6437
X5.2756Y-2.6575
X5.315Y-1.4961
X5.315Y-1.5945
X5.315Y-1.6929
X5.3346Y-2.3031
X5.3346Y-2.5591
X5.3346Y-2.6181
X5.3642Y-1.5453
X5.3642Y-1.6437
X5.374Y-2.3031
X5.374Y-2.5591
X5.374Y-2.6181
X5.4134Y-1.4961
X5.4134Y-1.5945
X5.4134Y-1.6929
X5.4134Y-2.3031
X5.4134Y-2.5591
X5.4134Y-2.6181
X5.4724Y-3.0315
X5.4823Y-1.4272
T3
X3.4843Y-2.8898
X3.3858Y-3.0039
T5
X3.5984Y-2.7031
X3.5984Y-2.7531
X3.5984Y-2.8031
X2.3488Y-2.9961
X2.3988Y-2.9961
X2.4488Y-2.9961
X2.0Y-2.7752
X2.0Y-2.8252
X2.0Y-2.8752
X2.0Y-2.9252
X2.5772Y-3.0
X2.6272Y-3.0
X2.6772Y-3.0
X2.7272Y-3.0
X2.7772Y-3.0
X2.1075Y-2.9961
X2.1575Y-2.9961
X2.2075Y-2.9961
X2.2575Y-2.9961
T6
X1.7466Y-2.7717
X1.7466Y-2.9685
T7
X1.6929Y-2.0472
X1.8898Y-2.0472
X3.7992Y-2.3425
X3.8992Y-2.3425
X1.6929Y-2.4803
X1.8898Y-2.4803
X4.8228Y-2.3425
X4.9228Y-2.3425
X1.6929Y-1.6142
X1.8898Y-1.6142
X2.6575Y-2.3622
X2.7575Y-2.3622
T8
X1.7323Y-1.2598
X2.0323Y-1.2598
T4
G00X1.6265Y-2.7323
M15
G01X1.654Y-2.7323
M16
G05
G00X1.654Y-3.0079
M15
G01X1.6265Y-3.0079
M16
G05
T0
M30
