G04 #@! TF.GenerationSoftware,KiCad,Pcbnew,(5.1.2)-2*
G04 #@! TF.CreationDate,2020-08-31T16:13:31+01:00*
G04 #@! TF.ProjectId,INV_Board,494e565f-426f-4617-9264-2e6b69636164,rev?*
G04 #@! TF.SameCoordinates,Original*
G04 #@! TF.FileFunction,Soldermask,Bot*
G04 #@! TF.FilePolarity,Negative*
%FSLAX46Y46*%
G04 Gerber Fmt 4.6, Leading zero omitted, Abs format (unit mm)*
G04 Created by KiCad (PCBNEW (5.1.2)-2) date 2020-08-31 16:13:31*
%MOMM*%
%LPD*%
G04 APERTURE LIST*
%ADD10C,0.100000*%
G04 APERTURE END LIST*
D10*
G36*
X42076355Y-75752140D02*
G01*
X42140118Y-75758420D01*
X42230904Y-75785960D01*
X42262836Y-75795646D01*
X42375925Y-75856094D01*
X42475054Y-75937446D01*
X42556406Y-76036575D01*
X42616854Y-76149664D01*
X42616855Y-76149668D01*
X42654080Y-76272382D01*
X42666649Y-76400000D01*
X42654080Y-76527618D01*
X42626540Y-76618404D01*
X42616854Y-76650336D01*
X42556406Y-76763425D01*
X42475054Y-76862554D01*
X42375925Y-76943906D01*
X42262836Y-77004354D01*
X42230904Y-77014040D01*
X42140118Y-77041580D01*
X42076355Y-77047860D01*
X42044474Y-77051000D01*
X41280526Y-77051000D01*
X41248645Y-77047860D01*
X41184882Y-77041580D01*
X41094096Y-77014040D01*
X41062164Y-77004354D01*
X40949075Y-76943906D01*
X40849946Y-76862554D01*
X40768594Y-76763425D01*
X40708146Y-76650336D01*
X40698460Y-76618404D01*
X40670920Y-76527618D01*
X40658351Y-76400000D01*
X40670920Y-76272382D01*
X40708145Y-76149668D01*
X40708146Y-76149664D01*
X40768594Y-76036575D01*
X40849946Y-75937446D01*
X40949075Y-75856094D01*
X41062164Y-75795646D01*
X41094096Y-75785960D01*
X41184882Y-75758420D01*
X41248645Y-75752140D01*
X41280526Y-75749000D01*
X42044474Y-75749000D01*
X42076355Y-75752140D01*
X42076355Y-75752140D01*
G37*
G36*
X86160721Y-75770174D02*
G01*
X86260995Y-75811709D01*
X86260996Y-75811710D01*
X86351242Y-75872010D01*
X86427990Y-75948758D01*
X86427991Y-75948760D01*
X86488291Y-76039005D01*
X86529826Y-76139279D01*
X86551000Y-76245730D01*
X86551000Y-76354270D01*
X86529826Y-76460721D01*
X86488291Y-76560995D01*
X86488290Y-76560996D01*
X86427990Y-76651242D01*
X86351242Y-76727990D01*
X86305812Y-76758345D01*
X86260995Y-76788291D01*
X86160721Y-76829826D01*
X86054270Y-76851000D01*
X85945730Y-76851000D01*
X85839279Y-76829826D01*
X85739005Y-76788291D01*
X85694188Y-76758345D01*
X85648758Y-76727990D01*
X85572010Y-76651242D01*
X85511710Y-76560996D01*
X85511709Y-76560995D01*
X85470174Y-76460721D01*
X85449000Y-76354270D01*
X85449000Y-76245730D01*
X85470174Y-76139279D01*
X85511709Y-76039005D01*
X85572009Y-75948760D01*
X85572010Y-75948758D01*
X85648758Y-75872010D01*
X85739004Y-75811710D01*
X85739005Y-75811709D01*
X85839279Y-75770174D01*
X85945730Y-75749000D01*
X86054270Y-75749000D01*
X86160721Y-75770174D01*
X86160721Y-75770174D01*
G37*
G36*
X44588848Y-74653820D02*
G01*
X44588850Y-74653821D01*
X44588851Y-74653821D01*
X44730074Y-74712317D01*
X44730077Y-74712319D01*
X44857169Y-74797239D01*
X44965261Y-74905331D01*
X45050181Y-75032423D01*
X45050183Y-75032426D01*
X45108679Y-75173649D01*
X45108680Y-75173652D01*
X45138500Y-75323569D01*
X45138500Y-75476431D01*
X45133292Y-75502616D01*
X45108679Y-75626351D01*
X45050183Y-75767574D01*
X45050181Y-75767577D01*
X44965261Y-75894669D01*
X44857169Y-76002761D01*
X44730077Y-76087681D01*
X44730074Y-76087683D01*
X44588851Y-76146179D01*
X44588850Y-76146179D01*
X44588848Y-76146180D01*
X44438931Y-76176000D01*
X44286069Y-76176000D01*
X44136152Y-76146180D01*
X44136150Y-76146179D01*
X44136149Y-76146179D01*
X43994926Y-76087683D01*
X43994923Y-76087681D01*
X43867831Y-76002761D01*
X43759739Y-75894669D01*
X43674819Y-75767577D01*
X43674817Y-75767574D01*
X43616321Y-75626351D01*
X43591709Y-75502616D01*
X43586500Y-75476431D01*
X43586500Y-75323569D01*
X43616320Y-75173652D01*
X43616321Y-75173649D01*
X43674817Y-75032426D01*
X43674819Y-75032423D01*
X43759739Y-74905331D01*
X43867831Y-74797239D01*
X43994923Y-74712319D01*
X43994926Y-74712317D01*
X44136149Y-74653821D01*
X44136150Y-74653821D01*
X44136152Y-74653820D01*
X44286069Y-74624000D01*
X44438931Y-74624000D01*
X44588848Y-74653820D01*
X44588848Y-74653820D01*
G37*
G36*
X62627618Y-74183420D02*
G01*
X62708400Y-74207925D01*
X62750336Y-74220646D01*
X62863425Y-74281094D01*
X62962554Y-74362446D01*
X63043906Y-74461575D01*
X63104354Y-74574664D01*
X63104355Y-74574668D01*
X63141580Y-74697382D01*
X63151000Y-74793027D01*
X63151000Y-75406973D01*
X63141580Y-75502618D01*
X63114040Y-75593404D01*
X63104354Y-75625336D01*
X63043906Y-75738425D01*
X62962554Y-75837553D01*
X62863424Y-75918906D01*
X62750335Y-75979354D01*
X62718403Y-75989040D01*
X62627617Y-76016580D01*
X62500000Y-76029149D01*
X62372382Y-76016580D01*
X62281596Y-75989040D01*
X62249664Y-75979354D01*
X62136575Y-75918906D01*
X62037447Y-75837554D01*
X61956094Y-75738424D01*
X61895646Y-75625335D01*
X61885960Y-75593403D01*
X61858420Y-75502617D01*
X61849000Y-75406972D01*
X61849000Y-74793027D01*
X61858420Y-74697382D01*
X61895645Y-74574668D01*
X61895645Y-74574667D01*
X61927957Y-74514217D01*
X61956095Y-74461574D01*
X61969493Y-74445249D01*
X62037447Y-74362446D01*
X62136576Y-74281094D01*
X62249665Y-74220646D01*
X62291601Y-74207925D01*
X62372383Y-74183420D01*
X62500000Y-74170851D01*
X62627618Y-74183420D01*
X62627618Y-74183420D01*
G37*
G36*
X64627618Y-74183420D02*
G01*
X64708400Y-74207925D01*
X64750336Y-74220646D01*
X64863425Y-74281094D01*
X64962554Y-74362446D01*
X65043906Y-74461575D01*
X65104354Y-74574664D01*
X65104355Y-74574668D01*
X65141580Y-74697382D01*
X65151000Y-74793027D01*
X65151000Y-75406973D01*
X65141580Y-75502618D01*
X65114040Y-75593404D01*
X65104354Y-75625336D01*
X65043906Y-75738425D01*
X64962554Y-75837553D01*
X64863424Y-75918906D01*
X64750335Y-75979354D01*
X64718403Y-75989040D01*
X64627617Y-76016580D01*
X64500000Y-76029149D01*
X64372382Y-76016580D01*
X64281596Y-75989040D01*
X64249664Y-75979354D01*
X64136575Y-75918906D01*
X64037447Y-75837554D01*
X63956094Y-75738424D01*
X63895646Y-75625335D01*
X63885960Y-75593403D01*
X63858420Y-75502617D01*
X63849000Y-75406972D01*
X63849000Y-74793027D01*
X63858420Y-74697382D01*
X63895645Y-74574668D01*
X63895645Y-74574667D01*
X63927957Y-74514217D01*
X63956095Y-74461574D01*
X63969493Y-74445249D01*
X64037447Y-74362446D01*
X64136576Y-74281094D01*
X64249665Y-74220646D01*
X64291601Y-74207925D01*
X64372383Y-74183420D01*
X64500000Y-74170851D01*
X64627618Y-74183420D01*
X64627618Y-74183420D01*
G37*
G36*
X66627618Y-74183420D02*
G01*
X66708400Y-74207925D01*
X66750336Y-74220646D01*
X66863425Y-74281094D01*
X66962554Y-74362446D01*
X67043906Y-74461575D01*
X67104354Y-74574664D01*
X67104355Y-74574668D01*
X67141580Y-74697382D01*
X67151000Y-74793027D01*
X67151000Y-75406973D01*
X67141580Y-75502618D01*
X67114040Y-75593404D01*
X67104354Y-75625336D01*
X67043906Y-75738425D01*
X66962554Y-75837553D01*
X66863424Y-75918906D01*
X66750335Y-75979354D01*
X66718403Y-75989040D01*
X66627617Y-76016580D01*
X66500000Y-76029149D01*
X66372382Y-76016580D01*
X66281596Y-75989040D01*
X66249664Y-75979354D01*
X66136575Y-75918906D01*
X66037447Y-75837554D01*
X65956094Y-75738424D01*
X65895646Y-75625335D01*
X65885960Y-75593403D01*
X65858420Y-75502617D01*
X65849000Y-75406972D01*
X65849000Y-74793027D01*
X65858420Y-74697382D01*
X65895645Y-74574668D01*
X65895645Y-74574667D01*
X65927957Y-74514217D01*
X65956095Y-74461574D01*
X65969493Y-74445249D01*
X66037447Y-74362446D01*
X66136576Y-74281094D01*
X66249665Y-74220646D01*
X66291601Y-74207925D01*
X66372383Y-74183420D01*
X66500000Y-74170851D01*
X66627618Y-74183420D01*
X66627618Y-74183420D01*
G37*
G36*
X68627618Y-74183420D02*
G01*
X68708400Y-74207925D01*
X68750336Y-74220646D01*
X68863425Y-74281094D01*
X68962554Y-74362446D01*
X69043906Y-74461575D01*
X69104354Y-74574664D01*
X69104355Y-74574668D01*
X69141580Y-74697382D01*
X69151000Y-74793027D01*
X69151000Y-75406973D01*
X69141580Y-75502618D01*
X69114040Y-75593404D01*
X69104354Y-75625336D01*
X69043906Y-75738425D01*
X68962554Y-75837553D01*
X68863424Y-75918906D01*
X68750335Y-75979354D01*
X68718403Y-75989040D01*
X68627617Y-76016580D01*
X68500000Y-76029149D01*
X68372382Y-76016580D01*
X68281596Y-75989040D01*
X68249664Y-75979354D01*
X68136575Y-75918906D01*
X68037447Y-75837554D01*
X67956094Y-75738424D01*
X67895646Y-75625335D01*
X67885960Y-75593403D01*
X67858420Y-75502617D01*
X67849000Y-75406972D01*
X67849000Y-74793027D01*
X67858420Y-74697382D01*
X67895645Y-74574668D01*
X67895645Y-74574667D01*
X67927957Y-74514217D01*
X67956095Y-74461574D01*
X67969493Y-74445249D01*
X68037447Y-74362446D01*
X68136576Y-74281094D01*
X68249665Y-74220646D01*
X68291601Y-74207925D01*
X68372383Y-74183420D01*
X68500000Y-74170851D01*
X68627618Y-74183420D01*
X68627618Y-74183420D01*
G37*
G36*
X54627618Y-74183420D02*
G01*
X54708400Y-74207925D01*
X54750336Y-74220646D01*
X54863425Y-74281094D01*
X54962554Y-74362446D01*
X55043906Y-74461575D01*
X55104354Y-74574664D01*
X55104355Y-74574668D01*
X55141580Y-74697382D01*
X55151000Y-74793027D01*
X55151000Y-75406973D01*
X55141580Y-75502618D01*
X55114040Y-75593404D01*
X55104354Y-75625336D01*
X55043906Y-75738425D01*
X54962554Y-75837553D01*
X54863424Y-75918906D01*
X54750335Y-75979354D01*
X54718403Y-75989040D01*
X54627617Y-76016580D01*
X54500000Y-76029149D01*
X54372382Y-76016580D01*
X54281596Y-75989040D01*
X54249664Y-75979354D01*
X54136575Y-75918906D01*
X54037447Y-75837554D01*
X53956094Y-75738424D01*
X53895646Y-75625335D01*
X53885960Y-75593403D01*
X53858420Y-75502617D01*
X53849000Y-75406972D01*
X53849000Y-74793027D01*
X53858420Y-74697382D01*
X53895645Y-74574668D01*
X53895645Y-74574667D01*
X53927957Y-74514217D01*
X53956095Y-74461574D01*
X53969493Y-74445249D01*
X54037447Y-74362446D01*
X54136576Y-74281094D01*
X54249665Y-74220646D01*
X54291601Y-74207925D01*
X54372383Y-74183420D01*
X54500000Y-74170851D01*
X54627618Y-74183420D01*
X54627618Y-74183420D01*
G37*
G36*
X60627618Y-74183420D02*
G01*
X60708400Y-74207925D01*
X60750336Y-74220646D01*
X60863425Y-74281094D01*
X60962554Y-74362446D01*
X61043906Y-74461575D01*
X61104354Y-74574664D01*
X61104355Y-74574668D01*
X61141580Y-74697382D01*
X61151000Y-74793027D01*
X61151000Y-75406973D01*
X61141580Y-75502618D01*
X61114040Y-75593404D01*
X61104354Y-75625336D01*
X61043906Y-75738425D01*
X60962554Y-75837553D01*
X60863424Y-75918906D01*
X60750335Y-75979354D01*
X60718403Y-75989040D01*
X60627617Y-76016580D01*
X60500000Y-76029149D01*
X60372382Y-76016580D01*
X60281596Y-75989040D01*
X60249664Y-75979354D01*
X60136575Y-75918906D01*
X60037447Y-75837554D01*
X59956094Y-75738424D01*
X59895646Y-75625335D01*
X59885960Y-75593403D01*
X59858420Y-75502617D01*
X59849000Y-75406972D01*
X59849000Y-74793027D01*
X59858420Y-74697382D01*
X59895645Y-74574668D01*
X59895645Y-74574667D01*
X59927957Y-74514217D01*
X59956095Y-74461574D01*
X59969493Y-74445249D01*
X60037447Y-74362446D01*
X60136576Y-74281094D01*
X60249665Y-74220646D01*
X60291601Y-74207925D01*
X60372383Y-74183420D01*
X60500000Y-74170851D01*
X60627618Y-74183420D01*
X60627618Y-74183420D01*
G37*
G36*
X52627618Y-74183420D02*
G01*
X52708400Y-74207925D01*
X52750336Y-74220646D01*
X52863425Y-74281094D01*
X52962554Y-74362446D01*
X53043906Y-74461575D01*
X53104354Y-74574664D01*
X53104355Y-74574668D01*
X53141580Y-74697382D01*
X53151000Y-74793027D01*
X53151000Y-75406973D01*
X53141580Y-75502618D01*
X53114040Y-75593404D01*
X53104354Y-75625336D01*
X53043906Y-75738425D01*
X52962554Y-75837553D01*
X52863424Y-75918906D01*
X52750335Y-75979354D01*
X52718403Y-75989040D01*
X52627617Y-76016580D01*
X52500000Y-76029149D01*
X52372382Y-76016580D01*
X52281596Y-75989040D01*
X52249664Y-75979354D01*
X52136575Y-75918906D01*
X52037447Y-75837554D01*
X51956094Y-75738424D01*
X51895646Y-75625335D01*
X51885960Y-75593403D01*
X51858420Y-75502617D01*
X51849000Y-75406972D01*
X51849000Y-74793027D01*
X51858420Y-74697382D01*
X51895645Y-74574668D01*
X51895645Y-74574667D01*
X51927957Y-74514217D01*
X51956095Y-74461574D01*
X51969493Y-74445249D01*
X52037447Y-74362446D01*
X52136576Y-74281094D01*
X52249665Y-74220646D01*
X52291601Y-74207925D01*
X52372383Y-74183420D01*
X52500000Y-74170851D01*
X52627618Y-74183420D01*
X52627618Y-74183420D01*
G37*
G36*
X56991242Y-74178404D02*
G01*
X57028337Y-74189657D01*
X57062515Y-74207925D01*
X57092481Y-74232519D01*
X57117075Y-74262485D01*
X57135343Y-74296663D01*
X57146596Y-74333758D01*
X57151000Y-74378474D01*
X57151000Y-75821526D01*
X57146596Y-75866242D01*
X57135343Y-75903337D01*
X57117075Y-75937515D01*
X57092481Y-75967481D01*
X57062515Y-75992075D01*
X57028337Y-76010343D01*
X56991242Y-76021596D01*
X56946526Y-76026000D01*
X56053474Y-76026000D01*
X56008758Y-76021596D01*
X55971663Y-76010343D01*
X55937485Y-75992075D01*
X55907519Y-75967481D01*
X55882925Y-75937515D01*
X55864657Y-75903337D01*
X55853404Y-75866242D01*
X55849000Y-75821526D01*
X55849000Y-74378474D01*
X55853404Y-74333758D01*
X55864657Y-74296663D01*
X55882925Y-74262485D01*
X55907519Y-74232519D01*
X55937485Y-74207925D01*
X55971663Y-74189657D01*
X56008758Y-74178404D01*
X56053474Y-74174000D01*
X56946526Y-74174000D01*
X56991242Y-74178404D01*
X56991242Y-74178404D01*
G37*
G36*
X70991242Y-74178404D02*
G01*
X71028337Y-74189657D01*
X71062515Y-74207925D01*
X71092481Y-74232519D01*
X71117075Y-74262485D01*
X71135343Y-74296663D01*
X71146596Y-74333758D01*
X71151000Y-74378474D01*
X71151000Y-75821526D01*
X71146596Y-75866242D01*
X71135343Y-75903337D01*
X71117075Y-75937515D01*
X71092481Y-75967481D01*
X71062515Y-75992075D01*
X71028337Y-76010343D01*
X70991242Y-76021596D01*
X70946526Y-76026000D01*
X70053474Y-76026000D01*
X70008758Y-76021596D01*
X69971663Y-76010343D01*
X69937485Y-75992075D01*
X69907519Y-75967481D01*
X69882925Y-75937515D01*
X69864657Y-75903337D01*
X69853404Y-75866242D01*
X69849000Y-75821526D01*
X69849000Y-74378474D01*
X69853404Y-74333758D01*
X69864657Y-74296663D01*
X69882925Y-74262485D01*
X69907519Y-74232519D01*
X69937485Y-74207925D01*
X69971663Y-74189657D01*
X70008758Y-74178404D01*
X70053474Y-74174000D01*
X70946526Y-74174000D01*
X70991242Y-74178404D01*
X70991242Y-74178404D01*
G37*
G36*
X88660721Y-72870174D02*
G01*
X88760995Y-72911709D01*
X88760996Y-72911710D01*
X88851242Y-72972010D01*
X88927990Y-73048758D01*
X88927991Y-73048760D01*
X88988291Y-73139005D01*
X89029826Y-73239279D01*
X89051000Y-73345730D01*
X89051000Y-73454270D01*
X89029826Y-73560721D01*
X88988291Y-73660995D01*
X88988290Y-73660996D01*
X88927990Y-73751242D01*
X88851242Y-73827990D01*
X88805812Y-73858345D01*
X88760995Y-73888291D01*
X88660721Y-73929826D01*
X88554270Y-73951000D01*
X88445730Y-73951000D01*
X88339279Y-73929826D01*
X88239005Y-73888291D01*
X88194188Y-73858345D01*
X88148758Y-73827990D01*
X88072010Y-73751242D01*
X88011710Y-73660996D01*
X88011709Y-73660995D01*
X87970174Y-73560721D01*
X87949000Y-73454270D01*
X87949000Y-73345730D01*
X87970174Y-73239279D01*
X88011709Y-73139005D01*
X88072009Y-73048760D01*
X88072010Y-73048758D01*
X88148758Y-72972010D01*
X88239004Y-72911710D01*
X88239005Y-72911709D01*
X88339279Y-72870174D01*
X88445730Y-72849000D01*
X88554270Y-72849000D01*
X88660721Y-72870174D01*
X88660721Y-72870174D01*
G37*
G36*
X56881000Y-70774759D02*
G01*
X56883402Y-70799145D01*
X56890515Y-70822594D01*
X56895760Y-70833684D01*
X56918686Y-70876574D01*
X56944475Y-70961590D01*
X56951000Y-71027842D01*
X56951000Y-71572158D01*
X56944475Y-71638410D01*
X56918686Y-71723426D01*
X56895760Y-71766316D01*
X56886383Y-71788955D01*
X56881602Y-71812988D01*
X56881000Y-71825240D01*
X56881000Y-72901000D01*
X56039000Y-72901000D01*
X56039000Y-70399000D01*
X56881000Y-70399000D01*
X56881000Y-70774759D01*
X56881000Y-70774759D01*
G37*
G36*
X58151000Y-70812176D02*
G01*
X58153402Y-70836562D01*
X58160515Y-70860011D01*
X58165761Y-70871102D01*
X58168685Y-70876573D01*
X58168686Y-70876575D01*
X58174175Y-70894671D01*
X58194475Y-70961590D01*
X58201000Y-71027842D01*
X58201000Y-71572158D01*
X58194475Y-71638410D01*
X58185375Y-71668408D01*
X58168687Y-71723423D01*
X58168685Y-71723427D01*
X58165761Y-71728898D01*
X58156383Y-71751537D01*
X58151602Y-71775570D01*
X58151000Y-71787824D01*
X58151000Y-72901000D01*
X57309000Y-72901000D01*
X57309000Y-71668408D01*
X57306598Y-71644022D01*
X57305741Y-71640600D01*
X57299000Y-71572158D01*
X57299000Y-71027843D01*
X57306170Y-70955047D01*
X57308398Y-70943845D01*
X57309000Y-70931593D01*
X57309000Y-70399000D01*
X58151000Y-70399000D01*
X58151000Y-70812176D01*
X58151000Y-70812176D01*
G37*
G36*
X59421000Y-70865660D02*
G01*
X59426382Y-70901945D01*
X59444475Y-70961590D01*
X59451000Y-71027842D01*
X59451000Y-71572158D01*
X59444475Y-71638410D01*
X59426382Y-71698055D01*
X59421000Y-71734340D01*
X59421000Y-72901000D01*
X58579000Y-72901000D01*
X58579000Y-71734340D01*
X58573618Y-71698055D01*
X58555525Y-71638410D01*
X58549000Y-71572158D01*
X58549000Y-71027843D01*
X58555525Y-70961591D01*
X58573618Y-70901946D01*
X58579000Y-70865661D01*
X58579000Y-70399000D01*
X59421000Y-70399000D01*
X59421000Y-70865660D01*
X59421000Y-70865660D01*
G37*
G36*
X60691000Y-70931592D02*
G01*
X60693402Y-70955978D01*
X60694259Y-70959400D01*
X60701000Y-71027842D01*
X60701000Y-71572158D01*
X60693830Y-71644954D01*
X60691602Y-71656156D01*
X60691000Y-71668408D01*
X60691000Y-72901000D01*
X59849000Y-72901000D01*
X59849000Y-71787824D01*
X59846598Y-71763438D01*
X59839485Y-71739989D01*
X59834239Y-71728898D01*
X59831315Y-71723427D01*
X59805525Y-71638410D01*
X59799000Y-71572158D01*
X59799000Y-71027843D01*
X59805525Y-70961591D01*
X59825826Y-70894669D01*
X59831314Y-70876576D01*
X59834239Y-70871103D01*
X59843617Y-70848464D01*
X59848398Y-70824431D01*
X59849000Y-70812177D01*
X59849000Y-70399000D01*
X60691000Y-70399000D01*
X60691000Y-70931592D01*
X60691000Y-70931592D01*
G37*
G36*
X61961000Y-72901000D02*
G01*
X61119000Y-72901000D01*
X61119000Y-71825240D01*
X61116598Y-71800854D01*
X61109485Y-71777405D01*
X61104239Y-71766314D01*
X61081315Y-71723427D01*
X61055525Y-71638410D01*
X61049000Y-71572158D01*
X61049000Y-71027843D01*
X61055525Y-70961591D01*
X61081314Y-70876575D01*
X61104240Y-70833685D01*
X61113617Y-70811046D01*
X61118398Y-70787013D01*
X61119000Y-70774760D01*
X61119000Y-70399000D01*
X61961000Y-70399000D01*
X61961000Y-72901000D01*
X61961000Y-72901000D01*
G37*
G36*
X49538409Y-70605525D02*
G01*
X49623425Y-70631314D01*
X49701774Y-70673193D01*
X49770449Y-70729552D01*
X49826807Y-70798225D01*
X49868686Y-70876574D01*
X49894475Y-70961590D01*
X49901000Y-71027842D01*
X49901000Y-71572158D01*
X49894475Y-71638410D01*
X49868686Y-71723426D01*
X49826807Y-71801775D01*
X49770449Y-71870449D01*
X49701775Y-71926807D01*
X49623426Y-71968686D01*
X49538410Y-71994475D01*
X49450000Y-72003182D01*
X49361591Y-71994475D01*
X49276575Y-71968686D01*
X49198226Y-71926807D01*
X49129552Y-71870449D01*
X49073195Y-71801776D01*
X49031313Y-71723423D01*
X49005525Y-71638410D01*
X48999000Y-71572158D01*
X48999000Y-71027843D01*
X49005525Y-70961591D01*
X49031314Y-70876575D01*
X49073193Y-70798226D01*
X49129552Y-70729551D01*
X49198225Y-70673193D01*
X49276574Y-70631314D01*
X49361590Y-70605525D01*
X49450000Y-70596818D01*
X49538409Y-70605525D01*
X49538409Y-70605525D01*
G37*
G36*
X50788409Y-70605525D02*
G01*
X50873425Y-70631314D01*
X50951774Y-70673193D01*
X51020449Y-70729552D01*
X51076807Y-70798225D01*
X51118686Y-70876574D01*
X51144475Y-70961590D01*
X51151000Y-71027842D01*
X51151000Y-71572158D01*
X51144475Y-71638410D01*
X51118686Y-71723426D01*
X51076807Y-71801775D01*
X51020449Y-71870449D01*
X50951775Y-71926807D01*
X50873426Y-71968686D01*
X50788410Y-71994475D01*
X50700000Y-72003182D01*
X50611591Y-71994475D01*
X50526575Y-71968686D01*
X50448226Y-71926807D01*
X50379552Y-71870449D01*
X50323195Y-71801776D01*
X50281313Y-71723423D01*
X50255525Y-71638410D01*
X50249000Y-71572158D01*
X50249000Y-71027843D01*
X50255525Y-70961591D01*
X50281314Y-70876575D01*
X50323193Y-70798226D01*
X50379552Y-70729551D01*
X50448225Y-70673193D01*
X50526574Y-70631314D01*
X50611590Y-70605525D01*
X50700000Y-70596818D01*
X50788409Y-70605525D01*
X50788409Y-70605525D01*
G37*
G36*
X52038409Y-70605525D02*
G01*
X52123425Y-70631314D01*
X52201774Y-70673193D01*
X52270449Y-70729552D01*
X52326807Y-70798225D01*
X52368686Y-70876574D01*
X52394475Y-70961590D01*
X52401000Y-71027842D01*
X52401000Y-71572158D01*
X52394475Y-71638410D01*
X52368686Y-71723426D01*
X52326807Y-71801775D01*
X52270449Y-71870449D01*
X52201775Y-71926807D01*
X52123426Y-71968686D01*
X52038410Y-71994475D01*
X51950000Y-72003182D01*
X51861591Y-71994475D01*
X51776575Y-71968686D01*
X51698226Y-71926807D01*
X51629552Y-71870449D01*
X51573195Y-71801776D01*
X51531313Y-71723423D01*
X51505525Y-71638410D01*
X51499000Y-71572158D01*
X51499000Y-71027843D01*
X51505525Y-70961591D01*
X51531314Y-70876575D01*
X51573193Y-70798226D01*
X51629552Y-70729551D01*
X51698225Y-70673193D01*
X51776574Y-70631314D01*
X51861590Y-70605525D01*
X51950000Y-70596818D01*
X52038409Y-70605525D01*
X52038409Y-70605525D01*
G37*
G36*
X55569683Y-70602725D02*
G01*
X55600143Y-70611966D01*
X55628223Y-70626974D01*
X55652831Y-70647169D01*
X55673026Y-70671777D01*
X55688034Y-70699857D01*
X55697275Y-70730317D01*
X55701000Y-70768140D01*
X55701000Y-71831860D01*
X55697275Y-71869683D01*
X55688034Y-71900143D01*
X55673026Y-71928223D01*
X55652831Y-71952831D01*
X55628223Y-71973026D01*
X55600143Y-71988034D01*
X55569683Y-71997275D01*
X55531860Y-72001000D01*
X54968140Y-72001000D01*
X54930317Y-71997275D01*
X54899857Y-71988034D01*
X54871777Y-71973026D01*
X54847169Y-71952831D01*
X54826974Y-71928223D01*
X54811966Y-71900143D01*
X54802725Y-71869683D01*
X54799000Y-71831860D01*
X54799000Y-70768140D01*
X54802725Y-70730317D01*
X54811966Y-70699857D01*
X54826974Y-70671777D01*
X54847169Y-70647169D01*
X54871777Y-70626974D01*
X54899857Y-70611966D01*
X54930317Y-70602725D01*
X54968140Y-70599000D01*
X55531860Y-70599000D01*
X55569683Y-70602725D01*
X55569683Y-70602725D01*
G37*
G36*
X48519683Y-70602725D02*
G01*
X48550143Y-70611966D01*
X48578223Y-70626974D01*
X48602831Y-70647169D01*
X48623026Y-70671777D01*
X48638034Y-70699857D01*
X48647275Y-70730317D01*
X48651000Y-70768140D01*
X48651000Y-71831860D01*
X48647275Y-71869683D01*
X48638034Y-71900143D01*
X48623026Y-71928223D01*
X48602831Y-71952831D01*
X48578223Y-71973026D01*
X48550143Y-71988034D01*
X48519683Y-71997275D01*
X48481860Y-72001000D01*
X47918140Y-72001000D01*
X47880317Y-71997275D01*
X47849857Y-71988034D01*
X47821777Y-71973026D01*
X47797169Y-71952831D01*
X47776974Y-71928223D01*
X47761966Y-71900143D01*
X47752725Y-71869683D01*
X47749000Y-71831860D01*
X47749000Y-70768140D01*
X47752725Y-70730317D01*
X47761966Y-70699857D01*
X47776974Y-70671777D01*
X47797169Y-70647169D01*
X47821777Y-70626974D01*
X47849857Y-70611966D01*
X47880317Y-70602725D01*
X47918140Y-70599000D01*
X48481860Y-70599000D01*
X48519683Y-70602725D01*
X48519683Y-70602725D01*
G37*
G36*
X92769683Y-70752725D02*
G01*
X92800143Y-70761966D01*
X92828223Y-70776974D01*
X92852831Y-70797169D01*
X92873026Y-70821777D01*
X92888034Y-70849857D01*
X92897275Y-70880317D01*
X92901000Y-70918140D01*
X92901000Y-71481860D01*
X92897275Y-71519683D01*
X92888034Y-71550143D01*
X92873026Y-71578223D01*
X92852831Y-71602831D01*
X92828223Y-71623026D01*
X92800143Y-71638034D01*
X92769683Y-71647275D01*
X92731860Y-71651000D01*
X91668140Y-71651000D01*
X91630317Y-71647275D01*
X91599857Y-71638034D01*
X91571777Y-71623026D01*
X91547169Y-71602831D01*
X91526974Y-71578223D01*
X91511966Y-71550143D01*
X91502725Y-71519683D01*
X91499000Y-71481860D01*
X91499000Y-70918140D01*
X91502725Y-70880317D01*
X91511966Y-70849857D01*
X91526974Y-70821777D01*
X91547169Y-70797169D01*
X91571777Y-70776974D01*
X91599857Y-70761966D01*
X91630317Y-70752725D01*
X91668140Y-70749000D01*
X92731860Y-70749000D01*
X92769683Y-70752725D01*
X92769683Y-70752725D01*
G37*
G36*
X44588848Y-69653820D02*
G01*
X44588850Y-69653821D01*
X44588851Y-69653821D01*
X44730074Y-69712317D01*
X44730077Y-69712319D01*
X44857169Y-69797239D01*
X44965261Y-69905331D01*
X45050181Y-70032423D01*
X45050183Y-70032426D01*
X45087876Y-70123426D01*
X45108680Y-70173652D01*
X45138500Y-70323569D01*
X45138500Y-70476431D01*
X45110706Y-70616165D01*
X45108679Y-70626351D01*
X45050183Y-70767574D01*
X45050181Y-70767577D01*
X44965261Y-70894669D01*
X44857169Y-71002761D01*
X44730077Y-71087681D01*
X44730074Y-71087683D01*
X44588851Y-71146179D01*
X44588850Y-71146179D01*
X44588848Y-71146180D01*
X44438931Y-71176000D01*
X44286069Y-71176000D01*
X44136152Y-71146180D01*
X44136150Y-71146179D01*
X44136149Y-71146179D01*
X43994926Y-71087683D01*
X43994923Y-71087681D01*
X43867831Y-71002761D01*
X43759739Y-70894669D01*
X43674819Y-70767577D01*
X43674817Y-70767574D01*
X43616321Y-70626351D01*
X43614295Y-70616165D01*
X43586500Y-70476431D01*
X43586500Y-70323569D01*
X43616320Y-70173652D01*
X43637124Y-70123426D01*
X43674817Y-70032426D01*
X43674819Y-70032423D01*
X43759739Y-69905331D01*
X43867831Y-69797239D01*
X43994923Y-69712319D01*
X43994926Y-69712317D01*
X44136149Y-69653821D01*
X44136150Y-69653821D01*
X44136152Y-69653820D01*
X44286069Y-69624000D01*
X44438931Y-69624000D01*
X44588848Y-69653820D01*
X44588848Y-69653820D01*
G37*
G36*
X92538410Y-69505525D02*
G01*
X92623426Y-69531314D01*
X92701775Y-69573193D01*
X92770449Y-69629551D01*
X92826807Y-69698225D01*
X92868686Y-69776574D01*
X92894475Y-69861590D01*
X92903182Y-69950000D01*
X92894475Y-70038410D01*
X92868686Y-70123426D01*
X92826807Y-70201775D01*
X92770449Y-70270449D01*
X92701775Y-70326807D01*
X92623426Y-70368686D01*
X92538410Y-70394475D01*
X92472158Y-70401000D01*
X91927842Y-70401000D01*
X91861590Y-70394475D01*
X91776574Y-70368686D01*
X91698225Y-70326807D01*
X91629551Y-70270449D01*
X91573193Y-70201775D01*
X91531314Y-70123426D01*
X91505525Y-70038410D01*
X91496818Y-69950000D01*
X91505525Y-69861590D01*
X91531314Y-69776574D01*
X91573193Y-69698225D01*
X91629551Y-69629551D01*
X91698225Y-69573193D01*
X91776574Y-69531314D01*
X91861590Y-69505525D01*
X91927842Y-69499000D01*
X92472158Y-69499000D01*
X92538410Y-69505525D01*
X92538410Y-69505525D01*
G37*
G36*
X42076355Y-68752140D02*
G01*
X42140118Y-68758420D01*
X42230904Y-68785960D01*
X42262836Y-68795646D01*
X42375925Y-68856094D01*
X42475054Y-68937446D01*
X42556406Y-69036575D01*
X42616854Y-69149664D01*
X42616855Y-69149668D01*
X42654080Y-69272382D01*
X42666649Y-69400000D01*
X42654080Y-69527618D01*
X42640255Y-69573193D01*
X42616854Y-69650336D01*
X42556406Y-69763425D01*
X42475054Y-69862554D01*
X42375925Y-69943906D01*
X42262836Y-70004354D01*
X42230904Y-70014040D01*
X42140118Y-70041580D01*
X42076355Y-70047860D01*
X42044474Y-70051000D01*
X41280526Y-70051000D01*
X41248645Y-70047860D01*
X41184882Y-70041580D01*
X41094096Y-70014040D01*
X41062164Y-70004354D01*
X40949075Y-69943906D01*
X40849946Y-69862554D01*
X40768594Y-69763425D01*
X40708146Y-69650336D01*
X40684745Y-69573193D01*
X40670920Y-69527618D01*
X40658351Y-69400000D01*
X40670920Y-69272382D01*
X40708145Y-69149668D01*
X40708146Y-69149664D01*
X40768594Y-69036575D01*
X40849946Y-68937446D01*
X40949075Y-68856094D01*
X41062164Y-68795646D01*
X41094096Y-68785960D01*
X41184882Y-68758420D01*
X41248645Y-68752140D01*
X41280526Y-68749000D01*
X42044474Y-68749000D01*
X42076355Y-68752140D01*
X42076355Y-68752140D01*
G37*
G36*
X92538410Y-68255525D02*
G01*
X92623426Y-68281314D01*
X92701775Y-68323193D01*
X92770449Y-68379551D01*
X92826807Y-68448225D01*
X92868686Y-68526574D01*
X92894475Y-68611590D01*
X92903182Y-68700000D01*
X92894475Y-68788410D01*
X92868686Y-68873426D01*
X92826807Y-68951775D01*
X92770449Y-69020449D01*
X92701775Y-69076807D01*
X92623426Y-69118686D01*
X92538410Y-69144475D01*
X92472158Y-69151000D01*
X91927842Y-69151000D01*
X91861590Y-69144475D01*
X91776574Y-69118686D01*
X91698225Y-69076807D01*
X91629551Y-69020449D01*
X91573193Y-68951775D01*
X91531314Y-68873426D01*
X91505525Y-68788410D01*
X91496818Y-68700000D01*
X91505525Y-68611590D01*
X91531314Y-68526574D01*
X91573193Y-68448225D01*
X91629551Y-68379551D01*
X91698225Y-68323193D01*
X91776574Y-68281314D01*
X91861590Y-68255525D01*
X91927842Y-68249000D01*
X92472158Y-68249000D01*
X92538410Y-68255525D01*
X92538410Y-68255525D01*
G37*
G36*
X56881000Y-69001000D02*
G01*
X56039000Y-69001000D01*
X56039000Y-66499000D01*
X56881000Y-66499000D01*
X56881000Y-69001000D01*
X56881000Y-69001000D01*
G37*
G36*
X58151000Y-69001000D02*
G01*
X57309000Y-69001000D01*
X57309000Y-66499000D01*
X58151000Y-66499000D01*
X58151000Y-69001000D01*
X58151000Y-69001000D01*
G37*
G36*
X59421000Y-69001000D02*
G01*
X58579000Y-69001000D01*
X58579000Y-66499000D01*
X59421000Y-66499000D01*
X59421000Y-69001000D01*
X59421000Y-69001000D01*
G37*
G36*
X61961000Y-69001000D02*
G01*
X61119000Y-69001000D01*
X61119000Y-66499000D01*
X61961000Y-66499000D01*
X61961000Y-69001000D01*
X61961000Y-69001000D01*
G37*
G36*
X60691000Y-69001000D02*
G01*
X59849000Y-69001000D01*
X59849000Y-66499000D01*
X60691000Y-66499000D01*
X60691000Y-69001000D01*
X60691000Y-69001000D01*
G37*
G36*
X53251000Y-61251000D02*
G01*
X50749000Y-61251000D01*
X50749000Y-58749000D01*
X53251000Y-58749000D01*
X53251000Y-61251000D01*
X53251000Y-61251000D01*
G37*
G36*
X44864903Y-58797075D02*
G01*
X45092571Y-58891378D01*
X45297466Y-59028285D01*
X45471715Y-59202534D01*
X45608622Y-59407429D01*
X45702925Y-59635097D01*
X45751000Y-59876787D01*
X45751000Y-60123213D01*
X45702925Y-60364903D01*
X45608622Y-60592571D01*
X45471715Y-60797466D01*
X45297466Y-60971715D01*
X45092571Y-61108622D01*
X45092570Y-61108623D01*
X45092569Y-61108623D01*
X44864903Y-61202925D01*
X44623214Y-61251000D01*
X44376786Y-61251000D01*
X44135097Y-61202925D01*
X43907431Y-61108623D01*
X43907430Y-61108623D01*
X43907429Y-61108622D01*
X43702534Y-60971715D01*
X43528285Y-60797466D01*
X43391378Y-60592571D01*
X43297075Y-60364903D01*
X43249000Y-60123213D01*
X43249000Y-59876787D01*
X43297075Y-59635097D01*
X43391378Y-59407429D01*
X43528285Y-59202534D01*
X43702534Y-59028285D01*
X43907429Y-58891378D01*
X44135097Y-58797075D01*
X44376786Y-58749000D01*
X44623214Y-58749000D01*
X44864903Y-58797075D01*
X44864903Y-58797075D01*
G37*
G36*
X70150443Y-59105519D02*
G01*
X70216627Y-59112037D01*
X70386466Y-59163557D01*
X70542991Y-59247222D01*
X70578729Y-59276552D01*
X70680186Y-59359814D01*
X70763448Y-59461271D01*
X70792778Y-59497009D01*
X70876443Y-59653534D01*
X70927963Y-59823373D01*
X70945359Y-60000000D01*
X70927963Y-60176627D01*
X70876443Y-60346466D01*
X70792778Y-60502991D01*
X70763448Y-60538729D01*
X70680186Y-60640186D01*
X70578729Y-60723448D01*
X70542991Y-60752778D01*
X70386466Y-60836443D01*
X70216627Y-60887963D01*
X70150442Y-60894482D01*
X70084260Y-60901000D01*
X69995740Y-60901000D01*
X69929558Y-60894482D01*
X69863373Y-60887963D01*
X69693534Y-60836443D01*
X69537009Y-60752778D01*
X69501271Y-60723448D01*
X69399814Y-60640186D01*
X69316552Y-60538729D01*
X69287222Y-60502991D01*
X69203557Y-60346466D01*
X69152037Y-60176627D01*
X69134641Y-60000000D01*
X69152037Y-59823373D01*
X69203557Y-59653534D01*
X69287222Y-59497009D01*
X69316552Y-59461271D01*
X69399814Y-59359814D01*
X69501271Y-59276552D01*
X69537009Y-59247222D01*
X69693534Y-59163557D01*
X69863373Y-59112037D01*
X69929557Y-59105519D01*
X69995740Y-59099000D01*
X70084260Y-59099000D01*
X70150443Y-59105519D01*
X70150443Y-59105519D01*
G37*
G36*
X68401000Y-60901000D02*
G01*
X66599000Y-60901000D01*
X66599000Y-59099000D01*
X68401000Y-59099000D01*
X68401000Y-60901000D01*
X68401000Y-60901000D01*
G37*
G36*
X123401000Y-60401000D02*
G01*
X121599000Y-60401000D01*
X121599000Y-58599000D01*
X123401000Y-58599000D01*
X123401000Y-60401000D01*
X123401000Y-60401000D01*
G37*
G36*
X125150442Y-58605518D02*
G01*
X125216627Y-58612037D01*
X125386466Y-58663557D01*
X125542991Y-58747222D01*
X125545157Y-58749000D01*
X125680186Y-58859814D01*
X125763448Y-58961271D01*
X125792778Y-58997009D01*
X125876443Y-59153534D01*
X125927963Y-59323373D01*
X125945359Y-59500000D01*
X125927963Y-59676627D01*
X125876443Y-59846466D01*
X125876442Y-59846468D01*
X125860236Y-59876787D01*
X125792778Y-60002991D01*
X125763448Y-60038729D01*
X125680186Y-60140186D01*
X125578729Y-60223448D01*
X125542991Y-60252778D01*
X125386466Y-60336443D01*
X125216627Y-60387963D01*
X125150443Y-60394481D01*
X125084260Y-60401000D01*
X124995740Y-60401000D01*
X124929557Y-60394481D01*
X124863373Y-60387963D01*
X124693534Y-60336443D01*
X124537009Y-60252778D01*
X124501271Y-60223448D01*
X124399814Y-60140186D01*
X124316552Y-60038729D01*
X124287222Y-60002991D01*
X124219764Y-59876787D01*
X124203558Y-59846468D01*
X124203557Y-59846466D01*
X124152037Y-59676627D01*
X124134641Y-59500000D01*
X124152037Y-59323373D01*
X124203557Y-59153534D01*
X124287222Y-58997009D01*
X124316552Y-58961271D01*
X124399814Y-58859814D01*
X124534843Y-58749000D01*
X124537009Y-58747222D01*
X124693534Y-58663557D01*
X124863373Y-58612037D01*
X124929558Y-58605518D01*
X124995740Y-58599000D01*
X125084260Y-58599000D01*
X125150442Y-58605518D01*
X125150442Y-58605518D01*
G37*
G36*
X97401000Y-60401000D02*
G01*
X95599000Y-60401000D01*
X95599000Y-58599000D01*
X97401000Y-58599000D01*
X97401000Y-60401000D01*
X97401000Y-60401000D01*
G37*
G36*
X99150442Y-58605518D02*
G01*
X99216627Y-58612037D01*
X99386466Y-58663557D01*
X99542991Y-58747222D01*
X99545157Y-58749000D01*
X99680186Y-58859814D01*
X99763448Y-58961271D01*
X99792778Y-58997009D01*
X99876443Y-59153534D01*
X99927963Y-59323373D01*
X99945359Y-59500000D01*
X99927963Y-59676627D01*
X99876443Y-59846466D01*
X99876442Y-59846468D01*
X99860236Y-59876787D01*
X99792778Y-60002991D01*
X99763448Y-60038729D01*
X99680186Y-60140186D01*
X99578729Y-60223448D01*
X99542991Y-60252778D01*
X99386466Y-60336443D01*
X99216627Y-60387963D01*
X99150443Y-60394481D01*
X99084260Y-60401000D01*
X98995740Y-60401000D01*
X98929557Y-60394481D01*
X98863373Y-60387963D01*
X98693534Y-60336443D01*
X98537009Y-60252778D01*
X98501271Y-60223448D01*
X98399814Y-60140186D01*
X98316552Y-60038729D01*
X98287222Y-60002991D01*
X98219764Y-59876787D01*
X98203558Y-59846468D01*
X98203557Y-59846466D01*
X98152037Y-59676627D01*
X98134641Y-59500000D01*
X98152037Y-59323373D01*
X98203557Y-59153534D01*
X98287222Y-58997009D01*
X98316552Y-58961271D01*
X98399814Y-58859814D01*
X98534843Y-58749000D01*
X98537009Y-58747222D01*
X98693534Y-58663557D01*
X98863373Y-58612037D01*
X98929558Y-58605518D01*
X98995740Y-58599000D01*
X99084260Y-58599000D01*
X99150442Y-58605518D01*
X99150442Y-58605518D01*
G37*
G36*
X44864903Y-42797075D02*
G01*
X45092571Y-42891378D01*
X45297466Y-43028285D01*
X45471715Y-43202534D01*
X45608622Y-43407429D01*
X45702925Y-43635097D01*
X45751000Y-43876787D01*
X45751000Y-44123213D01*
X45702925Y-44364903D01*
X45608622Y-44592571D01*
X45471715Y-44797466D01*
X45297466Y-44971715D01*
X45092571Y-45108622D01*
X45092570Y-45108623D01*
X45092569Y-45108623D01*
X44864903Y-45202925D01*
X44623214Y-45251000D01*
X44376786Y-45251000D01*
X44135097Y-45202925D01*
X43907431Y-45108623D01*
X43907430Y-45108623D01*
X43907429Y-45108622D01*
X43702534Y-44971715D01*
X43528285Y-44797466D01*
X43391378Y-44592571D01*
X43297075Y-44364903D01*
X43249000Y-44123213D01*
X43249000Y-43876787D01*
X43297075Y-43635097D01*
X43391378Y-43407429D01*
X43528285Y-43202534D01*
X43702534Y-43028285D01*
X43907429Y-42891378D01*
X44135097Y-42797075D01*
X44376786Y-42749000D01*
X44623214Y-42749000D01*
X44864903Y-42797075D01*
X44864903Y-42797075D01*
G37*
G36*
X53251000Y-45251000D02*
G01*
X50749000Y-45251000D01*
X50749000Y-42749000D01*
X53251000Y-42749000D01*
X53251000Y-45251000D01*
X53251000Y-45251000D01*
G37*
G36*
X52489943Y-29066248D02*
G01*
X53045189Y-29296238D01*
X53045190Y-29296239D01*
X53544899Y-29630134D01*
X53969866Y-30055101D01*
X53969867Y-30055103D01*
X54303762Y-30554811D01*
X54533752Y-31110057D01*
X54651000Y-31699501D01*
X54651000Y-32300499D01*
X54533752Y-32889943D01*
X54303762Y-33445189D01*
X54303761Y-33445190D01*
X53969866Y-33944899D01*
X53544899Y-34369866D01*
X53293347Y-34537948D01*
X53045189Y-34703762D01*
X52489943Y-34933752D01*
X51900499Y-35051000D01*
X51299501Y-35051000D01*
X50710057Y-34933752D01*
X50154811Y-34703762D01*
X49906653Y-34537948D01*
X49655101Y-34369866D01*
X49230134Y-33944899D01*
X48896239Y-33445190D01*
X48896238Y-33445189D01*
X48666248Y-32889943D01*
X48549000Y-32300499D01*
X48549000Y-31699501D01*
X48666248Y-31110057D01*
X48896238Y-30554811D01*
X49230133Y-30055103D01*
X49230134Y-30055101D01*
X49655101Y-29630134D01*
X50154810Y-29296239D01*
X50154811Y-29296238D01*
X50710057Y-29066248D01*
X51299501Y-28949000D01*
X51900499Y-28949000D01*
X52489943Y-29066248D01*
X52489943Y-29066248D01*
G37*
G36*
X45289943Y-29066248D02*
G01*
X45845189Y-29296238D01*
X45845190Y-29296239D01*
X46344899Y-29630134D01*
X46769866Y-30055101D01*
X46769867Y-30055103D01*
X47103762Y-30554811D01*
X47333752Y-31110057D01*
X47451000Y-31699501D01*
X47451000Y-32300499D01*
X47333752Y-32889943D01*
X47103762Y-33445189D01*
X47103761Y-33445190D01*
X46769866Y-33944899D01*
X46344899Y-34369866D01*
X46093347Y-34537948D01*
X45845189Y-34703762D01*
X45289943Y-34933752D01*
X44700499Y-35051000D01*
X44099501Y-35051000D01*
X43510057Y-34933752D01*
X42954811Y-34703762D01*
X42706653Y-34537948D01*
X42455101Y-34369866D01*
X42030134Y-33944899D01*
X41696239Y-33445190D01*
X41696238Y-33445189D01*
X41466248Y-32889943D01*
X41349000Y-32300499D01*
X41349000Y-31699501D01*
X41466248Y-31110057D01*
X41696238Y-30554811D01*
X42030133Y-30055103D01*
X42030134Y-30055101D01*
X42455101Y-29630134D01*
X42954810Y-29296239D01*
X42954811Y-29296238D01*
X43510057Y-29066248D01*
X44099501Y-28949000D01*
X44700499Y-28949000D01*
X45289943Y-29066248D01*
X45289943Y-29066248D01*
G37*
M02*
