G04 #@! TF.GenerationSoftware,KiCad,Pcbnew,(5.1.2)-2*
G04 #@! TF.CreationDate,2020-08-31T16:13:31+01:00*
G04 #@! TF.ProjectId,INV_Board,494e565f-426f-4617-9264-2e6b69636164,rev?*
G04 #@! TF.SameCoordinates,Original*
G04 #@! TF.FileFunction,Copper,L2,Bot*
G04 #@! TF.FilePolarity,Positive*
%FSLAX46Y46*%
G04 Gerber Fmt 4.6, Leading zero omitted, Abs format (unit mm)*
G04 Created by KiCad (PCBNEW (5.1.2)-2) date 2020-08-31 16:13:31*
%MOMM*%
%LPD*%
G04 APERTURE LIST*
%ADD10R,0.740000X2.400000*%
%ADD11O,0.800000X1.300000*%
%ADD12C,0.100000*%
%ADD13C,0.800000*%
%ADD14C,6.000000*%
%ADD15C,2.400000*%
%ADD16R,2.400000X2.400000*%
%ADD17O,1.200000X1.750000*%
%ADD18C,1.200000*%
%ADD19O,1.300000X0.800000*%
%ADD20C,1.000000*%
%ADD21O,1.700000X1.700000*%
%ADD22R,1.700000X1.700000*%
%ADD23O,1.900000X1.200000*%
%ADD24C,1.450000*%
%ADD25C,0.600000*%
%ADD26R,2.950000X4.900000*%
%ADD27C,0.250000*%
%ADD28C,0.500000*%
%ADD29C,0.200000*%
%ADD30C,0.254000*%
G04 APERTURE END LIST*
D10*
X61540000Y-71650000D03*
X61540000Y-67750000D03*
X60270000Y-71650000D03*
X60270000Y-67750000D03*
X59000000Y-71650000D03*
X59000000Y-67750000D03*
X57730000Y-71650000D03*
X57730000Y-67750000D03*
X56460000Y-71650000D03*
X56460000Y-67750000D03*
D11*
X51950000Y-71300000D03*
X50700000Y-71300000D03*
X49450000Y-71300000D03*
D12*
G36*
X48419603Y-70650963D02*
G01*
X48439018Y-70653843D01*
X48458057Y-70658612D01*
X48476537Y-70665224D01*
X48494279Y-70673616D01*
X48511114Y-70683706D01*
X48526879Y-70695398D01*
X48541421Y-70708579D01*
X48554602Y-70723121D01*
X48566294Y-70738886D01*
X48576384Y-70755721D01*
X48584776Y-70773463D01*
X48591388Y-70791943D01*
X48596157Y-70810982D01*
X48599037Y-70830397D01*
X48600000Y-70850000D01*
X48600000Y-71750000D01*
X48599037Y-71769603D01*
X48596157Y-71789018D01*
X48591388Y-71808057D01*
X48584776Y-71826537D01*
X48576384Y-71844279D01*
X48566294Y-71861114D01*
X48554602Y-71876879D01*
X48541421Y-71891421D01*
X48526879Y-71904602D01*
X48511114Y-71916294D01*
X48494279Y-71926384D01*
X48476537Y-71934776D01*
X48458057Y-71941388D01*
X48439018Y-71946157D01*
X48419603Y-71949037D01*
X48400000Y-71950000D01*
X48000000Y-71950000D01*
X47980397Y-71949037D01*
X47960982Y-71946157D01*
X47941943Y-71941388D01*
X47923463Y-71934776D01*
X47905721Y-71926384D01*
X47888886Y-71916294D01*
X47873121Y-71904602D01*
X47858579Y-71891421D01*
X47845398Y-71876879D01*
X47833706Y-71861114D01*
X47823616Y-71844279D01*
X47815224Y-71826537D01*
X47808612Y-71808057D01*
X47803843Y-71789018D01*
X47800963Y-71769603D01*
X47800000Y-71750000D01*
X47800000Y-70850000D01*
X47800963Y-70830397D01*
X47803843Y-70810982D01*
X47808612Y-70791943D01*
X47815224Y-70773463D01*
X47823616Y-70755721D01*
X47833706Y-70738886D01*
X47845398Y-70723121D01*
X47858579Y-70708579D01*
X47873121Y-70695398D01*
X47888886Y-70683706D01*
X47905721Y-70673616D01*
X47923463Y-70665224D01*
X47941943Y-70658612D01*
X47960982Y-70653843D01*
X47980397Y-70650963D01*
X48000000Y-70650000D01*
X48400000Y-70650000D01*
X48419603Y-70650963D01*
X48419603Y-70650963D01*
G37*
D13*
X48200000Y-71300000D03*
D14*
X44400000Y-32000000D03*
X51600000Y-32000000D03*
D15*
X44500000Y-60000000D03*
D16*
X52000000Y-60000000D03*
D15*
X44500000Y-44000000D03*
D16*
X52000000Y-44000000D03*
D17*
X52500000Y-75100000D03*
X54500000Y-75100000D03*
D12*
G36*
X56874505Y-74226204D02*
G01*
X56898773Y-74229804D01*
X56922572Y-74235765D01*
X56945671Y-74244030D01*
X56967850Y-74254520D01*
X56988893Y-74267132D01*
X57008599Y-74281747D01*
X57026777Y-74298223D01*
X57043253Y-74316401D01*
X57057868Y-74336107D01*
X57070480Y-74357150D01*
X57080970Y-74379329D01*
X57089235Y-74402428D01*
X57095196Y-74426227D01*
X57098796Y-74450495D01*
X57100000Y-74474999D01*
X57100000Y-75725001D01*
X57098796Y-75749505D01*
X57095196Y-75773773D01*
X57089235Y-75797572D01*
X57080970Y-75820671D01*
X57070480Y-75842850D01*
X57057868Y-75863893D01*
X57043253Y-75883599D01*
X57026777Y-75901777D01*
X57008599Y-75918253D01*
X56988893Y-75932868D01*
X56967850Y-75945480D01*
X56945671Y-75955970D01*
X56922572Y-75964235D01*
X56898773Y-75970196D01*
X56874505Y-75973796D01*
X56850001Y-75975000D01*
X56149999Y-75975000D01*
X56125495Y-75973796D01*
X56101227Y-75970196D01*
X56077428Y-75964235D01*
X56054329Y-75955970D01*
X56032150Y-75945480D01*
X56011107Y-75932868D01*
X55991401Y-75918253D01*
X55973223Y-75901777D01*
X55956747Y-75883599D01*
X55942132Y-75863893D01*
X55929520Y-75842850D01*
X55919030Y-75820671D01*
X55910765Y-75797572D01*
X55904804Y-75773773D01*
X55901204Y-75749505D01*
X55900000Y-75725001D01*
X55900000Y-74474999D01*
X55901204Y-74450495D01*
X55904804Y-74426227D01*
X55910765Y-74402428D01*
X55919030Y-74379329D01*
X55929520Y-74357150D01*
X55942132Y-74336107D01*
X55956747Y-74316401D01*
X55973223Y-74298223D01*
X55991401Y-74281747D01*
X56011107Y-74267132D01*
X56032150Y-74254520D01*
X56054329Y-74244030D01*
X56077428Y-74235765D01*
X56101227Y-74229804D01*
X56125495Y-74226204D01*
X56149999Y-74225000D01*
X56850001Y-74225000D01*
X56874505Y-74226204D01*
X56874505Y-74226204D01*
G37*
D18*
X56500000Y-75100000D03*
D11*
X61500000Y-71300000D03*
X60250000Y-71300000D03*
X59000000Y-71300000D03*
X57750000Y-71300000D03*
X56500000Y-71300000D03*
D12*
G36*
X55469603Y-70650963D02*
G01*
X55489018Y-70653843D01*
X55508057Y-70658612D01*
X55526537Y-70665224D01*
X55544279Y-70673616D01*
X55561114Y-70683706D01*
X55576879Y-70695398D01*
X55591421Y-70708579D01*
X55604602Y-70723121D01*
X55616294Y-70738886D01*
X55626384Y-70755721D01*
X55634776Y-70773463D01*
X55641388Y-70791943D01*
X55646157Y-70810982D01*
X55649037Y-70830397D01*
X55650000Y-70850000D01*
X55650000Y-71750000D01*
X55649037Y-71769603D01*
X55646157Y-71789018D01*
X55641388Y-71808057D01*
X55634776Y-71826537D01*
X55626384Y-71844279D01*
X55616294Y-71861114D01*
X55604602Y-71876879D01*
X55591421Y-71891421D01*
X55576879Y-71904602D01*
X55561114Y-71916294D01*
X55544279Y-71926384D01*
X55526537Y-71934776D01*
X55508057Y-71941388D01*
X55489018Y-71946157D01*
X55469603Y-71949037D01*
X55450000Y-71950000D01*
X55050000Y-71950000D01*
X55030397Y-71949037D01*
X55010982Y-71946157D01*
X54991943Y-71941388D01*
X54973463Y-71934776D01*
X54955721Y-71926384D01*
X54938886Y-71916294D01*
X54923121Y-71904602D01*
X54908579Y-71891421D01*
X54895398Y-71876879D01*
X54883706Y-71861114D01*
X54873616Y-71844279D01*
X54865224Y-71826537D01*
X54858612Y-71808057D01*
X54853843Y-71789018D01*
X54850963Y-71769603D01*
X54850000Y-71750000D01*
X54850000Y-70850000D01*
X54850963Y-70830397D01*
X54853843Y-70810982D01*
X54858612Y-70791943D01*
X54865224Y-70773463D01*
X54873616Y-70755721D01*
X54883706Y-70738886D01*
X54895398Y-70723121D01*
X54908579Y-70708579D01*
X54923121Y-70695398D01*
X54938886Y-70683706D01*
X54955721Y-70673616D01*
X54973463Y-70665224D01*
X54991943Y-70658612D01*
X55010982Y-70653843D01*
X55030397Y-70650963D01*
X55050000Y-70650000D01*
X55450000Y-70650000D01*
X55469603Y-70650963D01*
X55469603Y-70650963D01*
G37*
D13*
X55250000Y-71300000D03*
D19*
X92200000Y-68700000D03*
X92200000Y-69950000D03*
D12*
G36*
X92669603Y-70800963D02*
G01*
X92689018Y-70803843D01*
X92708057Y-70808612D01*
X92726537Y-70815224D01*
X92744279Y-70823616D01*
X92761114Y-70833706D01*
X92776879Y-70845398D01*
X92791421Y-70858579D01*
X92804602Y-70873121D01*
X92816294Y-70888886D01*
X92826384Y-70905721D01*
X92834776Y-70923463D01*
X92841388Y-70941943D01*
X92846157Y-70960982D01*
X92849037Y-70980397D01*
X92850000Y-71000000D01*
X92850000Y-71400000D01*
X92849037Y-71419603D01*
X92846157Y-71439018D01*
X92841388Y-71458057D01*
X92834776Y-71476537D01*
X92826384Y-71494279D01*
X92816294Y-71511114D01*
X92804602Y-71526879D01*
X92791421Y-71541421D01*
X92776879Y-71554602D01*
X92761114Y-71566294D01*
X92744279Y-71576384D01*
X92726537Y-71584776D01*
X92708057Y-71591388D01*
X92689018Y-71596157D01*
X92669603Y-71599037D01*
X92650000Y-71600000D01*
X91750000Y-71600000D01*
X91730397Y-71599037D01*
X91710982Y-71596157D01*
X91691943Y-71591388D01*
X91673463Y-71584776D01*
X91655721Y-71576384D01*
X91638886Y-71566294D01*
X91623121Y-71554602D01*
X91608579Y-71541421D01*
X91595398Y-71526879D01*
X91583706Y-71511114D01*
X91573616Y-71494279D01*
X91565224Y-71476537D01*
X91558612Y-71458057D01*
X91553843Y-71439018D01*
X91550963Y-71419603D01*
X91550000Y-71400000D01*
X91550000Y-71000000D01*
X91550963Y-70980397D01*
X91553843Y-70960982D01*
X91558612Y-70941943D01*
X91565224Y-70923463D01*
X91573616Y-70905721D01*
X91583706Y-70888886D01*
X91595398Y-70873121D01*
X91608579Y-70858579D01*
X91623121Y-70845398D01*
X91638886Y-70833706D01*
X91655721Y-70823616D01*
X91673463Y-70815224D01*
X91691943Y-70808612D01*
X91710982Y-70803843D01*
X91730397Y-70800963D01*
X91750000Y-70800000D01*
X92650000Y-70800000D01*
X92669603Y-70800963D01*
X92669603Y-70800963D01*
G37*
D13*
X92200000Y-71200000D03*
D17*
X60500000Y-75100000D03*
X62500000Y-75100000D03*
X64500000Y-75100000D03*
X66500000Y-75100000D03*
X68500000Y-75100000D03*
D12*
G36*
X70874505Y-74226204D02*
G01*
X70898773Y-74229804D01*
X70922572Y-74235765D01*
X70945671Y-74244030D01*
X70967850Y-74254520D01*
X70988893Y-74267132D01*
X71008599Y-74281747D01*
X71026777Y-74298223D01*
X71043253Y-74316401D01*
X71057868Y-74336107D01*
X71070480Y-74357150D01*
X71080970Y-74379329D01*
X71089235Y-74402428D01*
X71095196Y-74426227D01*
X71098796Y-74450495D01*
X71100000Y-74474999D01*
X71100000Y-75725001D01*
X71098796Y-75749505D01*
X71095196Y-75773773D01*
X71089235Y-75797572D01*
X71080970Y-75820671D01*
X71070480Y-75842850D01*
X71057868Y-75863893D01*
X71043253Y-75883599D01*
X71026777Y-75901777D01*
X71008599Y-75918253D01*
X70988893Y-75932868D01*
X70967850Y-75945480D01*
X70945671Y-75955970D01*
X70922572Y-75964235D01*
X70898773Y-75970196D01*
X70874505Y-75973796D01*
X70850001Y-75975000D01*
X70149999Y-75975000D01*
X70125495Y-75973796D01*
X70101227Y-75970196D01*
X70077428Y-75964235D01*
X70054329Y-75955970D01*
X70032150Y-75945480D01*
X70011107Y-75932868D01*
X69991401Y-75918253D01*
X69973223Y-75901777D01*
X69956747Y-75883599D01*
X69942132Y-75863893D01*
X69929520Y-75842850D01*
X69919030Y-75820671D01*
X69910765Y-75797572D01*
X69904804Y-75773773D01*
X69901204Y-75749505D01*
X69900000Y-75725001D01*
X69900000Y-74474999D01*
X69901204Y-74450495D01*
X69904804Y-74426227D01*
X69910765Y-74402428D01*
X69919030Y-74379329D01*
X69929520Y-74357150D01*
X69942132Y-74336107D01*
X69956747Y-74316401D01*
X69973223Y-74298223D01*
X69991401Y-74281747D01*
X70011107Y-74267132D01*
X70032150Y-74254520D01*
X70054329Y-74244030D01*
X70077428Y-74235765D01*
X70101227Y-74229804D01*
X70125495Y-74226204D01*
X70149999Y-74225000D01*
X70850001Y-74225000D01*
X70874505Y-74226204D01*
X70874505Y-74226204D01*
G37*
D18*
X70500000Y-75100000D03*
D20*
X88500000Y-73400000D03*
X86000000Y-76300000D03*
D21*
X70040000Y-60000000D03*
D22*
X67500000Y-60000000D03*
D21*
X99040000Y-59500000D03*
D22*
X96500000Y-59500000D03*
D21*
X125040000Y-59500000D03*
D22*
X122500000Y-59500000D03*
D23*
X41662500Y-76400000D03*
X41662500Y-69400000D03*
D24*
X44362500Y-75400000D03*
X44362500Y-70400000D03*
D25*
X134490000Y-72220000D03*
X134490000Y-73520000D03*
X135790000Y-73520000D03*
X135790000Y-72220000D03*
X134490000Y-76120000D03*
X134490000Y-74820000D03*
X135790000Y-74820000D03*
X135790000Y-76120000D03*
D26*
X135140000Y-74170000D03*
D13*
X79750000Y-70500000D03*
X99675000Y-73250000D03*
X81000000Y-69400000D03*
X96967367Y-72367367D03*
X102375021Y-73250000D03*
X96200000Y-70200000D03*
X56460000Y-67525000D03*
X70200000Y-72800000D03*
X67200000Y-72700000D03*
X79750000Y-38500000D03*
X136250000Y-40500000D03*
X133750000Y-40500000D03*
X133750000Y-38000000D03*
X107250000Y-40500000D03*
X109750000Y-40500000D03*
X107250000Y-38000000D03*
X82250000Y-41000000D03*
X135500000Y-66500000D03*
X136500000Y-66500000D03*
X137500000Y-66500000D03*
X137500000Y-65000000D03*
X136500000Y-65000000D03*
X135500000Y-65000000D03*
X134000000Y-67500000D03*
X72800000Y-76900000D03*
X132500000Y-43000000D03*
X137500000Y-43000000D03*
X132500000Y-38000000D03*
X135000000Y-40500000D03*
X135000000Y-38000000D03*
X132500000Y-40500000D03*
X135000000Y-43000000D03*
X137500000Y-40500000D03*
X106000000Y-43000000D03*
X111000000Y-43000000D03*
X106000000Y-38000000D03*
X108500000Y-40500000D03*
X108500000Y-38000000D03*
X106000000Y-40500000D03*
X108500000Y-43000000D03*
X111000000Y-40500000D03*
X78500000Y-43500000D03*
X83500000Y-43500000D03*
X78500000Y-38500000D03*
X83500000Y-38500000D03*
X81000000Y-41000000D03*
X81000000Y-38500000D03*
X78500000Y-41000000D03*
X81000000Y-43500000D03*
X83500000Y-41000000D03*
X82697312Y-73548519D03*
X98950000Y-71450000D03*
X64592500Y-64407500D03*
X91892500Y-63907500D03*
X119325732Y-63907500D03*
X79500000Y-71900000D03*
X96200000Y-75712494D03*
X89000000Y-75512478D03*
X137500000Y-38000000D03*
X111000000Y-38000000D03*
X107250000Y-39250000D03*
X109750000Y-39250000D03*
X109750000Y-41750000D03*
X107250000Y-41750000D03*
X133750000Y-39250000D03*
X136250000Y-39250000D03*
X136250000Y-41750000D03*
X133750000Y-41750000D03*
X79750000Y-39750000D03*
X82250000Y-39750000D03*
X82250000Y-42250000D03*
X79750000Y-42250000D03*
X107500000Y-75250000D03*
X108200000Y-72600000D03*
X131000000Y-72000000D03*
X129000000Y-67700011D03*
X102250000Y-75750000D03*
X119800000Y-73200000D03*
X108400000Y-68800000D03*
X106600000Y-71000000D03*
X119200000Y-68800000D03*
X114000000Y-76300000D03*
X114600000Y-73200000D03*
X113100000Y-68800000D03*
X78500000Y-39750000D03*
X81000000Y-39750000D03*
X83500000Y-39750000D03*
X79750000Y-41000000D03*
X78500000Y-42250000D03*
X81000000Y-42250000D03*
X83500000Y-42250000D03*
X82250000Y-43500000D03*
X79750000Y-43500000D03*
X106000000Y-39250000D03*
X108500000Y-39250000D03*
X109750000Y-38000000D03*
X111000000Y-39250000D03*
X106000000Y-41750000D03*
X108500000Y-41750000D03*
X111000000Y-41750000D03*
X109750000Y-43000000D03*
X107250000Y-43000000D03*
X132500000Y-39250000D03*
X136250000Y-38000000D03*
X137500000Y-39250000D03*
X135000000Y-39250000D03*
X132500000Y-41750000D03*
X135000000Y-41750000D03*
X137500000Y-41750000D03*
X133750000Y-43000000D03*
X136250000Y-43000000D03*
X82250000Y-38500000D03*
X103500000Y-70300000D03*
X55800000Y-64100000D03*
X78200000Y-66300032D03*
X69600000Y-66503674D03*
X62600000Y-73000000D03*
X74028419Y-65396407D03*
X75300000Y-71200065D03*
X49500000Y-76500000D03*
X126750000Y-33000000D03*
X124250000Y-33000000D03*
X124250000Y-30500000D03*
X126750000Y-30500000D03*
X129250000Y-30500000D03*
X129250000Y-33000000D03*
X129250000Y-35500000D03*
X126750000Y-35500000D03*
X124250000Y-35500000D03*
X121750000Y-35500000D03*
X121750000Y-33000000D03*
X121750000Y-30500000D03*
X121750000Y-38000000D03*
X124250000Y-38000000D03*
X126750000Y-38000000D03*
X129250000Y-38000000D03*
X125500000Y-36750000D03*
X128000000Y-36750000D03*
X123000000Y-36750000D03*
X125500000Y-34250000D03*
X128000000Y-34250000D03*
X123000000Y-34250000D03*
X128000000Y-31750000D03*
X125500000Y-31750000D03*
X123000000Y-31750000D03*
X99700000Y-33000000D03*
X97200000Y-33000000D03*
X97200000Y-30500000D03*
X99700000Y-30500000D03*
X102200000Y-30500000D03*
X102200000Y-33000000D03*
X102200000Y-35500000D03*
X99700000Y-35500000D03*
X97200000Y-35500000D03*
X94700000Y-35500000D03*
X94700000Y-33000000D03*
X94700000Y-30500000D03*
X94700000Y-38000000D03*
X97200000Y-38000000D03*
X99700000Y-38000000D03*
X102200000Y-38000000D03*
X98450000Y-36750000D03*
X100950000Y-36750000D03*
X95950000Y-36750000D03*
X98450000Y-34250000D03*
X103450000Y-34250000D03*
X100950000Y-34250000D03*
X95950000Y-34250000D03*
X103450000Y-34250000D03*
X103450000Y-31750000D03*
X100950000Y-31750000D03*
X98450000Y-31750000D03*
X95950000Y-31750000D03*
X71700000Y-33000000D03*
X69200000Y-33000000D03*
X69200000Y-30500000D03*
X71700000Y-30500000D03*
X74200000Y-30500000D03*
X74200000Y-33000000D03*
X74200000Y-35500000D03*
X71700000Y-35500000D03*
X69200000Y-35500000D03*
X66700000Y-35500000D03*
X66700000Y-33000000D03*
X66700000Y-30500000D03*
X66700000Y-38000000D03*
X69200000Y-38000000D03*
X71700000Y-38000000D03*
X74200000Y-38000000D03*
X70450000Y-36750000D03*
X75450000Y-36750000D03*
X72950000Y-36750000D03*
X67950000Y-36750000D03*
X70450000Y-34250000D03*
X75450000Y-34250000D03*
X72950000Y-34250000D03*
X67950000Y-34250000D03*
X75450000Y-34250000D03*
X75450000Y-31750000D03*
X72950000Y-31750000D03*
X70450000Y-31750000D03*
X67950000Y-31750000D03*
X69250000Y-36750000D03*
X74250000Y-36750000D03*
X71750000Y-36750000D03*
X66750000Y-36750000D03*
X69250000Y-34250000D03*
X74250000Y-34250000D03*
X71750000Y-34250000D03*
X66750000Y-34250000D03*
X74250000Y-34250000D03*
X74250000Y-31750000D03*
X71750000Y-31750000D03*
X69250000Y-31750000D03*
X66750000Y-31750000D03*
X129250000Y-36750000D03*
X126750000Y-36750000D03*
X124250000Y-36750000D03*
X121750000Y-36750000D03*
X121750000Y-34250000D03*
X124250000Y-34250000D03*
X126750000Y-34250000D03*
X129250000Y-34250000D03*
X129250000Y-31750000D03*
X126750000Y-31750000D03*
X124250000Y-31750000D03*
X121750000Y-31750000D03*
X102250000Y-36750000D03*
X99750000Y-36750000D03*
X97250000Y-36750000D03*
X94750000Y-36750000D03*
X94750000Y-34250000D03*
X97250000Y-34250000D03*
X99750000Y-34250000D03*
X102250000Y-34250000D03*
X102250000Y-31750000D03*
X99750000Y-31750000D03*
X97250000Y-31750000D03*
X94750000Y-31750000D03*
X93500000Y-35500000D03*
X98500000Y-38000000D03*
X96000000Y-38000000D03*
X101000000Y-30500000D03*
X98500000Y-33000000D03*
X96000000Y-33000000D03*
X93500000Y-38000000D03*
X103500000Y-33000000D03*
X101000000Y-35500000D03*
X93500000Y-33000000D03*
X101000000Y-33000000D03*
X103500000Y-30500000D03*
X93500000Y-30500000D03*
X96000000Y-35500000D03*
X96000000Y-30500000D03*
X98500000Y-35500000D03*
X101000000Y-38000000D03*
X120500000Y-35500000D03*
X125500000Y-38000000D03*
X123000000Y-38000000D03*
X128000000Y-30500000D03*
X125500000Y-33000000D03*
X123000000Y-33000000D03*
X120500000Y-38000000D03*
X130500000Y-33000000D03*
X128000000Y-35500000D03*
X120500000Y-33000000D03*
X128000000Y-33000000D03*
X130500000Y-30500000D03*
X120500000Y-30500000D03*
X123000000Y-35500000D03*
X123000000Y-30500000D03*
X125500000Y-35500000D03*
X128000000Y-38000000D03*
X125500000Y-30500000D03*
X130500000Y-35500000D03*
X98500000Y-30500000D03*
X103500000Y-35500000D03*
X70500000Y-33000000D03*
X68000000Y-33000000D03*
X68000000Y-30500000D03*
X70500000Y-30500000D03*
X73000000Y-30500000D03*
X73000000Y-33000000D03*
X73000000Y-35500000D03*
X70500000Y-35500000D03*
X68000000Y-35500000D03*
X65500000Y-35500000D03*
X65500000Y-33000000D03*
X65500000Y-30500000D03*
X75500000Y-30500000D03*
X75500000Y-33000000D03*
X75500000Y-35500000D03*
X65500000Y-38000000D03*
X68000000Y-38000000D03*
X70500000Y-38000000D03*
X73000000Y-38000000D03*
X139250000Y-36250000D03*
X137500000Y-58500000D03*
X135500000Y-58500000D03*
X136500000Y-58500000D03*
X139000000Y-77000000D03*
X130500000Y-31750000D03*
X130500000Y-34250000D03*
X97000000Y-67900014D03*
X96607625Y-65999963D03*
X84922345Y-71412159D03*
X82985632Y-64864851D03*
X122500000Y-50750000D03*
X122500000Y-53250000D03*
X120000000Y-53250000D03*
X120000000Y-50750000D03*
X120000000Y-48250000D03*
X122500000Y-48250000D03*
X125000000Y-48250000D03*
X125000000Y-50750000D03*
X125000000Y-53250000D03*
X125000000Y-55750000D03*
X122500000Y-55750000D03*
X120000000Y-55750000D03*
X127500000Y-55750000D03*
X127500000Y-53250000D03*
X127500000Y-50750000D03*
X127500000Y-48250000D03*
X126250000Y-52000000D03*
X126250000Y-47000000D03*
X126250000Y-49500000D03*
X126250000Y-54500000D03*
X123750000Y-52000000D03*
X123750000Y-47000000D03*
X123750000Y-49500000D03*
X123750000Y-54500000D03*
X123750000Y-47000000D03*
X121250000Y-47000000D03*
X121250000Y-49500000D03*
X121250000Y-52000000D03*
X121250000Y-54500000D03*
X121250000Y-55750000D03*
X123750000Y-55750000D03*
X126250000Y-55750000D03*
X126250000Y-53250000D03*
X123750000Y-53250000D03*
X121250000Y-53250000D03*
X121250000Y-50750000D03*
X123750000Y-50750000D03*
X126250000Y-50750000D03*
X126250000Y-48250000D03*
X124000000Y-48250000D03*
X121250000Y-48250000D03*
X125000000Y-52000000D03*
X122500000Y-47000000D03*
X125000000Y-57000000D03*
X122500000Y-57000000D03*
X120000000Y-57000000D03*
X120000000Y-54500000D03*
X122500000Y-52000000D03*
X122500000Y-54500000D03*
X127500000Y-47000000D03*
X127500000Y-54500000D03*
X120000000Y-52000000D03*
X127500000Y-49500000D03*
X120000000Y-47000000D03*
X127500000Y-52000000D03*
X127500000Y-57000000D03*
X122500000Y-49500000D03*
X120000000Y-49500000D03*
X125000000Y-47000000D03*
X125000000Y-54500000D03*
X125000000Y-49500000D03*
X96500000Y-50750000D03*
X96500000Y-53250000D03*
X94000000Y-53250000D03*
X94000000Y-50750000D03*
X94000000Y-48250000D03*
X96500000Y-48250000D03*
X99000000Y-48250000D03*
X99000000Y-50750000D03*
X99000000Y-53250000D03*
X99000000Y-55750000D03*
X96500000Y-55750000D03*
X94000000Y-55750000D03*
X101500000Y-55750000D03*
X101500000Y-53250000D03*
X101500000Y-50750000D03*
X101500000Y-48250000D03*
X100250000Y-52000000D03*
X100250000Y-47000000D03*
X100250000Y-49500000D03*
X100250000Y-54500000D03*
X97750000Y-52000000D03*
X97750000Y-47000000D03*
X97750000Y-49500000D03*
X97750000Y-54500000D03*
X97750000Y-47000000D03*
X95250000Y-47000000D03*
X95250000Y-49500000D03*
X95250000Y-52000000D03*
X95250000Y-54500000D03*
X95250000Y-55750000D03*
X97750000Y-55750000D03*
X100250000Y-55750000D03*
X100250000Y-53250000D03*
X97750000Y-53250000D03*
X95250000Y-53250000D03*
X95250000Y-50750000D03*
X97750000Y-50750000D03*
X100250000Y-50750000D03*
X100250000Y-48250000D03*
X97750000Y-48250000D03*
X95250000Y-48250000D03*
X99000000Y-52000000D03*
X96500000Y-47000000D03*
X99000000Y-57000000D03*
X96500000Y-57000000D03*
X94000000Y-57000000D03*
X94000000Y-54500000D03*
X96500000Y-52000000D03*
X96500000Y-54500000D03*
X101500000Y-47000000D03*
X101500000Y-54500000D03*
X94000000Y-52000000D03*
X101500000Y-49500000D03*
X94000000Y-47000000D03*
X101500000Y-52000000D03*
X101500000Y-57000000D03*
X96500000Y-49500000D03*
X94000000Y-49500000D03*
X99000000Y-47000000D03*
X99000000Y-54500000D03*
X99000000Y-49500000D03*
X67500000Y-50750000D03*
X67500000Y-53250000D03*
X65000000Y-53250000D03*
X65000000Y-50750000D03*
X65000000Y-48250000D03*
X67500000Y-48250000D03*
X70000000Y-48250000D03*
X70000000Y-50750000D03*
X70000000Y-53250000D03*
X70000000Y-55750000D03*
X67500000Y-55750000D03*
X65000000Y-55750000D03*
X72500000Y-55750000D03*
X72500000Y-53250000D03*
X72500000Y-50750000D03*
X72500000Y-48250000D03*
X71250000Y-52000000D03*
X71250000Y-47000000D03*
X71250000Y-49500000D03*
X71250000Y-54500000D03*
X68750000Y-52000000D03*
X68750000Y-47000000D03*
X68750000Y-49500000D03*
X68750000Y-54500000D03*
X68750000Y-47000000D03*
X66250000Y-47000000D03*
X66250000Y-49500000D03*
X66250000Y-52000000D03*
X66250000Y-54500000D03*
X66250000Y-55750000D03*
X68750000Y-55750000D03*
X71250000Y-55750000D03*
X71250000Y-53250000D03*
X68750000Y-53000000D03*
X66250000Y-53000000D03*
X66250000Y-50750000D03*
X68750000Y-50750000D03*
X71250000Y-50750000D03*
X71250000Y-48250000D03*
X68750000Y-48250000D03*
X66250000Y-48250000D03*
X72500000Y-57000000D03*
X67500000Y-49500000D03*
X65000000Y-52000000D03*
X70000000Y-52000000D03*
X65000000Y-49500000D03*
X70000000Y-54500000D03*
X70000000Y-47000000D03*
X72500000Y-49500000D03*
X70000000Y-57000000D03*
X70000000Y-49500000D03*
X65000000Y-57000000D03*
X67500000Y-47000000D03*
X67500000Y-57000000D03*
X65000000Y-54500000D03*
X72500000Y-54500000D03*
X67500000Y-54500000D03*
X65000000Y-47000000D03*
X72500000Y-52000000D03*
X67500000Y-52000000D03*
X72500000Y-47000000D03*
X84108974Y-68875004D03*
X85787340Y-66987340D03*
X97992467Y-68022609D03*
X97926355Y-65579701D03*
X84952676Y-72411711D03*
X82000000Y-71000000D03*
X71554459Y-66180275D03*
X70007299Y-64703628D03*
X73400002Y-66300000D03*
X75800000Y-67474936D03*
X78000000Y-75300000D03*
X81500000Y-74000000D03*
X71624988Y-76924970D03*
X87253016Y-76671243D03*
X103005698Y-76404938D03*
X93250000Y-76924974D03*
X115900000Y-55900000D03*
X117250000Y-47500000D03*
X122800000Y-61800000D03*
X129385002Y-54358579D03*
X90200000Y-55700000D03*
X90300000Y-46500000D03*
X95800000Y-62100000D03*
X102700000Y-54400000D03*
X60700000Y-56500000D03*
X63000000Y-47000000D03*
X74585082Y-54800000D03*
X68000000Y-61500000D03*
X72600000Y-70425079D03*
X76112196Y-72413151D03*
X64620584Y-70070075D03*
X62866994Y-69305667D03*
X106900000Y-76275000D03*
X45200000Y-76800000D03*
X111800000Y-71400000D03*
X111700000Y-73500000D03*
X109600000Y-71400000D03*
X110000000Y-68600044D03*
X110000000Y-65800004D03*
D27*
X79750000Y-70500000D02*
X80850000Y-69400000D01*
X80850000Y-69400000D02*
X81000000Y-69400000D01*
D28*
X99675000Y-73250000D02*
X102375021Y-73250000D01*
X96967367Y-72367367D02*
X96967367Y-70967367D01*
X96599999Y-70599999D02*
X96200000Y-70200000D01*
X96967367Y-70967367D02*
X96599999Y-70599999D01*
D29*
X56460000Y-67750000D02*
X56460000Y-67525000D01*
D27*
X53060000Y-74600000D02*
X53100000Y-74640000D01*
X51700000Y-74600000D02*
X53060000Y-74600000D01*
X50800000Y-73000000D02*
X50800000Y-73700000D01*
X50800000Y-73700000D02*
X51700000Y-74600000D01*
D28*
X139250000Y-36250000D02*
X139250000Y-57750000D01*
D27*
X139250000Y-57750000D02*
X139250000Y-76750000D01*
X139250000Y-76750000D02*
X139000000Y-77000000D01*
D28*
X135500000Y-58500000D02*
X136500000Y-58500000D01*
X136500000Y-58500000D02*
X137500000Y-58500000D01*
X138500000Y-58500000D02*
X139250000Y-57750000D01*
X137500000Y-58500000D02*
X138500000Y-58500000D01*
D27*
X96607625Y-67507639D02*
X97000000Y-67900014D01*
X96607625Y-65999963D02*
X96607625Y-67507639D01*
X82800000Y-70100000D02*
X82800000Y-65050483D01*
X82800000Y-65050483D02*
X82985632Y-64864851D01*
X84922345Y-71412159D02*
X84112159Y-71412159D01*
X84112159Y-71412159D02*
X82800000Y-70100000D01*
X84108974Y-68875004D02*
X85787340Y-67196638D01*
X85787340Y-67196638D02*
X85787340Y-66987340D01*
X97992467Y-68022609D02*
X97992467Y-65645813D01*
X97992467Y-65645813D02*
X97926355Y-65579701D01*
X84952676Y-72411711D02*
X83411711Y-72411711D01*
X83411711Y-72411711D02*
X82000000Y-71000000D01*
X71554459Y-66180275D02*
X70077812Y-64703628D01*
X70077812Y-64703628D02*
X70007299Y-64703628D01*
X73400002Y-66300000D02*
X74574938Y-67474936D01*
X75234315Y-67474936D02*
X75800000Y-67474936D01*
X74574938Y-67474936D02*
X75234315Y-67474936D01*
X80200000Y-75300000D02*
X81500000Y-74000000D01*
X78000000Y-75300000D02*
X80200000Y-75300000D01*
D29*
X61540000Y-72480000D02*
X61540000Y-71650000D01*
X61600000Y-77200000D02*
X61540000Y-77140000D01*
X61540000Y-77140000D02*
X61540000Y-72480000D01*
X61600010Y-77224980D02*
X61900020Y-76924970D01*
X71059303Y-76924970D02*
X71624988Y-76924970D01*
X61900020Y-76924970D02*
X71059303Y-76924970D01*
D27*
X93815685Y-76924974D02*
X93250000Y-76924974D01*
X92996269Y-76671243D02*
X93250000Y-76924974D01*
X87253016Y-76671243D02*
X92996269Y-76671243D01*
X102485662Y-76924974D02*
X93815685Y-76924974D01*
X103005698Y-76404938D02*
X102485662Y-76924974D01*
X117250000Y-54550000D02*
X117250000Y-47500000D01*
X115900000Y-55900000D02*
X117250000Y-54550000D01*
X129000000Y-54743581D02*
X129385002Y-54358579D01*
X129000000Y-61500000D02*
X129000000Y-54743581D01*
X123665685Y-61500000D02*
X129000000Y-61500000D01*
X122800000Y-61800000D02*
X123365685Y-61800000D01*
X123365685Y-61800000D02*
X123665685Y-61500000D01*
X90200000Y-55700000D02*
X90200000Y-46600000D01*
X90200000Y-46600000D02*
X90300000Y-46500000D01*
X96365685Y-62100000D02*
X97065685Y-61400000D01*
X95800000Y-62100000D02*
X96365685Y-62100000D01*
X97065685Y-61400000D02*
X102200000Y-61400000D01*
X102200000Y-61400000D02*
X102700000Y-60900000D01*
X102700000Y-60900000D02*
X102700000Y-54400000D01*
X61500000Y-48500000D02*
X63000000Y-47000000D01*
X60700000Y-56500000D02*
X61500000Y-55700000D01*
X61500000Y-55700000D02*
X61500000Y-48500000D01*
X68565685Y-61500000D02*
X68000000Y-61500000D01*
X72700000Y-61500000D02*
X68565685Y-61500000D01*
X73300000Y-60900000D02*
X72700000Y-61500000D01*
X74585082Y-54800000D02*
X73300000Y-56085082D01*
X73300000Y-56085082D02*
X73300000Y-60900000D01*
D29*
X72600000Y-70425079D02*
X74588072Y-72413151D01*
X75546511Y-72413151D02*
X76112196Y-72413151D01*
X74588072Y-72413151D02*
X75546511Y-72413151D01*
X64054899Y-70070075D02*
X64620584Y-70070075D01*
X63631402Y-70070075D02*
X64054899Y-70070075D01*
X62866994Y-69305667D02*
X63631402Y-70070075D01*
D28*
X109600000Y-71400000D02*
X109600000Y-71400000D01*
X111700000Y-71500000D02*
X111800000Y-71400000D01*
X111700000Y-73500000D02*
X111700000Y-71500000D01*
X109600000Y-71400000D02*
X111800000Y-71400000D01*
D29*
X60700000Y-77600000D02*
X60650010Y-77649990D01*
X60700000Y-75100000D02*
X60700000Y-77600000D01*
D27*
X60650010Y-77649990D02*
X54549990Y-77649990D01*
D29*
X54500000Y-77600000D02*
X54549990Y-77649990D01*
X54500000Y-75100000D02*
X54500000Y-77600000D01*
D27*
X106900000Y-76275000D02*
X105525010Y-77649990D01*
X105525010Y-77649990D02*
X60650010Y-77649990D01*
X46049990Y-77649990D02*
X45200000Y-76800000D01*
X54549990Y-77649990D02*
X46049990Y-77649990D01*
D28*
X110000000Y-68600044D02*
X110000000Y-65800004D01*
D30*
G36*
X139598000Y-35553127D02*
G01*
X139476643Y-35502859D01*
X139326528Y-35473000D01*
X139173472Y-35473000D01*
X139023357Y-35502859D01*
X138881952Y-35561431D01*
X138754691Y-35646464D01*
X138646464Y-35754691D01*
X138561431Y-35881952D01*
X138502859Y-36023357D01*
X138473000Y-36173472D01*
X138473000Y-36326528D01*
X138502859Y-36476643D01*
X138561431Y-36618048D01*
X138623000Y-36710193D01*
X138623001Y-57490287D01*
X138240289Y-57873000D01*
X137960193Y-57873000D01*
X137868048Y-57811431D01*
X137726643Y-57752859D01*
X137576528Y-57723000D01*
X137423472Y-57723000D01*
X137273357Y-57752859D01*
X137131952Y-57811431D01*
X137039807Y-57873000D01*
X136960193Y-57873000D01*
X136868048Y-57811431D01*
X136726643Y-57752859D01*
X136576528Y-57723000D01*
X136423472Y-57723000D01*
X136273357Y-57752859D01*
X136131952Y-57811431D01*
X136039807Y-57873000D01*
X135960193Y-57873000D01*
X135868048Y-57811431D01*
X135726643Y-57752859D01*
X135576528Y-57723000D01*
X135423472Y-57723000D01*
X135273357Y-57752859D01*
X135131952Y-57811431D01*
X135004691Y-57896464D01*
X134896464Y-58004691D01*
X134811431Y-58131952D01*
X134752859Y-58273357D01*
X134723000Y-58423472D01*
X134723000Y-58576528D01*
X134752859Y-58726643D01*
X134811431Y-58868048D01*
X134896464Y-58995309D01*
X135004691Y-59103536D01*
X135131952Y-59188569D01*
X135273357Y-59247141D01*
X135423472Y-59277000D01*
X135576528Y-59277000D01*
X135726643Y-59247141D01*
X135868048Y-59188569D01*
X135960193Y-59127000D01*
X136039807Y-59127000D01*
X136131952Y-59188569D01*
X136273357Y-59247141D01*
X136423472Y-59277000D01*
X136576528Y-59277000D01*
X136726643Y-59247141D01*
X136868048Y-59188569D01*
X136960193Y-59127000D01*
X137039807Y-59127000D01*
X137131952Y-59188569D01*
X137273357Y-59247141D01*
X137423472Y-59277000D01*
X137576528Y-59277000D01*
X137726643Y-59247141D01*
X137868048Y-59188569D01*
X137960193Y-59127000D01*
X138469206Y-59127000D01*
X138500000Y-59130033D01*
X138530794Y-59127000D01*
X138622913Y-59117927D01*
X138741103Y-59082075D01*
X138748000Y-59078388D01*
X138748001Y-76263362D01*
X138631952Y-76311431D01*
X138504691Y-76396464D01*
X138396464Y-76504691D01*
X138311431Y-76631952D01*
X138252859Y-76773357D01*
X138223000Y-76923472D01*
X138223000Y-77076528D01*
X138252859Y-77226643D01*
X138311431Y-77368048D01*
X138396464Y-77495309D01*
X138499155Y-77598000D01*
X106286934Y-77598000D01*
X106832935Y-77052000D01*
X106976528Y-77052000D01*
X107126643Y-77022141D01*
X107268048Y-76963569D01*
X107395309Y-76878536D01*
X107503536Y-76770309D01*
X107588569Y-76643048D01*
X107647141Y-76501643D01*
X107677000Y-76351528D01*
X107677000Y-76198472D01*
X107647141Y-76048357D01*
X107588569Y-75906952D01*
X107503536Y-75779691D01*
X107395309Y-75671464D01*
X107268048Y-75586431D01*
X107126643Y-75527859D01*
X106976528Y-75498000D01*
X106823472Y-75498000D01*
X106673357Y-75527859D01*
X106531952Y-75586431D01*
X106404691Y-75671464D01*
X106296464Y-75779691D01*
X106211431Y-75906952D01*
X106152859Y-76048357D01*
X106123000Y-76198472D01*
X106123000Y-76342065D01*
X105317076Y-77147990D01*
X103242213Y-77147990D01*
X103373746Y-77093507D01*
X103501007Y-77008474D01*
X103609234Y-76900247D01*
X103694267Y-76772986D01*
X103752839Y-76631581D01*
X103782698Y-76481466D01*
X103782698Y-76328410D01*
X103752839Y-76178295D01*
X103694267Y-76036890D01*
X103609234Y-75909629D01*
X103501007Y-75801402D01*
X103373746Y-75716369D01*
X103232341Y-75657797D01*
X103082226Y-75627938D01*
X102929170Y-75627938D01*
X102779055Y-75657797D01*
X102637650Y-75716369D01*
X102510389Y-75801402D01*
X102402162Y-75909629D01*
X102317129Y-76036890D01*
X102258557Y-76178295D01*
X102228698Y-76328410D01*
X102228698Y-76422974D01*
X93846845Y-76422974D01*
X93745309Y-76321438D01*
X93618048Y-76236405D01*
X93476643Y-76177833D01*
X93326528Y-76147974D01*
X93173472Y-76147974D01*
X93051435Y-76172248D01*
X93020922Y-76169243D01*
X93020912Y-76169243D01*
X92996269Y-76166816D01*
X92971626Y-76169243D01*
X87849861Y-76169243D01*
X87748325Y-76067707D01*
X87621064Y-75982674D01*
X87479659Y-75924102D01*
X87329544Y-75894243D01*
X87176488Y-75894243D01*
X87026373Y-75924102D01*
X86884968Y-75982674D01*
X86832373Y-76017817D01*
X86777187Y-75884585D01*
X86681210Y-75740945D01*
X86559055Y-75618790D01*
X86415415Y-75522813D01*
X86255811Y-75456703D01*
X86086377Y-75423000D01*
X85913623Y-75423000D01*
X85744189Y-75456703D01*
X85584585Y-75522813D01*
X85440945Y-75618790D01*
X85318790Y-75740945D01*
X85222813Y-75884585D01*
X85156703Y-76044189D01*
X85123000Y-76213623D01*
X85123000Y-76386377D01*
X85156703Y-76555811D01*
X85222813Y-76715415D01*
X85318790Y-76859055D01*
X85440945Y-76981210D01*
X85584585Y-77077187D01*
X85744189Y-77143297D01*
X85767782Y-77147990D01*
X72372850Y-77147990D01*
X72401988Y-77001498D01*
X72401988Y-76848442D01*
X72372129Y-76698327D01*
X72313557Y-76556922D01*
X72228524Y-76429661D01*
X72120297Y-76321434D01*
X71993036Y-76236401D01*
X71851631Y-76177829D01*
X71701516Y-76147970D01*
X71548460Y-76147970D01*
X71398345Y-76177829D01*
X71256940Y-76236401D01*
X71129679Y-76321434D01*
X71021452Y-76429661D01*
X71009218Y-76447970D01*
X62017000Y-76447970D01*
X62017000Y-76224639D01*
X62124309Y-76281997D01*
X62308475Y-76337863D01*
X62500000Y-76356727D01*
X62691524Y-76337863D01*
X62875690Y-76281997D01*
X63045418Y-76191276D01*
X63194186Y-76069186D01*
X63316276Y-75920418D01*
X63406997Y-75750691D01*
X63462863Y-75566525D01*
X63477000Y-75422993D01*
X63477000Y-74777008D01*
X63477000Y-74777007D01*
X63523000Y-74777007D01*
X63523000Y-75422992D01*
X63537137Y-75566524D01*
X63593003Y-75750690D01*
X63683724Y-75920418D01*
X63805814Y-76069186D01*
X63954582Y-76191276D01*
X64124309Y-76281997D01*
X64308475Y-76337863D01*
X64500000Y-76356727D01*
X64691524Y-76337863D01*
X64875690Y-76281997D01*
X65045418Y-76191276D01*
X65194186Y-76069186D01*
X65316276Y-75920418D01*
X65406997Y-75750691D01*
X65462863Y-75566525D01*
X65477000Y-75422993D01*
X65477000Y-74777008D01*
X65477000Y-74777007D01*
X65523000Y-74777007D01*
X65523000Y-75422992D01*
X65537137Y-75566524D01*
X65593003Y-75750690D01*
X65683724Y-75920418D01*
X65805814Y-76069186D01*
X65954582Y-76191276D01*
X66124309Y-76281997D01*
X66308475Y-76337863D01*
X66500000Y-76356727D01*
X66691524Y-76337863D01*
X66875690Y-76281997D01*
X67045418Y-76191276D01*
X67194186Y-76069186D01*
X67316276Y-75920418D01*
X67406997Y-75750691D01*
X67462863Y-75566525D01*
X67477000Y-75422993D01*
X67477000Y-74777008D01*
X67477000Y-74777007D01*
X67523000Y-74777007D01*
X67523000Y-75422992D01*
X67537137Y-75566524D01*
X67593003Y-75750690D01*
X67683724Y-75920418D01*
X67805814Y-76069186D01*
X67954582Y-76191276D01*
X68124309Y-76281997D01*
X68308475Y-76337863D01*
X68500000Y-76356727D01*
X68691524Y-76337863D01*
X68875690Y-76281997D01*
X69045418Y-76191276D01*
X69194186Y-76069186D01*
X69316276Y-75920418D01*
X69406997Y-75750691D01*
X69462863Y-75566525D01*
X69477000Y-75422993D01*
X69477000Y-75223472D01*
X77223000Y-75223472D01*
X77223000Y-75376528D01*
X77252859Y-75526643D01*
X77311431Y-75668048D01*
X77396464Y-75795309D01*
X77504691Y-75903536D01*
X77631952Y-75988569D01*
X77773357Y-76047141D01*
X77923472Y-76077000D01*
X78076528Y-76077000D01*
X78226643Y-76047141D01*
X78368048Y-75988569D01*
X78495309Y-75903536D01*
X78596845Y-75802000D01*
X80175357Y-75802000D01*
X80200000Y-75804427D01*
X80224643Y-75802000D01*
X80224653Y-75802000D01*
X80298409Y-75794736D01*
X80393036Y-75766031D01*
X80480245Y-75719417D01*
X80556684Y-75656684D01*
X80572401Y-75637533D01*
X81432935Y-74777000D01*
X81576528Y-74777000D01*
X81726643Y-74747141D01*
X81868048Y-74688569D01*
X81995309Y-74603536D01*
X82103536Y-74495309D01*
X82188569Y-74368048D01*
X82247141Y-74226643D01*
X82277000Y-74076528D01*
X82277000Y-73923472D01*
X82247141Y-73773357D01*
X82188569Y-73631952D01*
X82103536Y-73504691D01*
X81995309Y-73396464D01*
X81871329Y-73313623D01*
X87623000Y-73313623D01*
X87623000Y-73486377D01*
X87656703Y-73655811D01*
X87722813Y-73815415D01*
X87818790Y-73959055D01*
X87940945Y-74081210D01*
X88084585Y-74177187D01*
X88244189Y-74243297D01*
X88413623Y-74277000D01*
X88586377Y-74277000D01*
X88755811Y-74243297D01*
X88915415Y-74177187D01*
X89059055Y-74081210D01*
X89181210Y-73959055D01*
X89277187Y-73815415D01*
X89343297Y-73655811D01*
X89377000Y-73486377D01*
X89377000Y-73313623D01*
X89349122Y-73173472D01*
X98898000Y-73173472D01*
X98898000Y-73326528D01*
X98927859Y-73476643D01*
X98986431Y-73618048D01*
X99071464Y-73745309D01*
X99179691Y-73853536D01*
X99306952Y-73938569D01*
X99448357Y-73997141D01*
X99598472Y-74027000D01*
X99751528Y-74027000D01*
X99901643Y-73997141D01*
X100043048Y-73938569D01*
X100135193Y-73877000D01*
X101914828Y-73877000D01*
X102006973Y-73938569D01*
X102148378Y-73997141D01*
X102298493Y-74027000D01*
X102451549Y-74027000D01*
X102601664Y-73997141D01*
X102743069Y-73938569D01*
X102870330Y-73853536D01*
X102978557Y-73745309D01*
X103063590Y-73618048D01*
X103122162Y-73476643D01*
X103152021Y-73326528D01*
X103152021Y-73173472D01*
X103122162Y-73023357D01*
X103063590Y-72881952D01*
X102978557Y-72754691D01*
X102870330Y-72646464D01*
X102743069Y-72561431D01*
X102601664Y-72502859D01*
X102451549Y-72473000D01*
X102298493Y-72473000D01*
X102148378Y-72502859D01*
X102006973Y-72561431D01*
X101914828Y-72623000D01*
X100135193Y-72623000D01*
X100043048Y-72561431D01*
X99901643Y-72502859D01*
X99751528Y-72473000D01*
X99598472Y-72473000D01*
X99448357Y-72502859D01*
X99306952Y-72561431D01*
X99179691Y-72646464D01*
X99071464Y-72754691D01*
X98986431Y-72881952D01*
X98927859Y-73023357D01*
X98898000Y-73173472D01*
X89349122Y-73173472D01*
X89343297Y-73144189D01*
X89277187Y-72984585D01*
X89181210Y-72840945D01*
X89059055Y-72718790D01*
X88915415Y-72622813D01*
X88755811Y-72556703D01*
X88586377Y-72523000D01*
X88413623Y-72523000D01*
X88244189Y-72556703D01*
X88084585Y-72622813D01*
X87940945Y-72718790D01*
X87818790Y-72840945D01*
X87722813Y-72984585D01*
X87656703Y-73144189D01*
X87623000Y-73313623D01*
X81871329Y-73313623D01*
X81868048Y-73311431D01*
X81726643Y-73252859D01*
X81576528Y-73223000D01*
X81423472Y-73223000D01*
X81273357Y-73252859D01*
X81131952Y-73311431D01*
X81004691Y-73396464D01*
X80896464Y-73504691D01*
X80811431Y-73631952D01*
X80752859Y-73773357D01*
X80723000Y-73923472D01*
X80723000Y-74067065D01*
X79992066Y-74798000D01*
X78596845Y-74798000D01*
X78495309Y-74696464D01*
X78368048Y-74611431D01*
X78226643Y-74552859D01*
X78076528Y-74523000D01*
X77923472Y-74523000D01*
X77773357Y-74552859D01*
X77631952Y-74611431D01*
X77504691Y-74696464D01*
X77396464Y-74804691D01*
X77311431Y-74931952D01*
X77252859Y-75073357D01*
X77223000Y-75223472D01*
X69477000Y-75223472D01*
X69477000Y-74777008D01*
X69462863Y-74633476D01*
X69406997Y-74449309D01*
X69316276Y-74279582D01*
X69194186Y-74130814D01*
X69045418Y-74008724D01*
X68875691Y-73918003D01*
X68691525Y-73862137D01*
X68500000Y-73843273D01*
X68308476Y-73862137D01*
X68124310Y-73918003D01*
X67954583Y-74008724D01*
X67805815Y-74130814D01*
X67683725Y-74279582D01*
X67593003Y-74449309D01*
X67537137Y-74633475D01*
X67523000Y-74777007D01*
X67477000Y-74777007D01*
X67462863Y-74633476D01*
X67406997Y-74449309D01*
X67316276Y-74279582D01*
X67194186Y-74130814D01*
X67045418Y-74008724D01*
X66875691Y-73918003D01*
X66691525Y-73862137D01*
X66500000Y-73843273D01*
X66308476Y-73862137D01*
X66124310Y-73918003D01*
X65954583Y-74008724D01*
X65805815Y-74130814D01*
X65683725Y-74279582D01*
X65593003Y-74449309D01*
X65537137Y-74633475D01*
X65523000Y-74777007D01*
X65477000Y-74777007D01*
X65462863Y-74633476D01*
X65406997Y-74449309D01*
X65316276Y-74279582D01*
X65194186Y-74130814D01*
X65045418Y-74008724D01*
X64875691Y-73918003D01*
X64691525Y-73862137D01*
X64500000Y-73843273D01*
X64308476Y-73862137D01*
X64124310Y-73918003D01*
X63954583Y-74008724D01*
X63805815Y-74130814D01*
X63683725Y-74279582D01*
X63593003Y-74449309D01*
X63537137Y-74633475D01*
X63523000Y-74777007D01*
X63477000Y-74777007D01*
X63462863Y-74633476D01*
X63406997Y-74449309D01*
X63316276Y-74279582D01*
X63194186Y-74130814D01*
X63045418Y-74008724D01*
X62875691Y-73918003D01*
X62691525Y-73862137D01*
X62500000Y-73843273D01*
X62308476Y-73862137D01*
X62124310Y-73918003D01*
X62017000Y-73975361D01*
X62017000Y-73211506D01*
X62054970Y-73199988D01*
X62120463Y-73164981D01*
X62177869Y-73117869D01*
X62224981Y-73060463D01*
X62259988Y-72994970D01*
X62281545Y-72923905D01*
X62288824Y-72850000D01*
X62288824Y-70450000D01*
X62281545Y-70376095D01*
X62259988Y-70305030D01*
X62224981Y-70239537D01*
X62177869Y-70182131D01*
X62120463Y-70135019D01*
X62054970Y-70100012D01*
X61983905Y-70078455D01*
X61910000Y-70071176D01*
X61170000Y-70071176D01*
X61096095Y-70078455D01*
X61025030Y-70100012D01*
X60959537Y-70135019D01*
X60905000Y-70179776D01*
X60850463Y-70135019D01*
X60784970Y-70100012D01*
X60713905Y-70078455D01*
X60640000Y-70071176D01*
X59900000Y-70071176D01*
X59826095Y-70078455D01*
X59755030Y-70100012D01*
X59689537Y-70135019D01*
X59635000Y-70179776D01*
X59580463Y-70135019D01*
X59514970Y-70100012D01*
X59443905Y-70078455D01*
X59370000Y-70071176D01*
X58630000Y-70071176D01*
X58556095Y-70078455D01*
X58485030Y-70100012D01*
X58419537Y-70135019D01*
X58365000Y-70179776D01*
X58310463Y-70135019D01*
X58244970Y-70100012D01*
X58173905Y-70078455D01*
X58100000Y-70071176D01*
X57360000Y-70071176D01*
X57286095Y-70078455D01*
X57215030Y-70100012D01*
X57149537Y-70135019D01*
X57095000Y-70179776D01*
X57040463Y-70135019D01*
X56974970Y-70100012D01*
X56903905Y-70078455D01*
X56830000Y-70071176D01*
X56090000Y-70071176D01*
X56016095Y-70078455D01*
X55945030Y-70100012D01*
X55879537Y-70135019D01*
X55822131Y-70182131D01*
X55775019Y-70239537D01*
X55740012Y-70305030D01*
X55718455Y-70376095D01*
X55711176Y-70450000D01*
X55711176Y-72850000D01*
X55718455Y-72923905D01*
X55740012Y-72994970D01*
X55775019Y-73060463D01*
X55822131Y-73117869D01*
X55879537Y-73164981D01*
X55945030Y-73199988D01*
X56016095Y-73221545D01*
X56090000Y-73228824D01*
X56830000Y-73228824D01*
X56903905Y-73221545D01*
X56974970Y-73199988D01*
X57040463Y-73164981D01*
X57095000Y-73120224D01*
X57149537Y-73164981D01*
X57215030Y-73199988D01*
X57286095Y-73221545D01*
X57360000Y-73228824D01*
X58100000Y-73228824D01*
X58173905Y-73221545D01*
X58244970Y-73199988D01*
X58310463Y-73164981D01*
X58365000Y-73120224D01*
X58419537Y-73164981D01*
X58485030Y-73199988D01*
X58556095Y-73221545D01*
X58630000Y-73228824D01*
X59370000Y-73228824D01*
X59443905Y-73221545D01*
X59514970Y-73199988D01*
X59580463Y-73164981D01*
X59635000Y-73120224D01*
X59689537Y-73164981D01*
X59755030Y-73199988D01*
X59826095Y-73221545D01*
X59900000Y-73228824D01*
X60640000Y-73228824D01*
X60713905Y-73221545D01*
X60784970Y-73199988D01*
X60850463Y-73164981D01*
X60905000Y-73120224D01*
X60959537Y-73164981D01*
X61025030Y-73199988D01*
X61063001Y-73211506D01*
X61063001Y-74023154D01*
X61045418Y-74008724D01*
X60875691Y-73918003D01*
X60691525Y-73862137D01*
X60500000Y-73843273D01*
X60308476Y-73862137D01*
X60124310Y-73918003D01*
X59954583Y-74008724D01*
X59805815Y-74130814D01*
X59683725Y-74279582D01*
X59593003Y-74449309D01*
X59537137Y-74633475D01*
X59523000Y-74777007D01*
X59523000Y-75422992D01*
X59537137Y-75566524D01*
X59593003Y-75750690D01*
X59683724Y-75920418D01*
X59805814Y-76069186D01*
X59954582Y-76191276D01*
X60124309Y-76281997D01*
X60223000Y-76311935D01*
X60223001Y-77147990D01*
X54977000Y-77147990D01*
X54977000Y-76227846D01*
X55045418Y-76191276D01*
X55194186Y-76069186D01*
X55316276Y-75920418D01*
X55406997Y-75750691D01*
X55462863Y-75566525D01*
X55477000Y-75422993D01*
X55477000Y-74777008D01*
X55462863Y-74633476D01*
X55414790Y-74474999D01*
X55521176Y-74474999D01*
X55521176Y-75725001D01*
X55533259Y-75847678D01*
X55569042Y-75965641D01*
X55627152Y-76074356D01*
X55705354Y-76169646D01*
X55800644Y-76247848D01*
X55909359Y-76305958D01*
X56027322Y-76341741D01*
X56149999Y-76353824D01*
X56850001Y-76353824D01*
X56972678Y-76341741D01*
X57090641Y-76305958D01*
X57199356Y-76247848D01*
X57294646Y-76169646D01*
X57372848Y-76074356D01*
X57430958Y-75965641D01*
X57466741Y-75847678D01*
X57478824Y-75725001D01*
X57478824Y-74474999D01*
X57466741Y-74352322D01*
X57430958Y-74234359D01*
X57372848Y-74125644D01*
X57294646Y-74030354D01*
X57199356Y-73952152D01*
X57090641Y-73894042D01*
X56972678Y-73858259D01*
X56850001Y-73846176D01*
X56149999Y-73846176D01*
X56027322Y-73858259D01*
X55909359Y-73894042D01*
X55800644Y-73952152D01*
X55705354Y-74030354D01*
X55627152Y-74125644D01*
X55569042Y-74234359D01*
X55533259Y-74352322D01*
X55521176Y-74474999D01*
X55414790Y-74474999D01*
X55406997Y-74449309D01*
X55316276Y-74279582D01*
X55194186Y-74130814D01*
X55045418Y-74008724D01*
X54875691Y-73918003D01*
X54691525Y-73862137D01*
X54500000Y-73843273D01*
X54308476Y-73862137D01*
X54124310Y-73918003D01*
X53954583Y-74008724D01*
X53805815Y-74130814D01*
X53683725Y-74279582D01*
X53593003Y-74449309D01*
X53537137Y-74633475D01*
X53523000Y-74777007D01*
X53523000Y-75422992D01*
X53537137Y-75566524D01*
X53593003Y-75750690D01*
X53683724Y-75920418D01*
X53805814Y-76069186D01*
X53954582Y-76191276D01*
X54023000Y-76227846D01*
X54023001Y-77147990D01*
X46257925Y-77147990D01*
X45977000Y-76867066D01*
X45977000Y-76723472D01*
X45947141Y-76573357D01*
X45888569Y-76431952D01*
X45803536Y-76304691D01*
X45695309Y-76196464D01*
X45568048Y-76111431D01*
X45426643Y-76052859D01*
X45276528Y-76023000D01*
X45123472Y-76023000D01*
X44973357Y-76052859D01*
X44831952Y-76111431D01*
X44704691Y-76196464D01*
X44596464Y-76304691D01*
X44511431Y-76431952D01*
X44452859Y-76573357D01*
X44423000Y-76723472D01*
X44423000Y-76876528D01*
X44452859Y-77026643D01*
X44511431Y-77168048D01*
X44596464Y-77295309D01*
X44704691Y-77403536D01*
X44831952Y-77488569D01*
X44973357Y-77547141D01*
X45123472Y-77577000D01*
X45267066Y-77577000D01*
X45288065Y-77598000D01*
X40402000Y-77598000D01*
X40402000Y-71011835D01*
X48673000Y-71011835D01*
X48673000Y-71588166D01*
X48684243Y-71702319D01*
X48728673Y-71848784D01*
X48800823Y-71983766D01*
X48897921Y-72102080D01*
X49016235Y-72199177D01*
X49151217Y-72271327D01*
X49297682Y-72315757D01*
X49450000Y-72330759D01*
X49602319Y-72315757D01*
X49748784Y-72271327D01*
X49883766Y-72199177D01*
X50002080Y-72102080D01*
X50075000Y-72013226D01*
X50147921Y-72102080D01*
X50266235Y-72199177D01*
X50401217Y-72271327D01*
X50547682Y-72315757D01*
X50700000Y-72330759D01*
X50852319Y-72315757D01*
X50998784Y-72271327D01*
X51133766Y-72199177D01*
X51252080Y-72102080D01*
X51325000Y-72013226D01*
X51397921Y-72102080D01*
X51516235Y-72199177D01*
X51651217Y-72271327D01*
X51797682Y-72315757D01*
X51950000Y-72330759D01*
X52102319Y-72315757D01*
X52248784Y-72271327D01*
X52383766Y-72199177D01*
X52502080Y-72102080D01*
X52599177Y-71983766D01*
X52671327Y-71848784D01*
X52715757Y-71702319D01*
X52727000Y-71588166D01*
X52727000Y-71011834D01*
X52715757Y-70897681D01*
X52671327Y-70751216D01*
X52599177Y-70616234D01*
X52502080Y-70497920D01*
X52383765Y-70400823D01*
X52248783Y-70328673D01*
X52102318Y-70284243D01*
X51950000Y-70269241D01*
X51797681Y-70284243D01*
X51651216Y-70328673D01*
X51516234Y-70400823D01*
X51397920Y-70497920D01*
X51325000Y-70586774D01*
X51252080Y-70497920D01*
X51133765Y-70400823D01*
X50998783Y-70328673D01*
X50852318Y-70284243D01*
X50700000Y-70269241D01*
X50547681Y-70284243D01*
X50401216Y-70328673D01*
X50266234Y-70400823D01*
X50147920Y-70497920D01*
X50075000Y-70586774D01*
X50002080Y-70497920D01*
X49883765Y-70400823D01*
X49748783Y-70328673D01*
X49602318Y-70284243D01*
X49450000Y-70269241D01*
X49297681Y-70284243D01*
X49151216Y-70328673D01*
X49016234Y-70400823D01*
X48897920Y-70497920D01*
X48800823Y-70616235D01*
X48728673Y-70751217D01*
X48684243Y-70897682D01*
X48673000Y-71011835D01*
X40402000Y-71011835D01*
X40402000Y-67448472D01*
X55683000Y-67448472D01*
X55683000Y-67601528D01*
X55711176Y-67743182D01*
X55711176Y-68950000D01*
X55718455Y-69023905D01*
X55740012Y-69094970D01*
X55775019Y-69160463D01*
X55822131Y-69217869D01*
X55879537Y-69264981D01*
X55945030Y-69299988D01*
X56016095Y-69321545D01*
X56090000Y-69328824D01*
X56830000Y-69328824D01*
X56903905Y-69321545D01*
X56974970Y-69299988D01*
X57040463Y-69264981D01*
X57097869Y-69217869D01*
X57144981Y-69160463D01*
X57179988Y-69094970D01*
X57201545Y-69023905D01*
X57208824Y-68950000D01*
X57208824Y-67743182D01*
X57237000Y-67601528D01*
X57237000Y-67448472D01*
X57208824Y-67306818D01*
X57208824Y-66550000D01*
X59521176Y-66550000D01*
X59521176Y-68950000D01*
X59528455Y-69023905D01*
X59550012Y-69094970D01*
X59585019Y-69160463D01*
X59632131Y-69217869D01*
X59689537Y-69264981D01*
X59755030Y-69299988D01*
X59826095Y-69321545D01*
X59900000Y-69328824D01*
X60640000Y-69328824D01*
X60713905Y-69321545D01*
X60784970Y-69299988D01*
X60850463Y-69264981D01*
X60894136Y-69229139D01*
X62089994Y-69229139D01*
X62089994Y-69382195D01*
X62119853Y-69532310D01*
X62178425Y-69673715D01*
X62263458Y-69800976D01*
X62371685Y-69909203D01*
X62498946Y-69994236D01*
X62640351Y-70052808D01*
X62790466Y-70082667D01*
X62943522Y-70082667D01*
X62965119Y-70078371D01*
X63277551Y-70390804D01*
X63292481Y-70408996D01*
X63365113Y-70468604D01*
X63447979Y-70512897D01*
X63537894Y-70540172D01*
X63607979Y-70547075D01*
X63607986Y-70547075D01*
X63631401Y-70549381D01*
X63654816Y-70547075D01*
X64004814Y-70547075D01*
X64017048Y-70565384D01*
X64125275Y-70673611D01*
X64252536Y-70758644D01*
X64393941Y-70817216D01*
X64544056Y-70847075D01*
X64697112Y-70847075D01*
X64847227Y-70817216D01*
X64988632Y-70758644D01*
X65115893Y-70673611D01*
X65224120Y-70565384D01*
X65309153Y-70438123D01*
X65346255Y-70348551D01*
X71823000Y-70348551D01*
X71823000Y-70501607D01*
X71852859Y-70651722D01*
X71911431Y-70793127D01*
X71996464Y-70920388D01*
X72104691Y-71028615D01*
X72231952Y-71113648D01*
X72373357Y-71172220D01*
X72523472Y-71202079D01*
X72676528Y-71202079D01*
X72698125Y-71197783D01*
X74234221Y-72733880D01*
X74249151Y-72752072D01*
X74321783Y-72811680D01*
X74404649Y-72855973D01*
X74467288Y-72874974D01*
X74494563Y-72883248D01*
X74503410Y-72884119D01*
X74564649Y-72890151D01*
X74564656Y-72890151D01*
X74588071Y-72892457D01*
X74611486Y-72890151D01*
X75496426Y-72890151D01*
X75508660Y-72908460D01*
X75616887Y-73016687D01*
X75744148Y-73101720D01*
X75885553Y-73160292D01*
X76035668Y-73190151D01*
X76188724Y-73190151D01*
X76338839Y-73160292D01*
X76480244Y-73101720D01*
X76607505Y-73016687D01*
X76715732Y-72908460D01*
X76800765Y-72781199D01*
X76859337Y-72639794D01*
X76889196Y-72489679D01*
X76889196Y-72336623D01*
X76859337Y-72186508D01*
X76800765Y-72045103D01*
X76715732Y-71917842D01*
X76607505Y-71809615D01*
X76480244Y-71724582D01*
X76338839Y-71666010D01*
X76188724Y-71636151D01*
X76035668Y-71636151D01*
X75885553Y-71666010D01*
X75744148Y-71724582D01*
X75616887Y-71809615D01*
X75508660Y-71917842D01*
X75496426Y-71936151D01*
X74785652Y-71936151D01*
X73372704Y-70523204D01*
X73377000Y-70501607D01*
X73377000Y-70423472D01*
X78973000Y-70423472D01*
X78973000Y-70576528D01*
X79002859Y-70726643D01*
X79061431Y-70868048D01*
X79146464Y-70995309D01*
X79254691Y-71103536D01*
X79381952Y-71188569D01*
X79523357Y-71247141D01*
X79673472Y-71277000D01*
X79826528Y-71277000D01*
X79976643Y-71247141D01*
X80118048Y-71188569D01*
X80245309Y-71103536D01*
X80353536Y-70995309D01*
X80401535Y-70923472D01*
X81223000Y-70923472D01*
X81223000Y-71076528D01*
X81252859Y-71226643D01*
X81311431Y-71368048D01*
X81396464Y-71495309D01*
X81504691Y-71603536D01*
X81631952Y-71688569D01*
X81773357Y-71747141D01*
X81923472Y-71777000D01*
X82067065Y-71777000D01*
X83039318Y-72749254D01*
X83055027Y-72768395D01*
X83074167Y-72784103D01*
X83074175Y-72784111D01*
X83116592Y-72818921D01*
X83131466Y-72831128D01*
X83218675Y-72877742D01*
X83313302Y-72906447D01*
X83387058Y-72913711D01*
X83387068Y-72913711D01*
X83411711Y-72916138D01*
X83436354Y-72913711D01*
X84355831Y-72913711D01*
X84457367Y-73015247D01*
X84584628Y-73100280D01*
X84726033Y-73158852D01*
X84876148Y-73188711D01*
X85029204Y-73188711D01*
X85179319Y-73158852D01*
X85320724Y-73100280D01*
X85447985Y-73015247D01*
X85556212Y-72907020D01*
X85641245Y-72779759D01*
X85699817Y-72638354D01*
X85729676Y-72488239D01*
X85729676Y-72335183D01*
X85699817Y-72185068D01*
X85641245Y-72043663D01*
X85556212Y-71916402D01*
X85534451Y-71894641D01*
X85610914Y-71780207D01*
X85669486Y-71638802D01*
X85699345Y-71488687D01*
X85699345Y-71335631D01*
X85669486Y-71185516D01*
X85610914Y-71044111D01*
X85525881Y-70916850D01*
X85417654Y-70808623D01*
X85290393Y-70723590D01*
X85148988Y-70665018D01*
X84998873Y-70635159D01*
X84845817Y-70635159D01*
X84695702Y-70665018D01*
X84554297Y-70723590D01*
X84427036Y-70808623D01*
X84325500Y-70910159D01*
X84320094Y-70910159D01*
X83359935Y-69950000D01*
X91169241Y-69950000D01*
X91184243Y-70102319D01*
X91228673Y-70248784D01*
X91300823Y-70383766D01*
X91397920Y-70502080D01*
X91423313Y-70522919D01*
X91340710Y-70590710D01*
X91268725Y-70678423D01*
X91215236Y-70778494D01*
X91182298Y-70887077D01*
X91171176Y-71000000D01*
X91171176Y-71400000D01*
X91182298Y-71512923D01*
X91215236Y-71621506D01*
X91268725Y-71721577D01*
X91340710Y-71809290D01*
X91428423Y-71881275D01*
X91528494Y-71934764D01*
X91637077Y-71967702D01*
X91750000Y-71978824D01*
X92650000Y-71978824D01*
X92762923Y-71967702D01*
X92871506Y-71934764D01*
X92971577Y-71881275D01*
X93059290Y-71809290D01*
X93131275Y-71721577D01*
X93184764Y-71621506D01*
X93217702Y-71512923D01*
X93228824Y-71400000D01*
X93228824Y-71000000D01*
X93217702Y-70887077D01*
X93184764Y-70778494D01*
X93131275Y-70678423D01*
X93059290Y-70590710D01*
X92976687Y-70522919D01*
X93002080Y-70502080D01*
X93099177Y-70383766D01*
X93171327Y-70248784D01*
X93209340Y-70123472D01*
X95423000Y-70123472D01*
X95423000Y-70276528D01*
X95452859Y-70426643D01*
X95511431Y-70568048D01*
X95596464Y-70695309D01*
X95704691Y-70803536D01*
X95831952Y-70888569D01*
X95973357Y-70947141D01*
X96082050Y-70968761D01*
X96340368Y-71227079D01*
X96340367Y-71907174D01*
X96278798Y-71999319D01*
X96220226Y-72140724D01*
X96190367Y-72290839D01*
X96190367Y-72443895D01*
X96220226Y-72594010D01*
X96278798Y-72735415D01*
X96363831Y-72862676D01*
X96472058Y-72970903D01*
X96599319Y-73055936D01*
X96740724Y-73114508D01*
X96890839Y-73144367D01*
X97043895Y-73144367D01*
X97194010Y-73114508D01*
X97335415Y-73055936D01*
X97462676Y-72970903D01*
X97570903Y-72862676D01*
X97655936Y-72735415D01*
X97714508Y-72594010D01*
X97744367Y-72443895D01*
X97744367Y-72290839D01*
X97714508Y-72140724D01*
X97655936Y-71999319D01*
X97594367Y-71907174D01*
X97594367Y-71323472D01*
X108823000Y-71323472D01*
X108823000Y-71476528D01*
X108852859Y-71626643D01*
X108911431Y-71768048D01*
X108996464Y-71895309D01*
X109104691Y-72003536D01*
X109231952Y-72088569D01*
X109373357Y-72147141D01*
X109523472Y-72177000D01*
X109676528Y-72177000D01*
X109826643Y-72147141D01*
X109968048Y-72088569D01*
X110060193Y-72027000D01*
X111073001Y-72027000D01*
X111073000Y-73039807D01*
X111011431Y-73131952D01*
X110952859Y-73273357D01*
X110923000Y-73423472D01*
X110923000Y-73576528D01*
X110952859Y-73726643D01*
X111011431Y-73868048D01*
X111096464Y-73995309D01*
X111204691Y-74103536D01*
X111331952Y-74188569D01*
X111473357Y-74247141D01*
X111623472Y-74277000D01*
X111776528Y-74277000D01*
X111926643Y-74247141D01*
X112068048Y-74188569D01*
X112195309Y-74103536D01*
X112303536Y-73995309D01*
X112388569Y-73868048D01*
X112447141Y-73726643D01*
X112477000Y-73576528D01*
X112477000Y-73423472D01*
X112447141Y-73273357D01*
X112388569Y-73131952D01*
X112327000Y-73039807D01*
X112327000Y-71971845D01*
X112403536Y-71895309D01*
X112488569Y-71768048D01*
X112547141Y-71626643D01*
X112577000Y-71476528D01*
X112577000Y-71323472D01*
X112547141Y-71173357D01*
X112488569Y-71031952D01*
X112403536Y-70904691D01*
X112295309Y-70796464D01*
X112168048Y-70711431D01*
X112026643Y-70652859D01*
X111876528Y-70623000D01*
X111723472Y-70623000D01*
X111573357Y-70652859D01*
X111431952Y-70711431D01*
X111339807Y-70773000D01*
X110060193Y-70773000D01*
X109968048Y-70711431D01*
X109826643Y-70652859D01*
X109676528Y-70623000D01*
X109523472Y-70623000D01*
X109373357Y-70652859D01*
X109231952Y-70711431D01*
X109104691Y-70796464D01*
X108996464Y-70904691D01*
X108911431Y-71031952D01*
X108852859Y-71173357D01*
X108823000Y-71323472D01*
X97594367Y-71323472D01*
X97594367Y-70998161D01*
X97597400Y-70967367D01*
X97585294Y-70844454D01*
X97577247Y-70817926D01*
X97549442Y-70726264D01*
X97491220Y-70617339D01*
X97412868Y-70521866D01*
X97388940Y-70502229D01*
X96968761Y-70082050D01*
X96947141Y-69973357D01*
X96888569Y-69831952D01*
X96803536Y-69704691D01*
X96695309Y-69596464D01*
X96568048Y-69511431D01*
X96426643Y-69452859D01*
X96276528Y-69423000D01*
X96123472Y-69423000D01*
X95973357Y-69452859D01*
X95831952Y-69511431D01*
X95704691Y-69596464D01*
X95596464Y-69704691D01*
X95511431Y-69831952D01*
X95452859Y-69973357D01*
X95423000Y-70123472D01*
X93209340Y-70123472D01*
X93215757Y-70102319D01*
X93230759Y-69950000D01*
X93215757Y-69797681D01*
X93171327Y-69651216D01*
X93099177Y-69516234D01*
X93002080Y-69397920D01*
X92883766Y-69300823D01*
X92748784Y-69228673D01*
X92602319Y-69184243D01*
X92488166Y-69173000D01*
X91911834Y-69173000D01*
X91797681Y-69184243D01*
X91651216Y-69228673D01*
X91516234Y-69300823D01*
X91397920Y-69397920D01*
X91300823Y-69516234D01*
X91228673Y-69651216D01*
X91184243Y-69797681D01*
X91169241Y-69950000D01*
X83359935Y-69950000D01*
X83302000Y-69892066D01*
X83302000Y-68798476D01*
X83331974Y-68798476D01*
X83331974Y-68951532D01*
X83361833Y-69101647D01*
X83420405Y-69243052D01*
X83505438Y-69370313D01*
X83613665Y-69478540D01*
X83740926Y-69563573D01*
X83882331Y-69622145D01*
X84032446Y-69652004D01*
X84185502Y-69652004D01*
X84335617Y-69622145D01*
X84477022Y-69563573D01*
X84604283Y-69478540D01*
X84712510Y-69370313D01*
X84797543Y-69243052D01*
X84856115Y-69101647D01*
X84885974Y-68951532D01*
X84885974Y-68807938D01*
X85945887Y-67748026D01*
X86013983Y-67734481D01*
X86155388Y-67675909D01*
X86282649Y-67590876D01*
X86390876Y-67482649D01*
X86475909Y-67355388D01*
X86534481Y-67213983D01*
X86564340Y-67063868D01*
X86564340Y-66910812D01*
X86534481Y-66760697D01*
X86475909Y-66619292D01*
X86390876Y-66492031D01*
X86282649Y-66383804D01*
X86155388Y-66298771D01*
X86013983Y-66240199D01*
X85863868Y-66210340D01*
X85710812Y-66210340D01*
X85560697Y-66240199D01*
X85419292Y-66298771D01*
X85292031Y-66383804D01*
X85183804Y-66492031D01*
X85098771Y-66619292D01*
X85040199Y-66760697D01*
X85010340Y-66910812D01*
X85010340Y-67063868D01*
X85040199Y-67213983D01*
X85046016Y-67228027D01*
X84176040Y-68098004D01*
X84032446Y-68098004D01*
X83882331Y-68127863D01*
X83740926Y-68186435D01*
X83613665Y-68271468D01*
X83505438Y-68379695D01*
X83420405Y-68506956D01*
X83361833Y-68648361D01*
X83331974Y-68798476D01*
X83302000Y-68798476D01*
X83302000Y-65923435D01*
X95830625Y-65923435D01*
X95830625Y-66076491D01*
X95860484Y-66226606D01*
X95919056Y-66368011D01*
X96004089Y-66495272D01*
X96105625Y-66596808D01*
X96105626Y-67482986D01*
X96103198Y-67507639D01*
X96112890Y-67606048D01*
X96141595Y-67700675D01*
X96188209Y-67787884D01*
X96223000Y-67830277D01*
X96223000Y-67976542D01*
X96252859Y-68126657D01*
X96311431Y-68268062D01*
X96396464Y-68395323D01*
X96504691Y-68503550D01*
X96631952Y-68588583D01*
X96773357Y-68647155D01*
X96923472Y-68677014D01*
X97076528Y-68677014D01*
X97226643Y-68647155D01*
X97368048Y-68588583D01*
X97422927Y-68551914D01*
X97497158Y-68626145D01*
X97624419Y-68711178D01*
X97765824Y-68769750D01*
X97915939Y-68799609D01*
X98068995Y-68799609D01*
X98219110Y-68769750D01*
X98360515Y-68711178D01*
X98487776Y-68626145D01*
X98596003Y-68517918D01*
X98681036Y-68390657D01*
X98739608Y-68249252D01*
X98769467Y-68099137D01*
X98769467Y-67946081D01*
X98739608Y-67795966D01*
X98681036Y-67654561D01*
X98596003Y-67527300D01*
X98494467Y-67425764D01*
X98494467Y-66110434D01*
X98529891Y-66075010D01*
X98614924Y-65947749D01*
X98673496Y-65806344D01*
X98689979Y-65723476D01*
X109223000Y-65723476D01*
X109223000Y-65876532D01*
X109252859Y-66026647D01*
X109311431Y-66168052D01*
X109373001Y-66260198D01*
X109373000Y-68139851D01*
X109311431Y-68231996D01*
X109252859Y-68373401D01*
X109223000Y-68523516D01*
X109223000Y-68676572D01*
X109252859Y-68826687D01*
X109311431Y-68968092D01*
X109396464Y-69095353D01*
X109504691Y-69203580D01*
X109631952Y-69288613D01*
X109773357Y-69347185D01*
X109923472Y-69377044D01*
X110076528Y-69377044D01*
X110226643Y-69347185D01*
X110368048Y-69288613D01*
X110495309Y-69203580D01*
X110603536Y-69095353D01*
X110688569Y-68968092D01*
X110747141Y-68826687D01*
X110777000Y-68676572D01*
X110777000Y-68523516D01*
X110747141Y-68373401D01*
X110688569Y-68231996D01*
X110627000Y-68139851D01*
X110627000Y-66260197D01*
X110688569Y-66168052D01*
X110747141Y-66026647D01*
X110777000Y-65876532D01*
X110777000Y-65723476D01*
X110747141Y-65573361D01*
X110688569Y-65431956D01*
X110603536Y-65304695D01*
X110495309Y-65196468D01*
X110368048Y-65111435D01*
X110226643Y-65052863D01*
X110076528Y-65023004D01*
X109923472Y-65023004D01*
X109773357Y-65052863D01*
X109631952Y-65111435D01*
X109504691Y-65196468D01*
X109396464Y-65304695D01*
X109311431Y-65431956D01*
X109252859Y-65573361D01*
X109223000Y-65723476D01*
X98689979Y-65723476D01*
X98703355Y-65656229D01*
X98703355Y-65503173D01*
X98673496Y-65353058D01*
X98614924Y-65211653D01*
X98529891Y-65084392D01*
X98421664Y-64976165D01*
X98294403Y-64891132D01*
X98152998Y-64832560D01*
X98002883Y-64802701D01*
X97849827Y-64802701D01*
X97699712Y-64832560D01*
X97558307Y-64891132D01*
X97431046Y-64976165D01*
X97322819Y-65084392D01*
X97237786Y-65211653D01*
X97179214Y-65353058D01*
X97159363Y-65452856D01*
X97102934Y-65396427D01*
X96975673Y-65311394D01*
X96834268Y-65252822D01*
X96684153Y-65222963D01*
X96531097Y-65222963D01*
X96380982Y-65252822D01*
X96239577Y-65311394D01*
X96112316Y-65396427D01*
X96004089Y-65504654D01*
X95919056Y-65631915D01*
X95860484Y-65773320D01*
X95830625Y-65923435D01*
X83302000Y-65923435D01*
X83302000Y-65574827D01*
X83353680Y-65553420D01*
X83480941Y-65468387D01*
X83589168Y-65360160D01*
X83674201Y-65232899D01*
X83732773Y-65091494D01*
X83762632Y-64941379D01*
X83762632Y-64788323D01*
X83732773Y-64638208D01*
X83674201Y-64496803D01*
X83589168Y-64369542D01*
X83480941Y-64261315D01*
X83353680Y-64176282D01*
X83212275Y-64117710D01*
X83062160Y-64087851D01*
X82909104Y-64087851D01*
X82758989Y-64117710D01*
X82617584Y-64176282D01*
X82490323Y-64261315D01*
X82382096Y-64369542D01*
X82297063Y-64496803D01*
X82238491Y-64638208D01*
X82208632Y-64788323D01*
X82208632Y-64941379D01*
X82238491Y-65091494D01*
X82297063Y-65232899D01*
X82298001Y-65234303D01*
X82298000Y-70075357D01*
X82295573Y-70100000D01*
X82298000Y-70124643D01*
X82298000Y-70124652D01*
X82305264Y-70198408D01*
X82333969Y-70293035D01*
X82336907Y-70298532D01*
X82226643Y-70252859D01*
X82076528Y-70223000D01*
X81923472Y-70223000D01*
X81773357Y-70252859D01*
X81631952Y-70311431D01*
X81504691Y-70396464D01*
X81396464Y-70504691D01*
X81311431Y-70631952D01*
X81252859Y-70773357D01*
X81223000Y-70923472D01*
X80401535Y-70923472D01*
X80438569Y-70868048D01*
X80497141Y-70726643D01*
X80527000Y-70576528D01*
X80527000Y-70432934D01*
X80806251Y-70153684D01*
X80923472Y-70177000D01*
X81076528Y-70177000D01*
X81226643Y-70147141D01*
X81368048Y-70088569D01*
X81495309Y-70003536D01*
X81603536Y-69895309D01*
X81688569Y-69768048D01*
X81747141Y-69626643D01*
X81777000Y-69476528D01*
X81777000Y-69323472D01*
X81747141Y-69173357D01*
X81688569Y-69031952D01*
X81603536Y-68904691D01*
X81495309Y-68796464D01*
X81368048Y-68711431D01*
X81226643Y-68652859D01*
X81076528Y-68623000D01*
X80923472Y-68623000D01*
X80773357Y-68652859D01*
X80631952Y-68711431D01*
X80504691Y-68796464D01*
X80396464Y-68904691D01*
X80311431Y-69031952D01*
X80252859Y-69173357D01*
X80224591Y-69315474D01*
X79817066Y-69723000D01*
X79673472Y-69723000D01*
X79523357Y-69752859D01*
X79381952Y-69811431D01*
X79254691Y-69896464D01*
X79146464Y-70004691D01*
X79061431Y-70131952D01*
X79002859Y-70273357D01*
X78973000Y-70423472D01*
X73377000Y-70423472D01*
X73377000Y-70348551D01*
X73347141Y-70198436D01*
X73288569Y-70057031D01*
X73203536Y-69929770D01*
X73095309Y-69821543D01*
X72968048Y-69736510D01*
X72826643Y-69677938D01*
X72676528Y-69648079D01*
X72523472Y-69648079D01*
X72373357Y-69677938D01*
X72231952Y-69736510D01*
X72104691Y-69821543D01*
X71996464Y-69929770D01*
X71911431Y-70057031D01*
X71852859Y-70198436D01*
X71823000Y-70348551D01*
X65346255Y-70348551D01*
X65367725Y-70296718D01*
X65397584Y-70146603D01*
X65397584Y-69993547D01*
X65367725Y-69843432D01*
X65309153Y-69702027D01*
X65224120Y-69574766D01*
X65115893Y-69466539D01*
X64988632Y-69381506D01*
X64847227Y-69322934D01*
X64697112Y-69293075D01*
X64544056Y-69293075D01*
X64393941Y-69322934D01*
X64252536Y-69381506D01*
X64125275Y-69466539D01*
X64017048Y-69574766D01*
X64004814Y-69593075D01*
X63828982Y-69593075D01*
X63639698Y-69403792D01*
X63643994Y-69382195D01*
X63643994Y-69229139D01*
X63614135Y-69079024D01*
X63555563Y-68937619D01*
X63470530Y-68810358D01*
X63362303Y-68702131D01*
X63235042Y-68617098D01*
X63093637Y-68558526D01*
X62943522Y-68528667D01*
X62790466Y-68528667D01*
X62640351Y-68558526D01*
X62498946Y-68617098D01*
X62371685Y-68702131D01*
X62263458Y-68810358D01*
X62178425Y-68937619D01*
X62119853Y-69079024D01*
X62089994Y-69229139D01*
X60894136Y-69229139D01*
X60907869Y-69217869D01*
X60954981Y-69160463D01*
X60989988Y-69094970D01*
X61011545Y-69023905D01*
X61018824Y-68950000D01*
X61018824Y-66550000D01*
X61011545Y-66476095D01*
X60989988Y-66405030D01*
X60954981Y-66339537D01*
X60907869Y-66282131D01*
X60850463Y-66235019D01*
X60784970Y-66200012D01*
X60713905Y-66178455D01*
X60640000Y-66171176D01*
X59900000Y-66171176D01*
X59826095Y-66178455D01*
X59755030Y-66200012D01*
X59689537Y-66235019D01*
X59632131Y-66282131D01*
X59585019Y-66339537D01*
X59550012Y-66405030D01*
X59528455Y-66476095D01*
X59521176Y-66550000D01*
X57208824Y-66550000D01*
X57201545Y-66476095D01*
X57179988Y-66405030D01*
X57144981Y-66339537D01*
X57097869Y-66282131D01*
X57040463Y-66235019D01*
X56974970Y-66200012D01*
X56903905Y-66178455D01*
X56830000Y-66171176D01*
X56090000Y-66171176D01*
X56016095Y-66178455D01*
X55945030Y-66200012D01*
X55879537Y-66235019D01*
X55822131Y-66282131D01*
X55775019Y-66339537D01*
X55740012Y-66405030D01*
X55718455Y-66476095D01*
X55711176Y-66550000D01*
X55711176Y-67306818D01*
X55683000Y-67448472D01*
X40402000Y-67448472D01*
X40402000Y-65127000D01*
X55000000Y-65127000D01*
X55024776Y-65124560D01*
X55048601Y-65117333D01*
X55070557Y-65105597D01*
X55089803Y-65089803D01*
X55105597Y-65070557D01*
X55117333Y-65048601D01*
X55124560Y-65024776D01*
X55127000Y-65000000D01*
X55127000Y-64627100D01*
X69230299Y-64627100D01*
X69230299Y-64780156D01*
X69260158Y-64930271D01*
X69318730Y-65071676D01*
X69403763Y-65198937D01*
X69511990Y-65307164D01*
X69639251Y-65392197D01*
X69780656Y-65450769D01*
X69930771Y-65480628D01*
X70083827Y-65480628D01*
X70134749Y-65470499D01*
X70777459Y-66113210D01*
X70777459Y-66256803D01*
X70807318Y-66406918D01*
X70865890Y-66548323D01*
X70950923Y-66675584D01*
X71059150Y-66783811D01*
X71186411Y-66868844D01*
X71327816Y-66927416D01*
X71477931Y-66957275D01*
X71630987Y-66957275D01*
X71781102Y-66927416D01*
X71922507Y-66868844D01*
X72049768Y-66783811D01*
X72157995Y-66675584D01*
X72243028Y-66548323D01*
X72301600Y-66406918D01*
X72331459Y-66256803D01*
X72331459Y-66223472D01*
X72623002Y-66223472D01*
X72623002Y-66376528D01*
X72652861Y-66526643D01*
X72711433Y-66668048D01*
X72796466Y-66795309D01*
X72904693Y-66903536D01*
X73031954Y-66988569D01*
X73173359Y-67047141D01*
X73323474Y-67077000D01*
X73467068Y-67077000D01*
X74202541Y-67812474D01*
X74218254Y-67831620D01*
X74294693Y-67894353D01*
X74381902Y-67940967D01*
X74476529Y-67969672D01*
X74550285Y-67976936D01*
X74550294Y-67976936D01*
X74574937Y-67979363D01*
X74599580Y-67976936D01*
X75203155Y-67976936D01*
X75304691Y-68078472D01*
X75431952Y-68163505D01*
X75573357Y-68222077D01*
X75723472Y-68251936D01*
X75876528Y-68251936D01*
X76026643Y-68222077D01*
X76168048Y-68163505D01*
X76295309Y-68078472D01*
X76403536Y-67970245D01*
X76488569Y-67842984D01*
X76547141Y-67701579D01*
X76577000Y-67551464D01*
X76577000Y-67398408D01*
X76547141Y-67248293D01*
X76488569Y-67106888D01*
X76403536Y-66979627D01*
X76295309Y-66871400D01*
X76168048Y-66786367D01*
X76026643Y-66727795D01*
X75876528Y-66697936D01*
X75723472Y-66697936D01*
X75573357Y-66727795D01*
X75431952Y-66786367D01*
X75304691Y-66871400D01*
X75203155Y-66972936D01*
X74782873Y-66972936D01*
X74177002Y-66367066D01*
X74177002Y-66223472D01*
X74147143Y-66073357D01*
X74088571Y-65931952D01*
X74003538Y-65804691D01*
X73895311Y-65696464D01*
X73768050Y-65611431D01*
X73626645Y-65552859D01*
X73476530Y-65523000D01*
X73323474Y-65523000D01*
X73173359Y-65552859D01*
X73031954Y-65611431D01*
X72904693Y-65696464D01*
X72796466Y-65804691D01*
X72711433Y-65931952D01*
X72652861Y-66073357D01*
X72623002Y-66223472D01*
X72331459Y-66223472D01*
X72331459Y-66103747D01*
X72301600Y-65953632D01*
X72243028Y-65812227D01*
X72157995Y-65684966D01*
X72049768Y-65576739D01*
X71922507Y-65491706D01*
X71781102Y-65433134D01*
X71630987Y-65403275D01*
X71487394Y-65403275D01*
X70784299Y-64700181D01*
X70784299Y-64627100D01*
X70754440Y-64476985D01*
X70695868Y-64335580D01*
X70610835Y-64208319D01*
X70502608Y-64100092D01*
X70375347Y-64015059D01*
X70233942Y-63956487D01*
X70083827Y-63926628D01*
X69930771Y-63926628D01*
X69780656Y-63956487D01*
X69639251Y-64015059D01*
X69511990Y-64100092D01*
X69403763Y-64208319D01*
X69318730Y-64335580D01*
X69260158Y-64476985D01*
X69230299Y-64627100D01*
X55127000Y-64627100D01*
X55127000Y-56423472D01*
X59923000Y-56423472D01*
X59923000Y-56576528D01*
X59952859Y-56726643D01*
X60011431Y-56868048D01*
X60096464Y-56995309D01*
X60204691Y-57103536D01*
X60331952Y-57188569D01*
X60473357Y-57247141D01*
X60623472Y-57277000D01*
X60776528Y-57277000D01*
X60926643Y-57247141D01*
X61068048Y-57188569D01*
X61195309Y-57103536D01*
X61303536Y-56995309D01*
X61336282Y-56946301D01*
X61336282Y-61000000D01*
X61348483Y-61123882D01*
X61384618Y-61243004D01*
X61443299Y-61352787D01*
X61522269Y-61449013D01*
X61618495Y-61527983D01*
X61728278Y-61586664D01*
X61847400Y-61622799D01*
X61971282Y-61635000D01*
X67234631Y-61635000D01*
X67252859Y-61726643D01*
X67311431Y-61868048D01*
X67396464Y-61995309D01*
X67504691Y-62103536D01*
X67631952Y-62188569D01*
X67773357Y-62247141D01*
X67923472Y-62277000D01*
X68076528Y-62277000D01*
X68226643Y-62247141D01*
X68368048Y-62188569D01*
X68495309Y-62103536D01*
X68596845Y-62002000D01*
X72675357Y-62002000D01*
X72700000Y-62004427D01*
X72724643Y-62002000D01*
X72724653Y-62002000D01*
X72798409Y-61994736D01*
X72893036Y-61966031D01*
X72980245Y-61919417D01*
X73056684Y-61856684D01*
X73072401Y-61837533D01*
X73637538Y-61272397D01*
X73656684Y-61256684D01*
X73681046Y-61227000D01*
X73719416Y-61180246D01*
X73719417Y-61180245D01*
X73766031Y-61093036D01*
X73794736Y-60998409D01*
X73802000Y-60924653D01*
X73802000Y-60924644D01*
X73804427Y-60900001D01*
X73802000Y-60875358D01*
X73802000Y-56293016D01*
X74471544Y-55623472D01*
X89423000Y-55623472D01*
X89423000Y-55776528D01*
X89452859Y-55926643D01*
X89511431Y-56068048D01*
X89596464Y-56195309D01*
X89704691Y-56303536D01*
X89831952Y-56388569D01*
X89973357Y-56447141D01*
X90123472Y-56477000D01*
X90276528Y-56477000D01*
X90336282Y-56465114D01*
X90336282Y-61000000D01*
X90348483Y-61123882D01*
X90384618Y-61243004D01*
X90443299Y-61352787D01*
X90522269Y-61449013D01*
X90618495Y-61527983D01*
X90728278Y-61586664D01*
X90847400Y-61622799D01*
X90971282Y-61635000D01*
X95176212Y-61635000D01*
X95111431Y-61731952D01*
X95052859Y-61873357D01*
X95023000Y-62023472D01*
X95023000Y-62176528D01*
X95052859Y-62326643D01*
X95111431Y-62468048D01*
X95196464Y-62595309D01*
X95304691Y-62703536D01*
X95431952Y-62788569D01*
X95573357Y-62847141D01*
X95723472Y-62877000D01*
X95876528Y-62877000D01*
X96026643Y-62847141D01*
X96168048Y-62788569D01*
X96295309Y-62703536D01*
X96397556Y-62601289D01*
X96464094Y-62594736D01*
X96558721Y-62566031D01*
X96645930Y-62519417D01*
X96722369Y-62456684D01*
X96738086Y-62437533D01*
X97273620Y-61902000D01*
X102175357Y-61902000D01*
X102200000Y-61904427D01*
X102224643Y-61902000D01*
X102224653Y-61902000D01*
X102298409Y-61894736D01*
X102393036Y-61866031D01*
X102480245Y-61819417D01*
X102556684Y-61756684D01*
X102572401Y-61737533D01*
X103037543Y-61272393D01*
X103056684Y-61256684D01*
X103072392Y-61237544D01*
X103072400Y-61237536D01*
X103119417Y-61180246D01*
X103147556Y-61127601D01*
X103166031Y-61093036D01*
X103194736Y-60998409D01*
X103202000Y-60924653D01*
X103202000Y-60924643D01*
X103204427Y-60900000D01*
X103202000Y-60875357D01*
X103202000Y-55823472D01*
X115123000Y-55823472D01*
X115123000Y-55976528D01*
X115152859Y-56126643D01*
X115211431Y-56268048D01*
X115296464Y-56395309D01*
X115404691Y-56503536D01*
X115531952Y-56588569D01*
X115673357Y-56647141D01*
X115823472Y-56677000D01*
X115976528Y-56677000D01*
X116126643Y-56647141D01*
X116268048Y-56588569D01*
X116395309Y-56503536D01*
X116503536Y-56395309D01*
X116588569Y-56268048D01*
X116647141Y-56126643D01*
X116677000Y-55976528D01*
X116677000Y-55832934D01*
X117365000Y-55144935D01*
X117365000Y-61000000D01*
X117377201Y-61123882D01*
X117413336Y-61243004D01*
X117472017Y-61352787D01*
X117550987Y-61449013D01*
X117647213Y-61527983D01*
X117756996Y-61586664D01*
X117876118Y-61622799D01*
X118000000Y-61635000D01*
X122040598Y-61635000D01*
X122023000Y-61723472D01*
X122023000Y-61876528D01*
X122052859Y-62026643D01*
X122111431Y-62168048D01*
X122196464Y-62295309D01*
X122304691Y-62403536D01*
X122431952Y-62488569D01*
X122573357Y-62547141D01*
X122723472Y-62577000D01*
X122876528Y-62577000D01*
X123026643Y-62547141D01*
X123168048Y-62488569D01*
X123295309Y-62403536D01*
X123397556Y-62301289D01*
X123464094Y-62294736D01*
X123558721Y-62266031D01*
X123645930Y-62219417D01*
X123722369Y-62156684D01*
X123738087Y-62137532D01*
X123873619Y-62002000D01*
X128975347Y-62002000D01*
X129000000Y-62004428D01*
X129024653Y-62002000D01*
X129098409Y-61994736D01*
X129193036Y-61966031D01*
X129280245Y-61919417D01*
X129356684Y-61856684D01*
X129419417Y-61780245D01*
X129466031Y-61693036D01*
X129494736Y-61598409D01*
X129504428Y-61500000D01*
X129502000Y-61475347D01*
X129502000Y-61384448D01*
X129527983Y-61352787D01*
X129586664Y-61243004D01*
X129622799Y-61123882D01*
X129635000Y-61000000D01*
X129635000Y-55096046D01*
X129753050Y-55047148D01*
X129880311Y-54962115D01*
X129988538Y-54853888D01*
X130073571Y-54726627D01*
X130132143Y-54585222D01*
X130162002Y-54435107D01*
X130162002Y-54282051D01*
X130132143Y-54131936D01*
X130073571Y-53990531D01*
X129988538Y-53863270D01*
X129880311Y-53755043D01*
X129753050Y-53670010D01*
X129635000Y-53621112D01*
X129635000Y-47000000D01*
X129622799Y-46876118D01*
X129586664Y-46756996D01*
X129527983Y-46647213D01*
X129449013Y-46550987D01*
X129352787Y-46472017D01*
X129243004Y-46413336D01*
X129123882Y-46377201D01*
X129000000Y-46365000D01*
X127948220Y-46365000D01*
X127868048Y-46311431D01*
X127726643Y-46252859D01*
X127576528Y-46223000D01*
X127423472Y-46223000D01*
X127273357Y-46252859D01*
X127131952Y-46311431D01*
X127051780Y-46365000D01*
X126698220Y-46365000D01*
X126618048Y-46311431D01*
X126476643Y-46252859D01*
X126326528Y-46223000D01*
X126173472Y-46223000D01*
X126023357Y-46252859D01*
X125881952Y-46311431D01*
X125801780Y-46365000D01*
X125448220Y-46365000D01*
X125368048Y-46311431D01*
X125226643Y-46252859D01*
X125076528Y-46223000D01*
X124923472Y-46223000D01*
X124773357Y-46252859D01*
X124631952Y-46311431D01*
X124551780Y-46365000D01*
X124198220Y-46365000D01*
X124118048Y-46311431D01*
X123976643Y-46252859D01*
X123826528Y-46223000D01*
X123673472Y-46223000D01*
X123523357Y-46252859D01*
X123381952Y-46311431D01*
X123301780Y-46365000D01*
X122948220Y-46365000D01*
X122868048Y-46311431D01*
X122726643Y-46252859D01*
X122576528Y-46223000D01*
X122423472Y-46223000D01*
X122273357Y-46252859D01*
X122131952Y-46311431D01*
X122051780Y-46365000D01*
X121698220Y-46365000D01*
X121618048Y-46311431D01*
X121476643Y-46252859D01*
X121326528Y-46223000D01*
X121173472Y-46223000D01*
X121023357Y-46252859D01*
X120881952Y-46311431D01*
X120801780Y-46365000D01*
X120448220Y-46365000D01*
X120368048Y-46311431D01*
X120226643Y-46252859D01*
X120076528Y-46223000D01*
X119923472Y-46223000D01*
X119773357Y-46252859D01*
X119631952Y-46311431D01*
X119551780Y-46365000D01*
X118000000Y-46365000D01*
X117876118Y-46377201D01*
X117756996Y-46413336D01*
X117647213Y-46472017D01*
X117550987Y-46550987D01*
X117472017Y-46647213D01*
X117421419Y-46741874D01*
X117326528Y-46723000D01*
X117173472Y-46723000D01*
X117023357Y-46752859D01*
X116881952Y-46811431D01*
X116754691Y-46896464D01*
X116646464Y-47004691D01*
X116561431Y-47131952D01*
X116502859Y-47273357D01*
X116473000Y-47423472D01*
X116473000Y-47576528D01*
X116502859Y-47726643D01*
X116561431Y-47868048D01*
X116646464Y-47995309D01*
X116748001Y-48096846D01*
X116748000Y-54342065D01*
X115967066Y-55123000D01*
X115823472Y-55123000D01*
X115673357Y-55152859D01*
X115531952Y-55211431D01*
X115404691Y-55296464D01*
X115296464Y-55404691D01*
X115211431Y-55531952D01*
X115152859Y-55673357D01*
X115123000Y-55823472D01*
X103202000Y-55823472D01*
X103202000Y-54996845D01*
X103303536Y-54895309D01*
X103388569Y-54768048D01*
X103447141Y-54626643D01*
X103477000Y-54476528D01*
X103477000Y-54323472D01*
X103447141Y-54173357D01*
X103388569Y-54031952D01*
X103303536Y-53904691D01*
X103195309Y-53796464D01*
X103068048Y-53711431D01*
X102926643Y-53652859D01*
X102776528Y-53623000D01*
X102623472Y-53623000D01*
X102606282Y-53626419D01*
X102606282Y-47000000D01*
X102594081Y-46876118D01*
X102557946Y-46756996D01*
X102499265Y-46647213D01*
X102420295Y-46550987D01*
X102324069Y-46472017D01*
X102214286Y-46413336D01*
X102095164Y-46377201D01*
X101971282Y-46365000D01*
X101948220Y-46365000D01*
X101868048Y-46311431D01*
X101726643Y-46252859D01*
X101576528Y-46223000D01*
X101423472Y-46223000D01*
X101273357Y-46252859D01*
X101131952Y-46311431D01*
X101051780Y-46365000D01*
X100698220Y-46365000D01*
X100618048Y-46311431D01*
X100476643Y-46252859D01*
X100326528Y-46223000D01*
X100173472Y-46223000D01*
X100023357Y-46252859D01*
X99881952Y-46311431D01*
X99801780Y-46365000D01*
X99448220Y-46365000D01*
X99368048Y-46311431D01*
X99226643Y-46252859D01*
X99076528Y-46223000D01*
X98923472Y-46223000D01*
X98773357Y-46252859D01*
X98631952Y-46311431D01*
X98551780Y-46365000D01*
X98198220Y-46365000D01*
X98118048Y-46311431D01*
X97976643Y-46252859D01*
X97826528Y-46223000D01*
X97673472Y-46223000D01*
X97523357Y-46252859D01*
X97381952Y-46311431D01*
X97301780Y-46365000D01*
X96948220Y-46365000D01*
X96868048Y-46311431D01*
X96726643Y-46252859D01*
X96576528Y-46223000D01*
X96423472Y-46223000D01*
X96273357Y-46252859D01*
X96131952Y-46311431D01*
X96051780Y-46365000D01*
X95698220Y-46365000D01*
X95618048Y-46311431D01*
X95476643Y-46252859D01*
X95326528Y-46223000D01*
X95173472Y-46223000D01*
X95023357Y-46252859D01*
X94881952Y-46311431D01*
X94801780Y-46365000D01*
X94448220Y-46365000D01*
X94368048Y-46311431D01*
X94226643Y-46252859D01*
X94076528Y-46223000D01*
X93923472Y-46223000D01*
X93773357Y-46252859D01*
X93631952Y-46311431D01*
X93551780Y-46365000D01*
X91065369Y-46365000D01*
X91047141Y-46273357D01*
X90988569Y-46131952D01*
X90903536Y-46004691D01*
X90795309Y-45896464D01*
X90668048Y-45811431D01*
X90526643Y-45752859D01*
X90376528Y-45723000D01*
X90223472Y-45723000D01*
X90073357Y-45752859D01*
X89931952Y-45811431D01*
X89804691Y-45896464D01*
X89696464Y-46004691D01*
X89611431Y-46131952D01*
X89552859Y-46273357D01*
X89523000Y-46423472D01*
X89523000Y-46576528D01*
X89552859Y-46726643D01*
X89611431Y-46868048D01*
X89696464Y-46995309D01*
X89698001Y-46996846D01*
X89698000Y-55103155D01*
X89596464Y-55204691D01*
X89511431Y-55331952D01*
X89452859Y-55473357D01*
X89423000Y-55623472D01*
X74471544Y-55623472D01*
X74518017Y-55577000D01*
X74661610Y-55577000D01*
X74811725Y-55547141D01*
X74953130Y-55488569D01*
X75080391Y-55403536D01*
X75188618Y-55295309D01*
X75273651Y-55168048D01*
X75332223Y-55026643D01*
X75362082Y-54876528D01*
X75362082Y-54723472D01*
X75332223Y-54573357D01*
X75273651Y-54431952D01*
X75188618Y-54304691D01*
X75080391Y-54196464D01*
X74953130Y-54111431D01*
X74811725Y-54052859D01*
X74661610Y-54023000D01*
X74508554Y-54023000D01*
X74358439Y-54052859D01*
X74217034Y-54111431D01*
X74089773Y-54196464D01*
X73981546Y-54304691D01*
X73896513Y-54431952D01*
X73837941Y-54573357D01*
X73808082Y-54723472D01*
X73808082Y-54867065D01*
X73606282Y-55068865D01*
X73606282Y-47000000D01*
X73594081Y-46876118D01*
X73557946Y-46756996D01*
X73499265Y-46647213D01*
X73420295Y-46550987D01*
X73324069Y-46472017D01*
X73214286Y-46413336D01*
X73095164Y-46377201D01*
X72971282Y-46365000D01*
X72948220Y-46365000D01*
X72868048Y-46311431D01*
X72726643Y-46252859D01*
X72576528Y-46223000D01*
X72423472Y-46223000D01*
X72273357Y-46252859D01*
X72131952Y-46311431D01*
X72051780Y-46365000D01*
X71698220Y-46365000D01*
X71618048Y-46311431D01*
X71476643Y-46252859D01*
X71326528Y-46223000D01*
X71173472Y-46223000D01*
X71023357Y-46252859D01*
X70881952Y-46311431D01*
X70801780Y-46365000D01*
X70448220Y-46365000D01*
X70368048Y-46311431D01*
X70226643Y-46252859D01*
X70076528Y-46223000D01*
X69923472Y-46223000D01*
X69773357Y-46252859D01*
X69631952Y-46311431D01*
X69551780Y-46365000D01*
X69198220Y-46365000D01*
X69118048Y-46311431D01*
X68976643Y-46252859D01*
X68826528Y-46223000D01*
X68673472Y-46223000D01*
X68523357Y-46252859D01*
X68381952Y-46311431D01*
X68301780Y-46365000D01*
X67948220Y-46365000D01*
X67868048Y-46311431D01*
X67726643Y-46252859D01*
X67576528Y-46223000D01*
X67423472Y-46223000D01*
X67273357Y-46252859D01*
X67131952Y-46311431D01*
X67051780Y-46365000D01*
X66698220Y-46365000D01*
X66618048Y-46311431D01*
X66476643Y-46252859D01*
X66326528Y-46223000D01*
X66173472Y-46223000D01*
X66023357Y-46252859D01*
X65881952Y-46311431D01*
X65801780Y-46365000D01*
X65448220Y-46365000D01*
X65368048Y-46311431D01*
X65226643Y-46252859D01*
X65076528Y-46223000D01*
X64923472Y-46223000D01*
X64773357Y-46252859D01*
X64631952Y-46311431D01*
X64551780Y-46365000D01*
X63448220Y-46365000D01*
X63368048Y-46311431D01*
X63226643Y-46252859D01*
X63076528Y-46223000D01*
X62923472Y-46223000D01*
X62773357Y-46252859D01*
X62631952Y-46311431D01*
X62551780Y-46365000D01*
X61971282Y-46365000D01*
X61847400Y-46377201D01*
X61728278Y-46413336D01*
X61618495Y-46472017D01*
X61522269Y-46550987D01*
X61443299Y-46647213D01*
X61384618Y-46756996D01*
X61348483Y-46876118D01*
X61336282Y-47000000D01*
X61336282Y-47953784D01*
X61162463Y-48127603D01*
X61143317Y-48143316D01*
X61127604Y-48162462D01*
X61127601Y-48162465D01*
X61080584Y-48219755D01*
X61033970Y-48306964D01*
X61005265Y-48401591D01*
X60995573Y-48500000D01*
X60998001Y-48524653D01*
X60998000Y-55492064D01*
X60767065Y-55723000D01*
X60623472Y-55723000D01*
X60473357Y-55752859D01*
X60331952Y-55811431D01*
X60204691Y-55896464D01*
X60096464Y-56004691D01*
X60011431Y-56131952D01*
X59952859Y-56273357D01*
X59923000Y-56423472D01*
X55127000Y-56423472D01*
X55127000Y-50750000D01*
X55124560Y-50725224D01*
X55117333Y-50701399D01*
X55105597Y-50679443D01*
X55089803Y-50660197D01*
X55070557Y-50644403D01*
X55048601Y-50632667D01*
X55024776Y-50625440D01*
X55000000Y-50623000D01*
X54000000Y-50623000D01*
X53975224Y-50625440D01*
X53951399Y-50632667D01*
X53929443Y-50644403D01*
X53910197Y-50660197D01*
X53894403Y-50679443D01*
X53882667Y-50701399D01*
X53875440Y-50725224D01*
X53873000Y-50750000D01*
X53873000Y-63873000D01*
X40402000Y-63873000D01*
X40402000Y-58800000D01*
X50421176Y-58800000D01*
X50421176Y-61200000D01*
X50428455Y-61273905D01*
X50450012Y-61344970D01*
X50485019Y-61410463D01*
X50532131Y-61467869D01*
X50589537Y-61514981D01*
X50655030Y-61549988D01*
X50726095Y-61571545D01*
X50800000Y-61578824D01*
X53200000Y-61578824D01*
X53273905Y-61571545D01*
X53344970Y-61549988D01*
X53410463Y-61514981D01*
X53467869Y-61467869D01*
X53514981Y-61410463D01*
X53549988Y-61344970D01*
X53571545Y-61273905D01*
X53578824Y-61200000D01*
X53578824Y-58800000D01*
X53571545Y-58726095D01*
X53549988Y-58655030D01*
X53514981Y-58589537D01*
X53467869Y-58532131D01*
X53410463Y-58485019D01*
X53344970Y-58450012D01*
X53273905Y-58428455D01*
X53200000Y-58421176D01*
X50800000Y-58421176D01*
X50726095Y-58428455D01*
X50655030Y-58450012D01*
X50589537Y-58485019D01*
X50532131Y-58532131D01*
X50485019Y-58589537D01*
X50450012Y-58655030D01*
X50428455Y-58726095D01*
X50421176Y-58800000D01*
X40402000Y-58800000D01*
X40402000Y-42800000D01*
X50421176Y-42800000D01*
X50421176Y-45200000D01*
X50428455Y-45273905D01*
X50450012Y-45344970D01*
X50485019Y-45410463D01*
X50532131Y-45467869D01*
X50589537Y-45514981D01*
X50655030Y-45549988D01*
X50726095Y-45571545D01*
X50800000Y-45578824D01*
X53200000Y-45578824D01*
X53273905Y-45571545D01*
X53344970Y-45549988D01*
X53410463Y-45514981D01*
X53467869Y-45467869D01*
X53514981Y-45410463D01*
X53549988Y-45344970D01*
X53571545Y-45273905D01*
X53578824Y-45200000D01*
X53578824Y-45028232D01*
X84978197Y-45028232D01*
X85022186Y-45420397D01*
X85141508Y-45796551D01*
X85331621Y-46142363D01*
X85585281Y-46444664D01*
X85892827Y-46691937D01*
X86242545Y-46874766D01*
X86621115Y-46986185D01*
X87014116Y-47021951D01*
X87406580Y-46980701D01*
X87783557Y-46864007D01*
X88130688Y-46676314D01*
X88434752Y-46424770D01*
X88684167Y-46118958D01*
X88869432Y-45770524D01*
X88983491Y-45392742D01*
X89019231Y-45028232D01*
X112978197Y-45028232D01*
X113022186Y-45420397D01*
X113141508Y-45796551D01*
X113331621Y-46142363D01*
X113585281Y-46444664D01*
X113892827Y-46691937D01*
X114242545Y-46874766D01*
X114621115Y-46986185D01*
X115014116Y-47021951D01*
X115406580Y-46980701D01*
X115783557Y-46864007D01*
X116130688Y-46676314D01*
X116434752Y-46424770D01*
X116684167Y-46118958D01*
X116869432Y-45770524D01*
X116983491Y-45392742D01*
X117022000Y-45000000D01*
X117021212Y-44943542D01*
X116971752Y-44552029D01*
X116847189Y-44177579D01*
X116652267Y-43834454D01*
X116394411Y-43535724D01*
X116083442Y-43292769D01*
X115731205Y-43114841D01*
X115351117Y-43008719D01*
X114957654Y-42978443D01*
X114565805Y-43025169D01*
X114190494Y-43147115D01*
X113846017Y-43339636D01*
X113545495Y-43595401D01*
X113300374Y-43904666D01*
X113119992Y-44255652D01*
X113011218Y-44634990D01*
X112978197Y-45028232D01*
X89019231Y-45028232D01*
X89022000Y-45000000D01*
X89021212Y-44943542D01*
X88971752Y-44552029D01*
X88847189Y-44177579D01*
X88652267Y-43834454D01*
X88394411Y-43535724D01*
X88083442Y-43292769D01*
X87731205Y-43114841D01*
X87351117Y-43008719D01*
X86957654Y-42978443D01*
X86565805Y-43025169D01*
X86190494Y-43147115D01*
X85846017Y-43339636D01*
X85545495Y-43595401D01*
X85300374Y-43904666D01*
X85119992Y-44255652D01*
X85011218Y-44634990D01*
X84978197Y-45028232D01*
X53578824Y-45028232D01*
X53578824Y-42800000D01*
X53571545Y-42726095D01*
X53549988Y-42655030D01*
X53514981Y-42589537D01*
X53467869Y-42532131D01*
X53410463Y-42485019D01*
X53344970Y-42450012D01*
X53273905Y-42428455D01*
X53200000Y-42421176D01*
X50800000Y-42421176D01*
X50726095Y-42428455D01*
X50655030Y-42450012D01*
X50589537Y-42485019D01*
X50532131Y-42532131D01*
X50485019Y-42589537D01*
X50450012Y-42655030D01*
X50428455Y-42726095D01*
X50421176Y-42800000D01*
X40402000Y-42800000D01*
X40402000Y-31667395D01*
X48223000Y-31667395D01*
X48223000Y-32332605D01*
X48352776Y-32985035D01*
X48607341Y-33599609D01*
X48976913Y-34152712D01*
X49447288Y-34623087D01*
X50000391Y-34992659D01*
X50614965Y-35247224D01*
X51267395Y-35377000D01*
X51932605Y-35377000D01*
X52585035Y-35247224D01*
X53199609Y-34992659D01*
X53752712Y-34623087D01*
X54223087Y-34152712D01*
X54592659Y-33599609D01*
X54847224Y-32985035D01*
X54977000Y-32332605D01*
X54977000Y-31667395D01*
X54847224Y-31014965D01*
X54592659Y-30400391D01*
X54325127Y-30000000D01*
X64336282Y-30000000D01*
X64336282Y-39000000D01*
X64348483Y-39123882D01*
X64384618Y-39243004D01*
X64443299Y-39352787D01*
X64522269Y-39449013D01*
X64618495Y-39527983D01*
X64728278Y-39586664D01*
X64847400Y-39622799D01*
X64971282Y-39635000D01*
X75971282Y-39635000D01*
X76095164Y-39622799D01*
X76214286Y-39586664D01*
X76324069Y-39527983D01*
X76420295Y-39449013D01*
X76499265Y-39352787D01*
X76557946Y-39243004D01*
X76594081Y-39123882D01*
X76606282Y-39000000D01*
X76606282Y-30000000D01*
X92336282Y-30000000D01*
X92336282Y-39000000D01*
X92348483Y-39123882D01*
X92384618Y-39243004D01*
X92443299Y-39352787D01*
X92522269Y-39449013D01*
X92618495Y-39527983D01*
X92728278Y-39586664D01*
X92847400Y-39622799D01*
X92971282Y-39635000D01*
X103971282Y-39635000D01*
X104095164Y-39622799D01*
X104214286Y-39586664D01*
X104324069Y-39527983D01*
X104420295Y-39449013D01*
X104499265Y-39352787D01*
X104557946Y-39243004D01*
X104594081Y-39123882D01*
X104606282Y-39000000D01*
X104606282Y-30000000D01*
X119329871Y-30000000D01*
X119329871Y-39000000D01*
X119342072Y-39123882D01*
X119378207Y-39243004D01*
X119436888Y-39352787D01*
X119515858Y-39449013D01*
X119612084Y-39527983D01*
X119721867Y-39586664D01*
X119840989Y-39622799D01*
X119964871Y-39635000D01*
X130964871Y-39635000D01*
X131088753Y-39622799D01*
X131207875Y-39586664D01*
X131317658Y-39527983D01*
X131413884Y-39449013D01*
X131492854Y-39352787D01*
X131551535Y-39243004D01*
X131587670Y-39123882D01*
X131599871Y-39000000D01*
X131599871Y-30000000D01*
X131587670Y-29876118D01*
X131551535Y-29756996D01*
X131492854Y-29647213D01*
X131413884Y-29550987D01*
X131317658Y-29472017D01*
X131207875Y-29413336D01*
X131088753Y-29377201D01*
X130964871Y-29365000D01*
X119964871Y-29365000D01*
X119840989Y-29377201D01*
X119721867Y-29413336D01*
X119612084Y-29472017D01*
X119515858Y-29550987D01*
X119436888Y-29647213D01*
X119378207Y-29756996D01*
X119342072Y-29876118D01*
X119329871Y-30000000D01*
X104606282Y-30000000D01*
X104594081Y-29876118D01*
X104557946Y-29756996D01*
X104499265Y-29647213D01*
X104420295Y-29550987D01*
X104324069Y-29472017D01*
X104214286Y-29413336D01*
X104095164Y-29377201D01*
X103971282Y-29365000D01*
X92971282Y-29365000D01*
X92847400Y-29377201D01*
X92728278Y-29413336D01*
X92618495Y-29472017D01*
X92522269Y-29550987D01*
X92443299Y-29647213D01*
X92384618Y-29756996D01*
X92348483Y-29876118D01*
X92336282Y-30000000D01*
X76606282Y-30000000D01*
X76594081Y-29876118D01*
X76557946Y-29756996D01*
X76499265Y-29647213D01*
X76420295Y-29550987D01*
X76324069Y-29472017D01*
X76214286Y-29413336D01*
X76095164Y-29377201D01*
X75971282Y-29365000D01*
X64971282Y-29365000D01*
X64847400Y-29377201D01*
X64728278Y-29413336D01*
X64618495Y-29472017D01*
X64522269Y-29550987D01*
X64443299Y-29647213D01*
X64384618Y-29756996D01*
X64348483Y-29876118D01*
X64336282Y-30000000D01*
X54325127Y-30000000D01*
X54223087Y-29847288D01*
X53752712Y-29376913D01*
X53199609Y-29007341D01*
X52585035Y-28752776D01*
X51932605Y-28623000D01*
X51267395Y-28623000D01*
X50614965Y-28752776D01*
X50000391Y-29007341D01*
X49447288Y-29376913D01*
X48976913Y-29847288D01*
X48607341Y-30400391D01*
X48352776Y-31014965D01*
X48223000Y-31667395D01*
X40402000Y-31667395D01*
X40402000Y-28402000D01*
X139598000Y-28402000D01*
X139598000Y-35553127D01*
X139598000Y-35553127D01*
G37*
X139598000Y-35553127D02*
X139476643Y-35502859D01*
X139326528Y-35473000D01*
X139173472Y-35473000D01*
X139023357Y-35502859D01*
X138881952Y-35561431D01*
X138754691Y-35646464D01*
X138646464Y-35754691D01*
X138561431Y-35881952D01*
X138502859Y-36023357D01*
X138473000Y-36173472D01*
X138473000Y-36326528D01*
X138502859Y-36476643D01*
X138561431Y-36618048D01*
X138623000Y-36710193D01*
X138623001Y-57490287D01*
X138240289Y-57873000D01*
X137960193Y-57873000D01*
X137868048Y-57811431D01*
X137726643Y-57752859D01*
X137576528Y-57723000D01*
X137423472Y-57723000D01*
X137273357Y-57752859D01*
X137131952Y-57811431D01*
X137039807Y-57873000D01*
X136960193Y-57873000D01*
X136868048Y-57811431D01*
X136726643Y-57752859D01*
X136576528Y-57723000D01*
X136423472Y-57723000D01*
X136273357Y-57752859D01*
X136131952Y-57811431D01*
X136039807Y-57873000D01*
X135960193Y-57873000D01*
X135868048Y-57811431D01*
X135726643Y-57752859D01*
X135576528Y-57723000D01*
X135423472Y-57723000D01*
X135273357Y-57752859D01*
X135131952Y-57811431D01*
X135004691Y-57896464D01*
X134896464Y-58004691D01*
X134811431Y-58131952D01*
X134752859Y-58273357D01*
X134723000Y-58423472D01*
X134723000Y-58576528D01*
X134752859Y-58726643D01*
X134811431Y-58868048D01*
X134896464Y-58995309D01*
X135004691Y-59103536D01*
X135131952Y-59188569D01*
X135273357Y-59247141D01*
X135423472Y-59277000D01*
X135576528Y-59277000D01*
X135726643Y-59247141D01*
X135868048Y-59188569D01*
X135960193Y-59127000D01*
X136039807Y-59127000D01*
X136131952Y-59188569D01*
X136273357Y-59247141D01*
X136423472Y-59277000D01*
X136576528Y-59277000D01*
X136726643Y-59247141D01*
X136868048Y-59188569D01*
X136960193Y-59127000D01*
X137039807Y-59127000D01*
X137131952Y-59188569D01*
X137273357Y-59247141D01*
X137423472Y-59277000D01*
X137576528Y-59277000D01*
X137726643Y-59247141D01*
X137868048Y-59188569D01*
X137960193Y-59127000D01*
X138469206Y-59127000D01*
X138500000Y-59130033D01*
X138530794Y-59127000D01*
X138622913Y-59117927D01*
X138741103Y-59082075D01*
X138748000Y-59078388D01*
X138748001Y-76263362D01*
X138631952Y-76311431D01*
X138504691Y-76396464D01*
X138396464Y-76504691D01*
X138311431Y-76631952D01*
X138252859Y-76773357D01*
X138223000Y-76923472D01*
X138223000Y-77076528D01*
X138252859Y-77226643D01*
X138311431Y-77368048D01*
X138396464Y-77495309D01*
X138499155Y-77598000D01*
X106286934Y-77598000D01*
X106832935Y-77052000D01*
X106976528Y-77052000D01*
X107126643Y-77022141D01*
X107268048Y-76963569D01*
X107395309Y-76878536D01*
X107503536Y-76770309D01*
X107588569Y-76643048D01*
X107647141Y-76501643D01*
X107677000Y-76351528D01*
X107677000Y-76198472D01*
X107647141Y-76048357D01*
X107588569Y-75906952D01*
X107503536Y-75779691D01*
X107395309Y-75671464D01*
X107268048Y-75586431D01*
X107126643Y-75527859D01*
X106976528Y-75498000D01*
X106823472Y-75498000D01*
X106673357Y-75527859D01*
X106531952Y-75586431D01*
X106404691Y-75671464D01*
X106296464Y-75779691D01*
X106211431Y-75906952D01*
X106152859Y-76048357D01*
X106123000Y-76198472D01*
X106123000Y-76342065D01*
X105317076Y-77147990D01*
X103242213Y-77147990D01*
X103373746Y-77093507D01*
X103501007Y-77008474D01*
X103609234Y-76900247D01*
X103694267Y-76772986D01*
X103752839Y-76631581D01*
X103782698Y-76481466D01*
X103782698Y-76328410D01*
X103752839Y-76178295D01*
X103694267Y-76036890D01*
X103609234Y-75909629D01*
X103501007Y-75801402D01*
X103373746Y-75716369D01*
X103232341Y-75657797D01*
X103082226Y-75627938D01*
X102929170Y-75627938D01*
X102779055Y-75657797D01*
X102637650Y-75716369D01*
X102510389Y-75801402D01*
X102402162Y-75909629D01*
X102317129Y-76036890D01*
X102258557Y-76178295D01*
X102228698Y-76328410D01*
X102228698Y-76422974D01*
X93846845Y-76422974D01*
X93745309Y-76321438D01*
X93618048Y-76236405D01*
X93476643Y-76177833D01*
X93326528Y-76147974D01*
X93173472Y-76147974D01*
X93051435Y-76172248D01*
X93020922Y-76169243D01*
X93020912Y-76169243D01*
X92996269Y-76166816D01*
X92971626Y-76169243D01*
X87849861Y-76169243D01*
X87748325Y-76067707D01*
X87621064Y-75982674D01*
X87479659Y-75924102D01*
X87329544Y-75894243D01*
X87176488Y-75894243D01*
X87026373Y-75924102D01*
X86884968Y-75982674D01*
X86832373Y-76017817D01*
X86777187Y-75884585D01*
X86681210Y-75740945D01*
X86559055Y-75618790D01*
X86415415Y-75522813D01*
X86255811Y-75456703D01*
X86086377Y-75423000D01*
X85913623Y-75423000D01*
X85744189Y-75456703D01*
X85584585Y-75522813D01*
X85440945Y-75618790D01*
X85318790Y-75740945D01*
X85222813Y-75884585D01*
X85156703Y-76044189D01*
X85123000Y-76213623D01*
X85123000Y-76386377D01*
X85156703Y-76555811D01*
X85222813Y-76715415D01*
X85318790Y-76859055D01*
X85440945Y-76981210D01*
X85584585Y-77077187D01*
X85744189Y-77143297D01*
X85767782Y-77147990D01*
X72372850Y-77147990D01*
X72401988Y-77001498D01*
X72401988Y-76848442D01*
X72372129Y-76698327D01*
X72313557Y-76556922D01*
X72228524Y-76429661D01*
X72120297Y-76321434D01*
X71993036Y-76236401D01*
X71851631Y-76177829D01*
X71701516Y-76147970D01*
X71548460Y-76147970D01*
X71398345Y-76177829D01*
X71256940Y-76236401D01*
X71129679Y-76321434D01*
X71021452Y-76429661D01*
X71009218Y-76447970D01*
X62017000Y-76447970D01*
X62017000Y-76224639D01*
X62124309Y-76281997D01*
X62308475Y-76337863D01*
X62500000Y-76356727D01*
X62691524Y-76337863D01*
X62875690Y-76281997D01*
X63045418Y-76191276D01*
X63194186Y-76069186D01*
X63316276Y-75920418D01*
X63406997Y-75750691D01*
X63462863Y-75566525D01*
X63477000Y-75422993D01*
X63477000Y-74777008D01*
X63477000Y-74777007D01*
X63523000Y-74777007D01*
X63523000Y-75422992D01*
X63537137Y-75566524D01*
X63593003Y-75750690D01*
X63683724Y-75920418D01*
X63805814Y-76069186D01*
X63954582Y-76191276D01*
X64124309Y-76281997D01*
X64308475Y-76337863D01*
X64500000Y-76356727D01*
X64691524Y-76337863D01*
X64875690Y-76281997D01*
X65045418Y-76191276D01*
X65194186Y-76069186D01*
X65316276Y-75920418D01*
X65406997Y-75750691D01*
X65462863Y-75566525D01*
X65477000Y-75422993D01*
X65477000Y-74777008D01*
X65477000Y-74777007D01*
X65523000Y-74777007D01*
X65523000Y-75422992D01*
X65537137Y-75566524D01*
X65593003Y-75750690D01*
X65683724Y-75920418D01*
X65805814Y-76069186D01*
X65954582Y-76191276D01*
X66124309Y-76281997D01*
X66308475Y-76337863D01*
X66500000Y-76356727D01*
X66691524Y-76337863D01*
X66875690Y-76281997D01*
X67045418Y-76191276D01*
X67194186Y-76069186D01*
X67316276Y-75920418D01*
X67406997Y-75750691D01*
X67462863Y-75566525D01*
X67477000Y-75422993D01*
X67477000Y-74777008D01*
X67477000Y-74777007D01*
X67523000Y-74777007D01*
X67523000Y-75422992D01*
X67537137Y-75566524D01*
X67593003Y-75750690D01*
X67683724Y-75920418D01*
X67805814Y-76069186D01*
X67954582Y-76191276D01*
X68124309Y-76281997D01*
X68308475Y-76337863D01*
X68500000Y-76356727D01*
X68691524Y-76337863D01*
X68875690Y-76281997D01*
X69045418Y-76191276D01*
X69194186Y-76069186D01*
X69316276Y-75920418D01*
X69406997Y-75750691D01*
X69462863Y-75566525D01*
X69477000Y-75422993D01*
X69477000Y-75223472D01*
X77223000Y-75223472D01*
X77223000Y-75376528D01*
X77252859Y-75526643D01*
X77311431Y-75668048D01*
X77396464Y-75795309D01*
X77504691Y-75903536D01*
X77631952Y-75988569D01*
X77773357Y-76047141D01*
X77923472Y-76077000D01*
X78076528Y-76077000D01*
X78226643Y-76047141D01*
X78368048Y-75988569D01*
X78495309Y-75903536D01*
X78596845Y-75802000D01*
X80175357Y-75802000D01*
X80200000Y-75804427D01*
X80224643Y-75802000D01*
X80224653Y-75802000D01*
X80298409Y-75794736D01*
X80393036Y-75766031D01*
X80480245Y-75719417D01*
X80556684Y-75656684D01*
X80572401Y-75637533D01*
X81432935Y-74777000D01*
X81576528Y-74777000D01*
X81726643Y-74747141D01*
X81868048Y-74688569D01*
X81995309Y-74603536D01*
X82103536Y-74495309D01*
X82188569Y-74368048D01*
X82247141Y-74226643D01*
X82277000Y-74076528D01*
X82277000Y-73923472D01*
X82247141Y-73773357D01*
X82188569Y-73631952D01*
X82103536Y-73504691D01*
X81995309Y-73396464D01*
X81871329Y-73313623D01*
X87623000Y-73313623D01*
X87623000Y-73486377D01*
X87656703Y-73655811D01*
X87722813Y-73815415D01*
X87818790Y-73959055D01*
X87940945Y-74081210D01*
X88084585Y-74177187D01*
X88244189Y-74243297D01*
X88413623Y-74277000D01*
X88586377Y-74277000D01*
X88755811Y-74243297D01*
X88915415Y-74177187D01*
X89059055Y-74081210D01*
X89181210Y-73959055D01*
X89277187Y-73815415D01*
X89343297Y-73655811D01*
X89377000Y-73486377D01*
X89377000Y-73313623D01*
X89349122Y-73173472D01*
X98898000Y-73173472D01*
X98898000Y-73326528D01*
X98927859Y-73476643D01*
X98986431Y-73618048D01*
X99071464Y-73745309D01*
X99179691Y-73853536D01*
X99306952Y-73938569D01*
X99448357Y-73997141D01*
X99598472Y-74027000D01*
X99751528Y-74027000D01*
X99901643Y-73997141D01*
X100043048Y-73938569D01*
X100135193Y-73877000D01*
X101914828Y-73877000D01*
X102006973Y-73938569D01*
X102148378Y-73997141D01*
X102298493Y-74027000D01*
X102451549Y-74027000D01*
X102601664Y-73997141D01*
X102743069Y-73938569D01*
X102870330Y-73853536D01*
X102978557Y-73745309D01*
X103063590Y-73618048D01*
X103122162Y-73476643D01*
X103152021Y-73326528D01*
X103152021Y-73173472D01*
X103122162Y-73023357D01*
X103063590Y-72881952D01*
X102978557Y-72754691D01*
X102870330Y-72646464D01*
X102743069Y-72561431D01*
X102601664Y-72502859D01*
X102451549Y-72473000D01*
X102298493Y-72473000D01*
X102148378Y-72502859D01*
X102006973Y-72561431D01*
X101914828Y-72623000D01*
X100135193Y-72623000D01*
X100043048Y-72561431D01*
X99901643Y-72502859D01*
X99751528Y-72473000D01*
X99598472Y-72473000D01*
X99448357Y-72502859D01*
X99306952Y-72561431D01*
X99179691Y-72646464D01*
X99071464Y-72754691D01*
X98986431Y-72881952D01*
X98927859Y-73023357D01*
X98898000Y-73173472D01*
X89349122Y-73173472D01*
X89343297Y-73144189D01*
X89277187Y-72984585D01*
X89181210Y-72840945D01*
X89059055Y-72718790D01*
X88915415Y-72622813D01*
X88755811Y-72556703D01*
X88586377Y-72523000D01*
X88413623Y-72523000D01*
X88244189Y-72556703D01*
X88084585Y-72622813D01*
X87940945Y-72718790D01*
X87818790Y-72840945D01*
X87722813Y-72984585D01*
X87656703Y-73144189D01*
X87623000Y-73313623D01*
X81871329Y-73313623D01*
X81868048Y-73311431D01*
X81726643Y-73252859D01*
X81576528Y-73223000D01*
X81423472Y-73223000D01*
X81273357Y-73252859D01*
X81131952Y-73311431D01*
X81004691Y-73396464D01*
X80896464Y-73504691D01*
X80811431Y-73631952D01*
X80752859Y-73773357D01*
X80723000Y-73923472D01*
X80723000Y-74067065D01*
X79992066Y-74798000D01*
X78596845Y-74798000D01*
X78495309Y-74696464D01*
X78368048Y-74611431D01*
X78226643Y-74552859D01*
X78076528Y-74523000D01*
X77923472Y-74523000D01*
X77773357Y-74552859D01*
X77631952Y-74611431D01*
X77504691Y-74696464D01*
X77396464Y-74804691D01*
X77311431Y-74931952D01*
X77252859Y-75073357D01*
X77223000Y-75223472D01*
X69477000Y-75223472D01*
X69477000Y-74777008D01*
X69462863Y-74633476D01*
X69406997Y-74449309D01*
X69316276Y-74279582D01*
X69194186Y-74130814D01*
X69045418Y-74008724D01*
X68875691Y-73918003D01*
X68691525Y-73862137D01*
X68500000Y-73843273D01*
X68308476Y-73862137D01*
X68124310Y-73918003D01*
X67954583Y-74008724D01*
X67805815Y-74130814D01*
X67683725Y-74279582D01*
X67593003Y-74449309D01*
X67537137Y-74633475D01*
X67523000Y-74777007D01*
X67477000Y-74777007D01*
X67462863Y-74633476D01*
X67406997Y-74449309D01*
X67316276Y-74279582D01*
X67194186Y-74130814D01*
X67045418Y-74008724D01*
X66875691Y-73918003D01*
X66691525Y-73862137D01*
X66500000Y-73843273D01*
X66308476Y-73862137D01*
X66124310Y-73918003D01*
X65954583Y-74008724D01*
X65805815Y-74130814D01*
X65683725Y-74279582D01*
X65593003Y-74449309D01*
X65537137Y-74633475D01*
X65523000Y-74777007D01*
X65477000Y-74777007D01*
X65462863Y-74633476D01*
X65406997Y-74449309D01*
X65316276Y-74279582D01*
X65194186Y-74130814D01*
X65045418Y-74008724D01*
X64875691Y-73918003D01*
X64691525Y-73862137D01*
X64500000Y-73843273D01*
X64308476Y-73862137D01*
X64124310Y-73918003D01*
X63954583Y-74008724D01*
X63805815Y-74130814D01*
X63683725Y-74279582D01*
X63593003Y-74449309D01*
X63537137Y-74633475D01*
X63523000Y-74777007D01*
X63477000Y-74777007D01*
X63462863Y-74633476D01*
X63406997Y-74449309D01*
X63316276Y-74279582D01*
X63194186Y-74130814D01*
X63045418Y-74008724D01*
X62875691Y-73918003D01*
X62691525Y-73862137D01*
X62500000Y-73843273D01*
X62308476Y-73862137D01*
X62124310Y-73918003D01*
X62017000Y-73975361D01*
X62017000Y-73211506D01*
X62054970Y-73199988D01*
X62120463Y-73164981D01*
X62177869Y-73117869D01*
X62224981Y-73060463D01*
X62259988Y-72994970D01*
X62281545Y-72923905D01*
X62288824Y-72850000D01*
X62288824Y-70450000D01*
X62281545Y-70376095D01*
X62259988Y-70305030D01*
X62224981Y-70239537D01*
X62177869Y-70182131D01*
X62120463Y-70135019D01*
X62054970Y-70100012D01*
X61983905Y-70078455D01*
X61910000Y-70071176D01*
X61170000Y-70071176D01*
X61096095Y-70078455D01*
X61025030Y-70100012D01*
X60959537Y-70135019D01*
X60905000Y-70179776D01*
X60850463Y-70135019D01*
X60784970Y-70100012D01*
X60713905Y-70078455D01*
X60640000Y-70071176D01*
X59900000Y-70071176D01*
X59826095Y-70078455D01*
X59755030Y-70100012D01*
X59689537Y-70135019D01*
X59635000Y-70179776D01*
X59580463Y-70135019D01*
X59514970Y-70100012D01*
X59443905Y-70078455D01*
X59370000Y-70071176D01*
X58630000Y-70071176D01*
X58556095Y-70078455D01*
X58485030Y-70100012D01*
X58419537Y-70135019D01*
X58365000Y-70179776D01*
X58310463Y-70135019D01*
X58244970Y-70100012D01*
X58173905Y-70078455D01*
X58100000Y-70071176D01*
X57360000Y-70071176D01*
X57286095Y-70078455D01*
X57215030Y-70100012D01*
X57149537Y-70135019D01*
X57095000Y-70179776D01*
X57040463Y-70135019D01*
X56974970Y-70100012D01*
X56903905Y-70078455D01*
X56830000Y-70071176D01*
X56090000Y-70071176D01*
X56016095Y-70078455D01*
X55945030Y-70100012D01*
X55879537Y-70135019D01*
X55822131Y-70182131D01*
X55775019Y-70239537D01*
X55740012Y-70305030D01*
X55718455Y-70376095D01*
X55711176Y-70450000D01*
X55711176Y-72850000D01*
X55718455Y-72923905D01*
X55740012Y-72994970D01*
X55775019Y-73060463D01*
X55822131Y-73117869D01*
X55879537Y-73164981D01*
X55945030Y-73199988D01*
X56016095Y-73221545D01*
X56090000Y-73228824D01*
X56830000Y-73228824D01*
X56903905Y-73221545D01*
X56974970Y-73199988D01*
X57040463Y-73164981D01*
X57095000Y-73120224D01*
X57149537Y-73164981D01*
X57215030Y-73199988D01*
X57286095Y-73221545D01*
X57360000Y-73228824D01*
X58100000Y-73228824D01*
X58173905Y-73221545D01*
X58244970Y-73199988D01*
X58310463Y-73164981D01*
X58365000Y-73120224D01*
X58419537Y-73164981D01*
X58485030Y-73199988D01*
X58556095Y-73221545D01*
X58630000Y-73228824D01*
X59370000Y-73228824D01*
X59443905Y-73221545D01*
X59514970Y-73199988D01*
X59580463Y-73164981D01*
X59635000Y-73120224D01*
X59689537Y-73164981D01*
X59755030Y-73199988D01*
X59826095Y-73221545D01*
X59900000Y-73228824D01*
X60640000Y-73228824D01*
X60713905Y-73221545D01*
X60784970Y-73199988D01*
X60850463Y-73164981D01*
X60905000Y-73120224D01*
X60959537Y-73164981D01*
X61025030Y-73199988D01*
X61063001Y-73211506D01*
X61063001Y-74023154D01*
X61045418Y-74008724D01*
X60875691Y-73918003D01*
X60691525Y-73862137D01*
X60500000Y-73843273D01*
X60308476Y-73862137D01*
X60124310Y-73918003D01*
X59954583Y-74008724D01*
X59805815Y-74130814D01*
X59683725Y-74279582D01*
X59593003Y-74449309D01*
X59537137Y-74633475D01*
X59523000Y-74777007D01*
X59523000Y-75422992D01*
X59537137Y-75566524D01*
X59593003Y-75750690D01*
X59683724Y-75920418D01*
X59805814Y-76069186D01*
X59954582Y-76191276D01*
X60124309Y-76281997D01*
X60223000Y-76311935D01*
X60223001Y-77147990D01*
X54977000Y-77147990D01*
X54977000Y-76227846D01*
X55045418Y-76191276D01*
X55194186Y-76069186D01*
X55316276Y-75920418D01*
X55406997Y-75750691D01*
X55462863Y-75566525D01*
X55477000Y-75422993D01*
X55477000Y-74777008D01*
X55462863Y-74633476D01*
X55414790Y-74474999D01*
X55521176Y-74474999D01*
X55521176Y-75725001D01*
X55533259Y-75847678D01*
X55569042Y-75965641D01*
X55627152Y-76074356D01*
X55705354Y-76169646D01*
X55800644Y-76247848D01*
X55909359Y-76305958D01*
X56027322Y-76341741D01*
X56149999Y-76353824D01*
X56850001Y-76353824D01*
X56972678Y-76341741D01*
X57090641Y-76305958D01*
X57199356Y-76247848D01*
X57294646Y-76169646D01*
X57372848Y-76074356D01*
X57430958Y-75965641D01*
X57466741Y-75847678D01*
X57478824Y-75725001D01*
X57478824Y-74474999D01*
X57466741Y-74352322D01*
X57430958Y-74234359D01*
X57372848Y-74125644D01*
X57294646Y-74030354D01*
X57199356Y-73952152D01*
X57090641Y-73894042D01*
X56972678Y-73858259D01*
X56850001Y-73846176D01*
X56149999Y-73846176D01*
X56027322Y-73858259D01*
X55909359Y-73894042D01*
X55800644Y-73952152D01*
X55705354Y-74030354D01*
X55627152Y-74125644D01*
X55569042Y-74234359D01*
X55533259Y-74352322D01*
X55521176Y-74474999D01*
X55414790Y-74474999D01*
X55406997Y-74449309D01*
X55316276Y-74279582D01*
X55194186Y-74130814D01*
X55045418Y-74008724D01*
X54875691Y-73918003D01*
X54691525Y-73862137D01*
X54500000Y-73843273D01*
X54308476Y-73862137D01*
X54124310Y-73918003D01*
X53954583Y-74008724D01*
X53805815Y-74130814D01*
X53683725Y-74279582D01*
X53593003Y-74449309D01*
X53537137Y-74633475D01*
X53523000Y-74777007D01*
X53523000Y-75422992D01*
X53537137Y-75566524D01*
X53593003Y-75750690D01*
X53683724Y-75920418D01*
X53805814Y-76069186D01*
X53954582Y-76191276D01*
X54023000Y-76227846D01*
X54023001Y-77147990D01*
X46257925Y-77147990D01*
X45977000Y-76867066D01*
X45977000Y-76723472D01*
X45947141Y-76573357D01*
X45888569Y-76431952D01*
X45803536Y-76304691D01*
X45695309Y-76196464D01*
X45568048Y-76111431D01*
X45426643Y-76052859D01*
X45276528Y-76023000D01*
X45123472Y-76023000D01*
X44973357Y-76052859D01*
X44831952Y-76111431D01*
X44704691Y-76196464D01*
X44596464Y-76304691D01*
X44511431Y-76431952D01*
X44452859Y-76573357D01*
X44423000Y-76723472D01*
X44423000Y-76876528D01*
X44452859Y-77026643D01*
X44511431Y-77168048D01*
X44596464Y-77295309D01*
X44704691Y-77403536D01*
X44831952Y-77488569D01*
X44973357Y-77547141D01*
X45123472Y-77577000D01*
X45267066Y-77577000D01*
X45288065Y-77598000D01*
X40402000Y-77598000D01*
X40402000Y-71011835D01*
X48673000Y-71011835D01*
X48673000Y-71588166D01*
X48684243Y-71702319D01*
X48728673Y-71848784D01*
X48800823Y-71983766D01*
X48897921Y-72102080D01*
X49016235Y-72199177D01*
X49151217Y-72271327D01*
X49297682Y-72315757D01*
X49450000Y-72330759D01*
X49602319Y-72315757D01*
X49748784Y-72271327D01*
X49883766Y-72199177D01*
X50002080Y-72102080D01*
X50075000Y-72013226D01*
X50147921Y-72102080D01*
X50266235Y-72199177D01*
X50401217Y-72271327D01*
X50547682Y-72315757D01*
X50700000Y-72330759D01*
X50852319Y-72315757D01*
X50998784Y-72271327D01*
X51133766Y-72199177D01*
X51252080Y-72102080D01*
X51325000Y-72013226D01*
X51397921Y-72102080D01*
X51516235Y-72199177D01*
X51651217Y-72271327D01*
X51797682Y-72315757D01*
X51950000Y-72330759D01*
X52102319Y-72315757D01*
X52248784Y-72271327D01*
X52383766Y-72199177D01*
X52502080Y-72102080D01*
X52599177Y-71983766D01*
X52671327Y-71848784D01*
X52715757Y-71702319D01*
X52727000Y-71588166D01*
X52727000Y-71011834D01*
X52715757Y-70897681D01*
X52671327Y-70751216D01*
X52599177Y-70616234D01*
X52502080Y-70497920D01*
X52383765Y-70400823D01*
X52248783Y-70328673D01*
X52102318Y-70284243D01*
X51950000Y-70269241D01*
X51797681Y-70284243D01*
X51651216Y-70328673D01*
X51516234Y-70400823D01*
X51397920Y-70497920D01*
X51325000Y-70586774D01*
X51252080Y-70497920D01*
X51133765Y-70400823D01*
X50998783Y-70328673D01*
X50852318Y-70284243D01*
X50700000Y-70269241D01*
X50547681Y-70284243D01*
X50401216Y-70328673D01*
X50266234Y-70400823D01*
X50147920Y-70497920D01*
X50075000Y-70586774D01*
X50002080Y-70497920D01*
X49883765Y-70400823D01*
X49748783Y-70328673D01*
X49602318Y-70284243D01*
X49450000Y-70269241D01*
X49297681Y-70284243D01*
X49151216Y-70328673D01*
X49016234Y-70400823D01*
X48897920Y-70497920D01*
X48800823Y-70616235D01*
X48728673Y-70751217D01*
X48684243Y-70897682D01*
X48673000Y-71011835D01*
X40402000Y-71011835D01*
X40402000Y-67448472D01*
X55683000Y-67448472D01*
X55683000Y-67601528D01*
X55711176Y-67743182D01*
X55711176Y-68950000D01*
X55718455Y-69023905D01*
X55740012Y-69094970D01*
X55775019Y-69160463D01*
X55822131Y-69217869D01*
X55879537Y-69264981D01*
X55945030Y-69299988D01*
X56016095Y-69321545D01*
X56090000Y-69328824D01*
X56830000Y-69328824D01*
X56903905Y-69321545D01*
X56974970Y-69299988D01*
X57040463Y-69264981D01*
X57097869Y-69217869D01*
X57144981Y-69160463D01*
X57179988Y-69094970D01*
X57201545Y-69023905D01*
X57208824Y-68950000D01*
X57208824Y-67743182D01*
X57237000Y-67601528D01*
X57237000Y-67448472D01*
X57208824Y-67306818D01*
X57208824Y-66550000D01*
X59521176Y-66550000D01*
X59521176Y-68950000D01*
X59528455Y-69023905D01*
X59550012Y-69094970D01*
X59585019Y-69160463D01*
X59632131Y-69217869D01*
X59689537Y-69264981D01*
X59755030Y-69299988D01*
X59826095Y-69321545D01*
X59900000Y-69328824D01*
X60640000Y-69328824D01*
X60713905Y-69321545D01*
X60784970Y-69299988D01*
X60850463Y-69264981D01*
X60894136Y-69229139D01*
X62089994Y-69229139D01*
X62089994Y-69382195D01*
X62119853Y-69532310D01*
X62178425Y-69673715D01*
X62263458Y-69800976D01*
X62371685Y-69909203D01*
X62498946Y-69994236D01*
X62640351Y-70052808D01*
X62790466Y-70082667D01*
X62943522Y-70082667D01*
X62965119Y-70078371D01*
X63277551Y-70390804D01*
X63292481Y-70408996D01*
X63365113Y-70468604D01*
X63447979Y-70512897D01*
X63537894Y-70540172D01*
X63607979Y-70547075D01*
X63607986Y-70547075D01*
X63631401Y-70549381D01*
X63654816Y-70547075D01*
X64004814Y-70547075D01*
X64017048Y-70565384D01*
X64125275Y-70673611D01*
X64252536Y-70758644D01*
X64393941Y-70817216D01*
X64544056Y-70847075D01*
X64697112Y-70847075D01*
X64847227Y-70817216D01*
X64988632Y-70758644D01*
X65115893Y-70673611D01*
X65224120Y-70565384D01*
X65309153Y-70438123D01*
X65346255Y-70348551D01*
X71823000Y-70348551D01*
X71823000Y-70501607D01*
X71852859Y-70651722D01*
X71911431Y-70793127D01*
X71996464Y-70920388D01*
X72104691Y-71028615D01*
X72231952Y-71113648D01*
X72373357Y-71172220D01*
X72523472Y-71202079D01*
X72676528Y-71202079D01*
X72698125Y-71197783D01*
X74234221Y-72733880D01*
X74249151Y-72752072D01*
X74321783Y-72811680D01*
X74404649Y-72855973D01*
X74467288Y-72874974D01*
X74494563Y-72883248D01*
X74503410Y-72884119D01*
X74564649Y-72890151D01*
X74564656Y-72890151D01*
X74588071Y-72892457D01*
X74611486Y-72890151D01*
X75496426Y-72890151D01*
X75508660Y-72908460D01*
X75616887Y-73016687D01*
X75744148Y-73101720D01*
X75885553Y-73160292D01*
X76035668Y-73190151D01*
X76188724Y-73190151D01*
X76338839Y-73160292D01*
X76480244Y-73101720D01*
X76607505Y-73016687D01*
X76715732Y-72908460D01*
X76800765Y-72781199D01*
X76859337Y-72639794D01*
X76889196Y-72489679D01*
X76889196Y-72336623D01*
X76859337Y-72186508D01*
X76800765Y-72045103D01*
X76715732Y-71917842D01*
X76607505Y-71809615D01*
X76480244Y-71724582D01*
X76338839Y-71666010D01*
X76188724Y-71636151D01*
X76035668Y-71636151D01*
X75885553Y-71666010D01*
X75744148Y-71724582D01*
X75616887Y-71809615D01*
X75508660Y-71917842D01*
X75496426Y-71936151D01*
X74785652Y-71936151D01*
X73372704Y-70523204D01*
X73377000Y-70501607D01*
X73377000Y-70423472D01*
X78973000Y-70423472D01*
X78973000Y-70576528D01*
X79002859Y-70726643D01*
X79061431Y-70868048D01*
X79146464Y-70995309D01*
X79254691Y-71103536D01*
X79381952Y-71188569D01*
X79523357Y-71247141D01*
X79673472Y-71277000D01*
X79826528Y-71277000D01*
X79976643Y-71247141D01*
X80118048Y-71188569D01*
X80245309Y-71103536D01*
X80353536Y-70995309D01*
X80401535Y-70923472D01*
X81223000Y-70923472D01*
X81223000Y-71076528D01*
X81252859Y-71226643D01*
X81311431Y-71368048D01*
X81396464Y-71495309D01*
X81504691Y-71603536D01*
X81631952Y-71688569D01*
X81773357Y-71747141D01*
X81923472Y-71777000D01*
X82067065Y-71777000D01*
X83039318Y-72749254D01*
X83055027Y-72768395D01*
X83074167Y-72784103D01*
X83074175Y-72784111D01*
X83116592Y-72818921D01*
X83131466Y-72831128D01*
X83218675Y-72877742D01*
X83313302Y-72906447D01*
X83387058Y-72913711D01*
X83387068Y-72913711D01*
X83411711Y-72916138D01*
X83436354Y-72913711D01*
X84355831Y-72913711D01*
X84457367Y-73015247D01*
X84584628Y-73100280D01*
X84726033Y-73158852D01*
X84876148Y-73188711D01*
X85029204Y-73188711D01*
X85179319Y-73158852D01*
X85320724Y-73100280D01*
X85447985Y-73015247D01*
X85556212Y-72907020D01*
X85641245Y-72779759D01*
X85699817Y-72638354D01*
X85729676Y-72488239D01*
X85729676Y-72335183D01*
X85699817Y-72185068D01*
X85641245Y-72043663D01*
X85556212Y-71916402D01*
X85534451Y-71894641D01*
X85610914Y-71780207D01*
X85669486Y-71638802D01*
X85699345Y-71488687D01*
X85699345Y-71335631D01*
X85669486Y-71185516D01*
X85610914Y-71044111D01*
X85525881Y-70916850D01*
X85417654Y-70808623D01*
X85290393Y-70723590D01*
X85148988Y-70665018D01*
X84998873Y-70635159D01*
X84845817Y-70635159D01*
X84695702Y-70665018D01*
X84554297Y-70723590D01*
X84427036Y-70808623D01*
X84325500Y-70910159D01*
X84320094Y-70910159D01*
X83359935Y-69950000D01*
X91169241Y-69950000D01*
X91184243Y-70102319D01*
X91228673Y-70248784D01*
X91300823Y-70383766D01*
X91397920Y-70502080D01*
X91423313Y-70522919D01*
X91340710Y-70590710D01*
X91268725Y-70678423D01*
X91215236Y-70778494D01*
X91182298Y-70887077D01*
X91171176Y-71000000D01*
X91171176Y-71400000D01*
X91182298Y-71512923D01*
X91215236Y-71621506D01*
X91268725Y-71721577D01*
X91340710Y-71809290D01*
X91428423Y-71881275D01*
X91528494Y-71934764D01*
X91637077Y-71967702D01*
X91750000Y-71978824D01*
X92650000Y-71978824D01*
X92762923Y-71967702D01*
X92871506Y-71934764D01*
X92971577Y-71881275D01*
X93059290Y-71809290D01*
X93131275Y-71721577D01*
X93184764Y-71621506D01*
X93217702Y-71512923D01*
X93228824Y-71400000D01*
X93228824Y-71000000D01*
X93217702Y-70887077D01*
X93184764Y-70778494D01*
X93131275Y-70678423D01*
X93059290Y-70590710D01*
X92976687Y-70522919D01*
X93002080Y-70502080D01*
X93099177Y-70383766D01*
X93171327Y-70248784D01*
X93209340Y-70123472D01*
X95423000Y-70123472D01*
X95423000Y-70276528D01*
X95452859Y-70426643D01*
X95511431Y-70568048D01*
X95596464Y-70695309D01*
X95704691Y-70803536D01*
X95831952Y-70888569D01*
X95973357Y-70947141D01*
X96082050Y-70968761D01*
X96340368Y-71227079D01*
X96340367Y-71907174D01*
X96278798Y-71999319D01*
X96220226Y-72140724D01*
X96190367Y-72290839D01*
X96190367Y-72443895D01*
X96220226Y-72594010D01*
X96278798Y-72735415D01*
X96363831Y-72862676D01*
X96472058Y-72970903D01*
X96599319Y-73055936D01*
X96740724Y-73114508D01*
X96890839Y-73144367D01*
X97043895Y-73144367D01*
X97194010Y-73114508D01*
X97335415Y-73055936D01*
X97462676Y-72970903D01*
X97570903Y-72862676D01*
X97655936Y-72735415D01*
X97714508Y-72594010D01*
X97744367Y-72443895D01*
X97744367Y-72290839D01*
X97714508Y-72140724D01*
X97655936Y-71999319D01*
X97594367Y-71907174D01*
X97594367Y-71323472D01*
X108823000Y-71323472D01*
X108823000Y-71476528D01*
X108852859Y-71626643D01*
X108911431Y-71768048D01*
X108996464Y-71895309D01*
X109104691Y-72003536D01*
X109231952Y-72088569D01*
X109373357Y-72147141D01*
X109523472Y-72177000D01*
X109676528Y-72177000D01*
X109826643Y-72147141D01*
X109968048Y-72088569D01*
X110060193Y-72027000D01*
X111073001Y-72027000D01*
X111073000Y-73039807D01*
X111011431Y-73131952D01*
X110952859Y-73273357D01*
X110923000Y-73423472D01*
X110923000Y-73576528D01*
X110952859Y-73726643D01*
X111011431Y-73868048D01*
X111096464Y-73995309D01*
X111204691Y-74103536D01*
X111331952Y-74188569D01*
X111473357Y-74247141D01*
X111623472Y-74277000D01*
X111776528Y-74277000D01*
X111926643Y-74247141D01*
X112068048Y-74188569D01*
X112195309Y-74103536D01*
X112303536Y-73995309D01*
X112388569Y-73868048D01*
X112447141Y-73726643D01*
X112477000Y-73576528D01*
X112477000Y-73423472D01*
X112447141Y-73273357D01*
X112388569Y-73131952D01*
X112327000Y-73039807D01*
X112327000Y-71971845D01*
X112403536Y-71895309D01*
X112488569Y-71768048D01*
X112547141Y-71626643D01*
X112577000Y-71476528D01*
X112577000Y-71323472D01*
X112547141Y-71173357D01*
X112488569Y-71031952D01*
X112403536Y-70904691D01*
X112295309Y-70796464D01*
X112168048Y-70711431D01*
X112026643Y-70652859D01*
X111876528Y-70623000D01*
X111723472Y-70623000D01*
X111573357Y-70652859D01*
X111431952Y-70711431D01*
X111339807Y-70773000D01*
X110060193Y-70773000D01*
X109968048Y-70711431D01*
X109826643Y-70652859D01*
X109676528Y-70623000D01*
X109523472Y-70623000D01*
X109373357Y-70652859D01*
X109231952Y-70711431D01*
X109104691Y-70796464D01*
X108996464Y-70904691D01*
X108911431Y-71031952D01*
X108852859Y-71173357D01*
X108823000Y-71323472D01*
X97594367Y-71323472D01*
X97594367Y-70998161D01*
X97597400Y-70967367D01*
X97585294Y-70844454D01*
X97577247Y-70817926D01*
X97549442Y-70726264D01*
X97491220Y-70617339D01*
X97412868Y-70521866D01*
X97388940Y-70502229D01*
X96968761Y-70082050D01*
X96947141Y-69973357D01*
X96888569Y-69831952D01*
X96803536Y-69704691D01*
X96695309Y-69596464D01*
X96568048Y-69511431D01*
X96426643Y-69452859D01*
X96276528Y-69423000D01*
X96123472Y-69423000D01*
X95973357Y-69452859D01*
X95831952Y-69511431D01*
X95704691Y-69596464D01*
X95596464Y-69704691D01*
X95511431Y-69831952D01*
X95452859Y-69973357D01*
X95423000Y-70123472D01*
X93209340Y-70123472D01*
X93215757Y-70102319D01*
X93230759Y-69950000D01*
X93215757Y-69797681D01*
X93171327Y-69651216D01*
X93099177Y-69516234D01*
X93002080Y-69397920D01*
X92883766Y-69300823D01*
X92748784Y-69228673D01*
X92602319Y-69184243D01*
X92488166Y-69173000D01*
X91911834Y-69173000D01*
X91797681Y-69184243D01*
X91651216Y-69228673D01*
X91516234Y-69300823D01*
X91397920Y-69397920D01*
X91300823Y-69516234D01*
X91228673Y-69651216D01*
X91184243Y-69797681D01*
X91169241Y-69950000D01*
X83359935Y-69950000D01*
X83302000Y-69892066D01*
X83302000Y-68798476D01*
X83331974Y-68798476D01*
X83331974Y-68951532D01*
X83361833Y-69101647D01*
X83420405Y-69243052D01*
X83505438Y-69370313D01*
X83613665Y-69478540D01*
X83740926Y-69563573D01*
X83882331Y-69622145D01*
X84032446Y-69652004D01*
X84185502Y-69652004D01*
X84335617Y-69622145D01*
X84477022Y-69563573D01*
X84604283Y-69478540D01*
X84712510Y-69370313D01*
X84797543Y-69243052D01*
X84856115Y-69101647D01*
X84885974Y-68951532D01*
X84885974Y-68807938D01*
X85945887Y-67748026D01*
X86013983Y-67734481D01*
X86155388Y-67675909D01*
X86282649Y-67590876D01*
X86390876Y-67482649D01*
X86475909Y-67355388D01*
X86534481Y-67213983D01*
X86564340Y-67063868D01*
X86564340Y-66910812D01*
X86534481Y-66760697D01*
X86475909Y-66619292D01*
X86390876Y-66492031D01*
X86282649Y-66383804D01*
X86155388Y-66298771D01*
X86013983Y-66240199D01*
X85863868Y-66210340D01*
X85710812Y-66210340D01*
X85560697Y-66240199D01*
X85419292Y-66298771D01*
X85292031Y-66383804D01*
X85183804Y-66492031D01*
X85098771Y-66619292D01*
X85040199Y-66760697D01*
X85010340Y-66910812D01*
X85010340Y-67063868D01*
X85040199Y-67213983D01*
X85046016Y-67228027D01*
X84176040Y-68098004D01*
X84032446Y-68098004D01*
X83882331Y-68127863D01*
X83740926Y-68186435D01*
X83613665Y-68271468D01*
X83505438Y-68379695D01*
X83420405Y-68506956D01*
X83361833Y-68648361D01*
X83331974Y-68798476D01*
X83302000Y-68798476D01*
X83302000Y-65923435D01*
X95830625Y-65923435D01*
X95830625Y-66076491D01*
X95860484Y-66226606D01*
X95919056Y-66368011D01*
X96004089Y-66495272D01*
X96105625Y-66596808D01*
X96105626Y-67482986D01*
X96103198Y-67507639D01*
X96112890Y-67606048D01*
X96141595Y-67700675D01*
X96188209Y-67787884D01*
X96223000Y-67830277D01*
X96223000Y-67976542D01*
X96252859Y-68126657D01*
X96311431Y-68268062D01*
X96396464Y-68395323D01*
X96504691Y-68503550D01*
X96631952Y-68588583D01*
X96773357Y-68647155D01*
X96923472Y-68677014D01*
X97076528Y-68677014D01*
X97226643Y-68647155D01*
X97368048Y-68588583D01*
X97422927Y-68551914D01*
X97497158Y-68626145D01*
X97624419Y-68711178D01*
X97765824Y-68769750D01*
X97915939Y-68799609D01*
X98068995Y-68799609D01*
X98219110Y-68769750D01*
X98360515Y-68711178D01*
X98487776Y-68626145D01*
X98596003Y-68517918D01*
X98681036Y-68390657D01*
X98739608Y-68249252D01*
X98769467Y-68099137D01*
X98769467Y-67946081D01*
X98739608Y-67795966D01*
X98681036Y-67654561D01*
X98596003Y-67527300D01*
X98494467Y-67425764D01*
X98494467Y-66110434D01*
X98529891Y-66075010D01*
X98614924Y-65947749D01*
X98673496Y-65806344D01*
X98689979Y-65723476D01*
X109223000Y-65723476D01*
X109223000Y-65876532D01*
X109252859Y-66026647D01*
X109311431Y-66168052D01*
X109373001Y-66260198D01*
X109373000Y-68139851D01*
X109311431Y-68231996D01*
X109252859Y-68373401D01*
X109223000Y-68523516D01*
X109223000Y-68676572D01*
X109252859Y-68826687D01*
X109311431Y-68968092D01*
X109396464Y-69095353D01*
X109504691Y-69203580D01*
X109631952Y-69288613D01*
X109773357Y-69347185D01*
X109923472Y-69377044D01*
X110076528Y-69377044D01*
X110226643Y-69347185D01*
X110368048Y-69288613D01*
X110495309Y-69203580D01*
X110603536Y-69095353D01*
X110688569Y-68968092D01*
X110747141Y-68826687D01*
X110777000Y-68676572D01*
X110777000Y-68523516D01*
X110747141Y-68373401D01*
X110688569Y-68231996D01*
X110627000Y-68139851D01*
X110627000Y-66260197D01*
X110688569Y-66168052D01*
X110747141Y-66026647D01*
X110777000Y-65876532D01*
X110777000Y-65723476D01*
X110747141Y-65573361D01*
X110688569Y-65431956D01*
X110603536Y-65304695D01*
X110495309Y-65196468D01*
X110368048Y-65111435D01*
X110226643Y-65052863D01*
X110076528Y-65023004D01*
X109923472Y-65023004D01*
X109773357Y-65052863D01*
X109631952Y-65111435D01*
X109504691Y-65196468D01*
X109396464Y-65304695D01*
X109311431Y-65431956D01*
X109252859Y-65573361D01*
X109223000Y-65723476D01*
X98689979Y-65723476D01*
X98703355Y-65656229D01*
X98703355Y-65503173D01*
X98673496Y-65353058D01*
X98614924Y-65211653D01*
X98529891Y-65084392D01*
X98421664Y-64976165D01*
X98294403Y-64891132D01*
X98152998Y-64832560D01*
X98002883Y-64802701D01*
X97849827Y-64802701D01*
X97699712Y-64832560D01*
X97558307Y-64891132D01*
X97431046Y-64976165D01*
X97322819Y-65084392D01*
X97237786Y-65211653D01*
X97179214Y-65353058D01*
X97159363Y-65452856D01*
X97102934Y-65396427D01*
X96975673Y-65311394D01*
X96834268Y-65252822D01*
X96684153Y-65222963D01*
X96531097Y-65222963D01*
X96380982Y-65252822D01*
X96239577Y-65311394D01*
X96112316Y-65396427D01*
X96004089Y-65504654D01*
X95919056Y-65631915D01*
X95860484Y-65773320D01*
X95830625Y-65923435D01*
X83302000Y-65923435D01*
X83302000Y-65574827D01*
X83353680Y-65553420D01*
X83480941Y-65468387D01*
X83589168Y-65360160D01*
X83674201Y-65232899D01*
X83732773Y-65091494D01*
X83762632Y-64941379D01*
X83762632Y-64788323D01*
X83732773Y-64638208D01*
X83674201Y-64496803D01*
X83589168Y-64369542D01*
X83480941Y-64261315D01*
X83353680Y-64176282D01*
X83212275Y-64117710D01*
X83062160Y-64087851D01*
X82909104Y-64087851D01*
X82758989Y-64117710D01*
X82617584Y-64176282D01*
X82490323Y-64261315D01*
X82382096Y-64369542D01*
X82297063Y-64496803D01*
X82238491Y-64638208D01*
X82208632Y-64788323D01*
X82208632Y-64941379D01*
X82238491Y-65091494D01*
X82297063Y-65232899D01*
X82298001Y-65234303D01*
X82298000Y-70075357D01*
X82295573Y-70100000D01*
X82298000Y-70124643D01*
X82298000Y-70124652D01*
X82305264Y-70198408D01*
X82333969Y-70293035D01*
X82336907Y-70298532D01*
X82226643Y-70252859D01*
X82076528Y-70223000D01*
X81923472Y-70223000D01*
X81773357Y-70252859D01*
X81631952Y-70311431D01*
X81504691Y-70396464D01*
X81396464Y-70504691D01*
X81311431Y-70631952D01*
X81252859Y-70773357D01*
X81223000Y-70923472D01*
X80401535Y-70923472D01*
X80438569Y-70868048D01*
X80497141Y-70726643D01*
X80527000Y-70576528D01*
X80527000Y-70432934D01*
X80806251Y-70153684D01*
X80923472Y-70177000D01*
X81076528Y-70177000D01*
X81226643Y-70147141D01*
X81368048Y-70088569D01*
X81495309Y-70003536D01*
X81603536Y-69895309D01*
X81688569Y-69768048D01*
X81747141Y-69626643D01*
X81777000Y-69476528D01*
X81777000Y-69323472D01*
X81747141Y-69173357D01*
X81688569Y-69031952D01*
X81603536Y-68904691D01*
X81495309Y-68796464D01*
X81368048Y-68711431D01*
X81226643Y-68652859D01*
X81076528Y-68623000D01*
X80923472Y-68623000D01*
X80773357Y-68652859D01*
X80631952Y-68711431D01*
X80504691Y-68796464D01*
X80396464Y-68904691D01*
X80311431Y-69031952D01*
X80252859Y-69173357D01*
X80224591Y-69315474D01*
X79817066Y-69723000D01*
X79673472Y-69723000D01*
X79523357Y-69752859D01*
X79381952Y-69811431D01*
X79254691Y-69896464D01*
X79146464Y-70004691D01*
X79061431Y-70131952D01*
X79002859Y-70273357D01*
X78973000Y-70423472D01*
X73377000Y-70423472D01*
X73377000Y-70348551D01*
X73347141Y-70198436D01*
X73288569Y-70057031D01*
X73203536Y-69929770D01*
X73095309Y-69821543D01*
X72968048Y-69736510D01*
X72826643Y-69677938D01*
X72676528Y-69648079D01*
X72523472Y-69648079D01*
X72373357Y-69677938D01*
X72231952Y-69736510D01*
X72104691Y-69821543D01*
X71996464Y-69929770D01*
X71911431Y-70057031D01*
X71852859Y-70198436D01*
X71823000Y-70348551D01*
X65346255Y-70348551D01*
X65367725Y-70296718D01*
X65397584Y-70146603D01*
X65397584Y-69993547D01*
X65367725Y-69843432D01*
X65309153Y-69702027D01*
X65224120Y-69574766D01*
X65115893Y-69466539D01*
X64988632Y-69381506D01*
X64847227Y-69322934D01*
X64697112Y-69293075D01*
X64544056Y-69293075D01*
X64393941Y-69322934D01*
X64252536Y-69381506D01*
X64125275Y-69466539D01*
X64017048Y-69574766D01*
X64004814Y-69593075D01*
X63828982Y-69593075D01*
X63639698Y-69403792D01*
X63643994Y-69382195D01*
X63643994Y-69229139D01*
X63614135Y-69079024D01*
X63555563Y-68937619D01*
X63470530Y-68810358D01*
X63362303Y-68702131D01*
X63235042Y-68617098D01*
X63093637Y-68558526D01*
X62943522Y-68528667D01*
X62790466Y-68528667D01*
X62640351Y-68558526D01*
X62498946Y-68617098D01*
X62371685Y-68702131D01*
X62263458Y-68810358D01*
X62178425Y-68937619D01*
X62119853Y-69079024D01*
X62089994Y-69229139D01*
X60894136Y-69229139D01*
X60907869Y-69217869D01*
X60954981Y-69160463D01*
X60989988Y-69094970D01*
X61011545Y-69023905D01*
X61018824Y-68950000D01*
X61018824Y-66550000D01*
X61011545Y-66476095D01*
X60989988Y-66405030D01*
X60954981Y-66339537D01*
X60907869Y-66282131D01*
X60850463Y-66235019D01*
X60784970Y-66200012D01*
X60713905Y-66178455D01*
X60640000Y-66171176D01*
X59900000Y-66171176D01*
X59826095Y-66178455D01*
X59755030Y-66200012D01*
X59689537Y-66235019D01*
X59632131Y-66282131D01*
X59585019Y-66339537D01*
X59550012Y-66405030D01*
X59528455Y-66476095D01*
X59521176Y-66550000D01*
X57208824Y-66550000D01*
X57201545Y-66476095D01*
X57179988Y-66405030D01*
X57144981Y-66339537D01*
X57097869Y-66282131D01*
X57040463Y-66235019D01*
X56974970Y-66200012D01*
X56903905Y-66178455D01*
X56830000Y-66171176D01*
X56090000Y-66171176D01*
X56016095Y-66178455D01*
X55945030Y-66200012D01*
X55879537Y-66235019D01*
X55822131Y-66282131D01*
X55775019Y-66339537D01*
X55740012Y-66405030D01*
X55718455Y-66476095D01*
X55711176Y-66550000D01*
X55711176Y-67306818D01*
X55683000Y-67448472D01*
X40402000Y-67448472D01*
X40402000Y-65127000D01*
X55000000Y-65127000D01*
X55024776Y-65124560D01*
X55048601Y-65117333D01*
X55070557Y-65105597D01*
X55089803Y-65089803D01*
X55105597Y-65070557D01*
X55117333Y-65048601D01*
X55124560Y-65024776D01*
X55127000Y-65000000D01*
X55127000Y-64627100D01*
X69230299Y-64627100D01*
X69230299Y-64780156D01*
X69260158Y-64930271D01*
X69318730Y-65071676D01*
X69403763Y-65198937D01*
X69511990Y-65307164D01*
X69639251Y-65392197D01*
X69780656Y-65450769D01*
X69930771Y-65480628D01*
X70083827Y-65480628D01*
X70134749Y-65470499D01*
X70777459Y-66113210D01*
X70777459Y-66256803D01*
X70807318Y-66406918D01*
X70865890Y-66548323D01*
X70950923Y-66675584D01*
X71059150Y-66783811D01*
X71186411Y-66868844D01*
X71327816Y-66927416D01*
X71477931Y-66957275D01*
X71630987Y-66957275D01*
X71781102Y-66927416D01*
X71922507Y-66868844D01*
X72049768Y-66783811D01*
X72157995Y-66675584D01*
X72243028Y-66548323D01*
X72301600Y-66406918D01*
X72331459Y-66256803D01*
X72331459Y-66223472D01*
X72623002Y-66223472D01*
X72623002Y-66376528D01*
X72652861Y-66526643D01*
X72711433Y-66668048D01*
X72796466Y-66795309D01*
X72904693Y-66903536D01*
X73031954Y-66988569D01*
X73173359Y-67047141D01*
X73323474Y-67077000D01*
X73467068Y-67077000D01*
X74202541Y-67812474D01*
X74218254Y-67831620D01*
X74294693Y-67894353D01*
X74381902Y-67940967D01*
X74476529Y-67969672D01*
X74550285Y-67976936D01*
X74550294Y-67976936D01*
X74574937Y-67979363D01*
X74599580Y-67976936D01*
X75203155Y-67976936D01*
X75304691Y-68078472D01*
X75431952Y-68163505D01*
X75573357Y-68222077D01*
X75723472Y-68251936D01*
X75876528Y-68251936D01*
X76026643Y-68222077D01*
X76168048Y-68163505D01*
X76295309Y-68078472D01*
X76403536Y-67970245D01*
X76488569Y-67842984D01*
X76547141Y-67701579D01*
X76577000Y-67551464D01*
X76577000Y-67398408D01*
X76547141Y-67248293D01*
X76488569Y-67106888D01*
X76403536Y-66979627D01*
X76295309Y-66871400D01*
X76168048Y-66786367D01*
X76026643Y-66727795D01*
X75876528Y-66697936D01*
X75723472Y-66697936D01*
X75573357Y-66727795D01*
X75431952Y-66786367D01*
X75304691Y-66871400D01*
X75203155Y-66972936D01*
X74782873Y-66972936D01*
X74177002Y-66367066D01*
X74177002Y-66223472D01*
X74147143Y-66073357D01*
X74088571Y-65931952D01*
X74003538Y-65804691D01*
X73895311Y-65696464D01*
X73768050Y-65611431D01*
X73626645Y-65552859D01*
X73476530Y-65523000D01*
X73323474Y-65523000D01*
X73173359Y-65552859D01*
X73031954Y-65611431D01*
X72904693Y-65696464D01*
X72796466Y-65804691D01*
X72711433Y-65931952D01*
X72652861Y-66073357D01*
X72623002Y-66223472D01*
X72331459Y-66223472D01*
X72331459Y-66103747D01*
X72301600Y-65953632D01*
X72243028Y-65812227D01*
X72157995Y-65684966D01*
X72049768Y-65576739D01*
X71922507Y-65491706D01*
X71781102Y-65433134D01*
X71630987Y-65403275D01*
X71487394Y-65403275D01*
X70784299Y-64700181D01*
X70784299Y-64627100D01*
X70754440Y-64476985D01*
X70695868Y-64335580D01*
X70610835Y-64208319D01*
X70502608Y-64100092D01*
X70375347Y-64015059D01*
X70233942Y-63956487D01*
X70083827Y-63926628D01*
X69930771Y-63926628D01*
X69780656Y-63956487D01*
X69639251Y-64015059D01*
X69511990Y-64100092D01*
X69403763Y-64208319D01*
X69318730Y-64335580D01*
X69260158Y-64476985D01*
X69230299Y-64627100D01*
X55127000Y-64627100D01*
X55127000Y-56423472D01*
X59923000Y-56423472D01*
X59923000Y-56576528D01*
X59952859Y-56726643D01*
X60011431Y-56868048D01*
X60096464Y-56995309D01*
X60204691Y-57103536D01*
X60331952Y-57188569D01*
X60473357Y-57247141D01*
X60623472Y-57277000D01*
X60776528Y-57277000D01*
X60926643Y-57247141D01*
X61068048Y-57188569D01*
X61195309Y-57103536D01*
X61303536Y-56995309D01*
X61336282Y-56946301D01*
X61336282Y-61000000D01*
X61348483Y-61123882D01*
X61384618Y-61243004D01*
X61443299Y-61352787D01*
X61522269Y-61449013D01*
X61618495Y-61527983D01*
X61728278Y-61586664D01*
X61847400Y-61622799D01*
X61971282Y-61635000D01*
X67234631Y-61635000D01*
X67252859Y-61726643D01*
X67311431Y-61868048D01*
X67396464Y-61995309D01*
X67504691Y-62103536D01*
X67631952Y-62188569D01*
X67773357Y-62247141D01*
X67923472Y-62277000D01*
X68076528Y-62277000D01*
X68226643Y-62247141D01*
X68368048Y-62188569D01*
X68495309Y-62103536D01*
X68596845Y-62002000D01*
X72675357Y-62002000D01*
X72700000Y-62004427D01*
X72724643Y-62002000D01*
X72724653Y-62002000D01*
X72798409Y-61994736D01*
X72893036Y-61966031D01*
X72980245Y-61919417D01*
X73056684Y-61856684D01*
X73072401Y-61837533D01*
X73637538Y-61272397D01*
X73656684Y-61256684D01*
X73681046Y-61227000D01*
X73719416Y-61180246D01*
X73719417Y-61180245D01*
X73766031Y-61093036D01*
X73794736Y-60998409D01*
X73802000Y-60924653D01*
X73802000Y-60924644D01*
X73804427Y-60900001D01*
X73802000Y-60875358D01*
X73802000Y-56293016D01*
X74471544Y-55623472D01*
X89423000Y-55623472D01*
X89423000Y-55776528D01*
X89452859Y-55926643D01*
X89511431Y-56068048D01*
X89596464Y-56195309D01*
X89704691Y-56303536D01*
X89831952Y-56388569D01*
X89973357Y-56447141D01*
X90123472Y-56477000D01*
X90276528Y-56477000D01*
X90336282Y-56465114D01*
X90336282Y-61000000D01*
X90348483Y-61123882D01*
X90384618Y-61243004D01*
X90443299Y-61352787D01*
X90522269Y-61449013D01*
X90618495Y-61527983D01*
X90728278Y-61586664D01*
X90847400Y-61622799D01*
X90971282Y-61635000D01*
X95176212Y-61635000D01*
X95111431Y-61731952D01*
X95052859Y-61873357D01*
X95023000Y-62023472D01*
X95023000Y-62176528D01*
X95052859Y-62326643D01*
X95111431Y-62468048D01*
X95196464Y-62595309D01*
X95304691Y-62703536D01*
X95431952Y-62788569D01*
X95573357Y-62847141D01*
X95723472Y-62877000D01*
X95876528Y-62877000D01*
X96026643Y-62847141D01*
X96168048Y-62788569D01*
X96295309Y-62703536D01*
X96397556Y-62601289D01*
X96464094Y-62594736D01*
X96558721Y-62566031D01*
X96645930Y-62519417D01*
X96722369Y-62456684D01*
X96738086Y-62437533D01*
X97273620Y-61902000D01*
X102175357Y-61902000D01*
X102200000Y-61904427D01*
X102224643Y-61902000D01*
X102224653Y-61902000D01*
X102298409Y-61894736D01*
X102393036Y-61866031D01*
X102480245Y-61819417D01*
X102556684Y-61756684D01*
X102572401Y-61737533D01*
X103037543Y-61272393D01*
X103056684Y-61256684D01*
X103072392Y-61237544D01*
X103072400Y-61237536D01*
X103119417Y-61180246D01*
X103147556Y-61127601D01*
X103166031Y-61093036D01*
X103194736Y-60998409D01*
X103202000Y-60924653D01*
X103202000Y-60924643D01*
X103204427Y-60900000D01*
X103202000Y-60875357D01*
X103202000Y-55823472D01*
X115123000Y-55823472D01*
X115123000Y-55976528D01*
X115152859Y-56126643D01*
X115211431Y-56268048D01*
X115296464Y-56395309D01*
X115404691Y-56503536D01*
X115531952Y-56588569D01*
X115673357Y-56647141D01*
X115823472Y-56677000D01*
X115976528Y-56677000D01*
X116126643Y-56647141D01*
X116268048Y-56588569D01*
X116395309Y-56503536D01*
X116503536Y-56395309D01*
X116588569Y-56268048D01*
X116647141Y-56126643D01*
X116677000Y-55976528D01*
X116677000Y-55832934D01*
X117365000Y-55144935D01*
X117365000Y-61000000D01*
X117377201Y-61123882D01*
X117413336Y-61243004D01*
X117472017Y-61352787D01*
X117550987Y-61449013D01*
X117647213Y-61527983D01*
X117756996Y-61586664D01*
X117876118Y-61622799D01*
X118000000Y-61635000D01*
X122040598Y-61635000D01*
X122023000Y-61723472D01*
X122023000Y-61876528D01*
X122052859Y-62026643D01*
X122111431Y-62168048D01*
X122196464Y-62295309D01*
X122304691Y-62403536D01*
X122431952Y-62488569D01*
X122573357Y-62547141D01*
X122723472Y-62577000D01*
X122876528Y-62577000D01*
X123026643Y-62547141D01*
X123168048Y-62488569D01*
X123295309Y-62403536D01*
X123397556Y-62301289D01*
X123464094Y-62294736D01*
X123558721Y-62266031D01*
X123645930Y-62219417D01*
X123722369Y-62156684D01*
X123738087Y-62137532D01*
X123873619Y-62002000D01*
X128975347Y-62002000D01*
X129000000Y-62004428D01*
X129024653Y-62002000D01*
X129098409Y-61994736D01*
X129193036Y-61966031D01*
X129280245Y-61919417D01*
X129356684Y-61856684D01*
X129419417Y-61780245D01*
X129466031Y-61693036D01*
X129494736Y-61598409D01*
X129504428Y-61500000D01*
X129502000Y-61475347D01*
X129502000Y-61384448D01*
X129527983Y-61352787D01*
X129586664Y-61243004D01*
X129622799Y-61123882D01*
X129635000Y-61000000D01*
X129635000Y-55096046D01*
X129753050Y-55047148D01*
X129880311Y-54962115D01*
X129988538Y-54853888D01*
X130073571Y-54726627D01*
X130132143Y-54585222D01*
X130162002Y-54435107D01*
X130162002Y-54282051D01*
X130132143Y-54131936D01*
X130073571Y-53990531D01*
X129988538Y-53863270D01*
X129880311Y-53755043D01*
X129753050Y-53670010D01*
X129635000Y-53621112D01*
X129635000Y-47000000D01*
X129622799Y-46876118D01*
X129586664Y-46756996D01*
X129527983Y-46647213D01*
X129449013Y-46550987D01*
X129352787Y-46472017D01*
X129243004Y-46413336D01*
X129123882Y-46377201D01*
X129000000Y-46365000D01*
X127948220Y-46365000D01*
X127868048Y-46311431D01*
X127726643Y-46252859D01*
X127576528Y-46223000D01*
X127423472Y-46223000D01*
X127273357Y-46252859D01*
X127131952Y-46311431D01*
X127051780Y-46365000D01*
X126698220Y-46365000D01*
X126618048Y-46311431D01*
X126476643Y-46252859D01*
X126326528Y-46223000D01*
X126173472Y-46223000D01*
X126023357Y-46252859D01*
X125881952Y-46311431D01*
X125801780Y-46365000D01*
X125448220Y-46365000D01*
X125368048Y-46311431D01*
X125226643Y-46252859D01*
X125076528Y-46223000D01*
X124923472Y-46223000D01*
X124773357Y-46252859D01*
X124631952Y-46311431D01*
X124551780Y-46365000D01*
X124198220Y-46365000D01*
X124118048Y-46311431D01*
X123976643Y-46252859D01*
X123826528Y-46223000D01*
X123673472Y-46223000D01*
X123523357Y-46252859D01*
X123381952Y-46311431D01*
X123301780Y-46365000D01*
X122948220Y-46365000D01*
X122868048Y-46311431D01*
X122726643Y-46252859D01*
X122576528Y-46223000D01*
X122423472Y-46223000D01*
X122273357Y-46252859D01*
X122131952Y-46311431D01*
X122051780Y-46365000D01*
X121698220Y-46365000D01*
X121618048Y-46311431D01*
X121476643Y-46252859D01*
X121326528Y-46223000D01*
X121173472Y-46223000D01*
X121023357Y-46252859D01*
X120881952Y-46311431D01*
X120801780Y-46365000D01*
X120448220Y-46365000D01*
X120368048Y-46311431D01*
X120226643Y-46252859D01*
X120076528Y-46223000D01*
X119923472Y-46223000D01*
X119773357Y-46252859D01*
X119631952Y-46311431D01*
X119551780Y-46365000D01*
X118000000Y-46365000D01*
X117876118Y-46377201D01*
X117756996Y-46413336D01*
X117647213Y-46472017D01*
X117550987Y-46550987D01*
X117472017Y-46647213D01*
X117421419Y-46741874D01*
X117326528Y-46723000D01*
X117173472Y-46723000D01*
X117023357Y-46752859D01*
X116881952Y-46811431D01*
X116754691Y-46896464D01*
X116646464Y-47004691D01*
X116561431Y-47131952D01*
X116502859Y-47273357D01*
X116473000Y-47423472D01*
X116473000Y-47576528D01*
X116502859Y-47726643D01*
X116561431Y-47868048D01*
X116646464Y-47995309D01*
X116748001Y-48096846D01*
X116748000Y-54342065D01*
X115967066Y-55123000D01*
X115823472Y-55123000D01*
X115673357Y-55152859D01*
X115531952Y-55211431D01*
X115404691Y-55296464D01*
X115296464Y-55404691D01*
X115211431Y-55531952D01*
X115152859Y-55673357D01*
X115123000Y-55823472D01*
X103202000Y-55823472D01*
X103202000Y-54996845D01*
X103303536Y-54895309D01*
X103388569Y-54768048D01*
X103447141Y-54626643D01*
X103477000Y-54476528D01*
X103477000Y-54323472D01*
X103447141Y-54173357D01*
X103388569Y-54031952D01*
X103303536Y-53904691D01*
X103195309Y-53796464D01*
X103068048Y-53711431D01*
X102926643Y-53652859D01*
X102776528Y-53623000D01*
X102623472Y-53623000D01*
X102606282Y-53626419D01*
X102606282Y-47000000D01*
X102594081Y-46876118D01*
X102557946Y-46756996D01*
X102499265Y-46647213D01*
X102420295Y-46550987D01*
X102324069Y-46472017D01*
X102214286Y-46413336D01*
X102095164Y-46377201D01*
X101971282Y-46365000D01*
X101948220Y-46365000D01*
X101868048Y-46311431D01*
X101726643Y-46252859D01*
X101576528Y-46223000D01*
X101423472Y-46223000D01*
X101273357Y-46252859D01*
X101131952Y-46311431D01*
X101051780Y-46365000D01*
X100698220Y-46365000D01*
X100618048Y-46311431D01*
X100476643Y-46252859D01*
X100326528Y-46223000D01*
X100173472Y-46223000D01*
X100023357Y-46252859D01*
X99881952Y-46311431D01*
X99801780Y-46365000D01*
X99448220Y-46365000D01*
X99368048Y-46311431D01*
X99226643Y-46252859D01*
X99076528Y-46223000D01*
X98923472Y-46223000D01*
X98773357Y-46252859D01*
X98631952Y-46311431D01*
X98551780Y-46365000D01*
X98198220Y-46365000D01*
X98118048Y-46311431D01*
X97976643Y-46252859D01*
X97826528Y-46223000D01*
X97673472Y-46223000D01*
X97523357Y-46252859D01*
X97381952Y-46311431D01*
X97301780Y-46365000D01*
X96948220Y-46365000D01*
X96868048Y-46311431D01*
X96726643Y-46252859D01*
X96576528Y-46223000D01*
X96423472Y-46223000D01*
X96273357Y-46252859D01*
X96131952Y-46311431D01*
X96051780Y-46365000D01*
X95698220Y-46365000D01*
X95618048Y-46311431D01*
X95476643Y-46252859D01*
X95326528Y-46223000D01*
X95173472Y-46223000D01*
X95023357Y-46252859D01*
X94881952Y-46311431D01*
X94801780Y-46365000D01*
X94448220Y-46365000D01*
X94368048Y-46311431D01*
X94226643Y-46252859D01*
X94076528Y-46223000D01*
X93923472Y-46223000D01*
X93773357Y-46252859D01*
X93631952Y-46311431D01*
X93551780Y-46365000D01*
X91065369Y-46365000D01*
X91047141Y-46273357D01*
X90988569Y-46131952D01*
X90903536Y-46004691D01*
X90795309Y-45896464D01*
X90668048Y-45811431D01*
X90526643Y-45752859D01*
X90376528Y-45723000D01*
X90223472Y-45723000D01*
X90073357Y-45752859D01*
X89931952Y-45811431D01*
X89804691Y-45896464D01*
X89696464Y-46004691D01*
X89611431Y-46131952D01*
X89552859Y-46273357D01*
X89523000Y-46423472D01*
X89523000Y-46576528D01*
X89552859Y-46726643D01*
X89611431Y-46868048D01*
X89696464Y-46995309D01*
X89698001Y-46996846D01*
X89698000Y-55103155D01*
X89596464Y-55204691D01*
X89511431Y-55331952D01*
X89452859Y-55473357D01*
X89423000Y-55623472D01*
X74471544Y-55623472D01*
X74518017Y-55577000D01*
X74661610Y-55577000D01*
X74811725Y-55547141D01*
X74953130Y-55488569D01*
X75080391Y-55403536D01*
X75188618Y-55295309D01*
X75273651Y-55168048D01*
X75332223Y-55026643D01*
X75362082Y-54876528D01*
X75362082Y-54723472D01*
X75332223Y-54573357D01*
X75273651Y-54431952D01*
X75188618Y-54304691D01*
X75080391Y-54196464D01*
X74953130Y-54111431D01*
X74811725Y-54052859D01*
X74661610Y-54023000D01*
X74508554Y-54023000D01*
X74358439Y-54052859D01*
X74217034Y-54111431D01*
X74089773Y-54196464D01*
X73981546Y-54304691D01*
X73896513Y-54431952D01*
X73837941Y-54573357D01*
X73808082Y-54723472D01*
X73808082Y-54867065D01*
X73606282Y-55068865D01*
X73606282Y-47000000D01*
X73594081Y-46876118D01*
X73557946Y-46756996D01*
X73499265Y-46647213D01*
X73420295Y-46550987D01*
X73324069Y-46472017D01*
X73214286Y-46413336D01*
X73095164Y-46377201D01*
X72971282Y-46365000D01*
X72948220Y-46365000D01*
X72868048Y-46311431D01*
X72726643Y-46252859D01*
X72576528Y-46223000D01*
X72423472Y-46223000D01*
X72273357Y-46252859D01*
X72131952Y-46311431D01*
X72051780Y-46365000D01*
X71698220Y-46365000D01*
X71618048Y-46311431D01*
X71476643Y-46252859D01*
X71326528Y-46223000D01*
X71173472Y-46223000D01*
X71023357Y-46252859D01*
X70881952Y-46311431D01*
X70801780Y-46365000D01*
X70448220Y-46365000D01*
X70368048Y-46311431D01*
X70226643Y-46252859D01*
X70076528Y-46223000D01*
X69923472Y-46223000D01*
X69773357Y-46252859D01*
X69631952Y-46311431D01*
X69551780Y-46365000D01*
X69198220Y-46365000D01*
X69118048Y-46311431D01*
X68976643Y-46252859D01*
X68826528Y-46223000D01*
X68673472Y-46223000D01*
X68523357Y-46252859D01*
X68381952Y-46311431D01*
X68301780Y-46365000D01*
X67948220Y-46365000D01*
X67868048Y-46311431D01*
X67726643Y-46252859D01*
X67576528Y-46223000D01*
X67423472Y-46223000D01*
X67273357Y-46252859D01*
X67131952Y-46311431D01*
X67051780Y-46365000D01*
X66698220Y-46365000D01*
X66618048Y-46311431D01*
X66476643Y-46252859D01*
X66326528Y-46223000D01*
X66173472Y-46223000D01*
X66023357Y-46252859D01*
X65881952Y-46311431D01*
X65801780Y-46365000D01*
X65448220Y-46365000D01*
X65368048Y-46311431D01*
X65226643Y-46252859D01*
X65076528Y-46223000D01*
X64923472Y-46223000D01*
X64773357Y-46252859D01*
X64631952Y-46311431D01*
X64551780Y-46365000D01*
X63448220Y-46365000D01*
X63368048Y-46311431D01*
X63226643Y-46252859D01*
X63076528Y-46223000D01*
X62923472Y-46223000D01*
X62773357Y-46252859D01*
X62631952Y-46311431D01*
X62551780Y-46365000D01*
X61971282Y-46365000D01*
X61847400Y-46377201D01*
X61728278Y-46413336D01*
X61618495Y-46472017D01*
X61522269Y-46550987D01*
X61443299Y-46647213D01*
X61384618Y-46756996D01*
X61348483Y-46876118D01*
X61336282Y-47000000D01*
X61336282Y-47953784D01*
X61162463Y-48127603D01*
X61143317Y-48143316D01*
X61127604Y-48162462D01*
X61127601Y-48162465D01*
X61080584Y-48219755D01*
X61033970Y-48306964D01*
X61005265Y-48401591D01*
X60995573Y-48500000D01*
X60998001Y-48524653D01*
X60998000Y-55492064D01*
X60767065Y-55723000D01*
X60623472Y-55723000D01*
X60473357Y-55752859D01*
X60331952Y-55811431D01*
X60204691Y-55896464D01*
X60096464Y-56004691D01*
X60011431Y-56131952D01*
X59952859Y-56273357D01*
X59923000Y-56423472D01*
X55127000Y-56423472D01*
X55127000Y-50750000D01*
X55124560Y-50725224D01*
X55117333Y-50701399D01*
X55105597Y-50679443D01*
X55089803Y-50660197D01*
X55070557Y-50644403D01*
X55048601Y-50632667D01*
X55024776Y-50625440D01*
X55000000Y-50623000D01*
X54000000Y-50623000D01*
X53975224Y-50625440D01*
X53951399Y-50632667D01*
X53929443Y-50644403D01*
X53910197Y-50660197D01*
X53894403Y-50679443D01*
X53882667Y-50701399D01*
X53875440Y-50725224D01*
X53873000Y-50750000D01*
X53873000Y-63873000D01*
X40402000Y-63873000D01*
X40402000Y-58800000D01*
X50421176Y-58800000D01*
X50421176Y-61200000D01*
X50428455Y-61273905D01*
X50450012Y-61344970D01*
X50485019Y-61410463D01*
X50532131Y-61467869D01*
X50589537Y-61514981D01*
X50655030Y-61549988D01*
X50726095Y-61571545D01*
X50800000Y-61578824D01*
X53200000Y-61578824D01*
X53273905Y-61571545D01*
X53344970Y-61549988D01*
X53410463Y-61514981D01*
X53467869Y-61467869D01*
X53514981Y-61410463D01*
X53549988Y-61344970D01*
X53571545Y-61273905D01*
X53578824Y-61200000D01*
X53578824Y-58800000D01*
X53571545Y-58726095D01*
X53549988Y-58655030D01*
X53514981Y-58589537D01*
X53467869Y-58532131D01*
X53410463Y-58485019D01*
X53344970Y-58450012D01*
X53273905Y-58428455D01*
X53200000Y-58421176D01*
X50800000Y-58421176D01*
X50726095Y-58428455D01*
X50655030Y-58450012D01*
X50589537Y-58485019D01*
X50532131Y-58532131D01*
X50485019Y-58589537D01*
X50450012Y-58655030D01*
X50428455Y-58726095D01*
X50421176Y-58800000D01*
X40402000Y-58800000D01*
X40402000Y-42800000D01*
X50421176Y-42800000D01*
X50421176Y-45200000D01*
X50428455Y-45273905D01*
X50450012Y-45344970D01*
X50485019Y-45410463D01*
X50532131Y-45467869D01*
X50589537Y-45514981D01*
X50655030Y-45549988D01*
X50726095Y-45571545D01*
X50800000Y-45578824D01*
X53200000Y-45578824D01*
X53273905Y-45571545D01*
X53344970Y-45549988D01*
X53410463Y-45514981D01*
X53467869Y-45467869D01*
X53514981Y-45410463D01*
X53549988Y-45344970D01*
X53571545Y-45273905D01*
X53578824Y-45200000D01*
X53578824Y-45028232D01*
X84978197Y-45028232D01*
X85022186Y-45420397D01*
X85141508Y-45796551D01*
X85331621Y-46142363D01*
X85585281Y-46444664D01*
X85892827Y-46691937D01*
X86242545Y-46874766D01*
X86621115Y-46986185D01*
X87014116Y-47021951D01*
X87406580Y-46980701D01*
X87783557Y-46864007D01*
X88130688Y-46676314D01*
X88434752Y-46424770D01*
X88684167Y-46118958D01*
X88869432Y-45770524D01*
X88983491Y-45392742D01*
X89019231Y-45028232D01*
X112978197Y-45028232D01*
X113022186Y-45420397D01*
X113141508Y-45796551D01*
X113331621Y-46142363D01*
X113585281Y-46444664D01*
X113892827Y-46691937D01*
X114242545Y-46874766D01*
X114621115Y-46986185D01*
X115014116Y-47021951D01*
X115406580Y-46980701D01*
X115783557Y-46864007D01*
X116130688Y-46676314D01*
X116434752Y-46424770D01*
X116684167Y-46118958D01*
X116869432Y-45770524D01*
X116983491Y-45392742D01*
X117022000Y-45000000D01*
X117021212Y-44943542D01*
X116971752Y-44552029D01*
X116847189Y-44177579D01*
X116652267Y-43834454D01*
X116394411Y-43535724D01*
X116083442Y-43292769D01*
X115731205Y-43114841D01*
X115351117Y-43008719D01*
X114957654Y-42978443D01*
X114565805Y-43025169D01*
X114190494Y-43147115D01*
X113846017Y-43339636D01*
X113545495Y-43595401D01*
X113300374Y-43904666D01*
X113119992Y-44255652D01*
X113011218Y-44634990D01*
X112978197Y-45028232D01*
X89019231Y-45028232D01*
X89022000Y-45000000D01*
X89021212Y-44943542D01*
X88971752Y-44552029D01*
X88847189Y-44177579D01*
X88652267Y-43834454D01*
X88394411Y-43535724D01*
X88083442Y-43292769D01*
X87731205Y-43114841D01*
X87351117Y-43008719D01*
X86957654Y-42978443D01*
X86565805Y-43025169D01*
X86190494Y-43147115D01*
X85846017Y-43339636D01*
X85545495Y-43595401D01*
X85300374Y-43904666D01*
X85119992Y-44255652D01*
X85011218Y-44634990D01*
X84978197Y-45028232D01*
X53578824Y-45028232D01*
X53578824Y-42800000D01*
X53571545Y-42726095D01*
X53549988Y-42655030D01*
X53514981Y-42589537D01*
X53467869Y-42532131D01*
X53410463Y-42485019D01*
X53344970Y-42450012D01*
X53273905Y-42428455D01*
X53200000Y-42421176D01*
X50800000Y-42421176D01*
X50726095Y-42428455D01*
X50655030Y-42450012D01*
X50589537Y-42485019D01*
X50532131Y-42532131D01*
X50485019Y-42589537D01*
X50450012Y-42655030D01*
X50428455Y-42726095D01*
X50421176Y-42800000D01*
X40402000Y-42800000D01*
X40402000Y-31667395D01*
X48223000Y-31667395D01*
X48223000Y-32332605D01*
X48352776Y-32985035D01*
X48607341Y-33599609D01*
X48976913Y-34152712D01*
X49447288Y-34623087D01*
X50000391Y-34992659D01*
X50614965Y-35247224D01*
X51267395Y-35377000D01*
X51932605Y-35377000D01*
X52585035Y-35247224D01*
X53199609Y-34992659D01*
X53752712Y-34623087D01*
X54223087Y-34152712D01*
X54592659Y-33599609D01*
X54847224Y-32985035D01*
X54977000Y-32332605D01*
X54977000Y-31667395D01*
X54847224Y-31014965D01*
X54592659Y-30400391D01*
X54325127Y-30000000D01*
X64336282Y-30000000D01*
X64336282Y-39000000D01*
X64348483Y-39123882D01*
X64384618Y-39243004D01*
X64443299Y-39352787D01*
X64522269Y-39449013D01*
X64618495Y-39527983D01*
X64728278Y-39586664D01*
X64847400Y-39622799D01*
X64971282Y-39635000D01*
X75971282Y-39635000D01*
X76095164Y-39622799D01*
X76214286Y-39586664D01*
X76324069Y-39527983D01*
X76420295Y-39449013D01*
X76499265Y-39352787D01*
X76557946Y-39243004D01*
X76594081Y-39123882D01*
X76606282Y-39000000D01*
X76606282Y-30000000D01*
X92336282Y-30000000D01*
X92336282Y-39000000D01*
X92348483Y-39123882D01*
X92384618Y-39243004D01*
X92443299Y-39352787D01*
X92522269Y-39449013D01*
X92618495Y-39527983D01*
X92728278Y-39586664D01*
X92847400Y-39622799D01*
X92971282Y-39635000D01*
X103971282Y-39635000D01*
X104095164Y-39622799D01*
X104214286Y-39586664D01*
X104324069Y-39527983D01*
X104420295Y-39449013D01*
X104499265Y-39352787D01*
X104557946Y-39243004D01*
X104594081Y-39123882D01*
X104606282Y-39000000D01*
X104606282Y-30000000D01*
X119329871Y-30000000D01*
X119329871Y-39000000D01*
X119342072Y-39123882D01*
X119378207Y-39243004D01*
X119436888Y-39352787D01*
X119515858Y-39449013D01*
X119612084Y-39527983D01*
X119721867Y-39586664D01*
X119840989Y-39622799D01*
X119964871Y-39635000D01*
X130964871Y-39635000D01*
X131088753Y-39622799D01*
X131207875Y-39586664D01*
X131317658Y-39527983D01*
X131413884Y-39449013D01*
X131492854Y-39352787D01*
X131551535Y-39243004D01*
X131587670Y-39123882D01*
X131599871Y-39000000D01*
X131599871Y-30000000D01*
X131587670Y-29876118D01*
X131551535Y-29756996D01*
X131492854Y-29647213D01*
X131413884Y-29550987D01*
X131317658Y-29472017D01*
X131207875Y-29413336D01*
X131088753Y-29377201D01*
X130964871Y-29365000D01*
X119964871Y-29365000D01*
X119840989Y-29377201D01*
X119721867Y-29413336D01*
X119612084Y-29472017D01*
X119515858Y-29550987D01*
X119436888Y-29647213D01*
X119378207Y-29756996D01*
X119342072Y-29876118D01*
X119329871Y-30000000D01*
X104606282Y-30000000D01*
X104594081Y-29876118D01*
X104557946Y-29756996D01*
X104499265Y-29647213D01*
X104420295Y-29550987D01*
X104324069Y-29472017D01*
X104214286Y-29413336D01*
X104095164Y-29377201D01*
X103971282Y-29365000D01*
X92971282Y-29365000D01*
X92847400Y-29377201D01*
X92728278Y-29413336D01*
X92618495Y-29472017D01*
X92522269Y-29550987D01*
X92443299Y-29647213D01*
X92384618Y-29756996D01*
X92348483Y-29876118D01*
X92336282Y-30000000D01*
X76606282Y-30000000D01*
X76594081Y-29876118D01*
X76557946Y-29756996D01*
X76499265Y-29647213D01*
X76420295Y-29550987D01*
X76324069Y-29472017D01*
X76214286Y-29413336D01*
X76095164Y-29377201D01*
X75971282Y-29365000D01*
X64971282Y-29365000D01*
X64847400Y-29377201D01*
X64728278Y-29413336D01*
X64618495Y-29472017D01*
X64522269Y-29550987D01*
X64443299Y-29647213D01*
X64384618Y-29756996D01*
X64348483Y-29876118D01*
X64336282Y-30000000D01*
X54325127Y-30000000D01*
X54223087Y-29847288D01*
X53752712Y-29376913D01*
X53199609Y-29007341D01*
X52585035Y-28752776D01*
X51932605Y-28623000D01*
X51267395Y-28623000D01*
X50614965Y-28752776D01*
X50000391Y-29007341D01*
X49447288Y-29376913D01*
X48976913Y-29847288D01*
X48607341Y-30400391D01*
X48352776Y-31014965D01*
X48223000Y-31667395D01*
X40402000Y-31667395D01*
X40402000Y-28402000D01*
X139598000Y-28402000D01*
X139598000Y-35553127D01*
G36*
X75844282Y-38873000D02*
G01*
X65098282Y-38873000D01*
X65098282Y-30127000D01*
X75844282Y-30127000D01*
X75844282Y-38873000D01*
X75844282Y-38873000D01*
G37*
X75844282Y-38873000D02*
X65098282Y-38873000D01*
X65098282Y-30127000D01*
X75844282Y-30127000D01*
X75844282Y-38873000D01*
G36*
X103844282Y-38873000D02*
G01*
X93098282Y-38873000D01*
X93098282Y-30127000D01*
X103844282Y-30127000D01*
X103844282Y-38873000D01*
X103844282Y-38873000D01*
G37*
X103844282Y-38873000D02*
X93098282Y-38873000D01*
X93098282Y-30127000D01*
X103844282Y-30127000D01*
X103844282Y-38873000D01*
G36*
X130837871Y-38873000D02*
G01*
X120091871Y-38873000D01*
X120091871Y-30127000D01*
X130837871Y-30127000D01*
X130837871Y-38873000D01*
X130837871Y-38873000D01*
G37*
X130837871Y-38873000D02*
X120091871Y-38873000D01*
X120091871Y-30127000D01*
X130837871Y-30127000D01*
X130837871Y-38873000D01*
G36*
X72844282Y-55465999D02*
G01*
X72789002Y-55521279D01*
X72759999Y-55545081D01*
X72704871Y-55612256D01*
X72665026Y-55660806D01*
X72624122Y-55737332D01*
X72594454Y-55792836D01*
X72550997Y-55936097D01*
X72540000Y-56047750D01*
X72540000Y-56047760D01*
X72536324Y-56085082D01*
X72540000Y-56122405D01*
X72540001Y-60585197D01*
X72385199Y-60740000D01*
X68703711Y-60740000D01*
X68659774Y-60696063D01*
X68490256Y-60582795D01*
X68301898Y-60504774D01*
X68101939Y-60465000D01*
X67898061Y-60465000D01*
X67698102Y-60504774D01*
X67509744Y-60582795D01*
X67340226Y-60696063D01*
X67196063Y-60840226D01*
X67174164Y-60873000D01*
X62098282Y-60873000D01*
X62098282Y-56168985D01*
X62134974Y-56124276D01*
X62205546Y-55992247D01*
X62249003Y-55848986D01*
X62260000Y-55737333D01*
X62260000Y-55737323D01*
X62263676Y-55700000D01*
X62260000Y-55662677D01*
X62260000Y-48814801D01*
X63039802Y-48035000D01*
X63101939Y-48035000D01*
X63301898Y-47995226D01*
X63490256Y-47917205D01*
X63659774Y-47803937D01*
X63803937Y-47659774D01*
X63917205Y-47490256D01*
X63995226Y-47301898D01*
X64030015Y-47127000D01*
X72844282Y-47127000D01*
X72844282Y-55465999D01*
X72844282Y-55465999D01*
G37*
X72844282Y-55465999D02*
X72789002Y-55521279D01*
X72759999Y-55545081D01*
X72704871Y-55612256D01*
X72665026Y-55660806D01*
X72624122Y-55737332D01*
X72594454Y-55792836D01*
X72550997Y-55936097D01*
X72540000Y-56047750D01*
X72540000Y-56047760D01*
X72536324Y-56085082D01*
X72540000Y-56122405D01*
X72540001Y-60585197D01*
X72385199Y-60740000D01*
X68703711Y-60740000D01*
X68659774Y-60696063D01*
X68490256Y-60582795D01*
X68301898Y-60504774D01*
X68101939Y-60465000D01*
X67898061Y-60465000D01*
X67698102Y-60504774D01*
X67509744Y-60582795D01*
X67340226Y-60696063D01*
X67196063Y-60840226D01*
X67174164Y-60873000D01*
X62098282Y-60873000D01*
X62098282Y-56168985D01*
X62134974Y-56124276D01*
X62205546Y-55992247D01*
X62249003Y-55848986D01*
X62260000Y-55737333D01*
X62260000Y-55737323D01*
X62263676Y-55700000D01*
X62260000Y-55662677D01*
X62260000Y-48814801D01*
X63039802Y-48035000D01*
X63101939Y-48035000D01*
X63301898Y-47995226D01*
X63490256Y-47917205D01*
X63659774Y-47803937D01*
X63803937Y-47659774D01*
X63917205Y-47490256D01*
X63995226Y-47301898D01*
X64030015Y-47127000D01*
X72844282Y-47127000D01*
X72844282Y-55465999D01*
G36*
X128873000Y-53455904D02*
G01*
X128725228Y-53554642D01*
X128581065Y-53698805D01*
X128467797Y-53868323D01*
X128389776Y-54056681D01*
X128350002Y-54256640D01*
X128350002Y-54347413D01*
X128294454Y-54451335D01*
X128250998Y-54594596D01*
X128236324Y-54743581D01*
X128240001Y-54780913D01*
X128240000Y-60740000D01*
X123703007Y-60740000D01*
X123665684Y-60736324D01*
X123628361Y-60740000D01*
X123628352Y-60740000D01*
X123516699Y-60750997D01*
X123373438Y-60794454D01*
X123244006Y-60863638D01*
X123101898Y-60804774D01*
X122901939Y-60765000D01*
X122698061Y-60765000D01*
X122498102Y-60804774D01*
X122333391Y-60873000D01*
X118127000Y-60873000D01*
X118127000Y-48050427D01*
X118167205Y-47990256D01*
X118245226Y-47801898D01*
X118285000Y-47601939D01*
X118285000Y-47398061D01*
X118245226Y-47198102D01*
X118215774Y-47127000D01*
X128873000Y-47127000D01*
X128873000Y-53455904D01*
X128873000Y-53455904D01*
G37*
X128873000Y-53455904D02*
X128725228Y-53554642D01*
X128581065Y-53698805D01*
X128467797Y-53868323D01*
X128389776Y-54056681D01*
X128350002Y-54256640D01*
X128350002Y-54347413D01*
X128294454Y-54451335D01*
X128250998Y-54594596D01*
X128236324Y-54743581D01*
X128240001Y-54780913D01*
X128240000Y-60740000D01*
X123703007Y-60740000D01*
X123665684Y-60736324D01*
X123628361Y-60740000D01*
X123628352Y-60740000D01*
X123516699Y-60750997D01*
X123373438Y-60794454D01*
X123244006Y-60863638D01*
X123101898Y-60804774D01*
X122901939Y-60765000D01*
X122698061Y-60765000D01*
X122498102Y-60804774D01*
X122333391Y-60873000D01*
X118127000Y-60873000D01*
X118127000Y-48050427D01*
X118167205Y-47990256D01*
X118245226Y-47801898D01*
X118285000Y-47601939D01*
X118285000Y-47398061D01*
X118245226Y-47198102D01*
X118215774Y-47127000D01*
X128873000Y-47127000D01*
X128873000Y-53455904D01*
G36*
X101844282Y-53817722D02*
G01*
X101782795Y-53909744D01*
X101704774Y-54098102D01*
X101665000Y-54298061D01*
X101665000Y-54501939D01*
X101704774Y-54701898D01*
X101782795Y-54890256D01*
X101844282Y-54982278D01*
X101844282Y-60640000D01*
X97103007Y-60640000D01*
X97065684Y-60636324D01*
X97028361Y-60640000D01*
X97028352Y-60640000D01*
X96916699Y-60650997D01*
X96773438Y-60694454D01*
X96641409Y-60765026D01*
X96641407Y-60765027D01*
X96641408Y-60765027D01*
X96554681Y-60836201D01*
X96554677Y-60836205D01*
X96525684Y-60859999D01*
X96515014Y-60873000D01*
X91098282Y-60873000D01*
X91098282Y-56218576D01*
X91117205Y-56190256D01*
X91195226Y-56001898D01*
X91235000Y-55801939D01*
X91235000Y-55598061D01*
X91195226Y-55398102D01*
X91117205Y-55209744D01*
X91098282Y-55181424D01*
X91098282Y-47165429D01*
X91103937Y-47159774D01*
X91125836Y-47127000D01*
X101844282Y-47127000D01*
X101844282Y-53817722D01*
X101844282Y-53817722D01*
G37*
X101844282Y-53817722D02*
X101782795Y-53909744D01*
X101704774Y-54098102D01*
X101665000Y-54298061D01*
X101665000Y-54501939D01*
X101704774Y-54701898D01*
X101782795Y-54890256D01*
X101844282Y-54982278D01*
X101844282Y-60640000D01*
X97103007Y-60640000D01*
X97065684Y-60636324D01*
X97028361Y-60640000D01*
X97028352Y-60640000D01*
X96916699Y-60650997D01*
X96773438Y-60694454D01*
X96641409Y-60765026D01*
X96641407Y-60765027D01*
X96641408Y-60765027D01*
X96554681Y-60836201D01*
X96554677Y-60836205D01*
X96525684Y-60859999D01*
X96515014Y-60873000D01*
X91098282Y-60873000D01*
X91098282Y-56218576D01*
X91117205Y-56190256D01*
X91195226Y-56001898D01*
X91235000Y-55801939D01*
X91235000Y-55598061D01*
X91195226Y-55398102D01*
X91117205Y-55209744D01*
X91098282Y-55181424D01*
X91098282Y-47165429D01*
X91103937Y-47159774D01*
X91125836Y-47127000D01*
X101844282Y-47127000D01*
X101844282Y-53817722D01*
M02*
