M48
; DRILL file {KiCad (5.1.2)-2} date 31/08/2020 16:13:33
; FORMAT={-:-/ absolute / inch / decimal}
; #@! TF.CreationDate,2020-08-31T16:13:33+01:00
; #@! TF.GenerationSoftware,Kicad,Pcbnew,(5.1.2)-2
; #@! TF.FileFunction,Plated,1,2,PTH
FMAT,2
INCH
T1C0.0118
T2C0.0157
T3C0.0197
T4C0.0236
T5C0.0295
T6C0.0335
T7C0.0394
T8C0.0472
T9C0.1732
%
G90
G05
T1
X5.2949Y-2.8433
X5.2949Y-2.8945
X5.2949Y-2.9457
X5.2949Y-2.9969
X5.3461Y-2.8433
X5.3461Y-2.8945
X5.3461Y-2.9457
X5.3461Y-2.9969
T2
X1.7795Y-3.0236
X1.9488Y-3.0118
X2.1969Y-2.5236
X2.2228Y-2.6585
X2.3898Y-2.2244
X2.4646Y-2.874
X2.4751Y-2.7286
X2.4803Y-1.8504
X2.543Y-2.5357
X2.5441Y-2.7587
X2.5591Y-1.8504
X2.5591Y-1.8996
X2.5591Y-1.9488
X2.5591Y-1.998
X2.5591Y-2.0472
X2.5591Y-2.0965
X2.5591Y-2.1457
X2.5591Y-2.1949
X2.5591Y-2.2441
X2.5787Y-1.2008
X2.5787Y-1.2992
X2.5787Y-1.3976
X2.5787Y-1.4961
X2.6083Y-1.8504
X2.6083Y-1.8996
X2.6083Y-1.9488
X2.6083Y-1.998
X2.6083Y-2.0472
X2.6083Y-2.0866
X2.6083Y-2.1457
X2.6083Y-2.1949
X2.626Y-1.2008
X2.626Y-1.2992
X2.626Y-1.3976
X2.626Y-1.4961
X2.628Y-1.25
X2.628Y-1.3484
X2.628Y-1.4469
X2.6457Y-2.8622
X2.6575Y-1.8504
X2.6575Y-1.8996
X2.6575Y-1.9488
X2.6575Y-1.998
X2.6575Y-2.0472
X2.6575Y-2.0965
X2.6575Y-2.1457
X2.6575Y-2.1949
X2.6575Y-2.2441
X2.6752Y-1.25
X2.6752Y-1.3484
X2.6752Y-1.4469
X2.6772Y-1.2008
X2.6772Y-1.2992
X2.6772Y-1.3976
X2.6772Y-1.4961
X2.6772Y-2.4213
X2.7067Y-1.8504
X2.7067Y-1.8504
X2.7067Y-1.8996
X2.7067Y-1.9488
X2.7067Y-1.998
X2.7067Y-2.0472
X2.7067Y-2.0866
X2.7067Y-2.1457
X2.7067Y-2.1949
X2.7244Y-1.2008
X2.7244Y-1.2992
X2.7244Y-1.3976
X2.7244Y-1.4961
X2.7264Y-1.25
X2.7264Y-1.3484
X2.7264Y-1.4469
X2.7402Y-2.6183
X2.7559Y-1.8504
X2.7559Y-1.8996
X2.7559Y-1.9488
X2.7559Y-1.998
X2.7559Y-2.0472
X2.7559Y-2.0965
X2.7559Y-2.1457
X2.7559Y-2.1949
X2.7559Y-2.2441
X2.7562Y-2.5474
X2.7638Y-2.8661
X2.7736Y-1.25
X2.7736Y-1.3484
X2.7736Y-1.4469
X2.7756Y-1.2008
X2.7756Y-1.2992
X2.7756Y-1.3976
X2.7756Y-1.4961
X2.8051Y-1.8504
X2.8051Y-1.8996
X2.8051Y-1.9488
X2.8051Y-1.998
X2.8051Y-2.0472
X2.8051Y-2.0965
X2.8051Y-2.1457
X2.8051Y-2.1949
X2.8171Y-2.6055
X2.8199Y-3.0285
X2.8228Y-1.2008
X2.8228Y-1.2992
X2.8228Y-1.3976
X2.8228Y-1.4961
X2.8248Y-1.25
X2.8248Y-1.3484
X2.8248Y-1.4469
X2.8543Y-1.8504
X2.8543Y-1.8996
X2.8543Y-1.9488
X2.8543Y-1.998
X2.8543Y-2.0472
X2.8543Y-2.0965
X2.8543Y-2.1457
X2.8543Y-2.1949
X2.8543Y-2.2441
X2.8583Y-2.7726
X2.8661Y-3.0276
X2.872Y-1.25
X2.872Y-1.3484
X2.872Y-1.4469
X2.874Y-1.2008
X2.874Y-1.2992
X2.874Y-1.3976
X2.874Y-1.4961
X2.8898Y-2.6102
X2.9145Y-2.5747
X2.9213Y-1.2008
X2.9213Y-1.2992
X2.9213Y-1.3976
X2.9213Y-1.4961
X2.9232Y-1.25
X2.9232Y-1.3484
X2.9232Y-1.3484
X2.9232Y-1.4469
X2.9364Y-2.1575
X2.9646Y-2.8032
X2.9705Y-1.25
X2.9705Y-1.3484
X2.9705Y-1.3484
X2.9705Y-1.4469
X2.9724Y-1.2008
X2.9724Y-1.2992
X2.9724Y-1.3976
X2.9843Y-2.6565
X2.9965Y-2.8509
X3.0709Y-2.9646
X3.0787Y-2.6102
X3.0906Y-1.5157
X3.0906Y-1.565
X3.0906Y-1.6142
X3.0906Y-1.6634
X3.0906Y-1.7126
X3.1299Y-2.8307
X3.1398Y-1.5157
X3.1398Y-1.565
X3.1398Y-1.6142
X3.1398Y-1.6634
X3.1398Y-1.7126
X3.1398Y-2.7756
X3.189Y-1.5157
X3.189Y-1.565
X3.189Y-1.6142
X3.189Y-1.6634
X3.189Y-1.7126
X3.189Y-2.7323
X3.2087Y-2.9134
X3.2283Y-2.7953
X3.2382Y-1.5157
X3.2382Y-1.565
X3.2382Y-1.6142
X3.2382Y-1.6634
X3.2382Y-1.7126
X3.2558Y-2.8956
X3.2672Y-2.5537
X3.2874Y-1.5157
X3.2874Y-1.565
X3.2874Y-1.6142
X3.2874Y-1.6634
X3.2874Y-1.7126
X3.3114Y-2.7116
X3.3434Y-2.8115
X3.3446Y-2.8509
X3.3775Y-2.6373
X3.4352Y-3.0186
X3.5039Y-2.9729
X3.5512Y-2.1929
X3.5551Y-1.8307
X3.6178Y-2.516
X3.6713Y-3.0285
X3.6811Y-1.2008
X3.6811Y-1.2992
X3.6811Y-1.3976
X3.6811Y-1.4961
X3.7008Y-1.8504
X3.7008Y-1.8996
X3.7008Y-1.9488
X3.7008Y-1.998
X3.7008Y-2.0472
X3.7008Y-2.0965
X3.7008Y-2.1457
X3.7008Y-2.1949
X3.7008Y-2.2441
X3.7283Y-1.2008
X3.7283Y-1.2992
X3.7283Y-1.3976
X3.7283Y-1.4961
X3.7303Y-1.25
X3.7303Y-1.3484
X3.7303Y-1.4469
X3.75Y-1.8504
X3.75Y-1.8996
X3.75Y-1.9488
X3.75Y-1.998
X3.75Y-2.0472
X3.75Y-2.0965
X3.75Y-2.1457
X3.75Y-2.1949
X3.7717Y-2.4449
X3.7776Y-1.25
X3.7776Y-1.3484
X3.7776Y-1.4469
X3.7795Y-1.2008
X3.7795Y-1.2992
X3.7795Y-1.3976
X3.7795Y-1.4961
X3.7874Y-2.7638
X3.7874Y-2.9808
X3.7992Y-1.8504
X3.7992Y-1.8996
X3.7992Y-1.9488
X3.7992Y-1.998
X3.7992Y-2.0472
X3.7992Y-2.0965
X3.7992Y-2.1457
X3.7992Y-2.1949
X3.7992Y-2.2441
X3.8034Y-2.5984
X3.8176Y-2.8491
X3.8189Y-2.6732
X3.8268Y-1.2008
X3.8268Y-1.2992
X3.8268Y-1.3976
X3.8268Y-1.4961
X3.8287Y-1.25
X3.8287Y-1.3484
X3.8287Y-1.4469
X3.8484Y-1.8504
X3.8484Y-1.8504
X3.8484Y-1.8996
X3.8484Y-1.9488
X3.8484Y-1.998
X3.8484Y-2.0472
X3.8484Y-2.0965
X3.8484Y-2.1457
X3.8484Y-2.1949
X3.8554Y-2.5819
X3.858Y-2.6781
X3.876Y-1.25
X3.876Y-1.3484
X3.876Y-1.4469
X3.878Y-1.2008
X3.878Y-1.2992
X3.878Y-1.3976
X3.878Y-1.4961
X3.8957Y-2.813
X3.8976Y-1.8504
X3.8976Y-1.8996
X3.8976Y-1.9488
X3.8976Y-1.998
X3.8976Y-2.0472
X3.8976Y-2.0965
X3.8976Y-2.1457
X3.8976Y-2.1949
X3.8976Y-2.2441
X3.9242Y-2.8839
X3.9252Y-1.2008
X3.9252Y-1.2992
X3.9252Y-1.3976
X3.9252Y-1.4961
X3.9272Y-1.25
X3.9272Y-1.3484
X3.9272Y-1.4469
X3.9469Y-1.8504
X3.9469Y-1.8996
X3.9469Y-1.9488
X3.9469Y-1.998
X3.9469Y-2.0472
X3.9469Y-2.0965
X3.9469Y-2.1457
X3.9469Y-2.1949
X3.9744Y-1.25
X3.9744Y-1.3484
X3.9744Y-1.4469
X3.9764Y-1.2008
X3.9764Y-1.2992
X3.9764Y-1.3976
X3.9764Y-1.4961
X3.9961Y-1.8504
X3.9961Y-1.8996
X3.9961Y-1.9488
X3.9961Y-1.998
X3.9961Y-2.0472
X3.9961Y-2.0965
X3.9961Y-2.1457
X3.9961Y-2.1949
X3.9961Y-2.2441
X4.0236Y-1.2008
X4.0236Y-1.2992
X4.0236Y-1.3976
X4.0236Y-1.4961
X4.0256Y-1.25
X4.0256Y-1.3484
X4.0256Y-1.4469
X4.0256Y-2.9823
X4.0305Y-2.8839
X4.0433Y-2.1417
X4.0553Y-3.0081
X4.0728Y-1.25
X4.0728Y-1.3484
X4.0728Y-1.3484
X4.0748Y-1.2008
X4.0748Y-1.2992
X4.0748Y-1.3976
X4.0748Y-2.7677
X4.1732Y-1.4961
X4.1732Y-1.5453
X4.1732Y-1.5945
X4.1732Y-1.6437
X4.1732Y-1.6929
X4.1969Y-2.7953
X4.2087Y-3.003
X4.2224Y-1.4961
X4.2224Y-1.5453
X4.2224Y-1.5945
X4.2224Y-1.6437
X4.2224Y-1.6929
X4.2323Y-2.9626
X4.2598Y-2.8583
X4.2677Y-2.7087
X4.2717Y-1.4961
X4.2717Y-1.5453
X4.2717Y-1.5945
X4.2717Y-1.6437
X4.2717Y-1.6929
X4.315Y-2.811
X4.3209Y-1.4961
X4.3209Y-1.5453
X4.3209Y-1.5945
X4.3209Y-1.6437
X4.3209Y-1.6929
X4.3307Y-2.5906
X4.3307Y-2.7008
X4.3701Y-1.4961
X4.3701Y-1.5453
X4.3701Y-1.5945
X4.3701Y-1.6437
X4.3701Y-1.6929
X4.3976Y-2.8937
X4.4016Y-2.811
X4.4528Y-2.7087
X4.4882Y-3.0039
X4.5118Y-2.8819
X4.563Y-2.2008
X4.6161Y-1.8701
X4.6929Y-2.7087
X4.6979Y-2.516
X4.7165Y-2.8819
X4.7244Y-1.8504
X4.7244Y-1.8996
X4.7244Y-1.9488
X4.7244Y-1.998
X4.7244Y-2.0472
X4.7244Y-2.0965
X4.7244Y-2.1457
X4.7244Y-2.1949
X4.7244Y-2.2441
X4.7441Y-1.2008
X4.7441Y-1.2992
X4.7441Y-1.3976
X4.7441Y-1.4961
X4.7736Y-1.8504
X4.7736Y-1.8996
X4.7736Y-1.9488
X4.7736Y-1.998
X4.7736Y-2.0472
X4.7736Y-2.0965
X4.7736Y-2.1457
X4.7736Y-2.1949
X4.7933Y-1.2008
X4.7933Y-1.25
X4.7933Y-1.2992
X4.7933Y-1.3484
X4.7933Y-1.3976
X4.7933Y-1.4469
X4.7933Y-1.4961
X4.8228Y-1.8504
X4.8228Y-1.8996
X4.8228Y-1.9488
X4.8228Y-1.998
X4.8228Y-2.0472
X4.8228Y-2.0965
X4.8228Y-2.1457
X4.8228Y-2.1949
X4.8228Y-2.2441
X4.8346Y-2.4331
X4.8425Y-1.2008
X4.8425Y-1.25
X4.8425Y-1.2992
X4.8425Y-1.3484
X4.8425Y-1.3976
X4.8425Y-1.4469
X4.8425Y-1.4961
X4.872Y-1.8504
X4.872Y-1.8504
X4.872Y-1.9488
X4.872Y-1.998
X4.872Y-2.0472
X4.872Y-2.0965
X4.872Y-2.1457
X4.872Y-2.1949
X4.8819Y-1.8996
X4.8917Y-1.2008
X4.8917Y-1.25
X4.8917Y-1.2992
X4.8917Y-1.3484
X4.8917Y-1.3976
X4.8917Y-1.4469
X4.8917Y-1.4961
X4.9213Y-1.8504
X4.9213Y-1.8996
X4.9213Y-1.9488
X4.9213Y-1.998
X4.9213Y-2.0472
X4.9213Y-2.0965
X4.9213Y-2.1457
X4.9213Y-2.1949
X4.9213Y-2.2441
X4.9409Y-1.2008
X4.9409Y-1.25
X4.9409Y-1.2992
X4.9409Y-1.3484
X4.9409Y-1.3976
X4.9409Y-1.4469
X4.9409Y-1.4961
X4.9705Y-1.8504
X4.9705Y-1.8996
X4.9705Y-1.9488
X4.9705Y-1.998
X4.9705Y-2.0472
X4.9705Y-2.0965
X4.9705Y-2.1457
X4.9705Y-2.1949
X4.9902Y-1.2008
X4.9902Y-1.25
X4.9902Y-1.2992
X4.9902Y-1.3484
X4.9902Y-1.3976
X4.9902Y-1.4469
X4.9902Y-1.4961
X5.0197Y-1.8504
X5.0197Y-1.8996
X5.0197Y-1.9488
X5.0197Y-1.998
X5.0197Y-2.0472
X5.0197Y-2.0965
X5.0197Y-2.1457
X5.0197Y-2.1949
X5.0197Y-2.2441
X5.0394Y-1.2008
X5.0394Y-1.25
X5.0394Y-1.2992
X5.0394Y-1.3484
X5.0394Y-1.3976
X5.0394Y-1.4469
X5.0394Y-1.4961
X5.0787Y-2.6654
X5.0886Y-1.2008
X5.0886Y-1.25
X5.0886Y-1.2992
X5.0886Y-1.3484
X5.0886Y-1.3976
X5.0886Y-1.4469
X5.0886Y-1.4961
X5.0939Y-2.1401
X5.1378Y-1.2008
X5.1378Y-1.25
X5.1378Y-1.2992
X5.1378Y-1.3484
X5.1378Y-1.3976
X5.1575Y-2.8346
X5.2165Y-1.4961
X5.2165Y-1.5453
X5.2165Y-1.5945
X5.2165Y-1.6437
X5.2165Y-1.6929
X5.2657Y-1.4961
X5.2657Y-1.5453
X5.2657Y-1.5945
X5.2657Y-1.6437
X5.2657Y-1.6929
X5.2756Y-2.6575
X5.315Y-1.4961
X5.315Y-1.5453
X5.315Y-1.5945
X5.315Y-1.6437
X5.315Y-1.6929
X5.3346Y-2.3031
X5.3346Y-2.5591
X5.3346Y-2.6181
X5.3642Y-1.4961
X5.3642Y-1.5453
X5.3642Y-1.5945
X5.3642Y-1.6437
X5.3642Y-1.6929
X5.374Y-2.3031
X5.374Y-2.5591
X5.374Y-2.6181
X5.4134Y-1.4961
X5.4134Y-1.5453
X5.4134Y-1.5945
X5.4134Y-1.6437
X5.4134Y-1.6929
X5.4134Y-2.3031
X5.4134Y-2.5591
X5.4134Y-2.6181
X5.4724Y-3.0315
X5.4823Y-1.4272
T3
X2.1752Y-2.8071
X2.2244Y-2.8071
X2.2736Y-2.8071
X2.3228Y-2.8071
X2.372Y-2.8071
X2.4213Y-2.8071
X1.8976Y-2.8071
X1.9469Y-2.8071
X1.9961Y-2.8071
X2.0453Y-2.8071
X3.3858Y-3.0039
X3.4843Y-2.8898
X3.6299Y-2.7047
X3.6299Y-2.7539
X3.6299Y-2.8031
T5
X2.3819Y-2.9567
X2.4606Y-2.9567
X2.5394Y-2.9567
X2.6181Y-2.9567
X2.6969Y-2.9567
X2.7756Y-2.9567
X2.0669Y-2.9567
X2.1457Y-2.9567
X2.2244Y-2.9567
T6
X1.7466Y-2.7717
X1.7466Y-2.9685
T7
X4.8228Y-2.3425
X4.9228Y-2.3425
X3.7992Y-2.3425
X3.8992Y-2.3425
X2.6575Y-2.3622
X2.7575Y-2.3622
T8
X1.752Y-1.7323
X2.0472Y-1.7323
X1.752Y-2.3622
X2.0472Y-2.3622
T9
X1.748Y-1.2598
X2.0315Y-1.2598
T4
G00X1.6265Y-2.7323
M15
G01X1.654Y-2.7323
M16
G05
G00X1.654Y-3.0079
M15
G01X1.6265Y-3.0079
M16
G05
T0
M30
