%FSLAX45Y45*%
G04 Gerber Fmt 4.5, Leading zero omitted, Abs format (unit mm)*
G04 Created by KiCad (PCBNEW (5.1.2)-2) date 2020-08-31 16:13:47*
%MOMM*%
%LPD*%
G04 APERTURE LIST*
%ADD10C,0.050000*%
%ADD11C,0.200000*%
%ADD12C,0.300000*%
G04 APERTURE END LIST*
D10*
X11660000Y-4500000D02*
G75*
G03X11660000Y-4500000I-160000J0D01*
G01*
X8860000Y-4500000D02*
G75*
G03X8860000Y-4500000I-160000J0D01*
G01*
X4000000Y-7800000D02*
X4000000Y-2800000D01*
X14000000Y-7800000D02*
X4000000Y-7800000D01*
X14000000Y-2800000D02*
X14000000Y-7800000D01*
X4000000Y-2800000D02*
X14000000Y-2800000D01*
D11*
X13434000Y-7207000D02*
X13464000Y-7237000D01*
X13464000Y-7207000D02*
X13434000Y-7237000D01*
X13434000Y-7337000D02*
X13464000Y-7367000D01*
X13464000Y-7337000D02*
X13434000Y-7367000D01*
X13434000Y-7467000D02*
X13464000Y-7497000D01*
X13464000Y-7467000D02*
X13434000Y-7497000D01*
X13434000Y-7597000D02*
X13464000Y-7627000D01*
X13464000Y-7597000D02*
X13434000Y-7627000D01*
X13564000Y-7207000D02*
X13594000Y-7237000D01*
X13594000Y-7207000D02*
X13564000Y-7237000D01*
X13564000Y-7337000D02*
X13594000Y-7367000D01*
X13594000Y-7337000D02*
X13564000Y-7367000D01*
X13564000Y-7467000D02*
X13594000Y-7497000D01*
X13594000Y-7467000D02*
X13564000Y-7497000D01*
X13564000Y-7597000D02*
X13594000Y-7627000D01*
X13594000Y-7597000D02*
X13564000Y-7627000D01*
X4540000Y-7680000D02*
G75*
G03X4540000Y-7680000I-20000J0D01*
G01*
X4970000Y-7650000D02*
G75*
G03X4970000Y-7650000I-20000J0D01*
G01*
X5600000Y-6410000D02*
G75*
G03X5600000Y-6410000I-20000J0D01*
G01*
X5666000Y-6752500D02*
G75*
G03X5666000Y-6752500I-20000J0D01*
G01*
X6090000Y-5650000D02*
G75*
G03X6090000Y-5650000I-20000J0D01*
G01*
X6280000Y-7300000D02*
G75*
G03X6280000Y-7300000I-20000J0D01*
G01*
X6306699Y-6930567D02*
G75*
G03X6306699Y-6930567I-20000J0D01*
G01*
X6320000Y-4700000D02*
G75*
G03X6320000Y-4700000I-20000J0D01*
G01*
X6479250Y-6440750D02*
G75*
G03X6479250Y-6440750I-20000J0D01*
G01*
X6482058Y-7007007D02*
G75*
G03X6482058Y-7007007I-20000J0D01*
G01*
X6520000Y-4700000D02*
G75*
G03X6520000Y-4700000I-20000J0D01*
G01*
X6520000Y-4825000D02*
G75*
G03X6520000Y-4825000I-20000J0D01*
G01*
X6520000Y-4950000D02*
G75*
G03X6520000Y-4950000I-20000J0D01*
G01*
X6520000Y-5075000D02*
G75*
G03X6520000Y-5075000I-20000J0D01*
G01*
X6520000Y-5200000D02*
G75*
G03X6520000Y-5200000I-20000J0D01*
G01*
X6520000Y-5325000D02*
G75*
G03X6520000Y-5325000I-20000J0D01*
G01*
X6520000Y-5450000D02*
G75*
G03X6520000Y-5450000I-20000J0D01*
G01*
X6520000Y-5575000D02*
G75*
G03X6520000Y-5575000I-20000J0D01*
G01*
X6520000Y-5700000D02*
G75*
G03X6520000Y-5700000I-20000J0D01*
G01*
X6570000Y-3050000D02*
G75*
G03X6570000Y-3050000I-20000J0D01*
G01*
X6570000Y-3300000D02*
G75*
G03X6570000Y-3300000I-20000J0D01*
G01*
X6570000Y-3550000D02*
G75*
G03X6570000Y-3550000I-20000J0D01*
G01*
X6570000Y-3800000D02*
G75*
G03X6570000Y-3800000I-20000J0D01*
G01*
X6645000Y-4700000D02*
G75*
G03X6645000Y-4700000I-20000J0D01*
G01*
X6645000Y-4825000D02*
G75*
G03X6645000Y-4825000I-20000J0D01*
G01*
X6645000Y-4950000D02*
G75*
G03X6645000Y-4950000I-20000J0D01*
G01*
X6645000Y-5075000D02*
G75*
G03X6645000Y-5075000I-20000J0D01*
G01*
X6645000Y-5200000D02*
G75*
G03X6645000Y-5200000I-20000J0D01*
G01*
X6645000Y-5300000D02*
G75*
G03X6645000Y-5300000I-20000J0D01*
G01*
X6645000Y-5450000D02*
G75*
G03X6645000Y-5450000I-20000J0D01*
G01*
X6645000Y-5575000D02*
G75*
G03X6645000Y-5575000I-20000J0D01*
G01*
X6690000Y-3050000D02*
G75*
G03X6690000Y-3050000I-20000J0D01*
G01*
X6690000Y-3300000D02*
G75*
G03X6690000Y-3300000I-20000J0D01*
G01*
X6690000Y-3550000D02*
G75*
G03X6690000Y-3550000I-20000J0D01*
G01*
X6690000Y-3800000D02*
G75*
G03X6690000Y-3800000I-20000J0D01*
G01*
X6695000Y-3175000D02*
G75*
G03X6695000Y-3175000I-20000J0D01*
G01*
X6695000Y-3425000D02*
G75*
G03X6695000Y-3425000I-20000J0D01*
G01*
X6695000Y-3675000D02*
G75*
G03X6695000Y-3675000I-20000J0D01*
G01*
X6740000Y-7270000D02*
G75*
G03X6740000Y-7270000I-20000J0D01*
G01*
X6770000Y-4700000D02*
G75*
G03X6770000Y-4700000I-20000J0D01*
G01*
X6770000Y-4825000D02*
G75*
G03X6770000Y-4825000I-20000J0D01*
G01*
X6770000Y-4950000D02*
G75*
G03X6770000Y-4950000I-20000J0D01*
G01*
X6770000Y-5075000D02*
G75*
G03X6770000Y-5075000I-20000J0D01*
G01*
X6770000Y-5200000D02*
G75*
G03X6770000Y-5200000I-20000J0D01*
G01*
X6770000Y-5325000D02*
G75*
G03X6770000Y-5325000I-20000J0D01*
G01*
X6770000Y-5450000D02*
G75*
G03X6770000Y-5450000I-20000J0D01*
G01*
X6770000Y-5575000D02*
G75*
G03X6770000Y-5575000I-20000J0D01*
G01*
X6770000Y-5700000D02*
G75*
G03X6770000Y-5700000I-20000J0D01*
G01*
X6815000Y-3175000D02*
G75*
G03X6815000Y-3175000I-20000J0D01*
G01*
X6815000Y-3425000D02*
G75*
G03X6815000Y-3425000I-20000J0D01*
G01*
X6815000Y-3675000D02*
G75*
G03X6815000Y-3675000I-20000J0D01*
G01*
X6820000Y-3050000D02*
G75*
G03X6820000Y-3050000I-20000J0D01*
G01*
X6820000Y-3300000D02*
G75*
G03X6820000Y-3300000I-20000J0D01*
G01*
X6820000Y-3550000D02*
G75*
G03X6820000Y-3550000I-20000J0D01*
G01*
X6820000Y-3800000D02*
G75*
G03X6820000Y-3800000I-20000J0D01*
G01*
X6820000Y-6150000D02*
G75*
G03X6820000Y-6150000I-20000J0D01*
G01*
X6895000Y-4700000D02*
G75*
G03X6895000Y-4700000I-20000J0D01*
G01*
X6895000Y-4700000D02*
G75*
G03X6895000Y-4700000I-20000J0D01*
G01*
X6895000Y-4825000D02*
G75*
G03X6895000Y-4825000I-20000J0D01*
G01*
X6895000Y-4950000D02*
G75*
G03X6895000Y-4950000I-20000J0D01*
G01*
X6895000Y-5075000D02*
G75*
G03X6895000Y-5075000I-20000J0D01*
G01*
X6895000Y-5200000D02*
G75*
G03X6895000Y-5200000I-20000J0D01*
G01*
X6895000Y-5300000D02*
G75*
G03X6895000Y-5300000I-20000J0D01*
G01*
X6895000Y-5450000D02*
G75*
G03X6895000Y-5450000I-20000J0D01*
G01*
X6895000Y-5575000D02*
G75*
G03X6895000Y-5575000I-20000J0D01*
G01*
X6940000Y-3050000D02*
G75*
G03X6940000Y-3050000I-20000J0D01*
G01*
X6940000Y-3300000D02*
G75*
G03X6940000Y-3300000I-20000J0D01*
G01*
X6940000Y-3550000D02*
G75*
G03X6940000Y-3550000I-20000J0D01*
G01*
X6940000Y-3800000D02*
G75*
G03X6940000Y-3800000I-20000J0D01*
G01*
X6945000Y-3175000D02*
G75*
G03X6945000Y-3175000I-20000J0D01*
G01*
X6945000Y-3425000D02*
G75*
G03X6945000Y-3425000I-20000J0D01*
G01*
X6945000Y-3675000D02*
G75*
G03X6945000Y-3675000I-20000J0D01*
G01*
X6980000Y-6650367D02*
G75*
G03X6980000Y-6650367I-20000J0D01*
G01*
X7020000Y-4700000D02*
G75*
G03X7020000Y-4700000I-20000J0D01*
G01*
X7020000Y-4825000D02*
G75*
G03X7020000Y-4825000I-20000J0D01*
G01*
X7020000Y-4950000D02*
G75*
G03X7020000Y-4950000I-20000J0D01*
G01*
X7020000Y-5075000D02*
G75*
G03X7020000Y-5075000I-20000J0D01*
G01*
X7020000Y-5200000D02*
G75*
G03X7020000Y-5200000I-20000J0D01*
G01*
X7020000Y-5325000D02*
G75*
G03X7020000Y-5325000I-20000J0D01*
G01*
X7020000Y-5450000D02*
G75*
G03X7020000Y-5450000I-20000J0D01*
G01*
X7020000Y-5575000D02*
G75*
G03X7020000Y-5575000I-20000J0D01*
G01*
X7020000Y-5700000D02*
G75*
G03X7020000Y-5700000I-20000J0D01*
G01*
X7020730Y-6470363D02*
G75*
G03X7020730Y-6470363I-20000J0D01*
G01*
X7040000Y-7280000D02*
G75*
G03X7040000Y-7280000I-20000J0D01*
G01*
X7065000Y-3175000D02*
G75*
G03X7065000Y-3175000I-20000J0D01*
G01*
X7065000Y-3425000D02*
G75*
G03X7065000Y-3425000I-20000J0D01*
G01*
X7065000Y-3675000D02*
G75*
G03X7065000Y-3675000I-20000J0D01*
G01*
X7070000Y-3050000D02*
G75*
G03X7070000Y-3050000I-20000J0D01*
G01*
X7070000Y-3300000D02*
G75*
G03X7070000Y-3300000I-20000J0D01*
G01*
X7070000Y-3550000D02*
G75*
G03X7070000Y-3550000I-20000J0D01*
G01*
X7070000Y-3800000D02*
G75*
G03X7070000Y-3800000I-20000J0D01*
G01*
X7145000Y-4700000D02*
G75*
G03X7145000Y-4700000I-20000J0D01*
G01*
X7145000Y-4825000D02*
G75*
G03X7145000Y-4825000I-20000J0D01*
G01*
X7145000Y-4950000D02*
G75*
G03X7145000Y-4950000I-20000J0D01*
G01*
X7145000Y-5075000D02*
G75*
G03X7145000Y-5075000I-20000J0D01*
G01*
X7145000Y-5200000D02*
G75*
G03X7145000Y-5200000I-20000J0D01*
G01*
X7145000Y-5325000D02*
G75*
G03X7145000Y-5325000I-20000J0D01*
G01*
X7145000Y-5450000D02*
G75*
G03X7145000Y-5450000I-20000J0D01*
G01*
X7145000Y-5575000D02*
G75*
G03X7145000Y-5575000I-20000J0D01*
G01*
X7175446Y-6618027D02*
G75*
G03X7175446Y-6618027I-20000J0D01*
G01*
X7182499Y-7692497D02*
G75*
G03X7182499Y-7692497I-20000J0D01*
G01*
X7190000Y-3050000D02*
G75*
G03X7190000Y-3050000I-20000J0D01*
G01*
X7190000Y-3300000D02*
G75*
G03X7190000Y-3300000I-20000J0D01*
G01*
X7190000Y-3550000D02*
G75*
G03X7190000Y-3550000I-20000J0D01*
G01*
X7190000Y-3800000D02*
G75*
G03X7190000Y-3800000I-20000J0D01*
G01*
X7195000Y-3175000D02*
G75*
G03X7195000Y-3175000I-20000J0D01*
G01*
X7195000Y-3425000D02*
G75*
G03X7195000Y-3425000I-20000J0D01*
G01*
X7195000Y-3675000D02*
G75*
G03X7195000Y-3675000I-20000J0D01*
G01*
X7270000Y-4700000D02*
G75*
G03X7270000Y-4700000I-20000J0D01*
G01*
X7270000Y-4825000D02*
G75*
G03X7270000Y-4825000I-20000J0D01*
G01*
X7270000Y-4950000D02*
G75*
G03X7270000Y-4950000I-20000J0D01*
G01*
X7270000Y-5075000D02*
G75*
G03X7270000Y-5075000I-20000J0D01*
G01*
X7270000Y-5200000D02*
G75*
G03X7270000Y-5200000I-20000J0D01*
G01*
X7270000Y-5325000D02*
G75*
G03X7270000Y-5325000I-20000J0D01*
G01*
X7270000Y-5450000D02*
G75*
G03X7270000Y-5450000I-20000J0D01*
G01*
X7270000Y-5575000D02*
G75*
G03X7270000Y-5575000I-20000J0D01*
G01*
X7270000Y-5700000D02*
G75*
G03X7270000Y-5700000I-20000J0D01*
G01*
X7280000Y-7042508D02*
G75*
G03X7280000Y-7042508I-20000J0D01*
G01*
X7300000Y-7690000D02*
G75*
G03X7300000Y-7690000I-20000J0D01*
G01*
X7315000Y-3175000D02*
G75*
G03X7315000Y-3175000I-20000J0D01*
G01*
X7315000Y-3425000D02*
G75*
G03X7315000Y-3425000I-20000J0D01*
G01*
X7315000Y-3675000D02*
G75*
G03X7315000Y-3675000I-20000J0D01*
G01*
X7320000Y-3050000D02*
G75*
G03X7320000Y-3050000I-20000J0D01*
G01*
X7320000Y-3300000D02*
G75*
G03X7320000Y-3300000I-20000J0D01*
G01*
X7320000Y-3550000D02*
G75*
G03X7320000Y-3550000I-20000J0D01*
G01*
X7320000Y-3800000D02*
G75*
G03X7320000Y-3800000I-20000J0D01*
G01*
X7360000Y-6630000D02*
G75*
G03X7360000Y-6630000I-20000J0D01*
G01*
X7422842Y-6539641D02*
G75*
G03X7422842Y-6539641I-20000J0D01*
G01*
X7440000Y-3050000D02*
G75*
G03X7440000Y-3050000I-20000J0D01*
G01*
X7440000Y-3300000D02*
G75*
G03X7440000Y-3300000I-20000J0D01*
G01*
X7440000Y-3550000D02*
G75*
G03X7440000Y-3550000I-20000J0D01*
G01*
X7440000Y-3800000D02*
G75*
G03X7440000Y-3800000I-20000J0D01*
G01*
X7445000Y-3175000D02*
G75*
G03X7445000Y-3175000I-20000J0D01*
G01*
X7445000Y-3425000D02*
G75*
G03X7445000Y-3425000I-20000J0D01*
G01*
X7445000Y-3425000D02*
G75*
G03X7445000Y-3425000I-20000J0D01*
G01*
X7445000Y-3675000D02*
G75*
G03X7445000Y-3675000I-20000J0D01*
G01*
X7478508Y-5480000D02*
G75*
G03X7478508Y-5480000I-20000J0D01*
G01*
X7550000Y-7120006D02*
G75*
G03X7550000Y-7120006I-20000J0D01*
G01*
X7565000Y-3175000D02*
G75*
G03X7565000Y-3175000I-20000J0D01*
G01*
X7565000Y-3425000D02*
G75*
G03X7565000Y-3425000I-20000J0D01*
G01*
X7565000Y-3425000D02*
G75*
G03X7565000Y-3425000I-20000J0D01*
G01*
X7565000Y-3675000D02*
G75*
G03X7565000Y-3675000I-20000J0D01*
G01*
X7570000Y-3050000D02*
G75*
G03X7570000Y-3050000I-20000J0D01*
G01*
X7570000Y-3300000D02*
G75*
G03X7570000Y-3300000I-20000J0D01*
G01*
X7570000Y-3550000D02*
G75*
G03X7570000Y-3550000I-20000J0D01*
G01*
X7600000Y-6747494D02*
G75*
G03X7600000Y-6747494I-20000J0D01*
G01*
X7631220Y-7241315D02*
G75*
G03X7631220Y-7241315I-20000J0D01*
G01*
X7820000Y-7530000D02*
G75*
G03X7820000Y-7530000I-20000J0D01*
G01*
X7840000Y-6630003D02*
G75*
G03X7840000Y-6630003I-20000J0D01*
G01*
X7870000Y-3850000D02*
G75*
G03X7870000Y-3850000I-20000J0D01*
G01*
X7870000Y-3975000D02*
G75*
G03X7870000Y-3975000I-20000J0D01*
G01*
X7870000Y-4100000D02*
G75*
G03X7870000Y-4100000I-20000J0D01*
G01*
X7870000Y-4225000D02*
G75*
G03X7870000Y-4225000I-20000J0D01*
G01*
X7870000Y-4350000D02*
G75*
G03X7870000Y-4350000I-20000J0D01*
G01*
X7970000Y-7190000D02*
G75*
G03X7970000Y-7190000I-20000J0D01*
G01*
X7995000Y-3850000D02*
G75*
G03X7995000Y-3850000I-20000J0D01*
G01*
X7995000Y-3975000D02*
G75*
G03X7995000Y-3975000I-20000J0D01*
G01*
X7995000Y-4100000D02*
G75*
G03X7995000Y-4100000I-20000J0D01*
G01*
X7995000Y-4225000D02*
G75*
G03X7995000Y-4225000I-20000J0D01*
G01*
X7995000Y-4350000D02*
G75*
G03X7995000Y-4350000I-20000J0D01*
G01*
X7995000Y-7050000D02*
G75*
G03X7995000Y-7050000I-20000J0D01*
G01*
X8120000Y-3850000D02*
G75*
G03X8120000Y-3850000I-20000J0D01*
G01*
X8120000Y-3975000D02*
G75*
G03X8120000Y-3975000I-20000J0D01*
G01*
X8120000Y-4100000D02*
G75*
G03X8120000Y-4100000I-20000J0D01*
G01*
X8120000Y-4225000D02*
G75*
G03X8120000Y-4225000I-20000J0D01*
G01*
X8120000Y-4350000D02*
G75*
G03X8120000Y-4350000I-20000J0D01*
G01*
X8120000Y-6940000D02*
G75*
G03X8120000Y-6940000I-20000J0D01*
G01*
X8170000Y-7400000D02*
G75*
G03X8170000Y-7400000I-20000J0D01*
G01*
X8220000Y-7100000D02*
G75*
G03X8220000Y-7100000I-20000J0D01*
G01*
X8245000Y-3850000D02*
G75*
G03X8245000Y-3850000I-20000J0D01*
G01*
X8245000Y-3975000D02*
G75*
G03X8245000Y-3975000I-20000J0D01*
G01*
X8245000Y-4100000D02*
G75*
G03X8245000Y-4100000I-20000J0D01*
G01*
X8245000Y-4225000D02*
G75*
G03X8245000Y-4225000I-20000J0D01*
G01*
X8245000Y-4350000D02*
G75*
G03X8245000Y-4350000I-20000J0D01*
G01*
X8289731Y-7354852D02*
G75*
G03X8289731Y-7354852I-20000J0D01*
G01*
X8318563Y-6486485D02*
G75*
G03X8318563Y-6486485I-20000J0D01*
G01*
X8370000Y-3850000D02*
G75*
G03X8370000Y-3850000I-20000J0D01*
G01*
X8370000Y-3975000D02*
G75*
G03X8370000Y-3975000I-20000J0D01*
G01*
X8370000Y-4100000D02*
G75*
G03X8370000Y-4100000I-20000J0D01*
G01*
X8370000Y-4225000D02*
G75*
G03X8370000Y-4225000I-20000J0D01*
G01*
X8370000Y-4350000D02*
G75*
G03X8370000Y-4350000I-20000J0D01*
G01*
X8430897Y-6887500D02*
G75*
G03X8430897Y-6887500I-20000J0D01*
G01*
X8512235Y-7141216D02*
G75*
G03X8512235Y-7141216I-20000J0D01*
G01*
X8515268Y-7241171D02*
G75*
G03X8515268Y-7241171I-20000J0D01*
G01*
X8598734Y-6698734D02*
G75*
G03X8598734Y-6698734I-20000J0D01*
G01*
X8745302Y-7667124D02*
G75*
G03X8745302Y-7667124I-20000J0D01*
G01*
X8920000Y-7551248D02*
G75*
G03X8920000Y-7551248I-20000J0D01*
G01*
X9040000Y-5570000D02*
G75*
G03X9040000Y-5570000I-20000J0D01*
G01*
X9050000Y-4650000D02*
G75*
G03X9050000Y-4650000I-20000J0D01*
G01*
X9209250Y-6390750D02*
G75*
G03X9209250Y-6390750I-20000J0D01*
G01*
X9345000Y-7692497D02*
G75*
G03X9345000Y-7692497I-20000J0D01*
G01*
X9370000Y-3050000D02*
G75*
G03X9370000Y-3050000I-20000J0D01*
G01*
X9370000Y-3300000D02*
G75*
G03X9370000Y-3300000I-20000J0D01*
G01*
X9370000Y-3550000D02*
G75*
G03X9370000Y-3550000I-20000J0D01*
G01*
X9370000Y-3800000D02*
G75*
G03X9370000Y-3800000I-20000J0D01*
G01*
X9420000Y-4700000D02*
G75*
G03X9420000Y-4700000I-20000J0D01*
G01*
X9420000Y-4825000D02*
G75*
G03X9420000Y-4825000I-20000J0D01*
G01*
X9420000Y-4950000D02*
G75*
G03X9420000Y-4950000I-20000J0D01*
G01*
X9420000Y-5075000D02*
G75*
G03X9420000Y-5075000I-20000J0D01*
G01*
X9420000Y-5200000D02*
G75*
G03X9420000Y-5200000I-20000J0D01*
G01*
X9420000Y-5325000D02*
G75*
G03X9420000Y-5325000I-20000J0D01*
G01*
X9420000Y-5450000D02*
G75*
G03X9420000Y-5450000I-20000J0D01*
G01*
X9420000Y-5575000D02*
G75*
G03X9420000Y-5575000I-20000J0D01*
G01*
X9420000Y-5700000D02*
G75*
G03X9420000Y-5700000I-20000J0D01*
G01*
X9490000Y-3050000D02*
G75*
G03X9490000Y-3050000I-20000J0D01*
G01*
X9490000Y-3300000D02*
G75*
G03X9490000Y-3300000I-20000J0D01*
G01*
X9490000Y-3550000D02*
G75*
G03X9490000Y-3550000I-20000J0D01*
G01*
X9490000Y-3800000D02*
G75*
G03X9490000Y-3800000I-20000J0D01*
G01*
X9495000Y-3175000D02*
G75*
G03X9495000Y-3175000I-20000J0D01*
G01*
X9495000Y-3425000D02*
G75*
G03X9495000Y-3425000I-20000J0D01*
G01*
X9495000Y-3675000D02*
G75*
G03X9495000Y-3675000I-20000J0D01*
G01*
X9545000Y-4700000D02*
G75*
G03X9545000Y-4700000I-20000J0D01*
G01*
X9545000Y-4825000D02*
G75*
G03X9545000Y-4825000I-20000J0D01*
G01*
X9545000Y-4950000D02*
G75*
G03X9545000Y-4950000I-20000J0D01*
G01*
X9545000Y-5075000D02*
G75*
G03X9545000Y-5075000I-20000J0D01*
G01*
X9545000Y-5200000D02*
G75*
G03X9545000Y-5200000I-20000J0D01*
G01*
X9545000Y-5325000D02*
G75*
G03X9545000Y-5325000I-20000J0D01*
G01*
X9545000Y-5450000D02*
G75*
G03X9545000Y-5450000I-20000J0D01*
G01*
X9545000Y-5575000D02*
G75*
G03X9545000Y-5575000I-20000J0D01*
G01*
X9600000Y-6210000D02*
G75*
G03X9600000Y-6210000I-20000J0D01*
G01*
X9615000Y-3175000D02*
G75*
G03X9615000Y-3175000I-20000J0D01*
G01*
X9615000Y-3425000D02*
G75*
G03X9615000Y-3425000I-20000J0D01*
G01*
X9615000Y-3675000D02*
G75*
G03X9615000Y-3675000I-20000J0D01*
G01*
X9620000Y-3050000D02*
G75*
G03X9620000Y-3050000I-20000J0D01*
G01*
X9620000Y-3300000D02*
G75*
G03X9620000Y-3300000I-20000J0D01*
G01*
X9620000Y-3550000D02*
G75*
G03X9620000Y-3550000I-20000J0D01*
G01*
X9620000Y-3800000D02*
G75*
G03X9620000Y-3800000I-20000J0D01*
G01*
X9640000Y-7020000D02*
G75*
G03X9640000Y-7020000I-20000J0D01*
G01*
X9640000Y-7571249D02*
G75*
G03X9640000Y-7571249I-20000J0D01*
G01*
X9670000Y-4700000D02*
G75*
G03X9670000Y-4700000I-20000J0D01*
G01*
X9670000Y-4825000D02*
G75*
G03X9670000Y-4825000I-20000J0D01*
G01*
X9670000Y-4950000D02*
G75*
G03X9670000Y-4950000I-20000J0D01*
G01*
X9670000Y-5075000D02*
G75*
G03X9670000Y-5075000I-20000J0D01*
G01*
X9670000Y-5200000D02*
G75*
G03X9670000Y-5200000I-20000J0D01*
G01*
X9670000Y-5325000D02*
G75*
G03X9670000Y-5325000I-20000J0D01*
G01*
X9670000Y-5450000D02*
G75*
G03X9670000Y-5450000I-20000J0D01*
G01*
X9670000Y-5575000D02*
G75*
G03X9670000Y-5575000I-20000J0D01*
G01*
X9670000Y-5700000D02*
G75*
G03X9670000Y-5700000I-20000J0D01*
G01*
X9680763Y-6599996D02*
G75*
G03X9680763Y-6599996I-20000J0D01*
G01*
X9716737Y-7236737D02*
G75*
G03X9716737Y-7236737I-20000J0D01*
G01*
X9720000Y-6790001D02*
G75*
G03X9720000Y-6790001I-20000J0D01*
G01*
X9740000Y-3050000D02*
G75*
G03X9740000Y-3050000I-20000J0D01*
G01*
X9740000Y-3300000D02*
G75*
G03X9740000Y-3300000I-20000J0D01*
G01*
X9740000Y-3550000D02*
G75*
G03X9740000Y-3550000I-20000J0D01*
G01*
X9740000Y-3800000D02*
G75*
G03X9740000Y-3800000I-20000J0D01*
G01*
X9745000Y-3175000D02*
G75*
G03X9745000Y-3175000I-20000J0D01*
G01*
X9745000Y-3425000D02*
G75*
G03X9745000Y-3425000I-20000J0D01*
G01*
X9745000Y-3675000D02*
G75*
G03X9745000Y-3675000I-20000J0D01*
G01*
X9795000Y-4700000D02*
G75*
G03X9795000Y-4700000I-20000J0D01*
G01*
X9795000Y-4700000D02*
G75*
G03X9795000Y-4700000I-20000J0D01*
G01*
X9795000Y-4825000D02*
G75*
G03X9795000Y-4825000I-20000J0D01*
G01*
X9795000Y-4950000D02*
G75*
G03X9795000Y-4950000I-20000J0D01*
G01*
X9795000Y-5075000D02*
G75*
G03X9795000Y-5075000I-20000J0D01*
G01*
X9795000Y-5200000D02*
G75*
G03X9795000Y-5200000I-20000J0D01*
G01*
X9795000Y-5325000D02*
G75*
G03X9795000Y-5325000I-20000J0D01*
G01*
X9795000Y-5450000D02*
G75*
G03X9795000Y-5450000I-20000J0D01*
G01*
X9795000Y-5575000D02*
G75*
G03X9795000Y-5575000I-20000J0D01*
G01*
X9812636Y-6557970D02*
G75*
G03X9812636Y-6557970I-20000J0D01*
G01*
X9819247Y-6802261D02*
G75*
G03X9819247Y-6802261I-20000J0D01*
G01*
X9865000Y-3175000D02*
G75*
G03X9865000Y-3175000I-20000J0D01*
G01*
X9865000Y-3425000D02*
G75*
G03X9865000Y-3425000I-20000J0D01*
G01*
X9865000Y-3675000D02*
G75*
G03X9865000Y-3675000I-20000J0D01*
G01*
X9870000Y-3050000D02*
G75*
G03X9870000Y-3050000I-20000J0D01*
G01*
X9870000Y-3300000D02*
G75*
G03X9870000Y-3300000I-20000J0D01*
G01*
X9870000Y-3550000D02*
G75*
G03X9870000Y-3550000I-20000J0D01*
G01*
X9870000Y-3800000D02*
G75*
G03X9870000Y-3800000I-20000J0D01*
G01*
X9915000Y-7145000D02*
G75*
G03X9915000Y-7145000I-20000J0D01*
G01*
X9920000Y-4700000D02*
G75*
G03X9920000Y-4700000I-20000J0D01*
G01*
X9920000Y-4825000D02*
G75*
G03X9920000Y-4825000I-20000J0D01*
G01*
X9920000Y-4950000D02*
G75*
G03X9920000Y-4950000I-20000J0D01*
G01*
X9920000Y-5075000D02*
G75*
G03X9920000Y-5075000I-20000J0D01*
G01*
X9920000Y-5200000D02*
G75*
G03X9920000Y-5200000I-20000J0D01*
G01*
X9920000Y-5325000D02*
G75*
G03X9920000Y-5325000I-20000J0D01*
G01*
X9920000Y-5450000D02*
G75*
G03X9920000Y-5450000I-20000J0D01*
G01*
X9920000Y-5575000D02*
G75*
G03X9920000Y-5575000I-20000J0D01*
G01*
X9920000Y-5700000D02*
G75*
G03X9920000Y-5700000I-20000J0D01*
G01*
X9987500Y-7325000D02*
G75*
G03X9987500Y-7325000I-20000J0D01*
G01*
X9990000Y-3050000D02*
G75*
G03X9990000Y-3050000I-20000J0D01*
G01*
X9990000Y-3300000D02*
G75*
G03X9990000Y-3300000I-20000J0D01*
G01*
X9990000Y-3550000D02*
G75*
G03X9990000Y-3550000I-20000J0D01*
G01*
X9990000Y-3800000D02*
G75*
G03X9990000Y-3800000I-20000J0D01*
G01*
X9995000Y-3175000D02*
G75*
G03X9995000Y-3175000I-20000J0D01*
G01*
X9995000Y-3425000D02*
G75*
G03X9995000Y-3425000I-20000J0D01*
G01*
X9995000Y-3675000D02*
G75*
G03X9995000Y-3675000I-20000J0D01*
G01*
X10045000Y-4700000D02*
G75*
G03X10045000Y-4700000I-20000J0D01*
G01*
X10045000Y-4825000D02*
G75*
G03X10045000Y-4825000I-20000J0D01*
G01*
X10045000Y-4950000D02*
G75*
G03X10045000Y-4950000I-20000J0D01*
G01*
X10045000Y-5075000D02*
G75*
G03X10045000Y-5075000I-20000J0D01*
G01*
X10045000Y-5200000D02*
G75*
G03X10045000Y-5200000I-20000J0D01*
G01*
X10045000Y-5325000D02*
G75*
G03X10045000Y-5325000I-20000J0D01*
G01*
X10045000Y-5450000D02*
G75*
G03X10045000Y-5450000I-20000J0D01*
G01*
X10045000Y-5575000D02*
G75*
G03X10045000Y-5575000I-20000J0D01*
G01*
X10115000Y-3175000D02*
G75*
G03X10115000Y-3175000I-20000J0D01*
G01*
X10115000Y-3425000D02*
G75*
G03X10115000Y-3425000I-20000J0D01*
G01*
X10115000Y-3675000D02*
G75*
G03X10115000Y-3675000I-20000J0D01*
G01*
X10120000Y-3050000D02*
G75*
G03X10120000Y-3050000I-20000J0D01*
G01*
X10120000Y-3300000D02*
G75*
G03X10120000Y-3300000I-20000J0D01*
G01*
X10120000Y-3550000D02*
G75*
G03X10120000Y-3550000I-20000J0D01*
G01*
X10120000Y-3800000D02*
G75*
G03X10120000Y-3800000I-20000J0D01*
G01*
X10170000Y-4700000D02*
G75*
G03X10170000Y-4700000I-20000J0D01*
G01*
X10170000Y-4825000D02*
G75*
G03X10170000Y-4825000I-20000J0D01*
G01*
X10170000Y-4950000D02*
G75*
G03X10170000Y-4950000I-20000J0D01*
G01*
X10170000Y-5075000D02*
G75*
G03X10170000Y-5075000I-20000J0D01*
G01*
X10170000Y-5200000D02*
G75*
G03X10170000Y-5200000I-20000J0D01*
G01*
X10170000Y-5325000D02*
G75*
G03X10170000Y-5325000I-20000J0D01*
G01*
X10170000Y-5450000D02*
G75*
G03X10170000Y-5450000I-20000J0D01*
G01*
X10170000Y-5575000D02*
G75*
G03X10170000Y-5575000I-20000J0D01*
G01*
X10170000Y-5700000D02*
G75*
G03X10170000Y-5700000I-20000J0D01*
G01*
X10240000Y-3050000D02*
G75*
G03X10240000Y-3050000I-20000J0D01*
G01*
X10240000Y-3300000D02*
G75*
G03X10240000Y-3300000I-20000J0D01*
G01*
X10240000Y-3550000D02*
G75*
G03X10240000Y-3550000I-20000J0D01*
G01*
X10240000Y-3800000D02*
G75*
G03X10240000Y-3800000I-20000J0D01*
G01*
X10245000Y-3175000D02*
G75*
G03X10245000Y-3175000I-20000J0D01*
G01*
X10245000Y-3425000D02*
G75*
G03X10245000Y-3425000I-20000J0D01*
G01*
X10245000Y-3675000D02*
G75*
G03X10245000Y-3675000I-20000J0D01*
G01*
X10245000Y-7575000D02*
G75*
G03X10245000Y-7575000I-20000J0D01*
G01*
X10257502Y-7325000D02*
G75*
G03X10257502Y-7325000I-20000J0D01*
G01*
X10290000Y-5440000D02*
G75*
G03X10290000Y-5440000I-20000J0D01*
G01*
X10320570Y-7640494D02*
G75*
G03X10320570Y-7640494I-20000J0D01*
G01*
X10365000Y-3175000D02*
G75*
G03X10365000Y-3175000I-20000J0D01*
G01*
X10365000Y-3425000D02*
G75*
G03X10365000Y-3425000I-20000J0D01*
G01*
X10365000Y-3425000D02*
G75*
G03X10365000Y-3425000I-20000J0D01*
G01*
X10370000Y-3050000D02*
G75*
G03X10370000Y-3050000I-20000J0D01*
G01*
X10370000Y-3300000D02*
G75*
G03X10370000Y-3300000I-20000J0D01*
G01*
X10370000Y-3550000D02*
G75*
G03X10370000Y-3550000I-20000J0D01*
G01*
X10370000Y-7030000D02*
G75*
G03X10370000Y-7030000I-20000J0D01*
G01*
X10620000Y-3800000D02*
G75*
G03X10620000Y-3800000I-20000J0D01*
G01*
X10620000Y-3925000D02*
G75*
G03X10620000Y-3925000I-20000J0D01*
G01*
X10620000Y-4050000D02*
G75*
G03X10620000Y-4050000I-20000J0D01*
G01*
X10620000Y-4175000D02*
G75*
G03X10620000Y-4175000I-20000J0D01*
G01*
X10620000Y-4300000D02*
G75*
G03X10620000Y-4300000I-20000J0D01*
G01*
X10680000Y-7100000D02*
G75*
G03X10680000Y-7100000I-20000J0D01*
G01*
X10710000Y-7627500D02*
G75*
G03X10710000Y-7627500I-20000J0D01*
G01*
X10745000Y-3800000D02*
G75*
G03X10745000Y-3800000I-20000J0D01*
G01*
X10745000Y-3925000D02*
G75*
G03X10745000Y-3925000I-20000J0D01*
G01*
X10745000Y-4050000D02*
G75*
G03X10745000Y-4050000I-20000J0D01*
G01*
X10745000Y-4175000D02*
G75*
G03X10745000Y-4175000I-20000J0D01*
G01*
X10745000Y-4300000D02*
G75*
G03X10745000Y-4300000I-20000J0D01*
G01*
X10770000Y-7525000D02*
G75*
G03X10770000Y-7525000I-20000J0D01*
G01*
X10840000Y-7260000D02*
G75*
G03X10840000Y-7260000I-20000J0D01*
G01*
X10860000Y-6880000D02*
G75*
G03X10860000Y-6880000I-20000J0D01*
G01*
X10870000Y-3800000D02*
G75*
G03X10870000Y-3800000I-20000J0D01*
G01*
X10870000Y-3925000D02*
G75*
G03X10870000Y-3925000I-20000J0D01*
G01*
X10870000Y-4050000D02*
G75*
G03X10870000Y-4050000I-20000J0D01*
G01*
X10870000Y-4175000D02*
G75*
G03X10870000Y-4175000I-20000J0D01*
G01*
X10870000Y-4300000D02*
G75*
G03X10870000Y-4300000I-20000J0D01*
G01*
X10980000Y-7140000D02*
G75*
G03X10980000Y-7140000I-20000J0D01*
G01*
X10995000Y-3800000D02*
G75*
G03X10995000Y-3800000I-20000J0D01*
G01*
X10995000Y-3925000D02*
G75*
G03X10995000Y-3925000I-20000J0D01*
G01*
X10995000Y-4050000D02*
G75*
G03X10995000Y-4050000I-20000J0D01*
G01*
X10995000Y-4175000D02*
G75*
G03X10995000Y-4175000I-20000J0D01*
G01*
X10995000Y-4300000D02*
G75*
G03X10995000Y-4300000I-20000J0D01*
G01*
X11020000Y-6580000D02*
G75*
G03X11020000Y-6580000I-20000J0D01*
G01*
X11020000Y-6860004D02*
G75*
G03X11020000Y-6860004I-20000J0D01*
G01*
X11120000Y-3800000D02*
G75*
G03X11120000Y-3800000I-20000J0D01*
G01*
X11120000Y-3925000D02*
G75*
G03X11120000Y-3925000I-20000J0D01*
G01*
X11120000Y-4050000D02*
G75*
G03X11120000Y-4050000I-20000J0D01*
G01*
X11120000Y-4175000D02*
G75*
G03X11120000Y-4175000I-20000J0D01*
G01*
X11120000Y-4300000D02*
G75*
G03X11120000Y-4300000I-20000J0D01*
G01*
X11190000Y-7350000D02*
G75*
G03X11190000Y-7350000I-20000J0D01*
G01*
X11200000Y-7140000D02*
G75*
G03X11200000Y-7140000I-20000J0D01*
G01*
X11330000Y-6880000D02*
G75*
G03X11330000Y-6880000I-20000J0D01*
G01*
X11420000Y-7630000D02*
G75*
G03X11420000Y-7630000I-20000J0D01*
G01*
X11480000Y-7320000D02*
G75*
G03X11480000Y-7320000I-20000J0D01*
G01*
X11610000Y-5590000D02*
G75*
G03X11610000Y-5590000I-20000J0D01*
G01*
X11745000Y-4750000D02*
G75*
G03X11745000Y-4750000I-20000J0D01*
G01*
X11940000Y-6880000D02*
G75*
G03X11940000Y-6880000I-20000J0D01*
G01*
X11952573Y-6390750D02*
G75*
G03X11952573Y-6390750I-20000J0D01*
G01*
X12000000Y-7320000D02*
G75*
G03X12000000Y-7320000I-20000J0D01*
G01*
X12020000Y-4700000D02*
G75*
G03X12020000Y-4700000I-20000J0D01*
G01*
X12020000Y-4825000D02*
G75*
G03X12020000Y-4825000I-20000J0D01*
G01*
X12020000Y-4950000D02*
G75*
G03X12020000Y-4950000I-20000J0D01*
G01*
X12020000Y-5075000D02*
G75*
G03X12020000Y-5075000I-20000J0D01*
G01*
X12020000Y-5200000D02*
G75*
G03X12020000Y-5200000I-20000J0D01*
G01*
X12020000Y-5325000D02*
G75*
G03X12020000Y-5325000I-20000J0D01*
G01*
X12020000Y-5450000D02*
G75*
G03X12020000Y-5450000I-20000J0D01*
G01*
X12020000Y-5575000D02*
G75*
G03X12020000Y-5575000I-20000J0D01*
G01*
X12020000Y-5700000D02*
G75*
G03X12020000Y-5700000I-20000J0D01*
G01*
X12070000Y-3050000D02*
G75*
G03X12070000Y-3050000I-20000J0D01*
G01*
X12070000Y-3300000D02*
G75*
G03X12070000Y-3300000I-20000J0D01*
G01*
X12070000Y-3550000D02*
G75*
G03X12070000Y-3550000I-20000J0D01*
G01*
X12070000Y-3800000D02*
G75*
G03X12070000Y-3800000I-20000J0D01*
G01*
X12145000Y-4700000D02*
G75*
G03X12145000Y-4700000I-20000J0D01*
G01*
X12145000Y-4825000D02*
G75*
G03X12145000Y-4825000I-20000J0D01*
G01*
X12145000Y-4950000D02*
G75*
G03X12145000Y-4950000I-20000J0D01*
G01*
X12145000Y-5075000D02*
G75*
G03X12145000Y-5075000I-20000J0D01*
G01*
X12145000Y-5200000D02*
G75*
G03X12145000Y-5200000I-20000J0D01*
G01*
X12145000Y-5325000D02*
G75*
G03X12145000Y-5325000I-20000J0D01*
G01*
X12145000Y-5450000D02*
G75*
G03X12145000Y-5450000I-20000J0D01*
G01*
X12145000Y-5575000D02*
G75*
G03X12145000Y-5575000I-20000J0D01*
G01*
X12195000Y-3050000D02*
G75*
G03X12195000Y-3050000I-20000J0D01*
G01*
X12195000Y-3175000D02*
G75*
G03X12195000Y-3175000I-20000J0D01*
G01*
X12195000Y-3300000D02*
G75*
G03X12195000Y-3300000I-20000J0D01*
G01*
X12195000Y-3425000D02*
G75*
G03X12195000Y-3425000I-20000J0D01*
G01*
X12195000Y-3550000D02*
G75*
G03X12195000Y-3550000I-20000J0D01*
G01*
X12195000Y-3675000D02*
G75*
G03X12195000Y-3675000I-20000J0D01*
G01*
X12195000Y-3800000D02*
G75*
G03X12195000Y-3800000I-20000J0D01*
G01*
X12270000Y-4700000D02*
G75*
G03X12270000Y-4700000I-20000J0D01*
G01*
X12270000Y-4825000D02*
G75*
G03X12270000Y-4825000I-20000J0D01*
G01*
X12270000Y-4950000D02*
G75*
G03X12270000Y-4950000I-20000J0D01*
G01*
X12270000Y-5075000D02*
G75*
G03X12270000Y-5075000I-20000J0D01*
G01*
X12270000Y-5200000D02*
G75*
G03X12270000Y-5200000I-20000J0D01*
G01*
X12270000Y-5325000D02*
G75*
G03X12270000Y-5325000I-20000J0D01*
G01*
X12270000Y-5450000D02*
G75*
G03X12270000Y-5450000I-20000J0D01*
G01*
X12270000Y-5575000D02*
G75*
G03X12270000Y-5575000I-20000J0D01*
G01*
X12270000Y-5700000D02*
G75*
G03X12270000Y-5700000I-20000J0D01*
G01*
X12300000Y-6180000D02*
G75*
G03X12300000Y-6180000I-20000J0D01*
G01*
X12320000Y-3050000D02*
G75*
G03X12320000Y-3050000I-20000J0D01*
G01*
X12320000Y-3175000D02*
G75*
G03X12320000Y-3175000I-20000J0D01*
G01*
X12320000Y-3300000D02*
G75*
G03X12320000Y-3300000I-20000J0D01*
G01*
X12320000Y-3425000D02*
G75*
G03X12320000Y-3425000I-20000J0D01*
G01*
X12320000Y-3550000D02*
G75*
G03X12320000Y-3550000I-20000J0D01*
G01*
X12320000Y-3675000D02*
G75*
G03X12320000Y-3675000I-20000J0D01*
G01*
X12320000Y-3800000D02*
G75*
G03X12320000Y-3800000I-20000J0D01*
G01*
X12395000Y-4700000D02*
G75*
G03X12395000Y-4700000I-20000J0D01*
G01*
X12395000Y-4700000D02*
G75*
G03X12395000Y-4700000I-20000J0D01*
G01*
X12395000Y-4950000D02*
G75*
G03X12395000Y-4950000I-20000J0D01*
G01*
X12395000Y-5075000D02*
G75*
G03X12395000Y-5075000I-20000J0D01*
G01*
X12395000Y-5200000D02*
G75*
G03X12395000Y-5200000I-20000J0D01*
G01*
X12395000Y-5325000D02*
G75*
G03X12395000Y-5325000I-20000J0D01*
G01*
X12395000Y-5450000D02*
G75*
G03X12395000Y-5450000I-20000J0D01*
G01*
X12395000Y-5575000D02*
G75*
G03X12395000Y-5575000I-20000J0D01*
G01*
X12420000Y-4825000D02*
G75*
G03X12420000Y-4825000I-20000J0D01*
G01*
X12445000Y-3050000D02*
G75*
G03X12445000Y-3050000I-20000J0D01*
G01*
X12445000Y-3175000D02*
G75*
G03X12445000Y-3175000I-20000J0D01*
G01*
X12445000Y-3300000D02*
G75*
G03X12445000Y-3300000I-20000J0D01*
G01*
X12445000Y-3425000D02*
G75*
G03X12445000Y-3425000I-20000J0D01*
G01*
X12445000Y-3550000D02*
G75*
G03X12445000Y-3550000I-20000J0D01*
G01*
X12445000Y-3675000D02*
G75*
G03X12445000Y-3675000I-20000J0D01*
G01*
X12445000Y-3800000D02*
G75*
G03X12445000Y-3800000I-20000J0D01*
G01*
X12520000Y-4700000D02*
G75*
G03X12520000Y-4700000I-20000J0D01*
G01*
X12520000Y-4825000D02*
G75*
G03X12520000Y-4825000I-20000J0D01*
G01*
X12520000Y-4950000D02*
G75*
G03X12520000Y-4950000I-20000J0D01*
G01*
X12520000Y-5075000D02*
G75*
G03X12520000Y-5075000I-20000J0D01*
G01*
X12520000Y-5200000D02*
G75*
G03X12520000Y-5200000I-20000J0D01*
G01*
X12520000Y-5325000D02*
G75*
G03X12520000Y-5325000I-20000J0D01*
G01*
X12520000Y-5450000D02*
G75*
G03X12520000Y-5450000I-20000J0D01*
G01*
X12520000Y-5575000D02*
G75*
G03X12520000Y-5575000I-20000J0D01*
G01*
X12520000Y-5700000D02*
G75*
G03X12520000Y-5700000I-20000J0D01*
G01*
X12570000Y-3050000D02*
G75*
G03X12570000Y-3050000I-20000J0D01*
G01*
X12570000Y-3175000D02*
G75*
G03X12570000Y-3175000I-20000J0D01*
G01*
X12570000Y-3300000D02*
G75*
G03X12570000Y-3300000I-20000J0D01*
G01*
X12570000Y-3425000D02*
G75*
G03X12570000Y-3425000I-20000J0D01*
G01*
X12570000Y-3550000D02*
G75*
G03X12570000Y-3550000I-20000J0D01*
G01*
X12570000Y-3675000D02*
G75*
G03X12570000Y-3675000I-20000J0D01*
G01*
X12570000Y-3800000D02*
G75*
G03X12570000Y-3800000I-20000J0D01*
G01*
X12645000Y-4700000D02*
G75*
G03X12645000Y-4700000I-20000J0D01*
G01*
X12645000Y-4825000D02*
G75*
G03X12645000Y-4825000I-20000J0D01*
G01*
X12645000Y-4950000D02*
G75*
G03X12645000Y-4950000I-20000J0D01*
G01*
X12645000Y-5075000D02*
G75*
G03X12645000Y-5075000I-20000J0D01*
G01*
X12645000Y-5200000D02*
G75*
G03X12645000Y-5200000I-20000J0D01*
G01*
X12645000Y-5325000D02*
G75*
G03X12645000Y-5325000I-20000J0D01*
G01*
X12645000Y-5450000D02*
G75*
G03X12645000Y-5450000I-20000J0D01*
G01*
X12645000Y-5575000D02*
G75*
G03X12645000Y-5575000I-20000J0D01*
G01*
X12695000Y-3050000D02*
G75*
G03X12695000Y-3050000I-20000J0D01*
G01*
X12695000Y-3175000D02*
G75*
G03X12695000Y-3175000I-20000J0D01*
G01*
X12695000Y-3300000D02*
G75*
G03X12695000Y-3300000I-20000J0D01*
G01*
X12695000Y-3425000D02*
G75*
G03X12695000Y-3425000I-20000J0D01*
G01*
X12695000Y-3550000D02*
G75*
G03X12695000Y-3550000I-20000J0D01*
G01*
X12695000Y-3675000D02*
G75*
G03X12695000Y-3675000I-20000J0D01*
G01*
X12695000Y-3800000D02*
G75*
G03X12695000Y-3800000I-20000J0D01*
G01*
X12770000Y-4700000D02*
G75*
G03X12770000Y-4700000I-20000J0D01*
G01*
X12770000Y-4825000D02*
G75*
G03X12770000Y-4825000I-20000J0D01*
G01*
X12770000Y-4950000D02*
G75*
G03X12770000Y-4950000I-20000J0D01*
G01*
X12770000Y-5075000D02*
G75*
G03X12770000Y-5075000I-20000J0D01*
G01*
X12770000Y-5200000D02*
G75*
G03X12770000Y-5200000I-20000J0D01*
G01*
X12770000Y-5325000D02*
G75*
G03X12770000Y-5325000I-20000J0D01*
G01*
X12770000Y-5450000D02*
G75*
G03X12770000Y-5450000I-20000J0D01*
G01*
X12770000Y-5575000D02*
G75*
G03X12770000Y-5575000I-20000J0D01*
G01*
X12770000Y-5700000D02*
G75*
G03X12770000Y-5700000I-20000J0D01*
G01*
X12820000Y-3050000D02*
G75*
G03X12820000Y-3050000I-20000J0D01*
G01*
X12820000Y-3175000D02*
G75*
G03X12820000Y-3175000I-20000J0D01*
G01*
X12820000Y-3300000D02*
G75*
G03X12820000Y-3300000I-20000J0D01*
G01*
X12820000Y-3425000D02*
G75*
G03X12820000Y-3425000I-20000J0D01*
G01*
X12820000Y-3550000D02*
G75*
G03X12820000Y-3550000I-20000J0D01*
G01*
X12820000Y-3675000D02*
G75*
G03X12820000Y-3675000I-20000J0D01*
G01*
X12820000Y-3800000D02*
G75*
G03X12820000Y-3800000I-20000J0D01*
G01*
X12920000Y-6770001D02*
G75*
G03X12920000Y-6770001I-20000J0D01*
G01*
X12945000Y-3050000D02*
G75*
G03X12945000Y-3050000I-20000J0D01*
G01*
X12945000Y-3175000D02*
G75*
G03X12945000Y-3175000I-20000J0D01*
G01*
X12945000Y-3300000D02*
G75*
G03X12945000Y-3300000I-20000J0D01*
G01*
X12945000Y-3425000D02*
G75*
G03X12945000Y-3425000I-20000J0D01*
G01*
X12945000Y-3550000D02*
G75*
G03X12945000Y-3550000I-20000J0D01*
G01*
X12945000Y-3675000D02*
G75*
G03X12945000Y-3675000I-20000J0D01*
G01*
X12945000Y-3800000D02*
G75*
G03X12945000Y-3800000I-20000J0D01*
G01*
X12958500Y-5435858D02*
G75*
G03X12958500Y-5435858I-20000J0D01*
G01*
X13070000Y-3050000D02*
G75*
G03X13070000Y-3050000I-20000J0D01*
G01*
X13070000Y-3175000D02*
G75*
G03X13070000Y-3175000I-20000J0D01*
G01*
X13070000Y-3300000D02*
G75*
G03X13070000Y-3300000I-20000J0D01*
G01*
X13070000Y-3425000D02*
G75*
G03X13070000Y-3425000I-20000J0D01*
G01*
X13070000Y-3550000D02*
G75*
G03X13070000Y-3550000I-20000J0D01*
G01*
X13120000Y-7200000D02*
G75*
G03X13120000Y-7200000I-20000J0D01*
G01*
X13270000Y-3800000D02*
G75*
G03X13270000Y-3800000I-20000J0D01*
G01*
X13270000Y-3925000D02*
G75*
G03X13270000Y-3925000I-20000J0D01*
G01*
X13270000Y-4050000D02*
G75*
G03X13270000Y-4050000I-20000J0D01*
G01*
X13270000Y-4175000D02*
G75*
G03X13270000Y-4175000I-20000J0D01*
G01*
X13270000Y-4300000D02*
G75*
G03X13270000Y-4300000I-20000J0D01*
G01*
X13395000Y-3800000D02*
G75*
G03X13395000Y-3800000I-20000J0D01*
G01*
X13395000Y-3925000D02*
G75*
G03X13395000Y-3925000I-20000J0D01*
G01*
X13395000Y-4050000D02*
G75*
G03X13395000Y-4050000I-20000J0D01*
G01*
X13395000Y-4175000D02*
G75*
G03X13395000Y-4175000I-20000J0D01*
G01*
X13395000Y-4300000D02*
G75*
G03X13395000Y-4300000I-20000J0D01*
G01*
X13420000Y-6750000D02*
G75*
G03X13420000Y-6750000I-20000J0D01*
G01*
X13520000Y-3800000D02*
G75*
G03X13520000Y-3800000I-20000J0D01*
G01*
X13520000Y-3925000D02*
G75*
G03X13520000Y-3925000I-20000J0D01*
G01*
X13520000Y-4050000D02*
G75*
G03X13520000Y-4050000I-20000J0D01*
G01*
X13520000Y-4175000D02*
G75*
G03X13520000Y-4175000I-20000J0D01*
G01*
X13520000Y-4300000D02*
G75*
G03X13520000Y-4300000I-20000J0D01*
G01*
X13570000Y-5850000D02*
G75*
G03X13570000Y-5850000I-20000J0D01*
G01*
X13570000Y-6500000D02*
G75*
G03X13570000Y-6500000I-20000J0D01*
G01*
X13570000Y-6650000D02*
G75*
G03X13570000Y-6650000I-20000J0D01*
G01*
X13645000Y-3800000D02*
G75*
G03X13645000Y-3800000I-20000J0D01*
G01*
X13645000Y-3925000D02*
G75*
G03X13645000Y-3925000I-20000J0D01*
G01*
X13645000Y-4050000D02*
G75*
G03X13645000Y-4050000I-20000J0D01*
G01*
X13645000Y-4175000D02*
G75*
G03X13645000Y-4175000I-20000J0D01*
G01*
X13645000Y-4300000D02*
G75*
G03X13645000Y-4300000I-20000J0D01*
G01*
X13670000Y-5850000D02*
G75*
G03X13670000Y-5850000I-20000J0D01*
G01*
X13670000Y-6500000D02*
G75*
G03X13670000Y-6500000I-20000J0D01*
G01*
X13670000Y-6650000D02*
G75*
G03X13670000Y-6650000I-20000J0D01*
G01*
X13770000Y-3800000D02*
G75*
G03X13770000Y-3800000I-20000J0D01*
G01*
X13770000Y-3925000D02*
G75*
G03X13770000Y-3925000I-20000J0D01*
G01*
X13770000Y-4050000D02*
G75*
G03X13770000Y-4050000I-20000J0D01*
G01*
X13770000Y-4175000D02*
G75*
G03X13770000Y-4175000I-20000J0D01*
G01*
X13770000Y-4300000D02*
G75*
G03X13770000Y-4300000I-20000J0D01*
G01*
X13770000Y-5850000D02*
G75*
G03X13770000Y-5850000I-20000J0D01*
G01*
X13770000Y-6500000D02*
G75*
G03X13770000Y-6500000I-20000J0D01*
G01*
X13770000Y-6650000D02*
G75*
G03X13770000Y-6650000I-20000J0D01*
G01*
X13920000Y-7700000D02*
G75*
G03X13920000Y-7700000I-20000J0D01*
G01*
X13945000Y-3625000D02*
G75*
G03X13945000Y-3625000I-20000J0D01*
G01*
X5525000Y-7105000D02*
X5525000Y-7155000D01*
X5500000Y-7130000D02*
X5550000Y-7130000D01*
X5650000Y-7105000D02*
X5650000Y-7155000D01*
X5625000Y-7130000D02*
X5675000Y-7130000D01*
X5775000Y-7105000D02*
X5775000Y-7155000D01*
X5750000Y-7130000D02*
X5800000Y-7130000D01*
X5900000Y-7105000D02*
X5900000Y-7155000D01*
X5875000Y-7130000D02*
X5925000Y-7130000D01*
X6025000Y-7105000D02*
X6025000Y-7155000D01*
X6000000Y-7130000D02*
X6050000Y-7130000D01*
X6150000Y-7105000D02*
X6150000Y-7155000D01*
X6125000Y-7130000D02*
X6175000Y-7130000D01*
X4820000Y-7105000D02*
X4820000Y-7155000D01*
X4795000Y-7130000D02*
X4845000Y-7130000D01*
X4945000Y-7105000D02*
X4945000Y-7155000D01*
X4920000Y-7130000D02*
X4970000Y-7130000D01*
X5070000Y-7105000D02*
X5070000Y-7155000D01*
X5045000Y-7130000D02*
X5095000Y-7130000D01*
X5195000Y-7105000D02*
X5195000Y-7155000D01*
X5170000Y-7130000D02*
X5220000Y-7130000D01*
X8600000Y-7605000D02*
X8600000Y-7655000D01*
X8575000Y-7630000D02*
X8625000Y-7630000D01*
X8850000Y-7315000D02*
X8850000Y-7365000D01*
X8825000Y-7340000D02*
X8875000Y-7340000D01*
X9220000Y-6845000D02*
X9220000Y-6895000D01*
X9195000Y-6870000D02*
X9245000Y-6870000D01*
X9220000Y-6970000D02*
X9220000Y-7020000D01*
X9195000Y-6995000D02*
X9245000Y-6995000D01*
X9220000Y-7095000D02*
X9220000Y-7145000D01*
X9195000Y-7120000D02*
X9245000Y-7120000D01*
X4187463Y-6961213D02*
X4187463Y-6918787D01*
X4145037Y-6918787D01*
X4145037Y-6961213D01*
X4187463Y-6961213D01*
X4131250Y-6960000D02*
X4201250Y-6960000D01*
X4131250Y-6920000D02*
X4201250Y-6920000D01*
X4201250Y-6960000D02*
G75*
G03X4201250Y-6920000I0J20000D01*
G01*
X4131250Y-6920000D02*
G75*
G03X4131250Y-6960000I0J-20000D01*
G01*
X4187463Y-7661213D02*
X4187463Y-7618787D01*
X4145037Y-7618787D01*
X4145037Y-7661213D01*
X4187463Y-7661213D01*
X4201250Y-7620000D02*
X4131250Y-7620000D01*
X4201250Y-7660000D02*
X4131250Y-7660000D01*
X4131250Y-7620000D02*
G75*
G03X4131250Y-7660000I0J-20000D01*
G01*
X4201250Y-7660000D02*
G75*
G03X4201250Y-7620000I0J20000D01*
G01*
X6050000Y-7547500D02*
X6087500Y-7510000D01*
X6050000Y-7472500D01*
X6012500Y-7510000D01*
X6050000Y-7547500D01*
X6250000Y-7547500D02*
X6287500Y-7510000D01*
X6250000Y-7472500D01*
X6212500Y-7510000D01*
X6250000Y-7547500D01*
X6450000Y-7547500D02*
X6487500Y-7510000D01*
X6450000Y-7472500D01*
X6412500Y-7510000D01*
X6450000Y-7547500D01*
X6650000Y-7547500D02*
X6687500Y-7510000D01*
X6650000Y-7472500D01*
X6612500Y-7510000D01*
X6650000Y-7547500D01*
X6850000Y-7547500D02*
X6887500Y-7510000D01*
X6850000Y-7472500D01*
X6812500Y-7510000D01*
X6850000Y-7547500D01*
X7050000Y-7547500D02*
X7087500Y-7510000D01*
X7050000Y-7472500D01*
X7012500Y-7510000D01*
X7050000Y-7547500D01*
X5250000Y-7547500D02*
X5287500Y-7510000D01*
X5250000Y-7472500D01*
X5212500Y-7510000D01*
X5250000Y-7547500D01*
X5450000Y-7547500D02*
X5487500Y-7510000D01*
X5450000Y-7472500D01*
X5412500Y-7510000D01*
X5450000Y-7547500D01*
X5650000Y-7547500D02*
X5687500Y-7510000D01*
X5650000Y-7472500D01*
X5612500Y-7510000D01*
X5650000Y-7547500D01*
X4393750Y-6997500D02*
X4478750Y-7082500D01*
X4478750Y-6997500D02*
X4393750Y-7082500D01*
X4478750Y-7040000D02*
G75*
G03X4478750Y-7040000I-42500J0D01*
G01*
X4393750Y-7497500D02*
X4478750Y-7582500D01*
X4478750Y-7497500D02*
X4393750Y-7582500D01*
X4478750Y-7540000D02*
G75*
G03X4478750Y-7540000I-42500J0D01*
G01*
X12200000Y-5900000D02*
X12300000Y-6000000D01*
X12300000Y-5900000D02*
X12200000Y-6000000D01*
X12250000Y-5900000D02*
X12250000Y-6000000D01*
X12200000Y-5950000D02*
X12300000Y-5950000D01*
X12454000Y-5900000D02*
X12554000Y-6000000D01*
X12554000Y-5900000D02*
X12454000Y-6000000D01*
X12504000Y-5900000D02*
X12504000Y-6000000D01*
X12454000Y-5950000D02*
X12554000Y-5950000D01*
X9600000Y-5900000D02*
X9700000Y-6000000D01*
X9700000Y-5900000D02*
X9600000Y-6000000D01*
X9650000Y-5900000D02*
X9650000Y-6000000D01*
X9600000Y-5950000D02*
X9700000Y-5950000D01*
X9854000Y-5900000D02*
X9954000Y-6000000D01*
X9954000Y-5900000D02*
X9854000Y-6000000D01*
X9904000Y-5900000D02*
X9904000Y-6000000D01*
X9854000Y-5950000D02*
X9954000Y-5950000D01*
X6700000Y-5950000D02*
X6800000Y-6050000D01*
X6800000Y-5950000D02*
X6700000Y-6050000D01*
X6750000Y-5950000D02*
X6750000Y-6050000D01*
X6700000Y-6000000D02*
X6800000Y-6000000D01*
X6954000Y-5950000D02*
X7054000Y-6050000D01*
X7054000Y-5950000D02*
X6954000Y-6050000D01*
X7004000Y-5950000D02*
X7004000Y-6050000D01*
X6954000Y-6000000D02*
X7054000Y-6000000D01*
X4390000Y-4340000D02*
X4510000Y-4460000D01*
X4510000Y-4340000D02*
X4390000Y-4460000D01*
X4492427Y-4442427D02*
X4492427Y-4357573D01*
X4407573Y-4357573D01*
X4407573Y-4442427D01*
X4492427Y-4442427D01*
X5140000Y-4340000D02*
X5260000Y-4460000D01*
X5260000Y-4340000D02*
X5140000Y-4460000D01*
X5242427Y-4442427D02*
X5242427Y-4357573D01*
X5157573Y-4357573D01*
X5157573Y-4442427D01*
X5242427Y-4442427D01*
X4390000Y-5940000D02*
X4510000Y-6060000D01*
X4510000Y-5940000D02*
X4390000Y-6060000D01*
X4492427Y-6042427D02*
X4492427Y-5957573D01*
X4407573Y-5957573D01*
X4407573Y-6042427D01*
X4492427Y-6042427D01*
X5140000Y-5940000D02*
X5260000Y-6060000D01*
X5260000Y-5940000D02*
X5140000Y-6060000D01*
X5242427Y-6042427D02*
X5242427Y-5957573D01*
X5157573Y-5957573D01*
X5157573Y-6042427D01*
X5242427Y-6042427D01*
X4220000Y-2980000D02*
X4660000Y-3420000D01*
X4660000Y-2980000D02*
X4220000Y-3420000D01*
X4440000Y-3420000D02*
X4660000Y-3200000D01*
X4440000Y-2980000D01*
X4220000Y-3200000D01*
X4440000Y-3420000D01*
X4940000Y-2980000D02*
X5380000Y-3420000D01*
X5380000Y-2980000D02*
X4940000Y-3420000D01*
X5160000Y-3420000D02*
X5380000Y-3200000D01*
X5160000Y-2980000D01*
X4940000Y-3200000D01*
X5160000Y-3420000D01*
D12*
X4283928Y-8268214D02*
X4283928Y-7968214D01*
X4355357Y-7968214D01*
X4398214Y-7982500D01*
X4426786Y-8011071D01*
X4441071Y-8039643D01*
X4455357Y-8096786D01*
X4455357Y-8139643D01*
X4441071Y-8196786D01*
X4426786Y-8225357D01*
X4398214Y-8253929D01*
X4355357Y-8268214D01*
X4283928Y-8268214D01*
X4583928Y-8268214D02*
X4583928Y-8068214D01*
X4583928Y-8125357D02*
X4598214Y-8096786D01*
X4612500Y-8082500D01*
X4641071Y-8068214D01*
X4669643Y-8068214D01*
X4769643Y-8268214D02*
X4769643Y-8068214D01*
X4769643Y-7968214D02*
X4755357Y-7982500D01*
X4769643Y-7996786D01*
X4783928Y-7982500D01*
X4769643Y-7968214D01*
X4769643Y-7996786D01*
X4955357Y-8268214D02*
X4926786Y-8253929D01*
X4912500Y-8225357D01*
X4912500Y-7968214D01*
X5112500Y-8268214D02*
X5083928Y-8253929D01*
X5069643Y-8225357D01*
X5069643Y-7968214D01*
X5455357Y-8268214D02*
X5455357Y-7968214D01*
X5555357Y-8182500D01*
X5655357Y-7968214D01*
X5655357Y-8268214D01*
X5926786Y-8268214D02*
X5926786Y-8111071D01*
X5912500Y-8082500D01*
X5883928Y-8068214D01*
X5826786Y-8068214D01*
X5798214Y-8082500D01*
X5926786Y-8253929D02*
X5898214Y-8268214D01*
X5826786Y-8268214D01*
X5798214Y-8253929D01*
X5783928Y-8225357D01*
X5783928Y-8196786D01*
X5798214Y-8168214D01*
X5826786Y-8153929D01*
X5898214Y-8153929D01*
X5926786Y-8139643D01*
X6069643Y-8068214D02*
X6069643Y-8368214D01*
X6069643Y-8082500D02*
X6098214Y-8068214D01*
X6155357Y-8068214D01*
X6183928Y-8082500D01*
X6198214Y-8096786D01*
X6212500Y-8125357D01*
X6212500Y-8211071D01*
X6198214Y-8239643D01*
X6183928Y-8253929D01*
X6155357Y-8268214D01*
X6098214Y-8268214D01*
X6069643Y-8253929D01*
X6341071Y-8239643D02*
X6355357Y-8253929D01*
X6341071Y-8268214D01*
X6326786Y-8253929D01*
X6341071Y-8239643D01*
X6341071Y-8268214D01*
X6341071Y-8082500D02*
X6355357Y-8096786D01*
X6341071Y-8111071D01*
X6326786Y-8096786D01*
X6341071Y-8082500D01*
X6341071Y-8111071D01*
X3967500Y-8747500D02*
X3997500Y-8777500D01*
X3997500Y-8747500D02*
X3967500Y-8777500D01*
X4341071Y-8598214D02*
X4369643Y-8598214D01*
X4398214Y-8612500D01*
X4412500Y-8626786D01*
X4426786Y-8655357D01*
X4441071Y-8712500D01*
X4441071Y-8783929D01*
X4426786Y-8841072D01*
X4412500Y-8869643D01*
X4398214Y-8883929D01*
X4369643Y-8898214D01*
X4341071Y-8898214D01*
X4312500Y-8883929D01*
X4298214Y-8869643D01*
X4283928Y-8841072D01*
X4269643Y-8783929D01*
X4269643Y-8712500D01*
X4283928Y-8655357D01*
X4298214Y-8626786D01*
X4312500Y-8612500D01*
X4341071Y-8598214D01*
X4569643Y-8869643D02*
X4583928Y-8883929D01*
X4569643Y-8898214D01*
X4555357Y-8883929D01*
X4569643Y-8869643D01*
X4569643Y-8898214D01*
X4683928Y-8598214D02*
X4869643Y-8598214D01*
X4769643Y-8712500D01*
X4812500Y-8712500D01*
X4841071Y-8726786D01*
X4855357Y-8741072D01*
X4869643Y-8769643D01*
X4869643Y-8841072D01*
X4855357Y-8869643D01*
X4841071Y-8883929D01*
X4812500Y-8898214D01*
X4726786Y-8898214D01*
X4698214Y-8883929D01*
X4683928Y-8869643D01*
X5055357Y-8598214D02*
X5083928Y-8598214D01*
X5112500Y-8612500D01*
X5126786Y-8626786D01*
X5141071Y-8655357D01*
X5155357Y-8712500D01*
X5155357Y-8783929D01*
X5141071Y-8841072D01*
X5126786Y-8869643D01*
X5112500Y-8883929D01*
X5083928Y-8898214D01*
X5055357Y-8898214D01*
X5026786Y-8883929D01*
X5012500Y-8869643D01*
X4998214Y-8841072D01*
X4983928Y-8783929D01*
X4983928Y-8712500D01*
X4998214Y-8655357D01*
X5012500Y-8626786D01*
X5026786Y-8612500D01*
X5055357Y-8598214D01*
X5283928Y-8898214D02*
X5283928Y-8698214D01*
X5283928Y-8726786D02*
X5298214Y-8712500D01*
X5326786Y-8698214D01*
X5369643Y-8698214D01*
X5398214Y-8712500D01*
X5412500Y-8741072D01*
X5412500Y-8898214D01*
X5412500Y-8741072D02*
X5426786Y-8712500D01*
X5455357Y-8698214D01*
X5498214Y-8698214D01*
X5526786Y-8712500D01*
X5541071Y-8741072D01*
X5541071Y-8898214D01*
X5683928Y-8898214D02*
X5683928Y-8698214D01*
X5683928Y-8726786D02*
X5698214Y-8712500D01*
X5726786Y-8698214D01*
X5769643Y-8698214D01*
X5798214Y-8712500D01*
X5812500Y-8741072D01*
X5812500Y-8898214D01*
X5812500Y-8741072D02*
X5826786Y-8712500D01*
X5855357Y-8698214D01*
X5898214Y-8698214D01*
X5926786Y-8712500D01*
X5941071Y-8741072D01*
X5941071Y-8898214D01*
X6526786Y-8583929D02*
X6269643Y-8969643D01*
X6912500Y-8598214D02*
X6941071Y-8598214D01*
X6969643Y-8612500D01*
X6983928Y-8626786D01*
X6998214Y-8655357D01*
X7012500Y-8712500D01*
X7012500Y-8783929D01*
X6998214Y-8841072D01*
X6983928Y-8869643D01*
X6969643Y-8883929D01*
X6941071Y-8898214D01*
X6912500Y-8898214D01*
X6883928Y-8883929D01*
X6869643Y-8869643D01*
X6855357Y-8841072D01*
X6841071Y-8783929D01*
X6841071Y-8712500D01*
X6855357Y-8655357D01*
X6869643Y-8626786D01*
X6883928Y-8612500D01*
X6912500Y-8598214D01*
X7141071Y-8869643D02*
X7155357Y-8883929D01*
X7141071Y-8898214D01*
X7126786Y-8883929D01*
X7141071Y-8869643D01*
X7141071Y-8898214D01*
X7341071Y-8598214D02*
X7369643Y-8598214D01*
X7398214Y-8612500D01*
X7412500Y-8626786D01*
X7426786Y-8655357D01*
X7441071Y-8712500D01*
X7441071Y-8783929D01*
X7426786Y-8841072D01*
X7412500Y-8869643D01*
X7398214Y-8883929D01*
X7369643Y-8898214D01*
X7341071Y-8898214D01*
X7312500Y-8883929D01*
X7298214Y-8869643D01*
X7283928Y-8841072D01*
X7269643Y-8783929D01*
X7269643Y-8712500D01*
X7283928Y-8655357D01*
X7298214Y-8626786D01*
X7312500Y-8612500D01*
X7341071Y-8598214D01*
X7726786Y-8898214D02*
X7555357Y-8898214D01*
X7641071Y-8898214D02*
X7641071Y-8598214D01*
X7612500Y-8641072D01*
X7583928Y-8669643D01*
X7555357Y-8683929D01*
X7841071Y-8626786D02*
X7855357Y-8612500D01*
X7883928Y-8598214D01*
X7955357Y-8598214D01*
X7983928Y-8612500D01*
X7998214Y-8626786D01*
X8012500Y-8655357D01*
X8012500Y-8683929D01*
X7998214Y-8726786D01*
X7826786Y-8898214D01*
X8012500Y-8898214D01*
X8126786Y-8598214D02*
X8126786Y-8655357D01*
X8241071Y-8598214D02*
X8241071Y-8655357D01*
X8683928Y-9012500D02*
X8669643Y-8998214D01*
X8641071Y-8955357D01*
X8626786Y-8926786D01*
X8612500Y-8883929D01*
X8598214Y-8812500D01*
X8598214Y-8755357D01*
X8612500Y-8683929D01*
X8626786Y-8641072D01*
X8641071Y-8612500D01*
X8669643Y-8569643D01*
X8683928Y-8555357D01*
X8841071Y-8726786D02*
X8812500Y-8712500D01*
X8798214Y-8698214D01*
X8783928Y-8669643D01*
X8783928Y-8655357D01*
X8798214Y-8626786D01*
X8812500Y-8612500D01*
X8841071Y-8598214D01*
X8898214Y-8598214D01*
X8926786Y-8612500D01*
X8941071Y-8626786D01*
X8955357Y-8655357D01*
X8955357Y-8669643D01*
X8941071Y-8698214D01*
X8926786Y-8712500D01*
X8898214Y-8726786D01*
X8841071Y-8726786D01*
X8812500Y-8741072D01*
X8798214Y-8755357D01*
X8783928Y-8783929D01*
X8783928Y-8841072D01*
X8798214Y-8869643D01*
X8812500Y-8883929D01*
X8841071Y-8898214D01*
X8898214Y-8898214D01*
X8926786Y-8883929D01*
X8941071Y-8869643D01*
X8955357Y-8841072D01*
X8955357Y-8783929D01*
X8941071Y-8755357D01*
X8926786Y-8741072D01*
X8898214Y-8726786D01*
X9312500Y-8898214D02*
X9312500Y-8598214D01*
X9441071Y-8898214D02*
X9441071Y-8741072D01*
X9426786Y-8712500D01*
X9398214Y-8698214D01*
X9355357Y-8698214D01*
X9326786Y-8712500D01*
X9312500Y-8726786D01*
X9626786Y-8898214D02*
X9598214Y-8883929D01*
X9583928Y-8869643D01*
X9569643Y-8841072D01*
X9569643Y-8755357D01*
X9583928Y-8726786D01*
X9598214Y-8712500D01*
X9626786Y-8698214D01*
X9669643Y-8698214D01*
X9698214Y-8712500D01*
X9712500Y-8726786D01*
X9726786Y-8755357D01*
X9726786Y-8841072D01*
X9712500Y-8869643D01*
X9698214Y-8883929D01*
X9669643Y-8898214D01*
X9626786Y-8898214D01*
X9898214Y-8898214D02*
X9869643Y-8883929D01*
X9855357Y-8855357D01*
X9855357Y-8598214D01*
X10126786Y-8883929D02*
X10098214Y-8898214D01*
X10041071Y-8898214D01*
X10012500Y-8883929D01*
X9998214Y-8855357D01*
X9998214Y-8741072D01*
X10012500Y-8712500D01*
X10041071Y-8698214D01*
X10098214Y-8698214D01*
X10126786Y-8712500D01*
X10141071Y-8741072D01*
X10141071Y-8769643D01*
X9998214Y-8798214D01*
X10255357Y-8883929D02*
X10283928Y-8898214D01*
X10341071Y-8898214D01*
X10369643Y-8883929D01*
X10383928Y-8855357D01*
X10383928Y-8841072D01*
X10369643Y-8812500D01*
X10341071Y-8798214D01*
X10298214Y-8798214D01*
X10269643Y-8783929D01*
X10255357Y-8755357D01*
X10255357Y-8741072D01*
X10269643Y-8712500D01*
X10298214Y-8698214D01*
X10341071Y-8698214D01*
X10369643Y-8712500D01*
X10483928Y-9012500D02*
X10498214Y-8998214D01*
X10526786Y-8955357D01*
X10541071Y-8926786D01*
X10555357Y-8883929D01*
X10569643Y-8812500D01*
X10569643Y-8755357D01*
X10555357Y-8683929D01*
X10541071Y-8641072D01*
X10526786Y-8612500D01*
X10498214Y-8569643D01*
X10483928Y-8555357D01*
X3997500Y-9158500D02*
G75*
G03X3997500Y-9158500I-20000J0D01*
G01*
X4341071Y-8994214D02*
X4369643Y-8994214D01*
X4398214Y-9008500D01*
X4412500Y-9022786D01*
X4426786Y-9051357D01*
X4441071Y-9108500D01*
X4441071Y-9179929D01*
X4426786Y-9237072D01*
X4412500Y-9265643D01*
X4398214Y-9279929D01*
X4369643Y-9294214D01*
X4341071Y-9294214D01*
X4312500Y-9279929D01*
X4298214Y-9265643D01*
X4283928Y-9237072D01*
X4269643Y-9179929D01*
X4269643Y-9108500D01*
X4283928Y-9051357D01*
X4298214Y-9022786D01*
X4312500Y-9008500D01*
X4341071Y-8994214D01*
X4569643Y-9265643D02*
X4583928Y-9279929D01*
X4569643Y-9294214D01*
X4555357Y-9279929D01*
X4569643Y-9265643D01*
X4569643Y-9294214D01*
X4841071Y-9094214D02*
X4841071Y-9294214D01*
X4769643Y-8979929D02*
X4698214Y-9194214D01*
X4883928Y-9194214D01*
X5055357Y-8994214D02*
X5083928Y-8994214D01*
X5112500Y-9008500D01*
X5126786Y-9022786D01*
X5141071Y-9051357D01*
X5155357Y-9108500D01*
X5155357Y-9179929D01*
X5141071Y-9237072D01*
X5126786Y-9265643D01*
X5112500Y-9279929D01*
X5083928Y-9294214D01*
X5055357Y-9294214D01*
X5026786Y-9279929D01*
X5012500Y-9265643D01*
X4998214Y-9237072D01*
X4983928Y-9179929D01*
X4983928Y-9108500D01*
X4998214Y-9051357D01*
X5012500Y-9022786D01*
X5026786Y-9008500D01*
X5055357Y-8994214D01*
X5283928Y-9294214D02*
X5283928Y-9094214D01*
X5283928Y-9122786D02*
X5298214Y-9108500D01*
X5326786Y-9094214D01*
X5369643Y-9094214D01*
X5398214Y-9108500D01*
X5412500Y-9137072D01*
X5412500Y-9294214D01*
X5412500Y-9137072D02*
X5426786Y-9108500D01*
X5455357Y-9094214D01*
X5498214Y-9094214D01*
X5526786Y-9108500D01*
X5541071Y-9137072D01*
X5541071Y-9294214D01*
X5683928Y-9294214D02*
X5683928Y-9094214D01*
X5683928Y-9122786D02*
X5698214Y-9108500D01*
X5726786Y-9094214D01*
X5769643Y-9094214D01*
X5798214Y-9108500D01*
X5812500Y-9137072D01*
X5812500Y-9294214D01*
X5812500Y-9137072D02*
X5826786Y-9108500D01*
X5855357Y-9094214D01*
X5898214Y-9094214D01*
X5926786Y-9108500D01*
X5941071Y-9137072D01*
X5941071Y-9294214D01*
X6526786Y-8979929D02*
X6269643Y-9365643D01*
X6912500Y-8994214D02*
X6941071Y-8994214D01*
X6969643Y-9008500D01*
X6983928Y-9022786D01*
X6998214Y-9051357D01*
X7012500Y-9108500D01*
X7012500Y-9179929D01*
X6998214Y-9237072D01*
X6983928Y-9265643D01*
X6969643Y-9279929D01*
X6941071Y-9294214D01*
X6912500Y-9294214D01*
X6883928Y-9279929D01*
X6869643Y-9265643D01*
X6855357Y-9237072D01*
X6841071Y-9179929D01*
X6841071Y-9108500D01*
X6855357Y-9051357D01*
X6869643Y-9022786D01*
X6883928Y-9008500D01*
X6912500Y-8994214D01*
X7141071Y-9265643D02*
X7155357Y-9279929D01*
X7141071Y-9294214D01*
X7126786Y-9279929D01*
X7141071Y-9265643D01*
X7141071Y-9294214D01*
X7341071Y-8994214D02*
X7369643Y-8994214D01*
X7398214Y-9008500D01*
X7412500Y-9022786D01*
X7426786Y-9051357D01*
X7441071Y-9108500D01*
X7441071Y-9179929D01*
X7426786Y-9237072D01*
X7412500Y-9265643D01*
X7398214Y-9279929D01*
X7369643Y-9294214D01*
X7341071Y-9294214D01*
X7312500Y-9279929D01*
X7298214Y-9265643D01*
X7283928Y-9237072D01*
X7269643Y-9179929D01*
X7269643Y-9108500D01*
X7283928Y-9051357D01*
X7298214Y-9022786D01*
X7312500Y-9008500D01*
X7341071Y-8994214D01*
X7726786Y-9294214D02*
X7555357Y-9294214D01*
X7641071Y-9294214D02*
X7641071Y-8994214D01*
X7612500Y-9037072D01*
X7583928Y-9065643D01*
X7555357Y-9079929D01*
X7983928Y-8994214D02*
X7926786Y-8994214D01*
X7898214Y-9008500D01*
X7883928Y-9022786D01*
X7855357Y-9065643D01*
X7841071Y-9122786D01*
X7841071Y-9237072D01*
X7855357Y-9265643D01*
X7869643Y-9279929D01*
X7898214Y-9294214D01*
X7955357Y-9294214D01*
X7983928Y-9279929D01*
X7998214Y-9265643D01*
X8012500Y-9237072D01*
X8012500Y-9165643D01*
X7998214Y-9137072D01*
X7983928Y-9122786D01*
X7955357Y-9108500D01*
X7898214Y-9108500D01*
X7869643Y-9122786D01*
X7855357Y-9137072D01*
X7841071Y-9165643D01*
X8126786Y-8994214D02*
X8126786Y-9051357D01*
X8241071Y-8994214D02*
X8241071Y-9051357D01*
X8683928Y-9408500D02*
X8669643Y-9394214D01*
X8641071Y-9351357D01*
X8626786Y-9322786D01*
X8612500Y-9279929D01*
X8598214Y-9208500D01*
X8598214Y-9151357D01*
X8612500Y-9079929D01*
X8626786Y-9037072D01*
X8641071Y-9008500D01*
X8669643Y-8965643D01*
X8683928Y-8951357D01*
X8941071Y-8994214D02*
X8798214Y-8994214D01*
X8783928Y-9137072D01*
X8798214Y-9122786D01*
X8826786Y-9108500D01*
X8898214Y-9108500D01*
X8926786Y-9122786D01*
X8941071Y-9137072D01*
X8955357Y-9165643D01*
X8955357Y-9237072D01*
X8941071Y-9265643D01*
X8926786Y-9279929D01*
X8898214Y-9294214D01*
X8826786Y-9294214D01*
X8798214Y-9279929D01*
X8783928Y-9265643D01*
X9069643Y-9022786D02*
X9083928Y-9008500D01*
X9112500Y-8994214D01*
X9183928Y-8994214D01*
X9212500Y-9008500D01*
X9226786Y-9022786D01*
X9241071Y-9051357D01*
X9241071Y-9079929D01*
X9226786Y-9122786D01*
X9055357Y-9294214D01*
X9241071Y-9294214D01*
X9383928Y-9294214D02*
X9441071Y-9294214D01*
X9469643Y-9279929D01*
X9483928Y-9265643D01*
X9512500Y-9222786D01*
X9526786Y-9165643D01*
X9526786Y-9051357D01*
X9512500Y-9022786D01*
X9498214Y-9008500D01*
X9469643Y-8994214D01*
X9412500Y-8994214D01*
X9383928Y-9008500D01*
X9369643Y-9022786D01*
X9355357Y-9051357D01*
X9355357Y-9122786D01*
X9369643Y-9151357D01*
X9383928Y-9165643D01*
X9412500Y-9179929D01*
X9469643Y-9179929D01*
X9498214Y-9165643D01*
X9512500Y-9151357D01*
X9526786Y-9122786D01*
X9883928Y-9294214D02*
X9883928Y-8994214D01*
X10012500Y-9294214D02*
X10012500Y-9137072D01*
X9998214Y-9108500D01*
X9969643Y-9094214D01*
X9926786Y-9094214D01*
X9898214Y-9108500D01*
X9883928Y-9122786D01*
X10198214Y-9294214D02*
X10169643Y-9279929D01*
X10155357Y-9265643D01*
X10141071Y-9237072D01*
X10141071Y-9151357D01*
X10155357Y-9122786D01*
X10169643Y-9108500D01*
X10198214Y-9094214D01*
X10241071Y-9094214D01*
X10269643Y-9108500D01*
X10283928Y-9122786D01*
X10298214Y-9151357D01*
X10298214Y-9237072D01*
X10283928Y-9265643D01*
X10269643Y-9279929D01*
X10241071Y-9294214D01*
X10198214Y-9294214D01*
X10469643Y-9294214D02*
X10441071Y-9279929D01*
X10426786Y-9251357D01*
X10426786Y-8994214D01*
X10698214Y-9279929D02*
X10669643Y-9294214D01*
X10612500Y-9294214D01*
X10583928Y-9279929D01*
X10569643Y-9251357D01*
X10569643Y-9137072D01*
X10583928Y-9108500D01*
X10612500Y-9094214D01*
X10669643Y-9094214D01*
X10698214Y-9108500D01*
X10712500Y-9137072D01*
X10712500Y-9165643D01*
X10569643Y-9194214D01*
X10826786Y-9279929D02*
X10855357Y-9294214D01*
X10912500Y-9294214D01*
X10941071Y-9279929D01*
X10955357Y-9251357D01*
X10955357Y-9237072D01*
X10941071Y-9208500D01*
X10912500Y-9194214D01*
X10869643Y-9194214D01*
X10841071Y-9179929D01*
X10826786Y-9151357D01*
X10826786Y-9137072D01*
X10841071Y-9108500D01*
X10869643Y-9094214D01*
X10912500Y-9094214D01*
X10941071Y-9108500D01*
X11055357Y-9408500D02*
X11069643Y-9394214D01*
X11098214Y-9351357D01*
X11112500Y-9322786D01*
X11126786Y-9279929D01*
X11141071Y-9208500D01*
X11141071Y-9151357D01*
X11126786Y-9079929D01*
X11112500Y-9037072D01*
X11098214Y-9008500D01*
X11069643Y-8965643D01*
X11055357Y-8951357D01*
X3972500Y-9529500D02*
X3972500Y-9579500D01*
X3947500Y-9554500D02*
X3997500Y-9554500D01*
X4341071Y-9390214D02*
X4369643Y-9390214D01*
X4398214Y-9404500D01*
X4412500Y-9418786D01*
X4426786Y-9447357D01*
X4441071Y-9504500D01*
X4441071Y-9575929D01*
X4426786Y-9633072D01*
X4412500Y-9661643D01*
X4398214Y-9675929D01*
X4369643Y-9690214D01*
X4341071Y-9690214D01*
X4312500Y-9675929D01*
X4298214Y-9661643D01*
X4283928Y-9633072D01*
X4269643Y-9575929D01*
X4269643Y-9504500D01*
X4283928Y-9447357D01*
X4298214Y-9418786D01*
X4312500Y-9404500D01*
X4341071Y-9390214D01*
X4569643Y-9661643D02*
X4583928Y-9675929D01*
X4569643Y-9690214D01*
X4555357Y-9675929D01*
X4569643Y-9661643D01*
X4569643Y-9690214D01*
X4855357Y-9390214D02*
X4712500Y-9390214D01*
X4698214Y-9533072D01*
X4712500Y-9518786D01*
X4741071Y-9504500D01*
X4812500Y-9504500D01*
X4841071Y-9518786D01*
X4855357Y-9533072D01*
X4869643Y-9561643D01*
X4869643Y-9633072D01*
X4855357Y-9661643D01*
X4841071Y-9675929D01*
X4812500Y-9690214D01*
X4741071Y-9690214D01*
X4712500Y-9675929D01*
X4698214Y-9661643D01*
X5055357Y-9390214D02*
X5083928Y-9390214D01*
X5112500Y-9404500D01*
X5126786Y-9418786D01*
X5141071Y-9447357D01*
X5155357Y-9504500D01*
X5155357Y-9575929D01*
X5141071Y-9633072D01*
X5126786Y-9661643D01*
X5112500Y-9675929D01*
X5083928Y-9690214D01*
X5055357Y-9690214D01*
X5026786Y-9675929D01*
X5012500Y-9661643D01*
X4998214Y-9633072D01*
X4983928Y-9575929D01*
X4983928Y-9504500D01*
X4998214Y-9447357D01*
X5012500Y-9418786D01*
X5026786Y-9404500D01*
X5055357Y-9390214D01*
X5283928Y-9690214D02*
X5283928Y-9490214D01*
X5283928Y-9518786D02*
X5298214Y-9504500D01*
X5326786Y-9490214D01*
X5369643Y-9490214D01*
X5398214Y-9504500D01*
X5412500Y-9533072D01*
X5412500Y-9690214D01*
X5412500Y-9533072D02*
X5426786Y-9504500D01*
X5455357Y-9490214D01*
X5498214Y-9490214D01*
X5526786Y-9504500D01*
X5541071Y-9533072D01*
X5541071Y-9690214D01*
X5683928Y-9690214D02*
X5683928Y-9490214D01*
X5683928Y-9518786D02*
X5698214Y-9504500D01*
X5726786Y-9490214D01*
X5769643Y-9490214D01*
X5798214Y-9504500D01*
X5812500Y-9533072D01*
X5812500Y-9690214D01*
X5812500Y-9533072D02*
X5826786Y-9504500D01*
X5855357Y-9490214D01*
X5898214Y-9490214D01*
X5926786Y-9504500D01*
X5941071Y-9533072D01*
X5941071Y-9690214D01*
X6526786Y-9375929D02*
X6269643Y-9761643D01*
X6912500Y-9390214D02*
X6941071Y-9390214D01*
X6969643Y-9404500D01*
X6983928Y-9418786D01*
X6998214Y-9447357D01*
X7012500Y-9504500D01*
X7012500Y-9575929D01*
X6998214Y-9633072D01*
X6983928Y-9661643D01*
X6969643Y-9675929D01*
X6941071Y-9690214D01*
X6912500Y-9690214D01*
X6883928Y-9675929D01*
X6869643Y-9661643D01*
X6855357Y-9633072D01*
X6841071Y-9575929D01*
X6841071Y-9504500D01*
X6855357Y-9447357D01*
X6869643Y-9418786D01*
X6883928Y-9404500D01*
X6912500Y-9390214D01*
X7141071Y-9661643D02*
X7155357Y-9675929D01*
X7141071Y-9690214D01*
X7126786Y-9675929D01*
X7141071Y-9661643D01*
X7141071Y-9690214D01*
X7341071Y-9390214D02*
X7369643Y-9390214D01*
X7398214Y-9404500D01*
X7412500Y-9418786D01*
X7426786Y-9447357D01*
X7441071Y-9504500D01*
X7441071Y-9575929D01*
X7426786Y-9633072D01*
X7412500Y-9661643D01*
X7398214Y-9675929D01*
X7369643Y-9690214D01*
X7341071Y-9690214D01*
X7312500Y-9675929D01*
X7298214Y-9661643D01*
X7283928Y-9633072D01*
X7269643Y-9575929D01*
X7269643Y-9504500D01*
X7283928Y-9447357D01*
X7298214Y-9418786D01*
X7312500Y-9404500D01*
X7341071Y-9390214D01*
X7555357Y-9418786D02*
X7569643Y-9404500D01*
X7598214Y-9390214D01*
X7669643Y-9390214D01*
X7698214Y-9404500D01*
X7712500Y-9418786D01*
X7726786Y-9447357D01*
X7726786Y-9475929D01*
X7712500Y-9518786D01*
X7541071Y-9690214D01*
X7726786Y-9690214D01*
X7912500Y-9390214D02*
X7941071Y-9390214D01*
X7969643Y-9404500D01*
X7983928Y-9418786D01*
X7998214Y-9447357D01*
X8012500Y-9504500D01*
X8012500Y-9575929D01*
X7998214Y-9633072D01*
X7983928Y-9661643D01*
X7969643Y-9675929D01*
X7941071Y-9690214D01*
X7912500Y-9690214D01*
X7883928Y-9675929D01*
X7869643Y-9661643D01*
X7855357Y-9633072D01*
X7841071Y-9575929D01*
X7841071Y-9504500D01*
X7855357Y-9447357D01*
X7869643Y-9418786D01*
X7883928Y-9404500D01*
X7912500Y-9390214D01*
X8126786Y-9390214D02*
X8126786Y-9447357D01*
X8241071Y-9390214D02*
X8241071Y-9447357D01*
X8683928Y-9804500D02*
X8669643Y-9790214D01*
X8641071Y-9747357D01*
X8626786Y-9718786D01*
X8612500Y-9675929D01*
X8598214Y-9604500D01*
X8598214Y-9547357D01*
X8612500Y-9475929D01*
X8626786Y-9433072D01*
X8641071Y-9404500D01*
X8669643Y-9361643D01*
X8683928Y-9347357D01*
X8955357Y-9690214D02*
X8783928Y-9690214D01*
X8869643Y-9690214D02*
X8869643Y-9390214D01*
X8841071Y-9433072D01*
X8812500Y-9461643D01*
X8783928Y-9475929D01*
X9226786Y-9390214D02*
X9083928Y-9390214D01*
X9069643Y-9533072D01*
X9083928Y-9518786D01*
X9112500Y-9504500D01*
X9183928Y-9504500D01*
X9212500Y-9518786D01*
X9226786Y-9533072D01*
X9241071Y-9561643D01*
X9241071Y-9633072D01*
X9226786Y-9661643D01*
X9212500Y-9675929D01*
X9183928Y-9690214D01*
X9112500Y-9690214D01*
X9083928Y-9675929D01*
X9069643Y-9661643D01*
X9598214Y-9690214D02*
X9598214Y-9390214D01*
X9726786Y-9690214D02*
X9726786Y-9533072D01*
X9712500Y-9504500D01*
X9683928Y-9490214D01*
X9641071Y-9490214D01*
X9612500Y-9504500D01*
X9598214Y-9518786D01*
X9912500Y-9690214D02*
X9883928Y-9675929D01*
X9869643Y-9661643D01*
X9855357Y-9633072D01*
X9855357Y-9547357D01*
X9869643Y-9518786D01*
X9883928Y-9504500D01*
X9912500Y-9490214D01*
X9955357Y-9490214D01*
X9983928Y-9504500D01*
X9998214Y-9518786D01*
X10012500Y-9547357D01*
X10012500Y-9633072D01*
X9998214Y-9661643D01*
X9983928Y-9675929D01*
X9955357Y-9690214D01*
X9912500Y-9690214D01*
X10183928Y-9690214D02*
X10155357Y-9675929D01*
X10141071Y-9647357D01*
X10141071Y-9390214D01*
X10412500Y-9675929D02*
X10383928Y-9690214D01*
X10326786Y-9690214D01*
X10298214Y-9675929D01*
X10283928Y-9647357D01*
X10283928Y-9533072D01*
X10298214Y-9504500D01*
X10326786Y-9490214D01*
X10383928Y-9490214D01*
X10412500Y-9504500D01*
X10426786Y-9533072D01*
X10426786Y-9561643D01*
X10283928Y-9590214D01*
X10541071Y-9675929D02*
X10569643Y-9690214D01*
X10626786Y-9690214D01*
X10655357Y-9675929D01*
X10669643Y-9647357D01*
X10669643Y-9633072D01*
X10655357Y-9604500D01*
X10626786Y-9590214D01*
X10583928Y-9590214D01*
X10555357Y-9575929D01*
X10541071Y-9547357D01*
X10541071Y-9533072D01*
X10555357Y-9504500D01*
X10583928Y-9490214D01*
X10626786Y-9490214D01*
X10655357Y-9504500D01*
X10769643Y-9804500D02*
X10783928Y-9790214D01*
X10812500Y-9747357D01*
X10826786Y-9718786D01*
X10841071Y-9675929D01*
X10855357Y-9604500D01*
X10855357Y-9547357D01*
X10841071Y-9475929D01*
X10826786Y-9433072D01*
X10812500Y-9404500D01*
X10783928Y-9361643D01*
X10769643Y-9347357D01*
X3988713Y-9971714D02*
X3988713Y-9929287D01*
X3946286Y-9929287D01*
X3946286Y-9971714D01*
X3988713Y-9971714D01*
X4341071Y-9786214D02*
X4369643Y-9786214D01*
X4398214Y-9800500D01*
X4412500Y-9814786D01*
X4426786Y-9843357D01*
X4441071Y-9900500D01*
X4441071Y-9971929D01*
X4426786Y-10029072D01*
X4412500Y-10057643D01*
X4398214Y-10071929D01*
X4369643Y-10086214D01*
X4341071Y-10086214D01*
X4312500Y-10071929D01*
X4298214Y-10057643D01*
X4283928Y-10029072D01*
X4269643Y-9971929D01*
X4269643Y-9900500D01*
X4283928Y-9843357D01*
X4298214Y-9814786D01*
X4312500Y-9800500D01*
X4341071Y-9786214D01*
X4569643Y-10057643D02*
X4583928Y-10071929D01*
X4569643Y-10086214D01*
X4555357Y-10071929D01*
X4569643Y-10057643D01*
X4569643Y-10086214D01*
X4841071Y-9786214D02*
X4783928Y-9786214D01*
X4755357Y-9800500D01*
X4741071Y-9814786D01*
X4712500Y-9857643D01*
X4698214Y-9914786D01*
X4698214Y-10029072D01*
X4712500Y-10057643D01*
X4726786Y-10071929D01*
X4755357Y-10086214D01*
X4812500Y-10086214D01*
X4841071Y-10071929D01*
X4855357Y-10057643D01*
X4869643Y-10029072D01*
X4869643Y-9957643D01*
X4855357Y-9929072D01*
X4841071Y-9914786D01*
X4812500Y-9900500D01*
X4755357Y-9900500D01*
X4726786Y-9914786D01*
X4712500Y-9929072D01*
X4698214Y-9957643D01*
X5055357Y-9786214D02*
X5083928Y-9786214D01*
X5112500Y-9800500D01*
X5126786Y-9814786D01*
X5141071Y-9843357D01*
X5155357Y-9900500D01*
X5155357Y-9971929D01*
X5141071Y-10029072D01*
X5126786Y-10057643D01*
X5112500Y-10071929D01*
X5083928Y-10086214D01*
X5055357Y-10086214D01*
X5026786Y-10071929D01*
X5012500Y-10057643D01*
X4998214Y-10029072D01*
X4983928Y-9971929D01*
X4983928Y-9900500D01*
X4998214Y-9843357D01*
X5012500Y-9814786D01*
X5026786Y-9800500D01*
X5055357Y-9786214D01*
X5283928Y-10086214D02*
X5283928Y-9886214D01*
X5283928Y-9914786D02*
X5298214Y-9900500D01*
X5326786Y-9886214D01*
X5369643Y-9886214D01*
X5398214Y-9900500D01*
X5412500Y-9929072D01*
X5412500Y-10086214D01*
X5412500Y-9929072D02*
X5426786Y-9900500D01*
X5455357Y-9886214D01*
X5498214Y-9886214D01*
X5526786Y-9900500D01*
X5541071Y-9929072D01*
X5541071Y-10086214D01*
X5683928Y-10086214D02*
X5683928Y-9886214D01*
X5683928Y-9914786D02*
X5698214Y-9900500D01*
X5726786Y-9886214D01*
X5769643Y-9886214D01*
X5798214Y-9900500D01*
X5812500Y-9929072D01*
X5812500Y-10086214D01*
X5812500Y-9929072D02*
X5826786Y-9900500D01*
X5855357Y-9886214D01*
X5898214Y-9886214D01*
X5926786Y-9900500D01*
X5941071Y-9929072D01*
X5941071Y-10086214D01*
X6526786Y-9771929D02*
X6269643Y-10157643D01*
X6912500Y-9786214D02*
X6941071Y-9786214D01*
X6969643Y-9800500D01*
X6983928Y-9814786D01*
X6998214Y-9843357D01*
X7012500Y-9900500D01*
X7012500Y-9971929D01*
X6998214Y-10029072D01*
X6983928Y-10057643D01*
X6969643Y-10071929D01*
X6941071Y-10086214D01*
X6912500Y-10086214D01*
X6883928Y-10071929D01*
X6869643Y-10057643D01*
X6855357Y-10029072D01*
X6841071Y-9971929D01*
X6841071Y-9900500D01*
X6855357Y-9843357D01*
X6869643Y-9814786D01*
X6883928Y-9800500D01*
X6912500Y-9786214D01*
X7141071Y-10057643D02*
X7155357Y-10071929D01*
X7141071Y-10086214D01*
X7126786Y-10071929D01*
X7141071Y-10057643D01*
X7141071Y-10086214D01*
X7341071Y-9786214D02*
X7369643Y-9786214D01*
X7398214Y-9800500D01*
X7412500Y-9814786D01*
X7426786Y-9843357D01*
X7441071Y-9900500D01*
X7441071Y-9971929D01*
X7426786Y-10029072D01*
X7412500Y-10057643D01*
X7398214Y-10071929D01*
X7369643Y-10086214D01*
X7341071Y-10086214D01*
X7312500Y-10071929D01*
X7298214Y-10057643D01*
X7283928Y-10029072D01*
X7269643Y-9971929D01*
X7269643Y-9900500D01*
X7283928Y-9843357D01*
X7298214Y-9814786D01*
X7312500Y-9800500D01*
X7341071Y-9786214D01*
X7555357Y-9814786D02*
X7569643Y-9800500D01*
X7598214Y-9786214D01*
X7669643Y-9786214D01*
X7698214Y-9800500D01*
X7712500Y-9814786D01*
X7726786Y-9843357D01*
X7726786Y-9871929D01*
X7712500Y-9914786D01*
X7541071Y-10086214D01*
X7726786Y-10086214D01*
X7983928Y-9886214D02*
X7983928Y-10086214D01*
X7912500Y-9771929D02*
X7841071Y-9986214D01*
X8026786Y-9986214D01*
X8126786Y-9786214D02*
X8126786Y-9843357D01*
X8241071Y-9786214D02*
X8241071Y-9843357D01*
X8683928Y-10200500D02*
X8669643Y-10186214D01*
X8641071Y-10143357D01*
X8626786Y-10114786D01*
X8612500Y-10071929D01*
X8598214Y-10000500D01*
X8598214Y-9943357D01*
X8612500Y-9871929D01*
X8626786Y-9829072D01*
X8641071Y-9800500D01*
X8669643Y-9757643D01*
X8683928Y-9743357D01*
X8855357Y-9786214D02*
X8883928Y-9786214D01*
X8912500Y-9800500D01*
X8926786Y-9814786D01*
X8941071Y-9843357D01*
X8955357Y-9900500D01*
X8955357Y-9971929D01*
X8941071Y-10029072D01*
X8926786Y-10057643D01*
X8912500Y-10071929D01*
X8883928Y-10086214D01*
X8855357Y-10086214D01*
X8826786Y-10071929D01*
X8812500Y-10057643D01*
X8798214Y-10029072D01*
X8783928Y-9971929D01*
X8783928Y-9900500D01*
X8798214Y-9843357D01*
X8812500Y-9814786D01*
X8826786Y-9800500D01*
X8855357Y-9786214D01*
X9312500Y-10086214D02*
X9312500Y-9786214D01*
X9441071Y-10086214D02*
X9441071Y-9929072D01*
X9426786Y-9900500D01*
X9398214Y-9886214D01*
X9355357Y-9886214D01*
X9326786Y-9900500D01*
X9312500Y-9914786D01*
X9626786Y-10086214D02*
X9598214Y-10071929D01*
X9583928Y-10057643D01*
X9569643Y-10029072D01*
X9569643Y-9943357D01*
X9583928Y-9914786D01*
X9598214Y-9900500D01*
X9626786Y-9886214D01*
X9669643Y-9886214D01*
X9698214Y-9900500D01*
X9712500Y-9914786D01*
X9726786Y-9943357D01*
X9726786Y-10029072D01*
X9712500Y-10057643D01*
X9698214Y-10071929D01*
X9669643Y-10086214D01*
X9626786Y-10086214D01*
X9898214Y-10086214D02*
X9869643Y-10071929D01*
X9855357Y-10043357D01*
X9855357Y-9786214D01*
X10126786Y-10071929D02*
X10098214Y-10086214D01*
X10041071Y-10086214D01*
X10012500Y-10071929D01*
X9998214Y-10043357D01*
X9998214Y-9929072D01*
X10012500Y-9900500D01*
X10041071Y-9886214D01*
X10098214Y-9886214D01*
X10126786Y-9900500D01*
X10141071Y-9929072D01*
X10141071Y-9957643D01*
X9998214Y-9986214D01*
X10255357Y-10071929D02*
X10283928Y-10086214D01*
X10341071Y-10086214D01*
X10369643Y-10071929D01*
X10383928Y-10043357D01*
X10383928Y-10029072D01*
X10369643Y-10000500D01*
X10341071Y-9986214D01*
X10298214Y-9986214D01*
X10269643Y-9971929D01*
X10255357Y-9943357D01*
X10255357Y-9929072D01*
X10269643Y-9900500D01*
X10298214Y-9886214D01*
X10341071Y-9886214D01*
X10369643Y-9900500D01*
X10741071Y-9971929D02*
X10969643Y-9971929D01*
X10855357Y-10086214D02*
X10855357Y-9857643D01*
X11326786Y-9814786D02*
X11341071Y-9800500D01*
X11369643Y-9786214D01*
X11441071Y-9786214D01*
X11469643Y-9800500D01*
X11483928Y-9814786D01*
X11498214Y-9843357D01*
X11498214Y-9871929D01*
X11483928Y-9914786D01*
X11312500Y-10086214D01*
X11498214Y-10086214D01*
X11841071Y-10071929D02*
X11869643Y-10086214D01*
X11926786Y-10086214D01*
X11955357Y-10071929D01*
X11969643Y-10043357D01*
X11969643Y-10029072D01*
X11955357Y-10000500D01*
X11926786Y-9986214D01*
X11883928Y-9986214D01*
X11855357Y-9971929D01*
X11841071Y-9943357D01*
X11841071Y-9929072D01*
X11855357Y-9900500D01*
X11883928Y-9886214D01*
X11926786Y-9886214D01*
X11955357Y-9900500D01*
X12141071Y-10086214D02*
X12112500Y-10071929D01*
X12098214Y-10043357D01*
X12098214Y-9786214D01*
X12298214Y-10086214D02*
X12269643Y-10071929D01*
X12255357Y-10057643D01*
X12241071Y-10029072D01*
X12241071Y-9943357D01*
X12255357Y-9914786D01*
X12269643Y-9900500D01*
X12298214Y-9886214D01*
X12341071Y-9886214D01*
X12369643Y-9900500D01*
X12383928Y-9914786D01*
X12398214Y-9943357D01*
X12398214Y-10029072D01*
X12383928Y-10057643D01*
X12369643Y-10071929D01*
X12341071Y-10086214D01*
X12298214Y-10086214D01*
X12483928Y-9886214D02*
X12598214Y-9886214D01*
X12526786Y-9786214D02*
X12526786Y-10043357D01*
X12541071Y-10071929D01*
X12569643Y-10086214D01*
X12598214Y-10086214D01*
X12683928Y-10071929D02*
X12712500Y-10086214D01*
X12769643Y-10086214D01*
X12798214Y-10071929D01*
X12812500Y-10043357D01*
X12812500Y-10029072D01*
X12798214Y-10000500D01*
X12769643Y-9986214D01*
X12726786Y-9986214D01*
X12698214Y-9971929D01*
X12683928Y-9943357D01*
X12683928Y-9929072D01*
X12698214Y-9900500D01*
X12726786Y-9886214D01*
X12769643Y-9886214D01*
X12798214Y-9900500D01*
X12912500Y-10200500D02*
X12926786Y-10186214D01*
X12955357Y-10143357D01*
X12969643Y-10114786D01*
X12983928Y-10071929D01*
X12998214Y-10000500D01*
X12998214Y-9943357D01*
X12983928Y-9871929D01*
X12969643Y-9829072D01*
X12955357Y-9800500D01*
X12926786Y-9757643D01*
X12912500Y-9743357D01*
X3960000Y-10384000D02*
X3997500Y-10346500D01*
X3960000Y-10309000D01*
X3922500Y-10346500D01*
X3960000Y-10384000D01*
X4341071Y-10182214D02*
X4369643Y-10182214D01*
X4398214Y-10196500D01*
X4412500Y-10210786D01*
X4426786Y-10239357D01*
X4441071Y-10296500D01*
X4441071Y-10367929D01*
X4426786Y-10425072D01*
X4412500Y-10453643D01*
X4398214Y-10467929D01*
X4369643Y-10482214D01*
X4341071Y-10482214D01*
X4312500Y-10467929D01*
X4298214Y-10453643D01*
X4283928Y-10425072D01*
X4269643Y-10367929D01*
X4269643Y-10296500D01*
X4283928Y-10239357D01*
X4298214Y-10210786D01*
X4312500Y-10196500D01*
X4341071Y-10182214D01*
X4569643Y-10453643D02*
X4583928Y-10467929D01*
X4569643Y-10482214D01*
X4555357Y-10467929D01*
X4569643Y-10453643D01*
X4569643Y-10482214D01*
X4683928Y-10182214D02*
X4883928Y-10182214D01*
X4755357Y-10482214D01*
X5141071Y-10182214D02*
X4998214Y-10182214D01*
X4983928Y-10325072D01*
X4998214Y-10310786D01*
X5026786Y-10296500D01*
X5098214Y-10296500D01*
X5126786Y-10310786D01*
X5141071Y-10325072D01*
X5155357Y-10353643D01*
X5155357Y-10425072D01*
X5141071Y-10453643D01*
X5126786Y-10467929D01*
X5098214Y-10482214D01*
X5026786Y-10482214D01*
X4998214Y-10467929D01*
X4983928Y-10453643D01*
X5283928Y-10482214D02*
X5283928Y-10282214D01*
X5283928Y-10310786D02*
X5298214Y-10296500D01*
X5326786Y-10282214D01*
X5369643Y-10282214D01*
X5398214Y-10296500D01*
X5412500Y-10325072D01*
X5412500Y-10482214D01*
X5412500Y-10325072D02*
X5426786Y-10296500D01*
X5455357Y-10282214D01*
X5498214Y-10282214D01*
X5526786Y-10296500D01*
X5541071Y-10325072D01*
X5541071Y-10482214D01*
X5683928Y-10482214D02*
X5683928Y-10282214D01*
X5683928Y-10310786D02*
X5698214Y-10296500D01*
X5726786Y-10282214D01*
X5769643Y-10282214D01*
X5798214Y-10296500D01*
X5812500Y-10325072D01*
X5812500Y-10482214D01*
X5812500Y-10325072D02*
X5826786Y-10296500D01*
X5855357Y-10282214D01*
X5898214Y-10282214D01*
X5926786Y-10296500D01*
X5941071Y-10325072D01*
X5941071Y-10482214D01*
X6526786Y-10167929D02*
X6269643Y-10553643D01*
X6912500Y-10182214D02*
X6941071Y-10182214D01*
X6969643Y-10196500D01*
X6983928Y-10210786D01*
X6998214Y-10239357D01*
X7012500Y-10296500D01*
X7012500Y-10367929D01*
X6998214Y-10425072D01*
X6983928Y-10453643D01*
X6969643Y-10467929D01*
X6941071Y-10482214D01*
X6912500Y-10482214D01*
X6883928Y-10467929D01*
X6869643Y-10453643D01*
X6855357Y-10425072D01*
X6841071Y-10367929D01*
X6841071Y-10296500D01*
X6855357Y-10239357D01*
X6869643Y-10210786D01*
X6883928Y-10196500D01*
X6912500Y-10182214D01*
X7141071Y-10453643D02*
X7155357Y-10467929D01*
X7141071Y-10482214D01*
X7126786Y-10467929D01*
X7141071Y-10453643D01*
X7141071Y-10482214D01*
X7341071Y-10182214D02*
X7369643Y-10182214D01*
X7398214Y-10196500D01*
X7412500Y-10210786D01*
X7426786Y-10239357D01*
X7441071Y-10296500D01*
X7441071Y-10367929D01*
X7426786Y-10425072D01*
X7412500Y-10453643D01*
X7398214Y-10467929D01*
X7369643Y-10482214D01*
X7341071Y-10482214D01*
X7312500Y-10467929D01*
X7298214Y-10453643D01*
X7283928Y-10425072D01*
X7269643Y-10367929D01*
X7269643Y-10296500D01*
X7283928Y-10239357D01*
X7298214Y-10210786D01*
X7312500Y-10196500D01*
X7341071Y-10182214D01*
X7541071Y-10182214D02*
X7726786Y-10182214D01*
X7626786Y-10296500D01*
X7669643Y-10296500D01*
X7698214Y-10310786D01*
X7712500Y-10325072D01*
X7726786Y-10353643D01*
X7726786Y-10425072D01*
X7712500Y-10453643D01*
X7698214Y-10467929D01*
X7669643Y-10482214D01*
X7583928Y-10482214D01*
X7555357Y-10467929D01*
X7541071Y-10453643D01*
X7912500Y-10182214D02*
X7941071Y-10182214D01*
X7969643Y-10196500D01*
X7983928Y-10210786D01*
X7998214Y-10239357D01*
X8012500Y-10296500D01*
X8012500Y-10367929D01*
X7998214Y-10425072D01*
X7983928Y-10453643D01*
X7969643Y-10467929D01*
X7941071Y-10482214D01*
X7912500Y-10482214D01*
X7883928Y-10467929D01*
X7869643Y-10453643D01*
X7855357Y-10425072D01*
X7841071Y-10367929D01*
X7841071Y-10296500D01*
X7855357Y-10239357D01*
X7869643Y-10210786D01*
X7883928Y-10196500D01*
X7912500Y-10182214D01*
X8126786Y-10182214D02*
X8126786Y-10239357D01*
X8241071Y-10182214D02*
X8241071Y-10239357D01*
X8683928Y-10596500D02*
X8669643Y-10582214D01*
X8641071Y-10539357D01*
X8626786Y-10510786D01*
X8612500Y-10467929D01*
X8598214Y-10396500D01*
X8598214Y-10339357D01*
X8612500Y-10267929D01*
X8626786Y-10225072D01*
X8641071Y-10196500D01*
X8669643Y-10153643D01*
X8683928Y-10139357D01*
X8812500Y-10482214D02*
X8869643Y-10482214D01*
X8898214Y-10467929D01*
X8912500Y-10453643D01*
X8941071Y-10410786D01*
X8955357Y-10353643D01*
X8955357Y-10239357D01*
X8941071Y-10210786D01*
X8926786Y-10196500D01*
X8898214Y-10182214D01*
X8841071Y-10182214D01*
X8812500Y-10196500D01*
X8798214Y-10210786D01*
X8783928Y-10239357D01*
X8783928Y-10310786D01*
X8798214Y-10339357D01*
X8812500Y-10353643D01*
X8841071Y-10367929D01*
X8898214Y-10367929D01*
X8926786Y-10353643D01*
X8941071Y-10339357D01*
X8955357Y-10310786D01*
X9312500Y-10482214D02*
X9312500Y-10182214D01*
X9441071Y-10482214D02*
X9441071Y-10325072D01*
X9426786Y-10296500D01*
X9398214Y-10282214D01*
X9355357Y-10282214D01*
X9326786Y-10296500D01*
X9312500Y-10310786D01*
X9626786Y-10482214D02*
X9598214Y-10467929D01*
X9583928Y-10453643D01*
X9569643Y-10425072D01*
X9569643Y-10339357D01*
X9583928Y-10310786D01*
X9598214Y-10296500D01*
X9626786Y-10282214D01*
X9669643Y-10282214D01*
X9698214Y-10296500D01*
X9712500Y-10310786D01*
X9726786Y-10339357D01*
X9726786Y-10425072D01*
X9712500Y-10453643D01*
X9698214Y-10467929D01*
X9669643Y-10482214D01*
X9626786Y-10482214D01*
X9898214Y-10482214D02*
X9869643Y-10467929D01*
X9855357Y-10439357D01*
X9855357Y-10182214D01*
X10126786Y-10467929D02*
X10098214Y-10482214D01*
X10041071Y-10482214D01*
X10012500Y-10467929D01*
X9998214Y-10439357D01*
X9998214Y-10325072D01*
X10012500Y-10296500D01*
X10041071Y-10282214D01*
X10098214Y-10282214D01*
X10126786Y-10296500D01*
X10141071Y-10325072D01*
X10141071Y-10353643D01*
X9998214Y-10382214D01*
X10255357Y-10467929D02*
X10283928Y-10482214D01*
X10341071Y-10482214D01*
X10369643Y-10467929D01*
X10383928Y-10439357D01*
X10383928Y-10425072D01*
X10369643Y-10396500D01*
X10341071Y-10382214D01*
X10298214Y-10382214D01*
X10269643Y-10367929D01*
X10255357Y-10339357D01*
X10255357Y-10325072D01*
X10269643Y-10296500D01*
X10298214Y-10282214D01*
X10341071Y-10282214D01*
X10369643Y-10296500D01*
X10483928Y-10596500D02*
X10498214Y-10582214D01*
X10526786Y-10539357D01*
X10541071Y-10510786D01*
X10555357Y-10467929D01*
X10569643Y-10396500D01*
X10569643Y-10339357D01*
X10555357Y-10267929D01*
X10541071Y-10225072D01*
X10526786Y-10196500D01*
X10498214Y-10153643D01*
X10483928Y-10139357D01*
X3912500Y-10700000D02*
X3997500Y-10785000D01*
X3997500Y-10700000D02*
X3912500Y-10785000D01*
X3997500Y-10742500D02*
G75*
G03X3997500Y-10742500I-42500J0D01*
G01*
X4341071Y-10578214D02*
X4369643Y-10578214D01*
X4398214Y-10592500D01*
X4412500Y-10606786D01*
X4426786Y-10635357D01*
X4441071Y-10692500D01*
X4441071Y-10763929D01*
X4426786Y-10821072D01*
X4412500Y-10849643D01*
X4398214Y-10863929D01*
X4369643Y-10878214D01*
X4341071Y-10878214D01*
X4312500Y-10863929D01*
X4298214Y-10849643D01*
X4283928Y-10821072D01*
X4269643Y-10763929D01*
X4269643Y-10692500D01*
X4283928Y-10635357D01*
X4298214Y-10606786D01*
X4312500Y-10592500D01*
X4341071Y-10578214D01*
X4569643Y-10849643D02*
X4583928Y-10863929D01*
X4569643Y-10878214D01*
X4555357Y-10863929D01*
X4569643Y-10849643D01*
X4569643Y-10878214D01*
X4755357Y-10706786D02*
X4726786Y-10692500D01*
X4712500Y-10678214D01*
X4698214Y-10649643D01*
X4698214Y-10635357D01*
X4712500Y-10606786D01*
X4726786Y-10592500D01*
X4755357Y-10578214D01*
X4812500Y-10578214D01*
X4841071Y-10592500D01*
X4855357Y-10606786D01*
X4869643Y-10635357D01*
X4869643Y-10649643D01*
X4855357Y-10678214D01*
X4841071Y-10692500D01*
X4812500Y-10706786D01*
X4755357Y-10706786D01*
X4726786Y-10721072D01*
X4712500Y-10735357D01*
X4698214Y-10763929D01*
X4698214Y-10821072D01*
X4712500Y-10849643D01*
X4726786Y-10863929D01*
X4755357Y-10878214D01*
X4812500Y-10878214D01*
X4841071Y-10863929D01*
X4855357Y-10849643D01*
X4869643Y-10821072D01*
X4869643Y-10763929D01*
X4855357Y-10735357D01*
X4841071Y-10721072D01*
X4812500Y-10706786D01*
X5141071Y-10578214D02*
X4998214Y-10578214D01*
X4983928Y-10721072D01*
X4998214Y-10706786D01*
X5026786Y-10692500D01*
X5098214Y-10692500D01*
X5126786Y-10706786D01*
X5141071Y-10721072D01*
X5155357Y-10749643D01*
X5155357Y-10821072D01*
X5141071Y-10849643D01*
X5126786Y-10863929D01*
X5098214Y-10878214D01*
X5026786Y-10878214D01*
X4998214Y-10863929D01*
X4983928Y-10849643D01*
X5283928Y-10878214D02*
X5283928Y-10678214D01*
X5283928Y-10706786D02*
X5298214Y-10692500D01*
X5326786Y-10678214D01*
X5369643Y-10678214D01*
X5398214Y-10692500D01*
X5412500Y-10721072D01*
X5412500Y-10878214D01*
X5412500Y-10721072D02*
X5426786Y-10692500D01*
X5455357Y-10678214D01*
X5498214Y-10678214D01*
X5526786Y-10692500D01*
X5541071Y-10721072D01*
X5541071Y-10878214D01*
X5683928Y-10878214D02*
X5683928Y-10678214D01*
X5683928Y-10706786D02*
X5698214Y-10692500D01*
X5726786Y-10678214D01*
X5769643Y-10678214D01*
X5798214Y-10692500D01*
X5812500Y-10721072D01*
X5812500Y-10878214D01*
X5812500Y-10721072D02*
X5826786Y-10692500D01*
X5855357Y-10678214D01*
X5898214Y-10678214D01*
X5926786Y-10692500D01*
X5941071Y-10721072D01*
X5941071Y-10878214D01*
X6526786Y-10563929D02*
X6269643Y-10949643D01*
X6912500Y-10578214D02*
X6941071Y-10578214D01*
X6969643Y-10592500D01*
X6983928Y-10606786D01*
X6998214Y-10635357D01*
X7012500Y-10692500D01*
X7012500Y-10763929D01*
X6998214Y-10821072D01*
X6983928Y-10849643D01*
X6969643Y-10863929D01*
X6941071Y-10878214D01*
X6912500Y-10878214D01*
X6883928Y-10863929D01*
X6869643Y-10849643D01*
X6855357Y-10821072D01*
X6841071Y-10763929D01*
X6841071Y-10692500D01*
X6855357Y-10635357D01*
X6869643Y-10606786D01*
X6883928Y-10592500D01*
X6912500Y-10578214D01*
X7141071Y-10849643D02*
X7155357Y-10863929D01*
X7141071Y-10878214D01*
X7126786Y-10863929D01*
X7141071Y-10849643D01*
X7141071Y-10878214D01*
X7341071Y-10578214D02*
X7369643Y-10578214D01*
X7398214Y-10592500D01*
X7412500Y-10606786D01*
X7426786Y-10635357D01*
X7441071Y-10692500D01*
X7441071Y-10763929D01*
X7426786Y-10821072D01*
X7412500Y-10849643D01*
X7398214Y-10863929D01*
X7369643Y-10878214D01*
X7341071Y-10878214D01*
X7312500Y-10863929D01*
X7298214Y-10849643D01*
X7283928Y-10821072D01*
X7269643Y-10763929D01*
X7269643Y-10692500D01*
X7283928Y-10635357D01*
X7298214Y-10606786D01*
X7312500Y-10592500D01*
X7341071Y-10578214D01*
X7541071Y-10578214D02*
X7726786Y-10578214D01*
X7626786Y-10692500D01*
X7669643Y-10692500D01*
X7698214Y-10706786D01*
X7712500Y-10721072D01*
X7726786Y-10749643D01*
X7726786Y-10821072D01*
X7712500Y-10849643D01*
X7698214Y-10863929D01*
X7669643Y-10878214D01*
X7583928Y-10878214D01*
X7555357Y-10863929D01*
X7541071Y-10849643D01*
X7826786Y-10578214D02*
X8012500Y-10578214D01*
X7912500Y-10692500D01*
X7955357Y-10692500D01*
X7983928Y-10706786D01*
X7998214Y-10721072D01*
X8012500Y-10749643D01*
X8012500Y-10821072D01*
X7998214Y-10849643D01*
X7983928Y-10863929D01*
X7955357Y-10878214D01*
X7869643Y-10878214D01*
X7841071Y-10863929D01*
X7826786Y-10849643D01*
X8126786Y-10578214D02*
X8126786Y-10635357D01*
X8241071Y-10578214D02*
X8241071Y-10635357D01*
X8683928Y-10992500D02*
X8669643Y-10978214D01*
X8641071Y-10935357D01*
X8626786Y-10906786D01*
X8612500Y-10863929D01*
X8598214Y-10792500D01*
X8598214Y-10735357D01*
X8612500Y-10663929D01*
X8626786Y-10621072D01*
X8641071Y-10592500D01*
X8669643Y-10549643D01*
X8683928Y-10535357D01*
X8783928Y-10606786D02*
X8798214Y-10592500D01*
X8826786Y-10578214D01*
X8898214Y-10578214D01*
X8926786Y-10592500D01*
X8941071Y-10606786D01*
X8955357Y-10635357D01*
X8955357Y-10663929D01*
X8941071Y-10706786D01*
X8769643Y-10878214D01*
X8955357Y-10878214D01*
X9312500Y-10878214D02*
X9312500Y-10578214D01*
X9441071Y-10878214D02*
X9441071Y-10721072D01*
X9426786Y-10692500D01*
X9398214Y-10678214D01*
X9355357Y-10678214D01*
X9326786Y-10692500D01*
X9312500Y-10706786D01*
X9626786Y-10878214D02*
X9598214Y-10863929D01*
X9583928Y-10849643D01*
X9569643Y-10821072D01*
X9569643Y-10735357D01*
X9583928Y-10706786D01*
X9598214Y-10692500D01*
X9626786Y-10678214D01*
X9669643Y-10678214D01*
X9698214Y-10692500D01*
X9712500Y-10706786D01*
X9726786Y-10735357D01*
X9726786Y-10821072D01*
X9712500Y-10849643D01*
X9698214Y-10863929D01*
X9669643Y-10878214D01*
X9626786Y-10878214D01*
X9898214Y-10878214D02*
X9869643Y-10863929D01*
X9855357Y-10835357D01*
X9855357Y-10578214D01*
X10126786Y-10863929D02*
X10098214Y-10878214D01*
X10041071Y-10878214D01*
X10012500Y-10863929D01*
X9998214Y-10835357D01*
X9998214Y-10721072D01*
X10012500Y-10692500D01*
X10041071Y-10678214D01*
X10098214Y-10678214D01*
X10126786Y-10692500D01*
X10141071Y-10721072D01*
X10141071Y-10749643D01*
X9998214Y-10778214D01*
X10255357Y-10863929D02*
X10283928Y-10878214D01*
X10341071Y-10878214D01*
X10369643Y-10863929D01*
X10383928Y-10835357D01*
X10383928Y-10821072D01*
X10369643Y-10792500D01*
X10341071Y-10778214D01*
X10298214Y-10778214D01*
X10269643Y-10763929D01*
X10255357Y-10735357D01*
X10255357Y-10721072D01*
X10269643Y-10692500D01*
X10298214Y-10678214D01*
X10341071Y-10678214D01*
X10369643Y-10692500D01*
X10483928Y-10992500D02*
X10498214Y-10978214D01*
X10526786Y-10935357D01*
X10541071Y-10906786D01*
X10555357Y-10863929D01*
X10569643Y-10792500D01*
X10569643Y-10735357D01*
X10555357Y-10663929D01*
X10541071Y-10621072D01*
X10526786Y-10592500D01*
X10498214Y-10549643D01*
X10483928Y-10535357D01*
X3897500Y-11088500D02*
X3997500Y-11188500D01*
X3997500Y-11088500D02*
X3897500Y-11188500D01*
X3947500Y-11088500D02*
X3947500Y-11188500D01*
X3897500Y-11138500D02*
X3997500Y-11138500D01*
X4441071Y-11274214D02*
X4269643Y-11274214D01*
X4355357Y-11274214D02*
X4355357Y-10974214D01*
X4326786Y-11017072D01*
X4298214Y-11045643D01*
X4269643Y-11059929D01*
X4569643Y-11245643D02*
X4583928Y-11259929D01*
X4569643Y-11274214D01*
X4555357Y-11259929D01*
X4569643Y-11245643D01*
X4569643Y-11274214D01*
X4769643Y-10974214D02*
X4798214Y-10974214D01*
X4826786Y-10988500D01*
X4841071Y-11002786D01*
X4855357Y-11031357D01*
X4869643Y-11088500D01*
X4869643Y-11159929D01*
X4855357Y-11217071D01*
X4841071Y-11245643D01*
X4826786Y-11259929D01*
X4798214Y-11274214D01*
X4769643Y-11274214D01*
X4741071Y-11259929D01*
X4726786Y-11245643D01*
X4712500Y-11217071D01*
X4698214Y-11159929D01*
X4698214Y-11088500D01*
X4712500Y-11031357D01*
X4726786Y-11002786D01*
X4741071Y-10988500D01*
X4769643Y-10974214D01*
X5055357Y-10974214D02*
X5083928Y-10974214D01*
X5112500Y-10988500D01*
X5126786Y-11002786D01*
X5141071Y-11031357D01*
X5155357Y-11088500D01*
X5155357Y-11159929D01*
X5141071Y-11217071D01*
X5126786Y-11245643D01*
X5112500Y-11259929D01*
X5083928Y-11274214D01*
X5055357Y-11274214D01*
X5026786Y-11259929D01*
X5012500Y-11245643D01*
X4998214Y-11217071D01*
X4983928Y-11159929D01*
X4983928Y-11088500D01*
X4998214Y-11031357D01*
X5012500Y-11002786D01*
X5026786Y-10988500D01*
X5055357Y-10974214D01*
X5283928Y-11274214D02*
X5283928Y-11074214D01*
X5283928Y-11102786D02*
X5298214Y-11088500D01*
X5326786Y-11074214D01*
X5369643Y-11074214D01*
X5398214Y-11088500D01*
X5412500Y-11117072D01*
X5412500Y-11274214D01*
X5412500Y-11117072D02*
X5426786Y-11088500D01*
X5455357Y-11074214D01*
X5498214Y-11074214D01*
X5526786Y-11088500D01*
X5541071Y-11117072D01*
X5541071Y-11274214D01*
X5683928Y-11274214D02*
X5683928Y-11074214D01*
X5683928Y-11102786D02*
X5698214Y-11088500D01*
X5726786Y-11074214D01*
X5769643Y-11074214D01*
X5798214Y-11088500D01*
X5812500Y-11117072D01*
X5812500Y-11274214D01*
X5812500Y-11117072D02*
X5826786Y-11088500D01*
X5855357Y-11074214D01*
X5898214Y-11074214D01*
X5926786Y-11088500D01*
X5941071Y-11117072D01*
X5941071Y-11274214D01*
X6526786Y-10959929D02*
X6269643Y-11345643D01*
X6912500Y-10974214D02*
X6941071Y-10974214D01*
X6969643Y-10988500D01*
X6983928Y-11002786D01*
X6998214Y-11031357D01*
X7012500Y-11088500D01*
X7012500Y-11159929D01*
X6998214Y-11217071D01*
X6983928Y-11245643D01*
X6969643Y-11259929D01*
X6941071Y-11274214D01*
X6912500Y-11274214D01*
X6883928Y-11259929D01*
X6869643Y-11245643D01*
X6855357Y-11217071D01*
X6841071Y-11159929D01*
X6841071Y-11088500D01*
X6855357Y-11031357D01*
X6869643Y-11002786D01*
X6883928Y-10988500D01*
X6912500Y-10974214D01*
X7141071Y-11245643D02*
X7155357Y-11259929D01*
X7141071Y-11274214D01*
X7126786Y-11259929D01*
X7141071Y-11245643D01*
X7141071Y-11274214D01*
X7341071Y-10974214D02*
X7369643Y-10974214D01*
X7398214Y-10988500D01*
X7412500Y-11002786D01*
X7426786Y-11031357D01*
X7441071Y-11088500D01*
X7441071Y-11159929D01*
X7426786Y-11217071D01*
X7412500Y-11245643D01*
X7398214Y-11259929D01*
X7369643Y-11274214D01*
X7341071Y-11274214D01*
X7312500Y-11259929D01*
X7298214Y-11245643D01*
X7283928Y-11217071D01*
X7269643Y-11159929D01*
X7269643Y-11088500D01*
X7283928Y-11031357D01*
X7298214Y-11002786D01*
X7312500Y-10988500D01*
X7341071Y-10974214D01*
X7541071Y-10974214D02*
X7726786Y-10974214D01*
X7626786Y-11088500D01*
X7669643Y-11088500D01*
X7698214Y-11102786D01*
X7712500Y-11117072D01*
X7726786Y-11145643D01*
X7726786Y-11217071D01*
X7712500Y-11245643D01*
X7698214Y-11259929D01*
X7669643Y-11274214D01*
X7583928Y-11274214D01*
X7555357Y-11259929D01*
X7541071Y-11245643D01*
X7869643Y-11274214D02*
X7926786Y-11274214D01*
X7955357Y-11259929D01*
X7969643Y-11245643D01*
X7998214Y-11202786D01*
X8012500Y-11145643D01*
X8012500Y-11031357D01*
X7998214Y-11002786D01*
X7983928Y-10988500D01*
X7955357Y-10974214D01*
X7898214Y-10974214D01*
X7869643Y-10988500D01*
X7855357Y-11002786D01*
X7841071Y-11031357D01*
X7841071Y-11102786D01*
X7855357Y-11131357D01*
X7869643Y-11145643D01*
X7898214Y-11159929D01*
X7955357Y-11159929D01*
X7983928Y-11145643D01*
X7998214Y-11131357D01*
X8012500Y-11102786D01*
X8126786Y-10974214D02*
X8126786Y-11031357D01*
X8241071Y-10974214D02*
X8241071Y-11031357D01*
X8683928Y-11388500D02*
X8669643Y-11374214D01*
X8641071Y-11331357D01*
X8626786Y-11302786D01*
X8612500Y-11259929D01*
X8598214Y-11188500D01*
X8598214Y-11131357D01*
X8612500Y-11059929D01*
X8626786Y-11017072D01*
X8641071Y-10988500D01*
X8669643Y-10945643D01*
X8683928Y-10931357D01*
X8926786Y-10974214D02*
X8869643Y-10974214D01*
X8841071Y-10988500D01*
X8826786Y-11002786D01*
X8798214Y-11045643D01*
X8783928Y-11102786D01*
X8783928Y-11217071D01*
X8798214Y-11245643D01*
X8812500Y-11259929D01*
X8841071Y-11274214D01*
X8898214Y-11274214D01*
X8926786Y-11259929D01*
X8941071Y-11245643D01*
X8955357Y-11217071D01*
X8955357Y-11145643D01*
X8941071Y-11117072D01*
X8926786Y-11102786D01*
X8898214Y-11088500D01*
X8841071Y-11088500D01*
X8812500Y-11102786D01*
X8798214Y-11117072D01*
X8783928Y-11145643D01*
X9312500Y-11274214D02*
X9312500Y-10974214D01*
X9441071Y-11274214D02*
X9441071Y-11117072D01*
X9426786Y-11088500D01*
X9398214Y-11074214D01*
X9355357Y-11074214D01*
X9326786Y-11088500D01*
X9312500Y-11102786D01*
X9626786Y-11274214D02*
X9598214Y-11259929D01*
X9583928Y-11245643D01*
X9569643Y-11217071D01*
X9569643Y-11131357D01*
X9583928Y-11102786D01*
X9598214Y-11088500D01*
X9626786Y-11074214D01*
X9669643Y-11074214D01*
X9698214Y-11088500D01*
X9712500Y-11102786D01*
X9726786Y-11131357D01*
X9726786Y-11217071D01*
X9712500Y-11245643D01*
X9698214Y-11259929D01*
X9669643Y-11274214D01*
X9626786Y-11274214D01*
X9898214Y-11274214D02*
X9869643Y-11259929D01*
X9855357Y-11231357D01*
X9855357Y-10974214D01*
X10126786Y-11259929D02*
X10098214Y-11274214D01*
X10041071Y-11274214D01*
X10012500Y-11259929D01*
X9998214Y-11231357D01*
X9998214Y-11117072D01*
X10012500Y-11088500D01*
X10041071Y-11074214D01*
X10098214Y-11074214D01*
X10126786Y-11088500D01*
X10141071Y-11117072D01*
X10141071Y-11145643D01*
X9998214Y-11174214D01*
X10255357Y-11259929D02*
X10283928Y-11274214D01*
X10341071Y-11274214D01*
X10369643Y-11259929D01*
X10383928Y-11231357D01*
X10383928Y-11217071D01*
X10369643Y-11188500D01*
X10341071Y-11174214D01*
X10298214Y-11174214D01*
X10269643Y-11159929D01*
X10255357Y-11131357D01*
X10255357Y-11117072D01*
X10269643Y-11088500D01*
X10298214Y-11074214D01*
X10341071Y-11074214D01*
X10369643Y-11088500D01*
X10483928Y-11388500D02*
X10498214Y-11374214D01*
X10526786Y-11331357D01*
X10541071Y-11302786D01*
X10555357Y-11259929D01*
X10569643Y-11188500D01*
X10569643Y-11131357D01*
X10555357Y-11059929D01*
X10541071Y-11017072D01*
X10526786Y-10988500D01*
X10498214Y-10945643D01*
X10483928Y-10931357D01*
X3877500Y-11474500D02*
X3997500Y-11594500D01*
X3997500Y-11474500D02*
X3877500Y-11594500D01*
X3979927Y-11576927D02*
X3979927Y-11492073D01*
X3895073Y-11492073D01*
X3895073Y-11576927D01*
X3979927Y-11576927D01*
X4441071Y-11670214D02*
X4269643Y-11670214D01*
X4355357Y-11670214D02*
X4355357Y-11370214D01*
X4326786Y-11413071D01*
X4298214Y-11441643D01*
X4269643Y-11455929D01*
X4569643Y-11641643D02*
X4583928Y-11655929D01*
X4569643Y-11670214D01*
X4555357Y-11655929D01*
X4569643Y-11641643D01*
X4569643Y-11670214D01*
X4698214Y-11398786D02*
X4712500Y-11384500D01*
X4741071Y-11370214D01*
X4812500Y-11370214D01*
X4841071Y-11384500D01*
X4855357Y-11398786D01*
X4869643Y-11427357D01*
X4869643Y-11455929D01*
X4855357Y-11498786D01*
X4683928Y-11670214D01*
X4869643Y-11670214D01*
X5055357Y-11370214D02*
X5083928Y-11370214D01*
X5112500Y-11384500D01*
X5126786Y-11398786D01*
X5141071Y-11427357D01*
X5155357Y-11484500D01*
X5155357Y-11555929D01*
X5141071Y-11613071D01*
X5126786Y-11641643D01*
X5112500Y-11655929D01*
X5083928Y-11670214D01*
X5055357Y-11670214D01*
X5026786Y-11655929D01*
X5012500Y-11641643D01*
X4998214Y-11613071D01*
X4983928Y-11555929D01*
X4983928Y-11484500D01*
X4998214Y-11427357D01*
X5012500Y-11398786D01*
X5026786Y-11384500D01*
X5055357Y-11370214D01*
X5283928Y-11670214D02*
X5283928Y-11470214D01*
X5283928Y-11498786D02*
X5298214Y-11484500D01*
X5326786Y-11470214D01*
X5369643Y-11470214D01*
X5398214Y-11484500D01*
X5412500Y-11513071D01*
X5412500Y-11670214D01*
X5412500Y-11513071D02*
X5426786Y-11484500D01*
X5455357Y-11470214D01*
X5498214Y-11470214D01*
X5526786Y-11484500D01*
X5541071Y-11513071D01*
X5541071Y-11670214D01*
X5683928Y-11670214D02*
X5683928Y-11470214D01*
X5683928Y-11498786D02*
X5698214Y-11484500D01*
X5726786Y-11470214D01*
X5769643Y-11470214D01*
X5798214Y-11484500D01*
X5812500Y-11513071D01*
X5812500Y-11670214D01*
X5812500Y-11513071D02*
X5826786Y-11484500D01*
X5855357Y-11470214D01*
X5898214Y-11470214D01*
X5926786Y-11484500D01*
X5941071Y-11513071D01*
X5941071Y-11670214D01*
X6526786Y-11355929D02*
X6269643Y-11741643D01*
X6912500Y-11370214D02*
X6941071Y-11370214D01*
X6969643Y-11384500D01*
X6983928Y-11398786D01*
X6998214Y-11427357D01*
X7012500Y-11484500D01*
X7012500Y-11555929D01*
X6998214Y-11613071D01*
X6983928Y-11641643D01*
X6969643Y-11655929D01*
X6941071Y-11670214D01*
X6912500Y-11670214D01*
X6883928Y-11655929D01*
X6869643Y-11641643D01*
X6855357Y-11613071D01*
X6841071Y-11555929D01*
X6841071Y-11484500D01*
X6855357Y-11427357D01*
X6869643Y-11398786D01*
X6883928Y-11384500D01*
X6912500Y-11370214D01*
X7141071Y-11641643D02*
X7155357Y-11655929D01*
X7141071Y-11670214D01*
X7126786Y-11655929D01*
X7141071Y-11641643D01*
X7141071Y-11670214D01*
X7341071Y-11370214D02*
X7369643Y-11370214D01*
X7398214Y-11384500D01*
X7412500Y-11398786D01*
X7426786Y-11427357D01*
X7441071Y-11484500D01*
X7441071Y-11555929D01*
X7426786Y-11613071D01*
X7412500Y-11641643D01*
X7398214Y-11655929D01*
X7369643Y-11670214D01*
X7341071Y-11670214D01*
X7312500Y-11655929D01*
X7298214Y-11641643D01*
X7283928Y-11613071D01*
X7269643Y-11555929D01*
X7269643Y-11484500D01*
X7283928Y-11427357D01*
X7298214Y-11398786D01*
X7312500Y-11384500D01*
X7341071Y-11370214D01*
X7698214Y-11470214D02*
X7698214Y-11670214D01*
X7626786Y-11355929D02*
X7555357Y-11570214D01*
X7741071Y-11570214D01*
X7826786Y-11370214D02*
X8026786Y-11370214D01*
X7898214Y-11670214D01*
X8126786Y-11370214D02*
X8126786Y-11427357D01*
X8241071Y-11370214D02*
X8241071Y-11427357D01*
X8683928Y-11784500D02*
X8669643Y-11770214D01*
X8641071Y-11727357D01*
X8626786Y-11698786D01*
X8612500Y-11655929D01*
X8598214Y-11584500D01*
X8598214Y-11527357D01*
X8612500Y-11455929D01*
X8626786Y-11413071D01*
X8641071Y-11384500D01*
X8669643Y-11341643D01*
X8683928Y-11327357D01*
X8926786Y-11470214D02*
X8926786Y-11670214D01*
X8855357Y-11355929D02*
X8783928Y-11570214D01*
X8969643Y-11570214D01*
X9312500Y-11670214D02*
X9312500Y-11370214D01*
X9441071Y-11670214D02*
X9441071Y-11513071D01*
X9426786Y-11484500D01*
X9398214Y-11470214D01*
X9355357Y-11470214D01*
X9326786Y-11484500D01*
X9312500Y-11498786D01*
X9626786Y-11670214D02*
X9598214Y-11655929D01*
X9583928Y-11641643D01*
X9569643Y-11613071D01*
X9569643Y-11527357D01*
X9583928Y-11498786D01*
X9598214Y-11484500D01*
X9626786Y-11470214D01*
X9669643Y-11470214D01*
X9698214Y-11484500D01*
X9712500Y-11498786D01*
X9726786Y-11527357D01*
X9726786Y-11613071D01*
X9712500Y-11641643D01*
X9698214Y-11655929D01*
X9669643Y-11670214D01*
X9626786Y-11670214D01*
X9898214Y-11670214D02*
X9869643Y-11655929D01*
X9855357Y-11627357D01*
X9855357Y-11370214D01*
X10126786Y-11655929D02*
X10098214Y-11670214D01*
X10041071Y-11670214D01*
X10012500Y-11655929D01*
X9998214Y-11627357D01*
X9998214Y-11513071D01*
X10012500Y-11484500D01*
X10041071Y-11470214D01*
X10098214Y-11470214D01*
X10126786Y-11484500D01*
X10141071Y-11513071D01*
X10141071Y-11541643D01*
X9998214Y-11570214D01*
X10255357Y-11655929D02*
X10283928Y-11670214D01*
X10341071Y-11670214D01*
X10369643Y-11655929D01*
X10383928Y-11627357D01*
X10383928Y-11613071D01*
X10369643Y-11584500D01*
X10341071Y-11570214D01*
X10298214Y-11570214D01*
X10269643Y-11555929D01*
X10255357Y-11527357D01*
X10255357Y-11513071D01*
X10269643Y-11484500D01*
X10298214Y-11470214D01*
X10341071Y-11470214D01*
X10369643Y-11484500D01*
X10483928Y-11784500D02*
X10498214Y-11770214D01*
X10526786Y-11727357D01*
X10541071Y-11698786D01*
X10555357Y-11655929D01*
X10569643Y-11584500D01*
X10569643Y-11527357D01*
X10555357Y-11455929D01*
X10541071Y-11413071D01*
X10526786Y-11384500D01*
X10498214Y-11341643D01*
X10483928Y-11327357D01*
X3557500Y-11710500D02*
X3997500Y-12150500D01*
X3997500Y-11710500D02*
X3557500Y-12150500D01*
X3777500Y-12150500D02*
X3997500Y-11930500D01*
X3777500Y-11710500D01*
X3557500Y-11930500D01*
X3777500Y-12150500D01*
X4412500Y-11866214D02*
X4412500Y-12066214D01*
X4341071Y-11751929D02*
X4269643Y-11966214D01*
X4455357Y-11966214D01*
X4569643Y-12037643D02*
X4583928Y-12051929D01*
X4569643Y-12066214D01*
X4555357Y-12051929D01*
X4569643Y-12037643D01*
X4569643Y-12066214D01*
X4841071Y-11866214D02*
X4841071Y-12066214D01*
X4769643Y-11751929D02*
X4698214Y-11966214D01*
X4883928Y-11966214D01*
X5055357Y-11766214D02*
X5083928Y-11766214D01*
X5112500Y-11780500D01*
X5126786Y-11794786D01*
X5141071Y-11823357D01*
X5155357Y-11880500D01*
X5155357Y-11951929D01*
X5141071Y-12009071D01*
X5126786Y-12037643D01*
X5112500Y-12051929D01*
X5083928Y-12066214D01*
X5055357Y-12066214D01*
X5026786Y-12051929D01*
X5012500Y-12037643D01*
X4998214Y-12009071D01*
X4983928Y-11951929D01*
X4983928Y-11880500D01*
X4998214Y-11823357D01*
X5012500Y-11794786D01*
X5026786Y-11780500D01*
X5055357Y-11766214D01*
X5283928Y-12066214D02*
X5283928Y-11866214D01*
X5283928Y-11894786D02*
X5298214Y-11880500D01*
X5326786Y-11866214D01*
X5369643Y-11866214D01*
X5398214Y-11880500D01*
X5412500Y-11909071D01*
X5412500Y-12066214D01*
X5412500Y-11909071D02*
X5426786Y-11880500D01*
X5455357Y-11866214D01*
X5498214Y-11866214D01*
X5526786Y-11880500D01*
X5541071Y-11909071D01*
X5541071Y-12066214D01*
X5683928Y-12066214D02*
X5683928Y-11866214D01*
X5683928Y-11894786D02*
X5698214Y-11880500D01*
X5726786Y-11866214D01*
X5769643Y-11866214D01*
X5798214Y-11880500D01*
X5812500Y-11909071D01*
X5812500Y-12066214D01*
X5812500Y-11909071D02*
X5826786Y-11880500D01*
X5855357Y-11866214D01*
X5898214Y-11866214D01*
X5926786Y-11880500D01*
X5941071Y-11909071D01*
X5941071Y-12066214D01*
X6526786Y-11751929D02*
X6269643Y-12137643D01*
X6912500Y-11766214D02*
X6941071Y-11766214D01*
X6969643Y-11780500D01*
X6983928Y-11794786D01*
X6998214Y-11823357D01*
X7012500Y-11880500D01*
X7012500Y-11951929D01*
X6998214Y-12009071D01*
X6983928Y-12037643D01*
X6969643Y-12051929D01*
X6941071Y-12066214D01*
X6912500Y-12066214D01*
X6883928Y-12051929D01*
X6869643Y-12037643D01*
X6855357Y-12009071D01*
X6841071Y-11951929D01*
X6841071Y-11880500D01*
X6855357Y-11823357D01*
X6869643Y-11794786D01*
X6883928Y-11780500D01*
X6912500Y-11766214D01*
X7141071Y-12037643D02*
X7155357Y-12051929D01*
X7141071Y-12066214D01*
X7126786Y-12051929D01*
X7141071Y-12037643D01*
X7141071Y-12066214D01*
X7441071Y-12066214D02*
X7269643Y-12066214D01*
X7355357Y-12066214D02*
X7355357Y-11766214D01*
X7326786Y-11809071D01*
X7298214Y-11837643D01*
X7269643Y-11851929D01*
X7541071Y-11766214D02*
X7741071Y-11766214D01*
X7612500Y-12066214D01*
X7826786Y-11766214D02*
X8012500Y-11766214D01*
X7912500Y-11880500D01*
X7955357Y-11880500D01*
X7983928Y-11894786D01*
X7998214Y-11909071D01*
X8012500Y-11937643D01*
X8012500Y-12009071D01*
X7998214Y-12037643D01*
X7983928Y-12051929D01*
X7955357Y-12066214D01*
X7869643Y-12066214D01*
X7841071Y-12051929D01*
X7826786Y-12037643D01*
X8126786Y-11766214D02*
X8126786Y-11823357D01*
X8241071Y-11766214D02*
X8241071Y-11823357D01*
X8683928Y-12180500D02*
X8669643Y-12166214D01*
X8641071Y-12123357D01*
X8626786Y-12094786D01*
X8612500Y-12051929D01*
X8598214Y-11980500D01*
X8598214Y-11923357D01*
X8612500Y-11851929D01*
X8626786Y-11809071D01*
X8641071Y-11780500D01*
X8669643Y-11737643D01*
X8683928Y-11723357D01*
X8783928Y-11794786D02*
X8798214Y-11780500D01*
X8826786Y-11766214D01*
X8898214Y-11766214D01*
X8926786Y-11780500D01*
X8941071Y-11794786D01*
X8955357Y-11823357D01*
X8955357Y-11851929D01*
X8941071Y-11894786D01*
X8769643Y-12066214D01*
X8955357Y-12066214D01*
X9312500Y-12066214D02*
X9312500Y-11766214D01*
X9441071Y-12066214D02*
X9441071Y-11909071D01*
X9426786Y-11880500D01*
X9398214Y-11866214D01*
X9355357Y-11866214D01*
X9326786Y-11880500D01*
X9312500Y-11894786D01*
X9626786Y-12066214D02*
X9598214Y-12051929D01*
X9583928Y-12037643D01*
X9569643Y-12009071D01*
X9569643Y-11923357D01*
X9583928Y-11894786D01*
X9598214Y-11880500D01*
X9626786Y-11866214D01*
X9669643Y-11866214D01*
X9698214Y-11880500D01*
X9712500Y-11894786D01*
X9726786Y-11923357D01*
X9726786Y-12009071D01*
X9712500Y-12037643D01*
X9698214Y-12051929D01*
X9669643Y-12066214D01*
X9626786Y-12066214D01*
X9898214Y-12066214D02*
X9869643Y-12051929D01*
X9855357Y-12023357D01*
X9855357Y-11766214D01*
X10126786Y-12051929D02*
X10098214Y-12066214D01*
X10041071Y-12066214D01*
X10012500Y-12051929D01*
X9998214Y-12023357D01*
X9998214Y-11909071D01*
X10012500Y-11880500D01*
X10041071Y-11866214D01*
X10098214Y-11866214D01*
X10126786Y-11880500D01*
X10141071Y-11909071D01*
X10141071Y-11937643D01*
X9998214Y-11966214D01*
X10255357Y-12051929D02*
X10283928Y-12066214D01*
X10341071Y-12066214D01*
X10369643Y-12051929D01*
X10383928Y-12023357D01*
X10383928Y-12009071D01*
X10369643Y-11980500D01*
X10341071Y-11966214D01*
X10298214Y-11966214D01*
X10269643Y-11951929D01*
X10255357Y-11923357D01*
X10255357Y-11909071D01*
X10269643Y-11880500D01*
X10298214Y-11866214D01*
X10341071Y-11866214D01*
X10369643Y-11880500D01*
X10483928Y-12180500D02*
X10498214Y-12166214D01*
X10526786Y-12123357D01*
X10541071Y-12094786D01*
X10555357Y-12051929D01*
X10569643Y-11980500D01*
X10569643Y-11923357D01*
X10555357Y-11851929D01*
X10541071Y-11809071D01*
X10526786Y-11780500D01*
X10498214Y-11737643D01*
X10483928Y-11723357D01*
M02*
