G04 #@! TF.GenerationSoftware,KiCad,Pcbnew,(5.1.2)-2*
G04 #@! TF.CreationDate,2020-08-31T16:13:31+01:00*
G04 #@! TF.ProjectId,INV_Board,494e565f-426f-4617-9264-2e6b69636164,rev?*
G04 #@! TF.SameCoordinates,Original*
G04 #@! TF.FileFunction,Legend,Bot*
G04 #@! TF.FilePolarity,Positive*
%FSLAX46Y46*%
G04 Gerber Fmt 4.6, Leading zero omitted, Abs format (unit mm)*
G04 Created by KiCad (PCBNEW (5.1.2)-2) date 2020-08-31 16:13:31*
%MOMM*%
%LPD*%
G04 APERTURE LIST*
%ADD10C,0.125000*%
%ADD11C,0.150000*%
%ADD12C,0.120000*%
G04 APERTURE END LIST*
D10*
X42169047Y-74100595D02*
X42169047Y-73452976D01*
X42192857Y-73376785D01*
X42216666Y-73338690D01*
X42264285Y-73300595D01*
X42359523Y-73300595D01*
X42407142Y-73338690D01*
X42430952Y-73376785D01*
X42454761Y-73452976D01*
X42454761Y-74100595D01*
X42669047Y-73338690D02*
X42740476Y-73300595D01*
X42859523Y-73300595D01*
X42907142Y-73338690D01*
X42930952Y-73376785D01*
X42954761Y-73452976D01*
X42954761Y-73529166D01*
X42930952Y-73605357D01*
X42907142Y-73643452D01*
X42859523Y-73681547D01*
X42764285Y-73719642D01*
X42716666Y-73757738D01*
X42692857Y-73795833D01*
X42669047Y-73872023D01*
X42669047Y-73948214D01*
X42692857Y-74024404D01*
X42716666Y-74062500D01*
X42764285Y-74100595D01*
X42883333Y-74100595D01*
X42954761Y-74062500D01*
X43335714Y-73719642D02*
X43407142Y-73681547D01*
X43430952Y-73643452D01*
X43454761Y-73567261D01*
X43454761Y-73452976D01*
X43430952Y-73376785D01*
X43407142Y-73338690D01*
X43359523Y-73300595D01*
X43169047Y-73300595D01*
X43169047Y-74100595D01*
X43335714Y-74100595D01*
X43383333Y-74062500D01*
X43407142Y-74024404D01*
X43430952Y-73948214D01*
X43430952Y-73872023D01*
X43407142Y-73795833D01*
X43383333Y-73757738D01*
X43335714Y-73719642D01*
X43169047Y-73719642D01*
X41645238Y-72394642D02*
X41716666Y-72356547D01*
X41740476Y-72318452D01*
X41764285Y-72242261D01*
X41764285Y-72127976D01*
X41740476Y-72051785D01*
X41716666Y-72013690D01*
X41669047Y-71975595D01*
X41478571Y-71975595D01*
X41478571Y-72775595D01*
X41645238Y-72775595D01*
X41692857Y-72737500D01*
X41716666Y-72699404D01*
X41740476Y-72623214D01*
X41740476Y-72547023D01*
X41716666Y-72470833D01*
X41692857Y-72432738D01*
X41645238Y-72394642D01*
X41478571Y-72394642D01*
X42359523Y-71975595D02*
X42359523Y-72775595D01*
X42526190Y-72204166D01*
X42692857Y-72775595D01*
X42692857Y-71975595D01*
X42930952Y-71975595D02*
X42930952Y-72508928D01*
X42930952Y-72775595D02*
X42907142Y-72737500D01*
X42930952Y-72699404D01*
X42954761Y-72737500D01*
X42930952Y-72775595D01*
X42930952Y-72699404D01*
X43383333Y-72013690D02*
X43335714Y-71975595D01*
X43240476Y-71975595D01*
X43192857Y-72013690D01*
X43169047Y-72051785D01*
X43145238Y-72127976D01*
X43145238Y-72356547D01*
X43169047Y-72432738D01*
X43192857Y-72470833D01*
X43240476Y-72508928D01*
X43335714Y-72508928D01*
X43383333Y-72470833D01*
X43597619Y-71975595D02*
X43597619Y-72508928D01*
X43597619Y-72356547D02*
X43621428Y-72432738D01*
X43645238Y-72470833D01*
X43692857Y-72508928D01*
X43740476Y-72508928D01*
X43978571Y-71975595D02*
X43930952Y-72013690D01*
X43907142Y-72051785D01*
X43883333Y-72127976D01*
X43883333Y-72356547D01*
X43907142Y-72432738D01*
X43930952Y-72470833D01*
X43978571Y-72508928D01*
X44050000Y-72508928D01*
X44097619Y-72470833D01*
X44121428Y-72432738D01*
X44145238Y-72356547D01*
X44145238Y-72127976D01*
X44121428Y-72051785D01*
X44097619Y-72013690D01*
X44050000Y-71975595D01*
X43978571Y-71975595D01*
D11*
X67514285Y-61947619D02*
X67514285Y-62947619D01*
X67895238Y-62947619D01*
X67990476Y-62900000D01*
X68038095Y-62852380D01*
X68085714Y-62757142D01*
X68085714Y-62614285D01*
X68038095Y-62519047D01*
X67990476Y-62471428D01*
X67895238Y-62423809D01*
X67514285Y-62423809D01*
X68514285Y-61947619D02*
X68514285Y-62947619D01*
X68942857Y-61947619D02*
X68942857Y-62471428D01*
X68895238Y-62566666D01*
X68800000Y-62614285D01*
X68657142Y-62614285D01*
X68561904Y-62566666D01*
X68514285Y-62519047D01*
X69323809Y-62947619D02*
X69561904Y-61947619D01*
X69752380Y-62661904D01*
X69942857Y-61947619D01*
X70180952Y-62947619D01*
X96657142Y-61547619D02*
X96657142Y-62547619D01*
X97038095Y-62547619D01*
X97133333Y-62500000D01*
X97180952Y-62452380D01*
X97228571Y-62357142D01*
X97228571Y-62214285D01*
X97180952Y-62119047D01*
X97133333Y-62071428D01*
X97038095Y-62023809D01*
X96657142Y-62023809D01*
X97657142Y-61547619D02*
X97657142Y-62547619D01*
X98085714Y-61547619D02*
X98085714Y-62071428D01*
X98038095Y-62166666D01*
X97942857Y-62214285D01*
X97800000Y-62214285D01*
X97704761Y-62166666D01*
X97657142Y-62119047D01*
X98419047Y-62547619D02*
X98752380Y-61547619D01*
X99085714Y-62547619D01*
X122361904Y-62347619D02*
X122361904Y-63347619D01*
X122742857Y-63347619D01*
X122838095Y-63300000D01*
X122885714Y-63252380D01*
X122933333Y-63157142D01*
X122933333Y-63014285D01*
X122885714Y-62919047D01*
X122838095Y-62871428D01*
X122742857Y-62823809D01*
X122361904Y-62823809D01*
X123361904Y-62347619D02*
X123361904Y-63347619D01*
X123790476Y-62347619D02*
X123790476Y-62871428D01*
X123742857Y-62966666D01*
X123647619Y-63014285D01*
X123504761Y-63014285D01*
X123409523Y-62966666D01*
X123361904Y-62919047D01*
X124266666Y-63347619D02*
X124266666Y-62538095D01*
X124314285Y-62442857D01*
X124361904Y-62395238D01*
X124457142Y-62347619D01*
X124647619Y-62347619D01*
X124742857Y-62395238D01*
X124790476Y-62442857D01*
X124838095Y-62538095D01*
X124838095Y-63347619D01*
D10*
X87440476Y-75547619D02*
X87440476Y-76547619D01*
X87559523Y-75452380D02*
X87940476Y-75452380D01*
X88059523Y-75547619D02*
X88059523Y-76547619D01*
X88250000Y-76547619D01*
X88297619Y-76500000D01*
X88321428Y-76452380D01*
X88345238Y-76357142D01*
X88345238Y-76214285D01*
X88321428Y-76119047D01*
X88297619Y-76071428D01*
X88250000Y-76023809D01*
X88059523Y-76023809D01*
X88559523Y-75547619D02*
X88559523Y-76547619D01*
X88773809Y-75547619D02*
X88773809Y-76071428D01*
X88750000Y-76166666D01*
X88702380Y-76214285D01*
X88630952Y-76214285D01*
X88583333Y-76166666D01*
X88559523Y-76119047D01*
X89011904Y-76547619D02*
X89011904Y-75738095D01*
X89035714Y-75642857D01*
X89059523Y-75595238D01*
X89107142Y-75547619D01*
X89202380Y-75547619D01*
X89250000Y-75595238D01*
X89273809Y-75642857D01*
X89297619Y-75738095D01*
X89297619Y-76547619D01*
X89845238Y-76547619D02*
X90130952Y-76547619D01*
X89988095Y-75547619D02*
X89988095Y-76547619D01*
X90297619Y-75547619D02*
X90297619Y-76547619D01*
X90488095Y-76547619D01*
X90535714Y-76500000D01*
X90559523Y-76452380D01*
X90583333Y-76357142D01*
X90583333Y-76214285D01*
X90559523Y-76119047D01*
X90535714Y-76071428D01*
X90488095Y-76023809D01*
X90297619Y-76023809D01*
X92088095Y-72947619D02*
X92088095Y-73947619D01*
X92207142Y-72852380D02*
X92588095Y-72852380D01*
X92707142Y-72947619D02*
X92707142Y-73947619D01*
X92897619Y-73947619D01*
X92945238Y-73900000D01*
X92969047Y-73852380D01*
X92992857Y-73757142D01*
X92992857Y-73614285D01*
X92969047Y-73519047D01*
X92945238Y-73471428D01*
X92897619Y-73423809D01*
X92707142Y-73423809D01*
X93207142Y-72947619D02*
X93207142Y-73947619D01*
X93421428Y-72947619D02*
X93421428Y-73471428D01*
X93397619Y-73566666D01*
X93350000Y-73614285D01*
X93278571Y-73614285D01*
X93230952Y-73566666D01*
X93207142Y-73519047D01*
X93588095Y-73947619D02*
X93754761Y-72947619D01*
X93921428Y-73947619D01*
X94397619Y-73947619D02*
X94683333Y-73947619D01*
X94540476Y-72947619D02*
X94540476Y-73947619D01*
X94850000Y-72947619D02*
X94850000Y-73947619D01*
X95040476Y-73947619D01*
X95088095Y-73900000D01*
X95111904Y-73852380D01*
X95135714Y-73757142D01*
X95135714Y-73614285D01*
X95111904Y-73519047D01*
X95088095Y-73471428D01*
X95040476Y-73423809D01*
X94850000Y-73423809D01*
X90254761Y-71563095D02*
X90540476Y-71563095D01*
X90397619Y-70763095D02*
X90397619Y-71563095D01*
X90659523Y-70763095D02*
X90921428Y-71296428D01*
X90659523Y-71296428D02*
X90921428Y-70763095D01*
X90552380Y-69438095D02*
X90385714Y-69819047D01*
X90266666Y-69438095D02*
X90266666Y-70238095D01*
X90457142Y-70238095D01*
X90504761Y-70200000D01*
X90528571Y-70161904D01*
X90552380Y-70085714D01*
X90552380Y-69971428D01*
X90528571Y-69895238D01*
X90504761Y-69857142D01*
X90457142Y-69819047D01*
X90266666Y-69819047D01*
X90719047Y-69438095D02*
X90980952Y-69971428D01*
X90719047Y-69971428D02*
X90980952Y-69438095D01*
X90730952Y-68875000D02*
X90683333Y-68913095D01*
X90611904Y-68913095D01*
X90540476Y-68875000D01*
X90492857Y-68798809D01*
X90469047Y-68722619D01*
X90445238Y-68570238D01*
X90445238Y-68455952D01*
X90469047Y-68303571D01*
X90492857Y-68227380D01*
X90540476Y-68151190D01*
X90611904Y-68113095D01*
X90659523Y-68113095D01*
X90730952Y-68151190D01*
X90754761Y-68189285D01*
X90754761Y-68455952D01*
X90659523Y-68455952D01*
X70233928Y-72071428D02*
X70233928Y-71714285D01*
X70576785Y-71928571D02*
X69548214Y-72071428D01*
X69891071Y-71761904D02*
X69891071Y-72119047D01*
X69548214Y-71904761D02*
X70576785Y-71761904D01*
X69700595Y-71261904D02*
X70081547Y-71428571D01*
X69700595Y-71547619D02*
X70500595Y-71547619D01*
X70500595Y-71357142D01*
X70462500Y-71309523D01*
X70424404Y-71285714D01*
X70348214Y-71261904D01*
X70233928Y-71261904D01*
X70157738Y-71285714D01*
X70119642Y-71309523D01*
X70081547Y-71357142D01*
X70081547Y-71547619D01*
X69738690Y-70857142D02*
X69700595Y-70904761D01*
X69700595Y-71000000D01*
X69738690Y-71047619D01*
X69814880Y-71071428D01*
X70119642Y-71071428D01*
X70195833Y-71047619D01*
X70233928Y-71000000D01*
X70233928Y-70904761D01*
X70195833Y-70857142D01*
X70119642Y-70833333D01*
X70043452Y-70833333D01*
X69967261Y-71071428D01*
X69738690Y-70642857D02*
X69700595Y-70595238D01*
X69700595Y-70500000D01*
X69738690Y-70452380D01*
X69814880Y-70428571D01*
X69852976Y-70428571D01*
X69929166Y-70452380D01*
X69967261Y-70500000D01*
X69967261Y-70571428D01*
X70005357Y-70619047D01*
X70081547Y-70642857D01*
X70119642Y-70642857D01*
X70195833Y-70619047D01*
X70233928Y-70571428D01*
X70233928Y-70500000D01*
X70195833Y-70452380D01*
X68375595Y-71904761D02*
X69175595Y-71904761D01*
X68375595Y-71619047D01*
X69175595Y-71619047D01*
X69213690Y-71023809D02*
X68185119Y-71452380D01*
X68451785Y-70571428D02*
X68413690Y-70595238D01*
X68375595Y-70666666D01*
X68375595Y-70714285D01*
X68413690Y-70785714D01*
X68489880Y-70833333D01*
X68566071Y-70857142D01*
X68718452Y-70880952D01*
X68832738Y-70880952D01*
X68985119Y-70857142D01*
X69061309Y-70833333D01*
X69137500Y-70785714D01*
X69175595Y-70714285D01*
X69175595Y-70666666D01*
X69137500Y-70595238D01*
X69099404Y-70571428D01*
X67088690Y-71940476D02*
X67050595Y-71869047D01*
X67050595Y-71750000D01*
X67088690Y-71702380D01*
X67126785Y-71678571D01*
X67202976Y-71654761D01*
X67279166Y-71654761D01*
X67355357Y-71678571D01*
X67393452Y-71702380D01*
X67431547Y-71750000D01*
X67469642Y-71845238D01*
X67507738Y-71892857D01*
X67545833Y-71916666D01*
X67622023Y-71940476D01*
X67698214Y-71940476D01*
X67774404Y-71916666D01*
X67812500Y-71892857D01*
X67850595Y-71845238D01*
X67850595Y-71726190D01*
X67812500Y-71654761D01*
X67850595Y-71488095D02*
X67050595Y-71369047D01*
X67622023Y-71273809D01*
X67050595Y-71178571D01*
X67850595Y-71059523D01*
X67850595Y-70773809D02*
X67850595Y-70678571D01*
X67812500Y-70630952D01*
X67736309Y-70583333D01*
X67583928Y-70559523D01*
X67317261Y-70559523D01*
X67164880Y-70583333D01*
X67088690Y-70630952D01*
X67050595Y-70678571D01*
X67050595Y-70773809D01*
X67088690Y-70821428D01*
X67164880Y-70869047D01*
X67317261Y-70892857D01*
X67583928Y-70892857D01*
X67736309Y-70869047D01*
X67812500Y-70821428D01*
X67850595Y-70773809D01*
X65763690Y-72119047D02*
X65725595Y-72047619D01*
X65725595Y-71928571D01*
X65763690Y-71880952D01*
X65801785Y-71857142D01*
X65877976Y-71833333D01*
X65954166Y-71833333D01*
X66030357Y-71857142D01*
X66068452Y-71880952D01*
X66106547Y-71928571D01*
X66144642Y-72023809D01*
X66182738Y-72071428D01*
X66220833Y-72095238D01*
X66297023Y-72119047D01*
X66373214Y-72119047D01*
X66449404Y-72095238D01*
X66487500Y-72071428D01*
X66525595Y-72023809D01*
X66525595Y-71904761D01*
X66487500Y-71833333D01*
X66525595Y-71666666D02*
X65725595Y-71547619D01*
X66297023Y-71452380D01*
X65725595Y-71357142D01*
X66525595Y-71238095D01*
X65801785Y-70761904D02*
X65763690Y-70785714D01*
X65725595Y-70857142D01*
X65725595Y-70904761D01*
X65763690Y-70976190D01*
X65839880Y-71023809D01*
X65916071Y-71047619D01*
X66068452Y-71071428D01*
X66182738Y-71071428D01*
X66335119Y-71047619D01*
X66411309Y-71023809D01*
X66487500Y-70976190D01*
X66525595Y-70904761D01*
X66525595Y-70857142D01*
X66487500Y-70785714D01*
X66449404Y-70761904D01*
X64438690Y-72500000D02*
X64400595Y-72428571D01*
X64400595Y-72309523D01*
X64438690Y-72261904D01*
X64476785Y-72238095D01*
X64552976Y-72214285D01*
X64629166Y-72214285D01*
X64705357Y-72238095D01*
X64743452Y-72261904D01*
X64781547Y-72309523D01*
X64819642Y-72404761D01*
X64857738Y-72452380D01*
X64895833Y-72476190D01*
X64972023Y-72500000D01*
X65048214Y-72500000D01*
X65124404Y-72476190D01*
X65162500Y-72452380D01*
X65200595Y-72404761D01*
X65200595Y-72285714D01*
X65162500Y-72214285D01*
X65200595Y-72047619D02*
X64400595Y-71928571D01*
X64972023Y-71833333D01*
X64400595Y-71738095D01*
X65200595Y-71619047D01*
X64400595Y-71428571D02*
X65200595Y-71428571D01*
X65200595Y-71309523D01*
X65162500Y-71238095D01*
X65086309Y-71190476D01*
X65010119Y-71166666D01*
X64857738Y-71142857D01*
X64743452Y-71142857D01*
X64591071Y-71166666D01*
X64514880Y-71190476D01*
X64438690Y-71238095D01*
X64400595Y-71309523D01*
X64400595Y-71428571D01*
X64400595Y-70928571D02*
X65200595Y-70928571D01*
X65200595Y-70595238D02*
X65200595Y-70500000D01*
X65162500Y-70452380D01*
X65086309Y-70404761D01*
X64933928Y-70380952D01*
X64667261Y-70380952D01*
X64514880Y-70404761D01*
X64438690Y-70452380D01*
X64400595Y-70500000D01*
X64400595Y-70595238D01*
X64438690Y-70642857D01*
X64514880Y-70690476D01*
X64667261Y-70714285D01*
X64933928Y-70714285D01*
X65086309Y-70690476D01*
X65162500Y-70642857D01*
X65200595Y-70595238D01*
X63837500Y-71119047D02*
X63875595Y-71166666D01*
X63875595Y-71238095D01*
X63837500Y-71309523D01*
X63761309Y-71357142D01*
X63685119Y-71380952D01*
X63532738Y-71404761D01*
X63418452Y-71404761D01*
X63266071Y-71380952D01*
X63189880Y-71357142D01*
X63113690Y-71309523D01*
X63075595Y-71238095D01*
X63075595Y-71190476D01*
X63113690Y-71119047D01*
X63151785Y-71095238D01*
X63418452Y-71095238D01*
X63418452Y-71190476D01*
X53035714Y-69717261D02*
X52964285Y-69764880D01*
X52845238Y-69764880D01*
X52797619Y-69717261D01*
X52773809Y-69669642D01*
X52750000Y-69574404D01*
X52750000Y-69479166D01*
X52773809Y-69383928D01*
X52797619Y-69336309D01*
X52845238Y-69288690D01*
X52940476Y-69241071D01*
X52988095Y-69193452D01*
X53011904Y-69145833D01*
X53035714Y-69050595D01*
X53035714Y-68955357D01*
X53011904Y-68860119D01*
X52988095Y-68812500D01*
X52940476Y-68764880D01*
X52821428Y-68764880D01*
X52750000Y-68812500D01*
X52535714Y-69764880D02*
X52535714Y-68764880D01*
X52416666Y-68764880D01*
X52345238Y-68812500D01*
X52297619Y-68907738D01*
X52273809Y-69002976D01*
X52250000Y-69193452D01*
X52250000Y-69336309D01*
X52273809Y-69526785D01*
X52297619Y-69622023D01*
X52345238Y-69717261D01*
X52416666Y-69764880D01*
X52535714Y-69764880D01*
X52059523Y-69479166D02*
X51821428Y-69479166D01*
X52107142Y-69764880D02*
X51940476Y-68764880D01*
X51773809Y-69764880D01*
X51250000Y-69717261D02*
X51178571Y-69764880D01*
X51059523Y-69764880D01*
X51011904Y-69717261D01*
X50988095Y-69669642D01*
X50964285Y-69574404D01*
X50964285Y-69479166D01*
X50988095Y-69383928D01*
X51011904Y-69336309D01*
X51059523Y-69288690D01*
X51154761Y-69241071D01*
X51202380Y-69193452D01*
X51226190Y-69145833D01*
X51250000Y-69050595D01*
X51250000Y-68955357D01*
X51226190Y-68860119D01*
X51202380Y-68812500D01*
X51154761Y-68764880D01*
X51035714Y-68764880D01*
X50964285Y-68812500D01*
X50464285Y-69669642D02*
X50488095Y-69717261D01*
X50559523Y-69764880D01*
X50607142Y-69764880D01*
X50678571Y-69717261D01*
X50726190Y-69622023D01*
X50750000Y-69526785D01*
X50773809Y-69336309D01*
X50773809Y-69193452D01*
X50750000Y-69002976D01*
X50726190Y-68907738D01*
X50678571Y-68812500D01*
X50607142Y-68764880D01*
X50559523Y-68764880D01*
X50488095Y-68812500D01*
X50464285Y-68860119D01*
X50011904Y-69764880D02*
X50250000Y-69764880D01*
X50250000Y-68764880D01*
X49511904Y-68764880D02*
X49202380Y-68764880D01*
X49369047Y-69145833D01*
X49297619Y-69145833D01*
X49250000Y-69193452D01*
X49226190Y-69241071D01*
X49202380Y-69336309D01*
X49202380Y-69574404D01*
X49226190Y-69669642D01*
X49250000Y-69717261D01*
X49297619Y-69764880D01*
X49440476Y-69764880D01*
X49488095Y-69717261D01*
X49511904Y-69669642D01*
X49035714Y-69098214D02*
X48916666Y-69764880D01*
X48797619Y-69098214D01*
X48654761Y-68764880D02*
X48345238Y-68764880D01*
X48511904Y-69145833D01*
X48440476Y-69145833D01*
X48392857Y-69193452D01*
X48369047Y-69241071D01*
X48345238Y-69336309D01*
X48345238Y-69574404D01*
X48369047Y-69669642D01*
X48392857Y-69717261D01*
X48440476Y-69764880D01*
X48583333Y-69764880D01*
X48630952Y-69717261D01*
X48654761Y-69669642D01*
X47488095Y-68812500D02*
X47535714Y-68764880D01*
X47607142Y-68764880D01*
X47678571Y-68812500D01*
X47726190Y-68907738D01*
X47750000Y-69002976D01*
X47773809Y-69193452D01*
X47773809Y-69336309D01*
X47750000Y-69526785D01*
X47726190Y-69622023D01*
X47678571Y-69717261D01*
X47607142Y-69764880D01*
X47559523Y-69764880D01*
X47488095Y-69717261D01*
X47464285Y-69669642D01*
X47464285Y-69336309D01*
X47559523Y-69336309D01*
X59676190Y-75100000D02*
X59628571Y-75147619D01*
X59557142Y-75147619D01*
X59485714Y-75100000D01*
X59438095Y-75004761D01*
X59414285Y-74909523D01*
X59390476Y-74719047D01*
X59390476Y-74576190D01*
X59414285Y-74385714D01*
X59438095Y-74290476D01*
X59485714Y-74195238D01*
X59557142Y-74147619D01*
X59604761Y-74147619D01*
X59676190Y-74195238D01*
X59700000Y-74242857D01*
X59700000Y-74576190D01*
X59604761Y-74576190D01*
X60533333Y-75147619D02*
X60295238Y-75147619D01*
X60271428Y-74671428D01*
X60295238Y-74719047D01*
X60342857Y-74766666D01*
X60461904Y-74766666D01*
X60509523Y-74719047D01*
X60533333Y-74671428D01*
X60557142Y-74576190D01*
X60557142Y-74338095D01*
X60533333Y-74242857D01*
X60509523Y-74195238D01*
X60461904Y-74147619D01*
X60342857Y-74147619D01*
X60295238Y-74195238D01*
X60271428Y-74242857D01*
X60700000Y-75147619D02*
X60866666Y-74147619D01*
X61033333Y-75147619D01*
X61580952Y-74147619D02*
X61580952Y-75147619D01*
X61771428Y-75147619D01*
X61819047Y-75100000D01*
X61842857Y-75052380D01*
X61866666Y-74957142D01*
X61866666Y-74814285D01*
X61842857Y-74719047D01*
X61819047Y-74671428D01*
X61771428Y-74623809D01*
X61580952Y-74623809D01*
X62033333Y-75147619D02*
X62152380Y-74147619D01*
X62247619Y-74861904D01*
X62342857Y-74147619D01*
X62461904Y-75147619D01*
X62652380Y-74147619D02*
X62652380Y-75147619D01*
X62819047Y-74433333D01*
X62985714Y-75147619D01*
X62985714Y-74147619D01*
X74178571Y-77297619D02*
X73940476Y-77297619D01*
X73916666Y-76821428D01*
X73940476Y-76869047D01*
X73988095Y-76916666D01*
X74107142Y-76916666D01*
X74154761Y-76869047D01*
X74178571Y-76821428D01*
X74202380Y-76726190D01*
X74202380Y-76488095D01*
X74178571Y-76392857D01*
X74154761Y-76345238D01*
X74107142Y-76297619D01*
X73988095Y-76297619D01*
X73940476Y-76345238D01*
X73916666Y-76392857D01*
X74345238Y-77297619D02*
X74511904Y-76297619D01*
X74678571Y-77297619D01*
X75226190Y-76297619D02*
X75226190Y-77297619D01*
X75226190Y-76821428D02*
X75511904Y-76821428D01*
X75511904Y-76297619D02*
X75511904Y-77297619D01*
X76011904Y-76297619D02*
X75726190Y-76297619D01*
X75869047Y-76297619D02*
X75869047Y-77297619D01*
X75821428Y-77154761D01*
X75773809Y-77059523D01*
X75726190Y-77011904D01*
X76607142Y-76297619D02*
X76607142Y-77297619D01*
X76607142Y-76821428D02*
X76892857Y-76821428D01*
X76892857Y-76297619D02*
X76892857Y-77297619D01*
X77107142Y-77202380D02*
X77130952Y-77250000D01*
X77178571Y-77297619D01*
X77297619Y-77297619D01*
X77345238Y-77250000D01*
X77369047Y-77202380D01*
X77392857Y-77107142D01*
X77392857Y-77011904D01*
X77369047Y-76869047D01*
X77083333Y-76297619D01*
X77392857Y-76297619D01*
X77988095Y-76297619D02*
X77988095Y-77297619D01*
X77988095Y-76821428D02*
X78273809Y-76821428D01*
X78273809Y-76297619D02*
X78273809Y-77297619D01*
X78464285Y-77297619D02*
X78773809Y-77297619D01*
X78607142Y-76916666D01*
X78678571Y-76916666D01*
X78726190Y-76869047D01*
X78750000Y-76821428D01*
X78773809Y-76726190D01*
X78773809Y-76488095D01*
X78750000Y-76392857D01*
X78726190Y-76345238D01*
X78678571Y-76297619D01*
X78535714Y-76297619D01*
X78488095Y-76345238D01*
X78464285Y-76392857D01*
X79369047Y-76297619D02*
X79369047Y-77297619D01*
X79654761Y-76297619D01*
X79654761Y-77297619D01*
X80250000Y-77345238D02*
X79821428Y-76059523D01*
X80702380Y-76392857D02*
X80678571Y-76345238D01*
X80607142Y-76297619D01*
X80559523Y-76297619D01*
X80488095Y-76345238D01*
X80440476Y-76440476D01*
X80416666Y-76535714D01*
X80392857Y-76726190D01*
X80392857Y-76869047D01*
X80416666Y-77059523D01*
X80440476Y-77154761D01*
X80488095Y-77250000D01*
X80559523Y-77297619D01*
X80607142Y-77297619D01*
X80678571Y-77250000D01*
X80702380Y-77202380D01*
X81559523Y-77250000D02*
X81511904Y-77297619D01*
X81440476Y-77297619D01*
X81369047Y-77250000D01*
X81321428Y-77154761D01*
X81297619Y-77059523D01*
X81273809Y-76869047D01*
X81273809Y-76726190D01*
X81297619Y-76535714D01*
X81321428Y-76440476D01*
X81369047Y-76345238D01*
X81440476Y-76297619D01*
X81488095Y-76297619D01*
X81559523Y-76345238D01*
X81583333Y-76392857D01*
X81583333Y-76726190D01*
X81488095Y-76726190D01*
D12*
X58000000Y-28000000D02*
X138000000Y-28000000D01*
X58000000Y-58000000D02*
X58000000Y-28000000D01*
X138000000Y-58000000D02*
X58000000Y-58000000D01*
X138000000Y-28000000D02*
X138000000Y-58000000D01*
X62170000Y-71465000D02*
X62235000Y-71465000D01*
X62170000Y-67935000D02*
X62235000Y-67935000D01*
X55765000Y-71465000D02*
X55830000Y-71465000D01*
X55765000Y-67935000D02*
X55830000Y-67935000D01*
X55830000Y-66610000D02*
X55830000Y-67935000D01*
X62235000Y-67935000D02*
X62235000Y-71465000D01*
X55765000Y-67935000D02*
X55765000Y-71465000D01*
X46300000Y-69750000D02*
X47300000Y-69750000D01*
X46300000Y-69750000D02*
X46300000Y-70750000D01*
X53050000Y-72950000D02*
X50075000Y-72950000D01*
X53050000Y-72100000D02*
X53050000Y-72950000D01*
X53250000Y-72100000D02*
X53050000Y-72100000D01*
X53250000Y-71300000D02*
X53250000Y-72100000D01*
X53050000Y-71300000D02*
X53250000Y-71300000D01*
X53050000Y-70550000D02*
X53050000Y-71300000D01*
X50075000Y-70550000D02*
X53050000Y-70550000D01*
X47100000Y-72950000D02*
X50075000Y-72950000D01*
X47100000Y-72100000D02*
X47100000Y-72950000D01*
X46900000Y-72100000D02*
X47100000Y-72100000D01*
X46900000Y-71300000D02*
X46900000Y-72100000D01*
X47100000Y-71300000D02*
X46900000Y-71300000D01*
X47100000Y-70550000D02*
X47100000Y-71300000D01*
X50075000Y-70550000D02*
X47100000Y-70550000D01*
X53560000Y-73460000D02*
X46590000Y-73460000D01*
X53560000Y-70040000D02*
X53560000Y-73460000D01*
X46590000Y-70040000D02*
X53560000Y-70040000D01*
X46590000Y-73460000D02*
X46590000Y-70040000D01*
X40000000Y-28000000D02*
X54000000Y-28000000D01*
X40000000Y-36000000D02*
X40000000Y-28000000D01*
X54000000Y-36000000D02*
X40000000Y-36000000D01*
X56000000Y-34000000D02*
X54000000Y-36000000D01*
X56000000Y-30000000D02*
X56000000Y-34000000D01*
X54000000Y-28000000D02*
X56000000Y-30000000D01*
X56139491Y-54645000D02*
X56139491Y-56245000D01*
X56939491Y-55445000D02*
X55339491Y-55445000D01*
X40169000Y-59235000D02*
X40169000Y-60765000D01*
X40209000Y-58902000D02*
X40209000Y-61098000D01*
X40249000Y-58649000D02*
X40249000Y-61351000D01*
X40289000Y-58436000D02*
X40289000Y-61564000D01*
X40329000Y-58248000D02*
X40329000Y-61752000D01*
X40369000Y-58080000D02*
X40369000Y-61920000D01*
X40409000Y-57926000D02*
X40409000Y-62074000D01*
X40449000Y-57782000D02*
X40449000Y-62218000D01*
X40489000Y-57649000D02*
X40489000Y-62351000D01*
X40529000Y-57522000D02*
X40529000Y-62478000D01*
X40569000Y-57403000D02*
X40569000Y-62597000D01*
X40609000Y-57289000D02*
X40609000Y-62711000D01*
X40649000Y-57180000D02*
X40649000Y-62820000D01*
X40689000Y-57076000D02*
X40689000Y-62924000D01*
X40729000Y-56976000D02*
X40729000Y-63024000D01*
X40769000Y-56880000D02*
X40769000Y-63120000D01*
X40809000Y-56787000D02*
X40809000Y-63213000D01*
X40849000Y-56697000D02*
X40849000Y-63303000D01*
X40889000Y-56610000D02*
X40889000Y-63390000D01*
X40929000Y-56525000D02*
X40929000Y-63475000D01*
X40969000Y-56443000D02*
X40969000Y-63557000D01*
X41009000Y-56363000D02*
X41009000Y-63637000D01*
X41049000Y-56285000D02*
X41049000Y-63715000D01*
X41089000Y-56210000D02*
X41089000Y-63790000D01*
X41129000Y-56136000D02*
X41129000Y-63864000D01*
X41169000Y-56064000D02*
X41169000Y-63936000D01*
X41209000Y-55993000D02*
X41209000Y-64007000D01*
X41249000Y-55924000D02*
X41249000Y-64076000D01*
X41289000Y-55857000D02*
X41289000Y-64143000D01*
X41329000Y-55791000D02*
X41329000Y-64209000D01*
X41369000Y-55727000D02*
X41369000Y-64273000D01*
X41409000Y-55664000D02*
X41409000Y-64336000D01*
X41449000Y-55602000D02*
X41449000Y-64398000D01*
X41489000Y-55541000D02*
X41489000Y-64459000D01*
X41529000Y-55481000D02*
X41529000Y-64519000D01*
X41569000Y-55423000D02*
X41569000Y-64577000D01*
X41609000Y-55366000D02*
X41609000Y-64634000D01*
X41649000Y-55309000D02*
X41649000Y-64691000D01*
X41689000Y-55254000D02*
X41689000Y-64746000D01*
X41729000Y-55200000D02*
X41729000Y-64800000D01*
X41769000Y-55146000D02*
X41769000Y-64854000D01*
X41809000Y-55094000D02*
X41809000Y-64906000D01*
X41849000Y-55042000D02*
X41849000Y-64958000D01*
X41889000Y-54991000D02*
X41889000Y-65009000D01*
X41929000Y-54941000D02*
X41929000Y-65059000D01*
X41969000Y-54892000D02*
X41969000Y-65108000D01*
X42009000Y-54844000D02*
X42009000Y-65156000D01*
X42049000Y-54796000D02*
X42049000Y-65204000D01*
X42089000Y-54749000D02*
X42089000Y-65251000D01*
X42129000Y-54703000D02*
X42129000Y-65297000D01*
X42169000Y-54657000D02*
X42169000Y-65343000D01*
X42209000Y-54612000D02*
X42209000Y-65388000D01*
X42249000Y-54568000D02*
X42249000Y-65432000D01*
X42289000Y-54525000D02*
X42289000Y-65475000D01*
X42329000Y-54482000D02*
X42329000Y-65518000D01*
X42369000Y-54440000D02*
X42369000Y-65560000D01*
X42409000Y-54398000D02*
X42409000Y-65602000D01*
X42449000Y-54357000D02*
X42449000Y-65643000D01*
X42489000Y-54316000D02*
X42489000Y-65684000D01*
X42529000Y-54276000D02*
X42529000Y-65724000D01*
X42569000Y-54237000D02*
X42569000Y-65763000D01*
X42609000Y-54198000D02*
X42609000Y-65802000D01*
X42649000Y-54160000D02*
X42649000Y-65840000D01*
X42689000Y-54122000D02*
X42689000Y-65878000D01*
X42729000Y-54084000D02*
X42729000Y-65916000D01*
X42769000Y-54048000D02*
X42769000Y-65952000D01*
X42809000Y-54011000D02*
X42809000Y-65989000D01*
X42849000Y-53975000D02*
X42849000Y-66025000D01*
X42889000Y-53940000D02*
X42889000Y-66060000D01*
X42929000Y-53905000D02*
X42929000Y-66095000D01*
X42969000Y-53871000D02*
X42969000Y-66129000D01*
X43009000Y-53837000D02*
X43009000Y-66163000D01*
X43049000Y-53803000D02*
X43049000Y-66197000D01*
X43089000Y-61440000D02*
X43089000Y-66230000D01*
X43089000Y-53770000D02*
X43089000Y-58560000D01*
X43129000Y-61440000D02*
X43129000Y-66263000D01*
X43129000Y-53737000D02*
X43129000Y-58560000D01*
X43169000Y-61440000D02*
X43169000Y-66295000D01*
X43169000Y-53705000D02*
X43169000Y-58560000D01*
X43209000Y-61440000D02*
X43209000Y-66327000D01*
X43209000Y-53673000D02*
X43209000Y-58560000D01*
X43249000Y-61440000D02*
X43249000Y-66358000D01*
X43249000Y-53642000D02*
X43249000Y-58560000D01*
X43289000Y-61440000D02*
X43289000Y-66390000D01*
X43289000Y-53610000D02*
X43289000Y-58560000D01*
X43329000Y-61440000D02*
X43329000Y-66420000D01*
X43329000Y-53580000D02*
X43329000Y-58560000D01*
X43369000Y-61440000D02*
X43369000Y-66450000D01*
X43369000Y-53550000D02*
X43369000Y-58560000D01*
X43409000Y-61440000D02*
X43409000Y-66480000D01*
X43409000Y-53520000D02*
X43409000Y-58560000D01*
X43449000Y-61440000D02*
X43449000Y-66510000D01*
X43449000Y-53490000D02*
X43449000Y-58560000D01*
X43489000Y-61440000D02*
X43489000Y-66539000D01*
X43489000Y-53461000D02*
X43489000Y-58560000D01*
X43529000Y-61440000D02*
X43529000Y-66568000D01*
X43529000Y-53432000D02*
X43529000Y-58560000D01*
X43569000Y-61440000D02*
X43569000Y-66596000D01*
X43569000Y-53404000D02*
X43569000Y-58560000D01*
X43609000Y-61440000D02*
X43609000Y-66624000D01*
X43609000Y-53376000D02*
X43609000Y-58560000D01*
X43649000Y-61440000D02*
X43649000Y-66652000D01*
X43649000Y-53348000D02*
X43649000Y-58560000D01*
X43689000Y-61440000D02*
X43689000Y-66679000D01*
X43689000Y-53321000D02*
X43689000Y-58560000D01*
X43729000Y-61440000D02*
X43729000Y-66706000D01*
X43729000Y-53294000D02*
X43729000Y-58560000D01*
X43769000Y-61440000D02*
X43769000Y-66733000D01*
X43769000Y-53267000D02*
X43769000Y-58560000D01*
X43809000Y-61440000D02*
X43809000Y-66759000D01*
X43809000Y-53241000D02*
X43809000Y-58560000D01*
X43849000Y-61440000D02*
X43849000Y-66785000D01*
X43849000Y-53215000D02*
X43849000Y-58560000D01*
X43889000Y-61440000D02*
X43889000Y-66811000D01*
X43889000Y-53189000D02*
X43889000Y-58560000D01*
X43929000Y-61440000D02*
X43929000Y-66836000D01*
X43929000Y-53164000D02*
X43929000Y-58560000D01*
X43969000Y-61440000D02*
X43969000Y-66861000D01*
X43969000Y-53139000D02*
X43969000Y-58560000D01*
X44009000Y-61440000D02*
X44009000Y-66886000D01*
X44009000Y-53114000D02*
X44009000Y-58560000D01*
X44049000Y-61440000D02*
X44049000Y-66910000D01*
X44049000Y-53090000D02*
X44049000Y-58560000D01*
X44089000Y-61440000D02*
X44089000Y-66934000D01*
X44089000Y-53066000D02*
X44089000Y-58560000D01*
X44129000Y-61440000D02*
X44129000Y-66958000D01*
X44129000Y-53042000D02*
X44129000Y-58560000D01*
X44169000Y-61440000D02*
X44169000Y-66981000D01*
X44169000Y-53019000D02*
X44169000Y-58560000D01*
X44209000Y-61440000D02*
X44209000Y-67004000D01*
X44209000Y-52996000D02*
X44209000Y-58560000D01*
X44249000Y-61440000D02*
X44249000Y-67027000D01*
X44249000Y-52973000D02*
X44249000Y-58560000D01*
X44289000Y-61440000D02*
X44289000Y-67049000D01*
X44289000Y-52951000D02*
X44289000Y-58560000D01*
X44329000Y-61440000D02*
X44329000Y-67072000D01*
X44329000Y-52928000D02*
X44329000Y-58560000D01*
X44369000Y-61440000D02*
X44369000Y-67094000D01*
X44369000Y-52906000D02*
X44369000Y-58560000D01*
X44409000Y-61440000D02*
X44409000Y-67115000D01*
X44409000Y-52885000D02*
X44409000Y-58560000D01*
X44449000Y-61440000D02*
X44449000Y-67136000D01*
X44449000Y-52864000D02*
X44449000Y-58560000D01*
X44489000Y-61440000D02*
X44489000Y-67157000D01*
X44489000Y-52843000D02*
X44489000Y-58560000D01*
X44529000Y-61440000D02*
X44529000Y-67178000D01*
X44529000Y-52822000D02*
X44529000Y-58560000D01*
X44569000Y-61440000D02*
X44569000Y-67199000D01*
X44569000Y-52801000D02*
X44569000Y-58560000D01*
X44609000Y-61440000D02*
X44609000Y-67219000D01*
X44609000Y-52781000D02*
X44609000Y-58560000D01*
X44649000Y-61440000D02*
X44649000Y-67239000D01*
X44649000Y-52761000D02*
X44649000Y-58560000D01*
X44689000Y-61440000D02*
X44689000Y-67258000D01*
X44689000Y-52742000D02*
X44689000Y-58560000D01*
X44729000Y-61440000D02*
X44729000Y-67278000D01*
X44729000Y-52722000D02*
X44729000Y-58560000D01*
X44769000Y-61440000D02*
X44769000Y-67297000D01*
X44769000Y-52703000D02*
X44769000Y-58560000D01*
X44809000Y-61440000D02*
X44809000Y-67316000D01*
X44809000Y-52684000D02*
X44809000Y-58560000D01*
X44849000Y-61440000D02*
X44849000Y-67334000D01*
X44849000Y-52666000D02*
X44849000Y-58560000D01*
X44889000Y-61440000D02*
X44889000Y-67353000D01*
X44889000Y-52647000D02*
X44889000Y-58560000D01*
X44929000Y-61440000D02*
X44929000Y-67371000D01*
X44929000Y-52629000D02*
X44929000Y-58560000D01*
X44969000Y-61440000D02*
X44969000Y-67389000D01*
X44969000Y-52611000D02*
X44969000Y-58560000D01*
X45009000Y-61440000D02*
X45009000Y-67406000D01*
X45009000Y-52594000D02*
X45009000Y-58560000D01*
X45049000Y-61440000D02*
X45049000Y-67423000D01*
X45049000Y-52577000D02*
X45049000Y-58560000D01*
X45089000Y-61440000D02*
X45089000Y-67440000D01*
X45089000Y-52560000D02*
X45089000Y-58560000D01*
X45129000Y-61440000D02*
X45129000Y-67457000D01*
X45129000Y-52543000D02*
X45129000Y-58560000D01*
X45169000Y-61440000D02*
X45169000Y-67474000D01*
X45169000Y-52526000D02*
X45169000Y-58560000D01*
X45209000Y-61440000D02*
X45209000Y-67490000D01*
X45209000Y-52510000D02*
X45209000Y-58560000D01*
X45249000Y-61440000D02*
X45249000Y-67506000D01*
X45249000Y-52494000D02*
X45249000Y-58560000D01*
X45289000Y-61440000D02*
X45289000Y-67522000D01*
X45289000Y-52478000D02*
X45289000Y-58560000D01*
X45329000Y-61440000D02*
X45329000Y-67537000D01*
X45329000Y-52463000D02*
X45329000Y-58560000D01*
X45369000Y-61440000D02*
X45369000Y-67553000D01*
X45369000Y-52447000D02*
X45369000Y-58560000D01*
X45409000Y-61440000D02*
X45409000Y-67568000D01*
X45409000Y-52432000D02*
X45409000Y-58560000D01*
X45449000Y-61440000D02*
X45449000Y-67582000D01*
X45449000Y-52418000D02*
X45449000Y-58560000D01*
X45489000Y-61440000D02*
X45489000Y-67597000D01*
X45489000Y-52403000D02*
X45489000Y-58560000D01*
X45529000Y-61440000D02*
X45529000Y-67611000D01*
X45529000Y-52389000D02*
X45529000Y-58560000D01*
X45569000Y-61440000D02*
X45569000Y-67625000D01*
X45569000Y-52375000D02*
X45569000Y-58560000D01*
X45609000Y-61440000D02*
X45609000Y-67639000D01*
X45609000Y-52361000D02*
X45609000Y-58560000D01*
X45649000Y-61440000D02*
X45649000Y-67653000D01*
X45649000Y-52347000D02*
X45649000Y-58560000D01*
X45689000Y-61440000D02*
X45689000Y-67666000D01*
X45689000Y-52334000D02*
X45689000Y-58560000D01*
X45729000Y-61440000D02*
X45729000Y-67680000D01*
X45729000Y-52320000D02*
X45729000Y-58560000D01*
X45769000Y-61440000D02*
X45769000Y-67693000D01*
X45769000Y-52307000D02*
X45769000Y-58560000D01*
X45809000Y-61440000D02*
X45809000Y-67705000D01*
X45809000Y-52295000D02*
X45809000Y-58560000D01*
X45849000Y-61440000D02*
X45849000Y-67718000D01*
X45849000Y-52282000D02*
X45849000Y-58560000D01*
X45889000Y-61440000D02*
X45889000Y-67730000D01*
X45889000Y-52270000D02*
X45889000Y-58560000D01*
X45929000Y-61440000D02*
X45929000Y-67742000D01*
X45929000Y-52258000D02*
X45929000Y-58560000D01*
X45969000Y-52246000D02*
X45969000Y-67754000D01*
X46009000Y-52235000D02*
X46009000Y-67765000D01*
X46049000Y-52223000D02*
X46049000Y-67777000D01*
X46089000Y-52212000D02*
X46089000Y-67788000D01*
X46129000Y-52201000D02*
X46129000Y-67799000D01*
X46169000Y-52190000D02*
X46169000Y-67810000D01*
X46209000Y-52180000D02*
X46209000Y-67820000D01*
X46249000Y-52170000D02*
X46249000Y-67830000D01*
X46289000Y-52160000D02*
X46289000Y-67840000D01*
X46329000Y-52150000D02*
X46329000Y-67850000D01*
X46369000Y-52140000D02*
X46369000Y-67860000D01*
X46409000Y-52131000D02*
X46409000Y-67869000D01*
X46449000Y-52122000D02*
X46449000Y-67878000D01*
X46489000Y-52113000D02*
X46489000Y-67887000D01*
X46529000Y-52104000D02*
X46529000Y-67896000D01*
X46569000Y-52095000D02*
X46569000Y-67905000D01*
X46609000Y-52087000D02*
X46609000Y-67913000D01*
X46649000Y-52079000D02*
X46649000Y-67921000D01*
X46689000Y-52071000D02*
X46689000Y-67929000D01*
X46729000Y-52063000D02*
X46729000Y-67937000D01*
X46769000Y-52056000D02*
X46769000Y-67944000D01*
X46809000Y-52048000D02*
X46809000Y-67952000D01*
X46849000Y-52041000D02*
X46849000Y-67959000D01*
X46889000Y-52034000D02*
X46889000Y-67966000D01*
X46929000Y-52028000D02*
X46929000Y-67972000D01*
X46969000Y-52021000D02*
X46969000Y-67979000D01*
X47009000Y-52015000D02*
X47009000Y-67985000D01*
X47049000Y-52009000D02*
X47049000Y-67991000D01*
X47089000Y-52003000D02*
X47089000Y-67997000D01*
X47129000Y-51997000D02*
X47129000Y-68003000D01*
X47169000Y-51992000D02*
X47169000Y-68008000D01*
X47209000Y-51986000D02*
X47209000Y-68014000D01*
X47249000Y-51981000D02*
X47249000Y-68019000D01*
X47289000Y-51976000D02*
X47289000Y-68024000D01*
X47329000Y-51972000D02*
X47329000Y-68028000D01*
X47369000Y-51967000D02*
X47369000Y-68033000D01*
X47409000Y-51963000D02*
X47409000Y-68037000D01*
X47449000Y-51959000D02*
X47449000Y-68041000D01*
X47489000Y-51955000D02*
X47489000Y-68045000D01*
X47529000Y-51951000D02*
X47529000Y-68049000D01*
X47570000Y-51948000D02*
X47570000Y-68052000D01*
X47610000Y-51945000D02*
X47610000Y-68055000D01*
X47650000Y-51942000D02*
X47650000Y-68058000D01*
X47690000Y-51939000D02*
X47690000Y-68061000D01*
X47730000Y-51936000D02*
X47730000Y-68064000D01*
X47770000Y-51934000D02*
X47770000Y-68066000D01*
X47810000Y-51931000D02*
X47810000Y-68069000D01*
X47850000Y-51929000D02*
X47850000Y-68071000D01*
X47890000Y-51927000D02*
X47890000Y-68073000D01*
X47930000Y-51926000D02*
X47930000Y-68074000D01*
X47970000Y-51924000D02*
X47970000Y-68076000D01*
X48010000Y-51923000D02*
X48010000Y-68077000D01*
X48050000Y-51922000D02*
X48050000Y-68078000D01*
X48090000Y-51921000D02*
X48090000Y-68079000D01*
X48130000Y-51920000D02*
X48130000Y-68080000D01*
X48170000Y-51920000D02*
X48170000Y-68080000D01*
X48210000Y-51920000D02*
X48210000Y-68080000D01*
X48250000Y-51919000D02*
X48250000Y-68081000D01*
X56370000Y-60000000D02*
G75*
G03X56370000Y-60000000I-8120000J0D01*
G01*
X56139491Y-38645000D02*
X56139491Y-40245000D01*
X56939491Y-39445000D02*
X55339491Y-39445000D01*
X40169000Y-43235000D02*
X40169000Y-44765000D01*
X40209000Y-42902000D02*
X40209000Y-45098000D01*
X40249000Y-42649000D02*
X40249000Y-45351000D01*
X40289000Y-42436000D02*
X40289000Y-45564000D01*
X40329000Y-42248000D02*
X40329000Y-45752000D01*
X40369000Y-42080000D02*
X40369000Y-45920000D01*
X40409000Y-41926000D02*
X40409000Y-46074000D01*
X40449000Y-41782000D02*
X40449000Y-46218000D01*
X40489000Y-41649000D02*
X40489000Y-46351000D01*
X40529000Y-41522000D02*
X40529000Y-46478000D01*
X40569000Y-41403000D02*
X40569000Y-46597000D01*
X40609000Y-41289000D02*
X40609000Y-46711000D01*
X40649000Y-41180000D02*
X40649000Y-46820000D01*
X40689000Y-41076000D02*
X40689000Y-46924000D01*
X40729000Y-40976000D02*
X40729000Y-47024000D01*
X40769000Y-40880000D02*
X40769000Y-47120000D01*
X40809000Y-40787000D02*
X40809000Y-47213000D01*
X40849000Y-40697000D02*
X40849000Y-47303000D01*
X40889000Y-40610000D02*
X40889000Y-47390000D01*
X40929000Y-40525000D02*
X40929000Y-47475000D01*
X40969000Y-40443000D02*
X40969000Y-47557000D01*
X41009000Y-40363000D02*
X41009000Y-47637000D01*
X41049000Y-40285000D02*
X41049000Y-47715000D01*
X41089000Y-40210000D02*
X41089000Y-47790000D01*
X41129000Y-40136000D02*
X41129000Y-47864000D01*
X41169000Y-40064000D02*
X41169000Y-47936000D01*
X41209000Y-39993000D02*
X41209000Y-48007000D01*
X41249000Y-39924000D02*
X41249000Y-48076000D01*
X41289000Y-39857000D02*
X41289000Y-48143000D01*
X41329000Y-39791000D02*
X41329000Y-48209000D01*
X41369000Y-39727000D02*
X41369000Y-48273000D01*
X41409000Y-39664000D02*
X41409000Y-48336000D01*
X41449000Y-39602000D02*
X41449000Y-48398000D01*
X41489000Y-39541000D02*
X41489000Y-48459000D01*
X41529000Y-39481000D02*
X41529000Y-48519000D01*
X41569000Y-39423000D02*
X41569000Y-48577000D01*
X41609000Y-39366000D02*
X41609000Y-48634000D01*
X41649000Y-39309000D02*
X41649000Y-48691000D01*
X41689000Y-39254000D02*
X41689000Y-48746000D01*
X41729000Y-39200000D02*
X41729000Y-48800000D01*
X41769000Y-39146000D02*
X41769000Y-48854000D01*
X41809000Y-39094000D02*
X41809000Y-48906000D01*
X41849000Y-39042000D02*
X41849000Y-48958000D01*
X41889000Y-38991000D02*
X41889000Y-49009000D01*
X41929000Y-38941000D02*
X41929000Y-49059000D01*
X41969000Y-38892000D02*
X41969000Y-49108000D01*
X42009000Y-38844000D02*
X42009000Y-49156000D01*
X42049000Y-38796000D02*
X42049000Y-49204000D01*
X42089000Y-38749000D02*
X42089000Y-49251000D01*
X42129000Y-38703000D02*
X42129000Y-49297000D01*
X42169000Y-38657000D02*
X42169000Y-49343000D01*
X42209000Y-38612000D02*
X42209000Y-49388000D01*
X42249000Y-38568000D02*
X42249000Y-49432000D01*
X42289000Y-38525000D02*
X42289000Y-49475000D01*
X42329000Y-38482000D02*
X42329000Y-49518000D01*
X42369000Y-38440000D02*
X42369000Y-49560000D01*
X42409000Y-38398000D02*
X42409000Y-49602000D01*
X42449000Y-38357000D02*
X42449000Y-49643000D01*
X42489000Y-38316000D02*
X42489000Y-49684000D01*
X42529000Y-38276000D02*
X42529000Y-49724000D01*
X42569000Y-38237000D02*
X42569000Y-49763000D01*
X42609000Y-38198000D02*
X42609000Y-49802000D01*
X42649000Y-38160000D02*
X42649000Y-49840000D01*
X42689000Y-38122000D02*
X42689000Y-49878000D01*
X42729000Y-38084000D02*
X42729000Y-49916000D01*
X42769000Y-38048000D02*
X42769000Y-49952000D01*
X42809000Y-38011000D02*
X42809000Y-49989000D01*
X42849000Y-37975000D02*
X42849000Y-50025000D01*
X42889000Y-37940000D02*
X42889000Y-50060000D01*
X42929000Y-37905000D02*
X42929000Y-50095000D01*
X42969000Y-37871000D02*
X42969000Y-50129000D01*
X43009000Y-37837000D02*
X43009000Y-50163000D01*
X43049000Y-37803000D02*
X43049000Y-50197000D01*
X43089000Y-45440000D02*
X43089000Y-50230000D01*
X43089000Y-37770000D02*
X43089000Y-42560000D01*
X43129000Y-45440000D02*
X43129000Y-50263000D01*
X43129000Y-37737000D02*
X43129000Y-42560000D01*
X43169000Y-45440000D02*
X43169000Y-50295000D01*
X43169000Y-37705000D02*
X43169000Y-42560000D01*
X43209000Y-45440000D02*
X43209000Y-50327000D01*
X43209000Y-37673000D02*
X43209000Y-42560000D01*
X43249000Y-45440000D02*
X43249000Y-50358000D01*
X43249000Y-37642000D02*
X43249000Y-42560000D01*
X43289000Y-45440000D02*
X43289000Y-50390000D01*
X43289000Y-37610000D02*
X43289000Y-42560000D01*
X43329000Y-45440000D02*
X43329000Y-50420000D01*
X43329000Y-37580000D02*
X43329000Y-42560000D01*
X43369000Y-45440000D02*
X43369000Y-50450000D01*
X43369000Y-37550000D02*
X43369000Y-42560000D01*
X43409000Y-45440000D02*
X43409000Y-50480000D01*
X43409000Y-37520000D02*
X43409000Y-42560000D01*
X43449000Y-45440000D02*
X43449000Y-50510000D01*
X43449000Y-37490000D02*
X43449000Y-42560000D01*
X43489000Y-45440000D02*
X43489000Y-50539000D01*
X43489000Y-37461000D02*
X43489000Y-42560000D01*
X43529000Y-45440000D02*
X43529000Y-50568000D01*
X43529000Y-37432000D02*
X43529000Y-42560000D01*
X43569000Y-45440000D02*
X43569000Y-50596000D01*
X43569000Y-37404000D02*
X43569000Y-42560000D01*
X43609000Y-45440000D02*
X43609000Y-50624000D01*
X43609000Y-37376000D02*
X43609000Y-42560000D01*
X43649000Y-45440000D02*
X43649000Y-50652000D01*
X43649000Y-37348000D02*
X43649000Y-42560000D01*
X43689000Y-45440000D02*
X43689000Y-50679000D01*
X43689000Y-37321000D02*
X43689000Y-42560000D01*
X43729000Y-45440000D02*
X43729000Y-50706000D01*
X43729000Y-37294000D02*
X43729000Y-42560000D01*
X43769000Y-45440000D02*
X43769000Y-50733000D01*
X43769000Y-37267000D02*
X43769000Y-42560000D01*
X43809000Y-45440000D02*
X43809000Y-50759000D01*
X43809000Y-37241000D02*
X43809000Y-42560000D01*
X43849000Y-45440000D02*
X43849000Y-50785000D01*
X43849000Y-37215000D02*
X43849000Y-42560000D01*
X43889000Y-45440000D02*
X43889000Y-50811000D01*
X43889000Y-37189000D02*
X43889000Y-42560000D01*
X43929000Y-45440000D02*
X43929000Y-50836000D01*
X43929000Y-37164000D02*
X43929000Y-42560000D01*
X43969000Y-45440000D02*
X43969000Y-50861000D01*
X43969000Y-37139000D02*
X43969000Y-42560000D01*
X44009000Y-45440000D02*
X44009000Y-50886000D01*
X44009000Y-37114000D02*
X44009000Y-42560000D01*
X44049000Y-45440000D02*
X44049000Y-50910000D01*
X44049000Y-37090000D02*
X44049000Y-42560000D01*
X44089000Y-45440000D02*
X44089000Y-50934000D01*
X44089000Y-37066000D02*
X44089000Y-42560000D01*
X44129000Y-45440000D02*
X44129000Y-50958000D01*
X44129000Y-37042000D02*
X44129000Y-42560000D01*
X44169000Y-45440000D02*
X44169000Y-50981000D01*
X44169000Y-37019000D02*
X44169000Y-42560000D01*
X44209000Y-45440000D02*
X44209000Y-51004000D01*
X44209000Y-36996000D02*
X44209000Y-42560000D01*
X44249000Y-45440000D02*
X44249000Y-51027000D01*
X44249000Y-36973000D02*
X44249000Y-42560000D01*
X44289000Y-45440000D02*
X44289000Y-51049000D01*
X44289000Y-36951000D02*
X44289000Y-42560000D01*
X44329000Y-45440000D02*
X44329000Y-51072000D01*
X44329000Y-36928000D02*
X44329000Y-42560000D01*
X44369000Y-45440000D02*
X44369000Y-51094000D01*
X44369000Y-36906000D02*
X44369000Y-42560000D01*
X44409000Y-45440000D02*
X44409000Y-51115000D01*
X44409000Y-36885000D02*
X44409000Y-42560000D01*
X44449000Y-45440000D02*
X44449000Y-51136000D01*
X44449000Y-36864000D02*
X44449000Y-42560000D01*
X44489000Y-45440000D02*
X44489000Y-51157000D01*
X44489000Y-36843000D02*
X44489000Y-42560000D01*
X44529000Y-45440000D02*
X44529000Y-51178000D01*
X44529000Y-36822000D02*
X44529000Y-42560000D01*
X44569000Y-45440000D02*
X44569000Y-51199000D01*
X44569000Y-36801000D02*
X44569000Y-42560000D01*
X44609000Y-45440000D02*
X44609000Y-51219000D01*
X44609000Y-36781000D02*
X44609000Y-42560000D01*
X44649000Y-45440000D02*
X44649000Y-51239000D01*
X44649000Y-36761000D02*
X44649000Y-42560000D01*
X44689000Y-45440000D02*
X44689000Y-51258000D01*
X44689000Y-36742000D02*
X44689000Y-42560000D01*
X44729000Y-45440000D02*
X44729000Y-51278000D01*
X44729000Y-36722000D02*
X44729000Y-42560000D01*
X44769000Y-45440000D02*
X44769000Y-51297000D01*
X44769000Y-36703000D02*
X44769000Y-42560000D01*
X44809000Y-45440000D02*
X44809000Y-51316000D01*
X44809000Y-36684000D02*
X44809000Y-42560000D01*
X44849000Y-45440000D02*
X44849000Y-51334000D01*
X44849000Y-36666000D02*
X44849000Y-42560000D01*
X44889000Y-45440000D02*
X44889000Y-51353000D01*
X44889000Y-36647000D02*
X44889000Y-42560000D01*
X44929000Y-45440000D02*
X44929000Y-51371000D01*
X44929000Y-36629000D02*
X44929000Y-42560000D01*
X44969000Y-45440000D02*
X44969000Y-51389000D01*
X44969000Y-36611000D02*
X44969000Y-42560000D01*
X45009000Y-45440000D02*
X45009000Y-51406000D01*
X45009000Y-36594000D02*
X45009000Y-42560000D01*
X45049000Y-45440000D02*
X45049000Y-51423000D01*
X45049000Y-36577000D02*
X45049000Y-42560000D01*
X45089000Y-45440000D02*
X45089000Y-51440000D01*
X45089000Y-36560000D02*
X45089000Y-42560000D01*
X45129000Y-45440000D02*
X45129000Y-51457000D01*
X45129000Y-36543000D02*
X45129000Y-42560000D01*
X45169000Y-45440000D02*
X45169000Y-51474000D01*
X45169000Y-36526000D02*
X45169000Y-42560000D01*
X45209000Y-45440000D02*
X45209000Y-51490000D01*
X45209000Y-36510000D02*
X45209000Y-42560000D01*
X45249000Y-45440000D02*
X45249000Y-51506000D01*
X45249000Y-36494000D02*
X45249000Y-42560000D01*
X45289000Y-45440000D02*
X45289000Y-51522000D01*
X45289000Y-36478000D02*
X45289000Y-42560000D01*
X45329000Y-45440000D02*
X45329000Y-51537000D01*
X45329000Y-36463000D02*
X45329000Y-42560000D01*
X45369000Y-45440000D02*
X45369000Y-51553000D01*
X45369000Y-36447000D02*
X45369000Y-42560000D01*
X45409000Y-45440000D02*
X45409000Y-51568000D01*
X45409000Y-36432000D02*
X45409000Y-42560000D01*
X45449000Y-45440000D02*
X45449000Y-51582000D01*
X45449000Y-36418000D02*
X45449000Y-42560000D01*
X45489000Y-45440000D02*
X45489000Y-51597000D01*
X45489000Y-36403000D02*
X45489000Y-42560000D01*
X45529000Y-45440000D02*
X45529000Y-51611000D01*
X45529000Y-36389000D02*
X45529000Y-42560000D01*
X45569000Y-45440000D02*
X45569000Y-51625000D01*
X45569000Y-36375000D02*
X45569000Y-42560000D01*
X45609000Y-45440000D02*
X45609000Y-51639000D01*
X45609000Y-36361000D02*
X45609000Y-42560000D01*
X45649000Y-45440000D02*
X45649000Y-51653000D01*
X45649000Y-36347000D02*
X45649000Y-42560000D01*
X45689000Y-45440000D02*
X45689000Y-51666000D01*
X45689000Y-36334000D02*
X45689000Y-42560000D01*
X45729000Y-45440000D02*
X45729000Y-51680000D01*
X45729000Y-36320000D02*
X45729000Y-42560000D01*
X45769000Y-45440000D02*
X45769000Y-51693000D01*
X45769000Y-36307000D02*
X45769000Y-42560000D01*
X45809000Y-45440000D02*
X45809000Y-51705000D01*
X45809000Y-36295000D02*
X45809000Y-42560000D01*
X45849000Y-45440000D02*
X45849000Y-51718000D01*
X45849000Y-36282000D02*
X45849000Y-42560000D01*
X45889000Y-45440000D02*
X45889000Y-51730000D01*
X45889000Y-36270000D02*
X45889000Y-42560000D01*
X45929000Y-45440000D02*
X45929000Y-51742000D01*
X45929000Y-36258000D02*
X45929000Y-42560000D01*
X45969000Y-36246000D02*
X45969000Y-51754000D01*
X46009000Y-36235000D02*
X46009000Y-51765000D01*
X46049000Y-36223000D02*
X46049000Y-51777000D01*
X46089000Y-36212000D02*
X46089000Y-51788000D01*
X46129000Y-36201000D02*
X46129000Y-51799000D01*
X46169000Y-36190000D02*
X46169000Y-51810000D01*
X46209000Y-36180000D02*
X46209000Y-51820000D01*
X46249000Y-36170000D02*
X46249000Y-51830000D01*
X46289000Y-36160000D02*
X46289000Y-51840000D01*
X46329000Y-36150000D02*
X46329000Y-51850000D01*
X46369000Y-36140000D02*
X46369000Y-51860000D01*
X46409000Y-36131000D02*
X46409000Y-51869000D01*
X46449000Y-36122000D02*
X46449000Y-51878000D01*
X46489000Y-36113000D02*
X46489000Y-51887000D01*
X46529000Y-36104000D02*
X46529000Y-51896000D01*
X46569000Y-36095000D02*
X46569000Y-51905000D01*
X46609000Y-36087000D02*
X46609000Y-51913000D01*
X46649000Y-36079000D02*
X46649000Y-51921000D01*
X46689000Y-36071000D02*
X46689000Y-51929000D01*
X46729000Y-36063000D02*
X46729000Y-51937000D01*
X46769000Y-36056000D02*
X46769000Y-51944000D01*
X46809000Y-36048000D02*
X46809000Y-51952000D01*
X46849000Y-36041000D02*
X46849000Y-51959000D01*
X46889000Y-36034000D02*
X46889000Y-51966000D01*
X46929000Y-36028000D02*
X46929000Y-51972000D01*
X46969000Y-36021000D02*
X46969000Y-51979000D01*
X47009000Y-36015000D02*
X47009000Y-51985000D01*
X47049000Y-36009000D02*
X47049000Y-51991000D01*
X47089000Y-36003000D02*
X47089000Y-51997000D01*
X47129000Y-35997000D02*
X47129000Y-52003000D01*
X47169000Y-35992000D02*
X47169000Y-52008000D01*
X47209000Y-35986000D02*
X47209000Y-52014000D01*
X47249000Y-35981000D02*
X47249000Y-52019000D01*
X47289000Y-35976000D02*
X47289000Y-52024000D01*
X47329000Y-35972000D02*
X47329000Y-52028000D01*
X47369000Y-35967000D02*
X47369000Y-52033000D01*
X47409000Y-35963000D02*
X47409000Y-52037000D01*
X47449000Y-35959000D02*
X47449000Y-52041000D01*
X47489000Y-35955000D02*
X47489000Y-52045000D01*
X47529000Y-35951000D02*
X47529000Y-52049000D01*
X47570000Y-35948000D02*
X47570000Y-52052000D01*
X47610000Y-35945000D02*
X47610000Y-52055000D01*
X47650000Y-35942000D02*
X47650000Y-52058000D01*
X47690000Y-35939000D02*
X47690000Y-52061000D01*
X47730000Y-35936000D02*
X47730000Y-52064000D01*
X47770000Y-35934000D02*
X47770000Y-52066000D01*
X47810000Y-35931000D02*
X47810000Y-52069000D01*
X47850000Y-35929000D02*
X47850000Y-52071000D01*
X47890000Y-35927000D02*
X47890000Y-52073000D01*
X47930000Y-35926000D02*
X47930000Y-52074000D01*
X47970000Y-35924000D02*
X47970000Y-52076000D01*
X48010000Y-35923000D02*
X48010000Y-52077000D01*
X48050000Y-35922000D02*
X48050000Y-52078000D01*
X48090000Y-35921000D02*
X48090000Y-52079000D01*
X48130000Y-35920000D02*
X48130000Y-52080000D01*
X48170000Y-35920000D02*
X48170000Y-52080000D01*
X48210000Y-35920000D02*
X48210000Y-52080000D01*
X48250000Y-35919000D02*
X48250000Y-52081000D01*
X56370000Y-44000000D02*
G75*
G03X56370000Y-44000000I-8120000J0D01*
G01*
X58860000Y-72990000D02*
X58860000Y-74240000D01*
X57610000Y-72990000D02*
X58860000Y-72990000D01*
X53500000Y-77400000D02*
X53500000Y-76900000D01*
X53400000Y-76900000D02*
X53400000Y-77400000D01*
X53600000Y-76900000D02*
X53400000Y-76900000D01*
X53600000Y-77400000D02*
X53600000Y-76900000D01*
X55500000Y-77400000D02*
X55500000Y-76900000D01*
X55400000Y-76900000D02*
X55400000Y-77400000D01*
X55600000Y-76900000D02*
X55400000Y-76900000D01*
X55600000Y-77400000D02*
X55600000Y-76900000D01*
X50440000Y-75900000D02*
X51050000Y-75900000D01*
X50440000Y-74600000D02*
X51050000Y-74600000D01*
X58560000Y-75900000D02*
X57950000Y-75900000D01*
X58560000Y-74600000D02*
X57950000Y-74600000D01*
X53000000Y-73900000D02*
X53000000Y-73290000D01*
X51050000Y-73900000D02*
X53000000Y-73900000D01*
X51050000Y-77400000D02*
X51050000Y-73900000D01*
X57950000Y-77400000D02*
X51050000Y-77400000D01*
X57950000Y-73900000D02*
X57950000Y-77400000D01*
X56000000Y-73900000D02*
X57950000Y-73900000D01*
X56000000Y-73290000D02*
X56000000Y-73900000D01*
X56800000Y-73190000D02*
X57100000Y-73190000D01*
X57100000Y-73090000D02*
X57100000Y-73290000D01*
X56800000Y-73090000D02*
X57100000Y-73090000D01*
X56800000Y-73290000D02*
X56800000Y-73090000D01*
X50440000Y-73290000D02*
X58560000Y-73290000D01*
X50440000Y-78010000D02*
X50440000Y-73290000D01*
X58560000Y-78010000D02*
X50440000Y-78010000D01*
X58560000Y-73290000D02*
X58560000Y-78010000D01*
X53350000Y-69750000D02*
X54350000Y-69750000D01*
X53350000Y-69750000D02*
X53350000Y-70750000D01*
X62600000Y-72950000D02*
X58375000Y-72950000D01*
X62600000Y-72100000D02*
X62600000Y-72950000D01*
X62800000Y-72100000D02*
X62600000Y-72100000D01*
X62800000Y-71300000D02*
X62800000Y-72100000D01*
X62600000Y-71300000D02*
X62800000Y-71300000D01*
X62600000Y-70550000D02*
X62600000Y-71300000D01*
X58375000Y-70550000D02*
X62600000Y-70550000D01*
X54150000Y-72950000D02*
X58375000Y-72950000D01*
X54150000Y-72100000D02*
X54150000Y-72950000D01*
X53950000Y-72100000D02*
X54150000Y-72100000D01*
X53950000Y-71300000D02*
X53950000Y-72100000D01*
X54150000Y-71300000D02*
X53950000Y-71300000D01*
X54150000Y-70550000D02*
X54150000Y-71300000D01*
X58375000Y-70550000D02*
X54150000Y-70550000D01*
X63110000Y-73460000D02*
X53640000Y-73460000D01*
X63110000Y-70040000D02*
X63110000Y-73460000D01*
X53640000Y-70040000D02*
X63110000Y-70040000D01*
X53640000Y-73460000D02*
X53640000Y-70040000D01*
X90650000Y-73100000D02*
X90650000Y-72100000D01*
X90650000Y-73100000D02*
X91650000Y-73100000D01*
X93850000Y-67600000D02*
X93850000Y-69950000D01*
X93000000Y-67600000D02*
X93850000Y-67600000D01*
X93000000Y-67400000D02*
X93000000Y-67600000D01*
X92200000Y-67400000D02*
X93000000Y-67400000D01*
X92200000Y-67600000D02*
X92200000Y-67400000D01*
X91450000Y-67600000D02*
X92200000Y-67600000D01*
X91450000Y-69950000D02*
X91450000Y-67600000D01*
X93850000Y-72300000D02*
X93850000Y-69950000D01*
X93000000Y-72300000D02*
X93850000Y-72300000D01*
X93000000Y-72500000D02*
X93000000Y-72300000D01*
X92200000Y-72500000D02*
X93000000Y-72500000D01*
X92200000Y-72300000D02*
X92200000Y-72500000D01*
X91450000Y-72300000D02*
X92200000Y-72300000D01*
X91450000Y-69950000D02*
X91450000Y-72300000D01*
X94360000Y-67090000D02*
X94360000Y-72810000D01*
X90940000Y-67090000D02*
X94360000Y-67090000D01*
X90940000Y-72810000D02*
X90940000Y-67090000D01*
X94360000Y-72810000D02*
X90940000Y-72810000D01*
X72860000Y-72990000D02*
X72860000Y-74240000D01*
X71610000Y-72990000D02*
X72860000Y-72990000D01*
X61500000Y-77400000D02*
X61500000Y-76900000D01*
X61400000Y-76900000D02*
X61400000Y-77400000D01*
X61600000Y-76900000D02*
X61400000Y-76900000D01*
X61600000Y-77400000D02*
X61600000Y-76900000D01*
X63500000Y-77400000D02*
X63500000Y-76900000D01*
X63400000Y-76900000D02*
X63400000Y-77400000D01*
X63600000Y-76900000D02*
X63400000Y-76900000D01*
X63600000Y-77400000D02*
X63600000Y-76900000D01*
X65500000Y-77400000D02*
X65500000Y-76900000D01*
X65400000Y-76900000D02*
X65400000Y-77400000D01*
X65600000Y-76900000D02*
X65400000Y-76900000D01*
X65600000Y-77400000D02*
X65600000Y-76900000D01*
X67500000Y-77400000D02*
X67500000Y-76900000D01*
X67400000Y-76900000D02*
X67400000Y-77400000D01*
X67600000Y-76900000D02*
X67400000Y-76900000D01*
X67600000Y-77400000D02*
X67600000Y-76900000D01*
X69500000Y-77400000D02*
X69500000Y-76900000D01*
X69400000Y-76900000D02*
X69400000Y-77400000D01*
X69600000Y-76900000D02*
X69400000Y-76900000D01*
X69600000Y-77400000D02*
X69600000Y-76900000D01*
X58440000Y-75900000D02*
X59050000Y-75900000D01*
X58440000Y-74600000D02*
X59050000Y-74600000D01*
X72560000Y-75900000D02*
X71950000Y-75900000D01*
X72560000Y-74600000D02*
X71950000Y-74600000D01*
X61000000Y-73900000D02*
X61000000Y-73290000D01*
X59050000Y-73900000D02*
X61000000Y-73900000D01*
X59050000Y-77400000D02*
X59050000Y-73900000D01*
X71950000Y-77400000D02*
X59050000Y-77400000D01*
X71950000Y-73900000D02*
X71950000Y-77400000D01*
X70000000Y-73900000D02*
X71950000Y-73900000D01*
X70000000Y-73290000D02*
X70000000Y-73900000D01*
X70800000Y-73190000D02*
X71100000Y-73190000D01*
X71100000Y-73090000D02*
X71100000Y-73290000D01*
X70800000Y-73090000D02*
X71100000Y-73090000D01*
X70800000Y-73290000D02*
X70800000Y-73090000D01*
X58440000Y-73290000D02*
X72560000Y-73290000D01*
X58440000Y-78010000D02*
X58440000Y-73290000D01*
X72560000Y-78010000D02*
X58440000Y-78010000D01*
X72560000Y-73290000D02*
X72560000Y-78010000D01*
X57200000Y-65211904D02*
X57200000Y-65783333D01*
X57228571Y-65897619D01*
X57285714Y-65973809D01*
X57371428Y-66011904D01*
X57428571Y-66011904D01*
X56828571Y-65554761D02*
X56885714Y-65516666D01*
X56914285Y-65478571D01*
X56942857Y-65402380D01*
X56942857Y-65364285D01*
X56914285Y-65288095D01*
X56885714Y-65250000D01*
X56828571Y-65211904D01*
X56714285Y-65211904D01*
X56657142Y-65250000D01*
X56628571Y-65288095D01*
X56600000Y-65364285D01*
X56600000Y-65402380D01*
X56628571Y-65478571D01*
X56657142Y-65516666D01*
X56714285Y-65554761D01*
X56828571Y-65554761D01*
X56885714Y-65592857D01*
X56914285Y-65630952D01*
X56942857Y-65707142D01*
X56942857Y-65859523D01*
X56914285Y-65935714D01*
X56885714Y-65973809D01*
X56828571Y-66011904D01*
X56714285Y-66011904D01*
X56657142Y-65973809D01*
X56628571Y-65935714D01*
X56600000Y-65859523D01*
X56600000Y-65707142D01*
X56628571Y-65630952D01*
X56657142Y-65592857D01*
X56714285Y-65554761D01*
X48285714Y-73811904D02*
X48285714Y-74383333D01*
X48314285Y-74497619D01*
X48371428Y-74573809D01*
X48457142Y-74611904D01*
X48514285Y-74611904D01*
X47685714Y-74611904D02*
X48028571Y-74611904D01*
X47857142Y-74611904D02*
X47857142Y-73811904D01*
X47914285Y-73926190D01*
X47971428Y-74002380D01*
X48028571Y-74040476D01*
X47114285Y-74611904D02*
X47457142Y-74611904D01*
X47285714Y-74611904D02*
X47285714Y-73811904D01*
X47342857Y-73926190D01*
X47400000Y-74002380D01*
X47457142Y-74040476D01*
X57485714Y-31361904D02*
X57485714Y-31933333D01*
X57514285Y-32047619D01*
X57571428Y-32123809D01*
X57657142Y-32161904D01*
X57714285Y-32161904D01*
X56885714Y-32161904D02*
X57228571Y-32161904D01*
X57057142Y-32161904D02*
X57057142Y-31361904D01*
X57114285Y-31476190D01*
X57171428Y-31552380D01*
X57228571Y-31590476D01*
X56514285Y-31361904D02*
X56457142Y-31361904D01*
X56400000Y-31400000D01*
X56371428Y-31438095D01*
X56342857Y-31514285D01*
X56314285Y-31666666D01*
X56314285Y-31857142D01*
X56342857Y-32009523D01*
X56371428Y-32085714D01*
X56400000Y-32123809D01*
X56457142Y-32161904D01*
X56514285Y-32161904D01*
X56571428Y-32123809D01*
X56600000Y-32085714D01*
X56628571Y-32009523D01*
X56657142Y-31857142D01*
X56657142Y-31666666D01*
X56628571Y-31514285D01*
X56600000Y-31438095D01*
X56571428Y-31400000D01*
X56514285Y-31361904D01*
X53135714Y-52285714D02*
X53164285Y-52323809D01*
X53250000Y-52361904D01*
X53307142Y-52361904D01*
X53392857Y-52323809D01*
X53450000Y-52247619D01*
X53478571Y-52171428D01*
X53507142Y-52019047D01*
X53507142Y-51904761D01*
X53478571Y-51752380D01*
X53450000Y-51676190D01*
X53392857Y-51600000D01*
X53307142Y-51561904D01*
X53250000Y-51561904D01*
X53164285Y-51600000D01*
X53135714Y-51638095D01*
X52907142Y-51638095D02*
X52878571Y-51600000D01*
X52821428Y-51561904D01*
X52678571Y-51561904D01*
X52621428Y-51600000D01*
X52592857Y-51638095D01*
X52564285Y-51714285D01*
X52564285Y-51790476D01*
X52592857Y-51904761D01*
X52935714Y-52361904D01*
X52564285Y-52361904D01*
X52221428Y-51904761D02*
X52278571Y-51866666D01*
X52307142Y-51828571D01*
X52335714Y-51752380D01*
X52335714Y-51714285D01*
X52307142Y-51638095D01*
X52278571Y-51600000D01*
X52221428Y-51561904D01*
X52107142Y-51561904D01*
X52050000Y-51600000D01*
X52021428Y-51638095D01*
X51992857Y-51714285D01*
X51992857Y-51752380D01*
X52021428Y-51828571D01*
X52050000Y-51866666D01*
X52107142Y-51904761D01*
X52221428Y-51904761D01*
X52278571Y-51942857D01*
X52307142Y-51980952D01*
X52335714Y-52057142D01*
X52335714Y-52209523D01*
X52307142Y-52285714D01*
X52278571Y-52323809D01*
X52221428Y-52361904D01*
X52107142Y-52361904D01*
X52050000Y-52323809D01*
X52021428Y-52285714D01*
X51992857Y-52209523D01*
X51992857Y-52057142D01*
X52021428Y-51980952D01*
X52050000Y-51942857D01*
X52107142Y-51904761D01*
X55785714Y-37885714D02*
X55814285Y-37923809D01*
X55900000Y-37961904D01*
X55957142Y-37961904D01*
X56042857Y-37923809D01*
X56100000Y-37847619D01*
X56128571Y-37771428D01*
X56157142Y-37619047D01*
X56157142Y-37504761D01*
X56128571Y-37352380D01*
X56100000Y-37276190D01*
X56042857Y-37200000D01*
X55957142Y-37161904D01*
X55900000Y-37161904D01*
X55814285Y-37200000D01*
X55785714Y-37238095D01*
X55557142Y-37238095D02*
X55528571Y-37200000D01*
X55471428Y-37161904D01*
X55328571Y-37161904D01*
X55271428Y-37200000D01*
X55242857Y-37238095D01*
X55214285Y-37314285D01*
X55214285Y-37390476D01*
X55242857Y-37504761D01*
X55585714Y-37961904D01*
X55214285Y-37961904D01*
X55014285Y-37161904D02*
X54614285Y-37161904D01*
X54871428Y-37961904D01*
X49950000Y-76811904D02*
X49950000Y-77383333D01*
X49978571Y-77497619D01*
X50035714Y-77573809D01*
X50121428Y-77611904D01*
X50178571Y-77611904D01*
X49721428Y-76811904D02*
X49321428Y-76811904D01*
X49578571Y-77611904D01*
X55100000Y-68661904D02*
X55100000Y-69233333D01*
X55128571Y-69347619D01*
X55185714Y-69423809D01*
X55271428Y-69461904D01*
X55328571Y-69461904D01*
X54785714Y-69461904D02*
X54671428Y-69461904D01*
X54614285Y-69423809D01*
X54585714Y-69385714D01*
X54528571Y-69271428D01*
X54500000Y-69119047D01*
X54500000Y-68814285D01*
X54528571Y-68738095D01*
X54557142Y-68700000D01*
X54614285Y-68661904D01*
X54728571Y-68661904D01*
X54785714Y-68700000D01*
X54814285Y-68738095D01*
X54842857Y-68814285D01*
X54842857Y-69004761D01*
X54814285Y-69080952D01*
X54785714Y-69119047D01*
X54728571Y-69157142D01*
X54614285Y-69157142D01*
X54557142Y-69119047D01*
X54528571Y-69080952D01*
X54500000Y-69004761D01*
X95438095Y-71200000D02*
X94866666Y-71200000D01*
X94752380Y-71228571D01*
X94676190Y-71285714D01*
X94638095Y-71371428D01*
X94638095Y-71428571D01*
X95438095Y-70657142D02*
X95438095Y-70771428D01*
X95400000Y-70828571D01*
X95361904Y-70857142D01*
X95247619Y-70914285D01*
X95095238Y-70942857D01*
X94790476Y-70942857D01*
X94714285Y-70914285D01*
X94676190Y-70885714D01*
X94638095Y-70828571D01*
X94638095Y-70714285D01*
X94676190Y-70657142D01*
X94714285Y-70628571D01*
X94790476Y-70600000D01*
X94980952Y-70600000D01*
X95057142Y-70628571D01*
X95095238Y-70657142D01*
X95133333Y-70714285D01*
X95133333Y-70828571D01*
X95095238Y-70885714D01*
X95057142Y-70914285D01*
X94980952Y-70942857D01*
X62985714Y-73061904D02*
X62985714Y-73633333D01*
X63014285Y-73747619D01*
X63071428Y-73823809D01*
X63157142Y-73861904D01*
X63214285Y-73861904D01*
X62385714Y-73861904D02*
X62728571Y-73861904D01*
X62557142Y-73861904D02*
X62557142Y-73061904D01*
X62614285Y-73176190D01*
X62671428Y-73252380D01*
X62728571Y-73290476D01*
X62157142Y-73138095D02*
X62128571Y-73100000D01*
X62071428Y-73061904D01*
X61928571Y-73061904D01*
X61871428Y-73100000D01*
X61842857Y-73138095D01*
X61814285Y-73214285D01*
X61814285Y-73290476D01*
X61842857Y-73404761D01*
X62185714Y-73861904D01*
X61814285Y-73861904D01*
X74985714Y-74811904D02*
X74985714Y-75383333D01*
X75014285Y-75497619D01*
X75071428Y-75573809D01*
X75157142Y-75611904D01*
X75214285Y-75611904D01*
X74385714Y-75611904D02*
X74728571Y-75611904D01*
X74557142Y-75611904D02*
X74557142Y-74811904D01*
X74614285Y-74926190D01*
X74671428Y-75002380D01*
X74728571Y-75040476D01*
X74157142Y-74888095D02*
X74128571Y-74850000D01*
X74071428Y-74811904D01*
X73928571Y-74811904D01*
X73871428Y-74850000D01*
X73842857Y-74888095D01*
X73814285Y-74964285D01*
X73814285Y-75040476D01*
X73842857Y-75154761D01*
X74185714Y-75611904D01*
X73814285Y-75611904D01*
M02*
