M48
; DRILL file {KiCad (5.1.2)-2} date 15/12/2020 14:43:05
; FORMAT={-:-/ absolute / inch / decimal}
; #@! TF.CreationDate,2020-12-15T14:43:05+00:00
; #@! TF.GenerationSoftware,Kicad,Pcbnew,(5.1.2)-2
; #@! TF.FileFunction,Plated,1,4,PTH
FMAT,2
INCH
T1C0.0079
T2C0.0118
T3C0.0157
T4C0.0197
T5C0.0236
T6C0.0295
T7C0.0335
T8C0.0472
T9C0.0591
T10C0.1732
%
G90
G05
T1
X5.3174Y-2.1201
X5.3174Y-2.1713
X5.3174Y-2.2224
X5.3174Y-2.2736
X5.3686Y-2.1201
X5.3686Y-2.1713
X5.3686Y-2.2224
X5.3686Y-2.2736
T2
X4.5945Y-2.3232
X4.6457Y-2.6575
X4.6811Y-4.0984
X4.7679Y-4.3858
X4.7835Y-4.3504
X4.8228Y-3.9469
X5.0236Y-4.5266
X5.1378Y-4.3701
X5.1575Y-4.2913
X5.1866Y-4.3233
X5.2447Y-4.332
X5.3937Y-4.1929
X5.4724Y-3.937
X5.5224Y-3.8398
X5.5433Y-3.937
X5.5512Y-2.0374
X5.6988Y-3.937
X5.9843Y-3.8583
X6.0522Y-4.0974
X6.0547Y-4.0187
X6.0866Y-4.2658
X6.0963Y-4.4813
X6.0988Y-4.0935
X6.1142Y-4.066
X6.188Y-4.1506
X6.1929Y-4.2795
X6.2249Y-4.3273
X6.2538Y-4.1202
X6.2598Y-4.4094
X6.2992Y-4.4409
X6.3583Y-4.252
X6.3583Y-4.3071
X6.3743Y-4.1821
X6.3907Y-4.3909
X6.4272Y-4.2607
X6.4455Y-4.3238
X6.452Y-4.375
X6.4567Y-3.9173
X6.4665Y-3.9665
X6.4803Y-4.2598
X6.5059Y-4.5049
X6.5214Y-4.3009
X6.5244Y-4.0179
X6.5318Y-4.3659
X6.5354Y-4.2323
X6.5543Y-4.2853
X6.558Y-4.3237
X6.6048Y-4.0694
X6.6142Y-3.8976
X6.6327Y-3.8189
X6.6732Y-4.1634
X6.7087Y-4.0157
X6.7165Y-3.8898
X6.8632Y-3.9242
X6.9882Y-3.9961
X7.1581Y-4.467
X7.1693Y-4.4198
X7.1752Y-4.2421
X7.1893Y-4.4872
X7.193Y-4.206
X7.1949Y-4.2717
X7.2227Y-4.1755
X7.254Y-4.147
X7.2992Y-4.2244
X7.3031Y-4.4882
X7.3425Y-4.4961
X7.3492Y-4.2306
X7.385Y-4.2105
X7.4193Y-4.4961
X7.4508Y-4.3307
X7.4576Y-4.2932
X7.6378Y-3.8583
T3
X4.5984Y-1.9646
X4.6394Y-2.1457
X4.685Y-3.0315
X4.685Y-3.0807
X4.685Y-3.1299
X4.7008Y-2.4449
X4.7343Y-3.0315
X4.7343Y-3.0807
X4.7343Y-3.1299
X4.7362Y-2.6893
X4.7402Y-2.622
X4.7835Y-3.0315
X4.7835Y-3.0807
X4.7835Y-3.1299
X4.7835Y-3.6811
X4.7854Y-2.7913
X4.8031Y-2.1457
X4.8228Y-2.6275
X4.8524Y-4.0354
X4.8937Y-2.6772
X4.8937Y-2.7283
X4.8937Y-2.7756
X4.8937Y-2.8228
X4.8937Y-2.874
X4.8937Y-2.9232
X4.9213Y-3.376
X4.9213Y-3.4252
X4.9213Y-3.4744
X4.9213Y-3.5236
X4.9213Y-3.5728
X4.9213Y-3.622
X4.9213Y-3.6713
X4.9213Y-3.7205
X4.9242Y-3.2677
X4.9272Y-2.1496
X4.9409Y-2.4902
X4.9409Y-2.6772
X4.9409Y-2.7283
X4.9409Y-2.7756
X4.9409Y-2.8228
X4.9409Y-2.874
X4.9409Y-2.9232
X4.9705Y-3.376
X4.9705Y-3.4252
X4.9705Y-3.4744
X4.9705Y-3.5236
X4.9705Y-3.5728
X4.9705Y-3.622
X4.9705Y-3.6713
X4.9902Y-2.6772
X4.9902Y-2.7264
X4.9902Y-2.7756
X4.9902Y-2.8248
X4.9902Y-2.874
X4.9902Y-2.9232
X4.9902Y-4.0846
X5.0197Y-3.376
X5.0197Y-3.4252
X5.0197Y-3.4744
X5.0197Y-3.5236
X5.0197Y-3.5728
X5.0197Y-3.622
X5.0197Y-3.6713
X5.0197Y-3.7205
X5.0394Y-2.2913
X5.0394Y-2.6772
X5.0394Y-2.7264
X5.0394Y-2.7756
X5.0394Y-2.8248
X5.0394Y-2.874
X5.0394Y-2.9232
X5.0689Y-3.376
X5.0689Y-3.4252
X5.0689Y-3.4744
X5.0689Y-3.5236
X5.0689Y-3.5728
X5.0689Y-3.622
X5.0689Y-3.6713
X5.0866Y-2.6772
X5.0866Y-2.7264
X5.0866Y-2.7756
X5.0866Y-2.8248
X5.0866Y-2.874
X5.0866Y-2.9232
X5.1181Y-3.376
X5.1181Y-3.4252
X5.1181Y-3.4744
X5.1181Y-3.5236
X5.1181Y-3.5728
X5.1181Y-3.622
X5.1181Y-3.6713
X5.1181Y-3.7205
X5.1378Y-2.6772
X5.1378Y-2.7264
X5.1378Y-2.7756
X5.1378Y-2.8248
X5.1378Y-2.874
X5.1378Y-2.9232
X5.1673Y-3.376
X5.1673Y-3.4252
X5.1673Y-3.4744
X5.1673Y-3.5236
X5.1673Y-3.5728
X5.1673Y-3.622
X5.1673Y-3.6713
X5.1772Y-4.4882
X5.185Y-2.6772
X5.185Y-2.7264
X5.185Y-2.7756
X5.185Y-2.8248
X5.185Y-2.874
X5.185Y-2.9232
X5.2165Y-3.376
X5.2165Y-3.4252
X5.2165Y-3.4744
X5.2165Y-3.5236
X5.2165Y-3.5728
X5.2165Y-3.622
X5.2165Y-3.6713
X5.2165Y-3.7205
X5.2362Y-2.3622
X5.2362Y-2.6772
X5.2362Y-2.7264
X5.2362Y-2.7756
X5.2362Y-2.8248
X5.2362Y-2.874
X5.2362Y-2.9232
X5.2657Y-3.376
X5.2657Y-3.4252
X5.2657Y-3.4744
X5.2657Y-3.5236
X5.2657Y-3.5728
X5.2657Y-3.622
X5.2657Y-3.6713
X5.2756Y-2.3228
X5.2756Y-2.3622
X5.2835Y-2.6772
X5.2835Y-2.7264
X5.2835Y-2.7756
X5.2835Y-2.8248
X5.2835Y-2.874
X5.2835Y-2.9232
X5.315Y-2.3228
X5.315Y-2.3622
X5.3346Y-2.6772
X5.3346Y-2.7264
X5.3346Y-2.7756
X5.3346Y-2.8248
X5.3346Y-2.874
X5.3346Y-2.9232
X5.3642Y-3.7303
X5.4232Y-3.6713
X5.4528Y-2.9429
X5.4528Y-2.9921
X5.4528Y-3.0413
X5.4528Y-3.0906
X5.4528Y-3.1398
X5.502Y-2.9429
X5.502Y-2.9921
X5.502Y-3.0413
X5.502Y-3.0906
X5.502Y-3.1398
X5.5512Y-2.9429
X5.5512Y-2.9921
X5.5512Y-3.0413
X5.5512Y-3.0906
X5.5512Y-3.1398
X5.6004Y-2.9429
X5.6004Y-2.9921
X5.6004Y-3.0413
X5.6004Y-3.0906
X5.6004Y-3.1398
X5.6496Y-2.9429
X5.6496Y-2.9921
X5.6496Y-3.0413
X5.6496Y-3.0906
X5.6496Y-3.1398
X5.6929Y-4.3504
X5.6988Y-2.9429
X5.6988Y-2.9921
X5.6988Y-3.0413
X5.7034Y-4.2049
X5.748Y-2.9921
X5.748Y-3.0413
X5.7725Y-4.2372
X5.7768Y-3.9855
X5.7972Y-2.9921
X5.7972Y-3.0413
X5.8465Y-2.9921
X5.8465Y-3.0413
X5.874Y-4.3386
X5.9449Y-3.9272
X5.9547Y-3.6713
X5.9921Y-4.3425
X5.9961Y-2.6772
X5.9961Y-2.7283
X5.9961Y-2.7756
X5.9961Y-2.8268
X5.9961Y-2.874
X5.9961Y-2.9213
X6.0138Y-3.376
X6.0138Y-3.4252
X6.0138Y-3.4744
X6.0138Y-3.5236
X6.0138Y-3.5728
X6.0138Y-3.622
X6.0138Y-3.6713
X6.0236Y-3.272
X6.0433Y-2.6772
X6.0433Y-2.7264
X6.0433Y-2.7756
X6.0433Y-2.8248
X6.0433Y-2.874
X6.0433Y-2.9232
X6.063Y-3.376
X6.063Y-3.4252
X6.063Y-3.4744
X6.063Y-3.5236
X6.063Y-3.5728
X6.063Y-3.622
X6.063Y-3.6713
X6.063Y-3.7205
X6.0906Y-2.6772
X6.0925Y-2.7264
X6.0925Y-2.7756
X6.0925Y-2.8248
X6.0925Y-2.874
X6.0925Y-2.9232
X6.1122Y-3.376
X6.1122Y-3.4252
X6.1122Y-3.4744
X6.1122Y-3.5236
X6.1122Y-3.5728
X6.1122Y-3.622
X6.1122Y-3.6713
X6.1398Y-2.7264
X6.1398Y-2.7756
X6.1398Y-2.8248
X6.1398Y-2.874
X6.1398Y-2.9232
X6.1417Y-2.6772
X6.1614Y-3.376
X6.1614Y-3.4252
X6.1614Y-3.4744
X6.1614Y-3.5236
X6.1614Y-3.5728
X6.1614Y-3.622
X6.1614Y-3.6713
X6.1614Y-3.7205
X6.189Y-2.6772
X6.1909Y-2.7264
X6.1909Y-2.7756
X6.1909Y-2.8248
X6.1909Y-2.874
X6.1909Y-2.9232
X6.2106Y-3.376
X6.2106Y-3.4252
X6.2106Y-3.4744
X6.2106Y-3.5236
X6.2106Y-3.5728
X6.2106Y-3.622
X6.2106Y-3.6713
X6.2382Y-2.7264
X6.2382Y-2.7756
X6.2382Y-2.8248
X6.2382Y-2.874
X6.2382Y-2.9232
X6.2402Y-2.6772
X6.2598Y-3.376
X6.2598Y-3.4252
X6.2598Y-3.4744
X6.2598Y-3.5236
X6.2598Y-3.5728
X6.2598Y-3.622
X6.2598Y-3.6713
X6.2598Y-3.7205
X6.2874Y-2.6772
X6.2894Y-2.7264
X6.2894Y-2.7756
X6.2894Y-2.8248
X6.2894Y-2.874
X6.2894Y-2.9232
X6.2945Y-4.0992
X6.3091Y-3.376
X6.3091Y-3.4252
X6.3091Y-3.4744
X6.3091Y-3.5236
X6.3091Y-3.5728
X6.3091Y-3.622
X6.3091Y-3.6713
X6.3366Y-2.7264
X6.3366Y-2.7756
X6.3366Y-2.8248
X6.3366Y-2.874
X6.3366Y-2.9232
X6.3386Y-2.6772
X6.3583Y-3.376
X6.3583Y-3.4252
X6.3583Y-3.4744
X6.3583Y-3.5236
X6.3583Y-3.5728
X6.3583Y-3.622
X6.3583Y-3.6713
X6.3583Y-3.7205
X6.3858Y-2.6772
X6.3878Y-2.7264
X6.3878Y-2.7756
X6.3878Y-2.8248
X6.3878Y-2.874
X6.3878Y-2.9232
X6.437Y-2.6772
X6.437Y-2.7264
X6.437Y-2.7756
X6.437Y-2.8248
X6.437Y-2.874
X6.4764Y-3.7303
X6.4961Y-3.6614
X6.5354Y-2.9331
X6.5354Y-2.9724
X6.5354Y-3.0217
X6.5354Y-3.0709
X6.5354Y-3.1201
X6.5846Y-2.9331
X6.5846Y-2.9724
X6.5846Y-3.0217
X6.5846Y-3.0709
X6.5846Y-3.1201
X6.6339Y-2.9331
X6.6339Y-2.9724
X6.6339Y-3.0217
X6.6339Y-3.0709
X6.6339Y-3.1201
X6.6732Y-4.0039
X6.6772Y-4.4843
X6.6831Y-2.9331
X6.6831Y-2.9724
X6.6831Y-3.0217
X6.6831Y-3.0709
X6.6831Y-3.1201
X6.7215Y-4.4429
X6.7323Y-2.9331
X6.7323Y-2.9724
X6.7323Y-3.0217
X6.7323Y-3.0709
X6.7323Y-3.1201
X6.7586Y-4.1799
X6.7677Y-4.3661
X6.7815Y-2.9331
X6.7815Y-2.9724
X6.7815Y-3.0217
X6.7815Y-3.0709
X6.8307Y-2.9331
X6.8307Y-2.9724
X6.8307Y-3.0217
X6.8346Y-4.4488
X6.8799Y-2.9724
X6.8799Y-3.0217
X6.9291Y-3.0217
X6.9291Y-4.3652
X6.9401Y-4.436
X6.9783Y-3.6713
X7.0079Y-4.3307
X7.0571Y-2.6673
X7.0571Y-2.7165
X7.0571Y-2.7657
X7.0571Y-2.815
X7.0571Y-2.8642
X7.0571Y-2.9134
X7.0669Y-3.2677
X7.0866Y-3.376
X7.0866Y-3.4252
X7.0866Y-3.4744
X7.0866Y-3.5236
X7.0866Y-3.5728
X7.0866Y-3.622
X7.0866Y-3.6713
X7.0866Y-3.7205
X7.1063Y-2.6673
X7.1063Y-2.7165
X7.1063Y-2.7657
X7.1063Y-2.815
X7.1063Y-2.8642
X7.1063Y-2.9134
X7.1063Y-4.2913
X7.1358Y-3.376
X7.1358Y-3.4252
X7.1358Y-3.4744
X7.1358Y-3.5236
X7.1358Y-3.5728
X7.1358Y-3.622
X7.1358Y-3.6713
X7.1555Y-2.6673
X7.1555Y-2.7165
X7.1555Y-2.7657
X7.1555Y-2.815
X7.1555Y-2.8642
X7.1555Y-2.9134
X7.185Y-3.376
X7.185Y-3.4252
X7.185Y-3.4744
X7.185Y-3.5236
X7.185Y-3.5728
X7.185Y-3.622
X7.185Y-3.6713
X7.185Y-3.7205
X7.2047Y-2.6673
X7.2047Y-2.7165
X7.2047Y-2.7657
X7.2047Y-2.815
X7.2047Y-2.8642
X7.2047Y-2.9134
X7.2343Y-3.376
X7.2343Y-3.4252
X7.2343Y-3.4744
X7.2343Y-3.5236
X7.2343Y-3.5728
X7.2343Y-3.622
X7.2343Y-3.6713
X7.2539Y-2.6673
X7.2539Y-2.7165
X7.2539Y-2.7657
X7.2539Y-2.815
X7.2539Y-2.8642
X7.2539Y-2.9134
X7.2835Y-3.376
X7.2835Y-3.4252
X7.2835Y-3.4744
X7.2835Y-3.5236
X7.2835Y-3.5728
X7.2835Y-3.622
X7.2835Y-3.6713
X7.2835Y-3.7205
X7.2977Y-4.3952
X7.2992Y-4.3031
X7.3031Y-2.6673
X7.3031Y-2.7165
X7.3031Y-2.7657
X7.3031Y-2.815
X7.3031Y-2.8642
X7.3031Y-2.9134
X7.3327Y-3.376
X7.3327Y-3.4252
X7.3327Y-3.4744
X7.3327Y-3.5236
X7.3327Y-3.5728
X7.3327Y-3.622
X7.3327Y-3.6713
X7.3524Y-2.6673
X7.3524Y-2.7165
X7.3524Y-2.7657
X7.3524Y-2.815
X7.3524Y-2.8642
X7.3524Y-2.9134
X7.3819Y-3.376
X7.3819Y-3.4252
X7.3819Y-3.4744
X7.3819Y-3.5236
X7.3819Y-3.5728
X7.3819Y-3.622
X7.3819Y-3.6713
X7.3819Y-3.7205
X7.3819Y-4.4803
X7.4016Y-2.6673
X7.4016Y-2.7165
X7.4016Y-2.7657
X7.4016Y-2.815
X7.4016Y-2.8642
X7.4016Y-2.9134
X7.4311Y-3.376
X7.4311Y-3.4252
X7.4311Y-3.4744
X7.4311Y-3.5236
X7.4311Y-3.5728
X7.4311Y-3.622
X7.4311Y-3.6713
X7.4508Y-2.7165
X7.4508Y-2.7657
X7.4508Y-2.815
X7.4508Y-2.8642
X7.4508Y-2.9134
X7.5Y-2.7165
X7.5Y-2.7657
X7.5Y-2.8248
X7.5Y-2.874
X7.5197Y-3.7106
X7.5492Y-3.6516
X7.5787Y-2.9724
X7.5787Y-3.0217
X7.5787Y-3.0709
X7.5787Y-3.1201
X7.5787Y-3.9173
X7.628Y-2.7854
X7.628Y-2.8346
X7.628Y-2.8839
X7.628Y-2.9331
X7.628Y-2.9724
X7.628Y-3.0217
X7.628Y-3.0709
X7.628Y-3.1201
X7.6772Y-2.7854
X7.6772Y-2.8346
X7.6772Y-2.8839
X7.6772Y-2.9331
X7.6772Y-2.9724
X7.6772Y-3.0217
X7.6772Y-3.0709
X7.6772Y-3.1201
X7.7264Y-2.7854
X7.7264Y-2.8346
X7.7264Y-2.8839
X7.7264Y-2.9331
X7.7264Y-2.9724
X7.7264Y-3.0217
X7.7264Y-3.0709
X7.7264Y-3.1201
X7.7756Y-2.7854
X7.7756Y-2.8346
X7.7756Y-2.8839
X7.7756Y-2.9331
X7.7756Y-2.9724
X7.7756Y-3.0217
X7.7756Y-3.0709
X7.7756Y-3.1201
X7.8346Y-3.2382
T4
X6.8602Y-4.2323
X6.7126Y-4.3602
X4.9606Y-4.2815
X4.9606Y-4.3307
X4.9606Y-4.3799
X4.9606Y-4.4291
X6.6142Y-4.4803
X5.4035Y-4.2835
X5.4528Y-4.2835
X5.502Y-4.2835
X5.5512Y-4.2835
X5.6004Y-4.2835
X5.6496Y-4.2835
T6
X5.6102Y-4.4331
X5.689Y-4.4331
X5.7677Y-4.4331
X5.8465Y-4.4331
X5.9252Y-4.4331
X6.0039Y-4.4331
X5.2953Y-4.4331
X5.374Y-4.4331
X5.4528Y-4.4331
X7.7559Y-3.9075
X7.7559Y-3.9862
X7.7559Y-4.065
X7.7559Y-4.1437
X7.7559Y-4.2224
X7.7559Y-4.3012
X7.7559Y-4.3799
X7.7559Y-4.4587
T7
X4.7328Y-4.2618
X4.7328Y-4.4587
T8
X5.8661Y-2.1063
X5.8661Y-2.4016
X5.0591Y-2.1063
X5.0591Y-2.4016
X6.8898Y-2.1063
X6.8898Y-2.4016
X7.5394Y-2.1063
X7.5394Y-2.4016
T9
X6.1091Y-3.7894
X6.3091Y-3.7894
X5.0067Y-3.8287
X5.2067Y-3.8287
X7.172Y-3.8091
X7.372Y-3.8091
T10
X6.378Y-2.1122
X6.378Y-2.3957
T5
G00X4.6127Y-4.2224
M15
G01X4.6403Y-4.2224
M16
G05
G00X4.6403Y-4.498
M15
G01X4.6127Y-4.498
M16
G05
T0
M30
