G04 #@! TF.GenerationSoftware,KiCad,Pcbnew,(5.1.2)-2*
G04 #@! TF.CreationDate,2020-12-15T14:43:03+00:00*
G04 #@! TF.ProjectId,INV_Board,494e565f-426f-4617-9264-2e6b69636164,rev?*
G04 #@! TF.SameCoordinates,Original*
G04 #@! TF.FileFunction,Soldermask,Bot*
G04 #@! TF.FilePolarity,Negative*
%FSLAX46Y46*%
G04 Gerber Fmt 4.6, Leading zero omitted, Abs format (unit mm)*
G04 Created by KiCad (PCBNEW (5.1.2)-2) date 2020-12-15 14:43:03*
%MOMM*%
%LPD*%
G04 APERTURE LIST*
%ADD10C,0.100000*%
G04 APERTURE END LIST*
D10*
G36*
X132750000Y-100000000D02*
G01*
X125250000Y-100000000D01*
X125250000Y-95250000D01*
X132750000Y-95250000D01*
X132750000Y-100000000D01*
G37*
X132750000Y-100000000D02*
X125250000Y-100000000D01*
X125250000Y-95250000D01*
X132750000Y-95250000D01*
X132750000Y-100000000D01*
G36*
X162000000Y-99500000D02*
G01*
X153750000Y-99500000D01*
X153750000Y-94750000D01*
X162000000Y-94750000D01*
X162000000Y-99500000D01*
G37*
X162000000Y-99500000D02*
X153750000Y-99500000D01*
X153750000Y-94750000D01*
X162000000Y-94750000D01*
X162000000Y-99500000D01*
G36*
X189000000Y-99750000D02*
G01*
X181000000Y-99750000D01*
X181000000Y-95000000D01*
X189000000Y-95000000D01*
X189000000Y-99750000D01*
G37*
X189000000Y-99750000D02*
X181000000Y-99750000D01*
X181000000Y-95000000D01*
X189000000Y-95000000D01*
X189000000Y-99750000D01*
G36*
X118513500Y-114211886D02*
G01*
X118514102Y-114224138D01*
X118516649Y-114250000D01*
X118514102Y-114275862D01*
X118513500Y-114288114D01*
X118513500Y-114361406D01*
X118504543Y-114378164D01*
X118500415Y-114389701D01*
X118474632Y-114474693D01*
X118466854Y-114500336D01*
X118406406Y-114613425D01*
X118325054Y-114712554D01*
X118225925Y-114793906D01*
X118112836Y-114854354D01*
X118080904Y-114864040D01*
X117990118Y-114891580D01*
X117926355Y-114897860D01*
X117894474Y-114901000D01*
X117130526Y-114901000D01*
X117098645Y-114897860D01*
X117034882Y-114891580D01*
X116944096Y-114864040D01*
X116912164Y-114854354D01*
X116799075Y-114793906D01*
X116699946Y-114712554D01*
X116618594Y-114613425D01*
X116558146Y-114500336D01*
X116550368Y-114474693D01*
X116524587Y-114389708D01*
X116515213Y-114367075D01*
X116511500Y-114361518D01*
X116511500Y-114288114D01*
X116510898Y-114275862D01*
X116508351Y-114250000D01*
X116510898Y-114224138D01*
X116511500Y-114211886D01*
X116511500Y-112999000D01*
X118513500Y-112999000D01*
X118513500Y-114211886D01*
X118513500Y-114211886D01*
G37*
G36*
X168160721Y-113270174D02*
G01*
X168260995Y-113311709D01*
X168260996Y-113311710D01*
X168351242Y-113372010D01*
X168427990Y-113448758D01*
X168427991Y-113448760D01*
X168488291Y-113539005D01*
X168529826Y-113639279D01*
X168551000Y-113745730D01*
X168551000Y-113854270D01*
X168529826Y-113960721D01*
X168488291Y-114060995D01*
X168488290Y-114060996D01*
X168427990Y-114151242D01*
X168351242Y-114227990D01*
X168318301Y-114250000D01*
X168260995Y-114288291D01*
X168160721Y-114329826D01*
X168054270Y-114351000D01*
X167945730Y-114351000D01*
X167839279Y-114329826D01*
X167739005Y-114288291D01*
X167681699Y-114250000D01*
X167648758Y-114227990D01*
X167572010Y-114151242D01*
X167511710Y-114060996D01*
X167511709Y-114060995D01*
X167470174Y-113960721D01*
X167449000Y-113854270D01*
X167449000Y-113745730D01*
X167470174Y-113639279D01*
X167511709Y-113539005D01*
X167572009Y-113448760D01*
X167572010Y-113448758D01*
X167648758Y-113372010D01*
X167739004Y-113311710D01*
X167739005Y-113311709D01*
X167839279Y-113270174D01*
X167945730Y-113249000D01*
X168054270Y-113249000D01*
X168160721Y-113270174D01*
X168160721Y-113270174D01*
G37*
G36*
X120438848Y-107503820D02*
G01*
X120438850Y-107503821D01*
X120438851Y-107503821D01*
X120580074Y-107562317D01*
X120580077Y-107562319D01*
X120707169Y-107647239D01*
X120815261Y-107755331D01*
X120900181Y-107882423D01*
X120900183Y-107882426D01*
X120919056Y-107927991D01*
X120958680Y-108023652D01*
X120988500Y-108173569D01*
X120988500Y-108326431D01*
X120961616Y-108461590D01*
X120958679Y-108476351D01*
X120900183Y-108617574D01*
X120900181Y-108617577D01*
X120815261Y-108744669D01*
X120707169Y-108852761D01*
X120656564Y-108886574D01*
X120580074Y-108937683D01*
X120529772Y-108958519D01*
X120508164Y-108970068D01*
X120489222Y-108985614D01*
X120473677Y-109004556D01*
X120462126Y-109026166D01*
X120455013Y-109049615D01*
X120452611Y-109074001D01*
X120455013Y-109098387D01*
X120462126Y-109121836D01*
X120473677Y-109143447D01*
X120489223Y-109162389D01*
X120508165Y-109177934D01*
X120529775Y-109189485D01*
X120553224Y-109196598D01*
X120577610Y-109199000D01*
X120938500Y-109199000D01*
X120938500Y-112301000D01*
X120577610Y-112301000D01*
X120553224Y-112303402D01*
X120529775Y-112310515D01*
X120508164Y-112322066D01*
X120489222Y-112337611D01*
X120473677Y-112356553D01*
X120462126Y-112378164D01*
X120455013Y-112401613D01*
X120452611Y-112425999D01*
X120455013Y-112450385D01*
X120462126Y-112473834D01*
X120473677Y-112495445D01*
X120489222Y-112514387D01*
X120508164Y-112529932D01*
X120529772Y-112541481D01*
X120580074Y-112562317D01*
X120580075Y-112562318D01*
X120707169Y-112647239D01*
X120815261Y-112755331D01*
X120897375Y-112878223D01*
X120900183Y-112882426D01*
X120958679Y-113023649D01*
X120958680Y-113023652D01*
X120988500Y-113173569D01*
X120988500Y-113326431D01*
X120960444Y-113467481D01*
X120958679Y-113476351D01*
X120900183Y-113617574D01*
X120900181Y-113617577D01*
X120815261Y-113744669D01*
X120707169Y-113852761D01*
X120656564Y-113886574D01*
X120580074Y-113937683D01*
X120438851Y-113996179D01*
X120438850Y-113996179D01*
X120438848Y-113996180D01*
X120288931Y-114026000D01*
X120136069Y-114026000D01*
X119986152Y-113996180D01*
X119986150Y-113996179D01*
X119986149Y-113996179D01*
X119844926Y-113937683D01*
X119768436Y-113886574D01*
X119717831Y-113852761D01*
X119609739Y-113744669D01*
X119524819Y-113617577D01*
X119524817Y-113617574D01*
X119466321Y-113476351D01*
X119464557Y-113467481D01*
X119436500Y-113326431D01*
X119436500Y-113173569D01*
X119466320Y-113023652D01*
X119466321Y-113023649D01*
X119524817Y-112882426D01*
X119527625Y-112878223D01*
X119609739Y-112755331D01*
X119717831Y-112647239D01*
X119844925Y-112562318D01*
X119844926Y-112562317D01*
X119895228Y-112541481D01*
X119916836Y-112529932D01*
X119935778Y-112514386D01*
X119951323Y-112495444D01*
X119962874Y-112473834D01*
X119969987Y-112450385D01*
X119972389Y-112425999D01*
X119969987Y-112401613D01*
X119962874Y-112378164D01*
X119951323Y-112356553D01*
X119935777Y-112337611D01*
X119916835Y-112322066D01*
X119895225Y-112310515D01*
X119871776Y-112303402D01*
X119847390Y-112301000D01*
X119486500Y-112301000D01*
X119486500Y-109199000D01*
X119847390Y-109199000D01*
X119871776Y-109196598D01*
X119895225Y-109189485D01*
X119916836Y-109177934D01*
X119935778Y-109162389D01*
X119951323Y-109143447D01*
X119962874Y-109121836D01*
X119969987Y-109098387D01*
X119972389Y-109074001D01*
X119969987Y-109049615D01*
X119962874Y-109026166D01*
X119951323Y-109004555D01*
X119935778Y-108985613D01*
X119916836Y-108970068D01*
X119895228Y-108958519D01*
X119844926Y-108937683D01*
X119768436Y-108886574D01*
X119717831Y-108852761D01*
X119609739Y-108744669D01*
X119524819Y-108617577D01*
X119524817Y-108617574D01*
X119466321Y-108476351D01*
X119463385Y-108461590D01*
X119436500Y-108326431D01*
X119436500Y-108173569D01*
X119466320Y-108023652D01*
X119505944Y-107927991D01*
X119524817Y-107882426D01*
X119524819Y-107882423D01*
X119609739Y-107755331D01*
X119717831Y-107647239D01*
X119844923Y-107562319D01*
X119844926Y-107562317D01*
X119986149Y-107503821D01*
X119986150Y-107503821D01*
X119986152Y-107503820D01*
X120136069Y-107474000D01*
X120288931Y-107474000D01*
X120438848Y-107503820D01*
X120438848Y-107503820D01*
G37*
G36*
X197338855Y-112602140D02*
G01*
X197402618Y-112608420D01*
X197493404Y-112635960D01*
X197525336Y-112645646D01*
X197638425Y-112706094D01*
X197737554Y-112787446D01*
X197818906Y-112886575D01*
X197879354Y-112999664D01*
X197889040Y-113031596D01*
X197916580Y-113122382D01*
X197929149Y-113250000D01*
X197916580Y-113377618D01*
X197904055Y-113418906D01*
X197879354Y-113500336D01*
X197818906Y-113613425D01*
X197737554Y-113712554D01*
X197638425Y-113793906D01*
X197525336Y-113854354D01*
X197493404Y-113864040D01*
X197402618Y-113891580D01*
X197338855Y-113897860D01*
X197306974Y-113901000D01*
X196693026Y-113901000D01*
X196661145Y-113897860D01*
X196597382Y-113891580D01*
X196506596Y-113864040D01*
X196474664Y-113854354D01*
X196361575Y-113793906D01*
X196262446Y-113712554D01*
X196181094Y-113613425D01*
X196120646Y-113500336D01*
X196095945Y-113418906D01*
X196083420Y-113377618D01*
X196070851Y-113250000D01*
X196083420Y-113122382D01*
X196110960Y-113031596D01*
X196120646Y-112999664D01*
X196181094Y-112886575D01*
X196262446Y-112787446D01*
X196361575Y-112706094D01*
X196474664Y-112645646D01*
X196506596Y-112635960D01*
X196597382Y-112608420D01*
X196661145Y-112602140D01*
X196693026Y-112599000D01*
X197306974Y-112599000D01*
X197338855Y-112602140D01*
X197338855Y-112602140D01*
G37*
G36*
X136627618Y-111683420D02*
G01*
X136685571Y-111701000D01*
X136750336Y-111720646D01*
X136863425Y-111781094D01*
X136962554Y-111862446D01*
X137043906Y-111961575D01*
X137104354Y-112074664D01*
X137104355Y-112074668D01*
X137141580Y-112197382D01*
X137151000Y-112293027D01*
X137151000Y-112906973D01*
X137141580Y-113002618D01*
X137135200Y-113023649D01*
X137104354Y-113125336D01*
X137043906Y-113238425D01*
X136962554Y-113337553D01*
X136863424Y-113418906D01*
X136750335Y-113479354D01*
X136718403Y-113489040D01*
X136627617Y-113516580D01*
X136500000Y-113529149D01*
X136372382Y-113516580D01*
X136281596Y-113489040D01*
X136249664Y-113479354D01*
X136136575Y-113418906D01*
X136037447Y-113337554D01*
X135956094Y-113238424D01*
X135895646Y-113125335D01*
X135864800Y-113023649D01*
X135858420Y-113002617D01*
X135849000Y-112906972D01*
X135849000Y-112293027D01*
X135858420Y-112197382D01*
X135895645Y-112074668D01*
X135895645Y-112074667D01*
X135927957Y-112014217D01*
X135956095Y-111961574D01*
X135969493Y-111945249D01*
X136037447Y-111862446D01*
X136136576Y-111781094D01*
X136249665Y-111720646D01*
X136314430Y-111701000D01*
X136372383Y-111683420D01*
X136500000Y-111670851D01*
X136627618Y-111683420D01*
X136627618Y-111683420D01*
G37*
G36*
X134627618Y-111683420D02*
G01*
X134685571Y-111701000D01*
X134750336Y-111720646D01*
X134863425Y-111781094D01*
X134962554Y-111862446D01*
X135043906Y-111961575D01*
X135104354Y-112074664D01*
X135104355Y-112074668D01*
X135141580Y-112197382D01*
X135151000Y-112293027D01*
X135151000Y-112906973D01*
X135141580Y-113002618D01*
X135135200Y-113023649D01*
X135104354Y-113125336D01*
X135043906Y-113238425D01*
X134962554Y-113337553D01*
X134863424Y-113418906D01*
X134750335Y-113479354D01*
X134718403Y-113489040D01*
X134627617Y-113516580D01*
X134500000Y-113529149D01*
X134372382Y-113516580D01*
X134281596Y-113489040D01*
X134249664Y-113479354D01*
X134136575Y-113418906D01*
X134037447Y-113337554D01*
X133956094Y-113238424D01*
X133895646Y-113125335D01*
X133864800Y-113023649D01*
X133858420Y-113002617D01*
X133849000Y-112906972D01*
X133849000Y-112293027D01*
X133858420Y-112197382D01*
X133895645Y-112074668D01*
X133895645Y-112074667D01*
X133927957Y-112014217D01*
X133956095Y-111961574D01*
X133969493Y-111945249D01*
X134037447Y-111862446D01*
X134136576Y-111781094D01*
X134249665Y-111720646D01*
X134314430Y-111701000D01*
X134372383Y-111683420D01*
X134500000Y-111670851D01*
X134627618Y-111683420D01*
X134627618Y-111683420D01*
G37*
G36*
X142627618Y-111683420D02*
G01*
X142685571Y-111701000D01*
X142750336Y-111720646D01*
X142863425Y-111781094D01*
X142962554Y-111862446D01*
X143043906Y-111961575D01*
X143104354Y-112074664D01*
X143104355Y-112074668D01*
X143141580Y-112197382D01*
X143151000Y-112293027D01*
X143151000Y-112906973D01*
X143141580Y-113002618D01*
X143135200Y-113023649D01*
X143104354Y-113125336D01*
X143043906Y-113238425D01*
X142962554Y-113337553D01*
X142863424Y-113418906D01*
X142750335Y-113479354D01*
X142718403Y-113489040D01*
X142627617Y-113516580D01*
X142500000Y-113529149D01*
X142372382Y-113516580D01*
X142281596Y-113489040D01*
X142249664Y-113479354D01*
X142136575Y-113418906D01*
X142037447Y-113337554D01*
X141956094Y-113238424D01*
X141895646Y-113125335D01*
X141864800Y-113023649D01*
X141858420Y-113002617D01*
X141849000Y-112906972D01*
X141849000Y-112293027D01*
X141858420Y-112197382D01*
X141895645Y-112074668D01*
X141895645Y-112074667D01*
X141927957Y-112014217D01*
X141956095Y-111961574D01*
X141969493Y-111945249D01*
X142037447Y-111862446D01*
X142136576Y-111781094D01*
X142249665Y-111720646D01*
X142314430Y-111701000D01*
X142372383Y-111683420D01*
X142500000Y-111670851D01*
X142627618Y-111683420D01*
X142627618Y-111683420D01*
G37*
G36*
X144627618Y-111683420D02*
G01*
X144685571Y-111701000D01*
X144750336Y-111720646D01*
X144863425Y-111781094D01*
X144962554Y-111862446D01*
X145043906Y-111961575D01*
X145104354Y-112074664D01*
X145104355Y-112074668D01*
X145141580Y-112197382D01*
X145151000Y-112293027D01*
X145151000Y-112906973D01*
X145141580Y-113002618D01*
X145135200Y-113023649D01*
X145104354Y-113125336D01*
X145043906Y-113238425D01*
X144962554Y-113337553D01*
X144863424Y-113418906D01*
X144750335Y-113479354D01*
X144718403Y-113489040D01*
X144627617Y-113516580D01*
X144500000Y-113529149D01*
X144372382Y-113516580D01*
X144281596Y-113489040D01*
X144249664Y-113479354D01*
X144136575Y-113418906D01*
X144037447Y-113337554D01*
X143956094Y-113238424D01*
X143895646Y-113125335D01*
X143864800Y-113023649D01*
X143858420Y-113002617D01*
X143849000Y-112906972D01*
X143849000Y-112293027D01*
X143858420Y-112197382D01*
X143895645Y-112074668D01*
X143895645Y-112074667D01*
X143927957Y-112014217D01*
X143956095Y-111961574D01*
X143969493Y-111945249D01*
X144037447Y-111862446D01*
X144136576Y-111781094D01*
X144249665Y-111720646D01*
X144314430Y-111701000D01*
X144372383Y-111683420D01*
X144500000Y-111670851D01*
X144627618Y-111683420D01*
X144627618Y-111683420D01*
G37*
G36*
X146627618Y-111683420D02*
G01*
X146685571Y-111701000D01*
X146750336Y-111720646D01*
X146863425Y-111781094D01*
X146962554Y-111862446D01*
X147043906Y-111961575D01*
X147104354Y-112074664D01*
X147104355Y-112074668D01*
X147141580Y-112197382D01*
X147151000Y-112293027D01*
X147151000Y-112906973D01*
X147141580Y-113002618D01*
X147135200Y-113023649D01*
X147104354Y-113125336D01*
X147043906Y-113238425D01*
X146962554Y-113337553D01*
X146863424Y-113418906D01*
X146750335Y-113479354D01*
X146718403Y-113489040D01*
X146627617Y-113516580D01*
X146500000Y-113529149D01*
X146372382Y-113516580D01*
X146281596Y-113489040D01*
X146249664Y-113479354D01*
X146136575Y-113418906D01*
X146037447Y-113337554D01*
X145956094Y-113238424D01*
X145895646Y-113125335D01*
X145864800Y-113023649D01*
X145858420Y-113002617D01*
X145849000Y-112906972D01*
X145849000Y-112293027D01*
X145858420Y-112197382D01*
X145895645Y-112074668D01*
X145895645Y-112074667D01*
X145927957Y-112014217D01*
X145956095Y-111961574D01*
X145969493Y-111945249D01*
X146037447Y-111862446D01*
X146136576Y-111781094D01*
X146249665Y-111720646D01*
X146314430Y-111701000D01*
X146372383Y-111683420D01*
X146500000Y-111670851D01*
X146627618Y-111683420D01*
X146627618Y-111683420D01*
G37*
G36*
X148627618Y-111683420D02*
G01*
X148685571Y-111701000D01*
X148750336Y-111720646D01*
X148863425Y-111781094D01*
X148962554Y-111862446D01*
X149043906Y-111961575D01*
X149104354Y-112074664D01*
X149104355Y-112074668D01*
X149141580Y-112197382D01*
X149151000Y-112293027D01*
X149151000Y-112906973D01*
X149141580Y-113002618D01*
X149135200Y-113023649D01*
X149104354Y-113125336D01*
X149043906Y-113238425D01*
X148962554Y-113337553D01*
X148863424Y-113418906D01*
X148750335Y-113479354D01*
X148718403Y-113489040D01*
X148627617Y-113516580D01*
X148500000Y-113529149D01*
X148372382Y-113516580D01*
X148281596Y-113489040D01*
X148249664Y-113479354D01*
X148136575Y-113418906D01*
X148037447Y-113337554D01*
X147956094Y-113238424D01*
X147895646Y-113125335D01*
X147864800Y-113023649D01*
X147858420Y-113002617D01*
X147849000Y-112906972D01*
X147849000Y-112293027D01*
X147858420Y-112197382D01*
X147895645Y-112074668D01*
X147895645Y-112074667D01*
X147927957Y-112014217D01*
X147956095Y-111961574D01*
X147969493Y-111945249D01*
X148037447Y-111862446D01*
X148136576Y-111781094D01*
X148249665Y-111720646D01*
X148314430Y-111701000D01*
X148372383Y-111683420D01*
X148500000Y-111670851D01*
X148627618Y-111683420D01*
X148627618Y-111683420D01*
G37*
G36*
X150627618Y-111683420D02*
G01*
X150685571Y-111701000D01*
X150750336Y-111720646D01*
X150863425Y-111781094D01*
X150962554Y-111862446D01*
X151043906Y-111961575D01*
X151104354Y-112074664D01*
X151104355Y-112074668D01*
X151141580Y-112197382D01*
X151151000Y-112293027D01*
X151151000Y-112906973D01*
X151141580Y-113002618D01*
X151135200Y-113023649D01*
X151104354Y-113125336D01*
X151043906Y-113238425D01*
X150962554Y-113337553D01*
X150863424Y-113418906D01*
X150750335Y-113479354D01*
X150718403Y-113489040D01*
X150627617Y-113516580D01*
X150500000Y-113529149D01*
X150372382Y-113516580D01*
X150281596Y-113489040D01*
X150249664Y-113479354D01*
X150136575Y-113418906D01*
X150037447Y-113337554D01*
X149956094Y-113238424D01*
X149895646Y-113125335D01*
X149864800Y-113023649D01*
X149858420Y-113002617D01*
X149849000Y-112906972D01*
X149849000Y-112293027D01*
X149858420Y-112197382D01*
X149895645Y-112074668D01*
X149895645Y-112074667D01*
X149927957Y-112014217D01*
X149956095Y-111961574D01*
X149969493Y-111945249D01*
X150037447Y-111862446D01*
X150136576Y-111781094D01*
X150249665Y-111720646D01*
X150314430Y-111701000D01*
X150372383Y-111683420D01*
X150500000Y-111670851D01*
X150627618Y-111683420D01*
X150627618Y-111683420D01*
G37*
G36*
X138991242Y-111678404D02*
G01*
X139028337Y-111689657D01*
X139062515Y-111707925D01*
X139092481Y-111732519D01*
X139117075Y-111762485D01*
X139135343Y-111796663D01*
X139146596Y-111833758D01*
X139151000Y-111878474D01*
X139151000Y-113321526D01*
X139146596Y-113366242D01*
X139135343Y-113403337D01*
X139117075Y-113437515D01*
X139092481Y-113467481D01*
X139062515Y-113492075D01*
X139028337Y-113510343D01*
X138991242Y-113521596D01*
X138946526Y-113526000D01*
X138053474Y-113526000D01*
X138008758Y-113521596D01*
X137971663Y-113510343D01*
X137937485Y-113492075D01*
X137907519Y-113467481D01*
X137882925Y-113437515D01*
X137864657Y-113403337D01*
X137853404Y-113366242D01*
X137849000Y-113321526D01*
X137849000Y-111878474D01*
X137853404Y-111833758D01*
X137864657Y-111796663D01*
X137882925Y-111762485D01*
X137907519Y-111732519D01*
X137937485Y-111707925D01*
X137971663Y-111689657D01*
X138008758Y-111678404D01*
X138053474Y-111674000D01*
X138946526Y-111674000D01*
X138991242Y-111678404D01*
X138991242Y-111678404D01*
G37*
G36*
X152991242Y-111678404D02*
G01*
X153028337Y-111689657D01*
X153062515Y-111707925D01*
X153092481Y-111732519D01*
X153117075Y-111762485D01*
X153135343Y-111796663D01*
X153146596Y-111833758D01*
X153151000Y-111878474D01*
X153151000Y-113321526D01*
X153146596Y-113366242D01*
X153135343Y-113403337D01*
X153117075Y-113437515D01*
X153092481Y-113467481D01*
X153062515Y-113492075D01*
X153028337Y-113510343D01*
X152991242Y-113521596D01*
X152946526Y-113526000D01*
X152053474Y-113526000D01*
X152008758Y-113521596D01*
X151971663Y-113510343D01*
X151937485Y-113492075D01*
X151907519Y-113467481D01*
X151882925Y-113437515D01*
X151864657Y-113403337D01*
X151853404Y-113366242D01*
X151849000Y-113321526D01*
X151849000Y-111878474D01*
X151853404Y-111833758D01*
X151864657Y-111796663D01*
X151882925Y-111762485D01*
X151907519Y-111732519D01*
X151937485Y-111707925D01*
X151971663Y-111689657D01*
X152008758Y-111678404D01*
X152053474Y-111674000D01*
X152946526Y-111674000D01*
X152991242Y-111678404D01*
X152991242Y-111678404D01*
G37*
G36*
X126569683Y-112052725D02*
G01*
X126600143Y-112061966D01*
X126628223Y-112076974D01*
X126652831Y-112097169D01*
X126673026Y-112121777D01*
X126688034Y-112149857D01*
X126697275Y-112180317D01*
X126701000Y-112218140D01*
X126701000Y-112781860D01*
X126697275Y-112819683D01*
X126688034Y-112850143D01*
X126673026Y-112878223D01*
X126652831Y-112902831D01*
X126628223Y-112923026D01*
X126600143Y-112938034D01*
X126569683Y-112947275D01*
X126531860Y-112951000D01*
X125468140Y-112951000D01*
X125430317Y-112947275D01*
X125399857Y-112938034D01*
X125371777Y-112923026D01*
X125347169Y-112902831D01*
X125326974Y-112878223D01*
X125311966Y-112850143D01*
X125302725Y-112819683D01*
X125299000Y-112781860D01*
X125299000Y-112218140D01*
X125302725Y-112180317D01*
X125311966Y-112149857D01*
X125326974Y-112121777D01*
X125347169Y-112097169D01*
X125371777Y-112076974D01*
X125399857Y-112061966D01*
X125430317Y-112052725D01*
X125468140Y-112049000D01*
X126531860Y-112049000D01*
X126569683Y-112052725D01*
X126569683Y-112052725D01*
G37*
G36*
X118513500Y-112551000D02*
G01*
X116511500Y-112551000D01*
X116511500Y-110949000D01*
X118513500Y-110949000D01*
X118513500Y-112551000D01*
X118513500Y-112551000D01*
G37*
G36*
X197338855Y-110602140D02*
G01*
X197402618Y-110608420D01*
X197493404Y-110635960D01*
X197525336Y-110645646D01*
X197638425Y-110706094D01*
X197737554Y-110787446D01*
X197818906Y-110886575D01*
X197879354Y-110999664D01*
X197879355Y-110999668D01*
X197916580Y-111122382D01*
X197929149Y-111250000D01*
X197916580Y-111377618D01*
X197902684Y-111423426D01*
X197879354Y-111500336D01*
X197818906Y-111613425D01*
X197737554Y-111712554D01*
X197638425Y-111793906D01*
X197525336Y-111854354D01*
X197498660Y-111862446D01*
X197402618Y-111891580D01*
X197338855Y-111897860D01*
X197306974Y-111901000D01*
X196693026Y-111901000D01*
X196661145Y-111897860D01*
X196597382Y-111891580D01*
X196501340Y-111862446D01*
X196474664Y-111854354D01*
X196361575Y-111793906D01*
X196262446Y-111712554D01*
X196181094Y-111613425D01*
X196120646Y-111500336D01*
X196097316Y-111423426D01*
X196083420Y-111377618D01*
X196070851Y-111250000D01*
X196083420Y-111122382D01*
X196120645Y-110999668D01*
X196120646Y-110999664D01*
X196181094Y-110886575D01*
X196262446Y-110787446D01*
X196361575Y-110706094D01*
X196474664Y-110645646D01*
X196506596Y-110635960D01*
X196597382Y-110608420D01*
X196661145Y-110602140D01*
X196693026Y-110599000D01*
X197306974Y-110599000D01*
X197338855Y-110602140D01*
X197338855Y-110602140D01*
G37*
G36*
X126338410Y-110805525D02*
G01*
X126423426Y-110831314D01*
X126501775Y-110873193D01*
X126570449Y-110929551D01*
X126626807Y-110998225D01*
X126668686Y-111076574D01*
X126694475Y-111161590D01*
X126703182Y-111250000D01*
X126694475Y-111338410D01*
X126668686Y-111423426D01*
X126626807Y-111501775D01*
X126570449Y-111570449D01*
X126501775Y-111626807D01*
X126423426Y-111668686D01*
X126338410Y-111694475D01*
X126272158Y-111701000D01*
X125727842Y-111701000D01*
X125661590Y-111694475D01*
X125576574Y-111668686D01*
X125498225Y-111626807D01*
X125429551Y-111570449D01*
X125373193Y-111501775D01*
X125331314Y-111423426D01*
X125305525Y-111338410D01*
X125296818Y-111250000D01*
X125305525Y-111161590D01*
X125331314Y-111076574D01*
X125373193Y-110998225D01*
X125429551Y-110929551D01*
X125498225Y-110873193D01*
X125576574Y-110831314D01*
X125661590Y-110805525D01*
X125727842Y-110799000D01*
X126272158Y-110799000D01*
X126338410Y-110805525D01*
X126338410Y-110805525D01*
G37*
G36*
X170660721Y-110220174D02*
G01*
X170760995Y-110261709D01*
X170760996Y-110261710D01*
X170851242Y-110322010D01*
X170927990Y-110398758D01*
X170927991Y-110398760D01*
X170988291Y-110489005D01*
X171029826Y-110589279D01*
X171051000Y-110695730D01*
X171051000Y-110804270D01*
X171029826Y-110910721D01*
X170988291Y-111010995D01*
X170988290Y-111010996D01*
X170927990Y-111101242D01*
X170851242Y-111177990D01*
X170805812Y-111208345D01*
X170760995Y-111238291D01*
X170660721Y-111279826D01*
X170554270Y-111301000D01*
X170445730Y-111301000D01*
X170339279Y-111279826D01*
X170239005Y-111238291D01*
X170194188Y-111208345D01*
X170148758Y-111177990D01*
X170072010Y-111101242D01*
X170011710Y-111010996D01*
X170011709Y-111010995D01*
X169970174Y-110910721D01*
X169949000Y-110804270D01*
X169949000Y-110695730D01*
X169970174Y-110589279D01*
X170011709Y-110489005D01*
X170072009Y-110398760D01*
X170072010Y-110398758D01*
X170148758Y-110322010D01*
X170239004Y-110261710D01*
X170239005Y-110261709D01*
X170339279Y-110220174D01*
X170445730Y-110199000D01*
X170554270Y-110199000D01*
X170660721Y-110220174D01*
X170660721Y-110220174D01*
G37*
G36*
X118513500Y-110551000D02*
G01*
X116511500Y-110551000D01*
X116511500Y-108949000D01*
X118513500Y-108949000D01*
X118513500Y-110551000D01*
X118513500Y-110551000D01*
G37*
G36*
X126338410Y-109555525D02*
G01*
X126423426Y-109581314D01*
X126501775Y-109623193D01*
X126570449Y-109679551D01*
X126626807Y-109748225D01*
X126668686Y-109826574D01*
X126694475Y-109911590D01*
X126703182Y-110000000D01*
X126694475Y-110088410D01*
X126668686Y-110173426D01*
X126626807Y-110251775D01*
X126570449Y-110320449D01*
X126501775Y-110376807D01*
X126423426Y-110418686D01*
X126338410Y-110444475D01*
X126272158Y-110451000D01*
X125727842Y-110451000D01*
X125661590Y-110444475D01*
X125576574Y-110418686D01*
X125498225Y-110376807D01*
X125429551Y-110320449D01*
X125373193Y-110251775D01*
X125331314Y-110173426D01*
X125305525Y-110088410D01*
X125296818Y-110000000D01*
X125305525Y-109911590D01*
X125331314Y-109826574D01*
X125373193Y-109748225D01*
X125429551Y-109679551D01*
X125498225Y-109623193D01*
X125576574Y-109581314D01*
X125661590Y-109555525D01*
X125727842Y-109549000D01*
X126272158Y-109549000D01*
X126338410Y-109555525D01*
X126338410Y-109555525D01*
G37*
G36*
X141421000Y-108365660D02*
G01*
X141426382Y-108401945D01*
X141444475Y-108461590D01*
X141451000Y-108527842D01*
X141451000Y-109072158D01*
X141444475Y-109138410D01*
X141426382Y-109198055D01*
X141421000Y-109234340D01*
X141421000Y-110401000D01*
X140579000Y-110401000D01*
X140579000Y-109234340D01*
X140573618Y-109198055D01*
X140555525Y-109138410D01*
X140549000Y-109072158D01*
X140549000Y-108527843D01*
X140555525Y-108461591D01*
X140573618Y-108401946D01*
X140579000Y-108365661D01*
X140579000Y-107899000D01*
X141421000Y-107899000D01*
X141421000Y-108365660D01*
X141421000Y-108365660D01*
G37*
G36*
X143961000Y-110401000D02*
G01*
X143119000Y-110401000D01*
X143119000Y-109325240D01*
X143116598Y-109300854D01*
X143109485Y-109277405D01*
X143104239Y-109266314D01*
X143081315Y-109223427D01*
X143055525Y-109138410D01*
X143049000Y-109072158D01*
X143049000Y-108527843D01*
X143055525Y-108461591D01*
X143081314Y-108376575D01*
X143104240Y-108333685D01*
X143113617Y-108311046D01*
X143118398Y-108287013D01*
X143119000Y-108274760D01*
X143119000Y-107899000D01*
X143961000Y-107899000D01*
X143961000Y-110401000D01*
X143961000Y-110401000D01*
G37*
G36*
X142691000Y-108431592D02*
G01*
X142693402Y-108455978D01*
X142694259Y-108459400D01*
X142701000Y-108527842D01*
X142701000Y-109072158D01*
X142693830Y-109144954D01*
X142691602Y-109156156D01*
X142691000Y-109168408D01*
X142691000Y-110401000D01*
X141849000Y-110401000D01*
X141849000Y-109287824D01*
X141846598Y-109263438D01*
X141839485Y-109239989D01*
X141834239Y-109228898D01*
X141831315Y-109223427D01*
X141805525Y-109138410D01*
X141799000Y-109072158D01*
X141799000Y-108527843D01*
X141805525Y-108461591D01*
X141831315Y-108376574D01*
X141834239Y-108371103D01*
X141843617Y-108348464D01*
X141848398Y-108324431D01*
X141849000Y-108312177D01*
X141849000Y-107899000D01*
X142691000Y-107899000D01*
X142691000Y-108431592D01*
X142691000Y-108431592D01*
G37*
G36*
X140151000Y-108312176D02*
G01*
X140153402Y-108336562D01*
X140160515Y-108360011D01*
X140165761Y-108371102D01*
X140168685Y-108376573D01*
X140194475Y-108461590D01*
X140201000Y-108527842D01*
X140201000Y-109072158D01*
X140194475Y-109138410D01*
X140168685Y-109223427D01*
X140165761Y-109228898D01*
X140156383Y-109251537D01*
X140151602Y-109275570D01*
X140151000Y-109287824D01*
X140151000Y-110401000D01*
X139309000Y-110401000D01*
X139309000Y-109168408D01*
X139306598Y-109144022D01*
X139305741Y-109140600D01*
X139299000Y-109072158D01*
X139299000Y-108527843D01*
X139306170Y-108455047D01*
X139308398Y-108443845D01*
X139309000Y-108431593D01*
X139309000Y-107899000D01*
X140151000Y-107899000D01*
X140151000Y-108312176D01*
X140151000Y-108312176D01*
G37*
G36*
X138881000Y-108274759D02*
G01*
X138883402Y-108299145D01*
X138890515Y-108322594D01*
X138895760Y-108333684D01*
X138918686Y-108376574D01*
X138944475Y-108461590D01*
X138951000Y-108527842D01*
X138951000Y-109072158D01*
X138944475Y-109138410D01*
X138918686Y-109223426D01*
X138895760Y-109266316D01*
X138886383Y-109288955D01*
X138881602Y-109312988D01*
X138881000Y-109325241D01*
X138881000Y-110401000D01*
X138039000Y-110401000D01*
X138039000Y-107899000D01*
X138881000Y-107899000D01*
X138881000Y-108274759D01*
X138881000Y-108274759D01*
G37*
G36*
X197338855Y-108602140D02*
G01*
X197402618Y-108608420D01*
X197493404Y-108635960D01*
X197525336Y-108645646D01*
X197638425Y-108706094D01*
X197737554Y-108787446D01*
X197818906Y-108886575D01*
X197879354Y-108999664D01*
X197880838Y-109004556D01*
X197916580Y-109122382D01*
X197929149Y-109250000D01*
X197916580Y-109377618D01*
X197893764Y-109452831D01*
X197879354Y-109500336D01*
X197818906Y-109613425D01*
X197737554Y-109712554D01*
X197638425Y-109793906D01*
X197525336Y-109854354D01*
X197493404Y-109864040D01*
X197402618Y-109891580D01*
X197338855Y-109897860D01*
X197306974Y-109901000D01*
X196693026Y-109901000D01*
X196661145Y-109897860D01*
X196597382Y-109891580D01*
X196506596Y-109864040D01*
X196474664Y-109854354D01*
X196361575Y-109793906D01*
X196262446Y-109712554D01*
X196181094Y-109613425D01*
X196120646Y-109500336D01*
X196106236Y-109452831D01*
X196083420Y-109377618D01*
X196070851Y-109250000D01*
X196083420Y-109122382D01*
X196119162Y-109004556D01*
X196120646Y-108999664D01*
X196181094Y-108886575D01*
X196262446Y-108787446D01*
X196361575Y-108706094D01*
X196474664Y-108645646D01*
X196506596Y-108635960D01*
X196597382Y-108608420D01*
X196661145Y-108602140D01*
X196693026Y-108599000D01*
X197306974Y-108599000D01*
X197338855Y-108602140D01*
X197338855Y-108602140D01*
G37*
G36*
X137569683Y-108102725D02*
G01*
X137600143Y-108111966D01*
X137628223Y-108126974D01*
X137652831Y-108147169D01*
X137673026Y-108171777D01*
X137688034Y-108199857D01*
X137697275Y-108230317D01*
X137701000Y-108268140D01*
X137701000Y-109331860D01*
X137697275Y-109369683D01*
X137688034Y-109400143D01*
X137673026Y-109428223D01*
X137652831Y-109452831D01*
X137628223Y-109473026D01*
X137600143Y-109488034D01*
X137569683Y-109497275D01*
X137531860Y-109501000D01*
X136968140Y-109501000D01*
X136930317Y-109497275D01*
X136899857Y-109488034D01*
X136871777Y-109473026D01*
X136847169Y-109452831D01*
X136826974Y-109428223D01*
X136811966Y-109400143D01*
X136802725Y-109369683D01*
X136799000Y-109331860D01*
X136799000Y-108268140D01*
X136802725Y-108230317D01*
X136811966Y-108199857D01*
X136826974Y-108171777D01*
X136847169Y-108147169D01*
X136871777Y-108126974D01*
X136899857Y-108111966D01*
X136930317Y-108102725D01*
X136968140Y-108099000D01*
X137531860Y-108099000D01*
X137569683Y-108102725D01*
X137569683Y-108102725D01*
G37*
G36*
X126338410Y-108305525D02*
G01*
X126423426Y-108331314D01*
X126501775Y-108373193D01*
X126570449Y-108429551D01*
X126626807Y-108498225D01*
X126668686Y-108576574D01*
X126694475Y-108661590D01*
X126703182Y-108750000D01*
X126694475Y-108838410D01*
X126668686Y-108923426D01*
X126626807Y-109001775D01*
X126570449Y-109070449D01*
X126501775Y-109126807D01*
X126423426Y-109168686D01*
X126338410Y-109194475D01*
X126272158Y-109201000D01*
X125727842Y-109201000D01*
X125661590Y-109194475D01*
X125576574Y-109168686D01*
X125498225Y-109126807D01*
X125429551Y-109070449D01*
X125373193Y-109001775D01*
X125331314Y-108923426D01*
X125305525Y-108838410D01*
X125296818Y-108750000D01*
X125305525Y-108661590D01*
X125331314Y-108576574D01*
X125373193Y-108498225D01*
X125429551Y-108429551D01*
X125498225Y-108373193D01*
X125576574Y-108331314D01*
X125661590Y-108305525D01*
X125727842Y-108299000D01*
X126272158Y-108299000D01*
X126338410Y-108305525D01*
X126338410Y-108305525D01*
G37*
G36*
X117926355Y-106602140D02*
G01*
X117990118Y-106608420D01*
X118080904Y-106635960D01*
X118112836Y-106645646D01*
X118225925Y-106706094D01*
X118325054Y-106787446D01*
X118406406Y-106886575D01*
X118466854Y-106999664D01*
X118466855Y-106999668D01*
X118500413Y-107110292D01*
X118509787Y-107132925D01*
X118513500Y-107138482D01*
X118513500Y-107211886D01*
X118514102Y-107224138D01*
X118516649Y-107250000D01*
X118514102Y-107275862D01*
X118513500Y-107288114D01*
X118513500Y-108501000D01*
X116511500Y-108501000D01*
X116511500Y-107288114D01*
X116510898Y-107275862D01*
X116508351Y-107250000D01*
X116510898Y-107224138D01*
X116511500Y-107211886D01*
X116511500Y-107138594D01*
X116520457Y-107121836D01*
X116524585Y-107110299D01*
X116558145Y-106999668D01*
X116558146Y-106999664D01*
X116618594Y-106886575D01*
X116699946Y-106787446D01*
X116799075Y-106706094D01*
X116912164Y-106645646D01*
X116944096Y-106635960D01*
X117034882Y-106608420D01*
X117098645Y-106602140D01*
X117130526Y-106599000D01*
X117894474Y-106599000D01*
X117926355Y-106602140D01*
X117926355Y-106602140D01*
G37*
G36*
X174410721Y-106970174D02*
G01*
X174510995Y-107011709D01*
X174510996Y-107011710D01*
X174601242Y-107072010D01*
X174677990Y-107148758D01*
X174677991Y-107148760D01*
X174738291Y-107239005D01*
X174779826Y-107339279D01*
X174801000Y-107445730D01*
X174801000Y-107554270D01*
X174779826Y-107660721D01*
X174738291Y-107760995D01*
X174738290Y-107760996D01*
X174677990Y-107851242D01*
X174601242Y-107927990D01*
X174555812Y-107958345D01*
X174510995Y-107988291D01*
X174410721Y-108029826D01*
X174304270Y-108051000D01*
X174195730Y-108051000D01*
X174089279Y-108029826D01*
X173989005Y-107988291D01*
X173944188Y-107958345D01*
X173898758Y-107927990D01*
X173822010Y-107851242D01*
X173761710Y-107760996D01*
X173761709Y-107760995D01*
X173720174Y-107660721D01*
X173699000Y-107554270D01*
X173699000Y-107445730D01*
X173720174Y-107339279D01*
X173761709Y-107239005D01*
X173822009Y-107148760D01*
X173822010Y-107148758D01*
X173898758Y-107072010D01*
X173989004Y-107011710D01*
X173989005Y-107011709D01*
X174089279Y-106970174D01*
X174195730Y-106949000D01*
X174304270Y-106949000D01*
X174410721Y-106970174D01*
X174410721Y-106970174D01*
G37*
G36*
X197338855Y-106602140D02*
G01*
X197402618Y-106608420D01*
X197493404Y-106635960D01*
X197525336Y-106645646D01*
X197638425Y-106706094D01*
X197737554Y-106787446D01*
X197818906Y-106886575D01*
X197879354Y-106999664D01*
X197879355Y-106999668D01*
X197916580Y-107122382D01*
X197929149Y-107250000D01*
X197916580Y-107377618D01*
X197895918Y-107445730D01*
X197879354Y-107500336D01*
X197818906Y-107613425D01*
X197737554Y-107712554D01*
X197638425Y-107793906D01*
X197525336Y-107854354D01*
X197493404Y-107864040D01*
X197402618Y-107891580D01*
X197338855Y-107897860D01*
X197306974Y-107901000D01*
X196693026Y-107901000D01*
X196661145Y-107897860D01*
X196597382Y-107891580D01*
X196506596Y-107864040D01*
X196474664Y-107854354D01*
X196361575Y-107793906D01*
X196262446Y-107712554D01*
X196181094Y-107613425D01*
X196120646Y-107500336D01*
X196104082Y-107445730D01*
X196083420Y-107377618D01*
X196070851Y-107250000D01*
X196083420Y-107122382D01*
X196120645Y-106999668D01*
X196120646Y-106999664D01*
X196181094Y-106886575D01*
X196262446Y-106787446D01*
X196361575Y-106706094D01*
X196474664Y-106645646D01*
X196506596Y-106635960D01*
X196597382Y-106608420D01*
X196661145Y-106602140D01*
X196693026Y-106599000D01*
X197306974Y-106599000D01*
X197338855Y-106602140D01*
X197338855Y-106602140D01*
G37*
G36*
X141421000Y-106501000D02*
G01*
X140579000Y-106501000D01*
X140579000Y-103999000D01*
X141421000Y-103999000D01*
X141421000Y-106501000D01*
X141421000Y-106501000D01*
G37*
G36*
X140151000Y-106501000D02*
G01*
X139309000Y-106501000D01*
X139309000Y-103999000D01*
X140151000Y-103999000D01*
X140151000Y-106501000D01*
X140151000Y-106501000D01*
G37*
G36*
X138881000Y-106501000D02*
G01*
X138039000Y-106501000D01*
X138039000Y-103999000D01*
X138881000Y-103999000D01*
X138881000Y-106501000D01*
X138881000Y-106501000D01*
G37*
G36*
X142691000Y-106501000D02*
G01*
X141849000Y-106501000D01*
X141849000Y-103999000D01*
X142691000Y-103999000D01*
X142691000Y-106501000D01*
X142691000Y-106501000D01*
G37*
G36*
X143961000Y-106501000D02*
G01*
X143119000Y-106501000D01*
X143119000Y-103999000D01*
X143961000Y-103999000D01*
X143961000Y-106501000D01*
X143961000Y-106501000D01*
G37*
G36*
X197338855Y-104602140D02*
G01*
X197402618Y-104608420D01*
X197493404Y-104635960D01*
X197525336Y-104645646D01*
X197638425Y-104706094D01*
X197737554Y-104787446D01*
X197818906Y-104886575D01*
X197879354Y-104999664D01*
X197879355Y-104999668D01*
X197916580Y-105122382D01*
X197929149Y-105250000D01*
X197916580Y-105377618D01*
X197889040Y-105468404D01*
X197879354Y-105500336D01*
X197818906Y-105613425D01*
X197737554Y-105712554D01*
X197638425Y-105793906D01*
X197525336Y-105854354D01*
X197493404Y-105864040D01*
X197402618Y-105891580D01*
X197338855Y-105897860D01*
X197306974Y-105901000D01*
X196693026Y-105901000D01*
X196661145Y-105897860D01*
X196597382Y-105891580D01*
X196506596Y-105864040D01*
X196474664Y-105854354D01*
X196361575Y-105793906D01*
X196262446Y-105712554D01*
X196181094Y-105613425D01*
X196120646Y-105500336D01*
X196110960Y-105468404D01*
X196083420Y-105377618D01*
X196070851Y-105250000D01*
X196083420Y-105122382D01*
X196120645Y-104999668D01*
X196120646Y-104999664D01*
X196181094Y-104886575D01*
X196262446Y-104787446D01*
X196361575Y-104706094D01*
X196474664Y-104645646D01*
X196506596Y-104635960D01*
X196597382Y-104608420D01*
X196661145Y-104602140D01*
X196693026Y-104599000D01*
X197306974Y-104599000D01*
X197338855Y-104602140D01*
X197338855Y-104602140D01*
G37*
G36*
X197338855Y-102602140D02*
G01*
X197402618Y-102608420D01*
X197493404Y-102635960D01*
X197525336Y-102645646D01*
X197638425Y-102706094D01*
X197737554Y-102787446D01*
X197818906Y-102886575D01*
X197879354Y-102999664D01*
X197879355Y-102999668D01*
X197916580Y-103122382D01*
X197929149Y-103250000D01*
X197916580Y-103377618D01*
X197889040Y-103468404D01*
X197879354Y-103500336D01*
X197818906Y-103613425D01*
X197737554Y-103712554D01*
X197638425Y-103793906D01*
X197525336Y-103854354D01*
X197493404Y-103864040D01*
X197402618Y-103891580D01*
X197338855Y-103897860D01*
X197306974Y-103901000D01*
X196693026Y-103901000D01*
X196661145Y-103897860D01*
X196597382Y-103891580D01*
X196506596Y-103864040D01*
X196474664Y-103854354D01*
X196361575Y-103793906D01*
X196262446Y-103712554D01*
X196181094Y-103613425D01*
X196120646Y-103500336D01*
X196110960Y-103468404D01*
X196083420Y-103377618D01*
X196070851Y-103250000D01*
X196083420Y-103122382D01*
X196120645Y-102999668D01*
X196120646Y-102999664D01*
X196181094Y-102886575D01*
X196262446Y-102787446D01*
X196361575Y-102706094D01*
X196474664Y-102645646D01*
X196506596Y-102635960D01*
X196597382Y-102608420D01*
X196661145Y-102602140D01*
X196693026Y-102599000D01*
X197306974Y-102599000D01*
X197338855Y-102602140D01*
X197338855Y-102602140D01*
G37*
G36*
X197338855Y-100602140D02*
G01*
X197402618Y-100608420D01*
X197493404Y-100635960D01*
X197525336Y-100645646D01*
X197638425Y-100706094D01*
X197737554Y-100787446D01*
X197818906Y-100886575D01*
X197879354Y-100999664D01*
X197879355Y-100999668D01*
X197916580Y-101122382D01*
X197929149Y-101250000D01*
X197916580Y-101377618D01*
X197889040Y-101468404D01*
X197879354Y-101500336D01*
X197818906Y-101613425D01*
X197737554Y-101712554D01*
X197638425Y-101793906D01*
X197525336Y-101854354D01*
X197493404Y-101864040D01*
X197402618Y-101891580D01*
X197338855Y-101897860D01*
X197306974Y-101901000D01*
X196693026Y-101901000D01*
X196661145Y-101897860D01*
X196597382Y-101891580D01*
X196506596Y-101864040D01*
X196474664Y-101854354D01*
X196361575Y-101793906D01*
X196262446Y-101712554D01*
X196181094Y-101613425D01*
X196120646Y-101500336D01*
X196110960Y-101468404D01*
X196083420Y-101377618D01*
X196070851Y-101250000D01*
X196083420Y-101122382D01*
X196120645Y-100999668D01*
X196120646Y-100999664D01*
X196181094Y-100886575D01*
X196262446Y-100787446D01*
X196361575Y-100706094D01*
X196474664Y-100645646D01*
X196506596Y-100635960D01*
X196597382Y-100608420D01*
X196661145Y-100602140D01*
X196693026Y-100599000D01*
X197306974Y-100599000D01*
X197338855Y-100602140D01*
X197338855Y-100602140D01*
G37*
G36*
X197766242Y-98603404D02*
G01*
X197803337Y-98614657D01*
X197837515Y-98632925D01*
X197867481Y-98657519D01*
X197892075Y-98687485D01*
X197910343Y-98721663D01*
X197921596Y-98758758D01*
X197926000Y-98803474D01*
X197926000Y-99696526D01*
X197921596Y-99741242D01*
X197910343Y-99778337D01*
X197892075Y-99812515D01*
X197867481Y-99842481D01*
X197837515Y-99867075D01*
X197803337Y-99885343D01*
X197766242Y-99896596D01*
X197721526Y-99901000D01*
X196278474Y-99901000D01*
X196233758Y-99896596D01*
X196196663Y-99885343D01*
X196162485Y-99867075D01*
X196132519Y-99842481D01*
X196107925Y-99812515D01*
X196089657Y-99778337D01*
X196078404Y-99741242D01*
X196074000Y-99696526D01*
X196074000Y-98803474D01*
X196078404Y-98758758D01*
X196089657Y-98721663D01*
X196107925Y-98687485D01*
X196132519Y-98657519D01*
X196162485Y-98632925D01*
X196196663Y-98614657D01*
X196233758Y-98603404D01*
X196278474Y-98599000D01*
X197721526Y-98599000D01*
X197766242Y-98603404D01*
X197766242Y-98603404D01*
G37*
G36*
X127396905Y-95458789D02*
G01*
X127695350Y-95518153D01*
X128023122Y-95653921D01*
X128318109Y-95851025D01*
X128568975Y-96101891D01*
X128766079Y-96396878D01*
X128901847Y-96724650D01*
X128971060Y-97072611D01*
X128971060Y-97427389D01*
X128901847Y-97775350D01*
X128766079Y-98103122D01*
X128568975Y-98398109D01*
X128318109Y-98648975D01*
X128023122Y-98846079D01*
X127695350Y-98981847D01*
X127396905Y-99041211D01*
X127347390Y-99051060D01*
X126992610Y-99051060D01*
X126943095Y-99041211D01*
X126644650Y-98981847D01*
X126316878Y-98846079D01*
X126021891Y-98648975D01*
X125771025Y-98398109D01*
X125573921Y-98103122D01*
X125438153Y-97775350D01*
X125368940Y-97427389D01*
X125368940Y-97072611D01*
X125438153Y-96724650D01*
X125573921Y-96396878D01*
X125771025Y-96101891D01*
X126021891Y-95851025D01*
X126316878Y-95653921D01*
X126644650Y-95518153D01*
X126943095Y-95458789D01*
X126992610Y-95448940D01*
X127347390Y-95448940D01*
X127396905Y-95458789D01*
X127396905Y-95458789D01*
G37*
G36*
X134051060Y-99051060D02*
G01*
X130448940Y-99051060D01*
X130448940Y-95448940D01*
X134051060Y-95448940D01*
X134051060Y-99051060D01*
X134051060Y-99051060D01*
G37*
G36*
X182396905Y-94958789D02*
G01*
X182695350Y-95018153D01*
X183023122Y-95153921D01*
X183318109Y-95351025D01*
X183568975Y-95601891D01*
X183766079Y-95896878D01*
X183901847Y-96224650D01*
X183971060Y-96572611D01*
X183971060Y-96927389D01*
X183901847Y-97275350D01*
X183766079Y-97603122D01*
X183568975Y-97898109D01*
X183318109Y-98148975D01*
X183023122Y-98346079D01*
X182695350Y-98481847D01*
X182396905Y-98541211D01*
X182347390Y-98551060D01*
X181992610Y-98551060D01*
X181943095Y-98541211D01*
X181644650Y-98481847D01*
X181316878Y-98346079D01*
X181021891Y-98148975D01*
X180771025Y-97898109D01*
X180573921Y-97603122D01*
X180438153Y-97275350D01*
X180368940Y-96927389D01*
X180368940Y-96572611D01*
X180438153Y-96224650D01*
X180573921Y-95896878D01*
X180771025Y-95601891D01*
X181021891Y-95351025D01*
X181316878Y-95153921D01*
X181644650Y-95018153D01*
X181943095Y-94958789D01*
X181992610Y-94948940D01*
X182347390Y-94948940D01*
X182396905Y-94958789D01*
X182396905Y-94958789D01*
G37*
G36*
X189051060Y-98551060D02*
G01*
X185448940Y-98551060D01*
X185448940Y-94948940D01*
X189051060Y-94948940D01*
X189051060Y-98551060D01*
X189051060Y-98551060D01*
G37*
G36*
X162051060Y-98051060D02*
G01*
X158448940Y-98051060D01*
X158448940Y-94448940D01*
X162051060Y-94448940D01*
X162051060Y-98051060D01*
X162051060Y-98051060D01*
G37*
G36*
X155396905Y-94458789D02*
G01*
X155695350Y-94518153D01*
X156023122Y-94653921D01*
X156318109Y-94851025D01*
X156568975Y-95101891D01*
X156766079Y-95396878D01*
X156901847Y-95724650D01*
X156971060Y-96072611D01*
X156971060Y-96427389D01*
X156901847Y-96775350D01*
X156766079Y-97103122D01*
X156568975Y-97398109D01*
X156318109Y-97648975D01*
X156023122Y-97846079D01*
X155695350Y-97981847D01*
X155396905Y-98041211D01*
X155347390Y-98051060D01*
X154992610Y-98051060D01*
X154943095Y-98041211D01*
X154644650Y-97981847D01*
X154316878Y-97846079D01*
X154021891Y-97648975D01*
X153771025Y-97398109D01*
X153573921Y-97103122D01*
X153438153Y-96775350D01*
X153368940Y-96427389D01*
X153368940Y-96072611D01*
X153438153Y-95724650D01*
X153573921Y-95396878D01*
X153771025Y-95101891D01*
X154021891Y-94851025D01*
X154316878Y-94653921D01*
X154644650Y-94518153D01*
X154943095Y-94458789D01*
X154992610Y-94448940D01*
X155347390Y-94448940D01*
X155396905Y-94458789D01*
X155396905Y-94458789D01*
G37*
G36*
X162889943Y-57916248D02*
G01*
X163445189Y-58146238D01*
X163445190Y-58146239D01*
X163944899Y-58480134D01*
X164369866Y-58905101D01*
X164369867Y-58905103D01*
X164703762Y-59404811D01*
X164933752Y-59960057D01*
X165051000Y-60549501D01*
X165051000Y-61150499D01*
X164933752Y-61739943D01*
X164703762Y-62295189D01*
X164703761Y-62295190D01*
X164369866Y-62794899D01*
X163944899Y-63219866D01*
X163693347Y-63387948D01*
X163445189Y-63553762D01*
X162889943Y-63783752D01*
X162300499Y-63901000D01*
X161699501Y-63901000D01*
X161110057Y-63783752D01*
X160554811Y-63553762D01*
X160306653Y-63387948D01*
X160055101Y-63219866D01*
X159630134Y-62794899D01*
X159296239Y-62295190D01*
X159296238Y-62295189D01*
X159066248Y-61739943D01*
X158949000Y-61150499D01*
X158949000Y-60549501D01*
X159066248Y-59960057D01*
X159296238Y-59404811D01*
X159630133Y-58905103D01*
X159630134Y-58905101D01*
X160055101Y-58480134D01*
X160554810Y-58146239D01*
X160554811Y-58146238D01*
X161110057Y-57916248D01*
X161699501Y-57799000D01*
X162300499Y-57799000D01*
X162889943Y-57916248D01*
X162889943Y-57916248D01*
G37*
G36*
X149364903Y-59797075D02*
G01*
X149592571Y-59891378D01*
X149797466Y-60028285D01*
X149971715Y-60202534D01*
X149971716Y-60202536D01*
X150108623Y-60407431D01*
X150202925Y-60635097D01*
X150251000Y-60876786D01*
X150251000Y-61123214D01*
X150202925Y-61364903D01*
X150108622Y-61592571D01*
X149971715Y-61797466D01*
X149797466Y-61971715D01*
X149592571Y-62108622D01*
X149592570Y-62108623D01*
X149592569Y-62108623D01*
X149364903Y-62202925D01*
X149123214Y-62251000D01*
X148876786Y-62251000D01*
X148635097Y-62202925D01*
X148407431Y-62108623D01*
X148407430Y-62108623D01*
X148407429Y-62108622D01*
X148202534Y-61971715D01*
X148028285Y-61797466D01*
X147891378Y-61592571D01*
X147797075Y-61364903D01*
X147749000Y-61123214D01*
X147749000Y-60876786D01*
X147797075Y-60635097D01*
X147891377Y-60407431D01*
X148028284Y-60202536D01*
X148028285Y-60202534D01*
X148202534Y-60028285D01*
X148407429Y-59891378D01*
X148635097Y-59797075D01*
X148876786Y-59749000D01*
X149123214Y-59749000D01*
X149364903Y-59797075D01*
X149364903Y-59797075D01*
G37*
G36*
X191864903Y-59797075D02*
G01*
X192092571Y-59891378D01*
X192297466Y-60028285D01*
X192471715Y-60202534D01*
X192471716Y-60202536D01*
X192608623Y-60407431D01*
X192702925Y-60635097D01*
X192751000Y-60876786D01*
X192751000Y-61123214D01*
X192702925Y-61364903D01*
X192608622Y-61592571D01*
X192471715Y-61797466D01*
X192297466Y-61971715D01*
X192092571Y-62108622D01*
X192092570Y-62108623D01*
X192092569Y-62108623D01*
X191864903Y-62202925D01*
X191623214Y-62251000D01*
X191376786Y-62251000D01*
X191135097Y-62202925D01*
X190907431Y-62108623D01*
X190907430Y-62108623D01*
X190907429Y-62108622D01*
X190702534Y-61971715D01*
X190528285Y-61797466D01*
X190391378Y-61592571D01*
X190297075Y-61364903D01*
X190249000Y-61123214D01*
X190249000Y-60876786D01*
X190297075Y-60635097D01*
X190391377Y-60407431D01*
X190528284Y-60202536D01*
X190528285Y-60202534D01*
X190702534Y-60028285D01*
X190907429Y-59891378D01*
X191135097Y-59797075D01*
X191376786Y-59749000D01*
X191623214Y-59749000D01*
X191864903Y-59797075D01*
X191864903Y-59797075D01*
G37*
G36*
X175364903Y-59797075D02*
G01*
X175592571Y-59891378D01*
X175797466Y-60028285D01*
X175971715Y-60202534D01*
X175971716Y-60202536D01*
X176108623Y-60407431D01*
X176202925Y-60635097D01*
X176251000Y-60876786D01*
X176251000Y-61123214D01*
X176202925Y-61364903D01*
X176108622Y-61592571D01*
X175971715Y-61797466D01*
X175797466Y-61971715D01*
X175592571Y-62108622D01*
X175592570Y-62108623D01*
X175592569Y-62108623D01*
X175364903Y-62202925D01*
X175123214Y-62251000D01*
X174876786Y-62251000D01*
X174635097Y-62202925D01*
X174407431Y-62108623D01*
X174407430Y-62108623D01*
X174407429Y-62108622D01*
X174202534Y-61971715D01*
X174028285Y-61797466D01*
X173891378Y-61592571D01*
X173797075Y-61364903D01*
X173749000Y-61123214D01*
X173749000Y-60876786D01*
X173797075Y-60635097D01*
X173891377Y-60407431D01*
X174028284Y-60202536D01*
X174028285Y-60202534D01*
X174202534Y-60028285D01*
X174407429Y-59891378D01*
X174635097Y-59797075D01*
X174876786Y-59749000D01*
X175123214Y-59749000D01*
X175364903Y-59797075D01*
X175364903Y-59797075D01*
G37*
G36*
X128864903Y-59797075D02*
G01*
X129092571Y-59891378D01*
X129297466Y-60028285D01*
X129471715Y-60202534D01*
X129471716Y-60202536D01*
X129608623Y-60407431D01*
X129702925Y-60635097D01*
X129751000Y-60876786D01*
X129751000Y-61123214D01*
X129702925Y-61364903D01*
X129608622Y-61592571D01*
X129471715Y-61797466D01*
X129297466Y-61971715D01*
X129092571Y-62108622D01*
X129092570Y-62108623D01*
X129092569Y-62108623D01*
X128864903Y-62202925D01*
X128623214Y-62251000D01*
X128376786Y-62251000D01*
X128135097Y-62202925D01*
X127907431Y-62108623D01*
X127907430Y-62108623D01*
X127907429Y-62108622D01*
X127702534Y-61971715D01*
X127528285Y-61797466D01*
X127391378Y-61592571D01*
X127297075Y-61364903D01*
X127249000Y-61123214D01*
X127249000Y-60876786D01*
X127297075Y-60635097D01*
X127391377Y-60407431D01*
X127528284Y-60202536D01*
X127528285Y-60202534D01*
X127702534Y-60028285D01*
X127907429Y-59891378D01*
X128135097Y-59797075D01*
X128376786Y-59749000D01*
X128623214Y-59749000D01*
X128864903Y-59797075D01*
X128864903Y-59797075D01*
G37*
G36*
X162889943Y-50716248D02*
G01*
X163445189Y-50946238D01*
X163445190Y-50946239D01*
X163944899Y-51280134D01*
X164369866Y-51705101D01*
X164369867Y-51705103D01*
X164703762Y-52204811D01*
X164933752Y-52760057D01*
X165051000Y-53349501D01*
X165051000Y-53950499D01*
X164933752Y-54539943D01*
X164703762Y-55095189D01*
X164703761Y-55095190D01*
X164369866Y-55594899D01*
X163944899Y-56019866D01*
X163693347Y-56187948D01*
X163445189Y-56353762D01*
X162889943Y-56583752D01*
X162300499Y-56701000D01*
X161699501Y-56701000D01*
X161110057Y-56583752D01*
X160554811Y-56353762D01*
X160306653Y-56187948D01*
X160055101Y-56019866D01*
X159630134Y-55594899D01*
X159296239Y-55095190D01*
X159296238Y-55095189D01*
X159066248Y-54539943D01*
X158949000Y-53950499D01*
X158949000Y-53349501D01*
X159066248Y-52760057D01*
X159296238Y-52204811D01*
X159630133Y-51705103D01*
X159630134Y-51705101D01*
X160055101Y-51280134D01*
X160554810Y-50946239D01*
X160554811Y-50946238D01*
X161110057Y-50716248D01*
X161699501Y-50599000D01*
X162300499Y-50599000D01*
X162889943Y-50716248D01*
X162889943Y-50716248D01*
G37*
G36*
X150251000Y-54751000D02*
G01*
X147749000Y-54751000D01*
X147749000Y-52249000D01*
X150251000Y-52249000D01*
X150251000Y-54751000D01*
X150251000Y-54751000D01*
G37*
G36*
X129751000Y-54751000D02*
G01*
X127249000Y-54751000D01*
X127249000Y-52249000D01*
X129751000Y-52249000D01*
X129751000Y-54751000D01*
X129751000Y-54751000D01*
G37*
G36*
X176251000Y-54751000D02*
G01*
X173749000Y-54751000D01*
X173749000Y-52249000D01*
X176251000Y-52249000D01*
X176251000Y-54751000D01*
X176251000Y-54751000D01*
G37*
G36*
X192751000Y-54751000D02*
G01*
X190249000Y-54751000D01*
X190249000Y-52249000D01*
X192751000Y-52249000D01*
X192751000Y-54751000D01*
X192751000Y-54751000D01*
G37*
M02*
