G04 #@! TF.GenerationSoftware,KiCad,Pcbnew,(5.1.2)-2*
G04 #@! TF.CreationDate,2020-12-15T14:43:02+00:00*
G04 #@! TF.ProjectId,INV_Board,494e565f-426f-4617-9264-2e6b69636164,rev?*
G04 #@! TF.SameCoordinates,Original*
G04 #@! TF.FileFunction,Legend,Bot*
G04 #@! TF.FilePolarity,Positive*
%FSLAX46Y46*%
G04 Gerber Fmt 4.6, Leading zero omitted, Abs format (unit mm)*
G04 Created by KiCad (PCBNEW (5.1.2)-2) date 2020-12-15 14:43:02*
%MOMM*%
%LPD*%
G04 APERTURE LIST*
%ADD10C,0.125000*%
%ADD11C,0.150000*%
%ADD12C,0.200000*%
%ADD13C,0.120000*%
G04 APERTURE END LIST*
D10*
X124217261Y-107714285D02*
X124264880Y-107785714D01*
X124264880Y-107904761D01*
X124217261Y-107952380D01*
X124169642Y-107976190D01*
X124074404Y-108000000D01*
X123979166Y-108000000D01*
X123883928Y-107976190D01*
X123836309Y-107952380D01*
X123788690Y-107904761D01*
X123741071Y-107809523D01*
X123693452Y-107761904D01*
X123645833Y-107738095D01*
X123550595Y-107714285D01*
X123455357Y-107714285D01*
X123360119Y-107738095D01*
X123312500Y-107761904D01*
X123264880Y-107809523D01*
X123264880Y-107928571D01*
X123312500Y-108000000D01*
X124264880Y-108214285D02*
X123264880Y-108214285D01*
X123264880Y-108333333D01*
X123312500Y-108404761D01*
X123407738Y-108452380D01*
X123502976Y-108476190D01*
X123693452Y-108500000D01*
X123836309Y-108500000D01*
X124026785Y-108476190D01*
X124122023Y-108452380D01*
X124217261Y-108404761D01*
X124264880Y-108333333D01*
X124264880Y-108214285D01*
X123979166Y-108690476D02*
X123979166Y-108928571D01*
X124264880Y-108642857D02*
X123264880Y-108809523D01*
X124264880Y-108976190D01*
X124217261Y-109500000D02*
X124264880Y-109571428D01*
X124264880Y-109690476D01*
X124217261Y-109738095D01*
X124169642Y-109761904D01*
X124074404Y-109785714D01*
X123979166Y-109785714D01*
X123883928Y-109761904D01*
X123836309Y-109738095D01*
X123788690Y-109690476D01*
X123741071Y-109595238D01*
X123693452Y-109547619D01*
X123645833Y-109523809D01*
X123550595Y-109500000D01*
X123455357Y-109500000D01*
X123360119Y-109523809D01*
X123312500Y-109547619D01*
X123264880Y-109595238D01*
X123264880Y-109714285D01*
X123312500Y-109785714D01*
X124169642Y-110285714D02*
X124217261Y-110261904D01*
X124264880Y-110190476D01*
X124264880Y-110142857D01*
X124217261Y-110071428D01*
X124122023Y-110023809D01*
X124026785Y-110000000D01*
X123836309Y-109976190D01*
X123693452Y-109976190D01*
X123502976Y-110000000D01*
X123407738Y-110023809D01*
X123312500Y-110071428D01*
X123264880Y-110142857D01*
X123264880Y-110190476D01*
X123312500Y-110261904D01*
X123360119Y-110285714D01*
X124264880Y-110738095D02*
X124264880Y-110500000D01*
X123264880Y-110500000D01*
X123264880Y-111238095D02*
X123264880Y-111547619D01*
X123645833Y-111380952D01*
X123645833Y-111452380D01*
X123693452Y-111500000D01*
X123741071Y-111523809D01*
X123836309Y-111547619D01*
X124074404Y-111547619D01*
X124169642Y-111523809D01*
X124217261Y-111500000D01*
X124264880Y-111452380D01*
X124264880Y-111309523D01*
X124217261Y-111261904D01*
X124169642Y-111238095D01*
X123598214Y-111714285D02*
X124264880Y-111833333D01*
X123598214Y-111952380D01*
X123264880Y-112095238D02*
X123264880Y-112404761D01*
X123645833Y-112238095D01*
X123645833Y-112309523D01*
X123693452Y-112357142D01*
X123741071Y-112380952D01*
X123836309Y-112404761D01*
X124074404Y-112404761D01*
X124169642Y-112380952D01*
X124217261Y-112357142D01*
X124264880Y-112309523D01*
X124264880Y-112166666D01*
X124217261Y-112119047D01*
X124169642Y-112095238D01*
X123312500Y-113261904D02*
X123264880Y-113214285D01*
X123264880Y-113142857D01*
X123312500Y-113071428D01*
X123407738Y-113023809D01*
X123502976Y-113000000D01*
X123693452Y-112976190D01*
X123836309Y-112976190D01*
X124026785Y-113000000D01*
X124122023Y-113023809D01*
X124217261Y-113071428D01*
X124264880Y-113142857D01*
X124264880Y-113190476D01*
X124217261Y-113261904D01*
X124169642Y-113285714D01*
X123836309Y-113285714D01*
X123836309Y-113190476D01*
D11*
X191769166Y-109435714D02*
X191769166Y-110245238D01*
X191807261Y-110340476D01*
X191845357Y-110388095D01*
X191921547Y-110435714D01*
X192035833Y-110435714D01*
X192112023Y-110388095D01*
X191769166Y-110054761D02*
X191845357Y-110102380D01*
X191997738Y-110102380D01*
X192073928Y-110054761D01*
X192112023Y-110007142D01*
X192150119Y-109911904D01*
X192150119Y-109626190D01*
X192112023Y-109530952D01*
X192073928Y-109483333D01*
X191997738Y-109435714D01*
X191845357Y-109435714D01*
X191769166Y-109483333D01*
X191388214Y-110102380D02*
X191388214Y-109435714D01*
X191388214Y-109102380D02*
X191426309Y-109150000D01*
X191388214Y-109197619D01*
X191350119Y-109150000D01*
X191388214Y-109102380D01*
X191388214Y-109197619D01*
X191121547Y-109435714D02*
X190816785Y-109435714D01*
X191007261Y-109102380D02*
X191007261Y-109959523D01*
X190969166Y-110054761D01*
X190892976Y-110102380D01*
X190816785Y-110102380D01*
X190550119Y-110102380D02*
X190550119Y-109102380D01*
X190207261Y-110102380D02*
X190207261Y-109578571D01*
X190245357Y-109483333D01*
X190321547Y-109435714D01*
X190435833Y-109435714D01*
X190512023Y-109483333D01*
X190550119Y-109530952D01*
X189483452Y-109435714D02*
X189483452Y-110102380D01*
X189826309Y-109435714D02*
X189826309Y-109959523D01*
X189788214Y-110054761D01*
X189712023Y-110102380D01*
X189597738Y-110102380D01*
X189521547Y-110054761D01*
X189483452Y-110007142D01*
X189102500Y-110102380D02*
X189102500Y-109102380D01*
X189102500Y-109483333D02*
X189026309Y-109435714D01*
X188873928Y-109435714D01*
X188797738Y-109483333D01*
X188759642Y-109530952D01*
X188721547Y-109626190D01*
X188721547Y-109911904D01*
X188759642Y-110007142D01*
X188797738Y-110054761D01*
X188873928Y-110102380D01*
X189026309Y-110102380D01*
X189102500Y-110054761D01*
X188378690Y-110007142D02*
X188340595Y-110054761D01*
X188378690Y-110102380D01*
X188416785Y-110054761D01*
X188378690Y-110007142D01*
X188378690Y-110102380D01*
X187654880Y-110054761D02*
X187731071Y-110102380D01*
X187883452Y-110102380D01*
X187959642Y-110054761D01*
X187997738Y-110007142D01*
X188035833Y-109911904D01*
X188035833Y-109626190D01*
X187997738Y-109530952D01*
X187959642Y-109483333D01*
X187883452Y-109435714D01*
X187731071Y-109435714D01*
X187654880Y-109483333D01*
X187197738Y-110102380D02*
X187273928Y-110054761D01*
X187312023Y-110007142D01*
X187350119Y-109911904D01*
X187350119Y-109626190D01*
X187312023Y-109530952D01*
X187273928Y-109483333D01*
X187197738Y-109435714D01*
X187083452Y-109435714D01*
X187007261Y-109483333D01*
X186969166Y-109530952D01*
X186931071Y-109626190D01*
X186931071Y-109911904D01*
X186969166Y-110007142D01*
X187007261Y-110054761D01*
X187083452Y-110102380D01*
X187197738Y-110102380D01*
X186588214Y-110102380D02*
X186588214Y-109435714D01*
X186588214Y-109530952D02*
X186550119Y-109483333D01*
X186473928Y-109435714D01*
X186359642Y-109435714D01*
X186283452Y-109483333D01*
X186245357Y-109578571D01*
X186245357Y-110102380D01*
X186245357Y-109578571D02*
X186207261Y-109483333D01*
X186131071Y-109435714D01*
X186016785Y-109435714D01*
X185940595Y-109483333D01*
X185902500Y-109578571D01*
X185902500Y-110102380D01*
X184950119Y-109054761D02*
X185635833Y-110340476D01*
X184340595Y-110102380D02*
X184340595Y-109102380D01*
X184340595Y-110054761D02*
X184416785Y-110102380D01*
X184569166Y-110102380D01*
X184645357Y-110054761D01*
X184683452Y-110007142D01*
X184721547Y-109911904D01*
X184721547Y-109626190D01*
X184683452Y-109530952D01*
X184645357Y-109483333D01*
X184569166Y-109435714D01*
X184416785Y-109435714D01*
X184340595Y-109483333D01*
X183616785Y-110102380D02*
X183616785Y-109578571D01*
X183654880Y-109483333D01*
X183731071Y-109435714D01*
X183883452Y-109435714D01*
X183959642Y-109483333D01*
X183616785Y-110054761D02*
X183692976Y-110102380D01*
X183883452Y-110102380D01*
X183959642Y-110054761D01*
X183997738Y-109959523D01*
X183997738Y-109864285D01*
X183959642Y-109769047D01*
X183883452Y-109721428D01*
X183692976Y-109721428D01*
X183616785Y-109673809D01*
X183312023Y-109435714D02*
X183121547Y-110102380D01*
X182931071Y-109435714D01*
X182626309Y-110102380D02*
X182626309Y-109435714D01*
X182626309Y-109102380D02*
X182664404Y-109150000D01*
X182626309Y-109197619D01*
X182588214Y-109150000D01*
X182626309Y-109102380D01*
X182626309Y-109197619D01*
X181902500Y-110102380D02*
X181902500Y-109102380D01*
X181902500Y-110054761D02*
X181978690Y-110102380D01*
X182131071Y-110102380D01*
X182207261Y-110054761D01*
X182245357Y-110007142D01*
X182283452Y-109911904D01*
X182283452Y-109626190D01*
X182245357Y-109530952D01*
X182207261Y-109483333D01*
X182131071Y-109435714D01*
X181978690Y-109435714D01*
X181902500Y-109483333D01*
X181521547Y-110102380D02*
X181521547Y-109435714D01*
X181521547Y-109530952D02*
X181483452Y-109483333D01*
X181407261Y-109435714D01*
X181292976Y-109435714D01*
X181216785Y-109483333D01*
X181178690Y-109578571D01*
X181178690Y-110102380D01*
X181178690Y-109578571D02*
X181140595Y-109483333D01*
X181064404Y-109435714D01*
X180950119Y-109435714D01*
X180873928Y-109483333D01*
X180835833Y-109578571D01*
X180835833Y-110102380D01*
X180340595Y-110102380D02*
X180416785Y-110054761D01*
X180454880Y-110007142D01*
X180492976Y-109911904D01*
X180492976Y-109626190D01*
X180454880Y-109530952D01*
X180416785Y-109483333D01*
X180340595Y-109435714D01*
X180226309Y-109435714D01*
X180150119Y-109483333D01*
X180112023Y-109530952D01*
X180073928Y-109626190D01*
X180073928Y-109911904D01*
X180112023Y-110007142D01*
X180150119Y-110054761D01*
X180226309Y-110102380D01*
X180340595Y-110102380D01*
X179616785Y-110102380D02*
X179692976Y-110054761D01*
X179731071Y-109959523D01*
X179731071Y-109102380D01*
X179197738Y-110102380D02*
X179273928Y-110054761D01*
X179312023Y-110007142D01*
X179350119Y-109911904D01*
X179350119Y-109626190D01*
X179312023Y-109530952D01*
X179273928Y-109483333D01*
X179197738Y-109435714D01*
X179083452Y-109435714D01*
X179007261Y-109483333D01*
X178969166Y-109530952D01*
X178931071Y-109626190D01*
X178931071Y-109911904D01*
X178969166Y-110007142D01*
X179007261Y-110054761D01*
X179083452Y-110102380D01*
X179197738Y-110102380D01*
X178588214Y-109435714D02*
X178588214Y-110102380D01*
X178588214Y-109530952D02*
X178550119Y-109483333D01*
X178473928Y-109435714D01*
X178359642Y-109435714D01*
X178283452Y-109483333D01*
X178245357Y-109578571D01*
X178245357Y-110102380D01*
X177940595Y-109435714D02*
X177750119Y-110102380D01*
X177559642Y-109435714D02*
X177750119Y-110102380D01*
X177826309Y-110340476D01*
X177864404Y-110388095D01*
X177940595Y-110435714D01*
X176683452Y-109054761D02*
X177369166Y-110340476D01*
X192112023Y-111752380D02*
X192112023Y-110752380D01*
X191845357Y-111466666D01*
X191578690Y-110752380D01*
X191578690Y-111752380D01*
X191197738Y-111228571D02*
X190931071Y-111228571D01*
X190816785Y-111752380D02*
X191197738Y-111752380D01*
X191197738Y-110752380D01*
X190816785Y-110752380D01*
X190512023Y-111704761D02*
X190397738Y-111752380D01*
X190207261Y-111752380D01*
X190131071Y-111704761D01*
X190092976Y-111657142D01*
X190054880Y-111561904D01*
X190054880Y-111466666D01*
X190092976Y-111371428D01*
X190131071Y-111323809D01*
X190207261Y-111276190D01*
X190359642Y-111228571D01*
X190435833Y-111180952D01*
X190473928Y-111133333D01*
X190512023Y-111038095D01*
X190512023Y-110942857D01*
X190473928Y-110847619D01*
X190435833Y-110800000D01*
X190359642Y-110752380D01*
X190169166Y-110752380D01*
X190054880Y-110800000D01*
X189254880Y-111657142D02*
X189292976Y-111704761D01*
X189407261Y-111752380D01*
X189483452Y-111752380D01*
X189597738Y-111704761D01*
X189673928Y-111609523D01*
X189712023Y-111514285D01*
X189750119Y-111323809D01*
X189750119Y-111180952D01*
X189712023Y-110990476D01*
X189673928Y-110895238D01*
X189597738Y-110800000D01*
X189483452Y-110752380D01*
X189407261Y-110752380D01*
X189292976Y-110800000D01*
X189254880Y-110847619D01*
X189102500Y-111847619D02*
X188492976Y-111847619D01*
X188035833Y-111228571D02*
X188302500Y-111228571D01*
X188302500Y-111752380D02*
X188302500Y-110752380D01*
X187921547Y-110752380D01*
X187464404Y-110752380D02*
X187312023Y-110752380D01*
X187235833Y-110800000D01*
X187159642Y-110895238D01*
X187121547Y-111085714D01*
X187121547Y-111419047D01*
X187159642Y-111609523D01*
X187235833Y-111704761D01*
X187312023Y-111752380D01*
X187464404Y-111752380D01*
X187540595Y-111704761D01*
X187616785Y-111609523D01*
X187654880Y-111419047D01*
X187654880Y-111085714D01*
X187616785Y-110895238D01*
X187540595Y-110800000D01*
X187464404Y-110752380D01*
X186321547Y-111657142D02*
X186359642Y-111704761D01*
X186473928Y-111752380D01*
X186550119Y-111752380D01*
X186664404Y-111704761D01*
X186740595Y-111609523D01*
X186778690Y-111514285D01*
X186816785Y-111323809D01*
X186816785Y-111180952D01*
X186778690Y-110990476D01*
X186740595Y-110895238D01*
X186664404Y-110800000D01*
X186550119Y-110752380D01*
X186473928Y-110752380D01*
X186359642Y-110800000D01*
X186321547Y-110847619D01*
X186169166Y-111847619D02*
X185559642Y-111847619D01*
X185369166Y-111228571D02*
X185102500Y-111228571D01*
X184988214Y-111752380D02*
X185369166Y-111752380D01*
X185369166Y-110752380D01*
X184988214Y-110752380D01*
X184683452Y-111704761D02*
X184569166Y-111752380D01*
X184378690Y-111752380D01*
X184302500Y-111704761D01*
X184264404Y-111657142D01*
X184226309Y-111561904D01*
X184226309Y-111466666D01*
X184264404Y-111371428D01*
X184302500Y-111323809D01*
X184378690Y-111276190D01*
X184531071Y-111228571D01*
X184607261Y-111180952D01*
X184645357Y-111133333D01*
X184683452Y-111038095D01*
X184683452Y-110942857D01*
X184645357Y-110847619D01*
X184607261Y-110800000D01*
X184531071Y-110752380D01*
X184340595Y-110752380D01*
X184226309Y-110800000D01*
X183426309Y-111657142D02*
X183464404Y-111704761D01*
X183578690Y-111752380D01*
X183654880Y-111752380D01*
X183769166Y-111704761D01*
X183845357Y-111609523D01*
X183883452Y-111514285D01*
X183921547Y-111323809D01*
X183921547Y-111180952D01*
X183883452Y-110990476D01*
X183845357Y-110895238D01*
X183769166Y-110800000D01*
X183654880Y-110752380D01*
X183578690Y-110752380D01*
X183464404Y-110800000D01*
X183426309Y-110847619D01*
X192226309Y-112402380D02*
X191959642Y-113402380D01*
X191692976Y-112402380D01*
X191273928Y-112402380D02*
X191197738Y-112402380D01*
X191121547Y-112450000D01*
X191083452Y-112497619D01*
X191045357Y-112592857D01*
X191007261Y-112783333D01*
X191007261Y-113021428D01*
X191045357Y-113211904D01*
X191083452Y-113307142D01*
X191121547Y-113354761D01*
X191197738Y-113402380D01*
X191273928Y-113402380D01*
X191350119Y-113354761D01*
X191388214Y-113307142D01*
X191426309Y-113211904D01*
X191464404Y-113021428D01*
X191464404Y-112783333D01*
X191426309Y-112592857D01*
X191388214Y-112497619D01*
X191350119Y-112450000D01*
X191273928Y-112402380D01*
X190664404Y-113307142D02*
X190626309Y-113354761D01*
X190664404Y-113402380D01*
X190702500Y-113354761D01*
X190664404Y-113307142D01*
X190664404Y-113402380D01*
X189902500Y-112402380D02*
X190283452Y-112402380D01*
X190321547Y-112878571D01*
X190283452Y-112830952D01*
X190207261Y-112783333D01*
X190016785Y-112783333D01*
X189940595Y-112830952D01*
X189902500Y-112878571D01*
X189864404Y-112973809D01*
X189864404Y-113211904D01*
X189902500Y-113307142D01*
X189940595Y-113354761D01*
X190016785Y-113402380D01*
X190207261Y-113402380D01*
X190283452Y-113354761D01*
X190321547Y-113307142D01*
D10*
X178933333Y-107852380D02*
X178933333Y-106852380D01*
X178814285Y-107947619D02*
X178433333Y-107947619D01*
X178314285Y-107852380D02*
X178314285Y-106852380D01*
X178123809Y-106852380D01*
X178076190Y-106900000D01*
X178052380Y-106947619D01*
X178028571Y-107042857D01*
X178028571Y-107185714D01*
X178052380Y-107280952D01*
X178076190Y-107328571D01*
X178123809Y-107376190D01*
X178314285Y-107376190D01*
X177814285Y-107852380D02*
X177814285Y-106852380D01*
X177600000Y-107852380D02*
X177600000Y-107328571D01*
X177623809Y-107233333D01*
X177671428Y-107185714D01*
X177742857Y-107185714D01*
X177790476Y-107233333D01*
X177814285Y-107280952D01*
X177409523Y-106852380D02*
X177290476Y-107852380D01*
X177195238Y-107138095D01*
X177100000Y-107852380D01*
X176980952Y-106852380D01*
X176480952Y-106852380D02*
X176195238Y-106852380D01*
X176338095Y-107852380D02*
X176338095Y-106852380D01*
X176028571Y-107852380D02*
X176028571Y-106852380D01*
X175838095Y-106852380D01*
X175790476Y-106900000D01*
X175766666Y-106947619D01*
X175742857Y-107042857D01*
X175742857Y-107185714D01*
X175766666Y-107280952D01*
X175790476Y-107328571D01*
X175838095Y-107376190D01*
X176028571Y-107376190D01*
D12*
X193452380Y-98992857D02*
X193452380Y-98611904D01*
X193928571Y-98573809D01*
X193880952Y-98611904D01*
X193833333Y-98688095D01*
X193833333Y-98878571D01*
X193880952Y-98954761D01*
X193928571Y-98992857D01*
X194023809Y-99030952D01*
X194261904Y-99030952D01*
X194357142Y-98992857D01*
X194404761Y-98954761D01*
X194452380Y-98878571D01*
X194452380Y-98688095D01*
X194404761Y-98611904D01*
X194357142Y-98573809D01*
X193452380Y-99259523D02*
X194452380Y-99526190D01*
X193452380Y-99792857D01*
X193452380Y-100592857D02*
X193452380Y-101088095D01*
X193833333Y-100821428D01*
X193833333Y-100935714D01*
X193880952Y-101011904D01*
X193928571Y-101050000D01*
X194023809Y-101088095D01*
X194261904Y-101088095D01*
X194357142Y-101050000D01*
X194404761Y-101011904D01*
X194452380Y-100935714D01*
X194452380Y-100707142D01*
X194404761Y-100630952D01*
X194357142Y-100592857D01*
X193452380Y-101316666D02*
X194452380Y-101583333D01*
X193452380Y-101850000D01*
X193452380Y-102040476D02*
X193452380Y-102535714D01*
X193833333Y-102269047D01*
X193833333Y-102383333D01*
X193880952Y-102459523D01*
X193928571Y-102497619D01*
X194023809Y-102535714D01*
X194261904Y-102535714D01*
X194357142Y-102497619D01*
X194404761Y-102459523D01*
X194452380Y-102383333D01*
X194452380Y-102154761D01*
X194404761Y-102078571D01*
X194357142Y-102040476D01*
X193500000Y-103907142D02*
X193452380Y-103830952D01*
X193452380Y-103716666D01*
X193500000Y-103602380D01*
X193595238Y-103526190D01*
X193690476Y-103488095D01*
X193880952Y-103450000D01*
X194023809Y-103450000D01*
X194214285Y-103488095D01*
X194309523Y-103526190D01*
X194404761Y-103602380D01*
X194452380Y-103716666D01*
X194452380Y-103792857D01*
X194404761Y-103907142D01*
X194357142Y-103945238D01*
X194023809Y-103945238D01*
X194023809Y-103792857D01*
X194166666Y-104859523D02*
X194166666Y-105240476D01*
X194452380Y-104783333D02*
X193452380Y-105050000D01*
X194452380Y-105316666D01*
X193785714Y-105583333D02*
X194452380Y-105583333D01*
X193880952Y-105583333D02*
X193833333Y-105621428D01*
X193785714Y-105697619D01*
X193785714Y-105811904D01*
X193833333Y-105888095D01*
X193928571Y-105926190D01*
X194452380Y-105926190D01*
X194452380Y-107373809D02*
X193976190Y-107107142D01*
X194452380Y-106916666D02*
X193452380Y-106916666D01*
X193452380Y-107221428D01*
X193500000Y-107297619D01*
X193547619Y-107335714D01*
X193642857Y-107373809D01*
X193785714Y-107373809D01*
X193880952Y-107335714D01*
X193928571Y-107297619D01*
X193976190Y-107221428D01*
X193976190Y-106916666D01*
X194452380Y-107640476D02*
X193785714Y-108059523D01*
X193785714Y-107640476D02*
X194452380Y-108059523D01*
X193452380Y-108859523D02*
X193452380Y-109316666D01*
X194452380Y-109088095D02*
X193452380Y-109088095D01*
X194452380Y-109507142D02*
X193785714Y-109926190D01*
X193785714Y-109507142D02*
X194452380Y-109926190D01*
X194166666Y-110802380D02*
X194166666Y-111183333D01*
X194452380Y-110726190D02*
X193452380Y-110992857D01*
X194452380Y-111259523D01*
X193785714Y-111526190D02*
X194452380Y-111526190D01*
X193880952Y-111526190D02*
X193833333Y-111564285D01*
X193785714Y-111640476D01*
X193785714Y-111754761D01*
X193833333Y-111830952D01*
X193928571Y-111869047D01*
X194452380Y-111869047D01*
X194166666Y-112821428D02*
X194166666Y-113202380D01*
X194452380Y-112745238D02*
X193452380Y-113011904D01*
X194452380Y-113278571D01*
X193785714Y-113545238D02*
X194452380Y-113545238D01*
X193880952Y-113545238D02*
X193833333Y-113583333D01*
X193785714Y-113659523D01*
X193785714Y-113773809D01*
X193833333Y-113850000D01*
X193928571Y-113888095D01*
X194452380Y-113888095D01*
D10*
X119630952Y-103399404D02*
X119630952Y-104047023D01*
X119607142Y-104123214D01*
X119583333Y-104161309D01*
X119535714Y-104199404D01*
X119440476Y-104199404D01*
X119392857Y-104161309D01*
X119369047Y-104123214D01*
X119345238Y-104047023D01*
X119345238Y-103399404D01*
X119130952Y-104161309D02*
X119059523Y-104199404D01*
X118940476Y-104199404D01*
X118892857Y-104161309D01*
X118869047Y-104123214D01*
X118845238Y-104047023D01*
X118845238Y-103970833D01*
X118869047Y-103894642D01*
X118892857Y-103856547D01*
X118940476Y-103818452D01*
X119035714Y-103780357D01*
X119083333Y-103742261D01*
X119107142Y-103704166D01*
X119130952Y-103627976D01*
X119130952Y-103551785D01*
X119107142Y-103475595D01*
X119083333Y-103437500D01*
X119035714Y-103399404D01*
X118916666Y-103399404D01*
X118845238Y-103437500D01*
X118464285Y-103780357D02*
X118392857Y-103818452D01*
X118369047Y-103856547D01*
X118345238Y-103932738D01*
X118345238Y-104047023D01*
X118369047Y-104123214D01*
X118392857Y-104161309D01*
X118440476Y-104199404D01*
X118630952Y-104199404D01*
X118630952Y-103399404D01*
X118464285Y-103399404D01*
X118416666Y-103437500D01*
X118392857Y-103475595D01*
X118369047Y-103551785D01*
X118369047Y-103627976D01*
X118392857Y-103704166D01*
X118416666Y-103742261D01*
X118464285Y-103780357D01*
X118630952Y-103780357D01*
X120154761Y-105105357D02*
X120083333Y-105143452D01*
X120059523Y-105181547D01*
X120035714Y-105257738D01*
X120035714Y-105372023D01*
X120059523Y-105448214D01*
X120083333Y-105486309D01*
X120130952Y-105524404D01*
X120321428Y-105524404D01*
X120321428Y-104724404D01*
X120154761Y-104724404D01*
X120107142Y-104762500D01*
X120083333Y-104800595D01*
X120059523Y-104876785D01*
X120059523Y-104952976D01*
X120083333Y-105029166D01*
X120107142Y-105067261D01*
X120154761Y-105105357D01*
X120321428Y-105105357D01*
X119440476Y-105524404D02*
X119440476Y-104724404D01*
X119273809Y-105295833D01*
X119107142Y-104724404D01*
X119107142Y-105524404D01*
X118869047Y-105524404D02*
X118869047Y-104991071D01*
X118869047Y-104724404D02*
X118892857Y-104762500D01*
X118869047Y-104800595D01*
X118845238Y-104762500D01*
X118869047Y-104724404D01*
X118869047Y-104800595D01*
X118416666Y-105486309D02*
X118464285Y-105524404D01*
X118559523Y-105524404D01*
X118607142Y-105486309D01*
X118630952Y-105448214D01*
X118654761Y-105372023D01*
X118654761Y-105143452D01*
X118630952Y-105067261D01*
X118607142Y-105029166D01*
X118559523Y-104991071D01*
X118464285Y-104991071D01*
X118416666Y-105029166D01*
X118202380Y-105524404D02*
X118202380Y-104991071D01*
X118202380Y-105143452D02*
X118178571Y-105067261D01*
X118154761Y-105029166D01*
X118107142Y-104991071D01*
X118059523Y-104991071D01*
X117821428Y-105524404D02*
X117869047Y-105486309D01*
X117892857Y-105448214D01*
X117916666Y-105372023D01*
X117916666Y-105143452D01*
X117892857Y-105067261D01*
X117869047Y-105029166D01*
X117821428Y-104991071D01*
X117750000Y-104991071D01*
X117702380Y-105029166D01*
X117678571Y-105067261D01*
X117654761Y-105143452D01*
X117654761Y-105372023D01*
X117678571Y-105448214D01*
X117702380Y-105486309D01*
X117750000Y-105524404D01*
X117821428Y-105524404D01*
D11*
X130285714Y-103202380D02*
X130285714Y-102202380D01*
X129904761Y-102202380D01*
X129809523Y-102250000D01*
X129761904Y-102297619D01*
X129714285Y-102392857D01*
X129714285Y-102535714D01*
X129761904Y-102630952D01*
X129809523Y-102678571D01*
X129904761Y-102726190D01*
X130285714Y-102726190D01*
X129285714Y-103202380D02*
X129285714Y-102202380D01*
X128857142Y-103202380D02*
X128857142Y-102678571D01*
X128904761Y-102583333D01*
X129000000Y-102535714D01*
X129142857Y-102535714D01*
X129238095Y-102583333D01*
X129285714Y-102630952D01*
X128476190Y-102202380D02*
X128238095Y-103202380D01*
X128047619Y-102488095D01*
X127857142Y-103202380D01*
X127619047Y-102202380D01*
X158942857Y-102952380D02*
X158942857Y-101952380D01*
X158561904Y-101952380D01*
X158466666Y-102000000D01*
X158419047Y-102047619D01*
X158371428Y-102142857D01*
X158371428Y-102285714D01*
X158419047Y-102380952D01*
X158466666Y-102428571D01*
X158561904Y-102476190D01*
X158942857Y-102476190D01*
X157942857Y-102952380D02*
X157942857Y-101952380D01*
X157514285Y-102952380D02*
X157514285Y-102428571D01*
X157561904Y-102333333D01*
X157657142Y-102285714D01*
X157800000Y-102285714D01*
X157895238Y-102333333D01*
X157942857Y-102380952D01*
X157180952Y-101952380D02*
X156847619Y-102952380D01*
X156514285Y-101952380D01*
X184838095Y-102952380D02*
X184838095Y-101952380D01*
X184457142Y-101952380D01*
X184361904Y-102000000D01*
X184314285Y-102047619D01*
X184266666Y-102142857D01*
X184266666Y-102285714D01*
X184314285Y-102380952D01*
X184361904Y-102428571D01*
X184457142Y-102476190D01*
X184838095Y-102476190D01*
X183838095Y-102952380D02*
X183838095Y-101952380D01*
X183409523Y-102952380D02*
X183409523Y-102428571D01*
X183457142Y-102333333D01*
X183552380Y-102285714D01*
X183695238Y-102285714D01*
X183790476Y-102333333D01*
X183838095Y-102380952D01*
X182933333Y-101952380D02*
X182933333Y-102761904D01*
X182885714Y-102857142D01*
X182838095Y-102904761D01*
X182742857Y-102952380D01*
X182552380Y-102952380D01*
X182457142Y-102904761D01*
X182409523Y-102857142D01*
X182361904Y-102761904D01*
X182361904Y-101952380D01*
D10*
X172259523Y-114352380D02*
X172259523Y-113352380D01*
X172140476Y-114447619D02*
X171759523Y-114447619D01*
X171640476Y-114352380D02*
X171640476Y-113352380D01*
X171450000Y-113352380D01*
X171402380Y-113400000D01*
X171378571Y-113447619D01*
X171354761Y-113542857D01*
X171354761Y-113685714D01*
X171378571Y-113780952D01*
X171402380Y-113828571D01*
X171450000Y-113876190D01*
X171640476Y-113876190D01*
X171140476Y-114352380D02*
X171140476Y-113352380D01*
X170926190Y-114352380D02*
X170926190Y-113828571D01*
X170950000Y-113733333D01*
X170997619Y-113685714D01*
X171069047Y-113685714D01*
X171116666Y-113733333D01*
X171140476Y-113780952D01*
X170688095Y-113352380D02*
X170688095Y-114161904D01*
X170664285Y-114257142D01*
X170640476Y-114304761D01*
X170592857Y-114352380D01*
X170497619Y-114352380D01*
X170450000Y-114304761D01*
X170426190Y-114257142D01*
X170402380Y-114161904D01*
X170402380Y-113352380D01*
X169854761Y-113352380D02*
X169569047Y-113352380D01*
X169711904Y-114352380D02*
X169711904Y-113352380D01*
X169402380Y-114352380D02*
X169402380Y-113352380D01*
X169211904Y-113352380D01*
X169164285Y-113400000D01*
X169140476Y-113447619D01*
X169116666Y-113542857D01*
X169116666Y-113685714D01*
X169140476Y-113780952D01*
X169164285Y-113828571D01*
X169211904Y-113876190D01*
X169402380Y-113876190D01*
X175211904Y-111252380D02*
X175211904Y-110252380D01*
X175092857Y-111347619D02*
X174711904Y-111347619D01*
X174592857Y-111252380D02*
X174592857Y-110252380D01*
X174402380Y-110252380D01*
X174354761Y-110300000D01*
X174330952Y-110347619D01*
X174307142Y-110442857D01*
X174307142Y-110585714D01*
X174330952Y-110680952D01*
X174354761Y-110728571D01*
X174402380Y-110776190D01*
X174592857Y-110776190D01*
X174092857Y-111252380D02*
X174092857Y-110252380D01*
X173878571Y-111252380D02*
X173878571Y-110728571D01*
X173902380Y-110633333D01*
X173950000Y-110585714D01*
X174021428Y-110585714D01*
X174069047Y-110633333D01*
X174092857Y-110680952D01*
X173711904Y-110252380D02*
X173545238Y-111252380D01*
X173378571Y-110252380D01*
X172902380Y-110252380D02*
X172616666Y-110252380D01*
X172759523Y-111252380D02*
X172759523Y-110252380D01*
X172450000Y-111252380D02*
X172450000Y-110252380D01*
X172259523Y-110252380D01*
X172211904Y-110300000D01*
X172188095Y-110347619D01*
X172164285Y-110442857D01*
X172164285Y-110585714D01*
X172188095Y-110680952D01*
X172211904Y-110728571D01*
X172259523Y-110776190D01*
X172450000Y-110776190D01*
X152583928Y-109571428D02*
X152583928Y-109214285D01*
X152926785Y-109428571D02*
X151898214Y-109571428D01*
X152241071Y-109261904D02*
X152241071Y-109619047D01*
X151898214Y-109404761D02*
X152926785Y-109261904D01*
X152050595Y-108761904D02*
X152431547Y-108928571D01*
X152050595Y-109047619D02*
X152850595Y-109047619D01*
X152850595Y-108857142D01*
X152812500Y-108809523D01*
X152774404Y-108785714D01*
X152698214Y-108761904D01*
X152583928Y-108761904D01*
X152507738Y-108785714D01*
X152469642Y-108809523D01*
X152431547Y-108857142D01*
X152431547Y-109047619D01*
X152088690Y-108357142D02*
X152050595Y-108404761D01*
X152050595Y-108500000D01*
X152088690Y-108547619D01*
X152164880Y-108571428D01*
X152469642Y-108571428D01*
X152545833Y-108547619D01*
X152583928Y-108500000D01*
X152583928Y-108404761D01*
X152545833Y-108357142D01*
X152469642Y-108333333D01*
X152393452Y-108333333D01*
X152317261Y-108571428D01*
X152088690Y-108142857D02*
X152050595Y-108095238D01*
X152050595Y-108000000D01*
X152088690Y-107952380D01*
X152164880Y-107928571D01*
X152202976Y-107928571D01*
X152279166Y-107952380D01*
X152317261Y-108000000D01*
X152317261Y-108071428D01*
X152355357Y-108119047D01*
X152431547Y-108142857D01*
X152469642Y-108142857D01*
X152545833Y-108119047D01*
X152583928Y-108071428D01*
X152583928Y-108000000D01*
X152545833Y-107952380D01*
X150725595Y-109404761D02*
X151525595Y-109404761D01*
X150725595Y-109119047D01*
X151525595Y-109119047D01*
X151563690Y-108523809D02*
X150535119Y-108952380D01*
X150801785Y-108071428D02*
X150763690Y-108095238D01*
X150725595Y-108166666D01*
X150725595Y-108214285D01*
X150763690Y-108285714D01*
X150839880Y-108333333D01*
X150916071Y-108357142D01*
X151068452Y-108380952D01*
X151182738Y-108380952D01*
X151335119Y-108357142D01*
X151411309Y-108333333D01*
X151487500Y-108285714D01*
X151525595Y-108214285D01*
X151525595Y-108166666D01*
X151487500Y-108095238D01*
X151449404Y-108071428D01*
X149438690Y-109440476D02*
X149400595Y-109369047D01*
X149400595Y-109250000D01*
X149438690Y-109202380D01*
X149476785Y-109178571D01*
X149552976Y-109154761D01*
X149629166Y-109154761D01*
X149705357Y-109178571D01*
X149743452Y-109202380D01*
X149781547Y-109250000D01*
X149819642Y-109345238D01*
X149857738Y-109392857D01*
X149895833Y-109416666D01*
X149972023Y-109440476D01*
X150048214Y-109440476D01*
X150124404Y-109416666D01*
X150162500Y-109392857D01*
X150200595Y-109345238D01*
X150200595Y-109226190D01*
X150162500Y-109154761D01*
X150200595Y-108988095D02*
X149400595Y-108869047D01*
X149972023Y-108773809D01*
X149400595Y-108678571D01*
X150200595Y-108559523D01*
X150200595Y-108273809D02*
X150200595Y-108178571D01*
X150162500Y-108130952D01*
X150086309Y-108083333D01*
X149933928Y-108059523D01*
X149667261Y-108059523D01*
X149514880Y-108083333D01*
X149438690Y-108130952D01*
X149400595Y-108178571D01*
X149400595Y-108273809D01*
X149438690Y-108321428D01*
X149514880Y-108369047D01*
X149667261Y-108392857D01*
X149933928Y-108392857D01*
X150086309Y-108369047D01*
X150162500Y-108321428D01*
X150200595Y-108273809D01*
X148113690Y-109619047D02*
X148075595Y-109547619D01*
X148075595Y-109428571D01*
X148113690Y-109380952D01*
X148151785Y-109357142D01*
X148227976Y-109333333D01*
X148304166Y-109333333D01*
X148380357Y-109357142D01*
X148418452Y-109380952D01*
X148456547Y-109428571D01*
X148494642Y-109523809D01*
X148532738Y-109571428D01*
X148570833Y-109595238D01*
X148647023Y-109619047D01*
X148723214Y-109619047D01*
X148799404Y-109595238D01*
X148837500Y-109571428D01*
X148875595Y-109523809D01*
X148875595Y-109404761D01*
X148837500Y-109333333D01*
X148875595Y-109166666D02*
X148075595Y-109047619D01*
X148647023Y-108952380D01*
X148075595Y-108857142D01*
X148875595Y-108738095D01*
X148151785Y-108261904D02*
X148113690Y-108285714D01*
X148075595Y-108357142D01*
X148075595Y-108404761D01*
X148113690Y-108476190D01*
X148189880Y-108523809D01*
X148266071Y-108547619D01*
X148418452Y-108571428D01*
X148532738Y-108571428D01*
X148685119Y-108547619D01*
X148761309Y-108523809D01*
X148837500Y-108476190D01*
X148875595Y-108404761D01*
X148875595Y-108357142D01*
X148837500Y-108285714D01*
X148799404Y-108261904D01*
X146788690Y-110000000D02*
X146750595Y-109928571D01*
X146750595Y-109809523D01*
X146788690Y-109761904D01*
X146826785Y-109738095D01*
X146902976Y-109714285D01*
X146979166Y-109714285D01*
X147055357Y-109738095D01*
X147093452Y-109761904D01*
X147131547Y-109809523D01*
X147169642Y-109904761D01*
X147207738Y-109952380D01*
X147245833Y-109976190D01*
X147322023Y-110000000D01*
X147398214Y-110000000D01*
X147474404Y-109976190D01*
X147512500Y-109952380D01*
X147550595Y-109904761D01*
X147550595Y-109785714D01*
X147512500Y-109714285D01*
X147550595Y-109547619D02*
X146750595Y-109428571D01*
X147322023Y-109333333D01*
X146750595Y-109238095D01*
X147550595Y-109119047D01*
X146750595Y-108928571D02*
X147550595Y-108928571D01*
X147550595Y-108809523D01*
X147512500Y-108738095D01*
X147436309Y-108690476D01*
X147360119Y-108666666D01*
X147207738Y-108642857D01*
X147093452Y-108642857D01*
X146941071Y-108666666D01*
X146864880Y-108690476D01*
X146788690Y-108738095D01*
X146750595Y-108809523D01*
X146750595Y-108928571D01*
X146750595Y-108428571D02*
X147550595Y-108428571D01*
X147550595Y-108095238D02*
X147550595Y-108000000D01*
X147512500Y-107952380D01*
X147436309Y-107904761D01*
X147283928Y-107880952D01*
X147017261Y-107880952D01*
X146864880Y-107904761D01*
X146788690Y-107952380D01*
X146750595Y-108000000D01*
X146750595Y-108095238D01*
X146788690Y-108142857D01*
X146864880Y-108190476D01*
X147017261Y-108214285D01*
X147283928Y-108214285D01*
X147436309Y-108190476D01*
X147512500Y-108142857D01*
X147550595Y-108095238D01*
X146187500Y-108619047D02*
X146225595Y-108666666D01*
X146225595Y-108738095D01*
X146187500Y-108809523D01*
X146111309Y-108857142D01*
X146035119Y-108880952D01*
X145882738Y-108904761D01*
X145768452Y-108904761D01*
X145616071Y-108880952D01*
X145539880Y-108857142D01*
X145463690Y-108809523D01*
X145425595Y-108738095D01*
X145425595Y-108690476D01*
X145463690Y-108619047D01*
X145501785Y-108595238D01*
X145768452Y-108595238D01*
X145768452Y-108690476D01*
X141676190Y-112600000D02*
X141628571Y-112647619D01*
X141557142Y-112647619D01*
X141485714Y-112600000D01*
X141438095Y-112504761D01*
X141414285Y-112409523D01*
X141390476Y-112219047D01*
X141390476Y-112076190D01*
X141414285Y-111885714D01*
X141438095Y-111790476D01*
X141485714Y-111695238D01*
X141557142Y-111647619D01*
X141604761Y-111647619D01*
X141676190Y-111695238D01*
X141700000Y-111742857D01*
X141700000Y-112076190D01*
X141604761Y-112076190D01*
X142533333Y-112647619D02*
X142295238Y-112647619D01*
X142271428Y-112171428D01*
X142295238Y-112219047D01*
X142342857Y-112266666D01*
X142461904Y-112266666D01*
X142509523Y-112219047D01*
X142533333Y-112171428D01*
X142557142Y-112076190D01*
X142557142Y-111838095D01*
X142533333Y-111742857D01*
X142509523Y-111695238D01*
X142461904Y-111647619D01*
X142342857Y-111647619D01*
X142295238Y-111695238D01*
X142271428Y-111742857D01*
X142700000Y-112647619D02*
X142866666Y-111647619D01*
X143033333Y-112647619D01*
X143580952Y-111647619D02*
X143580952Y-112647619D01*
X143771428Y-112647619D01*
X143819047Y-112600000D01*
X143842857Y-112552380D01*
X143866666Y-112457142D01*
X143866666Y-112314285D01*
X143842857Y-112219047D01*
X143819047Y-112171428D01*
X143771428Y-112123809D01*
X143580952Y-112123809D01*
X144033333Y-112647619D02*
X144152380Y-111647619D01*
X144247619Y-112361904D01*
X144342857Y-111647619D01*
X144461904Y-112647619D01*
X144652380Y-111647619D02*
X144652380Y-112647619D01*
X144819047Y-111933333D01*
X144985714Y-112647619D01*
X144985714Y-111647619D01*
X163297619Y-113750000D02*
X163345238Y-113702380D01*
X163416666Y-113702380D01*
X163488095Y-113750000D01*
X163535714Y-113845238D01*
X163559523Y-113940476D01*
X163583333Y-114130952D01*
X163583333Y-114273809D01*
X163559523Y-114464285D01*
X163535714Y-114559523D01*
X163488095Y-114654761D01*
X163416666Y-114702380D01*
X163369047Y-114702380D01*
X163297619Y-114654761D01*
X163273809Y-114607142D01*
X163273809Y-114273809D01*
X163369047Y-114273809D01*
X162678571Y-114702380D02*
X162678571Y-113702380D01*
X162678571Y-114178571D02*
X162392857Y-114178571D01*
X162392857Y-114702380D02*
X162392857Y-113702380D01*
X162202380Y-113702380D02*
X161892857Y-113702380D01*
X162059523Y-114083333D01*
X161988095Y-114083333D01*
X161940476Y-114130952D01*
X161916666Y-114178571D01*
X161892857Y-114273809D01*
X161892857Y-114511904D01*
X161916666Y-114607142D01*
X161940476Y-114654761D01*
X161988095Y-114702380D01*
X162130952Y-114702380D01*
X162178571Y-114654761D01*
X162202380Y-114607142D01*
X161297619Y-114702380D02*
X161297619Y-113702380D01*
X161297619Y-114178571D02*
X161011904Y-114178571D01*
X161011904Y-114702380D02*
X161011904Y-113702380D01*
X160797619Y-113797619D02*
X160773809Y-113750000D01*
X160726190Y-113702380D01*
X160607142Y-113702380D01*
X160559523Y-113750000D01*
X160535714Y-113797619D01*
X160511904Y-113892857D01*
X160511904Y-113988095D01*
X160535714Y-114130952D01*
X160821428Y-114702380D01*
X160511904Y-114702380D01*
X159916666Y-114702380D02*
X159916666Y-113702380D01*
X159916666Y-114178571D02*
X159630952Y-114178571D01*
X159630952Y-114702380D02*
X159630952Y-113702380D01*
X159130952Y-114702380D02*
X159416666Y-114702380D01*
X159273809Y-114702380D02*
X159273809Y-113702380D01*
X159321428Y-113845238D01*
X159369047Y-113940476D01*
X159416666Y-113988095D01*
X158535714Y-114702380D02*
X158535714Y-113702380D01*
X158250000Y-114702380D01*
X158250000Y-113702380D01*
X157654761Y-113654761D02*
X158083333Y-114940476D01*
X157202380Y-114607142D02*
X157226190Y-114654761D01*
X157297619Y-114702380D01*
X157345238Y-114702380D01*
X157416666Y-114654761D01*
X157464285Y-114559523D01*
X157488095Y-114464285D01*
X157511904Y-114273809D01*
X157511904Y-114130952D01*
X157488095Y-113940476D01*
X157464285Y-113845238D01*
X157416666Y-113750000D01*
X157345238Y-113702380D01*
X157297619Y-113702380D01*
X157226190Y-113750000D01*
X157202380Y-113797619D01*
X156369047Y-113702380D02*
X156607142Y-113702380D01*
X156630952Y-114178571D01*
X156607142Y-114130952D01*
X156559523Y-114083333D01*
X156440476Y-114083333D01*
X156392857Y-114130952D01*
X156369047Y-114178571D01*
X156345238Y-114273809D01*
X156345238Y-114511904D01*
X156369047Y-114607142D01*
X156392857Y-114654761D01*
X156440476Y-114702380D01*
X156559523Y-114702380D01*
X156607142Y-114654761D01*
X156630952Y-114607142D01*
X156202380Y-113702380D02*
X156035714Y-114702380D01*
X155869047Y-113702380D01*
D13*
X118000000Y-65500000D02*
X198000000Y-65500000D01*
X118000000Y-95500000D02*
X118000000Y-65500000D01*
X198000000Y-95500000D02*
X118000000Y-95500000D01*
X198000000Y-59500000D02*
X198000000Y-89500000D01*
X194890000Y-96890000D02*
X196140000Y-96890000D01*
X194890000Y-98140000D02*
X194890000Y-96890000D01*
X199300000Y-112250000D02*
X198800000Y-112250000D01*
X198800000Y-112350000D02*
X199300000Y-112350000D01*
X198800000Y-112150000D02*
X198800000Y-112350000D01*
X199300000Y-112150000D02*
X198800000Y-112150000D01*
X199300000Y-110250000D02*
X198800000Y-110250000D01*
X198800000Y-110350000D02*
X199300000Y-110350000D01*
X198800000Y-110150000D02*
X198800000Y-110350000D01*
X199300000Y-110150000D02*
X198800000Y-110150000D01*
X199300000Y-108250000D02*
X198800000Y-108250000D01*
X198800000Y-108350000D02*
X199300000Y-108350000D01*
X198800000Y-108150000D02*
X198800000Y-108350000D01*
X199300000Y-108150000D02*
X198800000Y-108150000D01*
X199300000Y-106250000D02*
X198800000Y-106250000D01*
X198800000Y-106350000D02*
X199300000Y-106350000D01*
X198800000Y-106150000D02*
X198800000Y-106350000D01*
X199300000Y-106150000D02*
X198800000Y-106150000D01*
X199300000Y-104250000D02*
X198800000Y-104250000D01*
X198800000Y-104350000D02*
X199300000Y-104350000D01*
X198800000Y-104150000D02*
X198800000Y-104350000D01*
X199300000Y-104150000D02*
X198800000Y-104150000D01*
X199300000Y-102250000D02*
X198800000Y-102250000D01*
X198800000Y-102350000D02*
X199300000Y-102350000D01*
X198800000Y-102150000D02*
X198800000Y-102350000D01*
X199300000Y-102150000D02*
X198800000Y-102150000D01*
X199300000Y-100250000D02*
X198800000Y-100250000D01*
X198800000Y-100350000D02*
X199300000Y-100350000D01*
X198800000Y-100150000D02*
X198800000Y-100350000D01*
X199300000Y-100150000D02*
X198800000Y-100150000D01*
X197800000Y-115310000D02*
X197800000Y-114700000D01*
X196500000Y-115310000D02*
X196500000Y-114700000D01*
X197800000Y-97190000D02*
X197800000Y-97800000D01*
X196500000Y-97190000D02*
X196500000Y-97800000D01*
X195800000Y-112750000D02*
X195190000Y-112750000D01*
X195800000Y-114700000D02*
X195800000Y-112750000D01*
X199300000Y-114700000D02*
X195800000Y-114700000D01*
X199300000Y-97800000D02*
X199300000Y-114700000D01*
X195800000Y-97800000D02*
X199300000Y-97800000D01*
X195800000Y-99750000D02*
X195800000Y-97800000D01*
X195190000Y-99750000D02*
X195800000Y-99750000D01*
X195090000Y-98950000D02*
X195090000Y-98650000D01*
X194990000Y-98650000D02*
X195190000Y-98650000D01*
X194990000Y-98950000D02*
X194990000Y-98650000D01*
X195190000Y-98950000D02*
X194990000Y-98950000D01*
X195190000Y-115310000D02*
X195190000Y-97190000D01*
X199910000Y-115310000D02*
X195190000Y-115310000D01*
X199910000Y-97190000D02*
X199910000Y-115310000D01*
X195190000Y-97190000D02*
X199910000Y-97190000D01*
X123145000Y-49360509D02*
X124745000Y-49360509D01*
X123945000Y-48560509D02*
X123945000Y-50160509D01*
X127735000Y-65331000D02*
X129265000Y-65331000D01*
X127402000Y-65291000D02*
X129598000Y-65291000D01*
X127149000Y-65251000D02*
X129851000Y-65251000D01*
X126936000Y-65211000D02*
X130064000Y-65211000D01*
X126748000Y-65171000D02*
X130252000Y-65171000D01*
X126580000Y-65131000D02*
X130420000Y-65131000D01*
X126426000Y-65091000D02*
X130574000Y-65091000D01*
X126282000Y-65051000D02*
X130718000Y-65051000D01*
X126149000Y-65011000D02*
X130851000Y-65011000D01*
X126022000Y-64971000D02*
X130978000Y-64971000D01*
X125903000Y-64931000D02*
X131097000Y-64931000D01*
X125789000Y-64891000D02*
X131211000Y-64891000D01*
X125680000Y-64851000D02*
X131320000Y-64851000D01*
X125576000Y-64811000D02*
X131424000Y-64811000D01*
X125476000Y-64771000D02*
X131524000Y-64771000D01*
X125380000Y-64731000D02*
X131620000Y-64731000D01*
X125287000Y-64691000D02*
X131713000Y-64691000D01*
X125197000Y-64651000D02*
X131803000Y-64651000D01*
X125110000Y-64611000D02*
X131890000Y-64611000D01*
X125025000Y-64571000D02*
X131975000Y-64571000D01*
X124943000Y-64531000D02*
X132057000Y-64531000D01*
X124863000Y-64491000D02*
X132137000Y-64491000D01*
X124785000Y-64451000D02*
X132215000Y-64451000D01*
X124710000Y-64411000D02*
X132290000Y-64411000D01*
X124636000Y-64371000D02*
X132364000Y-64371000D01*
X124564000Y-64331000D02*
X132436000Y-64331000D01*
X124493000Y-64291000D02*
X132507000Y-64291000D01*
X124424000Y-64251000D02*
X132576000Y-64251000D01*
X124357000Y-64211000D02*
X132643000Y-64211000D01*
X124291000Y-64171000D02*
X132709000Y-64171000D01*
X124227000Y-64131000D02*
X132773000Y-64131000D01*
X124164000Y-64091000D02*
X132836000Y-64091000D01*
X124102000Y-64051000D02*
X132898000Y-64051000D01*
X124041000Y-64011000D02*
X132959000Y-64011000D01*
X123981000Y-63971000D02*
X133019000Y-63971000D01*
X123923000Y-63931000D02*
X133077000Y-63931000D01*
X123866000Y-63891000D02*
X133134000Y-63891000D01*
X123809000Y-63851000D02*
X133191000Y-63851000D01*
X123754000Y-63811000D02*
X133246000Y-63811000D01*
X123700000Y-63771000D02*
X133300000Y-63771000D01*
X123646000Y-63731000D02*
X133354000Y-63731000D01*
X123594000Y-63691000D02*
X133406000Y-63691000D01*
X123542000Y-63651000D02*
X133458000Y-63651000D01*
X123491000Y-63611000D02*
X133509000Y-63611000D01*
X123441000Y-63571000D02*
X133559000Y-63571000D01*
X123392000Y-63531000D02*
X133608000Y-63531000D01*
X123344000Y-63491000D02*
X133656000Y-63491000D01*
X123296000Y-63451000D02*
X133704000Y-63451000D01*
X123249000Y-63411000D02*
X133751000Y-63411000D01*
X123203000Y-63371000D02*
X133797000Y-63371000D01*
X123157000Y-63331000D02*
X133843000Y-63331000D01*
X123112000Y-63291000D02*
X133888000Y-63291000D01*
X123068000Y-63251000D02*
X133932000Y-63251000D01*
X123025000Y-63211000D02*
X133975000Y-63211000D01*
X122982000Y-63171000D02*
X134018000Y-63171000D01*
X122940000Y-63131000D02*
X134060000Y-63131000D01*
X122898000Y-63091000D02*
X134102000Y-63091000D01*
X122857000Y-63051000D02*
X134143000Y-63051000D01*
X122816000Y-63011000D02*
X134184000Y-63011000D01*
X122776000Y-62971000D02*
X134224000Y-62971000D01*
X122737000Y-62931000D02*
X134263000Y-62931000D01*
X122698000Y-62891000D02*
X134302000Y-62891000D01*
X122660000Y-62851000D02*
X134340000Y-62851000D01*
X122622000Y-62811000D02*
X134378000Y-62811000D01*
X122584000Y-62771000D02*
X134416000Y-62771000D01*
X122548000Y-62731000D02*
X134452000Y-62731000D01*
X122511000Y-62691000D02*
X134489000Y-62691000D01*
X122475000Y-62651000D02*
X134525000Y-62651000D01*
X122440000Y-62611000D02*
X134560000Y-62611000D01*
X122405000Y-62571000D02*
X134595000Y-62571000D01*
X122371000Y-62531000D02*
X134629000Y-62531000D01*
X122337000Y-62491000D02*
X134663000Y-62491000D01*
X122303000Y-62451000D02*
X134697000Y-62451000D01*
X129940000Y-62411000D02*
X134730000Y-62411000D01*
X122270000Y-62411000D02*
X127060000Y-62411000D01*
X129940000Y-62371000D02*
X134763000Y-62371000D01*
X122237000Y-62371000D02*
X127060000Y-62371000D01*
X129940000Y-62331000D02*
X134795000Y-62331000D01*
X122205000Y-62331000D02*
X127060000Y-62331000D01*
X129940000Y-62291000D02*
X134827000Y-62291000D01*
X122173000Y-62291000D02*
X127060000Y-62291000D01*
X129940000Y-62251000D02*
X134858000Y-62251000D01*
X122142000Y-62251000D02*
X127060000Y-62251000D01*
X129940000Y-62211000D02*
X134890000Y-62211000D01*
X122110000Y-62211000D02*
X127060000Y-62211000D01*
X129940000Y-62171000D02*
X134920000Y-62171000D01*
X122080000Y-62171000D02*
X127060000Y-62171000D01*
X129940000Y-62131000D02*
X134950000Y-62131000D01*
X122050000Y-62131000D02*
X127060000Y-62131000D01*
X129940000Y-62091000D02*
X134980000Y-62091000D01*
X122020000Y-62091000D02*
X127060000Y-62091000D01*
X129940000Y-62051000D02*
X135010000Y-62051000D01*
X121990000Y-62051000D02*
X127060000Y-62051000D01*
X129940000Y-62011000D02*
X135039000Y-62011000D01*
X121961000Y-62011000D02*
X127060000Y-62011000D01*
X129940000Y-61971000D02*
X135068000Y-61971000D01*
X121932000Y-61971000D02*
X127060000Y-61971000D01*
X129940000Y-61931000D02*
X135096000Y-61931000D01*
X121904000Y-61931000D02*
X127060000Y-61931000D01*
X129940000Y-61891000D02*
X135124000Y-61891000D01*
X121876000Y-61891000D02*
X127060000Y-61891000D01*
X129940000Y-61851000D02*
X135152000Y-61851000D01*
X121848000Y-61851000D02*
X127060000Y-61851000D01*
X129940000Y-61811000D02*
X135179000Y-61811000D01*
X121821000Y-61811000D02*
X127060000Y-61811000D01*
X129940000Y-61771000D02*
X135206000Y-61771000D01*
X121794000Y-61771000D02*
X127060000Y-61771000D01*
X129940000Y-61731000D02*
X135233000Y-61731000D01*
X121767000Y-61731000D02*
X127060000Y-61731000D01*
X129940000Y-61691000D02*
X135259000Y-61691000D01*
X121741000Y-61691000D02*
X127060000Y-61691000D01*
X129940000Y-61651000D02*
X135285000Y-61651000D01*
X121715000Y-61651000D02*
X127060000Y-61651000D01*
X129940000Y-61611000D02*
X135311000Y-61611000D01*
X121689000Y-61611000D02*
X127060000Y-61611000D01*
X129940000Y-61571000D02*
X135336000Y-61571000D01*
X121664000Y-61571000D02*
X127060000Y-61571000D01*
X129940000Y-61531000D02*
X135361000Y-61531000D01*
X121639000Y-61531000D02*
X127060000Y-61531000D01*
X129940000Y-61491000D02*
X135386000Y-61491000D01*
X121614000Y-61491000D02*
X127060000Y-61491000D01*
X129940000Y-61451000D02*
X135410000Y-61451000D01*
X121590000Y-61451000D02*
X127060000Y-61451000D01*
X129940000Y-61411000D02*
X135434000Y-61411000D01*
X121566000Y-61411000D02*
X127060000Y-61411000D01*
X129940000Y-61371000D02*
X135458000Y-61371000D01*
X121542000Y-61371000D02*
X127060000Y-61371000D01*
X129940000Y-61331000D02*
X135481000Y-61331000D01*
X121519000Y-61331000D02*
X127060000Y-61331000D01*
X129940000Y-61291000D02*
X135504000Y-61291000D01*
X121496000Y-61291000D02*
X127060000Y-61291000D01*
X129940000Y-61251000D02*
X135527000Y-61251000D01*
X121473000Y-61251000D02*
X127060000Y-61251000D01*
X129940000Y-61211000D02*
X135549000Y-61211000D01*
X121451000Y-61211000D02*
X127060000Y-61211000D01*
X129940000Y-61171000D02*
X135572000Y-61171000D01*
X121428000Y-61171000D02*
X127060000Y-61171000D01*
X129940000Y-61131000D02*
X135594000Y-61131000D01*
X121406000Y-61131000D02*
X127060000Y-61131000D01*
X129940000Y-61091000D02*
X135615000Y-61091000D01*
X121385000Y-61091000D02*
X127060000Y-61091000D01*
X129940000Y-61051000D02*
X135636000Y-61051000D01*
X121364000Y-61051000D02*
X127060000Y-61051000D01*
X129940000Y-61011000D02*
X135657000Y-61011000D01*
X121343000Y-61011000D02*
X127060000Y-61011000D01*
X129940000Y-60971000D02*
X135678000Y-60971000D01*
X121322000Y-60971000D02*
X127060000Y-60971000D01*
X129940000Y-60931000D02*
X135699000Y-60931000D01*
X121301000Y-60931000D02*
X127060000Y-60931000D01*
X129940000Y-60891000D02*
X135719000Y-60891000D01*
X121281000Y-60891000D02*
X127060000Y-60891000D01*
X129940000Y-60851000D02*
X135739000Y-60851000D01*
X121261000Y-60851000D02*
X127060000Y-60851000D01*
X129940000Y-60811000D02*
X135758000Y-60811000D01*
X121242000Y-60811000D02*
X127060000Y-60811000D01*
X129940000Y-60771000D02*
X135778000Y-60771000D01*
X121222000Y-60771000D02*
X127060000Y-60771000D01*
X129940000Y-60731000D02*
X135797000Y-60731000D01*
X121203000Y-60731000D02*
X127060000Y-60731000D01*
X129940000Y-60691000D02*
X135816000Y-60691000D01*
X121184000Y-60691000D02*
X127060000Y-60691000D01*
X129940000Y-60651000D02*
X135834000Y-60651000D01*
X121166000Y-60651000D02*
X127060000Y-60651000D01*
X129940000Y-60611000D02*
X135853000Y-60611000D01*
X121147000Y-60611000D02*
X127060000Y-60611000D01*
X129940000Y-60571000D02*
X135871000Y-60571000D01*
X121129000Y-60571000D02*
X127060000Y-60571000D01*
X129940000Y-60531000D02*
X135889000Y-60531000D01*
X121111000Y-60531000D02*
X127060000Y-60531000D01*
X129940000Y-60491000D02*
X135906000Y-60491000D01*
X121094000Y-60491000D02*
X127060000Y-60491000D01*
X129940000Y-60451000D02*
X135923000Y-60451000D01*
X121077000Y-60451000D02*
X127060000Y-60451000D01*
X129940000Y-60411000D02*
X135940000Y-60411000D01*
X121060000Y-60411000D02*
X127060000Y-60411000D01*
X129940000Y-60371000D02*
X135957000Y-60371000D01*
X121043000Y-60371000D02*
X127060000Y-60371000D01*
X129940000Y-60331000D02*
X135974000Y-60331000D01*
X121026000Y-60331000D02*
X127060000Y-60331000D01*
X129940000Y-60291000D02*
X135990000Y-60291000D01*
X121010000Y-60291000D02*
X127060000Y-60291000D01*
X129940000Y-60251000D02*
X136006000Y-60251000D01*
X120994000Y-60251000D02*
X127060000Y-60251000D01*
X129940000Y-60211000D02*
X136022000Y-60211000D01*
X120978000Y-60211000D02*
X127060000Y-60211000D01*
X129940000Y-60171000D02*
X136037000Y-60171000D01*
X120963000Y-60171000D02*
X127060000Y-60171000D01*
X129940000Y-60131000D02*
X136053000Y-60131000D01*
X120947000Y-60131000D02*
X127060000Y-60131000D01*
X129940000Y-60091000D02*
X136068000Y-60091000D01*
X120932000Y-60091000D02*
X127060000Y-60091000D01*
X129940000Y-60051000D02*
X136082000Y-60051000D01*
X120918000Y-60051000D02*
X127060000Y-60051000D01*
X129940000Y-60011000D02*
X136097000Y-60011000D01*
X120903000Y-60011000D02*
X127060000Y-60011000D01*
X129940000Y-59971000D02*
X136111000Y-59971000D01*
X120889000Y-59971000D02*
X127060000Y-59971000D01*
X129940000Y-59931000D02*
X136125000Y-59931000D01*
X120875000Y-59931000D02*
X127060000Y-59931000D01*
X129940000Y-59891000D02*
X136139000Y-59891000D01*
X120861000Y-59891000D02*
X127060000Y-59891000D01*
X129940000Y-59851000D02*
X136153000Y-59851000D01*
X120847000Y-59851000D02*
X127060000Y-59851000D01*
X129940000Y-59811000D02*
X136166000Y-59811000D01*
X120834000Y-59811000D02*
X127060000Y-59811000D01*
X129940000Y-59771000D02*
X136180000Y-59771000D01*
X120820000Y-59771000D02*
X127060000Y-59771000D01*
X129940000Y-59731000D02*
X136193000Y-59731000D01*
X120807000Y-59731000D02*
X127060000Y-59731000D01*
X129940000Y-59691000D02*
X136205000Y-59691000D01*
X120795000Y-59691000D02*
X127060000Y-59691000D01*
X129940000Y-59651000D02*
X136218000Y-59651000D01*
X120782000Y-59651000D02*
X127060000Y-59651000D01*
X129940000Y-59611000D02*
X136230000Y-59611000D01*
X120770000Y-59611000D02*
X127060000Y-59611000D01*
X129940000Y-59571000D02*
X136242000Y-59571000D01*
X120758000Y-59571000D02*
X127060000Y-59571000D01*
X120746000Y-59531000D02*
X136254000Y-59531000D01*
X120735000Y-59491000D02*
X136265000Y-59491000D01*
X120723000Y-59451000D02*
X136277000Y-59451000D01*
X120712000Y-59411000D02*
X136288000Y-59411000D01*
X120701000Y-59371000D02*
X136299000Y-59371000D01*
X120690000Y-59331000D02*
X136310000Y-59331000D01*
X120680000Y-59291000D02*
X136320000Y-59291000D01*
X120670000Y-59251000D02*
X136330000Y-59251000D01*
X120660000Y-59211000D02*
X136340000Y-59211000D01*
X120650000Y-59171000D02*
X136350000Y-59171000D01*
X120640000Y-59131000D02*
X136360000Y-59131000D01*
X120631000Y-59091000D02*
X136369000Y-59091000D01*
X120622000Y-59051000D02*
X136378000Y-59051000D01*
X120613000Y-59011000D02*
X136387000Y-59011000D01*
X120604000Y-58971000D02*
X136396000Y-58971000D01*
X120595000Y-58931000D02*
X136405000Y-58931000D01*
X120587000Y-58891000D02*
X136413000Y-58891000D01*
X120579000Y-58851000D02*
X136421000Y-58851000D01*
X120571000Y-58811000D02*
X136429000Y-58811000D01*
X120563000Y-58771000D02*
X136437000Y-58771000D01*
X120556000Y-58731000D02*
X136444000Y-58731000D01*
X120548000Y-58691000D02*
X136452000Y-58691000D01*
X120541000Y-58651000D02*
X136459000Y-58651000D01*
X120534000Y-58611000D02*
X136466000Y-58611000D01*
X120528000Y-58571000D02*
X136472000Y-58571000D01*
X120521000Y-58531000D02*
X136479000Y-58531000D01*
X120515000Y-58491000D02*
X136485000Y-58491000D01*
X120509000Y-58451000D02*
X136491000Y-58451000D01*
X120503000Y-58411000D02*
X136497000Y-58411000D01*
X120497000Y-58371000D02*
X136503000Y-58371000D01*
X120492000Y-58331000D02*
X136508000Y-58331000D01*
X120486000Y-58291000D02*
X136514000Y-58291000D01*
X120481000Y-58251000D02*
X136519000Y-58251000D01*
X120476000Y-58211000D02*
X136524000Y-58211000D01*
X120472000Y-58171000D02*
X136528000Y-58171000D01*
X120467000Y-58131000D02*
X136533000Y-58131000D01*
X120463000Y-58091000D02*
X136537000Y-58091000D01*
X120459000Y-58051000D02*
X136541000Y-58051000D01*
X120455000Y-58011000D02*
X136545000Y-58011000D01*
X120451000Y-57971000D02*
X136549000Y-57971000D01*
X120448000Y-57930000D02*
X136552000Y-57930000D01*
X120445000Y-57890000D02*
X136555000Y-57890000D01*
X120442000Y-57850000D02*
X136558000Y-57850000D01*
X120439000Y-57810000D02*
X136561000Y-57810000D01*
X120436000Y-57770000D02*
X136564000Y-57770000D01*
X120434000Y-57730000D02*
X136566000Y-57730000D01*
X120431000Y-57690000D02*
X136569000Y-57690000D01*
X120429000Y-57650000D02*
X136571000Y-57650000D01*
X120427000Y-57610000D02*
X136573000Y-57610000D01*
X120426000Y-57570000D02*
X136574000Y-57570000D01*
X120424000Y-57530000D02*
X136576000Y-57530000D01*
X120423000Y-57490000D02*
X136577000Y-57490000D01*
X120422000Y-57450000D02*
X136578000Y-57450000D01*
X120421000Y-57410000D02*
X136579000Y-57410000D01*
X120420000Y-57370000D02*
X136580000Y-57370000D01*
X120420000Y-57330000D02*
X136580000Y-57330000D01*
X120420000Y-57290000D02*
X136580000Y-57290000D01*
X120419000Y-57250000D02*
X136581000Y-57250000D01*
X136620000Y-57250000D02*
G75*
G03X136620000Y-57250000I-8120000J0D01*
G01*
X186145000Y-49360509D02*
X187745000Y-49360509D01*
X186945000Y-48560509D02*
X186945000Y-50160509D01*
X190735000Y-65331000D02*
X192265000Y-65331000D01*
X190402000Y-65291000D02*
X192598000Y-65291000D01*
X190149000Y-65251000D02*
X192851000Y-65251000D01*
X189936000Y-65211000D02*
X193064000Y-65211000D01*
X189748000Y-65171000D02*
X193252000Y-65171000D01*
X189580000Y-65131000D02*
X193420000Y-65131000D01*
X189426000Y-65091000D02*
X193574000Y-65091000D01*
X189282000Y-65051000D02*
X193718000Y-65051000D01*
X189149000Y-65011000D02*
X193851000Y-65011000D01*
X189022000Y-64971000D02*
X193978000Y-64971000D01*
X188903000Y-64931000D02*
X194097000Y-64931000D01*
X188789000Y-64891000D02*
X194211000Y-64891000D01*
X188680000Y-64851000D02*
X194320000Y-64851000D01*
X188576000Y-64811000D02*
X194424000Y-64811000D01*
X188476000Y-64771000D02*
X194524000Y-64771000D01*
X188380000Y-64731000D02*
X194620000Y-64731000D01*
X188287000Y-64691000D02*
X194713000Y-64691000D01*
X188197000Y-64651000D02*
X194803000Y-64651000D01*
X188110000Y-64611000D02*
X194890000Y-64611000D01*
X188025000Y-64571000D02*
X194975000Y-64571000D01*
X187943000Y-64531000D02*
X195057000Y-64531000D01*
X187863000Y-64491000D02*
X195137000Y-64491000D01*
X187785000Y-64451000D02*
X195215000Y-64451000D01*
X187710000Y-64411000D02*
X195290000Y-64411000D01*
X187636000Y-64371000D02*
X195364000Y-64371000D01*
X187564000Y-64331000D02*
X195436000Y-64331000D01*
X187493000Y-64291000D02*
X195507000Y-64291000D01*
X187424000Y-64251000D02*
X195576000Y-64251000D01*
X187357000Y-64211000D02*
X195643000Y-64211000D01*
X187291000Y-64171000D02*
X195709000Y-64171000D01*
X187227000Y-64131000D02*
X195773000Y-64131000D01*
X187164000Y-64091000D02*
X195836000Y-64091000D01*
X187102000Y-64051000D02*
X195898000Y-64051000D01*
X187041000Y-64011000D02*
X195959000Y-64011000D01*
X186981000Y-63971000D02*
X196019000Y-63971000D01*
X186923000Y-63931000D02*
X196077000Y-63931000D01*
X186866000Y-63891000D02*
X196134000Y-63891000D01*
X186809000Y-63851000D02*
X196191000Y-63851000D01*
X186754000Y-63811000D02*
X196246000Y-63811000D01*
X186700000Y-63771000D02*
X196300000Y-63771000D01*
X186646000Y-63731000D02*
X196354000Y-63731000D01*
X186594000Y-63691000D02*
X196406000Y-63691000D01*
X186542000Y-63651000D02*
X196458000Y-63651000D01*
X186491000Y-63611000D02*
X196509000Y-63611000D01*
X186441000Y-63571000D02*
X196559000Y-63571000D01*
X186392000Y-63531000D02*
X196608000Y-63531000D01*
X186344000Y-63491000D02*
X196656000Y-63491000D01*
X186296000Y-63451000D02*
X196704000Y-63451000D01*
X186249000Y-63411000D02*
X196751000Y-63411000D01*
X186203000Y-63371000D02*
X196797000Y-63371000D01*
X186157000Y-63331000D02*
X196843000Y-63331000D01*
X186112000Y-63291000D02*
X196888000Y-63291000D01*
X186068000Y-63251000D02*
X196932000Y-63251000D01*
X186025000Y-63211000D02*
X196975000Y-63211000D01*
X185982000Y-63171000D02*
X197018000Y-63171000D01*
X185940000Y-63131000D02*
X197060000Y-63131000D01*
X185898000Y-63091000D02*
X197102000Y-63091000D01*
X185857000Y-63051000D02*
X197143000Y-63051000D01*
X185816000Y-63011000D02*
X197184000Y-63011000D01*
X185776000Y-62971000D02*
X197224000Y-62971000D01*
X185737000Y-62931000D02*
X197263000Y-62931000D01*
X185698000Y-62891000D02*
X197302000Y-62891000D01*
X185660000Y-62851000D02*
X197340000Y-62851000D01*
X185622000Y-62811000D02*
X197378000Y-62811000D01*
X185584000Y-62771000D02*
X197416000Y-62771000D01*
X185548000Y-62731000D02*
X197452000Y-62731000D01*
X185511000Y-62691000D02*
X197489000Y-62691000D01*
X185475000Y-62651000D02*
X197525000Y-62651000D01*
X185440000Y-62611000D02*
X197560000Y-62611000D01*
X185405000Y-62571000D02*
X197595000Y-62571000D01*
X185371000Y-62531000D02*
X197629000Y-62531000D01*
X185337000Y-62491000D02*
X197663000Y-62491000D01*
X185303000Y-62451000D02*
X197697000Y-62451000D01*
X192940000Y-62411000D02*
X197730000Y-62411000D01*
X185270000Y-62411000D02*
X190060000Y-62411000D01*
X192940000Y-62371000D02*
X197763000Y-62371000D01*
X185237000Y-62371000D02*
X190060000Y-62371000D01*
X192940000Y-62331000D02*
X197795000Y-62331000D01*
X185205000Y-62331000D02*
X190060000Y-62331000D01*
X192940000Y-62291000D02*
X197827000Y-62291000D01*
X185173000Y-62291000D02*
X190060000Y-62291000D01*
X192940000Y-62251000D02*
X197858000Y-62251000D01*
X185142000Y-62251000D02*
X190060000Y-62251000D01*
X192940000Y-62211000D02*
X197890000Y-62211000D01*
X185110000Y-62211000D02*
X190060000Y-62211000D01*
X192940000Y-62171000D02*
X197920000Y-62171000D01*
X185080000Y-62171000D02*
X190060000Y-62171000D01*
X192940000Y-62131000D02*
X197950000Y-62131000D01*
X185050000Y-62131000D02*
X190060000Y-62131000D01*
X192940000Y-62091000D02*
X197980000Y-62091000D01*
X185020000Y-62091000D02*
X190060000Y-62091000D01*
X192940000Y-62051000D02*
X198010000Y-62051000D01*
X184990000Y-62051000D02*
X190060000Y-62051000D01*
X192940000Y-62011000D02*
X198039000Y-62011000D01*
X184961000Y-62011000D02*
X190060000Y-62011000D01*
X192940000Y-61971000D02*
X198068000Y-61971000D01*
X184932000Y-61971000D02*
X190060000Y-61971000D01*
X192940000Y-61931000D02*
X198096000Y-61931000D01*
X184904000Y-61931000D02*
X190060000Y-61931000D01*
X192940000Y-61891000D02*
X198124000Y-61891000D01*
X184876000Y-61891000D02*
X190060000Y-61891000D01*
X192940000Y-61851000D02*
X198152000Y-61851000D01*
X184848000Y-61851000D02*
X190060000Y-61851000D01*
X192940000Y-61811000D02*
X198179000Y-61811000D01*
X184821000Y-61811000D02*
X190060000Y-61811000D01*
X192940000Y-61771000D02*
X198206000Y-61771000D01*
X184794000Y-61771000D02*
X190060000Y-61771000D01*
X192940000Y-61731000D02*
X198233000Y-61731000D01*
X184767000Y-61731000D02*
X190060000Y-61731000D01*
X192940000Y-61691000D02*
X198259000Y-61691000D01*
X184741000Y-61691000D02*
X190060000Y-61691000D01*
X192940000Y-61651000D02*
X198285000Y-61651000D01*
X184715000Y-61651000D02*
X190060000Y-61651000D01*
X192940000Y-61611000D02*
X198311000Y-61611000D01*
X184689000Y-61611000D02*
X190060000Y-61611000D01*
X192940000Y-61571000D02*
X198336000Y-61571000D01*
X184664000Y-61571000D02*
X190060000Y-61571000D01*
X192940000Y-61531000D02*
X198361000Y-61531000D01*
X184639000Y-61531000D02*
X190060000Y-61531000D01*
X192940000Y-61491000D02*
X198386000Y-61491000D01*
X184614000Y-61491000D02*
X190060000Y-61491000D01*
X192940000Y-61451000D02*
X198410000Y-61451000D01*
X184590000Y-61451000D02*
X190060000Y-61451000D01*
X192940000Y-61411000D02*
X198434000Y-61411000D01*
X184566000Y-61411000D02*
X190060000Y-61411000D01*
X192940000Y-61371000D02*
X198458000Y-61371000D01*
X184542000Y-61371000D02*
X190060000Y-61371000D01*
X192940000Y-61331000D02*
X198481000Y-61331000D01*
X184519000Y-61331000D02*
X190060000Y-61331000D01*
X192940000Y-61291000D02*
X198504000Y-61291000D01*
X184496000Y-61291000D02*
X190060000Y-61291000D01*
X192940000Y-61251000D02*
X198527000Y-61251000D01*
X184473000Y-61251000D02*
X190060000Y-61251000D01*
X192940000Y-61211000D02*
X198549000Y-61211000D01*
X184451000Y-61211000D02*
X190060000Y-61211000D01*
X192940000Y-61171000D02*
X198572000Y-61171000D01*
X184428000Y-61171000D02*
X190060000Y-61171000D01*
X192940000Y-61131000D02*
X198594000Y-61131000D01*
X184406000Y-61131000D02*
X190060000Y-61131000D01*
X192940000Y-61091000D02*
X198615000Y-61091000D01*
X184385000Y-61091000D02*
X190060000Y-61091000D01*
X192940000Y-61051000D02*
X198636000Y-61051000D01*
X184364000Y-61051000D02*
X190060000Y-61051000D01*
X192940000Y-61011000D02*
X198657000Y-61011000D01*
X184343000Y-61011000D02*
X190060000Y-61011000D01*
X192940000Y-60971000D02*
X198678000Y-60971000D01*
X184322000Y-60971000D02*
X190060000Y-60971000D01*
X192940000Y-60931000D02*
X198699000Y-60931000D01*
X184301000Y-60931000D02*
X190060000Y-60931000D01*
X192940000Y-60891000D02*
X198719000Y-60891000D01*
X184281000Y-60891000D02*
X190060000Y-60891000D01*
X192940000Y-60851000D02*
X198739000Y-60851000D01*
X184261000Y-60851000D02*
X190060000Y-60851000D01*
X192940000Y-60811000D02*
X198758000Y-60811000D01*
X184242000Y-60811000D02*
X190060000Y-60811000D01*
X192940000Y-60771000D02*
X198778000Y-60771000D01*
X184222000Y-60771000D02*
X190060000Y-60771000D01*
X192940000Y-60731000D02*
X198797000Y-60731000D01*
X184203000Y-60731000D02*
X190060000Y-60731000D01*
X192940000Y-60691000D02*
X198816000Y-60691000D01*
X184184000Y-60691000D02*
X190060000Y-60691000D01*
X192940000Y-60651000D02*
X198834000Y-60651000D01*
X184166000Y-60651000D02*
X190060000Y-60651000D01*
X192940000Y-60611000D02*
X198853000Y-60611000D01*
X184147000Y-60611000D02*
X190060000Y-60611000D01*
X192940000Y-60571000D02*
X198871000Y-60571000D01*
X184129000Y-60571000D02*
X190060000Y-60571000D01*
X192940000Y-60531000D02*
X198889000Y-60531000D01*
X184111000Y-60531000D02*
X190060000Y-60531000D01*
X192940000Y-60491000D02*
X198906000Y-60491000D01*
X184094000Y-60491000D02*
X190060000Y-60491000D01*
X192940000Y-60451000D02*
X198923000Y-60451000D01*
X184077000Y-60451000D02*
X190060000Y-60451000D01*
X192940000Y-60411000D02*
X198940000Y-60411000D01*
X184060000Y-60411000D02*
X190060000Y-60411000D01*
X192940000Y-60371000D02*
X198957000Y-60371000D01*
X184043000Y-60371000D02*
X190060000Y-60371000D01*
X192940000Y-60331000D02*
X198974000Y-60331000D01*
X184026000Y-60331000D02*
X190060000Y-60331000D01*
X192940000Y-60291000D02*
X198990000Y-60291000D01*
X184010000Y-60291000D02*
X190060000Y-60291000D01*
X192940000Y-60251000D02*
X199006000Y-60251000D01*
X183994000Y-60251000D02*
X190060000Y-60251000D01*
X192940000Y-60211000D02*
X199022000Y-60211000D01*
X183978000Y-60211000D02*
X190060000Y-60211000D01*
X192940000Y-60171000D02*
X199037000Y-60171000D01*
X183963000Y-60171000D02*
X190060000Y-60171000D01*
X192940000Y-60131000D02*
X199053000Y-60131000D01*
X183947000Y-60131000D02*
X190060000Y-60131000D01*
X192940000Y-60091000D02*
X199068000Y-60091000D01*
X183932000Y-60091000D02*
X190060000Y-60091000D01*
X192940000Y-60051000D02*
X199082000Y-60051000D01*
X183918000Y-60051000D02*
X190060000Y-60051000D01*
X192940000Y-60011000D02*
X199097000Y-60011000D01*
X183903000Y-60011000D02*
X190060000Y-60011000D01*
X192940000Y-59971000D02*
X199111000Y-59971000D01*
X183889000Y-59971000D02*
X190060000Y-59971000D01*
X192940000Y-59931000D02*
X199125000Y-59931000D01*
X183875000Y-59931000D02*
X190060000Y-59931000D01*
X192940000Y-59891000D02*
X199139000Y-59891000D01*
X183861000Y-59891000D02*
X190060000Y-59891000D01*
X192940000Y-59851000D02*
X199153000Y-59851000D01*
X183847000Y-59851000D02*
X190060000Y-59851000D01*
X192940000Y-59811000D02*
X199166000Y-59811000D01*
X183834000Y-59811000D02*
X190060000Y-59811000D01*
X192940000Y-59771000D02*
X199180000Y-59771000D01*
X183820000Y-59771000D02*
X190060000Y-59771000D01*
X192940000Y-59731000D02*
X199193000Y-59731000D01*
X183807000Y-59731000D02*
X190060000Y-59731000D01*
X192940000Y-59691000D02*
X199205000Y-59691000D01*
X183795000Y-59691000D02*
X190060000Y-59691000D01*
X192940000Y-59651000D02*
X199218000Y-59651000D01*
X183782000Y-59651000D02*
X190060000Y-59651000D01*
X192940000Y-59611000D02*
X199230000Y-59611000D01*
X183770000Y-59611000D02*
X190060000Y-59611000D01*
X192940000Y-59571000D02*
X199242000Y-59571000D01*
X183758000Y-59571000D02*
X190060000Y-59571000D01*
X183746000Y-59531000D02*
X199254000Y-59531000D01*
X183735000Y-59491000D02*
X199265000Y-59491000D01*
X183723000Y-59451000D02*
X199277000Y-59451000D01*
X183712000Y-59411000D02*
X199288000Y-59411000D01*
X183701000Y-59371000D02*
X199299000Y-59371000D01*
X183690000Y-59331000D02*
X199310000Y-59331000D01*
X183680000Y-59291000D02*
X199320000Y-59291000D01*
X183670000Y-59251000D02*
X199330000Y-59251000D01*
X183660000Y-59211000D02*
X199340000Y-59211000D01*
X183650000Y-59171000D02*
X199350000Y-59171000D01*
X183640000Y-59131000D02*
X199360000Y-59131000D01*
X183631000Y-59091000D02*
X199369000Y-59091000D01*
X183622000Y-59051000D02*
X199378000Y-59051000D01*
X183613000Y-59011000D02*
X199387000Y-59011000D01*
X183604000Y-58971000D02*
X199396000Y-58971000D01*
X183595000Y-58931000D02*
X199405000Y-58931000D01*
X183587000Y-58891000D02*
X199413000Y-58891000D01*
X183579000Y-58851000D02*
X199421000Y-58851000D01*
X183571000Y-58811000D02*
X199429000Y-58811000D01*
X183563000Y-58771000D02*
X199437000Y-58771000D01*
X183556000Y-58731000D02*
X199444000Y-58731000D01*
X183548000Y-58691000D02*
X199452000Y-58691000D01*
X183541000Y-58651000D02*
X199459000Y-58651000D01*
X183534000Y-58611000D02*
X199466000Y-58611000D01*
X183528000Y-58571000D02*
X199472000Y-58571000D01*
X183521000Y-58531000D02*
X199479000Y-58531000D01*
X183515000Y-58491000D02*
X199485000Y-58491000D01*
X183509000Y-58451000D02*
X199491000Y-58451000D01*
X183503000Y-58411000D02*
X199497000Y-58411000D01*
X183497000Y-58371000D02*
X199503000Y-58371000D01*
X183492000Y-58331000D02*
X199508000Y-58331000D01*
X183486000Y-58291000D02*
X199514000Y-58291000D01*
X183481000Y-58251000D02*
X199519000Y-58251000D01*
X183476000Y-58211000D02*
X199524000Y-58211000D01*
X183472000Y-58171000D02*
X199528000Y-58171000D01*
X183467000Y-58131000D02*
X199533000Y-58131000D01*
X183463000Y-58091000D02*
X199537000Y-58091000D01*
X183459000Y-58051000D02*
X199541000Y-58051000D01*
X183455000Y-58011000D02*
X199545000Y-58011000D01*
X183451000Y-57971000D02*
X199549000Y-57971000D01*
X183448000Y-57930000D02*
X199552000Y-57930000D01*
X183445000Y-57890000D02*
X199555000Y-57890000D01*
X183442000Y-57850000D02*
X199558000Y-57850000D01*
X183439000Y-57810000D02*
X199561000Y-57810000D01*
X183436000Y-57770000D02*
X199564000Y-57770000D01*
X183434000Y-57730000D02*
X199566000Y-57730000D01*
X183431000Y-57690000D02*
X199569000Y-57690000D01*
X183429000Y-57650000D02*
X199571000Y-57650000D01*
X183427000Y-57610000D02*
X199573000Y-57610000D01*
X183426000Y-57570000D02*
X199574000Y-57570000D01*
X183424000Y-57530000D02*
X199576000Y-57530000D01*
X183423000Y-57490000D02*
X199577000Y-57490000D01*
X183422000Y-57450000D02*
X199578000Y-57450000D01*
X183421000Y-57410000D02*
X199579000Y-57410000D01*
X183420000Y-57370000D02*
X199580000Y-57370000D01*
X183420000Y-57330000D02*
X199580000Y-57330000D01*
X183420000Y-57290000D02*
X199580000Y-57290000D01*
X183419000Y-57250000D02*
X199581000Y-57250000D01*
X199620000Y-57250000D02*
G75*
G03X199620000Y-57250000I-8120000J0D01*
G01*
X143645000Y-49360509D02*
X145245000Y-49360509D01*
X144445000Y-48560509D02*
X144445000Y-50160509D01*
X148235000Y-65331000D02*
X149765000Y-65331000D01*
X147902000Y-65291000D02*
X150098000Y-65291000D01*
X147649000Y-65251000D02*
X150351000Y-65251000D01*
X147436000Y-65211000D02*
X150564000Y-65211000D01*
X147248000Y-65171000D02*
X150752000Y-65171000D01*
X147080000Y-65131000D02*
X150920000Y-65131000D01*
X146926000Y-65091000D02*
X151074000Y-65091000D01*
X146782000Y-65051000D02*
X151218000Y-65051000D01*
X146649000Y-65011000D02*
X151351000Y-65011000D01*
X146522000Y-64971000D02*
X151478000Y-64971000D01*
X146403000Y-64931000D02*
X151597000Y-64931000D01*
X146289000Y-64891000D02*
X151711000Y-64891000D01*
X146180000Y-64851000D02*
X151820000Y-64851000D01*
X146076000Y-64811000D02*
X151924000Y-64811000D01*
X145976000Y-64771000D02*
X152024000Y-64771000D01*
X145880000Y-64731000D02*
X152120000Y-64731000D01*
X145787000Y-64691000D02*
X152213000Y-64691000D01*
X145697000Y-64651000D02*
X152303000Y-64651000D01*
X145610000Y-64611000D02*
X152390000Y-64611000D01*
X145525000Y-64571000D02*
X152475000Y-64571000D01*
X145443000Y-64531000D02*
X152557000Y-64531000D01*
X145363000Y-64491000D02*
X152637000Y-64491000D01*
X145285000Y-64451000D02*
X152715000Y-64451000D01*
X145210000Y-64411000D02*
X152790000Y-64411000D01*
X145136000Y-64371000D02*
X152864000Y-64371000D01*
X145064000Y-64331000D02*
X152936000Y-64331000D01*
X144993000Y-64291000D02*
X153007000Y-64291000D01*
X144924000Y-64251000D02*
X153076000Y-64251000D01*
X144857000Y-64211000D02*
X153143000Y-64211000D01*
X144791000Y-64171000D02*
X153209000Y-64171000D01*
X144727000Y-64131000D02*
X153273000Y-64131000D01*
X144664000Y-64091000D02*
X153336000Y-64091000D01*
X144602000Y-64051000D02*
X153398000Y-64051000D01*
X144541000Y-64011000D02*
X153459000Y-64011000D01*
X144481000Y-63971000D02*
X153519000Y-63971000D01*
X144423000Y-63931000D02*
X153577000Y-63931000D01*
X144366000Y-63891000D02*
X153634000Y-63891000D01*
X144309000Y-63851000D02*
X153691000Y-63851000D01*
X144254000Y-63811000D02*
X153746000Y-63811000D01*
X144200000Y-63771000D02*
X153800000Y-63771000D01*
X144146000Y-63731000D02*
X153854000Y-63731000D01*
X144094000Y-63691000D02*
X153906000Y-63691000D01*
X144042000Y-63651000D02*
X153958000Y-63651000D01*
X143991000Y-63611000D02*
X154009000Y-63611000D01*
X143941000Y-63571000D02*
X154059000Y-63571000D01*
X143892000Y-63531000D02*
X154108000Y-63531000D01*
X143844000Y-63491000D02*
X154156000Y-63491000D01*
X143796000Y-63451000D02*
X154204000Y-63451000D01*
X143749000Y-63411000D02*
X154251000Y-63411000D01*
X143703000Y-63371000D02*
X154297000Y-63371000D01*
X143657000Y-63331000D02*
X154343000Y-63331000D01*
X143612000Y-63291000D02*
X154388000Y-63291000D01*
X143568000Y-63251000D02*
X154432000Y-63251000D01*
X143525000Y-63211000D02*
X154475000Y-63211000D01*
X143482000Y-63171000D02*
X154518000Y-63171000D01*
X143440000Y-63131000D02*
X154560000Y-63131000D01*
X143398000Y-63091000D02*
X154602000Y-63091000D01*
X143357000Y-63051000D02*
X154643000Y-63051000D01*
X143316000Y-63011000D02*
X154684000Y-63011000D01*
X143276000Y-62971000D02*
X154724000Y-62971000D01*
X143237000Y-62931000D02*
X154763000Y-62931000D01*
X143198000Y-62891000D02*
X154802000Y-62891000D01*
X143160000Y-62851000D02*
X154840000Y-62851000D01*
X143122000Y-62811000D02*
X154878000Y-62811000D01*
X143084000Y-62771000D02*
X154916000Y-62771000D01*
X143048000Y-62731000D02*
X154952000Y-62731000D01*
X143011000Y-62691000D02*
X154989000Y-62691000D01*
X142975000Y-62651000D02*
X155025000Y-62651000D01*
X142940000Y-62611000D02*
X155060000Y-62611000D01*
X142905000Y-62571000D02*
X155095000Y-62571000D01*
X142871000Y-62531000D02*
X155129000Y-62531000D01*
X142837000Y-62491000D02*
X155163000Y-62491000D01*
X142803000Y-62451000D02*
X155197000Y-62451000D01*
X150440000Y-62411000D02*
X155230000Y-62411000D01*
X142770000Y-62411000D02*
X147560000Y-62411000D01*
X150440000Y-62371000D02*
X155263000Y-62371000D01*
X142737000Y-62371000D02*
X147560000Y-62371000D01*
X150440000Y-62331000D02*
X155295000Y-62331000D01*
X142705000Y-62331000D02*
X147560000Y-62331000D01*
X150440000Y-62291000D02*
X155327000Y-62291000D01*
X142673000Y-62291000D02*
X147560000Y-62291000D01*
X150440000Y-62251000D02*
X155358000Y-62251000D01*
X142642000Y-62251000D02*
X147560000Y-62251000D01*
X150440000Y-62211000D02*
X155390000Y-62211000D01*
X142610000Y-62211000D02*
X147560000Y-62211000D01*
X150440000Y-62171000D02*
X155420000Y-62171000D01*
X142580000Y-62171000D02*
X147560000Y-62171000D01*
X150440000Y-62131000D02*
X155450000Y-62131000D01*
X142550000Y-62131000D02*
X147560000Y-62131000D01*
X150440000Y-62091000D02*
X155480000Y-62091000D01*
X142520000Y-62091000D02*
X147560000Y-62091000D01*
X150440000Y-62051000D02*
X155510000Y-62051000D01*
X142490000Y-62051000D02*
X147560000Y-62051000D01*
X150440000Y-62011000D02*
X155539000Y-62011000D01*
X142461000Y-62011000D02*
X147560000Y-62011000D01*
X150440000Y-61971000D02*
X155568000Y-61971000D01*
X142432000Y-61971000D02*
X147560000Y-61971000D01*
X150440000Y-61931000D02*
X155596000Y-61931000D01*
X142404000Y-61931000D02*
X147560000Y-61931000D01*
X150440000Y-61891000D02*
X155624000Y-61891000D01*
X142376000Y-61891000D02*
X147560000Y-61891000D01*
X150440000Y-61851000D02*
X155652000Y-61851000D01*
X142348000Y-61851000D02*
X147560000Y-61851000D01*
X150440000Y-61811000D02*
X155679000Y-61811000D01*
X142321000Y-61811000D02*
X147560000Y-61811000D01*
X150440000Y-61771000D02*
X155706000Y-61771000D01*
X142294000Y-61771000D02*
X147560000Y-61771000D01*
X150440000Y-61731000D02*
X155733000Y-61731000D01*
X142267000Y-61731000D02*
X147560000Y-61731000D01*
X150440000Y-61691000D02*
X155759000Y-61691000D01*
X142241000Y-61691000D02*
X147560000Y-61691000D01*
X150440000Y-61651000D02*
X155785000Y-61651000D01*
X142215000Y-61651000D02*
X147560000Y-61651000D01*
X150440000Y-61611000D02*
X155811000Y-61611000D01*
X142189000Y-61611000D02*
X147560000Y-61611000D01*
X150440000Y-61571000D02*
X155836000Y-61571000D01*
X142164000Y-61571000D02*
X147560000Y-61571000D01*
X150440000Y-61531000D02*
X155861000Y-61531000D01*
X142139000Y-61531000D02*
X147560000Y-61531000D01*
X150440000Y-61491000D02*
X155886000Y-61491000D01*
X142114000Y-61491000D02*
X147560000Y-61491000D01*
X150440000Y-61451000D02*
X155910000Y-61451000D01*
X142090000Y-61451000D02*
X147560000Y-61451000D01*
X150440000Y-61411000D02*
X155934000Y-61411000D01*
X142066000Y-61411000D02*
X147560000Y-61411000D01*
X150440000Y-61371000D02*
X155958000Y-61371000D01*
X142042000Y-61371000D02*
X147560000Y-61371000D01*
X150440000Y-61331000D02*
X155981000Y-61331000D01*
X142019000Y-61331000D02*
X147560000Y-61331000D01*
X150440000Y-61291000D02*
X156004000Y-61291000D01*
X141996000Y-61291000D02*
X147560000Y-61291000D01*
X150440000Y-61251000D02*
X156027000Y-61251000D01*
X141973000Y-61251000D02*
X147560000Y-61251000D01*
X150440000Y-61211000D02*
X156049000Y-61211000D01*
X141951000Y-61211000D02*
X147560000Y-61211000D01*
X150440000Y-61171000D02*
X156072000Y-61171000D01*
X141928000Y-61171000D02*
X147560000Y-61171000D01*
X150440000Y-61131000D02*
X156094000Y-61131000D01*
X141906000Y-61131000D02*
X147560000Y-61131000D01*
X150440000Y-61091000D02*
X156115000Y-61091000D01*
X141885000Y-61091000D02*
X147560000Y-61091000D01*
X150440000Y-61051000D02*
X156136000Y-61051000D01*
X141864000Y-61051000D02*
X147560000Y-61051000D01*
X150440000Y-61011000D02*
X156157000Y-61011000D01*
X141843000Y-61011000D02*
X147560000Y-61011000D01*
X150440000Y-60971000D02*
X156178000Y-60971000D01*
X141822000Y-60971000D02*
X147560000Y-60971000D01*
X150440000Y-60931000D02*
X156199000Y-60931000D01*
X141801000Y-60931000D02*
X147560000Y-60931000D01*
X150440000Y-60891000D02*
X156219000Y-60891000D01*
X141781000Y-60891000D02*
X147560000Y-60891000D01*
X150440000Y-60851000D02*
X156239000Y-60851000D01*
X141761000Y-60851000D02*
X147560000Y-60851000D01*
X150440000Y-60811000D02*
X156258000Y-60811000D01*
X141742000Y-60811000D02*
X147560000Y-60811000D01*
X150440000Y-60771000D02*
X156278000Y-60771000D01*
X141722000Y-60771000D02*
X147560000Y-60771000D01*
X150440000Y-60731000D02*
X156297000Y-60731000D01*
X141703000Y-60731000D02*
X147560000Y-60731000D01*
X150440000Y-60691000D02*
X156316000Y-60691000D01*
X141684000Y-60691000D02*
X147560000Y-60691000D01*
X150440000Y-60651000D02*
X156334000Y-60651000D01*
X141666000Y-60651000D02*
X147560000Y-60651000D01*
X150440000Y-60611000D02*
X156353000Y-60611000D01*
X141647000Y-60611000D02*
X147560000Y-60611000D01*
X150440000Y-60571000D02*
X156371000Y-60571000D01*
X141629000Y-60571000D02*
X147560000Y-60571000D01*
X150440000Y-60531000D02*
X156389000Y-60531000D01*
X141611000Y-60531000D02*
X147560000Y-60531000D01*
X150440000Y-60491000D02*
X156406000Y-60491000D01*
X141594000Y-60491000D02*
X147560000Y-60491000D01*
X150440000Y-60451000D02*
X156423000Y-60451000D01*
X141577000Y-60451000D02*
X147560000Y-60451000D01*
X150440000Y-60411000D02*
X156440000Y-60411000D01*
X141560000Y-60411000D02*
X147560000Y-60411000D01*
X150440000Y-60371000D02*
X156457000Y-60371000D01*
X141543000Y-60371000D02*
X147560000Y-60371000D01*
X150440000Y-60331000D02*
X156474000Y-60331000D01*
X141526000Y-60331000D02*
X147560000Y-60331000D01*
X150440000Y-60291000D02*
X156490000Y-60291000D01*
X141510000Y-60291000D02*
X147560000Y-60291000D01*
X150440000Y-60251000D02*
X156506000Y-60251000D01*
X141494000Y-60251000D02*
X147560000Y-60251000D01*
X150440000Y-60211000D02*
X156522000Y-60211000D01*
X141478000Y-60211000D02*
X147560000Y-60211000D01*
X150440000Y-60171000D02*
X156537000Y-60171000D01*
X141463000Y-60171000D02*
X147560000Y-60171000D01*
X150440000Y-60131000D02*
X156553000Y-60131000D01*
X141447000Y-60131000D02*
X147560000Y-60131000D01*
X150440000Y-60091000D02*
X156568000Y-60091000D01*
X141432000Y-60091000D02*
X147560000Y-60091000D01*
X150440000Y-60051000D02*
X156582000Y-60051000D01*
X141418000Y-60051000D02*
X147560000Y-60051000D01*
X150440000Y-60011000D02*
X156597000Y-60011000D01*
X141403000Y-60011000D02*
X147560000Y-60011000D01*
X150440000Y-59971000D02*
X156611000Y-59971000D01*
X141389000Y-59971000D02*
X147560000Y-59971000D01*
X150440000Y-59931000D02*
X156625000Y-59931000D01*
X141375000Y-59931000D02*
X147560000Y-59931000D01*
X150440000Y-59891000D02*
X156639000Y-59891000D01*
X141361000Y-59891000D02*
X147560000Y-59891000D01*
X150440000Y-59851000D02*
X156653000Y-59851000D01*
X141347000Y-59851000D02*
X147560000Y-59851000D01*
X150440000Y-59811000D02*
X156666000Y-59811000D01*
X141334000Y-59811000D02*
X147560000Y-59811000D01*
X150440000Y-59771000D02*
X156680000Y-59771000D01*
X141320000Y-59771000D02*
X147560000Y-59771000D01*
X150440000Y-59731000D02*
X156693000Y-59731000D01*
X141307000Y-59731000D02*
X147560000Y-59731000D01*
X150440000Y-59691000D02*
X156705000Y-59691000D01*
X141295000Y-59691000D02*
X147560000Y-59691000D01*
X150440000Y-59651000D02*
X156718000Y-59651000D01*
X141282000Y-59651000D02*
X147560000Y-59651000D01*
X150440000Y-59611000D02*
X156730000Y-59611000D01*
X141270000Y-59611000D02*
X147560000Y-59611000D01*
X150440000Y-59571000D02*
X156742000Y-59571000D01*
X141258000Y-59571000D02*
X147560000Y-59571000D01*
X141246000Y-59531000D02*
X156754000Y-59531000D01*
X141235000Y-59491000D02*
X156765000Y-59491000D01*
X141223000Y-59451000D02*
X156777000Y-59451000D01*
X141212000Y-59411000D02*
X156788000Y-59411000D01*
X141201000Y-59371000D02*
X156799000Y-59371000D01*
X141190000Y-59331000D02*
X156810000Y-59331000D01*
X141180000Y-59291000D02*
X156820000Y-59291000D01*
X141170000Y-59251000D02*
X156830000Y-59251000D01*
X141160000Y-59211000D02*
X156840000Y-59211000D01*
X141150000Y-59171000D02*
X156850000Y-59171000D01*
X141140000Y-59131000D02*
X156860000Y-59131000D01*
X141131000Y-59091000D02*
X156869000Y-59091000D01*
X141122000Y-59051000D02*
X156878000Y-59051000D01*
X141113000Y-59011000D02*
X156887000Y-59011000D01*
X141104000Y-58971000D02*
X156896000Y-58971000D01*
X141095000Y-58931000D02*
X156905000Y-58931000D01*
X141087000Y-58891000D02*
X156913000Y-58891000D01*
X141079000Y-58851000D02*
X156921000Y-58851000D01*
X141071000Y-58811000D02*
X156929000Y-58811000D01*
X141063000Y-58771000D02*
X156937000Y-58771000D01*
X141056000Y-58731000D02*
X156944000Y-58731000D01*
X141048000Y-58691000D02*
X156952000Y-58691000D01*
X141041000Y-58651000D02*
X156959000Y-58651000D01*
X141034000Y-58611000D02*
X156966000Y-58611000D01*
X141028000Y-58571000D02*
X156972000Y-58571000D01*
X141021000Y-58531000D02*
X156979000Y-58531000D01*
X141015000Y-58491000D02*
X156985000Y-58491000D01*
X141009000Y-58451000D02*
X156991000Y-58451000D01*
X141003000Y-58411000D02*
X156997000Y-58411000D01*
X140997000Y-58371000D02*
X157003000Y-58371000D01*
X140992000Y-58331000D02*
X157008000Y-58331000D01*
X140986000Y-58291000D02*
X157014000Y-58291000D01*
X140981000Y-58251000D02*
X157019000Y-58251000D01*
X140976000Y-58211000D02*
X157024000Y-58211000D01*
X140972000Y-58171000D02*
X157028000Y-58171000D01*
X140967000Y-58131000D02*
X157033000Y-58131000D01*
X140963000Y-58091000D02*
X157037000Y-58091000D01*
X140959000Y-58051000D02*
X157041000Y-58051000D01*
X140955000Y-58011000D02*
X157045000Y-58011000D01*
X140951000Y-57971000D02*
X157049000Y-57971000D01*
X140948000Y-57930000D02*
X157052000Y-57930000D01*
X140945000Y-57890000D02*
X157055000Y-57890000D01*
X140942000Y-57850000D02*
X157058000Y-57850000D01*
X140939000Y-57810000D02*
X157061000Y-57810000D01*
X140936000Y-57770000D02*
X157064000Y-57770000D01*
X140934000Y-57730000D02*
X157066000Y-57730000D01*
X140931000Y-57690000D02*
X157069000Y-57690000D01*
X140929000Y-57650000D02*
X157071000Y-57650000D01*
X140927000Y-57610000D02*
X157073000Y-57610000D01*
X140926000Y-57570000D02*
X157074000Y-57570000D01*
X140924000Y-57530000D02*
X157076000Y-57530000D01*
X140923000Y-57490000D02*
X157077000Y-57490000D01*
X140922000Y-57450000D02*
X157078000Y-57450000D01*
X140921000Y-57410000D02*
X157079000Y-57410000D01*
X140920000Y-57370000D02*
X157080000Y-57370000D01*
X140920000Y-57330000D02*
X157080000Y-57330000D01*
X140920000Y-57290000D02*
X157080000Y-57290000D01*
X140919000Y-57250000D02*
X157081000Y-57250000D01*
X157120000Y-57250000D02*
G75*
G03X157120000Y-57250000I-8120000J0D01*
G01*
X144170000Y-108965000D02*
X144235000Y-108965000D01*
X144170000Y-105435000D02*
X144235000Y-105435000D01*
X137765000Y-108965000D02*
X137830000Y-108965000D01*
X137765000Y-105435000D02*
X137830000Y-105435000D01*
X137830000Y-104110000D02*
X137830000Y-105435000D01*
X144235000Y-105435000D02*
X144235000Y-108965000D01*
X137765000Y-105435000D02*
X137765000Y-108965000D01*
X124450000Y-114400000D02*
X124450000Y-113400000D01*
X124450000Y-114400000D02*
X125450000Y-114400000D01*
X127650000Y-107650000D02*
X127650000Y-110625000D01*
X126800000Y-107650000D02*
X127650000Y-107650000D01*
X126800000Y-107450000D02*
X126800000Y-107650000D01*
X126000000Y-107450000D02*
X126800000Y-107450000D01*
X126000000Y-107650000D02*
X126000000Y-107450000D01*
X125250000Y-107650000D02*
X126000000Y-107650000D01*
X125250000Y-110625000D02*
X125250000Y-107650000D01*
X127650000Y-113600000D02*
X127650000Y-110625000D01*
X126800000Y-113600000D02*
X127650000Y-113600000D01*
X126800000Y-113800000D02*
X126800000Y-113600000D01*
X126000000Y-113800000D02*
X126800000Y-113800000D01*
X126000000Y-113600000D02*
X126000000Y-113800000D01*
X125250000Y-113600000D02*
X126000000Y-113600000D01*
X125250000Y-110625000D02*
X125250000Y-113600000D01*
X128160000Y-107140000D02*
X128160000Y-114110000D01*
X124740000Y-107140000D02*
X128160000Y-107140000D01*
X124740000Y-114110000D02*
X124740000Y-107140000D01*
X128160000Y-114110000D02*
X124740000Y-114110000D01*
X166000000Y-63250000D02*
X164000000Y-65250000D01*
X164000000Y-65250000D02*
X160000000Y-65250000D01*
X160000000Y-65250000D02*
X158000000Y-63250000D01*
X158000000Y-63250000D02*
X158000000Y-49250000D01*
X158000000Y-49250000D02*
X166000000Y-49250000D01*
X166000000Y-49250000D02*
X166000000Y-63250000D01*
X169645000Y-49360509D02*
X171245000Y-49360509D01*
X170445000Y-48560509D02*
X170445000Y-50160509D01*
X174235000Y-65331000D02*
X175765000Y-65331000D01*
X173902000Y-65291000D02*
X176098000Y-65291000D01*
X173649000Y-65251000D02*
X176351000Y-65251000D01*
X173436000Y-65211000D02*
X176564000Y-65211000D01*
X173248000Y-65171000D02*
X176752000Y-65171000D01*
X173080000Y-65131000D02*
X176920000Y-65131000D01*
X172926000Y-65091000D02*
X177074000Y-65091000D01*
X172782000Y-65051000D02*
X177218000Y-65051000D01*
X172649000Y-65011000D02*
X177351000Y-65011000D01*
X172522000Y-64971000D02*
X177478000Y-64971000D01*
X172403000Y-64931000D02*
X177597000Y-64931000D01*
X172289000Y-64891000D02*
X177711000Y-64891000D01*
X172180000Y-64851000D02*
X177820000Y-64851000D01*
X172076000Y-64811000D02*
X177924000Y-64811000D01*
X171976000Y-64771000D02*
X178024000Y-64771000D01*
X171880000Y-64731000D02*
X178120000Y-64731000D01*
X171787000Y-64691000D02*
X178213000Y-64691000D01*
X171697000Y-64651000D02*
X178303000Y-64651000D01*
X171610000Y-64611000D02*
X178390000Y-64611000D01*
X171525000Y-64571000D02*
X178475000Y-64571000D01*
X171443000Y-64531000D02*
X178557000Y-64531000D01*
X171363000Y-64491000D02*
X178637000Y-64491000D01*
X171285000Y-64451000D02*
X178715000Y-64451000D01*
X171210000Y-64411000D02*
X178790000Y-64411000D01*
X171136000Y-64371000D02*
X178864000Y-64371000D01*
X171064000Y-64331000D02*
X178936000Y-64331000D01*
X170993000Y-64291000D02*
X179007000Y-64291000D01*
X170924000Y-64251000D02*
X179076000Y-64251000D01*
X170857000Y-64211000D02*
X179143000Y-64211000D01*
X170791000Y-64171000D02*
X179209000Y-64171000D01*
X170727000Y-64131000D02*
X179273000Y-64131000D01*
X170664000Y-64091000D02*
X179336000Y-64091000D01*
X170602000Y-64051000D02*
X179398000Y-64051000D01*
X170541000Y-64011000D02*
X179459000Y-64011000D01*
X170481000Y-63971000D02*
X179519000Y-63971000D01*
X170423000Y-63931000D02*
X179577000Y-63931000D01*
X170366000Y-63891000D02*
X179634000Y-63891000D01*
X170309000Y-63851000D02*
X179691000Y-63851000D01*
X170254000Y-63811000D02*
X179746000Y-63811000D01*
X170200000Y-63771000D02*
X179800000Y-63771000D01*
X170146000Y-63731000D02*
X179854000Y-63731000D01*
X170094000Y-63691000D02*
X179906000Y-63691000D01*
X170042000Y-63651000D02*
X179958000Y-63651000D01*
X169991000Y-63611000D02*
X180009000Y-63611000D01*
X169941000Y-63571000D02*
X180059000Y-63571000D01*
X169892000Y-63531000D02*
X180108000Y-63531000D01*
X169844000Y-63491000D02*
X180156000Y-63491000D01*
X169796000Y-63451000D02*
X180204000Y-63451000D01*
X169749000Y-63411000D02*
X180251000Y-63411000D01*
X169703000Y-63371000D02*
X180297000Y-63371000D01*
X169657000Y-63331000D02*
X180343000Y-63331000D01*
X169612000Y-63291000D02*
X180388000Y-63291000D01*
X169568000Y-63251000D02*
X180432000Y-63251000D01*
X169525000Y-63211000D02*
X180475000Y-63211000D01*
X169482000Y-63171000D02*
X180518000Y-63171000D01*
X169440000Y-63131000D02*
X180560000Y-63131000D01*
X169398000Y-63091000D02*
X180602000Y-63091000D01*
X169357000Y-63051000D02*
X180643000Y-63051000D01*
X169316000Y-63011000D02*
X180684000Y-63011000D01*
X169276000Y-62971000D02*
X180724000Y-62971000D01*
X169237000Y-62931000D02*
X180763000Y-62931000D01*
X169198000Y-62891000D02*
X180802000Y-62891000D01*
X169160000Y-62851000D02*
X180840000Y-62851000D01*
X169122000Y-62811000D02*
X180878000Y-62811000D01*
X169084000Y-62771000D02*
X180916000Y-62771000D01*
X169048000Y-62731000D02*
X180952000Y-62731000D01*
X169011000Y-62691000D02*
X180989000Y-62691000D01*
X168975000Y-62651000D02*
X181025000Y-62651000D01*
X168940000Y-62611000D02*
X181060000Y-62611000D01*
X168905000Y-62571000D02*
X181095000Y-62571000D01*
X168871000Y-62531000D02*
X181129000Y-62531000D01*
X168837000Y-62491000D02*
X181163000Y-62491000D01*
X168803000Y-62451000D02*
X181197000Y-62451000D01*
X176440000Y-62411000D02*
X181230000Y-62411000D01*
X168770000Y-62411000D02*
X173560000Y-62411000D01*
X176440000Y-62371000D02*
X181263000Y-62371000D01*
X168737000Y-62371000D02*
X173560000Y-62371000D01*
X176440000Y-62331000D02*
X181295000Y-62331000D01*
X168705000Y-62331000D02*
X173560000Y-62331000D01*
X176440000Y-62291000D02*
X181327000Y-62291000D01*
X168673000Y-62291000D02*
X173560000Y-62291000D01*
X176440000Y-62251000D02*
X181358000Y-62251000D01*
X168642000Y-62251000D02*
X173560000Y-62251000D01*
X176440000Y-62211000D02*
X181390000Y-62211000D01*
X168610000Y-62211000D02*
X173560000Y-62211000D01*
X176440000Y-62171000D02*
X181420000Y-62171000D01*
X168580000Y-62171000D02*
X173560000Y-62171000D01*
X176440000Y-62131000D02*
X181450000Y-62131000D01*
X168550000Y-62131000D02*
X173560000Y-62131000D01*
X176440000Y-62091000D02*
X181480000Y-62091000D01*
X168520000Y-62091000D02*
X173560000Y-62091000D01*
X176440000Y-62051000D02*
X181510000Y-62051000D01*
X168490000Y-62051000D02*
X173560000Y-62051000D01*
X176440000Y-62011000D02*
X181539000Y-62011000D01*
X168461000Y-62011000D02*
X173560000Y-62011000D01*
X176440000Y-61971000D02*
X181568000Y-61971000D01*
X168432000Y-61971000D02*
X173560000Y-61971000D01*
X176440000Y-61931000D02*
X181596000Y-61931000D01*
X168404000Y-61931000D02*
X173560000Y-61931000D01*
X176440000Y-61891000D02*
X181624000Y-61891000D01*
X168376000Y-61891000D02*
X173560000Y-61891000D01*
X176440000Y-61851000D02*
X181652000Y-61851000D01*
X168348000Y-61851000D02*
X173560000Y-61851000D01*
X176440000Y-61811000D02*
X181679000Y-61811000D01*
X168321000Y-61811000D02*
X173560000Y-61811000D01*
X176440000Y-61771000D02*
X181706000Y-61771000D01*
X168294000Y-61771000D02*
X173560000Y-61771000D01*
X176440000Y-61731000D02*
X181733000Y-61731000D01*
X168267000Y-61731000D02*
X173560000Y-61731000D01*
X176440000Y-61691000D02*
X181759000Y-61691000D01*
X168241000Y-61691000D02*
X173560000Y-61691000D01*
X176440000Y-61651000D02*
X181785000Y-61651000D01*
X168215000Y-61651000D02*
X173560000Y-61651000D01*
X176440000Y-61611000D02*
X181811000Y-61611000D01*
X168189000Y-61611000D02*
X173560000Y-61611000D01*
X176440000Y-61571000D02*
X181836000Y-61571000D01*
X168164000Y-61571000D02*
X173560000Y-61571000D01*
X176440000Y-61531000D02*
X181861000Y-61531000D01*
X168139000Y-61531000D02*
X173560000Y-61531000D01*
X176440000Y-61491000D02*
X181886000Y-61491000D01*
X168114000Y-61491000D02*
X173560000Y-61491000D01*
X176440000Y-61451000D02*
X181910000Y-61451000D01*
X168090000Y-61451000D02*
X173560000Y-61451000D01*
X176440000Y-61411000D02*
X181934000Y-61411000D01*
X168066000Y-61411000D02*
X173560000Y-61411000D01*
X176440000Y-61371000D02*
X181958000Y-61371000D01*
X168042000Y-61371000D02*
X173560000Y-61371000D01*
X176440000Y-61331000D02*
X181981000Y-61331000D01*
X168019000Y-61331000D02*
X173560000Y-61331000D01*
X176440000Y-61291000D02*
X182004000Y-61291000D01*
X167996000Y-61291000D02*
X173560000Y-61291000D01*
X176440000Y-61251000D02*
X182027000Y-61251000D01*
X167973000Y-61251000D02*
X173560000Y-61251000D01*
X176440000Y-61211000D02*
X182049000Y-61211000D01*
X167951000Y-61211000D02*
X173560000Y-61211000D01*
X176440000Y-61171000D02*
X182072000Y-61171000D01*
X167928000Y-61171000D02*
X173560000Y-61171000D01*
X176440000Y-61131000D02*
X182094000Y-61131000D01*
X167906000Y-61131000D02*
X173560000Y-61131000D01*
X176440000Y-61091000D02*
X182115000Y-61091000D01*
X167885000Y-61091000D02*
X173560000Y-61091000D01*
X176440000Y-61051000D02*
X182136000Y-61051000D01*
X167864000Y-61051000D02*
X173560000Y-61051000D01*
X176440000Y-61011000D02*
X182157000Y-61011000D01*
X167843000Y-61011000D02*
X173560000Y-61011000D01*
X176440000Y-60971000D02*
X182178000Y-60971000D01*
X167822000Y-60971000D02*
X173560000Y-60971000D01*
X176440000Y-60931000D02*
X182199000Y-60931000D01*
X167801000Y-60931000D02*
X173560000Y-60931000D01*
X176440000Y-60891000D02*
X182219000Y-60891000D01*
X167781000Y-60891000D02*
X173560000Y-60891000D01*
X176440000Y-60851000D02*
X182239000Y-60851000D01*
X167761000Y-60851000D02*
X173560000Y-60851000D01*
X176440000Y-60811000D02*
X182258000Y-60811000D01*
X167742000Y-60811000D02*
X173560000Y-60811000D01*
X176440000Y-60771000D02*
X182278000Y-60771000D01*
X167722000Y-60771000D02*
X173560000Y-60771000D01*
X176440000Y-60731000D02*
X182297000Y-60731000D01*
X167703000Y-60731000D02*
X173560000Y-60731000D01*
X176440000Y-60691000D02*
X182316000Y-60691000D01*
X167684000Y-60691000D02*
X173560000Y-60691000D01*
X176440000Y-60651000D02*
X182334000Y-60651000D01*
X167666000Y-60651000D02*
X173560000Y-60651000D01*
X176440000Y-60611000D02*
X182353000Y-60611000D01*
X167647000Y-60611000D02*
X173560000Y-60611000D01*
X176440000Y-60571000D02*
X182371000Y-60571000D01*
X167629000Y-60571000D02*
X173560000Y-60571000D01*
X176440000Y-60531000D02*
X182389000Y-60531000D01*
X167611000Y-60531000D02*
X173560000Y-60531000D01*
X176440000Y-60491000D02*
X182406000Y-60491000D01*
X167594000Y-60491000D02*
X173560000Y-60491000D01*
X176440000Y-60451000D02*
X182423000Y-60451000D01*
X167577000Y-60451000D02*
X173560000Y-60451000D01*
X176440000Y-60411000D02*
X182440000Y-60411000D01*
X167560000Y-60411000D02*
X173560000Y-60411000D01*
X176440000Y-60371000D02*
X182457000Y-60371000D01*
X167543000Y-60371000D02*
X173560000Y-60371000D01*
X176440000Y-60331000D02*
X182474000Y-60331000D01*
X167526000Y-60331000D02*
X173560000Y-60331000D01*
X176440000Y-60291000D02*
X182490000Y-60291000D01*
X167510000Y-60291000D02*
X173560000Y-60291000D01*
X176440000Y-60251000D02*
X182506000Y-60251000D01*
X167494000Y-60251000D02*
X173560000Y-60251000D01*
X176440000Y-60211000D02*
X182522000Y-60211000D01*
X167478000Y-60211000D02*
X173560000Y-60211000D01*
X176440000Y-60171000D02*
X182537000Y-60171000D01*
X167463000Y-60171000D02*
X173560000Y-60171000D01*
X176440000Y-60131000D02*
X182553000Y-60131000D01*
X167447000Y-60131000D02*
X173560000Y-60131000D01*
X176440000Y-60091000D02*
X182568000Y-60091000D01*
X167432000Y-60091000D02*
X173560000Y-60091000D01*
X176440000Y-60051000D02*
X182582000Y-60051000D01*
X167418000Y-60051000D02*
X173560000Y-60051000D01*
X176440000Y-60011000D02*
X182597000Y-60011000D01*
X167403000Y-60011000D02*
X173560000Y-60011000D01*
X176440000Y-59971000D02*
X182611000Y-59971000D01*
X167389000Y-59971000D02*
X173560000Y-59971000D01*
X176440000Y-59931000D02*
X182625000Y-59931000D01*
X167375000Y-59931000D02*
X173560000Y-59931000D01*
X176440000Y-59891000D02*
X182639000Y-59891000D01*
X167361000Y-59891000D02*
X173560000Y-59891000D01*
X176440000Y-59851000D02*
X182653000Y-59851000D01*
X167347000Y-59851000D02*
X173560000Y-59851000D01*
X176440000Y-59811000D02*
X182666000Y-59811000D01*
X167334000Y-59811000D02*
X173560000Y-59811000D01*
X176440000Y-59771000D02*
X182680000Y-59771000D01*
X167320000Y-59771000D02*
X173560000Y-59771000D01*
X176440000Y-59731000D02*
X182693000Y-59731000D01*
X167307000Y-59731000D02*
X173560000Y-59731000D01*
X176440000Y-59691000D02*
X182705000Y-59691000D01*
X167295000Y-59691000D02*
X173560000Y-59691000D01*
X176440000Y-59651000D02*
X182718000Y-59651000D01*
X167282000Y-59651000D02*
X173560000Y-59651000D01*
X176440000Y-59611000D02*
X182730000Y-59611000D01*
X167270000Y-59611000D02*
X173560000Y-59611000D01*
X176440000Y-59571000D02*
X182742000Y-59571000D01*
X167258000Y-59571000D02*
X173560000Y-59571000D01*
X167246000Y-59531000D02*
X182754000Y-59531000D01*
X167235000Y-59491000D02*
X182765000Y-59491000D01*
X167223000Y-59451000D02*
X182777000Y-59451000D01*
X167212000Y-59411000D02*
X182788000Y-59411000D01*
X167201000Y-59371000D02*
X182799000Y-59371000D01*
X167190000Y-59331000D02*
X182810000Y-59331000D01*
X167180000Y-59291000D02*
X182820000Y-59291000D01*
X167170000Y-59251000D02*
X182830000Y-59251000D01*
X167160000Y-59211000D02*
X182840000Y-59211000D01*
X167150000Y-59171000D02*
X182850000Y-59171000D01*
X167140000Y-59131000D02*
X182860000Y-59131000D01*
X167131000Y-59091000D02*
X182869000Y-59091000D01*
X167122000Y-59051000D02*
X182878000Y-59051000D01*
X167113000Y-59011000D02*
X182887000Y-59011000D01*
X167104000Y-58971000D02*
X182896000Y-58971000D01*
X167095000Y-58931000D02*
X182905000Y-58931000D01*
X167087000Y-58891000D02*
X182913000Y-58891000D01*
X167079000Y-58851000D02*
X182921000Y-58851000D01*
X167071000Y-58811000D02*
X182929000Y-58811000D01*
X167063000Y-58771000D02*
X182937000Y-58771000D01*
X167056000Y-58731000D02*
X182944000Y-58731000D01*
X167048000Y-58691000D02*
X182952000Y-58691000D01*
X167041000Y-58651000D02*
X182959000Y-58651000D01*
X167034000Y-58611000D02*
X182966000Y-58611000D01*
X167028000Y-58571000D02*
X182972000Y-58571000D01*
X167021000Y-58531000D02*
X182979000Y-58531000D01*
X167015000Y-58491000D02*
X182985000Y-58491000D01*
X167009000Y-58451000D02*
X182991000Y-58451000D01*
X167003000Y-58411000D02*
X182997000Y-58411000D01*
X166997000Y-58371000D02*
X183003000Y-58371000D01*
X166992000Y-58331000D02*
X183008000Y-58331000D01*
X166986000Y-58291000D02*
X183014000Y-58291000D01*
X166981000Y-58251000D02*
X183019000Y-58251000D01*
X166976000Y-58211000D02*
X183024000Y-58211000D01*
X166972000Y-58171000D02*
X183028000Y-58171000D01*
X166967000Y-58131000D02*
X183033000Y-58131000D01*
X166963000Y-58091000D02*
X183037000Y-58091000D01*
X166959000Y-58051000D02*
X183041000Y-58051000D01*
X166955000Y-58011000D02*
X183045000Y-58011000D01*
X166951000Y-57971000D02*
X183049000Y-57971000D01*
X166948000Y-57930000D02*
X183052000Y-57930000D01*
X166945000Y-57890000D02*
X183055000Y-57890000D01*
X166942000Y-57850000D02*
X183058000Y-57850000D01*
X166939000Y-57810000D02*
X183061000Y-57810000D01*
X166936000Y-57770000D02*
X183064000Y-57770000D01*
X166934000Y-57730000D02*
X183066000Y-57730000D01*
X166931000Y-57690000D02*
X183069000Y-57690000D01*
X166929000Y-57650000D02*
X183071000Y-57650000D01*
X166927000Y-57610000D02*
X183073000Y-57610000D01*
X166926000Y-57570000D02*
X183074000Y-57570000D01*
X166924000Y-57530000D02*
X183076000Y-57530000D01*
X166923000Y-57490000D02*
X183077000Y-57490000D01*
X166922000Y-57450000D02*
X183078000Y-57450000D01*
X166921000Y-57410000D02*
X183079000Y-57410000D01*
X166920000Y-57370000D02*
X183080000Y-57370000D01*
X166920000Y-57330000D02*
X183080000Y-57330000D01*
X166920000Y-57290000D02*
X183080000Y-57290000D01*
X166919000Y-57250000D02*
X183081000Y-57250000D01*
X183120000Y-57250000D02*
G75*
G03X183120000Y-57250000I-8120000J0D01*
G01*
X140860000Y-110490000D02*
X140860000Y-111740000D01*
X139610000Y-110490000D02*
X140860000Y-110490000D01*
X135500000Y-114900000D02*
X135500000Y-114400000D01*
X135400000Y-114400000D02*
X135400000Y-114900000D01*
X135600000Y-114400000D02*
X135400000Y-114400000D01*
X135600000Y-114900000D02*
X135600000Y-114400000D01*
X137500000Y-114900000D02*
X137500000Y-114400000D01*
X137400000Y-114400000D02*
X137400000Y-114900000D01*
X137600000Y-114400000D02*
X137400000Y-114400000D01*
X137600000Y-114900000D02*
X137600000Y-114400000D01*
X132440000Y-113400000D02*
X133050000Y-113400000D01*
X132440000Y-112100000D02*
X133050000Y-112100000D01*
X140560000Y-113400000D02*
X139950000Y-113400000D01*
X140560000Y-112100000D02*
X139950000Y-112100000D01*
X135000000Y-111400000D02*
X135000000Y-110790000D01*
X133050000Y-111400000D02*
X135000000Y-111400000D01*
X133050000Y-114900000D02*
X133050000Y-111400000D01*
X139950000Y-114900000D02*
X133050000Y-114900000D01*
X139950000Y-111400000D02*
X139950000Y-114900000D01*
X138000000Y-111400000D02*
X139950000Y-111400000D01*
X138000000Y-110790000D02*
X138000000Y-111400000D01*
X138800000Y-110690000D02*
X139100000Y-110690000D01*
X139100000Y-110590000D02*
X139100000Y-110790000D01*
X138800000Y-110590000D02*
X139100000Y-110590000D01*
X138800000Y-110790000D02*
X138800000Y-110590000D01*
X132440000Y-110790000D02*
X140560000Y-110790000D01*
X132440000Y-115510000D02*
X132440000Y-110790000D01*
X140560000Y-115510000D02*
X132440000Y-115510000D01*
X140560000Y-110790000D02*
X140560000Y-115510000D01*
X135350000Y-107250000D02*
X136350000Y-107250000D01*
X135350000Y-107250000D02*
X135350000Y-108250000D01*
X144600000Y-110450000D02*
X140375000Y-110450000D01*
X144600000Y-109600000D02*
X144600000Y-110450000D01*
X144800000Y-109600000D02*
X144600000Y-109600000D01*
X144800000Y-108800000D02*
X144800000Y-109600000D01*
X144600000Y-108800000D02*
X144800000Y-108800000D01*
X144600000Y-108050000D02*
X144600000Y-108800000D01*
X140375000Y-108050000D02*
X144600000Y-108050000D01*
X136150000Y-110450000D02*
X140375000Y-110450000D01*
X136150000Y-109600000D02*
X136150000Y-110450000D01*
X135950000Y-109600000D02*
X136150000Y-109600000D01*
X135950000Y-108800000D02*
X135950000Y-109600000D01*
X136150000Y-108800000D02*
X135950000Y-108800000D01*
X136150000Y-108050000D02*
X136150000Y-108800000D01*
X140375000Y-108050000D02*
X136150000Y-108050000D01*
X145110000Y-110960000D02*
X135640000Y-110960000D01*
X145110000Y-107540000D02*
X145110000Y-110960000D01*
X135640000Y-107540000D02*
X145110000Y-107540000D01*
X135640000Y-110960000D02*
X135640000Y-107540000D01*
X154860000Y-110490000D02*
X154860000Y-111740000D01*
X153610000Y-110490000D02*
X154860000Y-110490000D01*
X143500000Y-114900000D02*
X143500000Y-114400000D01*
X143400000Y-114400000D02*
X143400000Y-114900000D01*
X143600000Y-114400000D02*
X143400000Y-114400000D01*
X143600000Y-114900000D02*
X143600000Y-114400000D01*
X145500000Y-114900000D02*
X145500000Y-114400000D01*
X145400000Y-114400000D02*
X145400000Y-114900000D01*
X145600000Y-114400000D02*
X145400000Y-114400000D01*
X145600000Y-114900000D02*
X145600000Y-114400000D01*
X147500000Y-114900000D02*
X147500000Y-114400000D01*
X147400000Y-114400000D02*
X147400000Y-114900000D01*
X147600000Y-114400000D02*
X147400000Y-114400000D01*
X147600000Y-114900000D02*
X147600000Y-114400000D01*
X149500000Y-114900000D02*
X149500000Y-114400000D01*
X149400000Y-114400000D02*
X149400000Y-114900000D01*
X149600000Y-114400000D02*
X149400000Y-114400000D01*
X149600000Y-114900000D02*
X149600000Y-114400000D01*
X151500000Y-114900000D02*
X151500000Y-114400000D01*
X151400000Y-114400000D02*
X151400000Y-114900000D01*
X151600000Y-114400000D02*
X151400000Y-114400000D01*
X151600000Y-114900000D02*
X151600000Y-114400000D01*
X140440000Y-113400000D02*
X141050000Y-113400000D01*
X140440000Y-112100000D02*
X141050000Y-112100000D01*
X154560000Y-113400000D02*
X153950000Y-113400000D01*
X154560000Y-112100000D02*
X153950000Y-112100000D01*
X143000000Y-111400000D02*
X143000000Y-110790000D01*
X141050000Y-111400000D02*
X143000000Y-111400000D01*
X141050000Y-114900000D02*
X141050000Y-111400000D01*
X153950000Y-114900000D02*
X141050000Y-114900000D01*
X153950000Y-111400000D02*
X153950000Y-114900000D01*
X152000000Y-111400000D02*
X153950000Y-111400000D01*
X152000000Y-110790000D02*
X152000000Y-111400000D01*
X152800000Y-110690000D02*
X153100000Y-110690000D01*
X153100000Y-110590000D02*
X153100000Y-110790000D01*
X152800000Y-110590000D02*
X153100000Y-110590000D01*
X152800000Y-110790000D02*
X152800000Y-110590000D01*
X140440000Y-110790000D02*
X154560000Y-110790000D01*
X140440000Y-115510000D02*
X140440000Y-110790000D01*
X154560000Y-115510000D02*
X140440000Y-115510000D01*
X154560000Y-110790000D02*
X154560000Y-115510000D01*
X121062500Y-112450000D02*
X120612500Y-112450000D01*
X121062500Y-112450000D02*
X121062500Y-112000000D01*
X120512500Y-106850000D02*
X120512500Y-107300000D01*
X118662500Y-106850000D02*
X120512500Y-106850000D01*
X116112500Y-114650000D02*
X116362500Y-114650000D01*
X116112500Y-106850000D02*
X116362500Y-106850000D01*
X118662500Y-114650000D02*
X120512500Y-114650000D01*
X120512500Y-114650000D02*
X120512500Y-114200000D01*
D11*
X197333333Y-95952380D02*
X197333333Y-96666666D01*
X197380952Y-96809523D01*
X197476190Y-96904761D01*
X197619047Y-96952380D01*
X197714285Y-96952380D01*
X196428571Y-95952380D02*
X196619047Y-95952380D01*
X196714285Y-96000000D01*
X196761904Y-96047619D01*
X196857142Y-96190476D01*
X196904761Y-96380952D01*
X196904761Y-96761904D01*
X196857142Y-96857142D01*
X196809523Y-96904761D01*
X196714285Y-96952380D01*
X196523809Y-96952380D01*
X196428571Y-96904761D01*
X196380952Y-96857142D01*
X196333333Y-96761904D01*
X196333333Y-96523809D01*
X196380952Y-96428571D01*
X196428571Y-96380952D01*
X196523809Y-96333333D01*
X196714285Y-96333333D01*
X196809523Y-96380952D01*
X196857142Y-96428571D01*
X196904761Y-96523809D01*
D13*
X119535714Y-56864285D02*
X119573809Y-56835714D01*
X119611904Y-56750000D01*
X119611904Y-56692857D01*
X119573809Y-56607142D01*
X119497619Y-56550000D01*
X119421428Y-56521428D01*
X119269047Y-56492857D01*
X119154761Y-56492857D01*
X119002380Y-56521428D01*
X118926190Y-56550000D01*
X118850000Y-56607142D01*
X118811904Y-56692857D01*
X118811904Y-56750000D01*
X118850000Y-56835714D01*
X118888095Y-56864285D01*
X119611904Y-57435714D02*
X119611904Y-57092857D01*
X119611904Y-57264285D02*
X118811904Y-57264285D01*
X118926190Y-57207142D01*
X119002380Y-57150000D01*
X119040476Y-57092857D01*
X119611904Y-58007142D02*
X119611904Y-57664285D01*
X119611904Y-57835714D02*
X118811904Y-57835714D01*
X118926190Y-57778571D01*
X119002380Y-57721428D01*
X119040476Y-57664285D01*
X182535714Y-56864285D02*
X182573809Y-56835714D01*
X182611904Y-56750000D01*
X182611904Y-56692857D01*
X182573809Y-56607142D01*
X182497619Y-56550000D01*
X182421428Y-56521428D01*
X182269047Y-56492857D01*
X182154761Y-56492857D01*
X182002380Y-56521428D01*
X181926190Y-56550000D01*
X181850000Y-56607142D01*
X181811904Y-56692857D01*
X181811904Y-56750000D01*
X181850000Y-56835714D01*
X181888095Y-56864285D01*
X181811904Y-57407142D02*
X181811904Y-57121428D01*
X182192857Y-57092857D01*
X182154761Y-57121428D01*
X182116666Y-57178571D01*
X182116666Y-57321428D01*
X182154761Y-57378571D01*
X182192857Y-57407142D01*
X182269047Y-57435714D01*
X182459523Y-57435714D01*
X182535714Y-57407142D01*
X182573809Y-57378571D01*
X182611904Y-57321428D01*
X182611904Y-57178571D01*
X182573809Y-57121428D01*
X182535714Y-57092857D01*
X182611904Y-57721428D02*
X182611904Y-57835714D01*
X182573809Y-57892857D01*
X182535714Y-57921428D01*
X182421428Y-57978571D01*
X182269047Y-58007142D01*
X181964285Y-58007142D01*
X181888095Y-57978571D01*
X181850000Y-57950000D01*
X181811904Y-57892857D01*
X181811904Y-57778571D01*
X181850000Y-57721428D01*
X181888095Y-57692857D01*
X181964285Y-57664285D01*
X182154761Y-57664285D01*
X182230952Y-57692857D01*
X182269047Y-57721428D01*
X182307142Y-57778571D01*
X182307142Y-57892857D01*
X182269047Y-57950000D01*
X182230952Y-57978571D01*
X182154761Y-58007142D01*
X141285714Y-52364285D02*
X141323809Y-52335714D01*
X141361904Y-52250000D01*
X141361904Y-52192857D01*
X141323809Y-52107142D01*
X141247619Y-52050000D01*
X141171428Y-52021428D01*
X141019047Y-51992857D01*
X140904761Y-51992857D01*
X140752380Y-52021428D01*
X140676190Y-52050000D01*
X140600000Y-52107142D01*
X140561904Y-52192857D01*
X140561904Y-52250000D01*
X140600000Y-52335714D01*
X140638095Y-52364285D01*
X140638095Y-52592857D02*
X140600000Y-52621428D01*
X140561904Y-52678571D01*
X140561904Y-52821428D01*
X140600000Y-52878571D01*
X140638095Y-52907142D01*
X140714285Y-52935714D01*
X140790476Y-52935714D01*
X140904761Y-52907142D01*
X141361904Y-52564285D01*
X141361904Y-52935714D01*
X140904761Y-53278571D02*
X140866666Y-53221428D01*
X140828571Y-53192857D01*
X140752380Y-53164285D01*
X140714285Y-53164285D01*
X140638095Y-53192857D01*
X140600000Y-53221428D01*
X140561904Y-53278571D01*
X140561904Y-53392857D01*
X140600000Y-53450000D01*
X140638095Y-53478571D01*
X140714285Y-53507142D01*
X140752380Y-53507142D01*
X140828571Y-53478571D01*
X140866666Y-53450000D01*
X140904761Y-53392857D01*
X140904761Y-53278571D01*
X140942857Y-53221428D01*
X140980952Y-53192857D01*
X141057142Y-53164285D01*
X141209523Y-53164285D01*
X141285714Y-53192857D01*
X141323809Y-53221428D01*
X141361904Y-53278571D01*
X141361904Y-53392857D01*
X141323809Y-53450000D01*
X141285714Y-53478571D01*
X141209523Y-53507142D01*
X141057142Y-53507142D01*
X140980952Y-53478571D01*
X140942857Y-53450000D01*
X140904761Y-53392857D01*
X139200000Y-102711904D02*
X139200000Y-103283333D01*
X139228571Y-103397619D01*
X139285714Y-103473809D01*
X139371428Y-103511904D01*
X139428571Y-103511904D01*
X138828571Y-103054761D02*
X138885714Y-103016666D01*
X138914285Y-102978571D01*
X138942857Y-102902380D01*
X138942857Y-102864285D01*
X138914285Y-102788095D01*
X138885714Y-102750000D01*
X138828571Y-102711904D01*
X138714285Y-102711904D01*
X138657142Y-102750000D01*
X138628571Y-102788095D01*
X138600000Y-102864285D01*
X138600000Y-102902380D01*
X138628571Y-102978571D01*
X138657142Y-103016666D01*
X138714285Y-103054761D01*
X138828571Y-103054761D01*
X138885714Y-103092857D01*
X138914285Y-103130952D01*
X138942857Y-103207142D01*
X138942857Y-103359523D01*
X138914285Y-103435714D01*
X138885714Y-103473809D01*
X138828571Y-103511904D01*
X138714285Y-103511904D01*
X138657142Y-103473809D01*
X138628571Y-103435714D01*
X138600000Y-103359523D01*
X138600000Y-103207142D01*
X138628571Y-103130952D01*
X138657142Y-103092857D01*
X138714285Y-103054761D01*
X128511904Y-112414285D02*
X129083333Y-112414285D01*
X129197619Y-112385714D01*
X129273809Y-112328571D01*
X129311904Y-112242857D01*
X129311904Y-112185714D01*
X129311904Y-113014285D02*
X129311904Y-112671428D01*
X129311904Y-112842857D02*
X128511904Y-112842857D01*
X128626190Y-112785714D01*
X128702380Y-112728571D01*
X128740476Y-112671428D01*
X129311904Y-113585714D02*
X129311904Y-113242857D01*
X129311904Y-113414285D02*
X128511904Y-113414285D01*
X128626190Y-113357142D01*
X128702380Y-113300000D01*
X128740476Y-113242857D01*
X168561904Y-56764285D02*
X169133333Y-56764285D01*
X169247619Y-56735714D01*
X169323809Y-56678571D01*
X169361904Y-56592857D01*
X169361904Y-56535714D01*
X169361904Y-57364285D02*
X169361904Y-57021428D01*
X169361904Y-57192857D02*
X168561904Y-57192857D01*
X168676190Y-57135714D01*
X168752380Y-57078571D01*
X168790476Y-57021428D01*
X168561904Y-57735714D02*
X168561904Y-57792857D01*
X168600000Y-57850000D01*
X168638095Y-57878571D01*
X168714285Y-57907142D01*
X168866666Y-57935714D01*
X169057142Y-57935714D01*
X169209523Y-57907142D01*
X169285714Y-57878571D01*
X169323809Y-57850000D01*
X169361904Y-57792857D01*
X169361904Y-57735714D01*
X169323809Y-57678571D01*
X169285714Y-57650000D01*
X169209523Y-57621428D01*
X169057142Y-57592857D01*
X168866666Y-57592857D01*
X168714285Y-57621428D01*
X168638095Y-57650000D01*
X168600000Y-57678571D01*
X168561904Y-57735714D01*
X178385714Y-51214285D02*
X178423809Y-51185714D01*
X178461904Y-51100000D01*
X178461904Y-51042857D01*
X178423809Y-50957142D01*
X178347619Y-50900000D01*
X178271428Y-50871428D01*
X178119047Y-50842857D01*
X178004761Y-50842857D01*
X177852380Y-50871428D01*
X177776190Y-50900000D01*
X177700000Y-50957142D01*
X177661904Y-51042857D01*
X177661904Y-51100000D01*
X177700000Y-51185714D01*
X177738095Y-51214285D01*
X177738095Y-51442857D02*
X177700000Y-51471428D01*
X177661904Y-51528571D01*
X177661904Y-51671428D01*
X177700000Y-51728571D01*
X177738095Y-51757142D01*
X177814285Y-51785714D01*
X177890476Y-51785714D01*
X178004761Y-51757142D01*
X178461904Y-51414285D01*
X178461904Y-51785714D01*
X177661904Y-51985714D02*
X177661904Y-52385714D01*
X178461904Y-52128571D01*
X168885714Y-49714285D02*
X168923809Y-49685714D01*
X168961904Y-49600000D01*
X168961904Y-49542857D01*
X168923809Y-49457142D01*
X168847619Y-49400000D01*
X168771428Y-49371428D01*
X168619047Y-49342857D01*
X168504761Y-49342857D01*
X168352380Y-49371428D01*
X168276190Y-49400000D01*
X168200000Y-49457142D01*
X168161904Y-49542857D01*
X168161904Y-49600000D01*
X168200000Y-49685714D01*
X168238095Y-49714285D01*
X168238095Y-49942857D02*
X168200000Y-49971428D01*
X168161904Y-50028571D01*
X168161904Y-50171428D01*
X168200000Y-50228571D01*
X168238095Y-50257142D01*
X168314285Y-50285714D01*
X168390476Y-50285714D01*
X168504761Y-50257142D01*
X168961904Y-49914285D01*
X168961904Y-50285714D01*
X168161904Y-50485714D02*
X168161904Y-50885714D01*
X168961904Y-50628571D01*
X131950000Y-114311904D02*
X131950000Y-114883333D01*
X131978571Y-114997619D01*
X132035714Y-115073809D01*
X132121428Y-115111904D01*
X132178571Y-115111904D01*
X131721428Y-114311904D02*
X131321428Y-114311904D01*
X131578571Y-115111904D01*
X137100000Y-106161904D02*
X137100000Y-106733333D01*
X137128571Y-106847619D01*
X137185714Y-106923809D01*
X137271428Y-106961904D01*
X137328571Y-106961904D01*
X136785714Y-106961904D02*
X136671428Y-106961904D01*
X136614285Y-106923809D01*
X136585714Y-106885714D01*
X136528571Y-106771428D01*
X136500000Y-106619047D01*
X136500000Y-106314285D01*
X136528571Y-106238095D01*
X136557142Y-106200000D01*
X136614285Y-106161904D01*
X136728571Y-106161904D01*
X136785714Y-106200000D01*
X136814285Y-106238095D01*
X136842857Y-106314285D01*
X136842857Y-106504761D01*
X136814285Y-106580952D01*
X136785714Y-106619047D01*
X136728571Y-106657142D01*
X136614285Y-106657142D01*
X136557142Y-106619047D01*
X136528571Y-106580952D01*
X136500000Y-106504761D01*
X144985714Y-110561904D02*
X144985714Y-111133333D01*
X145014285Y-111247619D01*
X145071428Y-111323809D01*
X145157142Y-111361904D01*
X145214285Y-111361904D01*
X144385714Y-111361904D02*
X144728571Y-111361904D01*
X144557142Y-111361904D02*
X144557142Y-110561904D01*
X144614285Y-110676190D01*
X144671428Y-110752380D01*
X144728571Y-110790476D01*
X144157142Y-110638095D02*
X144128571Y-110600000D01*
X144071428Y-110561904D01*
X143928571Y-110561904D01*
X143871428Y-110600000D01*
X143842857Y-110638095D01*
X143814285Y-110714285D01*
X143814285Y-110790476D01*
X143842857Y-110904761D01*
X144185714Y-111361904D01*
X143814285Y-111361904D01*
X156985714Y-112311904D02*
X156985714Y-112883333D01*
X157014285Y-112997619D01*
X157071428Y-113073809D01*
X157157142Y-113111904D01*
X157214285Y-113111904D01*
X156385714Y-113111904D02*
X156728571Y-113111904D01*
X156557142Y-113111904D02*
X156557142Y-112311904D01*
X156614285Y-112426190D01*
X156671428Y-112502380D01*
X156728571Y-112540476D01*
X156157142Y-112388095D02*
X156128571Y-112350000D01*
X156071428Y-112311904D01*
X155928571Y-112311904D01*
X155871428Y-112350000D01*
X155842857Y-112388095D01*
X155814285Y-112464285D01*
X155814285Y-112540476D01*
X155842857Y-112654761D01*
X156185714Y-113111904D01*
X155814285Y-113111904D01*
X117050000Y-115111904D02*
X117050000Y-115683333D01*
X117078571Y-115797619D01*
X117135714Y-115873809D01*
X117221428Y-115911904D01*
X117278571Y-115911904D01*
X116450000Y-115911904D02*
X116792857Y-115911904D01*
X116621428Y-115911904D02*
X116621428Y-115111904D01*
X116678571Y-115226190D01*
X116735714Y-115302380D01*
X116792857Y-115340476D01*
M02*
